<?xml version="1.0" encoding="UTF-8"?>
<svg viewBox="0 0 32 32" version="1.1" xmlns="http://www.w3.org/2000/svg" xmlns:xlink="http://www.w3.org/1999/xlink">
<title>dashboard_border</title>
<path d="M27 3c1.105 0 2 0.895 2 2v22c0 1.105-0.895 2-2 2h-8c-1.105 0-2-0.895-2-2v-22c0-1.105 0.895-2 2-2h8zM13 21c1.105 0 2 0.895 2 2v4c0 1.105-0.895 2-2 2h-8c-1.105 0-2-0.895-2-2v-4c0-1.105 0.895-2 2-2h8zM26 5h-6c-0.552 0-1 0.448-1 1v20c0 0.552 0.448 1 1 1h6c0.552 0 1-0.448 1-1v-20c0-0.552-0.448-1-1-1zM12 23h-6c-0.552 0-1 0.448-1 1v2c0 0.552 0.448 1 1 1h6c0.552 0 1-0.448 1-1v-2c0-0.552-0.448-1-1-1zM13 3c1.105 0 2 0.895 2 2v12c0 1.105-0.895 2-2 2h-8c-1.105 0-2-0.895-2-2v-12c0-1.105 0.895-2 2-2h8zM12 5h-6c-0.552 0-1 0.448-1 1v10c0 0.552 0.448 1 1 1h6c0.552 0 1-0.448 1-1v-10c0-0.552-0.448-1-1-1z"></path>
</svg>
