<?xml version="1.0" encoding="UTF-8"?>
<svg viewBox="0 0 32 32" version="1.1" xmlns="http://www.w3.org/2000/svg" xmlns:xlink="http://www.w3.org/1999/xlink">
<title>warning</title>
<path d="M16.999 4.27c0.304 0.176 0.557 0.428 0.733 0.733l11.537 19.998c0.552 0.957 0.224 2.18-0.733 2.732-0.304 0.175-0.649 0.268-0.999 0.268h-23.074c-1.105 0-2-0.895-2-2 0-0.351 0.092-0.696 0.268-0.999l11.537-19.998c0.552-0.957 1.775-1.285 2.732-0.733zM16 22c-0.552 0-1 0.448-1 1s0.448 1 1 1c0.552 0 1-0.448 1-1s-0.448-1-1-1zM16 12c-0.552 0-1 0.448-1 1v0 6c0 0.552 0.448 1 1 1s1-0.448 1-1v0-6c0-0.552-0.448-1-1-1z"></path>
</svg>
