<?xml version="1.0" encoding="UTF-8"?>
<svg viewBox="0 0 32 32" version="1.1" xmlns="http://www.w3.org/2000/svg" xmlns:xlink="http://www.w3.org/1999/xlink">
<title>new-fax</title>
<path d="M22.999 18c0.552 0 1 0.448 1 1v4h4c0.552 0 1 0.448 1 1s-0.448 1-1 1h-4.001l0.001 4c0 0.552-0.448 1-1 1s-1-0.448-1-1l-0.001-4h-3.999c-0.552 0-1-0.448-1-1s0.448-1 1-1h4v-4c0-0.552 0.448-1 1-1zM29 3c0.552 0 1 0.448 1 1s-0.448 1-1 1h-2v12c0 0.552-0.448 1-1 1s-1-0.448-1-1v-12h-18v21c0 0.552 0.448 1 1 1h8c0.552 0 1 0.448 1 1s-0.448 1-1 1h-9c-1.105 0-2-0.895-2-2v-22h-2c-0.552 0-1-0.448-1-1s0.448-1 1-1h26zM21 14c0.552 0 1 0.448 1 1s-0.448 1-1 1h-10c-0.552 0-1-0.448-1-1s0.448-1 1-1h10zM21 8c0.552 0 1 0.448 1 1s-0.448 1-1 1h-10c-0.552 0-1-0.448-1-1s0.448-1 1-1h10z"></path>
</svg>
