<?xml version="1.0" encoding="UTF-8"?>
<svg viewBox="0 0 32 32" version="1.1" xmlns="http://www.w3.org/2000/svg" xmlns:xlink="http://www.w3.org/1999/xlink">
<title>image-broken-D</title>
<path fill="#30323a" style="fill: var(--color11, #30323a)" d="M3.556 0h24.889c1.964 0 3.556 1.592 3.556 3.556v24.889c0 1.964-1.592 3.556-3.556 3.556h-24.889c-1.964 0-3.556-1.592-3.556-3.556v-24.889c0-1.964 1.592-3.556 3.556-3.556z"></path>
<path fill="#8f9199" style="fill: var(--color12, #8f9199)" d="M11.893 8.018l4.862-0.018 5.466 4.962-0.024 8.878c0 0.607-0.204 1.118-0.612 1.535s-0.909 0.625-1.503 0.625h-8.154c-0.594 0-1.095-0.209-1.503-0.625s-0.612-0.929-0.612-1.535l-0.035-11.661c0-0.607 0.204-1.118 0.612-1.535s0.909-0.625 1.503-0.625l-0 0z"></path>
<path fill="#f1f1f1" style="fill: var(--color24, #f1f1f1)" d="M18.329 14.738c0.585 0 0.944 0.535 1.542 1.822l0.627 1.388 0.141 0.297c0.021 0.043 0.041 0.082 0.060 0.121l0.119 0.223 0.118 0.2c0.037 0.059 0.072 0.109 0.104 0.151l0.057 0.069 0.027-0.021c0.025-0.023 0.054-0.055 0.086-0.097l0.106-0.152 0.126-0.206 0.144-0.259 0.161-0.311 0.176-0.362 0.19-0.413c0.033-0.073 0.066-0.148 0.1-0.225l-0.006 1.994c-0.41 0.651-0.782 0.962-1.157 0.962l-0.121-0.005c-0.327-0.029-0.53-0.198-0.853-0.803l-0.146-0.287-0.165-0.346c-0.029-0.063-0.060-0.128-0.091-0.197l-0.608-1.346-0.151-0.314-0.151-0.295-0.135-0.246-0.115-0.195-0.091-0.142-0.063-0.087c-0.016-0.019-0.026-0.029-0.030-0.029-0.008 0-0.020 0.008-0.036 0.023l-0.059 0.070-0.082 0.118-0.105 0.167-0.2 0.344-0.161 0.293-0.184 0.346-0.579 1.133-0.215 0.403c-0.548 0.998-0.913 1.395-1.442 1.395-0.525 0-0.919-0.43-1.473-1.396l-0.231-0.415-0.675-1.274-0.258-0.469-0.302-0.522-0.102-0.163-0.034-0.048c-0.003-0.004-0.006-0.006-0.007-0.006l-0.008-0.002-0.016-0.026c-0.003-0.004-0.008-0.005-0.016 0.003l-0.042 0.052-0.086 0.131-2.212 3.692-0.005-1.744 0.868-1.464 0.080-0.13 0.211-0.331 0.219-0.321c0.381-0.531 0.659-0.75 1.008-0.75l0.113 0.004c0.3 0.021 0.49 0.147 0.814 0.666l0.16 0.269 0.184 0.331c0.033 0.061 0.067 0.124 0.103 0.191l0.784 1.487 0.209 0.374c0.165 0.285 0.307 0.506 0.438 0.676 0.046 0.059 0.088 0.109 0.124 0.149l0.124 0.124 0.028 0.022c0.017 0 0.044-0.019 0.081-0.057l0.085-0.1 0.108-0.149 0.129-0.197 0.148-0.245 0.166-0.291c0.029-0.052 0.059-0.107 0.089-0.163l0.36-0.7 0.404-0.792 0.193-0.364 0.172-0.306c0.408-0.699 0.658-0.904 1.048-0.927l0.080-0.002z"></path>
</svg>
