<?xml version="1.0" encoding="UTF-8"?>
<svg viewBox="0 0 32 32" version="1.1" xmlns="http://www.w3.org/2000/svg" xmlns:xlink="http://www.w3.org/1999/xlink">
<title>view-log_border</title>
<path d="M14 2c0.552 0 1 0.448 1 1s-0.448 1-1 1v0h-7c-0.552 0-1 0.448-1 1v0 22c0 0.552 0.448 1 1 1v0h18c0.552 0 1-0.448 1-1v0-11l0.007-0.117c0.058-0.497 0.48-0.883 0.993-0.883 0.552 0 1 0.448 1 1v0 12c0 1.105-0.895 2-2 2v0h-20c-1.105 0-2-0.895-2-2v0-24c0-1.105 0.895-2 2-2v0zM21 19c0.552 0 1 0.448 1 1 0 0.513-0.386 0.936-0.883 0.993l-0.117 0.007h-9.997c-0.552 0-1-0.448-1-1 0-0.513 0.386-0.936 0.883-0.993l0.117-0.007h9.997zM16 13c0.552 0 1 0.448 1 1 0 0.513-0.386 0.935-0.883 0.993l-0.117 0.007h-4.997c-0.552 0-1-0.448-1-1 0-0.513 0.386-0.935 0.883-0.993l0.117-0.007h4.997zM27 2c0.552 0 1 0.448 1 1v8c0 0.552-0.448 1-1 1s-1-0.448-1-1l-0.001-5.586-5.827 5.829c-0.391 0.39-1.024 0.39-1.414 0s-0.391-1.024 0-1.414l5.827-5.829-5.585 0c-0.552 0-1-0.448-1-1s0.448-1 1-1h8z"></path>
</svg>
