<?xml version="1.0" encoding="UTF-8"?>
<svg viewBox="0 0 32 32" version="1.1" xmlns="http://www.w3.org/2000/svg" xmlns:xlink="http://www.w3.org/1999/xlink">
<title>rich_text_editor</title>
<path d="M22.118 24.538l0.796 1.96c0.244 0.602-0.046 1.288-0.648 1.532-0.559 0.227-1.191-0.007-1.473-0.524l-0.059-0.124-0.406-1.053 1.791-1.791zM13.947 4.475l0.080 0.126 0.063 0.133 4.188 10.33-1.772 1.772-3.506-8.53-4.508 10.71 5.835-0.001-1.982 1.982-4.894 0.001-2.184 6.385c-0.227 0.559-0.834 0.849-1.402 0.692l-0.13-0.044c-0.559-0.227-0.849-0.834-0.692-1.402l0.044-0.13 8.823-21.764c0.358-0.884 1.522-0.97 2.038-0.259zM25.772 11.368l0.112 0.066 0.099 0.076 0.062 0.055 2.257 2.062c0.381 0.289 0.536 0.765 0.412 1.204l-0.041 0.118-0.053 0.109-0.089 0.155-11.533 11.692c-0.131 0.131-0.284 0.239-0.487 0.329l-0.162 0.064-0.149 0.041-2.956 0.661h-0.108l-0.124-0.003c-0.437-0.037-0.803-0.316-0.948-0.702l-0.034-0.108-0.025-0.144-0.015-0.169 0.524-2.908c0.034-0.181 0.102-0.355 0.221-0.539l0.099-0.141 0.098-0.11 11.512-11.673c0.377-0.307 0.903-0.353 1.325-0.134zM22.099 16.513l-7.745 7.856-0.285 1.582 1.629-0.363 7.685-7.789-1.285-1.285zM25.24 13.328l-1.737 1.76 1.286 1.286 1.796-1.82-1.345-1.227z"></path>
</svg>
