<?xml version="1.0" encoding="UTF-8"?>
<svg viewBox="0 0 32 32" version="1.1" xmlns="http://www.w3.org/2000/svg" xmlns:xlink="http://www.w3.org/1999/xlink">
<title>help</title>
<path d="M16 2c7.732 0 14 6.268 14 14s-6.268 14-14 14c-7.732 0-14-6.268-14-14s6.268-14 14-14zM15.58 20.75c-0.213 0-0.413 0.040-0.6 0.12s-0.348 0.187-0.485 0.32c-0.137 0.133-0.243 0.293-0.32 0.48s-0.115 0.383-0.115 0.59c0 0.213 0.038 0.412 0.115 0.595s0.183 0.342 0.32 0.475c0.137 0.133 0.298 0.238 0.485 0.315s0.387 0.115 0.6 0.115c0.207 0 0.403-0.038 0.59-0.115s0.347-0.182 0.48-0.315c0.133-0.133 0.24-0.292 0.32-0.475s0.12-0.382 0.12-0.595c0-0.207-0.040-0.403-0.12-0.59s-0.187-0.347-0.32-0.48c-0.133-0.133-0.293-0.24-0.48-0.32s-0.383-0.12-0.59-0.12zM16 9c-0.427 0-0.823 0.038-1.19 0.115s-0.707 0.182-1.020 0.315c-0.313 0.133-0.605 0.29-0.875 0.47s-0.518 0.37-0.745 0.57v0l0.7 1.11c0.108 0.147 0.264 0.22 0.47 0.22 0.1 0 0.213-0.042 0.34-0.125s0.282-0.177 0.465-0.28c0.183-0.103 0.407-0.197 0.67-0.28s0.585-0.125 0.965-0.125c0.26 0 0.502 0.037 0.725 0.11s0.415 0.178 0.575 0.315c0.16 0.137 0.285 0.3 0.375 0.49s0.135 0.405 0.135 0.645c0 0.36-0.073 0.673-0.22 0.94s-0.33 0.505-0.55 0.715c-0.22 0.21-0.457 0.405-0.71 0.585s-0.49 0.365-0.71 0.555c-0.22 0.19-0.403 0.393-0.55 0.61s-0.22 0.472-0.22 0.765v0l0.002 0.124 0.008 0.046 0.17 1.63h1.69l0.23-1.46 0.028-0.125c0.049-0.164 0.141-0.314 0.277-0.45 0.17-0.17 0.372-0.343 0.605-0.52v0l0.74-0.565c0.26-0.2 0.502-0.437 0.725-0.71s0.408-0.595 0.555-0.965 0.22-0.808 0.22-1.315c0-0.52-0.093-0.99-0.28-1.41s-0.45-0.778-0.79-1.075c-0.34-0.297-0.748-0.525-1.225-0.685s-1.005-0.24-1.585-0.24z"></path>
</svg>
