<?xml version="1.0" encoding="UTF-8"?>
<svg viewBox="0 0 32 32" version="1.1" xmlns="http://www.w3.org/2000/svg" xmlns:xlink="http://www.w3.org/1999/xlink">
<title>indent</title>
<path d="M27 24c0.552 0 1 0.448 1 1s-0.448 1-1 1h-22c-0.552 0-1-0.448-1-1s0.448-1 1-1h22zM5.598 12.201l0.174 0.114 3.737 2.73c0.591 0.444 0.658 1.332 0.152 1.85l-0.152 0.131-3.737 2.684c-0.772 0.548-1.656 0.304-1.761-0.611l-0.010-0.206v-5.748c-0.010-1.043 0.784-1.413 1.598-0.943zM27 15c0.552 0 1 0.448 1 1s-0.448 1-1 1h-14c-0.552 0-1-0.448-1-1s0.448-1 1-1h14zM27 6c0.552 0 1 0.448 1 1s-0.448 1-1 1h-22c-0.552 0-1-0.448-1-1s0.448-1 1-1h22z"></path>
</svg>
