<?xml version="1.0" encoding="UTF-8"?>
<svg viewBox="0 0 32 32" version="1.1" xmlns="http://www.w3.org/2000/svg" xmlns:xlink="http://www.w3.org/1999/xlink">
<title>thumbup_border</title>
<path d="M4 28c-1.105 0-2-0.895-2-2v-9c0-1.105 0.895-2 2-2h4l6.825-11.12c0.731-1.17 2.013-1.88 3.392-1.88h0.783c1.273 0 2.305 1.032 2.305 2.305 0 0.2-0.026 0.4-0.078 0.594l-1.36 5.101h6.133c2.209 0 4 1.791 4 4v4.5c0 5.247-4.253 9.5-9.5 9.5h-16.5zM7 17h-2c-0.552 0-1 0.448-1 1v7c0 0.552 0.448 1 1 1h2v-9zM19 4h-0.783c-0.69 0-1.331 0.355-1.687 0.926l-6.825 11.12c-0.364 0.593-0.705 0.954-0.705 0.954v9h11.5c4.142 0 7.5-3.358 7.5-7.5v-4.5c0-1.105-0.895-2-2-2h-6.133c-1.314 0-2.271-1.246-1.933-2.515l1.36-5.101c0.007-0.026 0.010-0.052 0.010-0.079 0-0.168-0.136-0.305-0.305-0.305z"></path>
</svg>
