<?xml version="1.0" encoding="UTF-8"?>
<svg viewBox="0 0 32 32" version="1.1" xmlns="http://www.w3.org/2000/svg" xmlns:xlink="http://www.w3.org/1999/xlink">
<title>default-file-D</title>
<path fill="#222b42" style="fill: var(--color21, #222b42)" d="M3.556 0h24.889c1.964 0 3.556 1.592 3.556 3.556v24.889c0 1.964-1.592 3.556-3.556 3.556h-24.889c-1.964 0-3.556-1.592-3.556-3.556v-24.889c0-1.964 1.592-3.556 3.556-3.556z"></path>
<path fill="#2f51b1" style="fill: var(--color38, #2f51b1)" d="M22.105 8.889h-12.212c-0.989-0.002-1.793 0.902-1.794 2.018 0 0.091 0.005 0.182 0.016 0.272 0.025 0.222 0.206 0.379 0.402 0.35 0.048-0.007 0.094-0.025 0.136-0.052 0.159-0.104 0.339-0.158 0.522-0.156h2.557c0.462 0.001 0.872 0.333 1.021 0.825l0.061 0.222c0.247 0.825 0.932 1.382 1.705 1.384h8.304c0.188 0 0.373 0.056 0.537 0.162 0.055 0.036 0.118 0.055 0.182 0.055 0.198 0 0.359-0.181 0.359-0.405v-2.648c0-1.119-0.804-2.026-1.796-2.026v-0z"></path>
<path fill="#356afd" style="fill: var(--color37, #356afd)" d="M23.965 13.314c-0.282-0.159-0.602-0.243-0.928-0.242h-8.563c-0.476-0.001-0.899-0.294-1.053-0.73l-0.063-0.196c-0.255-0.73-0.962-1.223-1.758-1.225h-2.637c-0.318-0.003-0.631 0.077-0.907 0.232-0.584 0.316-0.945 0.913-0.945 1.561v8.605c0 0.99 0.829 1.793 1.852 1.793h14.074c1.023 0 1.852-0.803 1.852-1.793v-6.454c0.002-0.64-0.35-1.232-0.924-1.55v-0z"></path>
</svg>
