<?xml version="1.0" encoding="UTF-8"?>
<svg viewBox="0 0 32 32" version="1.1" xmlns="http://www.w3.org/2000/svg" xmlns:xlink="http://www.w3.org/1999/xlink">
<title>contacts_and_calendars</title>
<path d="M22 2c1.105 0 2 0.895 2 2v2h4c1.105 0 2 0.895 2 2v20c0 1.105-0.895 2-2 2h-24c-1.105 0-2-0.895-2-2v-20c0-1.105 0.895-2 2-2h4v-2c0-1.105 0.895-2 2-2s2 0.895 2 2v2h8v-2c0-1.105 0.895-2 2-2zM22 20h-12c-1.054 0-1.918 0.816-1.995 1.851l-0.005 0.149v4h16v-4c0-1.105-0.895-2-2-2zM16 10c-2.209 0-4 1.791-4 4s1.791 4 4 4c2.209 0 4-1.791 4-4s-1.791-4-4-4z"></path>
</svg>
