<?xml version="1.0" encoding="UTF-8"?>
<svg viewBox="0 0 32 32" version="1.1" xmlns="http://www.w3.org/2000/svg" xmlns:xlink="http://www.w3.org/1999/xlink">
<title>google-calendar-2019</title>
<path fill="#c7c7c7" style="fill: var(--color56, #c7c7c7)" d="M26 2.357c-4.501 0-15.499 0-20 0-0.789 0-1.429 0.639-1.429 1.429 0 2.176 0 2.143 0 2.143h22.857c0 0 0 0.034 0-2.143 0-0.789-0.639-1.429-1.429-1.429zM8.857 4.5c-0.394 0-0.714-0.32-0.714-0.714s0.32-0.714 0.714-0.714c0.394 0 0.714 0.32 0.714 0.714s-0.32 0.714-0.714 0.714h0zM23.143 4.5c-0.394 0-0.714-0.32-0.714-0.714s0.32-0.714 0.714-0.714c0.394 0 0.714 0.32 0.714 0.714s-0.32 0.714-0.714 0.714z"></path>
<path fill="#1976d2" style="fill: var(--color16, #1976d2)" d="M30.286 6.643c0.074-0.416-1.006-1.429-1.429-1.429-5.079 0-20.635 0-25.714 0-0.714 0-1.502 1.013-1.429 1.429 0.588 3.331 2.143 10.714 2.143 10.714h24.286c0 0 1.555-7.383 2.143-10.714h0z"></path>
<path fill="#1e88e5" style="fill: var(--color57, #1e88e5)" d="M28.143 17.357h-24.286c0 0-1.555 7.383-2.143 10.714 0 0.819 0.566 1.429 1.429 1.429 5.079 0 20.635 0 25.714 0 0.422 0 1.429-0.357 1.429-1.429-0.588-3.331-2.143-10.714-2.143-10.714h-0z"></path>
<path fill="#fafafa" style="fill: var(--color58, #fafafa)" d="M13.524 17.357c0.703 0.232 1.205 0.607 1.504 1.112 0.309 0.523 0.464 1.107 0.464 1.755 0 1.13-0.371 2.019-1.111 2.666s-1.688 0.971-2.841 0.971c-1.13 0-2.066-0.305-2.807-0.916s-1.097-1.439-1.069-2.483l0.026-0.051h1.601c0 0.653 0.2 1.173 0.601 1.559s0.95 0.579 1.649 0.579c0.71 0 1.266-0.193 1.669-0.579s0.605-0.957 0.605-1.712c0-0.766-0.179-1.331-0.536-1.695s-0.923-0.545-1.695-0.545h-1.465v-0.661l3.406 0zM21.455 17.357h1.678v6.326h-1.678v-6.326z"></path>
<path fill="#e0e0e0" style="fill: var(--color59, #e0e0e0)" d="M9.376 14.526h-1.61l-0.017-0.051c-0.029-0.937 0.311-1.734 1.018-2.389s1.631-0.984 2.773-0.984c1.147 0 2.061 0.305 2.743 0.916s1.022 1.481 1.022 2.611c0 0.511-0.155 1.021-0.464 1.529s-0.774 0.896-1.393 1.163l0.076 0.037h-3.407v-0.651h1.465c0.744 0 1.271-0.186 1.58-0.558s0.464-0.89 0.464-1.554c0-0.71-0.176-1.249-0.528-1.619s-0.871-0.554-1.559-0.554c-0.653 0-1.177 0.191-1.571 0.575-0.381 0.37-0.579 0.859-0.592 1.529l-0-0zM23.133 17.357h-1.678v-4.441l-2.539 0.034v-1.21l4.216-0.46-0 6.077z"></path>
<path fill="#1976d2" style="fill: var(--color16, #1976d2)" d="M3.143 5.214c-1.027 0-1.502 1.013-1.429 1.429 0.588 3.331 2.143 10.714 2.143 10.714l-0.714-12.143zM28.143 17.357c0 0 1.555-7.383 2.143-10.714 0-1.161-1.006-1.429-1.429-1.429l-0.714 12.143z"></path>
</svg>
