<?xml version="1.0" encoding="UTF-8"?>
<svg viewBox="0 0 32 32" version="1.1" xmlns="http://www.w3.org/2000/svg" xmlns:xlink="http://www.w3.org/1999/xlink">
<title>undock</title>
<path d="M20 10c1.105 0 2 0.895 2 2v16c0 1.105-0.895 2-2 2h-16c-1.105 0-2-0.895-2-2v-16c0-1.105 0.895-2 2-2h16zM17 15h-6l2.243 2.242-6.536 6.536c-0.391 0.391-0.391 1.024 0 1.414 0.36 0.36 0.928 0.388 1.32 0.083l0.094-0.083 6.536-6.536 2.343 2.344v-6zM28 2c1.105 0 2 0.895 2 2v16c0 1.105-0.895 2-2 2h-4v-14h-14v-4c0-1.105 0.895-2 2-2h16z"></path>
</svg>
