<?xml version="1.0" encoding="UTF-8"?>
<svg viewBox="0 0 32 32" version="1.1" xmlns="http://www.w3.org/2000/svg" xmlns:xlink="http://www.w3.org/1999/xlink">
<title>bubble_lines</title>
<path d="M22 9c1.105 0 2 0.895 2 2v12c0 1.105-0.895 2-2 2h-4.586c-0.265 0-0.52 0.105-0.707 0.293l-3.141 3.141c-0.312 0.312-0.819 0.312-1.131 0l-3.141-3.141c-0.188-0.188-0.442-0.293-0.707-0.293h-4.586c-1.105 0-2-0.895-2-2v-12c0-1.105 0.895-2 2-2h18zM28 3c1.105 0 2 0.895 2 2v12c0 1.105-0.895 2-2 2h-3v-9c0-1.054-0.816-1.918-1.851-1.995l-0.149-0.005h-15v-3c0-1.105 0.895-2 2-2h18z"></path>
</svg>
