<?xml version="1.0" encoding="UTF-8"?>
<svg viewBox="0 0 32 32" version="1.1" xmlns="http://www.w3.org/2000/svg" xmlns:xlink="http://www.w3.org/1999/xlink">
<title>advanced</title>
<path d="M20.399 4h-9.405c-1.421 0-2.736 0.754-3.453 1.981l-4.678 8c-0.729 1.247-0.729 2.791 0 4.038l4.678 8c0.717 1.227 2.032 1.981 3.453 1.981h9.405c1.424 0 2.741-0.757 3.457-1.988l4.656-8c0.724-1.244 0.724-2.78 0-4.024l-4.656-8c-0.716-1.231-2.033-1.988-3.457-1.988zM15.683 22c-3.3 0-6-2.7-6-6s2.7-6 6-6c3.3 0 6 2.7 6 6s-2.667 6-6 6z"></path>
</svg>
