<?xml version="1.0" encoding="UTF-8"?>
<svg viewBox="0 0 32 32" version="1.1" xmlns="http://www.w3.org/2000/svg" xmlns:xlink="http://www.w3.org/1999/xlink">
<title>menu-fax</title>
<path d="M27.3 0c1.105 0 2 0.895 2 2v22h-6.1c-1.054 0-1.918 0.816-1.994 1.851l-0.006 0.149v6h-16.9c-1.105 0-2-0.895-2-2v-28c0-1.105 0.895-2 2-2h23zM28.272 25.814c0.552 0 1 0.448 1 1 0 0.267-0.107 0.524-0.297 0.712l-4.201 4.149c-0.393 0.388-1.026 0.384-1.414-0.009-0.185-0.187-0.288-0.44-0.288-0.703v-4.149c0-0.552 0.448-1 1-1h4.201zM17.383 19h-9.167c-0.506 0-0.917 0.672-0.917 1.5s0.41 1.5 0.917 1.5v0h9.167c0.506 0 0.917-0.672 0.917-1.5s-0.41-1.5-0.917-1.5v0zM22.967 11h-13.333c-0.736 0-1.333 0.672-1.333 1.5s0.597 1.5 1.333 1.5v0h13.333c0.736 0 1.333-0.672 1.333-1.5s-0.597-1.5-1.333-1.5v0z"></path>
</svg>
