<?xml version="1.0" encoding="UTF-8"?>
<svg viewBox="0 0 32 32" version="1.1" xmlns="http://www.w3.org/2000/svg" xmlns:xlink="http://www.w3.org/1999/xlink">
<title>watch-video</title>
<path d="M17.818 5c2.761 0 5 2.239 5 5v0l-0 3.92 6.328-5.751c0.614-0.559 1.584-0.166 1.667 0.629l0.006 0.111v14.545c0 0.868-1.030 1.324-1.673 0.74v0l-6.328-5.753 0 3.922c0 2.689-2.122 4.882-4.783 4.995l-0.217 0.005h-11.818c-2.761 0-5-2.239-5-5v0-12.364c0-2.761 2.239-5 5-5v0zM17.818 7h-11.818c-1.657 0-3 1.343-3 3v0 12.364c0 1.657 1.343 3 3 3v0h11.818c1.657 0 3-1.343 3-3v0-12.364c0-1.657-1.343-3-3-3v0zM28.818 11.168l-5.514 5.012 5.514 5.014v-10.026z"></path>
</svg>
