<?xml version="1.0" encoding="UTF-8"?>
<svg viewBox="0 0 32 32" version="1.1" xmlns="http://www.w3.org/2000/svg" xmlns:xlink="http://www.w3.org/1999/xlink">
<title>double-chevron_right</title>
<path d="M26.899 4c-0.552 0-1 0.448-1 1v22c0 0.552 0.448 1 1 1s1-0.448 1-1v-22c0-0.552-0.448-1-1-1zM14.586 6.101c-0.391 0.391-0.391 1.024 0 1.414l7.487 7.485h-17.073c-0.552 0-1 0.448-1 1s0.448 1 1 1h17.070l-7.485 7.485c-0.391 0.391-0.391 1.024 0 1.414s1.024 0.391 1.414 0l9.192-9.192c0.391-0.391 0.391-1.024 0-1.414l-9.192-9.192c-0.391-0.391-1.024-0.391-1.414 0z"></path>
</svg>
