<?xml version="1.0" encoding="UTF-8"?>
<svg viewBox="0 0 32 32" version="1.1" xmlns="http://www.w3.org/2000/svg" xmlns:xlink="http://www.w3.org/1999/xlink">
<title>star</title>
<path d="M16.885 1.726c0.394 0.195 0.714 0.514 0.908 0.908l2.97 6.018c0.146 0.295 0.427 0.5 0.753 0.547l6.641 0.965c1.093 0.159 1.85 1.174 1.692 2.267-0.063 0.435-0.268 0.838-0.583 1.145l-4.806 4.684c-0.236 0.23-0.343 0.561-0.288 0.885l1.134 6.614c0.187 1.089-0.544 2.123-1.633 2.309-0.433 0.074-0.879 0.004-1.269-0.201l-5.94-3.123c-0.291-0.153-0.639-0.153-0.931 0l-5.94 3.123c-0.978 0.514-2.187 0.138-2.701-0.84-0.205-0.389-0.275-0.835-0.201-1.269l1.134-6.614c0.056-0.324-0.052-0.655-0.288-0.885l-4.806-4.684c-0.791-0.771-0.807-2.037-0.036-2.828 0.307-0.315 0.709-0.52 1.145-0.583l6.641-0.965c0.326-0.047 0.607-0.252 0.753-0.547l2.97-6.018c0.489-0.99 1.688-1.397 2.679-0.908z"></path>
</svg>
