<?xml version="1.0" encoding="UTF-8"?>
<svg viewBox="0 0 32 32" version="1.1" xmlns="http://www.w3.org/2000/svg" xmlns:xlink="http://www.w3.org/1999/xlink">
<title>webinar</title>
<path d="M28 3c1.105 0 2 0.895 2 2v18c0 1.105-0.895 2-2 2h-11v2h4c0.552 0 1 0.448 1 1s-0.448 1-1 1h-10c-0.552 0-1-0.448-1-1s0.448-1 1-1h4v-2h-11c-1.105 0-2-0.895-2-2v-18c0-1.105 0.895-2 2-2h24zM22 17c-3.262 0-6 2.157-6 5 0 0.552 0.413 1 0.923 1v0h10.154c0.51 0 0.923-0.448 0.923-1 0-2.843-2.738-5-6-5zM13 15h-6c-0.552 0-1 0.448-1 1s0.448 1 1 1v0h6c0.552 0 1-0.448 1-1s-0.448-1-1-1v0zM22 8.5c-1.657 0-3 1.343-3 3s1.343 3 3 3c1.657 0 3-1.343 3-3s-1.343-3-3-3zM13 9h-6c-0.552 0-1 0.448-1 1s0.448 1 1 1v0h6c0.552 0 1-0.448 1-1s-0.448-1-1-1v0z"></path>
</svg>
