<?xml version="1.0" encoding="UTF-8"?>
<svg viewBox="0 0 32 32" version="1.1" xmlns="http://www.w3.org/2000/svg" xmlns:xlink="http://www.w3.org/1999/xlink">
<title>failed-fax</title>
<path fill="#f44336" style="fill: var(--color48, #f44336)" d="M20 4c1.105 0 2 0.895 2 2v16h-4c-1.054 0-1.918 0.816-1.994 1.851l-0.006 0.149v4h-12c-1.105 0-2-0.895-2-2v-20c0-1.105 0.895-2 2-2h16zM28 24c1.105 0 2 0.895 2 2s-0.895 2-2 2c-1.105 0-2-0.895-2-2s0.895-2 2-2zM20.942 23.616c0.552 0 1 0.448 1 1 0 0.265-0.105 0.52-0.293 0.707l-2.243 2.243c-0.391 0.391-1.024 0.391-1.414 0-0.188-0.188-0.293-0.442-0.293-0.707v-2.243c0-0.552 0.448-1 1-1h2.243zM28 4c0.552 0 1 0.448 1 1v16c0 0.552-0.448 1-1 1s-1-0.448-1-1v-16c0-0.552 0.448-1 1-1zM13.333 18h-6.667c-0.368 0-0.667 0.448-0.667 1 0 0.51 0.254 0.93 0.583 0.992l0.084 0.008h6.667c0.368 0 0.667-0.448 0.667-1s-0.298-1-0.667-1zM17 12h-10c-0.552 0-1 0.448-1 1 0 0.513 0.386 0.935 0.883 0.993l0.117 0.007h10c0.552 0 1-0.448 1-1s-0.448-1-1-1z"></path>
</svg>
