<?xml version="1.0" encoding="UTF-8"?>
<svg viewBox="0 0 32 32" version="1.1" xmlns="http://www.w3.org/2000/svg" xmlns:xlink="http://www.w3.org/1999/xlink">
<title>rcv_videocam-off</title>
<path fill="#6a7186" style="fill: var(--color16, #6a7186)" d="M21 5.5c0.597 0 1.132 0.261 1.499 0.675l-19.327 19.325h-0.172c-1.105 0-2-0.895-2-2v-16c0-1.105 0.895-2 2-2h18zM23 11.328v12.172c0 1.105-0.895 2-2 2h-12.173l14.173-14.172zM30 9.118c0.513 0 0.936 0.386 0.993 0.883l0.007 0.117v10.764c0 0.155-0.036 0.308-0.106 0.447-0.229 0.459-0.764 0.664-1.234 0.493l-0.107-0.046-5-2.5c-0.301-0.151-0.504-0.441-0.545-0.77l-0.008-0.125v-5.764c0-0.337 0.169-0.648 0.445-0.832l0.108-0.063 5-2.5c0.139-0.069 0.292-0.106 0.447-0.106z"></path>
<path fill="#f54c3d" style="fill: var(--color17, #f54c3d)" d="M29.435 3.479c0.391 0.391 0.391 1.024 0 1.414l-24.042 24.042c-0.391 0.391-1.024 0.391-1.414 0s-0.391-1.024 0-1.414l24.042-24.042c0.391-0.391 1.024-0.391 1.414 0z"></path>
</svg>
