<?xml version="1.0" encoding="UTF-8"?>
<svg viewBox="0 0 32 32" version="1.1" xmlns="http://www.w3.org/2000/svg" xmlns:xlink="http://www.w3.org/1999/xlink">
<title>barge</title>
<path d="M8 21l4 2v3c0 1.105-0.895 2-2 2s-2-0.895-2-2v-5zM24.849 5.225c0.099 0.242 0.151 0.5 0.151 0.761v16.027c0 1.105-0.895 2-2 2-0.261 0-0.52-0.051-0.762-0.151l-13-5.353c-0.749-0.309-1.239-1.039-1.239-1.849v-5.321c0-0.81 0.489-1.541 1.239-1.849l13-5.353c1.021-0.421 2.19 0.067 2.611 1.088zM6 10v8c-2.209 0-4-1.791-4-4s1.791-4 4-4zM27 11c1.657 0 3 1.343 3 3 0 1.598-1.249 2.904-2.824 2.995l-0.176 0.005v-6z"></path>
</svg>
