<?xml version="1.0" encoding="UTF-8"?>
<svg viewBox="0 0 32 32" version="1.1" xmlns="http://www.w3.org/2000/svg" xmlns:xlink="http://www.w3.org/1999/xlink">
<title>google-sheet-D</title>
<path fill="#1e2f1f" style="fill: var(--color33, #1e2f1f)" d="M3.556 0h24.889c1.964 0 3.556 1.592 3.556 3.556v24.889c0 1.964-1.592 3.556-3.556 3.556h-24.889c-1.964 0-3.556-1.592-3.556-3.556v-24.889c0-1.964 1.592-3.556 3.556-3.556z"></path>
<path fill="#43a047" style="fill: var(--color34, #43a047)" d="M11.915 8l4.844 0.023 5.463 5.114v8.889c0 0.605-0.215 0.933-0.627 1.349s-0.918 0.624-1.518 0.624h-8.171c-0.6 0-1.106-0.208-1.518-0.624s-0.61-0.743-0.61-1.349v-11.87c0-0.606 0.206-1.116 0.619-1.533s0.918-0.624 1.518-0.624h-0z"></path>
<path fill="#f1f1f1" style="fill: var(--color24, #f1f1f1)" d="M20.444 14.222v6.914h-8.889v-6.914h8.889zM14.518 19.16h-1.975v0.988h1.975v-0.988zM19.457 19.16h-3.951v0.988h3.951v-0.988zM14.518 17.185h-1.975v0.988h1.975v-0.988zM19.457 17.185h-3.951v0.988h3.951v-0.988zM14.518 15.21h-1.975v0.988h1.975v-0.988zM19.457 15.21h-3.951v0.988h3.951v-0.988z"></path>
</svg>
