<?xml version="1.0" encoding="UTF-8"?>
<svg viewBox="0 0 32 32" version="1.1" xmlns="http://www.w3.org/2000/svg" xmlns:xlink="http://www.w3.org/1999/xlink">
<title>webinar</title>
<path d="M8 24c3.262 0 6 2.157 6 5 0 0.552-0.413 1-0.923 1h-10.154c-0.51 0-0.923-0.448-0.923-1 0-2.843 2.738-5 6-5zM24 24c3.262 0 6 2.157 6 5 0 0.552-0.413 1-0.923 1h-10.154c-0.51 0-0.923-0.448-0.923-1 0-2.843 2.738-5 6-5zM28 2c1.105 0 2 1.007 2 2.25v13.5c0 1.243-0.895 2.25-2 2.25l-1.171 0c0.111 0.313 0.171 0.649 0.171 1 0 1.657-1.343 3-3 3s-3-1.343-3-3c0-0.351 0.060-0.687 0.171-1h-10.341c0.111 0.313 0.171 0.649 0.171 1 0 1.657-1.343 3-3 3s-3-1.343-3-3c0-0.351 0.060-0.687 0.171-1l-1.171-0c-1.105 0-2-1.007-2-2.25v-13.5c0-1.243 0.895-2.25 2-2.25h24zM16 6c-2.761 0-5 2.239-5 5s2.239 5 5 5c2.761 0 5-2.239 5-5s-2.239-5-5-5z"></path>
</svg>
