<?xml version="1.0" encoding="UTF-8"?>
<svg viewBox="0 0 32 32" version="1.1" xmlns="http://www.w3.org/2000/svg" xmlns:xlink="http://www.w3.org/1999/xlink">
<title>schedule_meeting</title>
<path d="M24.889 5.333c1.473 0 2.667 1.194 2.667 2.667v16c0 1.473-1.194 2.667-2.667 2.667h-17.778c-1.473 0-2.667-1.194-2.667-2.667v-16c0-1.473 1.194-2.667 2.667-2.667h17.778zM25.778 13.333h-19.556v10.667c0 0.456 0.343 0.832 0.785 0.883l0.104 0.006h17.778c0.456 0 0.832-0.343 0.883-0.785l0.006-0.104v-10.667zM15.111 20.444c0.491 0 0.889 0.398 0.889 0.889s-0.398 0.889-0.889 0.889h-5.333c-0.491 0-0.889-0.398-0.889-0.889s0.398-0.889 0.889-0.889h5.333zM22.222 16c0.491 0 0.889 0.398 0.889 0.889s-0.398 0.889-0.889 0.889h-12.444c-0.491 0-0.889-0.398-0.889-0.889s0.398-0.889 0.889-0.889h12.444zM24.889 7.111h-17.778c-0.456 0-0.832 0.343-0.883 0.785l-0.006 0.104v3.556h19.556v-3.556c0-0.456-0.343-0.832-0.785-0.883l-0.104-0.006z"></path>
</svg>
