<?xml version="1.0" encoding="UTF-8"?>
<svg viewBox="0 0 32 32" version="1.1" xmlns="http://www.w3.org/2000/svg" xmlns:xlink="http://www.w3.org/1999/xlink">
<title>webinar_border</title>
<path d="M11.5 21.5c0 0.783-0.257 1.506-0.691 2.089 1.884 0.846 3.191 2.532 3.191 4.578 0 0.965-0.691 1.751-1.565 1.827l-0.139 0.006h-8.592c-0.938 0-1.704-0.817-1.704-1.833 0-2.046 1.307-3.732 3.192-4.578-0.435-0.583-0.692-1.306-0.692-2.088 0-0.537 0.121-1.045 0.337-1.5l-0.837 0c-1.105 0-2-1.007-2-2.25v-13.5c0-1.243 0.895-2.25 2-2.25h24c1.105 0 2 1.007 2 2.25v13.5c0 1.243-0.895 2.25-2 2.25l-0.837-0c0.216 0.455 0.337 0.963 0.337 1.5 0 0.783-0.257 1.506-0.691 2.089 1.884 0.846 3.191 2.532 3.191 4.578 0 0.965-0.691 1.751-1.565 1.827l-0.139 0.006h-8.592c-0.938 0-1.704-0.817-1.704-1.833 0-2.046 1.307-3.732 3.192-4.578-0.435-0.583-0.692-1.306-0.692-2.088 0-0.537 0.121-1.045 0.337-1.5h-9.674c0.216 0.455 0.337 0.963 0.337 1.5zM24 25c-2.046 0-3.67 1.197-3.96 2.689l-0.026 0.161-0.015 0.15h8l-0.014-0.15c-0.186-1.46-1.647-2.674-3.561-2.832l-0.214-0.013-0.21-0.004zM8 25c-2.046 0-3.67 1.197-3.96 2.689l-0.026 0.161-0.015 0.15h8l-0.014-0.15c-0.187-1.46-1.647-2.674-3.561-2.832l-0.214-0.013-0.21-0.004zM24 20c-0.828 0-1.5 0.672-1.5 1.5s0.672 1.5 1.5 1.5c0.828 0 1.5-0.672 1.5-1.5s-0.672-1.5-1.5-1.5zM8 20c-0.828 0-1.5 0.672-1.5 1.5s0.672 1.5 1.5 1.5c0.828 0 1.5-0.672 1.5-1.5s-0.672-1.5-1.5-1.5zM27 4h-22c-0.513 0-0.936 0.386-0.993 0.883l-0.007 0.117v12c0 0.513 0.386 0.936 0.883 0.993l0.117 0.007h22c0.513 0 0.936-0.386 0.993-0.883l0.007-0.117v-12c0-0.552-0.448-1-1-1zM16 6c2.761 0 5 2.239 5 5s-2.239 5-5 5c-2.761 0-5-2.239-5-5s2.239-5 5-5zM16 8c-1.657 0-3 1.343-3 3s1.343 3 3 3c1.657 0 3-1.343 3-3s-1.343-3-3-3z"></path>
</svg>
