<?xml version="1.0" encoding="UTF-8"?>
<svg viewBox="0 0 32 32" version="1.1" xmlns="http://www.w3.org/2000/svg" xmlns:xlink="http://www.w3.org/1999/xlink">
<title>contacts</title>
<path d="M16 2c7.732 0 14 6.268 14 14s-6.268 14-14 14c-7.732 0-14-6.268-14-14s6.268-14 14-14zM16 20c-3.715 0-7.059 1.506-9.059 3.87 0.352 0.405 0.731 0.786 1.134 1.14l0.307 0.261 0.082 0.067 0.272 0.213c2.017 1.536 4.534 2.448 7.265 2.448s5.248-0.912 7.265-2.448l0.272-0.213 0.081-0.066 0.307-0.261c0.403-0.355 0.782-0.736 1.135-1.142-2-2.363-5.345-3.869-9.060-3.869zM16 7c-2.761 0-5 2.239-5 5s2.239 5 5 5c2.761 0 5-2.239 5-5s-2.239-5-5-5z"></path>
</svg>
