<?xml version="1.0" encoding="UTF-8"?>
<svg viewBox="0 0 32 32" version="1.1" xmlns="http://www.w3.org/2000/svg" xmlns:xlink="http://www.w3.org/1999/xlink">
<title>video_meeting</title>
<path d="M21.182 8c1.004 0 1.818 0.761 1.818 1.7v13.6c0 0.939-0.814 1.7-1.818 1.7h-16.364c-1.004 0-1.818-0.761-1.818-1.7v-13.6c0-0.939 0.814-1.7 1.818-1.7h16.364zM28.286 11c0.366 0 0.668 0.333 0.709 0.761l0.005 0.101v9.276c0 0.134-0.026 0.266-0.075 0.385-0.164 0.395-0.545 0.572-0.882 0.425l-0.077-0.040-3.571-2.154c-0.215-0.13-0.36-0.38-0.389-0.663l-0.006-0.108v-4.967c0-0.29 0.121-0.558 0.318-0.717l0.077-0.054 3.571-2.154c0.099-0.060 0.209-0.091 0.319-0.091z"></path>
</svg>
