<?xml version="1.0" encoding="UTF-8"?>
<svg viewBox="0 0 32 32" version="1.1" xmlns="http://www.w3.org/2000/svg" xmlns:xlink="http://www.w3.org/1999/xlink">
<title>call_on_behalf</title>
<path d="M27.11 11.037c0.405 0.063 0.849 0.222 1.37 0.477 0.495 0.242 0.886 0.48 1.188 0.733 0.693 0.585 1.117 1.376 1.263 2.319 0.137 0.8 0.076 1.695-0.171 2.661-0.232 0.907-0.625 1.862-1.178 2.871-0.542 0.998-1.236 2.007-2.080 3.024-0.643 0.761-1.293 1.437-1.956 2.035-0.649 0.605-1.321 1.134-1.999 1.57-0.696 0.448-1.385 0.796-2.070 1.042-0.733 0.263-1.448 0.397-2.144 0.397-0.458 0-0.889-0.062-1.289-0.19-0.342-0.109-0.658-0.265-0.943-0.467l-0.208-0.159c-0.261-0.195-0.578-0.517-0.917-0.931-0.309-0.376-0.536-0.712-0.688-1.032l-0.069-0.159c-0.233-0.461-0.284-1.074-0.125-1.676 0.152-0.576 0.479-1.075 0.953-1.467l0.845-0.71 0.494-0.429c0.338-0.299 0.664-0.597 0.978-0.895 0.391-0.423 0.989-0.701 1.658-0.761 0.627-0.056 1.232 0.080 1.767 0.398l0.125 0.085c0.077 0.054 0.144 0.104 0.205 0.152l0.135 0.114-0.052 0.049c0.183-0.164 0.39-0.383 0.619-0.654l0.148-0.183 0.176-0.232c0.027-0.038 0.053-0.074 0.078-0.11l0.090-0.135-0.154-0.111c-0.059-0.046-0.117-0.093-0.175-0.142-0.517-0.518-0.789-1.055-0.868-1.66-0.081-0.625 0.065-1.234 0.418-1.771l0.206-0.302 0.369-0.561c0.114-0.178 0.219-0.348 0.317-0.51 0.241-0.401 0.454-0.788 0.639-1.159 0.318-0.585 0.758-1.006 1.317-1.27 0.546-0.258 1.137-0.344 1.731-0.25zM12 17c1.439-0 2.822 0.226 4.092 0.64-0.068 0.253-0.106 0.513-0.114 0.775l-0.001 0.175-0.105 0.058c-0.338 0.195-0.64 0.447-0.893 0.744-0.931-0.253-1.934-0.392-2.979-0.392-4.878 0-8.85 3.019-8.996 6.786l-0.004 0.214 10.981 0c-0.543 0.010-0.981 0.454-0.981 1 0 0.513 0.386 0.936 0.883 0.993l0.117 0.007-11 0c-1.105 0-2-0.895-2-2 0-5.096 5.019-9 11-9zM26.233 13.096c-0.171 0.081-0.297 0.201-0.398 0.386-0.193 0.387-0.431 0.819-0.697 1.263s-0.581 0.928-0.946 1.461c-0.082 0.125-0.113 0.253-0.094 0.397 0.021 0.16 0.091 0.298 0.246 0.455l0.008 0.003 0.123 0.087 0.089 0.058c0.032 0.020 0.067 0.040 0.104 0.060l0.091 0.059 0.076 0.038 0.11 0.060 0.068 0.031 0.707 0.375-0.146 0.729c-0.029 0.146-0.079 0.299-0.153 0.479-0.082 0.222-0.221 0.491-0.405 0.782-0.178 0.282-0.4 0.582-0.663 0.898-0.289 0.343-0.559 0.628-0.816 0.859-0.262 0.235-0.513 0.422-0.755 0.557-0.086 0.048-0.167 0.090-0.242 0.124l-0.664 0.302-0.608-0.669-0.002 0 0.002-0.146-0.126-0-0.010-0.014 0.007 0.014-0.207-0.2c-0.057-0.053-0.122-0.103-0.217-0.167-0.123-0.071-0.308-0.113-0.519-0.094-0.19 0.017-0.327 0.080-0.415 0.175-0.281 0.269-0.545 0.513-0.809 0.751l-0.424 0.376-0.556 0.477-0.674 0.564c-0.158 0.131-0.251 0.273-0.294 0.437-0.038 0.145-0.029 0.261 0.015 0.349 0.091 0.218 0.237 0.443 0.479 0.738 0.247 0.301 0.459 0.516 0.613 0.632 0.174 0.143 0.334 0.23 0.519 0.289 0.196 0.063 0.422 0.095 0.68 0.095 0.456 0 0.945-0.092 1.469-0.28 0.536-0.192 1.090-0.471 1.662-0.84 0.575-0.37 1.154-0.826 1.731-1.364 0.607-0.547 1.193-1.157 1.774-1.845 0.758-0.913 1.379-1.815 1.858-2.697 0.479-0.873 0.809-1.675 0.997-2.409 0.181-0.71 0.223-1.325 0.134-1.845-0.077-0.495-0.266-0.848-0.576-1.11-0.158-0.132-0.417-0.291-0.778-0.467-0.357-0.174-0.625-0.27-0.802-0.298-0.197-0.031-0.382-0.004-0.567 0.083zM12 3c3.314 0 6 2.686 6 6s-2.686 6-6 6c-3.314 0-6-2.686-6-6s2.686-6 6-6zM12 5c-2.209 0-4 1.791-4 4s1.791 4 4 4c2.209 0 4-1.791 4-4s-1.791-4-4-4z"></path>
</svg>
