<?xml version="1.0" encoding="UTF-8"?>
<svg viewBox="0 0 32 32" version="1.1" xmlns="http://www.w3.org/2000/svg" xmlns:xlink="http://www.w3.org/1999/xlink">
<title>Announcement</title>
<path fill="#066fac" style="fill: var(--color2, #066fac)" d="M32 16c0 8.837-7.163 16-16 16s-16-7.163-16-16c0-8.837 7.163-16 16-16s16 7.163 16 16z"></path>
<path fill="#fff" style="fill: var(--color3, #fff)" d="M17.024 11.159c0.559 0 1.012 0.435 1.012 0.971v7.765c0 0.536-0.453 0.971-1.012 0.971l-9.104-2.588c-0.598-0.145-1.012-0.471-1.012-0.971v-2.588c0-0.468 0.412-0.793 1.012-0.971l9.104-2.588zM9.606 18.276h1.349v3.208c0 0.372-0.302 0.674-0.674 0.674s-0.674-0.302-0.674-0.674v-3.208zM18.373 18.132v-4.206c0-0.163 1.535 0.647 1.535 2.103s-1.535 2.259-1.535 2.103z"></path>
<path fill="#fff" style="fill: var(--color3, #fff)" d="M23.066 14.108c0.269 0.478 0.411 1.020 0.409 1.582-0.002 0.566-0.15 1.112-0.426 1.594-0.099 0.173-0.318 0.234-0.49 0.136s-0.231-0.316-0.133-0.488c0.214-0.375 0.329-0.799 0.331-1.24 0.002-0.438-0.109-0.858-0.317-1.23-0.097-0.172-0.035-0.391 0.138-0.489s0.391-0.038 0.488 0.134l0-0z"></path>
<path fill="#fff" style="fill: var(--color3, #fff)" d="M24.329 12.788c0.596 0.837 0.919 1.842 0.914 2.896s-0.338 2.062-0.943 2.906c-0.115 0.161-0.338 0.199-0.498 0.085s-0.196-0.336-0.080-0.497c0.518-0.723 0.803-1.585 0.808-2.49s-0.272-1.764-0.783-2.482c-0.114-0.16-0.076-0.383 0.085-0.498s0.384-0.079 0.497 0.080l0 0z"></path>
</svg>
