<?xml version="1.0" encoding="UTF-8"?>
<svg viewBox="0 0 32 32" version="1.1" xmlns="http://www.w3.org/2000/svg" xmlns:xlink="http://www.w3.org/1999/xlink">
<title>note</title>
<path d="M16 2c6.627 0 12 5.373 12 12v14c0 1.105-0.895 2-2 2h-20c-1.105 0-2-0.895-2-2v-24c0-1.105 0.895-2 2-2h10zM18 18h-7c-0.552 0-1 0.448-1 1 0 0.513 0.386 0.936 0.883 0.993l0.117 0.007h7c0.552 0 1-0.448 1-1 0-0.513-0.386-0.936-0.883-0.993l-0.117-0.007zM21 12h-10c-0.552 0-1 0.448-1 1 0 0.513 0.386 0.935 0.883 0.993l0.117 0.007h10c0.552 0 1-0.448 1-1 0-0.513-0.386-0.935-0.883-0.993l-0.117-0.007z"></path>
</svg>
