<?xml version="1.0" encoding="UTF-8"?>
<svg viewBox="0 0 32 32" version="1.1" xmlns="http://www.w3.org/2000/svg" xmlns:xlink="http://www.w3.org/1999/xlink">
<title>pause_border</title>
<path d="M11 25h-2c-0.552 0-1-0.448-1-1v-16c0-0.552 0.448-1 1-1h2c0.552 0 1 0.448 1 1v16c0 0.552-0.448 1-1 1zM12 5h-4c-1.105 0-2 0.895-2 2v18c0 1.105 0.895 2 2 2h4c1.105 0 2-0.895 2-2v-18c0-1.105-0.895-2-2-2zM23 25h-2c-0.552 0-1-0.448-1-1v-16c0-0.552 0.448-1 1-1h2c0.552 0 1 0.448 1 1v16c0 0.552-0.448 1-1 1zM24 5h-4c-1.105 0-2 0.895-2 2v18c0 1.105 0.895 2 2 2h4c1.105 0 2-0.895 2-2v-18c0-1.105-0.895-2-2-2z"></path>
</svg>
