<?xml version="1.0" encoding="UTF-8"?>
<svg viewBox="0 0 32 32" version="1.1" xmlns="http://www.w3.org/2000/svg" xmlns:xlink="http://www.w3.org/1999/xlink">
<title>askfirst</title>
<path d="M25 19c1.054 0 1.918 0.816 1.994 1.851l0.006 0.149v6c0 1.054-0.816 1.918-1.851 1.994l-0.149 0.006h-1c-1.598 0-2.904-1.249-2.995-2.824l-0.005-0.176v-4c0-1.598 1.249-2.904 2.824-2.995l0.176-0.005h1zM8 19c1.657 0 3 1.343 3 3v4c0 1.657-1.343 3-3 3h-1c-1.105 0-2-0.895-2-2v-6c0-1.105 0.895-2 2-2h1zM16 2c7.732 0 14 6.268 14 14v7c0 0.552-0.448 1-1 1s-1-0.448-1-1v-7c0-6.525-5.209-11.834-11.695-11.996l-0.305-0.004c-6.525 0-11.834 5.209-11.996 11.695l-0.004 0.305v7c0 0.552-0.448 1-1 1s-1-0.448-1-1v-7c0-7.732 6.268-14 14-14z"></path>
</svg>
