<?xml version="1.0" encoding="UTF-8"?>
<svg viewBox="0 0 32 32" version="1.1" xmlns="http://www.w3.org/2000/svg" xmlns:xlink="http://www.w3.org/1999/xlink">
<title>task-new</title>
<path d="M16 2c7.732 0 14 6.268 14 14s-6.268 14-14 14c-7.732 0-14-6.268-14-14s6.268-14 14-14zM22.376 11.741c-0.36-0.36-0.928-0.388-1.32-0.083l-0.094 0.083-6.365 6.363-3.535-3.535c-0.391-0.391-1.024-0.391-1.414 0-0.36 0.36-0.388 0.928-0.083 1.32l0.083 0.094 4.243 4.243c0.15 0.15 0.336 0.243 0.531 0.277l0.117 0.014h0.118l0.117-0.014c0.155-0.028 0.306-0.092 0.436-0.194l0.094-0.083 7.071-7.071c0.391-0.391 0.391-1.024 0-1.414z"></path>
</svg>
