<?xml version="1.0" encoding="UTF-8"?>
<svg viewBox="0 0 32 32" version="1.1" xmlns="http://www.w3.org/2000/svg" xmlns:xlink="http://www.w3.org/1999/xlink">
<title>videocam-off_border</title>
<path d="M21 6c0.597 0 1.132 0.261 1.499 0.675l-1.711 1.709c-0.183-0.234-0.468-0.384-0.788-0.384h-16c-0.552 0-1 0.448-1 1v14c0 0.552 0.448 1 1 1h1.172l-2 2h-0.172c-1.105 0-2-0.895-2-2v-16c0-1.105 0.895-2 2-2h18zM5.393 29.434c-0.391 0.391-1.024 0.391-1.414 0s-0.391-1.024 0-1.414l24.042-24.042c0.391-0.391 1.024-0.391 1.414 0s0.391 1.024 0 1.414l-6.435 6.435v12.172c0 1.105-0.895 2-2 2h-12.173l2-2h9.173c0.552 0 1-0.448 1-1v-9.172l-15.607 15.606zM30 9.618c0.513 0 0.936 0.386 0.993 0.883l0.007 0.117v10.764c0 0.155-0.036 0.308-0.106 0.447-0.229 0.459-0.764 0.664-1.234 0.493l-0.107-0.046-5-2.5c-0.301-0.151-0.504-0.441-0.545-0.77l-0.008-0.125v-5.764c0-0.337 0.169-0.648 0.445-0.832l0.108-0.063 5-2.5c0.139-0.069 0.292-0.106 0.447-0.106zM29 12.236l-3 1.5v4.528l3 1.5v-7.528z"></path>
</svg>
