<?xml version="1.0" encoding="UTF-8"?>
<svg viewBox="0 0 32 32" version="1.1" xmlns="http://www.w3.org/2000/svg" xmlns:xlink="http://www.w3.org/1999/xlink">
<title>poll_border</title>
<path d="M25 5c1.105 0 2 0.895 2 2v18c0 1.105-0.895 2-2 2h-18c-1.105 0-2-0.895-2-2v-18c0-1.105 0.895-2 2-2h18zM24 7h-16c-0.513 0-0.936 0.386-0.993 0.883l-0.007 0.117v16c0 0.513 0.386 0.936 0.883 0.993l0.117 0.007h16c0.513 0 0.936-0.386 0.993-0.883l0.007-0.117v-16c0-0.552-0.448-1-1-1zM11 13c0.552 0 1 0.448 1 1v7c0 0.552-0.448 1-1 1s-1-0.448-1-1v-7c0-0.552 0.448-1 1-1zM16 10c0.552 0 1 0.448 1 1v10c0 0.552-0.448 1-1 1s-1-0.448-1-1v-10c0-0.552 0.448-1 1-1zM21 15c0.552 0 1 0.448 1 1v5c0 0.552-0.448 1-1 1s-1-0.448-1-1v-5c0-0.552 0.448-1 1-1z"></path>
</svg>
