<?xml version="1.0" encoding="UTF-8"?>
<svg viewBox="0 0 32 32" version="1.1" xmlns="http://www.w3.org/2000/svg" xmlns:xlink="http://www.w3.org/1999/xlink">
<title>nickname</title>
<path d="M13 17c1.722 0 3.365 0.324 4.831 0.907-0.433 0.524-0.8 1.103-1.090 1.726-1.138-0.406-2.406-0.632-3.741-0.632-4.709 0-8.573 2.812-8.967 6.395-0.050 0.451 0.335 0.605 0.519 0.605l12.029 0.001c0.294 0.726 0.691 1.398 1.173 2l-13.755-0.001c-1.105 0-2-0.895-2-2 0-5.096 5.019-9 11-9zM29 26c0.552 0 1 0.448 1 1s-0.448 1-1 1h-8c-0.552 0-1-0.448-1-1s0.448-1 1-1h8zM25 22c0.552 0 1 0.448 1 1s-0.448 1-1 1h-4c-0.552 0-1-0.448-1-1s0.448-1 1-1h4zM29 18c0.552 0 1 0.448 1 1s-0.448 1-1 1h-8c-0.552 0-1-0.448-1-1s0.448-1 1-1h8zM13 3c3.314 0 6 2.686 6 6s-2.686 6-6 6c-3.314 0-6-2.686-6-6s2.686-6 6-6zM13 5c-2.209 0-4 1.791-4 4s1.791 4 4 4c2.209 0 4-1.791 4-4s-1.791-4-4-4z"></path>
</svg>
