<?xml version="1.0" encoding="UTF-8"?>
<svg viewBox="0 0 32 32" version="1.1" xmlns="http://www.w3.org/2000/svg" xmlns:xlink="http://www.w3.org/1999/xlink">
<title>insert-link</title>
<path d="M16.607 5.494c2.734-2.734 7.166-2.734 9.899 0s2.734 7.166 0 9.899l-2.364 2.367c0.095-0.902 0.055-1.816-0.122-2.708l1.071-1.073c1.953-1.953 1.953-5.118 0-7.071s-5.118-1.953-7.071 0l-4.243 4.243c-1.953 1.953-1.953 5.118 0 7.071 0.796 0.796 1.793 1.267 2.828 1.414l-1.645 1.645c-0.948-0.338-1.838-0.886-2.597-1.645-2.734-2.734-2.734-7.166 0-9.899l4.243-4.243zM6 16.101l2.364-2.367c-0.095 0.902-0.055 1.816 0.122 2.708l-1.071 1.073c-1.953 1.953-1.953 5.118 0 7.071s5.118 1.953 7.071 0l4.243-4.243c1.953-1.953 1.953-5.118 0-7.071-0.796-0.796-1.793-1.267-2.828-1.414l1.645-1.645c0.948 0.338 1.838 0.886 2.597 1.645 2.734 2.734 2.734 7.166 0 9.899l-4.243 4.243c-2.734 2.734-7.166 2.734-9.899 0s-2.734-7.166 0-9.899z"></path>
</svg>
