<?xml version="1.0" encoding="UTF-8"?>
<svg viewBox="0 0 32 32" version="1.1" xmlns="http://www.w3.org/2000/svg" xmlns:xlink="http://www.w3.org/1999/xlink">
<title>mobile</title>
<path d="M9.571 2l12.857 0.013c1.358 0 2.478 1.044 2.566 2.366l0.006 0.167v22.909c0 1.344-1.066 2.453-2.403 2.54l-0.168 0.005h-12.857c-1.358 0-2.478-1.056-2.566-2.379l-0.005-0.167v-22.909c0-1.344 1.066-2.453 2.403-2.54l0.168-0.005zM22 4h-12c-0.513 0-0.935 0.386-0.993 0.883l-0.007 0.117v22c0 0.513 0.386 0.936 0.883 0.993l0.117 0.007h12c0.513 0 0.936-0.386 0.993-0.883l0.007-0.117v-22c0-0.513-0.386-0.936-0.883-0.993l-0.117-0.007zM18 24c0.552 0 1 0.448 1 1s-0.448 1-1 1h-4c-0.552 0-1-0.448-1-1s0.448-1 1-1h4z"></path>
</svg>
