<?xml version="1.0" encoding="UTF-8"?>
<svg viewBox="0 0 32 32" version="1.1" xmlns="http://www.w3.org/2000/svg" xmlns:xlink="http://www.w3.org/1999/xlink">
<title>forwarding</title>
<path d="M19.287 27.703l0.127-0.117 10.172-10.172c0.74-0.74 0.779-1.915 0.117-2.701l-0.117-0.127-10.172-10.172c-0.375-0.375-0.884-0.586-1.414-0.586-1.054 0-1.918 0.816-1.994 1.851l-0.006 0.149-0.001 5.172-0.999-0.001c-7.18 0-13 5.82-13 13v3c0 1.192 1.711 1.384 1.975 0.221 0.8-3.526 3.9-6.106 7.538-6.217l0.263-0.004 4.222-0 0.001 5.171c0 0.53 0.211 1.039 0.586 1.414 0.74 0.74 1.915 0.779 2.701 0.117v-0z"></path>
</svg>
