<?xml version="1.0" encoding="UTF-8"?>
<svg viewBox="0 0 32 32" version="1.1" xmlns="http://www.w3.org/2000/svg" xmlns:xlink="http://www.w3.org/1999/xlink">
<title>bookmark_border</title>
<path d="M25 3c1.105 0 2 0.895 2 2v23.178c0 0.552-0.448 1-1 1-0.19 0-0.376-0.054-0.537-0.156l-8.926-5.68c-0.328-0.208-0.746-0.208-1.074 0l-8.926 5.68c-0.466 0.296-1.084 0.159-1.381-0.307-0.102-0.16-0.156-0.347-0.156-0.537v-23.178c0-1.105 0.895-2 2-2h18zM24 5h-16c-0.552 0-1 0.448-1 1v20.357l7.926-5.044c0.655-0.417 1.492-0.417 2.148 0l7.926 5.044v-20.357c0-0.552-0.448-1-1-1z"></path>
</svg>
