<?xml version="1.0" encoding="UTF-8"?>
<svg viewBox="0 0 32 32" version="1.1" xmlns="http://www.w3.org/2000/svg" xmlns:xlink="http://www.w3.org/1999/xlink">
<title>failed-fax_border</title>
<path fill="#f44336" style="fill: var(--color48, #f44336)" d="M20 4c1.105 0 2 0.895 2 2v17l-5 5h-13c-1.105 0-2-0.895-2-2v-20c0-1.105 0.895-2 2-2h16zM28 24c1.105 0 2 0.895 2 2s-0.895 2-2 2c-1.105 0-2-0.895-2-2s0.895-2 2-2zM19 6h-14c-0.513 0-0.936 0.386-0.993 0.883l-0.007 0.117v18c0 0.513 0.386 0.936 0.883 0.993l0.117 0.007h11v-3l0.007-0.117c0.053-0.459 0.418-0.823 0.877-0.877l0.117-0.007h3v-15c0-0.552-0.448-1-1-1zM28 4c0.552 0 1 0.448 1 1v16c0 0.552-0.448 1-1 1s-1-0.448-1-1v-16c0-0.552 0.448-1 1-1zM13.333 18c0.368 0 0.667 0.448 0.667 1s-0.298 1-0.667 1h-6.667c-0.368 0-0.667-0.448-0.667-1s0.298-1 0.667-1h6.667zM17 12c0.552 0 1 0.448 1 1s-0.448 1-1 1h-10c-0.552 0-1-0.448-1-1s0.448-1 1-1h10z"></path>
</svg>
