<?xml version="1.0" encoding="UTF-8"?>
<svg viewBox="0 0 32 32" version="1.1" xmlns="http://www.w3.org/2000/svg" xmlns:xlink="http://www.w3.org/1999/xlink">
<title>doc-D</title>
<path fill="#222f42" style="fill: var(--color45, #222f42)" d="M3.556 0h24.889c1.964 0 3.556 1.592 3.556 3.556v24.889c0 1.964-1.592 3.556-3.556 3.556h-24.889c-1.964 0-3.556-1.592-3.556-3.556v-24.889c0-1.964 1.592-3.556 3.556-3.556z"></path>
<path fill="#4169a1" style="fill: var(--color46, #4169a1)" d="M11.919 8c-0.601 0-1.108 0.208-1.522 0.624s-0.62 0.927-0.62 1.532v11.688c0 0.605 0.207 1.116 0.62 1.532s0.921 0.624 1.522 0.624h8.161c0.601 0 1.108-0.208 1.522-0.624s0.62-0.927 0.62-1.532v-9.059l-5.551-4.785h-4.752z"></path>
<path fill="#f1f1f1" style="fill: var(--color27, #f1f1f1)" d="M17.009 20.53l-1.202-4.842h-0.037l-1.24 4.842h-1.052l-1.954-6.129h1.090l1.39 5.032 1.24-5.032h1.089l1.278 5.032 1.39-5.032h1.014l-1.916 6.129z"></path>
</svg>
