<?xml version="1.0" encoding="UTF-8"?>
<svg viewBox="0 0 32 32" version="1.1" xmlns="http://www.w3.org/2000/svg" xmlns:xlink="http://www.w3.org/1999/xlink">
<title>4</title>
<path fill="#000" style="fill: var(--color11, #000)" d="M17.594 7v5.753h1.406v0.641c0 0.067-0.021 0.124-0.062 0.17s-0.105 0.069-0.191 0.069h-1.154v2.368h-1.018v-2.368h-4.116c-0.086 0-0.161-0.024-0.224-0.072s-0.103-0.108-0.12-0.179l-0.117-0.572 4.518-5.809h1.076zM16.628 8.3l-3.377 4.453h3.325v-3.712c0-0.109 0.003-0.226 0.010-0.352l0.015-0.192 0.027-0.198z"></path>
<path fill="#9e9e9e" style="fill: var(--color77, #9e9e9e)" d="M13.607 23.648c0.097 0 0.185-0.005 0.266-0.014s0.157-0.023 0.229-0.041c0.072-0.018 0.139-0.040 0.203-0.066s0.127-0.055 0.19-0.089v-0.79h-0.555c-0.032 0-0.057-0.009-0.076-0.027s-0.029-0.041-0.029-0.067v-0.275h1.1v1.375c-0.090 0.065-0.184 0.122-0.281 0.17s-0.202 0.089-0.313 0.121c-0.111 0.032-0.23 0.057-0.356 0.073s-0.264 0.024-0.412 0.024c-0.26 0-0.498-0.045-0.715-0.134s-0.403-0.214-0.56-0.375c-0.157-0.161-0.279-0.354-0.366-0.579s-0.131-0.473-0.131-0.742c0-0.273 0.043-0.523 0.129-0.747s0.208-0.418 0.367-0.579c0.159-0.161 0.352-0.285 0.578-0.374s0.479-0.133 0.759-0.133c0.142 0 0.273 0.010 0.395 0.031s0.235 0.051 0.339 0.090c0.104 0.039 0.2 0.087 0.289 0.142s0.171 0.119 0.248 0.189l-0.137 0.22c-0.028 0.045-0.065 0.067-0.11 0.067-0.027 0-0.056-0.009-0.088-0.027l-0.14-0.085c-0.052-0.033-0.115-0.065-0.189-0.096s-0.162-0.057-0.262-0.079c-0.101-0.022-0.22-0.032-0.359-0.032-0.202 0-0.384 0.033-0.547 0.099s-0.303 0.16-0.418 0.282c-0.115 0.122-0.203 0.271-0.265 0.445s-0.092 0.37-0.092 0.586c0 0.227 0.032 0.429 0.096 0.606s0.155 0.328 0.271 0.451c0.117 0.123 0.255 0.218 0.415 0.282s0.337 0.098 0.53 0.098zM18.585 24h-0.488v-1.63h-1.93v1.63h-0.488v-3.582h0.488v1.598h1.93v-1.598h0.488v3.582zM20.035 24h-0.485v-3.582h0.485v3.582z"></path>
</svg>
