<?xml version="1.0" encoding="UTF-8"?>
<svg viewBox="0 0 32 32" version="1.1" xmlns="http://www.w3.org/2000/svg" xmlns:xlink="http://www.w3.org/1999/xlink">
<title>search</title>
<path d="M21.778 6.222c4.057 4.057 4.283 10.495 0.676 14.817l6.395 6.396c0.391 0.391 0.391 1.024 0 1.414s-1.024 0.391-1.414 0l-6.395-6.396c-4.322 3.607-10.76 3.382-14.818-0.675-4.296-4.296-4.296-11.261 0-15.556s11.261-4.296 15.556 0zM20.919 19.757c2.968-3.556 2.744-8.822-0.555-12.121-3.515-3.515-9.213-3.515-12.728 0s-3.515 9.213 0 12.728c3.299 3.299 8.566 3.522 12.122 0.554l0.633-0.528 0.528-0.633z"></path>
</svg>
