<?xml version="1.0" encoding="UTF-8"?>
<svg viewBox="0 0 32 32" version="1.1" xmlns="http://www.w3.org/2000/svg" xmlns:xlink="http://www.w3.org/1999/xlink">
<title>pdf-D</title>
<path fill="#43201f" style="fill: var(--color35, #43201f)" d="M3.556 0h24.889c1.964 0 3.556 1.592 3.556 3.556v24.889c0 1.964-1.592 3.556-3.556 3.556h-24.889c-1.964 0-3.556-1.592-3.556-3.556v-24.889c0-1.964 1.592-3.556 3.556-3.556z"></path>
<path fill="#de4944" style="fill: var(--color36, #de4944)" d="M11.919 8h4.752l5.551 4.785v9.059c0 0.605-0.207 1.116-0.62 1.532s-0.921 0.624-1.522 0.624h-8.161c-0.601 0-1.108-0.208-1.522-0.624s-0.62-0.927-0.62-1.532v-11.688c0-0.605 0.207-1.116 0.62-1.532s0.92-0.624 1.522-0.624v0z"></path>
<path fill="#f1f1f1" style="fill: var(--color20, #f1f1f1)" d="M15.208 10.748c0.329-0.111 0.667-0.027 0.9 0.225v0l0.049 0.057 0.048 0.066c0.262 0.387 0.35 1.050 0.28 2.020-0.030 0.42-0.166 0.975-0.403 1.654v0l0.041 0.050 0.959 1.201 0.267 0.328 0.236 0.281 0.26 0.297 0.17-0.004 0.169-0.001c1.613 0 2.705 0.34 3.075 0.981 0.166 0.287 0.169 0.613 0.009 0.89-0.197 0.341-0.602 0.552-1.096 0.579v0l-0.102 0.003-0.13-0.004c-0.087-0.006-0.175-0.017-0.264-0.033-0.653-0.12-1.357-0.6-2.209-1.497-0.206 0.012-0.417 0.028-0.631 0.049-0.768 0.074-1.605 0.222-2.4 0.469v0l-0.183 0.323-0.091 0.157c-0.637 1.091-1.256 1.946-1.753 2.271-0.238 0.155-0.483 0.247-0.722 0.268v0l-0.097 0.004-0.081-0.003-0.078-0.009c-0.307-0.047-0.552-0.232-0.667-0.514-0.216-0.53 0.084-1.232 0.802-1.933 0.546-0.533 1.302-0.972 2.25-1.306 0.488-0.909 0.937-1.878 1.257-2.712v0l-0.080-0.134-0.076-0.137c-0.537-1.015-0.695-2.253-0.432-3.062 0.15-0.459 0.408-0.72 0.719-0.825zM13.052 18.938l-0.164 0.096-0.155 0.1c-0.201 0.135-0.38 0.279-0.536 0.43-0.421 0.411-0.605 0.761-0.604 0.91l0.002 0.009 0.044-0.004 0.050-0.011c0.069-0.019 0.151-0.057 0.233-0.111 0.235-0.154 0.614-0.622 1.048-1.291l0.082-0.128zM18.759 17.835l0.104 0.086 0.111 0.088c0.33 0.252 0.617 0.398 0.866 0.444l0.079 0.012 0.074 0.007 0.078 0.003 0.067-0.002c0.152-0.010 0.272-0.053 0.328-0.1l0.020-0.020-0.024-0.036-0.030-0.034c-0.192-0.193-0.724-0.372-1.534-0.438l-0.138-0.010zM15.71 15.738l-0.128 0.3c-0.175 0.404-0.37 0.823-0.577 1.239 0.595-0.137 1.181-0.227 1.719-0.279l-0.151-0.182-0.34-0.42-0.523-0.658zM15.473 11.611l-0.021 0.021-0.022 0.029c-0.030 0.044-0.061 0.109-0.088 0.19-0.147 0.451-0.098 1.159 0.136 1.825 0.062-0.246 0.1-0.457 0.112-0.626 0.058-0.796-0.002-1.231-0.1-1.41l-0.018-0.029z"></path>
</svg>
