<?xml version="1.0" encoding="UTF-8"?>
<svg viewBox="0 0 32 32" version="1.1" xmlns="http://www.w3.org/2000/svg" xmlns:xlink="http://www.w3.org/1999/xlink">
<title>2</title>
<path fill="#000" style="fill: var(--color11, #000)" d="M16.119 7c0.381 0 0.736 0.056 1.067 0.168s0.616 0.274 0.857 0.488c0.241 0.213 0.43 0.473 0.568 0.779s0.207 0.654 0.207 1.043c0 0.331-0.050 0.638-0.151 0.919s-0.236 0.552-0.408 0.811c-0.172 0.259-0.369 0.509-0.593 0.752-0.149 0.162-0.305 0.325-0.466 0.491l-2.613 2.648c0.167-0.046 0.337-0.082 0.508-0.109s0.337-0.040 0.496-0.040h3.013c0.121 0 0.218 0.035 0.289 0.106s0.107 0.162 0.107 0.273v0.671h-6v-0.379c0-0.079 0.016-0.159 0.047-0.242s0.083-0.159 0.154-0.23l2.881-2.863c0.238-0.24 0.456-0.471 0.653-0.693s0.365-0.444 0.505-0.668c0.14-0.224 0.248-0.45 0.323-0.68s0.113-0.475 0.113-0.736c0-0.261-0.042-0.49-0.126-0.686s-0.199-0.359-0.345-0.488c-0.146-0.128-0.318-0.225-0.515-0.289s-0.408-0.096-0.634-0.096c-0.226 0-0.435 0.033-0.628 0.099s-0.363 0.158-0.511 0.276c-0.149 0.118-0.274 0.258-0.377 0.419s-0.175 0.34-0.217 0.534c-0.033 0.12-0.084 0.207-0.151 0.261s-0.155 0.081-0.264 0.081l-0.066-0.003c-0.023-0.002-0.049-0.005-0.078-0.009l-0.584-0.099c0.059-0.406 0.172-0.765 0.339-1.078s0.38-0.575 0.637-0.786c0.257-0.211 0.552-0.372 0.885-0.481s0.691-0.165 1.076-0.165z"></path>
<path fill="#9e9e9e" style="fill: var(--color77, #9e9e9e)" d="M14.357 24h-0.375c-0.043 0-0.078-0.011-0.105-0.032s-0.047-0.049-0.060-0.082l-0.335-0.865h-1.607l-0.335 0.865c-0.012 0.030-0.032 0.057-0.060 0.080s-0.063 0.035-0.105 0.035h-0.375l1.433-3.582h0.492l1.433 3.582zM12.010 22.67h1.338l-0.563-1.457c-0.037-0.090-0.072-0.203-0.107-0.337l-0.054 0.189-0.051 0.151-0.563 1.455zM14.81 24v-3.582h1.143c0.22 0 0.41 0.022 0.569 0.065s0.29 0.105 0.392 0.185c0.102 0.080 0.178 0.178 0.227 0.294s0.074 0.246 0.074 0.391c0 0.088-0.014 0.173-0.041 0.255s-0.069 0.157-0.125 0.227c-0.056 0.070-0.126 0.133-0.21 0.188s-0.183 0.1-0.296 0.135c0.262 0.052 0.459 0.146 0.593 0.282s0.2 0.317 0.2 0.54c0 0.152-0.028 0.29-0.084 0.415s-0.137 0.233-0.245 0.323c-0.108 0.090-0.239 0.16-0.395 0.209s-0.334 0.074-0.534 0.074h-1.268zM15.295 22.367v1.247h0.775c0.138 0 0.257-0.016 0.356-0.047s0.181-0.076 0.245-0.134c0.064-0.058 0.111-0.126 0.141-0.205s0.045-0.166 0.045-0.261c0-0.185-0.065-0.331-0.196-0.439s-0.329-0.161-0.594-0.161h-0.773zM15.295 22.023h0.64c0.137 0 0.255-0.015 0.355-0.045s0.183-0.072 0.249-0.125c0.066-0.053 0.115-0.118 0.146-0.194s0.047-0.159 0.047-0.249c0-0.21-0.063-0.364-0.19-0.462s-0.323-0.148-0.59-0.148h-0.658v1.223zM20.57 23.26c0.027 0 0.051 0.011 0.073 0.032l0.19 0.207c-0.147 0.17-0.325 0.302-0.534 0.398s-0.461 0.142-0.756 0.142c-0.258 0-0.492-0.045-0.703-0.134s-0.389-0.214-0.538-0.375c-0.148-0.161-0.263-0.354-0.345-0.579s-0.122-0.473-0.122-0.742c0-0.27 0.044-0.517 0.131-0.742s0.21-0.418 0.369-0.58c0.158-0.162 0.348-0.287 0.569-0.376s0.465-0.134 0.731-0.134c0.263 0 0.49 0.041 0.681 0.122s0.36 0.192 0.509 0.332l-0.157 0.223c-0.012 0.017-0.025 0.030-0.040 0.041s-0.037 0.016-0.065 0.016c-0.022 0-0.045-0.008-0.069-0.024l-0.086-0.059c-0.033-0.023-0.073-0.048-0.117-0.075s-0.098-0.052-0.16-0.075c-0.062-0.023-0.133-0.043-0.215-0.059s-0.176-0.024-0.282-0.024c-0.192 0-0.367 0.033-0.526 0.099s-0.296 0.16-0.411 0.281c-0.115 0.122-0.205 0.27-0.269 0.445s-0.096 0.371-0.096 0.587c0 0.223 0.032 0.422 0.096 0.598s0.152 0.323 0.262 0.444c0.111 0.121 0.242 0.213 0.394 0.276s0.315 0.095 0.49 0.095c0.107 0 0.203-0.006 0.288-0.019s0.164-0.032 0.236-0.059c0.073-0.027 0.14-0.060 0.203-0.101l0.094-0.067 0.095-0.079c0.028-0.025 0.056-0.038 0.082-0.038z"></path>
</svg>
