<?xml version="1.0" encoding="UTF-8"?>
<svg viewBox="0 0 32 32" version="1.1" xmlns="http://www.w3.org/2000/svg" xmlns:xlink="http://www.w3.org/1999/xlink">
<title>download</title>
<path d="M27 26c0.552 0 1 0.448 1 1s-0.448 1-1 1h-22c-0.552 0-1-0.448-1-1s0.448-1 1-1h22zM16 3c0.513 0 0.936 0.386 0.993 0.883l0.007 0.117v16.17l6.885-6.875c0.39-0.389 1.021-0.389 1.41 0 0.359 0.359 0.387 0.925 0.083 1.316l-0.083 0.094-8.588 8.588c-0.391 0.391-1.024 0.391-1.414 0l-8.588-8.588c-0.389-0.389-0.389-1.021 0-1.41 0.359-0.359 0.925-0.387 1.316-0.083l0.094 0.083 6.885 6.875v-16.17c0-0.552 0.448-1 1-1z"></path>
</svg>
