<?xml version="1.0" encoding="UTF-8"?>
<svg viewBox="0 0 32 32" version="1.1" xmlns="http://www.w3.org/2000/svg" xmlns:xlink="http://www.w3.org/1999/xlink">
<title>add-reactions</title>
<path d="M13.786 4c6.509 0 11.786 5.366 11.786 11.986l-0.004 0.288c-0.241-0.027-0.485-0.041-0.733-0.041-0.323 0-0.641 0.023-0.951 0.069 0.003-0.105 0.004-0.21 0.004-0.316 0-5.674-4.523-10.273-10.102-10.273s-10.102 4.6-10.102 10.273c0 5.674 4.523 10.273 10.102 10.273 1.714 0 3.329-0.434 4.743-1.2 0.175 0.55 0.419 1.070 0.72 1.549-1.632 0.872-3.491 1.364-5.463 1.364-6.509 0-11.786-5.366-11.786-11.986s5.277-11.986 11.786-11.986zM25.396 18.707c0.45 0 0.822 0.337 0.877 0.773l0.007 0.111-0 2.484 2.529 0.001c0.488 0 0.883 0.396 0.883 0.883 0 0.45-0.337 0.822-0.773 0.877l-0.111 0.007-2.529-0.001 0 2.485c0 0.488-0.396 0.883-0.883 0.883-0.45 0-0.822-0.337-0.877-0.773l-0.007-0.111-0-2.485-2.529 0.001c-0.488 0-0.883-0.396-0.883-0.883 0-0.45 0.337-0.822 0.773-0.877l0.111-0.007 2.529-0.001 0-2.484c0-0.488 0.396-0.883 0.883-0.883zM18.58 17.82c0.402 0.237 0.539 0.761 0.306 1.17-1.047 1.835-2.975 2.989-5.1 2.989-2.109 0-4.025-1.137-5.077-2.949-0.236-0.407-0.104-0.932 0.297-1.172s0.916-0.105 1.153 0.302c0.753 1.296 2.12 2.108 3.628 2.108 1.519 0 2.895-0.824 3.644-2.136 0.233-0.409 0.749-0.548 1.151-0.311zM9.577 10.849c0.93 0 1.684 0.767 1.684 1.712s-0.754 1.712-1.684 1.712c-0.93 0-1.684-0.767-1.684-1.712s0.754-1.712 1.684-1.712zM17.995 10.849c0.93 0 1.684 0.767 1.684 1.712s-0.754 1.712-1.684 1.712c-0.93 0-1.684-0.767-1.684-1.712s0.754-1.712 1.684-1.712z"></path>
</svg>
