<?xml version="1.0" encoding="UTF-8"?>
<svg viewBox="0 0 32 32" version="1.1" xmlns="http://www.w3.org/2000/svg" xmlns:xlink="http://www.w3.org/1999/xlink">
<title>bubble_lines_border</title>
<path d="M22 9c1.105 0 2 0.895 2 2v12c0 1.105-0.895 2-2 2h-4.586c-0.265 0-0.52 0.105-0.707 0.293l-3.141 3.141c-0.312 0.312-0.819 0.312-1.131 0l-3.141-3.141c-0.188-0.188-0.442-0.293-0.707-0.293h-4.586c-1.105 0-2-0.895-2-2v-12c0-1.105 0.895-2 2-2h18zM21 11h-16c-0.552 0-1 0.448-1 1v10c0 0.552 0.448 1 1 1h4c0.53 0 1.039 0.211 1.414 0.586l2.586 2.586 2.586-2.586c0.375-0.375 0.884-0.586 1.414-0.586h4c0.552 0 1-0.448 1-1v-10c0-0.552-0.448-1-1-1zM28 3c1.105 0 2 0.895 2 2v12c0 1.105-0.895 2-2 2h-3v-2h2c0.552 0 1-0.448 1-1v-10c0-0.552-0.448-1-1-1h-16c-0.552 0-1 0.448-1 1v2h-2v-3c0-1.105 0.895-2 2-2h18z"></path>
</svg>
