<?xml version="1.0" encoding="UTF-8"?>
<svg viewBox="0 0 32 32" version="1.1" xmlns="http://www.w3.org/2000/svg" xmlns:xlink="http://www.w3.org/1999/xlink">
<title>0</title>
<path fill="#000" style="fill: var(--color18, #000)" d="M16 7c0.489 0 0.948 0.090 1.376 0.271s0.8 0.456 1.114 0.827c0.314 0.371 0.562 0.839 0.744 1.405s0.273 1.234 0.273 2.004c0 0.771-0.091 1.438-0.273 2.001s-0.43 1.030-0.744 1.399c-0.314 0.369-0.685 0.643-1.114 0.824s-0.887 0.27-1.376 0.27c-0.494 0-0.952-0.090-1.376-0.271s-0.793-0.455-1.107-0.824c-0.314-0.369-0.561-0.835-0.74-1.399s-0.269-1.231-0.269-2.001c0-0.771 0.090-1.439 0.269-2.004s0.426-1.034 0.74-1.405c0.314-0.371 0.683-0.646 1.107-0.827s0.883-0.271 1.376-0.271zM16 7.928c-0.296 0-0.581 0.060-0.855 0.181s-0.514 0.321-0.72 0.599c-0.206 0.279-0.371 0.646-0.495 1.103s-0.185 1.021-0.185 1.694c0 0.672 0.062 1.236 0.185 1.691s0.288 0.822 0.495 1.1c0.206 0.279 0.446 0.478 0.72 0.599s0.559 0.181 0.855 0.181c0.296 0 0.581-0.060 0.855-0.181s0.515-0.321 0.724-0.599c0.209-0.279 0.375-0.646 0.498-1.1s0.185-1.018 0.185-1.691c0-0.672-0.062-1.237-0.185-1.694s-0.289-0.825-0.498-1.103c-0.209-0.279-0.45-0.478-0.724-0.599s-0.559-0.181-0.855-0.181z"></path>
<path fill="#9e9e9e" style="fill: var(--color83, #9e9e9e)" d="M16.198 20.583v1.471h1.402v0.465h-1.402v1.481h-0.503v-1.481h-1.395v-0.465h1.395v-1.471z"></path>
</svg>
