<?xml version="1.0" encoding="UTF-8"?>
<svg viewBox="0 0 32 32" version="1.1" xmlns="http://www.w3.org/2000/svg" xmlns:xlink="http://www.w3.org/1999/xlink">
<title>chat_bubble</title>
<path d="M28 4c1.105 0 2 0.895 2 2v16c0 1.105-0.895 2-2 2h-7.586c-0.265 0-0.52 0.105-0.707 0.293l-3.141 3.141c-0.312 0.312-0.819 0.312-1.131 0l-3.141-3.141c-0.188-0.188-0.442-0.293-0.707-0.293h-7.586c-1.105 0-2-0.895-2-2v-16c0-1.105 0.895-2 2-2h24zM27 6h-22c-0.552 0-1 0.448-1 1v14c0 0.552 0.448 1 1 1h7c0.53 0 1.039 0.211 1.414 0.586l2.586 2.586 2.586-2.586c0.375-0.375 0.884-0.586 1.414-0.586h7c0.552 0 1-0.448 1-1v-14c0-0.552-0.448-1-1-1zM19.778 9c0.552 0 1 0.448 1 1v7c0 0.552-0.448 1-1 1s-1-0.448-1-1l0.001-4.585-6.072 6.070c-0.391 0.391-1.024 0.391-1.414 0s-0.391-1.024 0-1.414l6.072-6.070-4.586-0.001c-0.552 0-1-0.448-1-1s0.448-1 1-1h7z"></path>
</svg>
