<?xml version="1.0" encoding="UTF-8"?>
<svg viewBox="0 0 32 32" version="1.1" xmlns="http://www.w3.org/2000/svg" xmlns:xlink="http://www.w3.org/1999/xlink">
<title>inbound-fax_border</title>
<path d="M23 4c0.552 0 1 0.448 1 1s-0.448 1-1 1h-2v13.757c0 0.796-0.316 1.559-0.879 2.121l-5.536 5.536c-0.333 0.333-0.772 0.537-1.238 0.578l-0.176 0.008h-8.172c-1.105 0-2-0.895-2-2v-20h-2c-0.552 0-1-0.448-1-1s0.448-1 1-1h22zM19 6h-14v19c0 0.552 0.448 1 1 1h6v-5c0-1.105 0.895-2 2-2h5v-13zM18.17 21h-3.17c-0.552 0-1 0.448-1 1v3.17l4.17-4.17zM28.379 10.707c0.39-0.39 1.023-0.39 1.414 0 0.36 0.36 0.388 0.928 0.083 1.32l-0.083 0.094-3.707 3.879 3.707 3.879c0.39 0.39 0.39 1.023 0 1.414-0.36 0.36-0.928 0.388-1.32 0.083l-0.094-0.083-4.586-4.586c-0.36-0.361-0.388-0.928-0.083-1.32l0.083-0.094 4.586-4.586zM15.167 14c0.46 0 0.833 0.448 0.833 1s-0.373 1-0.833 1h-6.333c-0.46 0-0.833-0.448-0.833-1s0.373-1 0.833-1h6.333zM15.167 9c0.46 0 0.833 0.448 0.833 1s-0.373 1-0.833 1h-6.333c-0.46 0-0.833-0.448-0.833-1s0.373-1 0.833-1h6.333z"></path>
</svg>
