<?xml version="1.0" encoding="UTF-8"?>
<svg viewBox="0 0 32 32" version="1.1" xmlns="http://www.w3.org/2000/svg" xmlns:xlink="http://www.w3.org/1999/xlink">
<title>mac-pages-D</title>
<path fill="#2f291e" style="fill: var(--color27, #2f291e)" d="M3.556 0h24.889c1.964 0 3.556 1.592 3.556 3.556v24.889c0 1.964-1.592 3.556-3.556 3.556h-24.889c-1.964 0-3.556-1.592-3.556-3.556v-24.889c0-1.964 1.592-3.556 3.556-3.556z"></path>
<path fill="#ffbc31" style="fill: var(--color28, #ffbc31)" d="M22.667 7.111c1.227 0 2.222 0.995 2.222 2.222v11.689h-13.726c-0.105 0-0.191 0.085-0.191 0.191 0 0.092 0.065 0.169 0.152 0.187l0.038 0.004h13.726v1.263c0 1.227-0.995 2.222-2.222 2.222h-13.333c-1.227 0-2.222-0.995-2.222-2.222v-13.333c0-1.227 0.995-2.222 2.222-2.222h13.333z"></path>
<path fill="#fff" style="fill: var(--color29, #fff)" d="M24.889 21.022v0.382l-13.764-0.004c-0.087-0.018-0.152-0.095-0.152-0.187 0-0.105 0.085-0.191 0.191-0.191v0h13.726zM11.537 19.85l0.401 0.395-0.496 0.289-0.038 0.016c-0.052 0.014-0.108-0.001-0.148-0.040s-0.053-0.093-0.042-0.144l0.020-0.049 0.303-0.466zM19.346 11.539l0.872 0.864-7.088 7.147c-0.085 0.078-0.176 0.15-0.272 0.215l-0.147 0.092-0.627 0.325-0.469-0.466 0.344-0.63 0.087-0.127c0.060-0.083 0.124-0.163 0.192-0.239l0.105-0.111 7.002-7.070zM21.347 10.429c0.216 0.211 0.24 0.54 0.076 0.781l-0.070 0.086-0.982 0.99-0.873-0.864 0.982-0.99 0.054-0.048c0.241-0.191 0.591-0.178 0.814 0.045z"></path>
</svg>
