<?xml version="1.0" encoding="UTF-8"?>
<svg viewBox="0 0 32 32" version="1.1" xmlns="http://www.w3.org/2000/svg" xmlns:xlink="http://www.w3.org/1999/xlink">
<title>feedback</title>
<path d="M26.667 2.667c1.473 0 2.667 1.194 2.667 2.667v16c0 1.473-1.194 2.667-2.667 2.667h-12l-5.554 4.999c-0.274 0.246-0.695 0.224-0.941-0.050-0.11-0.122-0.171-0.281-0.171-0.446v-4.503h-2.667c-1.473 0-2.667-1.194-2.667-2.667v-16c0-1.473 1.194-2.667 2.667-2.667h21.333zM15.994 17.333c-0.738 0-1.335 0.597-1.335 1.333s0.597 1.333 1.333 1.333v0c0.738 0 1.335-0.597 1.335-1.333s-0.597-1.333-1.333-1.333v0zM16 6.667l-0.142 0.005c-1.020 0.078-1.783 0.969-1.705 1.989v0l0.411 5.343c0.058 0.75 0.683 1.329 1.436 1.329s1.378-0.579 1.436-1.329v0l0.415-5.414 0.001-0.071c0-1.023-0.829-1.852-1.852-1.852v0z"></path>
</svg>
