<?xml version="1.0" encoding="UTF-8"?>
<svg viewBox="0 0 32 32" version="1.1" xmlns="http://www.w3.org/2000/svg" xmlns:xlink="http://www.w3.org/1999/xlink">
<title>inbound_call_on_behalf</title>
<path d="M12 17c1.439-0 2.822 0.226 4.092 0.64-0.068 0.253-0.106 0.513-0.114 0.775l-0.001 0.175-0.105 0.058c-0.338 0.195-0.64 0.447-0.893 0.744-0.931-0.253-1.934-0.392-2.979-0.392-4.878 0-8.85 3.019-8.996 6.786l-0.004 0.214 13.564 0.001c0.304 0.565 0.758 1.032 1.308 1.35l0.106 0.058 0.001 0.175c0.004 0.14 0.017 0.278 0.038 0.416l-15.016-0c-1.105 0-2-0.895-2-2 0-5.096 5.019-9 11-9zM30.701 15.299c0.399 0.398 0.399 1.045 0 1.443l-7.217 7.216 5.701 0.001c0.564 0 1.021 0.457 1.021 1.021s-0.457 1.021-1.021 1.021h-8.165c-0.564 0-1.021-0.457-1.021-1.021v-8.165c0-0.564 0.457-1.021 1.021-1.021s1.021 0.457 1.021 1.021l-0.001 5.7 7.217-7.216c0.399-0.399 1.045-0.399 1.443 0zM12 3c3.314 0 6 2.686 6 6s-2.686 6-6 6c-3.314 0-6-2.686-6-6s2.686-6 6-6zM12 5c-2.209 0-4 1.791-4 4s1.791 4 4 4c2.209 0 4-1.791 4-4s-1.791-4-4-4z"></path>
</svg>
