<?xml version="1.0" encoding="UTF-8"?>
<svg viewBox="0 0 32 32" version="1.1" xmlns="http://www.w3.org/2000/svg" xmlns:xlink="http://www.w3.org/1999/xlink">
<title>add</title>
<path d="M25.899 6.101c5.467 5.467 5.467 14.332 0 19.799s-14.332 5.467-19.799 0c-5.467-5.467-5.467-14.332 0-19.799s14.332-5.467 19.799 0zM17.001 14.999l-0.001-5.999c0-0.552-0.448-1-1-1-0.513 0-0.935 0.386-0.993 0.883l-0.007 0.117 0.001 5.999-6.001 0.001c-0.552 0-1 0.448-1 1 0 0.513 0.386 0.936 0.883 0.993l0.117 0.007 6.001-0.001-0.001 6.001c0 0.552 0.448 1 1 1 0.513 0 0.936-0.386 0.993-0.883l0.007-0.117 0.001-6.001 5.999 0.001c0.552 0 1-0.448 1-1 0-0.513-0.386-0.935-0.883-0.993l-0.117-0.007-5.999-0.001z"></path>
</svg>
