<?xml version="1.0" encoding="UTF-8"?>
<svg viewBox="0 0 32 32" version="1.1" xmlns="http://www.w3.org/2000/svg" xmlns:xlink="http://www.w3.org/1999/xlink">
<title>sort</title>
<path fill="#000" style="fill: var(--color15, #000)" d="M16.707 5.293l5.586 5.586c0.39 0.391 0.39 1.024 0 1.414-0.188 0.188-0.442 0.293-0.707 0.293h-11.172c-0.552 0-1-0.448-1-1 0-0.265 0.105-0.52 0.293-0.707l5.586-5.586c0.391-0.391 1.024-0.391 1.414 0l-0 0z"></path>
<path fill="#212121" style="fill: var(--color51, #212121)" d="M16.703 26.293l5.586-5.586c0.39-0.39 0.39-1.024 0-1.414-0.188-0.188-0.442-0.293-0.707-0.293h-11.172c-0.552 0-1 0.448-1 1 0 0.265 0.105 0.52 0.293 0.707l5.586 5.586c0.391 0.39 1.024 0.39 1.414 0l-0 0z"></path>
</svg>
