<?xml version="1.0" encoding="UTF-8"?>
<svg viewBox="0 0 32 32" version="1.1" xmlns="http://www.w3.org/2000/svg" xmlns:xlink="http://www.w3.org/1999/xlink">
<title>insert-image</title>
<path d="M4 28c-1.105 0-2-0.895-2-2v-20c0-1.105 0.895-2 2-2h24c1.105 0 2 0.895 2 2v20c0 1.054-0.816 1.918-1.851 1.994l-0.149 0.006h-24zM27 6h-22c-0.552 0-1 0.448-1 1v18c0 0.552 0.448 1 1 1h1.585l10.835-10.834c1.375-1.376 3.531-1.556 5.111-0.456l0.173 0.127 5.296 4.118v-11.955c0-0.552-0.448-1-1-1zM18.965 16.461l-0.13 0.119-9.42 9.42h17.586c0.547 0 0.991-0.438 1-0.983v-3.528l-6.523-5.074c-0.749-0.583-1.797-0.555-2.512 0.045zM10 9c1.657 0 3 1.343 3 3s-1.343 3-3 3c-1.657 0-3-1.343-3-3s1.343-3 3-3z"></path>
</svg>
