<?xml version="1.0" encoding="UTF-8"?>
<svg viewBox="0 0 32 32" version="1.1" xmlns="http://www.w3.org/2000/svg" xmlns:xlink="http://www.w3.org/1999/xlink">
<title>hd</title>
<path d="M3.5 7c0.828 0 1.5 0.672 1.5 1.5l-0.001 5.5h5.001v-5.5c0-0.828 0.672-1.5 1.5-1.5h1c0.828 0 1.5 0.672 1.5 1.5v16c0 0.828-0.672 1.5-1.5 1.5h-1c-0.828 0-1.5-0.672-1.5-1.5v-6.5h-5.001l0.001 6.5c0 0.828-0.672 1.5-1.5 1.5h-1c-0.828 0-1.5-0.672-1.5-1.5v-16c0-0.828 0.672-1.5 1.5-1.5h1zM21.717 7c2.374 0 4.487 0.607 6.291 1.87 1.828 1.239 2.991 4.57 2.991 7.509 0 2.987-1.163 6.319-2.968 7.654-1.804 1.287-3.965 1.967-6.315 1.967v0h-3.229c-1.424 0-2.489-0.79-2.489-2.248v0-14.386c0-1.457 1.064-2.367 2.489-2.367v0h3.229zM21.167 11h-1.167v10.984l1.167 0.016c4.473 0 5.909-2.456 5.909-6 0-3.148-1.437-5-5.909-5v0z"></path>
</svg>
