<?xml version="1.0" encoding="UTF-8"?>
<svg viewBox="0 0 32 32" version="1.1" xmlns="http://www.w3.org/2000/svg" xmlns:xlink="http://www.w3.org/1999/xlink">
<title>non-edit</title>
<path d="M2.565 3.979c0.36-0.36 0.928-0.388 1.32-0.083l0.094 0.083 24.042 24.042c0.391 0.391 0.391 1.024 0 1.414-0.36 0.36-0.928 0.388-1.32 0.083l-0.094-0.083-24.042-24.042c-0.391-0.391-0.391-1.024 0-1.414zM11.762 14.59l1.414 1.414-6.579 6.58 2.828 2.828 6.579-6.579 1.414 1.414-6.659 6.659c-0.279 0.279-0.635 0.47-1.022 0.547l-5.006 1.001c-0.542 0.108-1.068-0.243-1.177-0.784-0.026-0.129-0.026-0.263 0-0.392l1.001-5.006c0.077-0.387 0.268-0.743 0.547-1.022l6.658-6.659zM28.010 4c1.562 1.562 1.562 4.095 0 5.657l-7.763 7.762-1.414-1.414 4.935-4.934-2.828-2.828-4.935 4.934-1.414-1.414 7.762-7.762c1.562-1.562 4.095-1.562 5.657 0zM23.767 5.414l-1.413 1.413 2.828 2.828 1.413-1.414c0.781-0.781 0.781-2.047 0-2.828s-2.047-0.781-2.828 0z"></path>
</svg>
