<?xml version="1.0" encoding="UTF-8"?>
<svg viewBox="0 0 32 32" version="1.1" xmlns="http://www.w3.org/2000/svg" xmlns:xlink="http://www.w3.org/1999/xlink">
<title>start_meeting</title>
<path d="M22.222 6.222c1.473 0 2.667 1.194 2.667 2.667v2.153l3.17-1.672c0.958-0.213 1.908 0.391 2.121 1.35 0.028 0.127 0.042 0.256 0.042 0.386v9.79c0 0.982-0.796 1.778-1.778 1.778-0.13 0-0.259-0.014-0.386-0.042l-3.17-1.673v2.154c0 1.473-1.194 2.667-2.667 2.667h-17.778c-1.473 0-2.667-1.194-2.667-2.667v-14.222c0-1.473 1.194-2.667 2.667-2.667h17.778zM22.222 8h-17.778c-0.456 0-0.832 0.343-0.883 0.785l-0.006 0.104v14.222c0 0.456 0.343 0.832 0.785 0.883l0.104 0.006h17.778c0.456 0 0.832-0.343 0.883-0.785l0.006-0.104v-14.222c0-0.456-0.343-0.832-0.785-0.883l-0.104-0.006zM28.444 11.105l-3.556 1.877v6.037l3.556 1.877v-9.79zM13.333 11.556c0.491 0 0.889 0.398 0.889 0.889v2.667h2.667c0.491 0 0.889 0.398 0.889 0.889s-0.398 0.889-0.889 0.889h-2.667v2.667c0 0.491-0.398 0.889-0.889 0.889s-0.889-0.398-0.889-0.889v-2.668l-2.667 0.001c-0.491 0-0.889-0.398-0.889-0.889s0.398-0.889 0.889-0.889l2.667-0.001v-2.666c0-0.491 0.398-0.889 0.889-0.889z"></path>
</svg>
