<?xml version="1.0" encoding="UTF-8"?>
<svg viewBox="0 0 32 32" version="1.1" xmlns="http://www.w3.org/2000/svg" xmlns:xlink="http://www.w3.org/1999/xlink">
<title>no-audio</title>
<path d="M18.479 4.534c0.333 0.342 0.521 0.805 0.521 1.288v20.356c0 1.006-0.796 1.822-1.778 1.822-0.471 0-0.924-0.192-1.257-0.534l-6.854-6h-5.333c-0.982 0-1.778-0.816-1.778-1.822v-7.288c0-1.006 0.796-1.822 1.778-1.822h5.333l6.854-6c0.694-0.712 1.82-0.712 2.514 0zM23.172 11.757l2.83 2.828 2.827-2.828c0.391-0.391 1.024-0.391 1.414 0s0.391 1.024 0 1.414l-2.827 2.828 2.827 2.828c0.391 0.391 0.391 1.024 0 1.414s-1.024 0.391-1.414 0l-2.827-2.828-2.83 2.828c-0.391 0.391-1.024 0.391-1.414 0s-0.391-1.024 0-1.414l2.83-2.828-2.83-2.828c-0.391-0.391-0.391-1.024 0-1.414s1.024-0.391 1.414 0z"></path>
</svg>
