<?xml version="1.0" encoding="UTF-8"?>
<svg viewBox="0 0 32 32" version="1.1" xmlns="http://www.w3.org/2000/svg" xmlns:xlink="http://www.w3.org/1999/xlink">
<title>gif-file</title>
<path fill="#fff" style="fill: var(--color25, #fff)" opacity="0.991775" d="M3.556 0h24.889c1.964 0 3.556 1.592 3.556 3.556v24.889c0 1.964-1.592 3.556-3.556 3.556h-24.889c-1.964 0-3.556-1.592-3.556-3.556v-24.889c0-1.964 1.592-3.556 3.556-3.556z"></path>
<path fill="#4975ed" style="fill: var(--color49, #4975ed)" opacity="0.16" d="M3.556 0h24.889c1.964 0 3.556 1.592 3.556 3.556v24.889c0 1.964-1.592 3.556-3.556 3.556h-24.889c-1.964 0-3.556-1.592-3.556-3.556v-24.889c0-1.964 1.592-3.556 3.556-3.556z"></path>
<path fill="#4b77f1" style="fill: var(--color50, #4b77f1)" d="M9.778 7.111h12.444c1.473 0 2.667 1.194 2.667 2.667v12.444c0 1.473-1.194 2.667-2.667 2.667h-12.444c-1.473 0-2.667-1.194-2.667-2.667v-12.444c0-1.473 1.194-2.667 2.667-2.667z"></path>
<path fill="#fff" style="fill: var(--color25, #fff)" d="M12.396 19.627c0.264 0 0.51-0.014 0.738-0.042s0.442-0.070 0.642-0.127c0.2-0.056 0.388-0.128 0.564-0.216s0.346-0.19 0.509-0.309v0-2.6h-2.138v0.676c0 0.062 0.022 0.115 0.067 0.158s0.105 0.064 0.182 0.064v0h0.804v1.169c-0.181 0.086-0.371 0.153-0.571 0.202s-0.435 0.073-0.704 0.073c-0.305 0-0.587-0.053-0.844-0.158s-0.48-0.257-0.667-0.456c-0.187-0.198-0.332-0.442-0.436-0.731s-0.156-0.619-0.156-0.989c0-0.344 0.049-0.655 0.147-0.933s0.237-0.517 0.418-0.716c0.181-0.199 0.399-0.351 0.656-0.458s0.543-0.16 0.86-0.16c0.196 0 0.368 0.013 0.518 0.040s0.284 0.061 0.404 0.102c0.12 0.041 0.23 0.090 0.329 0.147s0.196 0.113 0.291 0.169c0.074 0.047 0.147 0.071 0.218 0.071 0.113 0 0.203-0.055 0.271-0.164v0l0.347-0.542c-0.267-0.249-0.592-0.451-0.976-0.607s-0.838-0.233-1.362-0.233c-0.513 0-0.975 0.080-1.387 0.24s-0.762 0.385-1.051 0.676c-0.289 0.29-0.512 0.637-0.669 1.040s-0.236 0.846-0.236 1.329c0 0.477 0.081 0.917 0.242 1.32s0.386 0.75 0.673 1.040c0.287 0.29 0.628 0.517 1.022 0.68s0.825 0.244 1.293 0.244h0zM17.311 19.556v-6.427h-1.2v6.427h1.2zM19.96 19.556v-2.618h2.404v-0.956h-2.404v-1.902h2.849v-0.951h-4.053v6.427h1.204z"></path>
</svg>
