<?xml version="1.0" encoding="UTF-8"?>
<svg viewBox="0 0 32 32" version="1.1" xmlns="http://www.w3.org/2000/svg" xmlns:xlink="http://www.w3.org/1999/xlink">
<title>screenshare</title>
<path d="M27 5h-22c-1.105 0-2 0.895-2 2v18h-2c-0.552 0-1 0.448-1 1s0.448 1 1 1h30c0.552 0 1-0.448 1-1s-0.448-1-1-1h-2v-18c0-1.105-0.895-2-2-2zM16.707 10.293l4.657 4.657c0.39 0.391 0.39 1.024 0 1.414-0.36 0.36-0.928 0.388-1.32 0.083l-0.094-0.083-2.951-2.95 0.001 7.586c0 0.552-0.448 1-1 1s-1-0.448-1-1l-0.001-7.586-2.949 2.95c-0.391 0.39-1.024 0.39-1.414 0-0.361-0.36-0.388-0.928-0.083-1.32l0.083-0.094 4.657-4.657c0.361-0.361 0.928-0.388 1.32-0.083l0.094 0.083z"></path>
</svg>
