<?xml version="1.0" encoding="UTF-8"?>
<svg viewBox="0 0 32 32" version="1.1" xmlns="http://www.w3.org/2000/svg" xmlns:xlink="http://www.w3.org/1999/xlink">
<title>doc</title>
<path fill="#fff" style="fill: var(--color29, #fff)" opacity="0.991775" d="M3.556 0h24.889c1.964 0 3.556 1.592 3.556 3.556v24.889c0 1.964-1.592 3.556-3.556 3.556h-24.889c-1.964 0-3.556-1.592-3.556-3.556v-24.889c0-1.964 1.592-3.556 3.556-3.556z"></path>
<path fill="#4169a1" style="fill: var(--color44, #4169a1)" opacity="0.16" d="M3.556 0h24.889c1.964 0 3.556 1.592 3.556 3.556v24.889c0 1.964-1.592 3.556-3.556 3.556h-24.889c-1.964 0-3.556-1.592-3.556-3.556v-24.889c0-1.964 1.592-3.556 3.556-3.556z"></path>
<path fill="#4169a1" style="fill: var(--color44, #4169a1)" d="M11.919 8c-0.601 0-1.108 0.208-1.522 0.624s-0.62 0.927-0.62 1.532v11.688c0 0.605 0.207 1.116 0.62 1.532s0.921 0.624 1.522 0.624h8.161c0.601 0 1.108-0.208 1.522-0.624s0.62-0.927 0.62-1.532v-9.059l-5.551-4.785h-4.752zM17.009 20.53l-1.202-4.842h-0.038l-1.24 4.842h-1.052l-1.954-6.128h1.090l1.39 5.031 1.24-5.031h1.090l1.277 5.031 1.39-5.031h1.014l-1.916 6.128h-1.090z"></path>
</svg>
