<?xml version="1.0" encoding="UTF-8"?>
<svg viewBox="0 0 32 32" version="1.1" xmlns="http://www.w3.org/2000/svg" xmlns:xlink="http://www.w3.org/1999/xlink">
<title>mention</title>
<path d="M16 2c7.755 0 14 5.37 14 12.554 0 4.812-3.235 8.711-7.071 8.711-1.666 0-3.019-0.715-3.692-1.915l-0.1-0.194-0.030 0.046c-0.807 1.176-2.027 1.895-3.489 2.027l-0.261 0.017-0.239 0.005c-3.525 0-5.948-2.964-5.948-7.147 0-4.133 2.424-7.086 5.899-7.086 1.279 0 2.439 0.429 3.296 1.179l0.179 0.165 0.117 0.12 0.003-0.051c0.054-0.746 0.51-1.276 1.199-1.39l0.141-0.017 0.147-0.006c0.856 0 1.426 0.564 1.486 1.412l0.005 0.153v8.3c0 1.067 0.544 1.618 1.606 1.618 1.877 0 3.806-2.639 3.806-5.863 0-5.623-5.063-9.717-11.078-9.717-6.2 0-10.87 4.793-10.87 11.151 0 6.5 4.719 10.992 11.286 10.992 1.371 0 2.455-0.143 3.965-0.497l0.569-0.137c0.198-0.043 0.384-0.065 0.546-0.065 0.729 0 1.308 0.567 1.308 1.296 0 0.753-0.5 1.333-1.459 1.638-1.31 0.428-3.32 0.698-5.321 0.698-7.986 0-14-5.844-14-14 0-8.064 6.024-14 14-14zM15.444 12.346c-1.884 0-3.098 1.567-3.098 4.149 0 2.628 1.201 4.197 3.086 4.197 1.924 0 3.184-1.62 3.184-4.246 0-2.568-1.223-4.1-3.171-4.1z"></path>
</svg>
