<?xml version="1.0" encoding="UTF-8"?>
<svg viewBox="0 0 32 32" version="1.1" xmlns="http://www.w3.org/2000/svg" xmlns:xlink="http://www.w3.org/1999/xlink">
<title>notification_border</title>
<path d="M16 2c0.552 0 1 0.448 1 1l0.001 1.055c4.5 0.498 7.999 4.313 7.999 8.945v3.264c0 1.34 0.449 2.642 1.275 3.698l2.195 2.805c0.681 0.87 0.527 2.127-0.342 2.808-0.352 0.275-0.786 0.425-1.233 0.425l-5.995 0.001c-0.464 2.282-2.481 3.999-4.9 3.999s-4.436-1.717-4.9-3.999l-5.995-0.001c-1.105 0-2-0.895-2-2 0-0.447 0.15-0.881 0.425-1.233l2.195-2.805c0.826-1.056 1.275-2.357 1.275-3.698v-3.264c0-4.633 3.5-8.448 8-8.945l-0-1.055c0-0.552 0.448-1 1-1zM18.829 26.001h-5.658c0.412 1.165 1.523 1.999 2.829 1.999s2.417-0.834 2.829-1.999zM16 6c-3.866 0-7 3.134-7 7v3.264c0 1.787-0.598 3.523-1.7 4.93l-2.195 2.805h21.79l-2.195-2.805c-1.101-1.407-1.7-3.143-1.7-4.93v-3.264c0-3.866-3.134-7-7-7z"></path>
</svg>
