<?xml version="1.0" encoding="UTF-8"?>
<svg viewBox="0 0 32 32" version="1.1" xmlns="http://www.w3.org/2000/svg" xmlns:xlink="http://www.w3.org/1999/xlink">
<title>video_and_message</title>
<path d="M21 6c1.105 0 2 0.895 2 2v14c0 1.105-0.895 2-2 2h-4.586c-0.265 0-0.52 0.105-0.707 0.293l-3.141 3.141c-0.312 0.312-0.819 0.312-1.131 0l-3.141-3.141c-0.188-0.188-0.442-0.293-0.707-0.293h-4.586c-1.105 0-2-0.895-2-2v-14c0-1.105 0.895-2 2-2h18zM20 8h-16c-0.552 0-1 0.448-1 1v12c0 0.552 0.448 1 1 1h4c0.53 0 1.039 0.211 1.414 0.586l2.586 2.586 2.586-2.586c0.375-0.375 0.884-0.586 1.414-0.586h4c0.552 0 1-0.448 1-1v-12c0-0.552-0.448-1-1-1zM30 8.618c0.513 0 0.936 0.386 0.993 0.883l0.007 0.117v10.764c0 0.155-0.036 0.308-0.106 0.447-0.229 0.459-0.764 0.664-1.234 0.493l-0.107-0.046-5-2.5c-0.301-0.151-0.504-0.441-0.545-0.77l-0.008-0.125v-5.764c0-0.337 0.169-0.648 0.445-0.832l0.108-0.063 5-2.5c0.139-0.069 0.292-0.106 0.447-0.106zM29 11.236l-3 1.5v4.528l3 1.5v-7.528zM13 16c0.552 0 1 0.448 1 1s-0.448 1-1 1h-7c-0.552 0-1-0.448-1-1s0.448-1 1-1h7zM18 12c0.552 0 1 0.448 1 1s-0.448 1-1 1h-12c-0.552 0-1-0.448-1-1s0.448-1 1-1h12z"></path>
</svg>
