<?xml version="1.0" encoding="UTF-8"?>
<svg viewBox="0 0 32 32" version="1.1" xmlns="http://www.w3.org/2000/svg" xmlns:xlink="http://www.w3.org/1999/xlink">
<title>default-video-D</title>
<path fill="#222b42" style="fill: var(--color21, #222b42)" d="M3.556 0h24.889c1.964 0 3.556 1.592 3.556 3.556v24.889c0 1.964-1.592 3.556-3.556 3.556h-24.889c-1.964 0-3.556-1.592-3.556-3.556v-24.889c0-1.964 1.592-3.556 3.556-3.556z"></path>
<path fill="#356afd" style="fill: var(--color37, #356afd)" d="M16 7.111c-4.91 0-8.889 3.98-8.889 8.889s3.979 8.889 8.889 8.889c4.909 0 8.889-3.98 8.889-8.889s-3.979-8.889-8.889-8.889z"></path>
<path fill="#f1f1f1" style="fill: var(--color27, #f1f1f1)" d="M19.497 16.771l-4.918 3.394c-0.614 0.424-1.119 0.155-1.119-0.597v-7.136c0-0.752 0.505-1.021 1.119-0.597l4.916 3.394c0.614 0.424 0.615 1.118 0.002 1.542h-0z"></path>
</svg>
