<?xml version="1.0" encoding="UTF-8"?>
<svg viewBox="0 0 32 32" version="1.1" xmlns="http://www.w3.org/2000/svg" xmlns:xlink="http://www.w3.org/1999/xlink">
<title>settings_border</title>
<path d="M20.857 2.057c1.766 0.593 3.401 1.507 4.823 2.688 0.357 0.296 0.477 0.786 0.297 1.21-0.514 1.206-0.437 2.578 0.241 3.731 0.721 1.226 2 1.996 3.411 2.095 0.467 0.033 0.858 0.359 0.966 0.806 0.269 1.108 0.406 2.252 0.406 3.413s-0.137 2.304-0.405 3.414c-0.108 0.448-0.5 0.774-0.967 0.807-1.412 0.098-2.69 0.868-3.411 2.094-0.678 1.153-0.755 2.526-0.241 3.732 0.18 0.423 0.060 0.913-0.296 1.209-1.421 1.181-3.055 2.095-4.822 2.689-0.467 0.157-0.983-0.020-1.249-0.428-0.783-1.2-2.13-1.939-3.608-1.939s-2.825 0.739-3.61 1.939c-0.266 0.407-0.781 0.584-1.248 0.427-1.765-0.592-3.4-1.505-4.822-2.687-0.357-0.296-0.477-0.786-0.297-1.21 0.514-1.206 0.437-2.578-0.241-3.731-0.721-1.226-2-1.996-3.411-2.095-0.467-0.033-0.858-0.359-0.966-0.806-0.269-1.108-0.406-2.252-0.406-3.413s0.137-2.304 0.405-3.414c0.108-0.448 0.5-0.774 0.967-0.807 1.412-0.098 2.69-0.868 3.411-2.094 0.678-1.153 0.755-2.526 0.242-3.732-0.18-0.423-0.060-0.913 0.296-1.209 1.421-1.181 3.055-2.095 4.822-2.689 0.467-0.157 0.982 0.020 1.249 0.428 0.783 1.2 2.13 1.94 3.608 1.94 1.458 0 2.789-0.719 3.562-1.867l0.038-0.060c0.263-0.417 0.785-0.6 1.257-0.441zM11.163 4.178l-0.205 0.082c-0.945 0.39-1.841 0.889-2.667 1.487l-0.176 0.131 0.023 0.076c0.413 1.501 0.244 3.105-0.495 4.501l-0.136 0.244c-0.921 1.566-2.467 2.636-4.229 2.975l-0.063 0.010-0.037 0.2c-0.095 0.556-0.152 1.12-0.171 1.688l-0.007 0.427c0 0.714 0.060 1.421 0.179 2.115l0.037 0.198 0.063 0.012c1.678 0.324 3.16 1.31 4.093 2.756l0.136 0.22c0.853 1.451 1.068 3.157 0.63 4.746l-0.023 0.075 0.176 0.132c0.827 0.598 1.723 1.097 2.667 1.486l0.205 0.081 0.027-0.031c1.129-1.327 2.772-2.134 4.545-2.207l0.267-0.006c1.875 0 3.627 0.82 4.811 2.215l0.025 0.030 0.206-0.081c0.945-0.39 1.841-0.889 2.667-1.487l0.175-0.132-0.022-0.075c-0.413-1.501-0.244-3.105 0.495-4.501l0.136-0.244c0.921-1.566 2.467-2.636 4.229-2.975l0.062-0.011 0.038-0.199c0.095-0.556 0.152-1.12 0.171-1.688l0.007-0.427c0-0.714-0.060-1.421-0.179-2.115l-0.038-0.199-0.062-0.011c-1.678-0.324-3.16-1.31-4.093-2.756l-0.136-0.22c-0.853-1.451-1.068-3.156-0.63-4.746l0.022-0.076-0.175-0.131c-0.827-0.598-1.723-1.097-2.668-1.487l-0.203-0.080-0.087 0.104c-1.121 1.282-2.745 2.063-4.489 2.134l-0.262 0.005c-1.875 0-3.627-0.82-4.811-2.215l-0.026-0.032zM16 11c2.761 0 5 2.239 5 5s-2.239 5-5 5c-2.761 0-5-2.239-5-5s2.239-5 5-5zM16 13c-1.657 0-3 1.343-3 3s1.343 3 3 3c1.657 0 3-1.343 3-3s-1.343-3-3-3z"></path>
</svg>
