<?xml version="1.0" encoding="UTF-8"?>
<svg viewBox="0 0 32 32" version="1.1" xmlns="http://www.w3.org/2000/svg" xmlns:xlink="http://www.w3.org/1999/xlink">
<title>outbound-fax</title>
<path d="M20 4c1.105 0 2 0.895 2 2v16h-4c-1.054 0-1.918 0.816-1.994 1.851l-0.006 0.149v4h-12c-1.105 0-2-0.895-2-2v-20c0-1.105 0.895-2 2-2h16zM20.942 23.616c0.552 0 1 0.448 1 1 0 0.265-0.105 0.52-0.293 0.707l-2.243 2.243c-0.391 0.391-1.024 0.391-1.414 0-0.188-0.188-0.293-0.442-0.293-0.707v-2.243c0-0.552 0.448-1 1-1h2.243zM25.207 10.707l4.586 4.586c0.391 0.391 0.391 1.024 0 1.414l-4.586 4.586c-0.39 0.39-1.024 0.39-1.414 0s-0.39-1.024 0-1.414l3.707-3.879-3.707-3.879c-0.39-0.39-0.39-1.024 0-1.414s1.024-0.39 1.414 0zM13.333 18h-6.667c-0.368 0-0.667 0.448-0.667 1s0.298 1 0.667 1v0h6.667c0.368 0 0.667-0.448 0.667-1s-0.298-1-0.667-1v0zM17 12h-10c-0.552 0-1 0.448-1 1s0.448 1 1 1v0h10c0.552 0 1-0.448 1-1s-0.448-1-1-1v0z"></path>
</svg>
