<?xml version="1.0" encoding="UTF-8"?>
<svg viewBox="0 0 32 32" version="1.1" xmlns="http://www.w3.org/2000/svg" xmlns:xlink="http://www.w3.org/1999/xlink">
<title>park-call-message</title>
<path d="M22 8c1.105 0 2 0.895 2 2v14c0 1.105-0.895 2-2 2h-4.586c-0.265 0-0.52 0.105-0.707 0.293l-3.141 3.141c-0.312 0.312-0.819 0.312-1.131 0l-3.141-3.141c-0.188-0.188-0.442-0.293-0.707-0.293h-4.586c-1.105 0-2-0.895-2-2v-14c0-1.105 0.895-2 2-2h18zM21 10h-16c-0.552 0-1 0.448-1 1v12c0 0.552 0.448 1 1 1h4c0.53 0 1.039 0.211 1.414 0.586l2.586 2.586 2.586-2.586c0.375-0.375 0.884-0.586 1.414-0.586h4c0.552 0 1-0.448 1-1v-12c0-0.552-0.448-1-1-1zM14.344 12.382c1.74 0 2.98 1.306 2.98 3.117 0 1.75-1.162 3.034-2.806 3.123l-0.185 0.005-2.632-0.001 0.001 1.965c0 0.505-0.295 0.898-0.746 1l-0.116 0.019-0.122 0.007c-0.54 0-0.925-0.376-0.977-0.902l-0.006-0.124v-7.184c0-0.547 0.346-0.963 0.861-1.019l0.122-0.007h3.625zM28 2c1.105 0 2 0.895 2 2v12c0 1.105-0.895 2-2 2h-3v-2h2c0.552 0 1-0.448 1-1v-10c0-0.552-0.448-1-1-1h-16c-0.552 0-1 0.448-1 1v1h-2v-2c0-1.105 0.895-2 2-2h18zM14.091 14.287l-2.39-0.001v2.437l2.39 0c0.826 0 1.239-0.411 1.239-1.224 0-0.757-0.359-1.16-1.088-1.208l-0.151-0.005z"></path>
</svg>
