<?xml version="1.0" encoding="UTF-8"?>
<svg viewBox="0 0 32 32" version="1.1" xmlns="http://www.w3.org/2000/svg" xmlns:xlink="http://www.w3.org/1999/xlink">
<title>speaker-down</title>
<path d="M21.414 3.414c0.375 0.375 0.586 0.884 0.586 1.414v22.343c0 1.105-0.895 2-2 2-0.53 0-1.039-0.211-1.414-0.586l-6.586-6.586h-6c-1.105 0-2-0.895-2-2v-8c0-1.105 0.895-2 2-2h6l6.586-6.586c0.781-0.781 2.047-0.781 2.828 0zM20 4.828l-6.586 6.586c-0.375 0.375-0.884 0.586-1.414 0.586h-5c-0.552 0-1 0.448-1 1v6c0 0.552 0.448 1 1 1h5c0.53 0 1.039 0.211 1.414 0.586l6.586 6.586v-22.343zM25.511 10.379c0.499-0.237 1.095-0.025 1.332 0.474 0.758 1.595 1.157 3.343 1.157 5.147 0 1.839-0.415 3.621-1.202 5.24-0.241 0.497-0.84 0.704-1.337 0.462s-0.704-0.84-0.462-1.337c0.655-1.348 1-2.831 1-4.366 0-1.505-0.332-2.96-0.963-4.288-0.237-0.499-0.025-1.095 0.474-1.332z"></path>
</svg>
