<?xml version="1.0" encoding="UTF-8"?>
<svg viewBox="0 0 32 32" version="1.1" xmlns="http://www.w3.org/2000/svg" xmlns:xlink="http://www.w3.org/1999/xlink">
<title>mac-pages</title>
<path fill="#fff" style="fill: var(--color29, #fff)" opacity="0.991775" d="M3.556 0h24.889c1.964 0 3.556 1.592 3.556 3.556v24.889c0 1.964-1.592 3.556-3.556 3.556h-24.889c-1.964 0-3.556-1.592-3.556-3.556v-24.889c0-1.964 1.592-3.556 3.556-3.556z"></path>
<path fill="#ffbc31" style="fill: var(--color28, #ffbc31)" opacity="0.16" d="M3.556 0h24.889c1.964 0 3.556 1.592 3.556 3.556v24.889c0 1.964-1.592 3.556-3.556 3.556h-24.889c-1.964 0-3.556-1.592-3.556-3.556v-24.889c0-1.964 1.592-3.556 3.556-3.556z"></path>
<path fill="#ffbc31" style="fill: var(--color28, #ffbc31)" d="M22.667 7.111c1.227 0 2.222 0.995 2.222 2.222v11.689h-13.726c-0.105 0-0.191 0.085-0.191 0.191 0 0.092 0.065 0.169 0.152 0.187l0.038 0.004h13.726v1.263c0 1.227-0.995 2.222-2.222 2.222h-13.333c-1.227 0-2.222-0.995-2.222-2.222v-13.333c0-1.227 0.995-2.222 2.222-2.222h13.333zM11.537 19.85l-0.303 0.466c-0.038 0.063-0.030 0.142 0.022 0.194 0.039 0.039 0.096 0.054 0.148 0.040l0.038-0.016 0.496-0.289-0.401-0.395zM19.346 11.539l-7.002 7.070c-0.108 0.108-0.208 0.226-0.298 0.351l-0.087 0.127-0.344 0.63 0.469 0.466 0.627-0.325c0.15-0.087 0.291-0.19 0.419-0.308l0.094-0.091 6.994-7.057-0.872-0.864zM21.347 10.429c-0.223-0.223-0.573-0.236-0.814-0.045l-0.054 0.048-0.982 0.99 0.873 0.864 0.982-0.99c0.237-0.243 0.237-0.63-0.005-0.867v0h-0z"></path>
</svg>
