<?xml version="1.0" encoding="UTF-8"?>
<svg viewBox="0 0 32 32" version="1.1" xmlns="http://www.w3.org/2000/svg" xmlns:xlink="http://www.w3.org/1999/xlink">
<title>hand-up</title>
<path d="M28.52 20.419c-0.592 0.488-1.414 0.766-2.233 0.709l-0.204-0.021-4.453-0.628c-1.326-0.181-2.174-0.863-2.253-1.818l-0.006-0.162 0.010-0.728c-0.010-0.507-0.324-0.789-1.172-0.871-0.652-0.062-1.479-0.102-2.087-0.104-0.754-0.003-1.717 0.035-2.448 0.085-0.811 0.052-1.122 0.309-1.158 0.761l-0.003 0.1 0.012 0.734c0.027 0.979-0.735 1.68-2.010 1.919l-0.217 0.035-4.068 0.592c-1.108 0.157-1.863-0.074-2.503-0.602-0.446-0.367-0.781-0.99-0.905-1.595l-0.033-0.2-0.009-0.233c-0.003-1.594 0.49-2.804 1.766-3.855 2.739-2.257 6.051-3.353 11.456-3.402 5.419-0.049 8.985 1.166 11.468 3.212 1.515 1.248 1.97 2.363 2.027 3.961l0.006 0.256-0.061 0.377c-0.122 0.585-0.453 1.091-0.92 1.476z"></path>
</svg>
