<?xml version="1.0" encoding="UTF-8"?>
<svg viewBox="0 0 32 32" version="1.1" xmlns="http://www.w3.org/2000/svg" xmlns:xlink="http://www.w3.org/1999/xlink">
<title>unselect</title>
<path d="M27 2c1.657 0 3 1.343 3 3v22c0 1.657-1.343 3-3 3h-22c-1.657 0-3-1.343-3-3v-22c0-1.657 1.343-3 3-3h22zM27 4.5h-22c-0.245 0-0.45 0.177-0.492 0.41l-0.008 0.090v22c0 0.245 0.177 0.45 0.41 0.492l0.090 0.008h22c0.245 0 0.45-0.177 0.492-0.41l0.008-0.090v-22c0-0.245-0.177-0.45-0.41-0.492l-0.090-0.008z"></path>
</svg>
