<?xml version="1.0" encoding="UTF-8"?>
<svg viewBox="0 0 32 32" version="1.1" xmlns="http://www.w3.org/2000/svg" xmlns:xlink="http://www.w3.org/1999/xlink">
<title>phone-off</title>
<path d="M21.373 17.3c0.803 0.071 1.484 0.39 1.965 0.905 0.599 0.566 1.221 1.131 1.865 1.697l0.459 0.399c0.57 0.491 1.262 1.072 2.075 1.742 0.586 0.482 0.976 1.073 1.157 1.757 0.164 0.617 0.135 1.216-0.074 1.743l-0.087 0.194c-0.193 0.479-0.565 1.044-1.117 1.713-0.476 0.576-0.912 1.028-1.295 1.343l-0.161 0.127c-0.44 0.363-0.947 0.637-1.516 0.818-0.556 0.177-1.167 0.264-1.828 0.264-1.073 0-2.192-0.21-3.356-0.625-1.135-0.405-2.29-0.984-3.466-1.737-1.020-0.653-2.037-1.431-3.044-2.327l-0.431-0.391c-0.449-0.403-0.895-0.826-1.339-1.27l5.212-5.216 0.048 0.041c0.319 0.269 0.611 0.477 0.874 0.623 0.121 0.067 0.226 0.121 0.312 0.159l0.218-0.239 0.080-0.079 0.085-0.107 0.254-0.263c0.119-0.12 0.226-0.223 0.321-0.31 0.171-0.156 0.362-0.306 0.617-0.477 0.658-0.388 1.391-0.552 2.169-0.483zM29.435 3.979c0.391 0.391 0.391 1.024 0 1.414l-24.042 24.042c-0.391 0.391-1.024 0.391-1.414 0s-0.391-1.024 0-1.414l24.042-24.042c0.391-0.391 1.024-0.391 1.414 0zM10.791 2.353c0.678 0.318 1.204 0.818 1.577 1.5 0.366 0.728 0.785 1.483 1.257 2.265 0.473 0.784 1.035 1.646 1.696 2.601 0.414 0.626 0.579 1.307 0.486 2.017-0.091 0.699-0.403 1.322-0.977 1.9-0.164 0.139-0.333 0.269-0.508 0.389-0.156 0.107-0.329 0.212-0.519 0.316-0.067 0.053-0.139 0.099-0.218 0.137l-0.171 0.083-0.137 0.078c-0.026 0.013-0.054 0.027-0.085 0.042-0.053 0.022-0.101 0.045-0.144 0.067 0.016 0.079 0.043 0.175 0.083 0.29l0.098 0.258c0.117 0.314 0.304 0.677 0.56 1.086l-5.28 5.281c-1.239-1.551-2.272-3.085-3.099-4.599-0.955-1.731-1.628-3.354-2.018-4.87-0.397-1.544-0.493-2.938-0.281-4.173 0.204-1.306 0.769-2.366 1.703-3.149 0.433-0.361 1.041-0.728 1.828-1.11 0.803-0.39 1.468-0.63 2.018-0.716 0.735-0.115 1.455-0.010 2.133 0.308z"></path>
</svg>
