<?xml version="1.0" encoding="UTF-8"?>
<svg viewBox="0 0 32 32" version="1.1" xmlns="http://www.w3.org/2000/svg" xmlns:xlink="http://www.w3.org/1999/xlink">
<title>add_border</title>
<path d="M16 2c7.732 0 14 6.268 14 14s-6.268 14-14 14c-7.732 0-14-6.268-14-14s6.268-14 14-14zM16 4c-6.627 0-12 5.373-12 12s5.373 12 12 12c6.627 0 12-5.373 12-12s-5.373-12-12-12zM16 8c0.513 0 0.936 0.386 0.993 0.883l0.007 0.117 0.001 5.999 5.999 0.001 0.117 0.007c0.497 0.058 0.883 0.48 0.883 0.993s-0.386 0.936-0.883 0.993l-0.117 0.007-5.999-0.001-0.001 6.001-0.007 0.117c-0.058 0.497-0.48 0.883-0.993 0.883s-0.935-0.386-0.993-0.883l-0.007-0.117 0.001-6.001-6.001 0.001-0.117-0.007c-0.497-0.058-0.883-0.48-0.883-0.993s0.386-0.935 0.883-0.993l0.117-0.007 6.001-0.001-0.001-5.999 0.007-0.117c0.058-0.497 0.48-0.883 0.993-0.883z"></path>
</svg>
