<?xml version="1.0" encoding="UTF-8"?>
<svg viewBox="0 0 32 32" version="1.1" xmlns="http://www.w3.org/2000/svg" xmlns:xlink="http://www.w3.org/1999/xlink">
<title>filter</title>
<path d="M18 29h-4c-1.105 0-2-0.895-2-2v-8.176c0-0.265-0.105-0.52-0.293-0.707l-7.117-7.117c-0.376-0.373-0.588-0.88-0.59-1.41v-4.59c0-1.105 0.895-2 2-2h20c1.105 0 2 0.895 2 2v4.59c-0.002 0.53-0.214 1.037-0.59 1.41l-7.117 7.117c-0.188 0.188-0.293 0.442-0.293 0.707v8.176c0 1.105-0.895 2-2 2zM6 6v3.176c0 0.265 0.105 0.52 0.293 0.707l7.121 7.121c0.375 0.375 0.586 0.884 0.586 1.414v7.582c0 0.552 0.448 1 1 1h2c0.552 0 1-0.448 1-1v-7.582c0-0.53 0.211-1.039 0.586-1.414l7.121-7.121c0.188-0.188 0.293-0.442 0.293-0.707v-3.176c0-0.552-0.448-1-1-1h-18c-0.552 0-1 0.448-1 1z"></path>
</svg>
