<?xml version="1.0" encoding="UTF-8"?>
<svg viewBox="0 0 32 32" version="1.1" xmlns="http://www.w3.org/2000/svg" xmlns:xlink="http://www.w3.org/1999/xlink">
<title>reset-zoom</title>
<path d="M27 3c1.105 0 2 0.895 2 2v22c0 1.105-0.895 2-2 2h-22c-1.105 0-2-0.895-2-2v-22c0-1.105 0.895-2 2-2h22zM26 5h-20c-0.552 0-1 0.448-1 1v20c0 0.552 0.448 1 1 1h20c0.552 0 1-0.448 1-1v-20c0-0.552-0.448-1-1-1zM24 17c0.552 0 1 0.448 1 1v6c0 0.552-0.448 1-1 1h-6c-0.552 0-1-0.448-1-1s0.448-1 1-1h5v-5c0-0.552 0.448-1 1-1zM14 7c0.552 0 1 0.448 1 1s-0.448 1-1 1h-5v5c0 0.552-0.448 1-1 1s-1-0.448-1-1v-6c0-0.552 0.448-1 1-1h6z"></path>
</svg>
