<?xml version="1.0" encoding="UTF-8"?>
<svg viewBox="0 0 32 32" version="1.1" xmlns="http://www.w3.org/2000/svg" xmlns:xlink="http://www.w3.org/1999/xlink">
<title>hide_border</title>
<path d="M28.749 3.293c0.391 0.391 0.391 1.024 0 1.414l-3.546 3.546c3.528 2.569 5.797 6.003 5.797 7.747 0 3-6.716 11-15 11-2.706 0-5.245-0.854-7.437-2.108l-3.856 3.856c-0.391 0.391-1.024 0.391-1.414 0s-0.391-1.024 0-1.414l24.042-24.042c0.391-0.391 1.024-0.391 1.414 0zM23.771 9.685l-2.862 2.863c0.688 0.976 1.091 2.167 1.091 3.451 0 3.314-2.686 6-6 6-1.285 0-2.475-0.404-3.451-1.091l-2.514 2.514c1.917 1.011 3.952 1.578 5.965 1.578 3.233 0 6.526-1.462 9.29-3.88 1.169-1.022 2.162-2.156 2.853-3.223 0.569-0.878 0.857-1.609 0.857-1.897s-0.289-1.019-0.857-1.897c-0.691-1.066-1.684-2.2-2.853-3.223-0.491-0.429-0.998-0.829-1.519-1.195zM16 5c2.201 0 4.292 0.565 6.176 1.451l-1.515 1.516c-1.523-0.625-3.099-0.966-4.661-0.966-3.233 0-6.526 1.462-9.29 3.88-1.169 1.022-2.162 2.156-2.853 3.223-0.568 0.878-0.857 1.609-0.857 1.897s0.289 1.019 0.857 1.897c0.691 1.066 1.684 2.2 2.853 3.223 0.142 0.125 0.286 0.247 0.432 0.366l-1.421 1.42c-2.906-2.436-4.721-5.346-4.721-6.906 0-3 6.716-11 15-11zM19.462 13.995l-5.467 5.467c0.589 0.342 1.274 0.538 2.005 0.538 2.209 0 4-1.791 4-4 0-0.731-0.196-1.416-0.538-2.005zM16 10c0.78 0 1.525 0.149 2.208 0.419l-1.624 1.623c-0.191-0.028-0.386-0.042-0.584-0.042-2.209 0-4 1.791-4 4 0 0.198 0.014 0.393 0.042 0.584l-1.623 1.624c-0.271-0.683-0.419-1.428-0.419-2.208 0-3.314 2.686-6 6-6z"></path>
</svg>
