<?xml version="1.0" encoding="UTF-8"?>
<svg viewBox="0 0 32 32" version="1.1" xmlns="http://www.w3.org/2000/svg" xmlns:xlink="http://www.w3.org/1999/xlink">
<title>save-draft</title>
<path d="M22.172 3c0.53 0 1.039 0.211 1.414 0.586l4.828 4.828c0.375 0.375 0.586 0.884 0.586 1.414v17.172c0 1.105-0.895 2-2 2h-22c-1.105 0-2-0.895-2-2v-22c0-1.105 0.895-2 2-2h17.172zM10 5h-4c-0.552 0-1 0.448-1 1v20c0 0.552 0.448 1 1 1h20c0.552 0 1-0.448 1-1v-15.757c0-0.265-0.105-0.52-0.293-0.707l-3.707-3.707v7.171c0 1.105-0.767 2-1.714 2h-9.571c-0.947 0-1.714-0.895-1.714-2v-8zM21.286 5h-9.571v7c0 0.552 0.448 1 1 1h7.571c0.552 0 1-0.448 1-1v-7zM19 7c0.552 0 1 0.448 1 1v2c0 0.552-0.448 1-1 1s-1-0.448-1-1v-2c0-0.552 0.448-1 1-1z"></path>
</svg>
