<?xml version="1.0" encoding="UTF-8"?>
<svg viewBox="0 0 32 32" version="1.1" xmlns="http://www.w3.org/2000/svg" xmlns:xlink="http://www.w3.org/1999/xlink">
<title>default-integration</title>
<path d="M14 1c2.209 0 4 1.791 4 4v1h6c1.105 0 2 0.895 2 2v6h1c2.209 0 4 1.791 4 4s-1.791 4-4 4h-1v6c0 1.105-0.895 2-2 2h-6v-1c0-2.142-1.684-3.891-3.8-3.995l-0.2-0.005c-2.142 0-3.891 1.684-3.995 3.8l-0.005 0.2v1h-6c-1.105 0-2-0.895-2-2v-6h1c2.142 0 3.891-1.684 3.995-3.8l0.005-0.2c0-2.142-1.684-3.891-3.8-3.995l-0.2-0.005h-1v-6c0-1.105 0.895-2 2-2h6v-1c0-2.209 1.791-4 4-4z"></path>
</svg>
