<?xml version="1.0" encoding="UTF-8"?>
<svg viewBox="0 0 32 32" version="1.1" xmlns="http://www.w3.org/2000/svg" xmlns:xlink="http://www.w3.org/1999/xlink">
<title>gif</title>
<path d="M9.36 18.008c0.464 0 0.897 0.034 1.298 0.103s0.775 0.168 1.121 0.298c0.346 0.13 0.666 0.288 0.96 0.474 0.293 0.185 0.566 0.393 0.82 0.625l0.123 0.112-0.529 0.846c-0.126 0.2-0.305 0.309-0.521 0.309-0.124 0-0.25-0.040-0.382-0.116l-0.293-0.174-0.284-0.177c-0.13-0.074-0.279-0.146-0.45-0.217-0.225-0.094-0.494-0.174-0.805-0.241-0.308-0.066-0.677-0.1-1.106-0.1-0.621 0-1.179 0.101-1.677 0.302-0.496 0.2-0.917 0.485-1.265 0.855s-0.617 0.822-0.805 1.354c-0.189 0.535-0.285 1.138-0.285 1.809 0 0.703 0.099 1.327 0.296 1.872 0.196 0.543 0.471 1 0.825 1.375s0.772 0.659 1.258 0.856c0.487 0.198 1.027 0.297 1.621 0.297 0.302 0 0.579-0.014 0.829-0.043 0.25-0.028 0.485-0.071 0.705-0.127s0.428-0.124 0.622-0.203c0.161-0.066 0.322-0.139 0.484-0.221v-2.206h-1.576c-0.151 0-0.282-0.047-0.382-0.143s-0.154-0.221-0.154-0.361v-0.58c0-0.276 0.224-0.5 0.5-0.5h2.42c0.552 0 1 0.448 1 1v3.6l-0.083 0.162c-0.297 0.214-0.606 0.401-0.928 0.561s-0.667 0.294-1.033 0.401c-0.365 0.107-0.756 0.187-1.171 0.239-0.414 0.052-0.862 0.078-1.345 0.078-0.857 0-1.646-0.148-2.364-0.443s-1.339-0.711-1.859-1.245c-0.52-0.534-0.926-1.174-1.215-1.919s-0.434-1.56-0.434-2.448c0-0.898 0.142-1.72 0.425-2.463 0.284-0.746 0.691-1.387 1.221-1.921s1.169-0.949 1.917-1.242c0.747-0.292 1.581-0.438 2.501-0.438zM16.976 18.136c0.539 0 0.976 0.437 0.976 0.976v9.912c0 0.539-0.437 0.976-0.976 0.976s-0.976-0.437-0.976-0.976v-9.912c0-0.539 0.437-0.976 0.976-0.976zM27.256 18.136c0.459 0 0.832 0.372 0.832 0.832s-0.372 0.832-0.832 0.832h-4.672v3.608h3.872c0.459 0 0.832 0.372 0.832 0.832s-0.372 0.832-0.832 0.832h-3.872v3.948c0 0.541-0.439 0.98-0.98 0.98s-0.98-0.439-0.98-0.98v-9.884c0-0.552 0.448-1 1-1h5.632zM19.249 2c0.484 0 0.952 0.176 1.317 0.495l6.751 5.908c0.434 0.38 0.683 0.928 0.683 1.505v5.092c0 0.552-0.448 1-1 1s-1-0.448-1-1v-4.639c0-0.288-0.124-0.563-0.341-0.753l-6.127-5.361c-0.182-0.16-0.416-0.247-0.659-0.247h-11.873c-0.552 0-1 0.448-1 1v10c0 0.552-0.448 1-1 1s-1-0.448-1-1v-11c0-1.105 0.895-2 2-2h13.249z"></path>
</svg>
