<?xml version="1.0" encoding="UTF-8"?>
<svg viewBox="0 0 32 32" version="1.1" xmlns="http://www.w3.org/2000/svg" xmlns:xlink="http://www.w3.org/1999/xlink">
<title>inbound-fax_border</title>
<path d="M20 4c1.105 0 2 0.895 2 2v17l-5 5h-13c-1.105 0-2-0.895-2-2v-20c0-1.105 0.895-2 2-2h16zM19 6h-14c-0.513 0-0.936 0.386-0.993 0.883l-0.007 0.117v18c0 0.513 0.386 0.936 0.883 0.993l0.117 0.007h11v-3l0.007-0.117c0.053-0.459 0.418-0.823 0.877-0.877l0.117-0.007h3v-15c0-0.552-0.448-1-1-1zM23.793 15.293v0c-0.391 0.391-0.391 1.024 0 1.414l4.586 4.586c0.39 0.39 1.024 0.39 1.414 0s0.39-1.024 0-1.414l-3.707-3.879 3.707-3.879c0.39-0.39 0.39-1.024 0-1.414s-1.024-0.39-1.414 0zM13.333 18h-6.667c-0.368 0-0.667 0.448-0.667 1s0.298 1 0.667 1h6.667c0.368 0 0.667-0.448 0.667-1s-0.298-1-0.667-1zM17 12h-10c-0.552 0-1 0.448-1 1s0.448 1 1 1h10c0.552 0 1-0.448 1-1s-0.448-1-1-1z"></path>
</svg>
