<?xml version="1.0" encoding="UTF-8"?>
<svg viewBox="0 0 32 32" version="1.1" xmlns="http://www.w3.org/2000/svg" xmlns:xlink="http://www.w3.org/1999/xlink">
<title>address</title>
<path d="M30.491 12.295l-13.946-10.171c-0.342-0.165-0.726-0.165-1.067 0l-13.946 10.171c-0.512 0.289-0.683 0.91-0.384 1.406s0.939 0.662 1.452 0.372l1.42-0.992v15.849c0 0.579 0.47 1.034 1.067 1.034h21.821c0.598 0 1.067-0.455 1.067-1.034v-15.849l1.406 0.992c0.171 0.083 0.342 0.124 0.512 0.124 0.384 0 0.726-0.165 0.939-0.537 0.342-0.455 0.128-1.075-0.342-1.364zM12.024 28v-11h7.967v11h-7.967zM25.999 28h-4.001v-11.859c0-0.579-0.47-1.034-1.067-1.034h-9.866c-0.598 0-1.067 0.455-1.067 1.034v11.859h-3.968v-16.119l9.96-7.649 10.009 7.649v16.119z"></path>
</svg>
