<?xml version="1.0" encoding="UTF-8"?>
<svg viewBox="0 0 32 32" version="1.1" xmlns="http://www.w3.org/2000/svg" xmlns:xlink="http://www.w3.org/1999/xlink">
<title>theme</title>
<path d="M25.5 17c-1.381 0-2.5-1.119-2.5-2.5s1.119-2.5 2.5-2.5c1.381 0 2.5 1.119 2.5 2.5s-1.119 2.5-2.5 2.5zM20.5 10c-0.663 0-1.299-0.263-1.768-0.732s-0.732-1.105-0.732-1.768c0-1.381 1.119-2.5 2.5-2.5s2.5 1.119 2.5 2.5c0 1.381-1.119 2.5-2.5 2.5zM9 7.5c0-0.663 0.263-1.299 0.732-1.768s1.105-0.732 1.768-0.732c1.381 0 2.5 1.119 2.5 2.5s-1.119 2.5-2.5 2.5c-1.381 0-2.5-1.119-2.5-2.5zM6.5 17c-1.381 0-2.5-1.119-2.5-2.5s1.119-2.5 2.5-2.5c1.381 0 2.5 1.119 2.5 2.5s-1.119 2.5-2.5 2.5zM16 2c-7.732 0-14 6.268-14 14s6.268 14 14 14c1.289 0 2.333-1.045 2.333-2.333 0-0.607-0.233-1.151-0.607-1.556-0.358-0.42-0.591-0.964-0.591-1.556 0-1.289 1.045-2.333 2.333-2.333h2.753c2.063 0 4.041-0.819 5.5-2.278s2.278-3.437 2.278-5.5c0-6.876-6.269-12.444-14-12.444z"></path>
</svg>
