<?xml version="1.0" encoding="UTF-8"?>
<svg viewBox="0 0 32 32" version="1.1" xmlns="http://www.w3.org/2000/svg" xmlns:xlink="http://www.w3.org/1999/xlink">
<title>event-new</title>
<path d="M28 10v16c0 1.054-0.816 1.918-1.851 1.994l-0.149 0.006h-20c-1.054 0-1.918-0.816-1.995-1.851l-0.006-0.149v-16h24zM19 13h-6l-0.117 0.007c-0.497 0.058-0.883 0.48-0.883 0.993s0.386 0.935 0.883 0.993l0.117 0.007h4.301l-4.175 7.514-0.051 0.105c-0.191 0.463-0.009 1.006 0.439 1.255s1.005 0.117 1.297-0.29l0.063-0.099 5-9 0.049-0.101c0.257-0.61-0.149-1.303-0.805-1.378l-0.118-0.007zM4 6c0-1.054 0.816-1.918 1.851-1.995l0.149-0.006h4v-1c0-0.552 0.448-1 1-1 0.513 0 0.935 0.386 0.993 0.883l0.007 0.117v1h8v-1c0-0.552 0.448-1 1-1 0.513 0 0.936 0.386 0.993 0.883l0.007 0.117v1h4c1.054 0 1.918 0.816 1.994 1.851l0.006 0.149v2h-24v-2z"></path>
</svg>
