<?xml version="1.0" encoding="UTF-8"?>
<svg viewBox="0 0 32 32" version="1.1" xmlns="http://www.w3.org/2000/svg" xmlns:xlink="http://www.w3.org/1999/xlink">
<title>add_new_folder</title>
<path d="M4.545 3c-1.4 0-2.545 1.145-2.545 2.545v15.273c0 1.4 1.145 2.545 2.545 2.545h10.284c-0.060-0.416-0.102-0.84-0.102-1.273 0-4.92 3.989-8.909 8.909-8.909 1.368 0 2.66 0.319 3.818 0.87v-5.961c0-1.4-1.145-2.545-2.545-2.545h-9.128c-0.675 0-1.322-0.268-1.8-0.746l-1.054-1.054c-0.477-0.477-1.125-0.746-1.8-0.746h-6.582zM23.646 15.747c-1.625 0-3.249 0.623-4.492 1.864s-1.869 2.863-1.869 4.489 0.627 3.248 1.869 4.489c2.484 2.484 6.497 2.484 8.981 0s2.484-6.499 0-8.984c-1.241-1.24-2.865-1.86-4.489-1.859zM23.651 18.275c0.703 0.001 1.273 0.57 1.273 1.273v1.273h1.273c0.703 0 1.273 0.57 1.273 1.273s-0.57 1.273-1.273 1.273h-1.273v1.273c0 0.703-0.57 1.273-1.273 1.273s-1.273-0.57-1.273-1.273v-1.273h-1.273c-0.703 0-1.273-0.57-1.273-1.273s0.57-1.273 1.273-1.273h1.273v-1.273c0-0.703 0.57-1.273 1.273-1.273z"></path>
</svg>
