<?xml version="1.0" encoding="UTF-8"?>
<svg viewBox="0 0 32 32" version="1.1" xmlns="http://www.w3.org/2000/svg" xmlns:xlink="http://www.w3.org/1999/xlink">
<title>incall</title>
<path d="M9.791 2.353c0.678 0.318 1.204 0.818 1.577 1.5 0.366 0.728 0.785 1.483 1.257 2.265 0.473 0.784 1.035 1.646 1.696 2.601 0.414 0.626 0.579 1.307 0.486 2.017-0.091 0.699-0.403 1.322-0.977 1.9-0.164 0.139-0.333 0.269-0.508 0.389-0.156 0.107-0.329 0.212-0.519 0.316-0.067 0.053-0.139 0.099-0.218 0.137l-0.171 0.083-0.178 0.098-0.045 0.022c-0.053 0.022-0.101 0.045-0.144 0.067 0.016 0.079 0.043 0.175 0.083 0.29l0.098 0.258c0.124 0.331 0.324 0.717 0.602 1.154 0.285 0.448 0.649 0.938 1.090 1.465 0.477 0.564 0.921 1.028 1.328 1.391 0.395 0.352 0.753 0.616 1.068 0.791 0.121 0.067 0.226 0.121 0.312 0.159l0.218-0.239 0.080-0.079 0.085-0.107 0.254-0.263 0.222-0.218c0.034-0.033 0.067-0.063 0.099-0.092 0.171-0.156 0.362-0.306 0.617-0.477 0.658-0.388 1.391-0.552 2.169-0.483 0.803 0.071 1.484 0.39 1.965 0.905 0.599 0.566 1.221 1.131 1.865 1.697l0.459 0.399 0.947 0.804c0.346 0.29 0.722 0.603 1.129 0.938 0.586 0.482 0.976 1.073 1.157 1.757 0.164 0.617 0.135 1.216-0.074 1.743l-0.087 0.194c-0.193 0.479-0.565 1.044-1.117 1.713-0.476 0.576-0.912 1.028-1.295 1.343l-0.161 0.127c-0.44 0.363-0.947 0.637-1.516 0.818-0.556 0.177-1.167 0.264-1.828 0.264-1.073 0-2.192-0.21-3.356-0.625-1.135-0.405-2.29-0.984-3.466-1.737-1.020-0.653-2.037-1.431-3.044-2.327l-0.431-0.391c-1.168-1.047-2.316-2.234-3.448-3.565-1.492-1.787-2.714-3.551-3.664-5.291-0.955-1.731-1.628-3.354-2.018-4.87-0.397-1.544-0.493-2.938-0.281-4.173 0.204-1.306 0.769-2.366 1.703-3.149 0.433-0.361 1.041-0.728 1.828-1.11 0.803-0.39 1.468-0.63 2.018-0.716 0.735-0.115 1.455-0.010 2.133 0.308zM29.707 2.293c0.391 0.391 0.391 1.024 0 1.414l-7.072 7.070 5.586 0.001c0.552 0 1 0.448 1 1s-0.448 1-1 1h-8c-0.552 0-1-0.448-1-1v-8c0-0.552 0.448-1 1-1s1 0.448 1 1l-0.001 5.585 7.072-7.070c0.391-0.391 1.024-0.391 1.414 0z"></path>
</svg>
