<?xml version="1.0" encoding="UTF-8"?>
<svg viewBox="0 0 32 32" version="1.1" xmlns="http://www.w3.org/2000/svg" xmlns:xlink="http://www.w3.org/1999/xlink">
<title>default-avatar</title>
<path d="M7.333 24.867c0.040 0 0.080-0.041 0.113-0.041 1.775-0.809 3.601-1.494 5.467-2.049 0.113 0 0.113 0 0.113-0.621 0.008-0.517-0.068-1.032-0.227-1.523-0.113-0.512-0.38-1.25-0.5-2.049-0.448-0.601-0.748-1.304-0.873-2.049-0.191-0.569-0.191-1.187 0-1.755v-0.061c0-0.232-0.12-1.407-0.233-2.418-0.125-1.132 0.192-2.268 0.88-3.162 0.834-1.103 2.118-1.751 3.48-1.755h1.113c1.361 0.001 2.644 0.65 3.473 1.755 0.688 0.894 1.005 2.030 0.88 3.162-0.081 0.803-0.119 1.61-0.113 2.418v0.116c0.183 0.57 0.183 1.185 0 1.755-0.153 0.751-0.48 1.454-0.953 2.049-0.010 0.713-0.181 1.415-0.5 2.049-0.18 0.492-0.308 1.003-0.38 1.523 0 0.621 0 0.621 0.113 0.621 1.884 0.57 3.734 1.255 5.54 2.049-4.947 4.554-12.453 4.548-17.393-0.014zM26.127 24.793v-0.040c0.121-0.147 0.268-0.3 0.389-0.453 0-0.040 0-0.040 0-0.080 0.121-0.147 0.235-0.3 0.349-0.453 0.040-0.040 0.040-0.080 0.074-0.080 0.121-0.147 0.194-0.3 0.308-0.453 0.040-0.040 0.040-0.080 0.080-0.113 0.074-0.153 0.188-0.307 0.268-0.46 0.040-0.040 0.040-0.073 0.074-0.113l0.235-0.46c0.040-0.033 0.040-0.113 0.074-0.153 0.083-0.143 0.148-0.295 0.194-0.453 0.040-0.080 0.040-0.113 0.080-0.193s0.114-0.3 0.188-0.42c0.074-0.12 0.040-0.113 0.080-0.187s0.114-0.267 0.154-0.42c0.040-0.153 0.034-0.153 0.074-0.227s0.080-0.267 0.114-0.42c0.034-0.153 0.040-0.153 0.080-0.227l0.114-0.42c0-0.080 0.040-0.153 0.040-0.233s0.040-0.267 0.074-0.413c0.034-0.147 0.040-0.153 0.040-0.267s0.040-0.307 0.080-0.42c0.040-0.113 0-0.153 0-0.267s0.040-0.307 0.040-0.493v-0.92c0.043-2.418-0.583-4.802-1.81-6.891-0.22-0.369-0.462-0.725-0.724-1.066-0.268-0.34-0.536-0.666-0.804-0.993-0.29-0.322-0.599-0.627-0.925-0.913-0.158-0.148-0.324-0.288-0.496-0.42-0.835-0.683-1.754-1.259-2.735-1.713-0.389-0.187-0.811-0.34-1.193-0.493-0.415-0.15-0.838-0.277-1.267-0.38-1.065-0.283-2.162-0.424-3.264-0.42-7.412-0.004-13.428 5.96-13.446 13.329v0.953c0 0.153 0.040 0.307 0.040 0.46s0.034 0.187 0.034 0.26c0 0.073 0.040 0.267 0.040 0.42s0.040 0.193 0.040 0.267c0 0.073 0.040 0.267 0.074 0.42s0.040 0.193 0.080 0.267c0.040 0.073 0.074 0.267 0.114 0.38s0.040 0.193 0.080 0.267c0.040 0.073 0.074 0.267 0.114 0.38 0.032 0.087 0.057 0.176 0.074 0.267 0.037 0.132 0.088 0.259 0.154 0.38l0.121 0.233c0.034 0.113 0.114 0.267 0.147 0.38l0.121 0.227c0.074 0.113 0.114 0.267 0.188 0.38l0.121 0.233c0.079 0.118 0.142 0.246 0.188 0.38 0.040 0.073 0.080 0.113 0.121 0.187s0.154 0.267 0.228 0.38c0.074 0.113 0.074 0.12 0.114 0.193s0.194 0.267 0.268 0.38c0.074 0.113 0.080 0.113 0.121 0.153s0.188 0.267 0.302 0.38l0.121 0.113c0.114 0.153 0.228 0.267 0.342 0.42 0.040 0.040 0.080 0.080 0.080 0.113 0.114 0.153 0.268 0.267 0.382 0.42l0.074 0.080 0.463 0.453c5.377 4.898 13.7 4.646 18.768-0.566l0.349-0.46z"></path>
</svg>
