<?xml version="1.0" encoding="UTF-8"?>
<svg viewBox="0 0 32 32" version="1.1" xmlns="http://www.w3.org/2000/svg" xmlns:xlink="http://www.w3.org/1999/xlink">
<title>Company-setup_border</title>
<path d="M18.999 2.012c1.105 0 2 0.895 2 2v0l-0.001 23.988h7.005l0.001-15.988c0-0.513-0.386-0.935-0.883-0.993l-0.117-0.007h-5.007v-2h6.007c1.105 0 2 0.895 2 2v0l-0.001 16.988 0.114 0.007c0.497 0.058 0.883 0.48 0.883 0.993 0 0.551-0.446 0.998-0.997 1l0.001 0.012h-8.007l-0-0.012h-0.998l0.001 0.012-18.999-0.012c-0.552 0-1-0.448-1-1s0.448-1 1-1l0.006-0 0.001-23.988c0-1.054 0.816-1.918 1.851-1.994l0.149-0.006zM17.999 4.013h-13.001c-0.552 0-1 0.448-1 1v0l-0 22.987h15.001l0-22.987c0-0.513-0.386-0.936-0.883-0.993l-0.117-0.007zM26.002 21.001c0.551 0 0.998 0.448 0.998 1 0 0.513-0.385 0.936-0.881 0.993l-0.116 0.007h-2.005c-0.551 0-0.998-0.448-0.998-1 0-0.513 0.385-0.936 0.881-0.993l0.116-0.007h2.005zM14.985 21c0.552 0 1 0.448 1 1 0 0.513-0.386 0.936-0.883 0.993l-0.117 0.007h-6.973c-0.552 0-1-0.448-1-1 0-0.513 0.386-0.936 0.883-0.993l0.117-0.007h6.973zM26.002 15.001c0.551 0 0.998 0.448 0.998 1 0 0.513-0.385 0.936-0.881 0.993l-0.116 0.007h-2.005c-0.551 0-0.998-0.448-0.998-1 0-0.513 0.385-0.935 0.881-0.993l0.116-0.007h2.005zM14.985 15c0.552 0 1 0.448 1 1 0 0.513-0.386 0.936-0.883 0.993l-0.117 0.007h-6.973c-0.552 0-1-0.448-1-1 0-0.513 0.386-0.935 0.883-0.993l0.117-0.007h6.973zM14.985 9.012c0.552 0 1 0.448 1 1 0 0.513-0.386 0.935-0.883 0.993l-0.117 0.007h-6.973c-0.552 0-1-0.448-1-1 0-0.513 0.386-0.935 0.883-0.993l0.117-0.007h6.973z"></path>
</svg>
