<?xml version="1.0" encoding="UTF-8"?>
<svg viewBox="0 0 32 32" version="1.1" xmlns="http://www.w3.org/2000/svg" xmlns:xlink="http://www.w3.org/1999/xlink">
<title>resend-fax</title>
<path d="M6.258 4.144c0.223-0.069 0.448 0.1 0.445 0.335v0l-0.084 5.619c-0.003 0.282-0.323 0.442-0.548 0.276v0l-1.785-1.3c-1.844 3.856-2.155 8.040-0.407 11.695 1.895 3.962 5.623 6.577 10.568 6.718v0c0.666 0.019 1.156 0.596 1.114 1.31-0.044 0.786-0.706 1.434-1.441 1.412-5.832-0.166-10.264-3.245-12.55-8.034-2.167-4.528-2.223-9.621 0.667-14.592v0l-1.595-1.159c-0.232-0.168-0.169-0.529 0.103-0.61v0zM17.193 0c4.967 0 9.624 2.747 12.252 6.831 2.772 4.306 2.97 9.477 0.592 14.67-0.037 0.081-0.084 0.156-0.134 0.226v0l1.913 1.021c0.253 0.135 0.244 0.502-0.020 0.624v0l-5.231 2.411c-0.213 0.097-0.461-0.041-0.489-0.273v0l-0.69-5.575c-0.035-0.279 0.26-0.479 0.507-0.348v0l1.835 0.98c0.012-0.032 0.019-0.063 0.031-0.091 2.017-4.404 1.879-8.736-0.414-12.3-2.183-3.399-6.249-5.549-10.22-5.688-0.641-0.021-1.165-0.519-1.206-1.162-0.044-0.727 0.542-1.328 1.272-1.328z"></path>
</svg>
