<?xml version="1.0" encoding="UTF-8"?>
<svg viewBox="0 0 32 32" version="1.1" xmlns="http://www.w3.org/2000/svg" xmlns:xlink="http://www.w3.org/1999/xlink">
<title>deleted_file</title>
<path fill="#e8e9ed" style="fill: var(--color16, #e8e9ed)" d="M3.556 0h24.889c1.964 0 3.556 1.592 3.556 3.556v24.889c0 1.964-1.592 3.556-3.556 3.556h-24.889c-1.964 0-3.556-1.592-3.556-3.556v-24.889c0-1.964 1.592-3.556 3.556-3.556z"></path>
<path fill="#81899d" style="fill: var(--color17, #81899d)" d="M17.778 8c0.982 0 1.778 0.796 1.778 1.778v0.889h3.556c0.491 0 0.889 0.398 0.889 0.889s-0.398 0.889-0.889 0.889h-0.889v9.778c0 0.982-0.796 1.778-1.778 1.778h-8.889c-0.982 0-1.778-0.796-1.778-1.778v-9.778h-0.889c-0.491 0-0.889-0.398-0.889-0.889s0.398-0.889 0.889-0.889h3.556v-0.889c0-0.982 0.796-1.778 1.778-1.778h3.556zM17.778 14.222c-0.456 0-0.832 0.343-0.883 0.785l-0.006 0.104v5.333c0 0.491 0.398 0.889 0.889 0.889 0.456 0 0.832-0.343 0.883-0.785l0.006-0.104v-5.333c0-0.491-0.398-0.889-0.889-0.889zM14.222 14.222c-0.456 0-0.832 0.343-0.883 0.785l-0.006 0.104v5.333c0 0.491 0.398 0.889 0.889 0.889 0.456 0 0.832-0.343 0.883-0.785l0.006-0.104v-5.333c0-0.491-0.398-0.889-0.889-0.889zM17.778 9.778h-3.556v0.889h3.556v-0.889z"></path>
</svg>
