<?xml version="1.0" encoding="UTF-8"?>
<svg viewBox="0 0 32 32" version="1.1" xmlns="http://www.w3.org/2000/svg" xmlns:xlink="http://www.w3.org/1999/xlink">
<title>default-music-D</title>
<path fill="#222b42" style="fill: var(--color14, #222b42)" d="M3.556 0h24.889c1.964 0 3.556 1.592 3.556 3.556v24.889c0 1.964-1.592 3.556-3.556 3.556h-24.889c-1.964 0-3.556-1.592-3.556-3.556v-24.889c0-1.964 1.592-3.556 3.556-3.556z"></path>
<path fill="#356afd" style="fill: var(--color31, #356afd)" d="M22.222 7.111c1.473 0 2.667 1.194 2.667 2.667v12.444c0 1.473-1.194 2.667-2.667 2.667h-12.444c-1.473 0-2.667-1.194-2.667-2.667v-12.444c0-1.473 1.194-2.667 2.667-2.667h12.444z"></path>
<path fill="#f1f1f1" style="fill: var(--color20, #f1f1f1)" d="M20.793 9.787l-8 1.778c-0.204 0.045-0.348 0.226-0.348 0.434v7.032c-0.372-0.226-0.831-0.364-1.333-0.364-1.225 0-2.222 0.797-2.222 1.778s0.997 1.778 2.222 1.778c1.225 0 2.222-0.797 2.222-1.778v-5.422l7.111-1.581v3.811c-0.372-0.226-0.831-0.364-1.333-0.364-1.226 0-2.222 0.797-2.222 1.778s0.996 1.778 2.222 1.778c1.226 0 2.222-0.797 2.222-1.778v-8.445c0-0.135-0.060-0.262-0.166-0.347-0.104-0.084-0.241-0.114-0.374-0.087l0 0z"></path>
</svg>
