<?xml version="1.0" encoding="UTF-8"?>
<svg viewBox="0 0 32 32" version="1.1" xmlns="http://www.w3.org/2000/svg" xmlns:xlink="http://www.w3.org/1999/xlink">
<title>sms</title>
<path d="M16 2c-8.301 0-15 5.599-15 12.804l0.005 0.338c0.107 3.49 1.863 6.844 4.767 9.223l0.315 0.25-0.014 0.043c-0.204 0.567-0.578 1.326-1.199 2.409l-0.869 1.408c-0.411 0.666 0.069 1.525 0.851 1.525h1.77l0.357-0.006c2.476-0.080 4.526-0.987 6.093-2.312l0.051-0.045 0.494 0.077c0.81 0.114 1.594 0.173 2.379 0.173 8.244 0 15-5.833 15-13.083 0-7.231-6.682-12.804-15-12.804z"></path>
</svg>
