<?xml version="1.0" encoding="UTF-8"?>
<svg viewBox="0 0 32 32" version="1.1" xmlns="http://www.w3.org/2000/svg" xmlns:xlink="http://www.w3.org/1999/xlink">
<title>deletenumber</title>
<path d="M28 6c1.105 0 2 0.895 2 2v16c0 1.105-0.895 2-2 2h-17.109c-0.567 0-1.107-0.241-1.487-0.662l-7.2-8c-0.685-0.761-0.685-1.915 0-2.676l7.2-8c0.379-0.421 0.92-0.662 1.487-0.662h17.109zM27 8h-15.664c-0.284 0-0.554 0.12-0.743 0.331l-6.3 7c-0.342 0.38-0.342 0.958 0 1.338l6.3 7c0.19 0.211 0.46 0.331 0.743 0.331h15.664c0.552 0 1-0.448 1-1v-14c0-0.552-0.448-1-1-1zM16.464 11.050l3.536 3.534 3.536-3.534c0.391-0.391 1.024-0.391 1.414 0s0.391 1.024 0 1.414l-3.536 3.534 3.536 3.537c0.391 0.391 0.391 1.024 0 1.414s-1.024 0.391-1.414 0l-3.536-3.537-3.536 3.537c-0.391 0.391-1.024 0.391-1.414 0s-0.391-1.024 0-1.414l3.536-3.537-3.536-3.534c-0.391-0.391-0.391-1.024 0-1.414s1.024-0.391 1.414 0z"></path>
</svg>
