<?xml version="1.0" encoding="UTF-8"?>
<svg viewBox="0 0 32 32" version="1.1" xmlns="http://www.w3.org/2000/svg" xmlns:xlink="http://www.w3.org/1999/xlink">
<title>6</title>
<path fill="#000" style="fill: var(--color18, #000)" d="M17.919 7l-3.087 3.907c0.211-0.145 0.445-0.258 0.702-0.338s0.534-0.121 0.832-0.121c0.356 0 0.694 0.059 1.012 0.177s0.598 0.29 0.838 0.516c0.24 0.226 0.431 0.503 0.571 0.832s0.211 0.705 0.211 1.127c0 0.41-0.075 0.791-0.224 1.143s-0.357 0.658-0.624 0.919c-0.267 0.261-0.589 0.466-0.966 0.615s-0.791 0.224-1.242 0.224c-0.447 0-0.852-0.071-1.214-0.214s-0.672-0.346-0.929-0.609c-0.257-0.263-0.454-0.582-0.593-0.957s-0.208-0.794-0.208-1.258c0-0.389 0.087-0.803 0.261-1.242s0.449-0.911 0.826-1.416l2.255-3.037c0.058-0.075 0.139-0.138 0.242-0.189s0.222-0.078 0.354-0.078h0.981zM16.006 11.292c-0.298 0-0.567 0.051-0.807 0.152s-0.444 0.238-0.612 0.41c-0.168 0.172-0.296 0.371-0.385 0.596s-0.134 0.461-0.134 0.705c0 0.286 0.041 0.547 0.124 0.783s0.204 0.439 0.363 0.609c0.159 0.17 0.354 0.301 0.584 0.394s0.492 0.14 0.786 0.14c0.298 0 0.567-0.048 0.807-0.143s0.446-0.228 0.618-0.398c0.172-0.17 0.304-0.371 0.398-0.603s0.14-0.484 0.14-0.758c0-0.29-0.046-0.552-0.137-0.786s-0.219-0.433-0.385-0.596c-0.166-0.164-0.364-0.289-0.596-0.376s-0.487-0.13-0.764-0.13z"></path>
<path fill="#9e9e9e" style="fill: var(--color83, #9e9e9e)" d="M19.94 20.378c0.263 0 0.504 0.045 0.721 0.135s0.404 0.216 0.559 0.379c0.155 0.163 0.275 0.356 0.36 0.58s0.128 0.47 0.128 0.739c0 0.268-0.043 0.515-0.128 0.739s-0.205 0.417-0.36 0.579c-0.155 0.162-0.341 0.287-0.559 0.376s-0.458 0.134-0.721 0.134c-0.263 0-0.503-0.045-0.72-0.134s-0.402-0.215-0.558-0.376c-0.155-0.162-0.275-0.355-0.36-0.579s-0.128-0.47-0.128-0.739c0-0.268 0.043-0.515 0.128-0.739s0.205-0.418 0.36-0.58c0.155-0.163 0.341-0.289 0.558-0.379s0.457-0.135 0.72-0.135zM10.357 20.418c0.043 0 0.077 0.004 0.1 0.012s0.046 0.032 0.068 0.070l1.27 2.267 0.080 0.198 0.026-0.068 0.027-0.065c0.018-0.043 0.039-0.085 0.063-0.129l1.213-2.203c0.022-0.038 0.044-0.062 0.068-0.070s0.057-0.012 0.1-0.012h0.357v3.582h-0.425l0.001-2.687 0.009-0.181-1.227 2.24c-0.042 0.075-0.1 0.113-0.175 0.113h-0.070c-0.075 0-0.133-0.038-0.175-0.113l-1.255-2.247 0.011 0.128 0.004 0.115v2.633h-0.425v-3.582h0.357zM14.85 20.418c0.043 0 0.075 0.005 0.096 0.016s0.045 0.033 0.071 0.066l2.075 2.7-0.010-0.126-0.003-0.119v-2.538h0.425v3.582h-0.245c-0.038 0-0.070-0.007-0.096-0.020s-0.051-0.036-0.076-0.067l-2.072-2.697 0.010 0.233v2.553h-0.425v-3.582h0.25zM19.94 20.797c-0.192 0-0.366 0.032-0.523 0.098s-0.29 0.158-0.401 0.279c-0.111 0.121-0.196 0.269-0.256 0.444s-0.090 0.372-0.090 0.593c0 0.22 0.030 0.417 0.090 0.591s0.145 0.322 0.256 0.442c0.111 0.121 0.245 0.213 0.401 0.277s0.331 0.096 0.523 0.096c0.193 0 0.368-0.032 0.525-0.096s0.29-0.157 0.4-0.277c0.11-0.121 0.195-0.268 0.255-0.442s0.090-0.371 0.090-0.591c0-0.22-0.030-0.418-0.090-0.593s-0.145-0.323-0.255-0.444c-0.11-0.121-0.243-0.214-0.4-0.279s-0.332-0.098-0.525-0.098z"></path>
</svg>
