<?xml version="1.0" encoding="UTF-8"?>
<svg viewBox="0 0 32 32" version="1.1" xmlns="http://www.w3.org/2000/svg" xmlns:xlink="http://www.w3.org/1999/xlink">
<title>good-connection</title>
<path d="M27 4c1.105 0 2 0.895 2 2v20c0 1.105-0.895 2-2 2h-2c-1.105 0-2-0.895-2-2v-20c0-1.105 0.895-2 2-2h2zM17 14c1.105 0 2 0.895 2 2v10c0 1.105-0.895 2-2 2h-2c-1.105 0-2-0.895-2-2v-10c0-1.105 0.895-2 2-2h2zM7 20c1.105 0 2 0.895 2 2v4c0 1.105-0.895 2-2 2h-2c-1.105 0-2-0.895-2-2v-4c0-1.105 0.895-2 2-2h2z"></path>
</svg>
