<?xml version="1.0" encoding="UTF-8"?>
<svg viewBox="0 0 32 32" version="1.1" xmlns="http://www.w3.org/2000/svg" xmlns:xlink="http://www.w3.org/1999/xlink">
<title>sms_invite_border</title>
<path d="M16 2c8.318 0 15 5.572 15 12.804 0 1.206-0.187 2.373-0.537 3.481-0.462-0.632-1.015-1.194-1.639-1.666 0.115-0.59 0.175-1.197 0.175-1.814 0-6.038-5.715-10.804-13-10.804-7.268 0-13 4.791-13 10.804 0 3.277 1.791 6.49 4.802 8.591 0.32 0.223 0.481 0.612 0.412 0.995-0.13 0.73-0.467 1.583-1.141 2.836l-0.15 0.275-0.281 0.5 0.31-0.006c1.937-0.071 3.54-0.77 4.771-1.789l0.213-0.183 0.195-0.179c0.233-0.222 0.56-0.318 0.876-0.257 1.051 0.2 2.024 0.301 2.991 0.301 0.178 0 0.356-0.003 0.533-0.009 0.269 0.697 0.633 1.347 1.076 1.934-0.527 0.050-1.065 0.075-1.608 0.075-0.628 0-1.256-0.037-1.896-0.111l-0.483-0.062-0.494-0.077-0.051 0.045c-1.489 1.259-3.413 2.141-5.725 2.294l-0.368 0.018-0.357 0.006h-1.77c-0.744 0-1.213-0.775-0.906-1.424l0.055-0.101 0.869-1.408 0.29-0.515 0.251-0.465 0.214-0.418 0.18-0.375 0.147-0.336c0.022-0.053 0.043-0.104 0.062-0.154l0.069-0.188-0.315-0.25c-2.808-2.299-4.542-5.511-4.751-8.874l-0.016-0.348-0.005-0.338c0-7.205 6.699-12.804 15-12.804zM24 17c0.552 0 1 0.448 1 1v4h4c0.552 0 1 0.448 1 1s-0.448 1-1 1h-4.001l0.001 4c0 0.552-0.448 1-1 1s-1-0.448-1-1l-0.001-4h-3.999c-0.552 0-1-0.448-1-1s0.448-1 1-1h4v-4c0-0.552 0.448-1 1-1z"></path>
</svg>
