<?xml version="1.0" encoding="UTF-8"?>
<svg viewBox="0 0 32 32" version="1.1" xmlns="http://www.w3.org/2000/svg" xmlns:xlink="http://www.w3.org/1999/xlink">
<title>microsoft-outlook-2019</title>
<path fill="#1a237e" style="fill: var(--color60, #1a237e)" d="M30.005 15.68l-5.116-2.98v8.281h5.396v-4.813c0-0.201-0.107-0.387-0.281-0.489l-0-0z"></path>
<path fill="#0c4999" style="fill: var(--color61, #0c4999)" d="M23.085 5.029h6.461v-0.791c0-0.684-0.554-1.237-1.236-1.237h-16.834c-0.683 0-1.237 0.554-1.237 1.237v0.791h12.846z"></path>
<path fill="#0f73d9" style="fill: var(--color62, #0f73d9)" d="M23.085 22.659h5.224c0.683 0 1.237-0.554 1.237-1.237v-4.876h-6.461v6.114z"></path>
<path fill="#0f439d" style="fill: var(--color63, #0f439d)" d="M10.24 16.546v4.876c0 0.683 0.554 1.237 1.237 1.237h5.195v-6.113l-6.432-0.001z"></path>
<path fill="#2ecdfd" style="fill: var(--color64, #2ecdfd)" d="M23.085 5.029h6.461v5.734h-6.461z"></path>
<path fill="#1c5fb0" style="fill: var(--color65, #1c5fb0)" d="M10.24 5.029h6.432v5.734h-6.432z"></path>
<path fill="#1467c7" style="fill: var(--color66, #1467c7)" d="M16.671 16.546h6.414v6.113h-6.414z"></path>
<path fill="#1690d5" style="fill: var(--color67, #1690d5)" d="M16.671 5.029h6.414v5.734h-6.414z"></path>
<path fill="#1bb4ff" style="fill: var(--color68, #1bb4ff)" d="M23.085 10.762h6.461v5.783h-6.461z"></path>
<path fill="#074daf" style="fill: var(--color69, #074daf)" d="M10.24 10.762h6.432v5.783h-6.432z"></path>
<path fill="#2076d4" style="fill: var(--color70, #2076d4)" d="M16.671 10.762h6.414v5.783h-6.414z"></path>
<path fill="#2ed0ff" style="fill: var(--color71, #2ed0ff)" d="M9.886 28.714c0.331 0 19.193 0 19.193 0 0.666 0 1.206-0.54 1.206-1.206v-11.338c0 0-0.021 0.47-1.251 1.155-0.929 0.517-19.646 11.079-19.646 11.079s0.167 0.31 0.498 0.31h0z"></path>
<path fill="#139fe2" style="fill: var(--color72, #139fe2)" d="M29.056 28.712c-0.115 0-18.993 0.002-18.993 0.002-0.666 0-1.206-0.54-1.206-1.206v-10.889l20.974 11.83c-0.175 0.14-0.397 0.263-0.774 0.263v0z"></path>
<path fill="#00488d" style="fill: var(--color73, #00488d)" d="M14.799 23h-11.884c-0.663 0-1.201-0.538-1.201-1.201v-11.884c0-0.663 0.538-1.201 1.201-1.201h11.884c0.663 0 1.201 0.538 1.201 1.201v11.884c0 0.663-0.538 1.201-1.201 1.201z"></path>
<path fill="#fff" style="fill: var(--color25, #fff)" d="M8.796 12.096c-2.236 0-3.584 1.709-3.584 3.816s1.342 3.816 3.584 3.816c2.242 0 3.584-1.709 3.584-3.816s-1.347-3.816-3.584-3.816v0zM8.796 18.44c-1.269 0-2.027-1.131-2.027-2.528s0.762-2.528 2.027-2.528c1.265 0 2.028 1.132 2.028 2.528s-0.76 2.528-2.028 2.528z"></path>
</svg>
