<?xml version="1.0" encoding="UTF-8"?>
<svg viewBox="0 0 32 32" version="1.1" xmlns="http://www.w3.org/2000/svg" xmlns:xlink="http://www.w3.org/1999/xlink">
<title>contacts_border</title>
<path d="M16 2c7.732 0 14 6.268 14 14s-6.268 14-14 14c-7.732 0-14-6.268-14-14s6.268-14 14-14zM16 22c-3.209 0-6.025 1.306-7.618 3.272l0.082 0.067c2.060 1.665 4.682 2.662 7.537 2.662s5.477-0.997 7.537-2.662l0.081-0.066c-1.594-1.966-4.41-3.272-7.618-3.272zM24.199 24.763l-0.251 0.229c0.085-0.075 0.169-0.151 0.251-0.229zM16 4c-6.627 0-12 5.373-12 12 0 3.011 1.109 5.763 2.941 7.87 1.999-2.364 5.344-3.87 9.059-3.87s7.059 1.506 9.059 3.868c1.832-2.106 2.941-4.858 2.941-7.868 0-6.627-5.373-12-12-12zM16 6c3.314 0 6 2.686 6 6s-2.686 6-6 6c-3.314 0-6-2.686-6-6s2.686-6 6-6zM16 8c-2.209 0-4 1.791-4 4s1.791 4 4 4c2.209 0 4-1.791 4-4s-1.791-4-4-4z"></path>
</svg>
