<?xml version="1.0" encoding="UTF-8"?>
<svg viewBox="0 0 32 32" version="1.1" xmlns="http://www.w3.org/2000/svg" xmlns:xlink="http://www.w3.org/1999/xlink">
<title>5</title>
<path fill="#000" style="fill: var(--color18, #000)" d="M18.711 7.484c0 0.157-0.053 0.287-0.158 0.388s-0.282 0.152-0.532 0.152h-2.954l-0.433 2.335c0.49-0.099 0.943-0.149 1.359-0.149 0.49 0 0.922 0.068 1.297 0.205s0.688 0.325 0.942 0.565c0.254 0.24 0.445 0.524 0.574 0.851s0.194 0.683 0.194 1.068c0 0.472-0.088 0.899-0.263 1.28s-0.415 0.707-0.719 0.978c-0.304 0.271-0.662 0.479-1.073 0.624s-0.856 0.217-1.333 0.217c-0.276 0-0.54-0.026-0.794-0.078s-0.49-0.121-0.709-0.208c-0.219-0.087-0.422-0.186-0.611-0.298s-0.354-0.23-0.499-0.354l0.354-0.472c0.079-0.108 0.184-0.162 0.315-0.162 0.083 0 0.181 0.032 0.292 0.096s0.246 0.136 0.404 0.214c0.158 0.079 0.342 0.15 0.555 0.214s0.465 0.096 0.758 0.096c0.328 0 0.624-0.050 0.886-0.149s0.487-0.241 0.673-0.425c0.186-0.184 0.329-0.405 0.43-0.662s0.151-0.544 0.151-0.863c0-0.277-0.043-0.528-0.128-0.752s-0.214-0.414-0.387-0.571c-0.173-0.157-0.388-0.28-0.647-0.366s-0.56-0.13-0.906-0.13c-0.236 0-0.481 0.019-0.735 0.056s-0.516 0.097-0.788 0.18l-0.735-0.205 0.761-4.162h4.457v0.484z"></path>
<path fill="#9e9e9e" style="fill: var(--color83, #9e9e9e)" d="M13.633 22.762c0 0.2-0.025 0.379-0.074 0.538s-0.122 0.292-0.217 0.401c-0.096 0.109-0.214 0.193-0.354 0.251s-0.301 0.087-0.482 0.087c-0.162 0-0.33-0.023-0.505-0.070l0.027-0.285c0.003-0.028 0.014-0.051 0.031-0.069s0.044-0.026 0.079-0.026c0.020 0 0.044 0.003 0.073 0.010l0.047 0.012c0.050 0.015 0.117 0.023 0.2 0.023 0.11 0 0.208-0.017 0.294-0.050s0.158-0.085 0.217-0.155c0.059-0.070 0.104-0.16 0.135-0.269s0.046-0.239 0.046-0.389v-2.355h0.482v2.345zM15.037 21.988h0.182c0.063 0 0.114-0.008 0.151-0.024s0.073-0.043 0.106-0.081l1.193-1.35c0.037-0.042 0.072-0.071 0.106-0.089s0.078-0.026 0.131-0.026h0.413l-1.365 1.543c-0.035 0.038-0.068 0.071-0.099 0.098s-0.064 0.048-0.099 0.065c0.047 0.015 0.088 0.038 0.123 0.067s0.072 0.067 0.11 0.113l1.425 1.698h-0.42c-0.032 0-0.058-0.003-0.080-0.008s-0.040-0.012-0.056-0.020l-0.023-0.014-0.061-0.061-1.238-1.422-0.051-0.051c-0.016-0.014-0.034-0.026-0.055-0.036s-0.045-0.017-0.072-0.021l-0.046-0.005-0.275-0.002v1.64h-0.482v-3.582h0.482v1.57zM18.395 23.593h1.55v0.407h-2.035v-3.582h0.485v3.175z"></path>
</svg>
