<?xml version="1.0" encoding="UTF-8"?>
<svg viewBox="0 0 32 32" version="1.1" xmlns="http://www.w3.org/2000/svg" xmlns:xlink="http://www.w3.org/1999/xlink">
<title>box</title>
<path d="M21.826 10.318c-0.246-0.55-0.492-1.1-0.738-1.65-1.25-2.192-3.377-3.59-6.918-3.339-0.736 0.113-1.204 0.268-1.788 0.55-1.657 0.766-3.495 2.398-3.809 4.479-0.661 0.21-1.321 0.419-1.982 0.629-1.228 0.578-2.535 1.542-3.264 2.632-0.584 0.873-1.063 1.861-1.399 2.985-0.519 1.739 0.010 3.767 0.505 5.029 1.011 2.579 3.214 4.354 6.218 4.911 0.894 0.026 1.788 0.052 2.682 0.078h4.741c2.567 0 5.827 0.355 8.006-0.235 2.808-0.761 4.999-2.79 5.83-5.54 1.744-5.775-2.875-10.593-8.084-10.529v0l-0-0zM16.756 23.772c-1.532 0-2.845-0.901-3.482-2.201-0.638 1.3-1.95 2.201-3.482 2.201-2.154 0-3.9-1.765-3.9-3.943 0-0.016 0-0.032 0-0.048 0-0.007 0-0.014 0-0.022v-6.477c0-0.466 0.374-0.845 0.835-0.845s0.836 0.379 0.836 0.845v3.312c0.632-0.445 1.4-0.706 2.229-0.706 1.532 0 2.844 0.901 3.482 2.2 0.638-1.299 1.95-2.2 3.482-2.2 2.153 0 3.899 1.765 3.899 3.942s-1.746 3.943-3.899 3.943v0zM26.058 22.559c0.278 0.372 0.205 0.903-0.163 1.183s-0.893 0.208-1.17-0.165l-1.701-2.276-1.701 2.276c-0.278 0.373-0.802 0.446-1.17 0.165s-0.442-0.811-0.164-1.183l1.987-2.658-1.987-2.659c-0.278-0.372-0.205-0.902 0.164-1.183s0.892-0.207 1.17 0.165l1.701 2.276 1.701-2.276c0.277-0.372 0.801-0.446 1.17-0.165s0.441 0.811 0.163 1.183l-1.987 2.659 1.987 2.658zM16.756 17.577c1.231 0 2.228 1.008 2.228 2.252s-0.997 2.253-2.228 2.253c-1.231 0-2.229-1.009-2.229-2.253s0.998-2.252 2.229-2.252zM9.792 17.577c1.231 0 2.228 1.008 2.228 2.252s-0.998 2.253-2.228 2.253c-1.231 0-2.229-1.009-2.229-2.253s0.998-2.252 2.229-2.252z"></path>
</svg>
