<?xml version="1.0" encoding="UTF-8"?>
<svg viewBox="0 0 32 32" version="1.1" xmlns="http://www.w3.org/2000/svg" xmlns:xlink="http://www.w3.org/1999/xlink">
<title>text</title>
<path d="M16.533 5.001c0.466-0.020 0.906 0.263 1.069 0.719v0l7.279 20.333c0.008 0.024 0.016 0.048 0.023 0.072 0.132 0.491-0.16 0.997-0.651 1.128-0.546 0.146-1.113-0.151-1.303-0.683v0l-2.126-5.939c-0.053 0.009-0.108 0.013-0.163 0.013l-8.553-0-2.12 5.926c-0.19 0.532-0.757 0.829-1.303 0.683-0.491-0.132-0.783-0.637-0.651-1.128 0.007-0.024 0.014-0.048 0.023-0.072l7.279-20.333c0.171-0.477 0.645-0.766 1.135-0.714zM20.111 18.645l-3.644-10.182-3.645 10.182h7.289z"></path>
</svg>
