<?xml version="1.0" encoding="UTF-8"?>
<svg viewBox="0 0 32 32" version="1.1" xmlns="http://www.w3.org/2000/svg" xmlns:xlink="http://www.w3.org/1999/xlink">
<title>8</title>
<path fill="#000" style="fill: var(--color18, #000)" d="M16 7c0.402 0 0.768 0.059 1.099 0.178s0.615 0.283 0.851 0.491c0.236 0.209 0.418 0.455 0.547 0.737s0.193 0.586 0.193 0.909c0 0.475-0.12 0.884-0.36 1.226s-0.592 0.599-1.056 0.771c0.555 0.156 0.981 0.417 1.279 0.783s0.447 0.832 0.447 1.398c0 0.385-0.073 0.732-0.221 1.041s-0.352 0.572-0.615 0.789c-0.263 0.217-0.579 0.384-0.947 0.501s-0.774 0.175-1.217 0.175c-0.443 0-0.849-0.058-1.217-0.175s-0.685-0.284-0.95-0.501c-0.265-0.217-0.47-0.48-0.615-0.789s-0.217-0.656-0.217-1.041c0-0.565 0.149-1.031 0.447-1.398s0.725-0.628 1.28-0.783c-0.468-0.172-0.821-0.429-1.059-0.771s-0.357-0.751-0.357-1.226c0-0.324 0.064-0.627 0.193-0.909s0.311-0.528 0.547-0.737c0.236-0.209 0.519-0.373 0.848-0.491s0.697-0.178 1.103-0.178zM16 11.78c-0.244 0-0.478 0.032-0.702 0.095s-0.421 0.163-0.593 0.298c-0.172 0.135-0.309 0.31-0.41 0.525s-0.152 0.474-0.152 0.777c0 0.246 0.042 0.47 0.127 0.673s0.207 0.377 0.366 0.522c0.159 0.145 0.354 0.258 0.584 0.338s0.49 0.12 0.78 0.12c0.29 0 0.55-0.040 0.779-0.12s0.424-0.193 0.584-0.338c0.159-0.145 0.282-0.319 0.366-0.522s0.127-0.427 0.127-0.673c0-0.303-0.051-0.562-0.152-0.777s-0.238-0.39-0.41-0.525c-0.172-0.135-0.37-0.234-0.593-0.298s-0.458-0.095-0.702-0.095zM16 7.848c-0.265 0-0.498 0.039-0.699 0.117s-0.369 0.184-0.503 0.319c-0.135 0.135-0.236 0.293-0.304 0.473s-0.102 0.373-0.102 0.577c0 0.201 0.029 0.395 0.087 0.584s0.151 0.355 0.28 0.501c0.128 0.145 0.295 0.262 0.5 0.35s0.452 0.132 0.742 0.132c0.29 0 0.537-0.044 0.742-0.132s0.372-0.205 0.5-0.35c0.128-0.145 0.222-0.312 0.279-0.501s0.087-0.383 0.087-0.584c0-0.205-0.034-0.397-0.102-0.577s-0.17-0.338-0.304-0.473c-0.135-0.135-0.302-0.242-0.503-0.319s-0.434-0.117-0.699-0.117z"></path>
<path fill="#9e9e9e" style="fill: var(--color83, #9e9e9e)" d="M13.875 20.418v0.407h-1.158v3.175h-0.485v-3.175h-1.162v-0.407h2.805zM15.777 23.615c0.148 0 0.281-0.025 0.398-0.075s0.215-0.12 0.296-0.21c0.081-0.090 0.142-0.198 0.185-0.323s0.064-0.262 0.064-0.413v-2.177h0.483v2.178c0 0.207-0.033 0.398-0.099 0.575s-0.16 0.33-0.282 0.459c-0.122 0.129-0.272 0.23-0.449 0.304s-0.375 0.11-0.595 0.11c-0.22 0-0.418-0.037-0.595-0.11s-0.327-0.175-0.45-0.304c-0.123-0.129-0.218-0.282-0.284-0.459s-0.099-0.368-0.099-0.575v-2.178h0.482v2.175c0 0.15 0.021 0.288 0.064 0.413s0.104 0.233 0.185 0.323c0.081 0.090 0.18 0.16 0.297 0.211s0.25 0.076 0.399 0.076zM17.62 20.418h0.387c0.043 0 0.078 0.011 0.105 0.032s0.047 0.049 0.060 0.082l1.012 2.527 0.033 0.089 0.030 0.096c0.019 0.067 0.038 0.136 0.056 0.207 0.015-0.072 0.031-0.141 0.049-0.207s0.038-0.128 0.061-0.185l1.008-2.527c0.012-0.028 0.032-0.055 0.060-0.079s0.063-0.036 0.105-0.036h0.39l-1.46 3.582h-0.438l-1.46-3.582z"></path>
</svg>
