<?xml version="1.0" encoding="UTF-8"?>
<svg viewBox="0 0 32 32" version="1.1" xmlns="http://www.w3.org/2000/svg" xmlns:xlink="http://www.w3.org/1999/xlink">
<title>computer</title>
<path d="M5 24.005c-1.104-0.001-1.999-0.896-2-2v-16c0.001-1.104 0.896-1.999 2-2h22c1.104 0.001 1.999 0.896 2 2v16c-0.002 1.104-0.896 1.998-2 2h-22zM5 7.005v14c0 0.552 0.448 1 1 1h20c0.552 0 1-0.448 1-1v-14c0-0.552-0.448-1-1-1h-20c-0.552 0-1 0.448-1 1zM2 26.005h28c0.552 0 1 0.448 1 1s-0.448 1-1 1h-28c-0.552 0-1-0.448-1-1s0.448-1 1-1z"></path>
</svg>
