<?xml version="1.0" encoding="UTF-8"?>
<svg viewBox="0 0 32 32" version="1.1" xmlns="http://www.w3.org/2000/svg" xmlns:xlink="http://www.w3.org/1999/xlink">
<title>phone-off_border</title>
<path d="M21.373 17.3c0.803 0.071 1.484 0.39 1.965 0.905 0.599 0.566 1.221 1.131 1.865 1.697l0.459 0.399 0.947 0.804c0.346 0.29 0.722 0.603 1.129 0.938 0.586 0.482 0.976 1.073 1.157 1.757 0.164 0.617 0.135 1.216-0.074 1.743l-0.087 0.194c-0.193 0.479-0.565 1.044-1.117 1.713-0.476 0.576-0.912 1.028-1.295 1.343l-0.161 0.127c-0.44 0.363-0.947 0.637-1.516 0.818-0.556 0.177-1.167 0.264-1.828 0.264-1.073 0-2.192-0.21-3.356-0.625-1.135-0.405-2.29-0.984-3.466-1.737-1.020-0.653-2.037-1.431-3.044-2.327l-0.431-0.391c-0.449-0.403-0.895-0.826-1.339-1.27l1.414-1.415c0.282 0.283 0.566 0.557 0.852 0.823l0.431 0.394c1.066 0.987 2.134 1.823 3.194 2.502 1.055 0.675 2.074 1.187 3.059 1.538 0.959 0.342 1.853 0.509 2.684 0.509 0.466 0 0.872-0.058 1.223-0.17 0.274-0.087 0.514-0.206 0.768-0.392l0.155-0.12c0.275-0.206 0.66-0.595 1.112-1.142 0.391-0.473 0.643-0.844 0.765-1.097l0.106-0.236c0.064-0.128 0.078-0.299 0.017-0.53-0.072-0.27-0.226-0.504-0.496-0.726l-1.295-1.078-0.817-0.695c-0.167-0.144-0.324-0.28-0.471-0.41-0.441-0.387-0.872-0.775-1.293-1.163l-0.624-0.582-0.088-0.088c-0.138-0.148-0.36-0.25-0.681-0.279-0.303-0.027-0.574 0.018-0.827 0.134l-0.119 0.063-0.049 0.035c-0.072 0.052-0.134 0.099-0.189 0.145l-0.079 0.069-0.16 0.152-0.227 0.231-0.036 0.047c-0.029 0.035-0.059 0.070-0.090 0.104l-0.159 0.162-0.157 0.172c-0.584 0.639-1.512 0.829-2.3 0.472-0.142-0.064-0.295-0.142-0.459-0.233-0.441-0.245-0.895-0.578-1.367-0.993l1.416-1.419 0.048 0.041c0.319 0.269 0.611 0.477 0.874 0.623 0.121 0.067 0.226 0.121 0.312 0.159l0.218-0.239 0.080-0.079 0.085-0.107 0.254-0.263 0.222-0.218c0.034-0.033 0.067-0.063 0.099-0.092 0.171-0.156 0.362-0.306 0.617-0.477 0.658-0.388 1.391-0.552 2.169-0.483zM29.435 3.979c0.391 0.391 0.391 1.024 0 1.414l-24.042 24.042c-0.391 0.391-1.024 0.391-1.414 0s-0.391-1.024 0-1.414l24.042-24.042c0.391-0.391 1.024-0.391 1.414 0zM10.791 2.353c0.678 0.318 1.204 0.818 1.577 1.5 0.366 0.728 0.785 1.483 1.257 2.265 0.473 0.784 1.035 1.646 1.696 2.601 0.414 0.626 0.579 1.307 0.486 2.017-0.091 0.699-0.403 1.322-0.977 1.9-0.164 0.139-0.333 0.269-0.508 0.389-0.156 0.107-0.329 0.212-0.519 0.316-0.067 0.053-0.139 0.099-0.218 0.137l-0.171 0.083-0.178 0.098-0.045 0.022c-0.053 0.022-0.101 0.045-0.144 0.067 0.016 0.079 0.043 0.175 0.083 0.29l0.098 0.258c0.117 0.314 0.304 0.677 0.56 1.086l-1.444 1.446c-0.070-0.103-0.137-0.205-0.201-0.306-0.288-0.453-0.519-0.88-0.691-1.286l-0.073-0.183c-0.139-0.34-0.236-0.632-0.292-0.913-0.174-0.868 0.242-1.747 1.025-2.162l0.25-0.12 0.178-0.098 0.111-0.054 0.050-0.036 0.143-0.086c0.134-0.073 0.249-0.143 0.346-0.21l0.175-0.127 0.102-0.083 0.049-0.052c0.16-0.183 0.247-0.349 0.289-0.528l0.020-0.109c0.030-0.226-0.018-0.425-0.147-0.621-0.681-0.985-1.266-1.882-1.763-2.705-0.498-0.824-0.942-1.624-1.299-2.338-0.147-0.269-0.323-0.454-0.553-0.588l-0.12-0.063c-0.319-0.15-0.635-0.195-0.976-0.142-0.314 0.049-0.8 0.222-1.451 0.538-0.661 0.321-1.134 0.608-1.416 0.843-0.548 0.46-0.881 1.078-1.018 1.956-0.16 0.934-0.085 2.047 0.247 3.337 0.345 1.34 0.953 2.809 1.836 4.41 0.74 1.355 1.664 2.737 2.767 4.135l-1.424 1.423c-1.239-1.551-2.272-3.085-3.099-4.599-0.955-1.731-1.628-3.354-2.018-4.87-0.397-1.544-0.493-2.938-0.281-4.173 0.204-1.306 0.769-2.366 1.703-3.149 0.433-0.361 1.041-0.728 1.828-1.11 0.803-0.39 1.468-0.63 2.018-0.716 0.735-0.115 1.455-0.010 2.133 0.308z"></path>
</svg>
