<?xml version="1.0" encoding="UTF-8"?>
<svg viewBox="0 0 32 32" version="1.1" xmlns="http://www.w3.org/2000/svg" xmlns:xlink="http://www.w3.org/1999/xlink">
<title>remove_field</title>
<path d="M16 2c7.732 0 14 6.268 14 14s-6.268 14-14 14c-7.732 0-14-6.268-14-14s6.268-14 14-14zM19.712 9.813l-3.713 3.713-3.712-3.712c-0.683-0.683-1.791-0.684-2.475-0-0 0-0 0-0 0-0.683 0.683-0.683 1.791 0 2.475 0 0 0 0 0 0l3.712 3.712-3.713 3.713c-0.683 0.683-0.683 1.791 0 2.475s1.791 0.683 2.475 0c0-0 0-0 0-0l3.712-3.713 3.713 3.713c0.683 0.683 1.791 0.683 2.475 0s0.683-1.791 0-2.475l-3.713-3.713 3.713-3.712c0.683-0.683 0.684-1.791 0-2.475-0-0-0-0-0-0-0.683-0.683-1.791-0.683-2.475-0z"></path>
</svg>
