<?xml version="1.0" encoding="UTF-8"?>
<svg viewBox="0 0 32 32" version="1.1" xmlns="http://www.w3.org/2000/svg" xmlns:xlink="http://www.w3.org/1999/xlink">
<title>expand</title>
<path d="M5 18c0.552 0 1 0.448 1 1l0.001 5.586 5.827-5.829c0.391-0.391 1.024-0.391 1.414 0s0.391 1.024 0 1.414l-5.827 5.829 5.585-0c0.552 0 1 0.448 1 1s-0.448 1-1 1h-8c-0.552 0-1-0.448-1-1v-8c0-0.552 0.448-1 1-1zM27 4c0.552 0 1 0.448 1 1v8c0 0.552-0.448 1-1 1s-1-0.448-1-1l-0.001-5.586-5.827 5.829c-0.391 0.391-1.024 0.391-1.414 0s-0.391-1.024 0-1.414l5.827-5.829-5.585 0c-0.552 0-1-0.448-1-1s0.448-1 1-1h8z"></path>
</svg>
