<?xml version="1.0" encoding="UTF-8"?>
<svg viewBox="0 0 32 32" version="1.1" xmlns="http://www.w3.org/2000/svg" xmlns:xlink="http://www.w3.org/1999/xlink">
<title>mac-numbers-D</title>
<path fill="#2a3d27" style="fill: var(--color25, #2a3d27)" d="M3.556 0h24.889c1.964 0 3.556 1.592 3.556 3.556v24.889c0 1.964-1.592 3.556-3.556 3.556h-24.889c-1.964 0-3.556-1.592-3.556-3.556v-24.889c0-1.964 1.592-3.556 3.556-3.556z"></path>
<path fill="#54cb43" style="fill: var(--color26, #54cb43)" d="M22.667 7.111c1.227 0 2.222 0.995 2.222 2.222v13.333c0 1.227-0.995 2.222-2.222 2.222h-13.333c-1.227 0-2.222-0.995-2.222-2.222v-13.333c0-1.227 0.995-2.222 2.222-2.222h13.333z"></path>
<path fill="#f1f1f1" style="fill: var(--color27, #f1f1f1)" d="M22.389 21v0.556h-12.778v-0.556h12.778zM19.056 10.444v10h-2.778v-10h2.778zM12.389 18.778v1.667h-2.778v-1.667h2.778zM15.722 16v4.444h-2.778v-4.444h2.778zM22.389 13.222v7.222h-2.778v-7.222h2.778z"></path>
</svg>
