<?xml version="1.0" encoding="UTF-8"?>
<svg viewBox="0 0 32 32" version="1.1" xmlns="http://www.w3.org/2000/svg" xmlns:xlink="http://www.w3.org/1999/xlink">
<title>admin</title>
<path d="M26.281 16.083c0.826 0.297 1.59 0.754 2.255 1.346 0.459 0.409 0.61 1.066 0.383 1.635-0.097 0.245-0.081 0.521 0.044 0.749s0.334 0.364 0.563 0.382c0.632 0.047 1.148 0.509 1.287 1.122 0.124 0.549 0.187 1.113 0.187 1.684s-0.063 1.133-0.186 1.683c-0.138 0.614-0.655 1.076-1.288 1.123-0.228 0.017-0.437 0.154-0.562 0.381s-0.141 0.504-0.044 0.749c0.226 0.569 0.076 1.225-0.383 1.634-0.665 0.592-1.429 1.049-2.255 1.346-0.639 0.23-1.341-0.028-1.692-0.604-0.137-0.224-0.356-0.351-0.589-0.351s-0.453 0.127-0.59 0.352c-0.351 0.575-1.052 0.833-1.691 0.603-0.825-0.296-1.59-0.753-2.256-1.346-0.459-0.409-0.61-1.066-0.383-1.635 0.097-0.245 0.081-0.521-0.044-0.749s-0.334-0.364-0.563-0.382c-0.632-0.047-1.148-0.509-1.287-1.122-0.124-0.549-0.187-1.113-0.187-1.684s0.063-1.133 0.186-1.683c0.138-0.614 0.655-1.076 1.288-1.123 0.228-0.017 0.437-0.154 0.562-0.381s0.141-0.504 0.044-0.749c-0.226-0.569-0.076-1.225 0.383-1.634 0.665-0.592 1.429-1.049 2.255-1.346 0.639-0.23 1.341 0.028 1.692 0.604 0.137 0.224 0.356 0.351 0.589 0.351 0.197 0 0.384-0.090 0.508-0.233l0.056-0.075 0.089-0.139c0.367-0.508 1.026-0.726 1.629-0.509zM13 17c1.439 0 2.821 0.226 4.092 0.64-0.068 0.253-0.106 0.513-0.114 0.775l-0.001 0.175-0.105 0.058c-0.815 0.471-1.42 1.27-1.636 2.229-0.157 0.695-0.235 1.406-0.235 2.123 0 0.718 0.079 1.43 0.236 2.125l0.048 0.189c0.25 0.873 0.827 1.598 1.587 2.037l0.106 0.058 0.001 0.175c0.004 0.14 0.017 0.278 0.038 0.416l-13.016-0c-1.105 0-2-0.895-2-2 0-5.096 5.019-9 11-9zM24 21c-1.105 0-2 0.895-2 2s0.895 2 2 2c1.105 0 2-0.895 2-2s-0.895-2-2-2zM13 3c3.314 0 6 2.686 6 6s-2.686 6-6 6c-3.314 0-6-2.686-6-6s2.686-6 6-6z"></path>
</svg>
