<?xml version="1.0" encoding="UTF-8"?>
<svg viewBox="0 0 32 32" version="1.1" xmlns="http://www.w3.org/2000/svg" xmlns:xlink="http://www.w3.org/1999/xlink">
<title>archive</title>
<path d="M28 3c1.105 0 2 0.895 2 2v4c0 1.105-0.895 2-2 2v16c0 1.105-0.895 2-2 2h-20c-1.105 0-2-0.895-2-2v-16c-1.105 0-2-0.895-2-2v-4c0-1.105 0.895-2 2-2h24zM26 11h-20v15c0 0.552 0.448 1 1 1h18c0.552 0 1-0.448 1-1v-15zM19 15c0.552 0 1 0.448 1 1s-0.448 1-1 1h-6c-0.552 0-1-0.448-1-1s0.448-1 1-1h6zM27 5h-22c-0.552 0-1 0.448-1 1v2c0 0.552 0.448 1 1 1h22c0.552 0 1-0.448 1-1v-2c0-0.552-0.448-1-1-1z"></path>
</svg>
