<?xml version="1.0" encoding="UTF-8"?>
<svg viewBox="0 0 32 32" version="1.1" xmlns="http://www.w3.org/2000/svg" xmlns:xlink="http://www.w3.org/1999/xlink">
<title>box-new</title>
<path d="M15.984 10.254c-2.15 0-4.137 0.674-5.769 1.811v-7.992c-0-1.145-0.942-2.073-2.103-2.073s-2.103 0.928-2.103 2.073v15.272c-0.021 0.259 0.003 1.756 0.072 2.181 0.691 4.788 4.856 8.474 9.904 8.474 5.532 0 10.016-4.42 10.016-9.873s-4.484-9.873-10.016-9.873zM15.984 25.814c-3.186 0-5.769-2.546-5.769-5.687s2.583-5.687 5.769-5.687c3.186 0 5.769 2.546 5.769 5.687s-2.583 5.687-5.769 5.687z"></path>
</svg>
