<?xml version="1.0" encoding="UTF-8"?>
<svg viewBox="0 0 32 32" version="1.1" xmlns="http://www.w3.org/2000/svg" xmlns:xlink="http://www.w3.org/1999/xlink">
<title>work</title>
<path d="M22 3c1.105 0 2 0.895 2 2v3h4c1.105 0 2 0.895 2 2v17c0 1.105-0.895 2-2 2h-24c-1.105 0-2-0.895-2-2v-17c0-1.105 0.895-2 2-2h4v-3c0-1.105 0.895-2 2-2h12zM27 10h-22c-0.552 0-1 0.448-1 1v15c0 0.552 0.448 1 1 1h22c0.552 0 1-0.448 1-1v-15c0-0.552-0.448-1-1-1zM21 5h-10c-0.552 0-1 0.448-1 1v2h12v-2c0-0.552-0.448-1-1-1z"></path>
</svg>
