<?xml version="1.0" encoding="UTF-8"?>
<svg viewBox="0 0 32 32" version="1.1" xmlns="http://www.w3.org/2000/svg" xmlns:xlink="http://www.w3.org/1999/xlink">
<title>ppt</title>
<path fill="#fff" style="fill: var(--color3, #fff)" opacity="0.991775" d="M3.556 0h24.889c1.964 0 3.556 1.592 3.556 3.556v24.889c0 1.964-1.592 3.556-3.556 3.556h-24.889c-1.964 0-3.556-1.592-3.556-3.556v-24.889c0-1.964 1.592-3.556 3.556-3.556z"></path>
<path fill="#d5583c" style="fill: var(--color44, #d5583c)" opacity="0.16" d="M3.556 0h24.889c1.964 0 3.556 1.592 3.556 3.556v24.889c0 1.964-1.592 3.556-3.556 3.556h-24.889c-1.964 0-3.556-1.592-3.556-3.556v-24.889c0-1.964 1.592-3.556 3.556-3.556z"></path>
<path fill="#d5583c" style="fill: var(--color44, #d5583c)" d="M11.919 8c-0.601 0-1.108 0.208-1.522 0.624s-0.62 0.927-0.62 1.532v11.688c0 0.605 0.207 1.116 0.62 1.532s0.921 0.624 1.522 0.624h8.161c0.601 0 1.108-0.208 1.522-0.624s0.62-0.927 0.62-1.532v-9.059l-5.551-4.785h-4.752zM14.164 16.984v-3.102h2.217c0.301 0 0.57 0.032 0.808 0.095s0.432 0.158 0.582 0.284c0.15 0.151 0.257 0.322 0.319 0.511s0.094 0.41 0.094 0.662c0 0.252-0.031 0.473-0.094 0.662s-0.169 0.359-0.319 0.511c-0.15 0.126-0.344 0.221-0.582 0.284s-0.507 0.095-0.808 0.095l-2.217 0zM13.225 12.936h3.532c0.426 0 0.795 0.057 1.108 0.17s0.582 0.271 0.808 0.473c0.225 0.227 0.388 0.492 0.488 0.794s0.15 0.656 0.15 1.059c0 0.378-0.050 0.725-0.15 1.040s-0.263 0.586-0.488 0.813c-0.225 0.202-0.495 0.359-0.808 0.473s-0.683 0.17-1.108 0.17h-2.592v3.442h-0.939v-8.436h0z"></path>
</svg>
