<?xml version="1.0" encoding="UTF-8"?>
<svg viewBox="0 0 32 32" version="1.1" xmlns="http://www.w3.org/2000/svg" xmlns:xlink="http://www.w3.org/1999/xlink">
<title>park-call</title>
<path d="M19.837 3.75c4.69 0 7.803 2.902 7.803 7.298 0 4.216-2.865 7.052-7.271 7.269l-0.303 0.011-0.245 0.003-8.829-0 0.001 8.259c0 0.476-0.232 0.864-0.621 1.049l-0.135 0.054-0.133 0.035-0.13 0.018-0.111 0.005c-0.566 0-0.986-0.356-1.090-0.906l-0.019-0.141-0.005-0.114v-21.679c0-0.582 0.334-1.024 0.866-1.135l0.137-0.021 0.111-0.005h9.974zM19.629 5.882l-8.637-0v10.315l8.64 0.001c3.585 0 5.75-1.949 5.75-5.15 0-3.061-1.944-4.971-5.228-5.152l-0.293-0.011-0.233-0.003z"></path>
</svg>
