<?xml version="1.0" encoding="UTF-8"?>
<svg viewBox="0 0 32 32" version="1.1" xmlns="http://www.w3.org/2000/svg" xmlns:xlink="http://www.w3.org/1999/xlink">
<title>settings</title>
<path d="M20.857 2.057c1.766 0.593 3.401 1.507 4.823 2.688 0.357 0.296 0.477 0.786 0.297 1.21-0.514 1.206-0.437 2.578 0.241 3.731 0.721 1.226 2 1.996 3.411 2.095 0.467 0.033 0.858 0.359 0.966 0.806 0.269 1.108 0.406 2.252 0.406 3.413s-0.137 2.304-0.405 3.414c-0.108 0.448-0.5 0.774-0.967 0.807-1.412 0.098-2.69 0.868-3.411 2.094-0.678 1.153-0.755 2.526-0.241 3.732 0.18 0.423 0.060 0.913-0.296 1.209-1.421 1.181-3.055 2.095-4.822 2.689-0.467 0.157-0.983-0.020-1.249-0.428-0.783-1.2-2.13-1.939-3.608-1.939s-2.825 0.739-3.61 1.939c-0.266 0.407-0.781 0.584-1.248 0.427-1.765-0.592-3.4-1.505-4.822-2.687-0.357-0.296-0.477-0.786-0.297-1.21 0.514-1.206 0.437-2.578-0.241-3.731-0.721-1.226-2-1.996-3.411-2.095-0.467-0.033-0.858-0.359-0.966-0.806-0.269-1.108-0.406-2.252-0.406-3.413s0.137-2.304 0.405-3.414c0.108-0.448 0.5-0.774 0.967-0.807 1.412-0.098 2.69-0.868 3.411-2.094 0.678-1.153 0.755-2.526 0.242-3.732-0.18-0.423-0.060-0.913 0.296-1.209 1.421-1.181 3.055-2.095 4.822-2.689 0.467-0.157 0.982 0.020 1.249 0.428 0.783 1.2 2.13 1.94 3.608 1.94 1.458 0 2.789-0.719 3.562-1.867l0.038-0.060c0.263-0.417 0.785-0.6 1.257-0.441zM16 12c-2.209 0-4 1.791-4 4s1.791 4 4 4c2.209 0 4-1.791 4-4s-1.791-4-4-4z"></path>
</svg>
