<?xml version="1.0" encoding="UTF-8"?>
<svg viewBox="0 0 32 32" version="1.1" xmlns="http://www.w3.org/2000/svg" xmlns:xlink="http://www.w3.org/1999/xlink">
<title>HUD</title>
<path d="M28 3c1.105 0 2 0.895 2 2v18c0 1.105-0.895 2-2 2h-11v2h4c0.552 0 1 0.448 1 1s-0.448 1-1 1h-10c-0.552 0-1-0.448-1-1s0.448-1 1-1h4v-2h-11c-1.105 0-2-0.895-2-2v-18c0-1.105 0.895-2 2-2h24zM27 5h-22c-0.552 0-1 0.448-1 1v16c0 0.552 0.448 1 1 1h22c0.552 0 1-0.448 1-1v-16c0-0.552-0.448-1-1-1zM24 8c0.552 0 1 0.448 1 1v10c0 0.552-0.448 1-1 1h-16c-0.552 0-1-0.448-1-1v-10c0-0.552 0.448-1 1-1h16z"></path>
</svg>
