<?xml version="1.0" encoding="UTF-8"?>
<svg viewBox="0 0 32 32" version="1.1" xmlns="http://www.w3.org/2000/svg" xmlns:xlink="http://www.w3.org/1999/xlink">
<title>selects</title>
<path d="M27 2c1.657 0 3 1.343 3 3v22c0 1.657-1.343 3-3 3h-22c-1.657 0-3-1.343-3-3v-22c0-1.657 1.343-3 3-3h22zM22.407 10.375l-8.201 7.993-3.433-3.412c-0.523-0.518-1.367-0.515-1.886 0.008s-0.515 1.367 0.008 1.886l4.36 4.331c0.515 0.511 1.344 0.516 1.865 0.012l9.14-8.9c0.53-0.512 0.544-1.356 0.032-1.885s-1.356-0.544-1.885-0.032z"></path>
</svg>
