<?xml version="1.0" encoding="UTF-8"?>
<svg viewBox="0 0 32 32" version="1.1" xmlns="http://www.w3.org/2000/svg" xmlns:xlink="http://www.w3.org/1999/xlink">
<title>downwards-arrow-with-tip-rightwards</title>
<path d="M4 3c0.552 0 1 0.448 1 1v12c0 0.552 0.448 1 1 1l19.586 0.001-6.536-6.536c-0.391-0.391-0.391-1.024 0-1.414s1.024-0.391 1.414 0l8.243 8.243c0.391 0.391 0.391 1.024 0 1.414l-8.243 8.243c-0.391 0.391-1.024 0.391-1.414 0s-0.391-1.024 0-1.414l6.536-6.535-20.586-0.001c-1.105 0-2-0.895-2-2v-13c0-0.552 0.448-1 1-1z"></path>
</svg>
