<?xml version="1.0" encoding="UTF-8"?>
<svg viewBox="0 0 32 32" version="1.1" xmlns="http://www.w3.org/2000/svg" xmlns:xlink="http://www.w3.org/1999/xlink">
<title>help_border</title>
<path d="M16 2c7.732 0 14 6.268 14 14s-6.268 14-14 14c-7.732 0-14-6.268-14-14s6.268-14 14-14zM16 4c-6.627 0-12 5.373-12 12s5.373 12 12 12c6.627 0 12-5.373 12-12s-5.373-12-12-12zM15.58 20.75c0.207 0 0.403 0.040 0.59 0.12s0.347 0.187 0.48 0.32c0.133 0.133 0.24 0.293 0.32 0.48s0.12 0.383 0.12 0.59c0 0.213-0.040 0.412-0.12 0.595s-0.187 0.342-0.32 0.475c-0.133 0.133-0.293 0.238-0.48 0.315s-0.383 0.115-0.59 0.115c-0.213 0-0.413-0.038-0.6-0.115s-0.348-0.182-0.485-0.315c-0.137-0.133-0.243-0.292-0.32-0.475s-0.115-0.382-0.115-0.595c0-0.207 0.038-0.403 0.115-0.59s0.183-0.347 0.32-0.48c0.137-0.133 0.298-0.24 0.485-0.32s0.387-0.12 0.6-0.12zM16 9c0.58 0 1.108 0.080 1.585 0.24s0.885 0.388 1.225 0.685c0.34 0.297 0.603 0.655 0.79 1.075s0.28 0.89 0.28 1.41c0 0.507-0.073 0.945-0.22 1.315s-0.332 0.692-0.555 0.965c-0.223 0.273-0.465 0.51-0.725 0.71l-0.74 0.565c-0.233 0.177-0.435 0.35-0.605 0.52-0.136 0.136-0.228 0.286-0.277 0.45l-0.028 0.125-0.23 1.46h-1.69l-0.17-1.63-0.008-0.046-0.002-0.124c0-0.293 0.073-0.548 0.22-0.765s0.33-0.42 0.55-0.61c0.22-0.19 0.457-0.375 0.71-0.555s0.49-0.375 0.71-0.585c0.22-0.21 0.403-0.448 0.55-0.715s0.22-0.58 0.22-0.94c0-0.24-0.045-0.455-0.135-0.645s-0.215-0.353-0.375-0.49c-0.16-0.137-0.352-0.242-0.575-0.315s-0.465-0.11-0.725-0.11c-0.38 0-0.702 0.042-0.965 0.125s-0.487 0.177-0.67 0.28c-0.183 0.103-0.338 0.197-0.465 0.28s-0.24 0.125-0.34 0.125c-0.206 0-0.362-0.073-0.47-0.22l-0.7-1.11c0.227-0.2 0.475-0.39 0.745-0.57s0.562-0.337 0.875-0.47c0.313-0.133 0.653-0.238 1.020-0.315s0.763-0.115 1.19-0.115z"></path>
</svg>
