<?xml version="1.0" encoding="UTF-8"?>
<svg viewBox="0 0 32 32" version="1.1" xmlns="http://www.w3.org/2000/svg" xmlns:xlink="http://www.w3.org/1999/xlink">
<title>fax_border</title>
<path d="M29 3c0.552 0 1 0.448 1 1s-0.448 1-1 1h-2v15h-7c-1.054 0-1.918 0.816-1.994 1.851l-0.006 0.149v7h-11c-1.105 0-2-0.895-2-2v-22h-2c-0.552 0-1-0.448-1-1s0.448-1 1-1h26zM26.728 22l-0.025 0.058c-0.145 0.301-0.341 0.579-0.582 0.82l-5.536 5.536c-0.125 0.125-0.265 0.232-0.415 0.319l-0.17 0.086v-5.819c0-0.513 0.386-0.936 0.883-0.993l0.117-0.007h5.728zM21 14h-10c-0.552 0-1 0.448-1 1 0 0.513 0.386 0.935 0.883 0.993l0.117 0.007h10c0.552 0 1-0.448 1-1s-0.448-1-1-1zM21 8h-10c-0.552 0-1 0.448-1 1 0 0.513 0.386 0.935 0.883 0.993l0.117 0.007h10c0.552 0 1-0.448 1-1s-0.448-1-1-1z"></path>
</svg>
