<?xml version="1.0" encoding="UTF-8"?>
<svg viewBox="0 0 32 32" version="1.1" xmlns="http://www.w3.org/2000/svg" xmlns:xlink="http://www.w3.org/1999/xlink">
<title>image-broken</title>
<path fill="#fff" style="fill: var(--color29, #fff)" opacity="0.991775" d="M3.556 0h24.889c1.964 0 3.556 1.592 3.556 3.556v24.889c0 1.964-1.592 3.556-3.556 3.556h-24.889c-1.964 0-3.556-1.592-3.556-3.556v-24.889c0-1.964 1.592-3.556 3.556-3.556z"></path>
<path fill="#a7aaae" style="fill: var(--color55, #a7aaae)" opacity="0.16" d="M3.556 0h24.889c1.964 0 3.556 1.592 3.556 3.556v24.889c0 1.964-1.592 3.556-3.556 3.556h-24.889c-1.964 0-3.556-1.592-3.556-3.556v-24.889c0-1.964 1.592-3.556 3.556-3.556z"></path>
<path fill="#a7aaae" style="fill: var(--color55, #a7aaae)" d="M11.893 8.018l4.862-0.018 5.466 4.962-0.024 8.878c0 0.607-0.204 1.118-0.612 1.535s-0.909 0.625-1.503 0.625h-8.154c-0.594 0-1.095-0.209-1.503-0.625s-0.612-0.929-0.612-1.535l-0.035-11.661c0-0.607 0.204-1.118 0.612-1.535s0.909-0.625 1.503-0.625l-0 0z"></path>
<path fill="#f1f1f2" style="fill: var(--color80, #f1f1f2)" d="M18.329 14.738c0.585 0 0.944 0.535 1.542 1.822l0.627 1.388c0.134 0.291 0.216 0.453 0.32 0.64 0.083 0.15 0.157 0.267 0.221 0.351l0.057 0.069 0.027-0.021c0.255-0.235 0.893-1.441 1.677-3.452l0.195-0.509 0.832 0.313-0.323 0.84c-1.010 2.563-1.726 3.74-2.456 3.74l-0.121-0.005c-0.444-0.039-0.66-0.336-1.255-1.633l-0.608-1.346-0.151-0.314c-0.316-0.637-0.559-0.994-0.585-0.994-0.060 0-0.34 0.43-0.826 1.361l-0.464 0.91c-0.747 1.461-1.143 2.021-1.771 2.021-0.595 0-1.021-0.552-1.704-1.811l-0.675-1.274c-0.445-0.822-0.688-1.208-0.702-1.208l-0.008-0.002c-0.028-0.016 0.010-0.11-0.16 0.161l-2.439 4.071-0.763-0.456 1.744-2.952c0.081-0.134 0.145-0.241 0.188-0.309l0.211-0.331c0.502-0.764 0.815-1.071 1.227-1.071l0.113 0.004c0.415 0.029 0.619 0.259 1.261 1.456l0.784 1.487 0.209 0.374c0.165 0.285 0.307 0.506 0.438 0.676 0.16 0.207 0.275 0.296 0.276 0.296 0.079 0 0.382-0.414 0.805-1.202l0.36-0.7 0.298-0.587c0.764-1.487 1.025-1.803 1.599-1.803l0-0z"></path>
</svg>
