<?xml version="1.0" encoding="UTF-8"?>
<svg viewBox="0 0 32 32" version="1.1" xmlns="http://www.w3.org/2000/svg" xmlns:xlink="http://www.w3.org/1999/xlink">
<title>keypad</title>
<path d="M7 22c1.657 0 3 1.343 3 3s-1.343 3-3 3c-1.657 0-3-1.343-3-3s1.343-3 3-3zM16 22c1.657 0 3 1.343 3 3s-1.343 3-3 3c-1.657 0-3-1.343-3-3s1.343-3 3-3zM25 22c1.657 0 3 1.343 3 3s-1.343 3-3 3c-1.657 0-3-1.343-3-3s1.343-3 3-3zM7 13c1.657 0 3 1.343 3 3s-1.343 3-3 3c-1.657 0-3-1.343-3-3s1.343-3 3-3zM16 13c1.657 0 3 1.343 3 3s-1.343 3-3 3c-1.657 0-3-1.343-3-3s1.343-3 3-3zM25 13c1.657 0 3 1.343 3 3s-1.343 3-3 3c-1.657 0-3-1.343-3-3s1.343-3 3-3zM7 4c1.657 0 3 1.343 3 3s-1.343 3-3 3c-1.657 0-3-1.343-3-3s1.343-3 3-3zM16 4c1.657 0 3 1.343 3 3s-1.343 3-3 3c-1.657 0-3-1.343-3-3s1.343-3 3-3zM25 4c1.657 0 3 1.343 3 3s-1.343 3-3 3c-1.657 0-3-1.343-3-3s1.343-3 3-3z"></path>
</svg>
