<?xml version="1.0" encoding="UTF-8"?>
<svg viewBox="0 0 32 32" version="1.1" xmlns="http://www.w3.org/2000/svg" xmlns:xlink="http://www.w3.org/1999/xlink">
<title>workspace</title>
<path d="M9.172 20l0.131 0.009c0.173 0.023 0.338 0.091 0.477 0.197l0.099 0.087 1.828 1.828 0.145 0.135c0.491 0.43 1.108 0.688 1.759 0.735l0.218 0.008h4.343l0.198-0.007c0.651-0.043 1.27-0.297 1.764-0.724l0.16-0.148 1.828-1.828 0.099-0.087c0.139-0.106 0.303-0.174 0.477-0.197l0.131-0.009h7.172v6c0 1.105-0.895 2-2 2h-24c-1.105 0-2-0.895-2-2v-6h7.172zM23.558 4c0.861 0 1.625 0.551 1.897 1.368l4.211 12.632-7.037 0.007c-0.651 0.043-1.27 0.297-1.764 0.724l-0.16 0.148-1.828 1.828-0.099 0.087c-0.139 0.106-0.303 0.174-0.477 0.197l-0.131 0.009h-4.343l-0.131-0.009c-0.173-0.023-0.338-0.091-0.477-0.197l-0.099-0.087-1.828-1.828-0.145-0.135c-0.491-0.43-1.108-0.688-1.759-0.735l-0.218-0.008h-6.84l4.212-12.632c0.272-0.817 1.037-1.368 1.897-1.368h15.117zM23 13h-14c-0.552 0-1 0.448-1 1 0 0.513 0.386 0.935 0.883 0.993l0.117 0.007h14c0.552 0 1-0.448 1-1 0-0.513-0.386-0.935-0.883-0.993l-0.117-0.007zM21 8h-10c-0.552 0-1 0.448-1 1 0 0.513 0.386 0.935 0.883 0.993l0.117 0.007h10c0.552 0 1-0.448 1-1 0-0.513-0.386-0.935-0.883-0.993l-0.117-0.007z"></path>
</svg>
