<?xml version="1.0" encoding="UTF-8"?>
<svg viewBox="0 0 32 32" version="1.1" xmlns="http://www.w3.org/2000/svg" xmlns:xlink="http://www.w3.org/1999/xlink">
<title>google-logo-disabled</title>
<path d="M27.767 13.65h-0.967v-0.050h-10.8v4.8h6.782c-0.989 2.794-3.648 4.8-6.782 4.8-3.976 0-7.2-3.224-7.2-7.2s3.224-7.2 7.2-7.2c1.835 0 3.505 0.692 4.777 1.823l3.394-3.394c-2.143-1.997-5.010-3.229-8.171-3.229-6.627 0-12 5.373-12 12s5.373 12 12 12c6.627 0 12-5.373 12-12 0-0.805-0.083-1.59-0.233-2.35v-0z"></path>
</svg>
