<?xml version="1.0" encoding="UTF-8"?>
<svg viewBox="0 0 32 32" version="1.1" xmlns="http://www.w3.org/2000/svg" xmlns:xlink="http://www.w3.org/1999/xlink">
<title>evernote</title>
<path d="M21.631 15.271c-0.372-0.012-0.728 0.010-1.063 0.063 0.094-0.744 0.407-1.657 1.515-1.619 1.226 0.042 1.397 1.18 1.401 1.95-0.517-0.227-1.157-0.371-1.854-0.395v0l0 0zM26.873 7.198c-0.206-1.077-0.857-1.609-1.446-1.817-0.636-0.226-1.927-0.46-3.548-0.648-1.305-0.151-2.836-0.138-3.763-0.111-0.112-0.747-0.645-1.431-1.242-1.667-1.592-0.629-4.051-0.477-4.683-0.303-0.502 0.138-1.057 0.419-1.366 0.854-0.207 0.291-0.342 0.663-0.343 1.183 0 0.295 0.008 0.988 0.016 1.604 0.007 0.618 0.016 1.17 0.016 1.174-0 0.55-0.454 0.997-1.017 0.998h-2.58c-0.55 0-0.971 0.091-1.292 0.234s-0.55 0.338-0.723 0.566c-0.344 0.455-0.405 1.015-0.403 1.587 0 0 0.005 0.468 0.12 1.373 0.096 0.7 0.869 5.593 1.603 7.081 0.285 0.578 0.474 0.82 1.034 1.075 1.246 0.524 4.094 1.108 5.428 1.275 1.332 0.167 2.168 0.52 2.667-0.507 0.001-0.003 0.099-0.256 0.235-0.626 0.433-1.287 0.493-2.43 0.493-3.256 0-0.085 0.126-0.088 0.126 0 0 0.583-0.114 2.648 1.474 3.203 0.627 0.218 1.928 0.413 3.249 0.565 1.196 0.135 2.063 0.597 2.063 3.608 0 1.832-0.392 2.083-2.44 2.083-1.66 0-2.294 0.043-2.294-1.253 0-1.047 1.055-0.937 1.836-0.937 0.349 0 0.096-0.255 0.096-0.901 0-0.643 0.409-1.014 0.023-1.023-2.701-0.073-4.292-0.004-4.292 3.316 0 3.013 1.174 3.573 5.009 3.573 3.007 0 4.068-0.097 5.309-3.88 0.246-0.746 0.841-3.027 1.199-6.854 0.228-2.42-0.214-9.724-0.564-11.567v0zM6.797 7.729h2.582c0.148 0 0.267-0.118 0.267-0.262 0-0.001-0.031-2.172-0.031-2.777v-0.006c0-0.496 0.106-0.929 0.29-1.291l0.088-0.163c-0.010 0.002-0.020 0.006-0.030 0.016l-5.013 4.882c-0.010 0.008-0.016 0.019-0.019 0.029 0.104-0.050 0.246-0.119 0.266-0.127 0.436-0.194 0.966-0.3 1.599-0.3h-0z"></path>
</svg>
