<?xml version="1.0" encoding="UTF-8"?>
<svg viewBox="0 0 32 32" version="1.1" xmlns="http://www.w3.org/2000/svg" xmlns:xlink="http://www.w3.org/1999/xlink">
<title>New-email</title>
<path d="M24 17c0.552 0 1 0.448 1 1v4h4c0.552 0 1 0.448 1 1s-0.448 1-1 1h-4.001l0.001 4c0 0.552-0.448 1-1 1s-1-0.448-1-1l-0.001-4h-3.999c-0.552 0-1-0.448-1-1s0.448-1 1-1h4v-4c0-0.552 0.448-1 1-1zM28 5c1.105 0 2 0.895 2 2l0.001 10.71c-0.572-0.648-1.247-1.203-2-1.639l-0.001-7.071-10.197 8.764c-1.064 0.801-2.533 0.803-3.599 0.005l-0.157-0.126-0.822-0.705-8.6 7.989c0.116 0.047 0.242 0.072 0.374 0.072l11.252 0c0.183 0.71 0.46 1.382 0.819 2.001l-13.071-0.001c-1.105 0-2-0.895-2-2v-18c0-1.105 0.895-2 2-2h24zM4 9.032v13.744l7.698-7.146-7.698-6.598zM27 7h-22c-0.088 0-0.173 0.011-0.255 0.033l10.701 9.166c0.331 0.221 0.764 0.223 1.097 0.007l0.107-0.080 10.605-9.092c-0.082-0.022-0.167-0.033-0.256-0.033z"></path>
</svg>
