<?xml version="1.0" encoding="UTF-8"?>
<svg viewBox="0 0 32 32" version="1.1" xmlns="http://www.w3.org/2000/svg" xmlns:xlink="http://www.w3.org/1999/xlink">
<title>ID_border</title>
<path d="M28.255 5.034c-1.052-0.698-2.285-1.033-3.67-1.033l-1.884-0.001c-0.831 0-1.452 0.503-1.452 1.308v7.95c0 0.806 0.621 1.242 1.452 1.242h1.884c1.371 0 2.631-0.376 3.683-1.087 1.053-0.738 1.731-2.579 1.731-4.23 0-1.624-0.678-3.465-1.745-4.149zM23 5.75h1.265c2.728 0 3.985 1.113 3.985 3.349s-1.221 3.651-3.985 3.651h-1.265v-7zM10.199 5.621c-0.326-0.597-0.787-1.034-1.38-1.313l-0.002 0.001c-0.593-0.278-1.223-0.37-1.866-0.269-0.481 0.075-1.063 0.285-1.766 0.627-0.689 0.334-1.221 0.655-1.599 0.971-0.817 0.685-1.312 1.613-1.49 2.755-0.185 1.081-0.101 2.3 0.246 3.651 0.341 1.327 0.93 2.747 1.766 4.261 0.831 1.523 1.9 3.066 3.206 4.63 0.99 1.165 1.995 2.203 3.017 3.119l0.377 0.342c0.881 0.784 1.771 1.465 2.663 2.036 1.029 0.659 2.039 1.166 3.032 1.52 1.018 0.363 1.997 0.547 2.936 0.547 0.579 0 1.114-0.076 1.6-0.231 0.498-0.158 0.941-0.398 1.326-0.716l0.141-0.111c0.335-0.276 0.717-0.671 1.133-1.175 0.483-0.585 0.808-1.080 0.977-1.499l0.076-0.17c0.183-0.461 0.208-0.985 0.065-1.525-0.158-0.599-0.5-1.116-1.012-1.537l-0.988-0.821-0.829-0.704-0.402-0.349c-0.563-0.495-1.108-0.99-1.632-1.485-0.421-0.451-1.017-0.73-1.719-0.792-0.681-0.060-1.322 0.083-1.898 0.423-0.223 0.15-0.39 0.281-0.54 0.417l-0.043 0.039-0.238 0.232-0.222 0.23-0.074 0.094-0.070 0.069-0.191 0.209c-0.075-0.033-0.167-0.081-0.273-0.139-0.276-0.153-0.589-0.384-0.934-0.692-0.356-0.318-0.745-0.724-1.162-1.217-0.386-0.461-0.704-0.89-0.954-1.282-0.243-0.382-0.418-0.72-0.527-1.010l-0.086-0.226c-0.035-0.101-0.059-0.185-0.073-0.254 0.038-0.019 0.080-0.039 0.126-0.059l0.039-0.019 0.156-0.086 0.15-0.073c0.069-0.033 0.132-0.073 0.191-0.12 0.166-0.091 0.318-0.183 0.454-0.277 0.153-0.105 0.301-0.219 0.444-0.34 0.502-0.506 0.775-1.051 0.855-1.663 0.081-0.621-0.063-1.217-0.425-1.765-0.578-0.836-1.070-1.59-1.484-2.276-0.413-0.684-0.78-1.345-1.1-1.982zM5.95 6.24c0.57-0.276 0.995-0.428 1.27-0.471l0.002-0.001c0.298-0.046 0.575-0.007 0.854 0.124l0.105 0.055c0.201 0.117 0.355 0.279 0.484 0.514 0.312 0.625 0.701 1.325 1.137 2.046s0.947 1.505 1.543 2.367c0.113 0.171 0.155 0.346 0.129 0.543l-0.018 0.095c-0.037 0.157-0.113 0.302-0.253 0.462l-0.043 0.046-0.089 0.073-0.153 0.111c-0.085 0.059-0.185 0.12-0.303 0.184l-0.125 0.075-0.044 0.031-0.097 0.047-0.156 0.086-0.219 0.105c-0.685 0.363-1.049 1.132-0.897 1.892 0.049 0.246 0.134 0.501 0.255 0.799l0.064 0.16c0.15 0.355 0.353 0.729 0.605 1.125 0.293 0.46 0.657 0.949 1.088 1.465 0.473 0.559 0.916 1.023 1.34 1.401 0.432 0.385 0.847 0.692 1.249 0.916 0.143 0.080 0.277 0.148 0.402 0.204 0.689 0.312 1.501 0.146 2.012-0.413l0.137-0.151 0.139-0.142 0.079-0.091 0.032-0.041 0.199-0.202 0.14-0.133 0.069-0.060c0.048-0.040 0.102-0.081 0.165-0.127l0.043-0.031 0.104-0.055c0.221-0.102 0.458-0.141 0.724-0.117 0.281 0.025 0.475 0.115 0.596 0.244l0.077 0.077 0.546 0.509c0.368 0.339 0.745 0.679 1.131 1.018l0.412 0.359 0.715 0.608 1.133 0.943c0.236 0.194 0.371 0.399 0.434 0.635 0.053 0.202 0.041 0.352-0.015 0.464l-0.093 0.206c-0.107 0.221-0.327 0.546-0.669 0.96-0.395 0.479-0.732 0.819-0.973 0.999l-0.136 0.105c-0.222 0.163-0.432 0.267-0.672 0.343-0.307 0.098-0.662 0.149-1.070 0.149-0.727 0-1.509-0.146-2.348-0.445-0.862-0.307-1.753-0.755-2.677-1.346-0.927-0.594-1.862-1.325-2.795-2.189-0.983-0.881-1.932-1.863-2.873-2.969-1.226-1.468-2.229-2.918-3.003-4.334-0.773-1.401-1.305-2.686-1.606-3.858-0.29-1.129-0.356-2.102-0.216-2.92 0.12-0.768 0.411-1.309 0.891-1.711 0.247-0.206 0.661-0.457 1.239-0.738zM19.5 4.875c0-0.483-0.392-0.875-0.875-0.875s-0.875 0.392-0.875 0.875v8.75c0 0.483 0.392 0.875 0.875 0.875s0.875-0.392 0.875-0.875v-8.75z"></path>
</svg>
