<?xml version="1.0" encoding="UTF-8"?>
<svg viewBox="0 0 32 32" version="1.1" xmlns="http://www.w3.org/2000/svg" xmlns:xlink="http://www.w3.org/1999/xlink">
<title>customize-tabs</title>
<path d="M22.32 22.967c0.962 0 1.742 0.78 1.742 1.742s-0.78 1.742-1.742 1.742h-18.014c-0.962 0-1.742-0.78-1.742-1.742s0.78-1.742 1.742-1.742h18.014zM27.694 14.258c0.962 0 1.742 0.78 1.742 1.742s-0.78 1.742-1.742 1.742h-14.431c-0.962 0-1.742-0.78-1.742-1.742s0.78-1.742 1.742-1.742h14.431zM22.32 5.55c0.962 0 1.742 0.78 1.742 1.742s-0.78 1.742-1.742 1.742h-18.014c-0.962 0-1.742-0.78-1.742-1.742s0.78-1.742 1.742-1.742h18.014z"></path>
</svg>
