<?xml version="1.0" encoding="UTF-8"?>
<svg viewBox="0 0 32 32" version="1.1" xmlns="http://www.w3.org/2000/svg" xmlns:xlink="http://www.w3.org/1999/xlink">
<title>ai-indicator-border</title>
<path d="M20.797 7.735c0.266 0.088 0.508 0.174 0.729 0.262 0.012 0.005 0.024 0.009 0.036 0.014 0.027 0.011 0.054 0.022 0.080 0.033l0.004 0.002c1.241 0.51 1.812 1.081 2.321 2.323l0.002 0.004c0.015 0.036 0.029 0.072 0.044 0.109 0.003 0.007 0.005 0.013 0.008 0.020 0.086 0.22 0.171 0.46 0.258 0.723 0.319 0.944 1.613 0.944 1.932 0 0.087-0.263 0.172-0.503 0.258-0.723 0.003-0.007 0.005-0.014 0.008-0.020 0.015-0.037 0.029-0.073 0.044-0.109l0.002-0.004c0.509-1.242 1.079-1.812 2.321-2.323l0.004-0.001c0.032-0.013 0.063-0.026 0.096-0.039 0.007-0.003 0.014-0.005 0.021-0.008 0.221-0.087 0.463-0.174 0.729-0.262 0.942-0.32 0.942-1.617 0-1.937-0.266-0.088-0.508-0.174-0.729-0.262-0.007-0.003-0.014-0.005-0.021-0.008-0.032-0.013-0.064-0.026-0.096-0.039l-0.004-0.001c-1.242-0.51-1.812-1.080-2.321-2.322l-0.002-0.005c-0.015-0.036-0.029-0.072-0.044-0.109-0.003-0.007-0.005-0.013-0.008-0.020-0.086-0.22-0.171-0.46-0.258-0.723-0.319-0.944-1.613-0.944-1.932 0-0.087 0.263-0.172 0.503-0.258 0.723-0.003 0.007-0.005 0.014-0.008 0.020-0.015 0.037-0.029 0.073-0.044 0.109l-0.002 0.004c-0.509 1.242-1.080 1.812-2.321 2.323l-0.007 0.003c-0.037 0.015-0.075 0.030-0.113 0.045-0.017 0.007-0.034 0.013-0.051 0.020-0.208 0.081-0.432 0.16-0.678 0.242-0.463 0.16-0.703 0.56-0.703 0.976s0.24 0.816 0.703 0.96zM24.245 6.766c0.186-0.143 0.365-0.3 0.537-0.472 0.169-0.169 0.322-0.346 0.463-0.529 0.141 0.183 0.294 0.359 0.463 0.529 0.172 0.172 0.351 0.329 0.537 0.472-0.186 0.143-0.365 0.3-0.537 0.472-0.169 0.169-0.323 0.346-0.463 0.528-0.141-0.183-0.294-0.359-0.463-0.528-0.172-0.172-0.351-0.329-0.537-0.472zM6.407 14.585l-3.21 0.912c-0.942 0.272-1.597 1.136-1.597 2.113s0.655 1.841 1.581 2.113l3.21 0.928c2.428 0.688 4.28 2.561 4.983 4.994l0.926 3.217c0.271 0.928 1.102 1.537 2.108 1.537s1.837-0.624 2.108-1.537l0.926-3.217c0.687-2.433 2.555-4.29 4.983-4.994l3.21-0.912c0.668-0.193 1.191-0.683 1.44-1.3 0.102-0.254 0.158-0.528 0.158-0.813 0-0.958-0.63-1.808-1.529-2.097-0.016-0.005-0.032-0.010-0.048-0.015l-0.004-0.001v0.016l-3.21-0.928c-2.428-0.688-4.28-2.561-4.983-4.994l-0.926-3.233c-0.271-0.928-1.134-1.585-2.108-1.585s-1.837 0.656-2.108 1.585l-0.926 3.217c-0.687 2.433-2.555 4.29-4.983 4.994zM13.698 10.25l0.726-2.522 0.729 2.545c0.927 3.21 3.39 5.715 6.628 6.635l2.497 0.722-2.52 0.716c-3.208 0.931-5.706 3.4-6.622 6.641l-0.002 0.007-0.725 2.517-0.729-2.531c-0.927-3.21-3.39-5.715-6.628-6.635l-2.525-0.73 2.548-0.724c3.208-0.931 5.705-3.401 6.622-6.641z"></path>
</svg>
