<?xml version="1.0" encoding="UTF-8"?>
<svg viewBox="0 0 32 32" version="1.1" xmlns="http://www.w3.org/2000/svg" xmlns:xlink="http://www.w3.org/1999/xlink">
<title>outdent</title>
<path d="M27 24c0.552 0 1 0.448 1 1s-0.448 1-1 1h-22c-0.552 0-1-0.448-1-1s0.448-1 1-1h22zM8.402 12.201c0.776-0.449 1.535-0.132 1.594 0.805l0.004 0.138v5.748l-0.010 0.206c-0.101 0.872-0.907 1.135-1.65 0.684l-0.111-0.073-3.737-2.684-0.152-0.131c-0.474-0.485-0.445-1.297 0.048-1.762l0.105-0.088 3.737-2.73 0.174-0.114zM27 15c0.552 0 1 0.448 1 1s-0.448 1-1 1h-14c-0.552 0-1-0.448-1-1s0.448-1 1-1h14zM27 6c0.552 0 1 0.448 1 1s-0.448 1-1 1h-22c-0.552 0-1-0.448-1-1s0.448-1 1-1h22z"></path>
</svg>
