<?xml version="1.0" encoding="UTF-8"?>
<svg viewBox="0 0 32 32" version="1.1" xmlns="http://www.w3.org/2000/svg" xmlns:xlink="http://www.w3.org/1999/xlink">
<title>double-chevron_left</title>
<path d="M5 4c0.552 0 1 0.448 1 1v22c0 0.552-0.448 1-1 1s-1-0.448-1-1v-22c0-0.552 0.448-1 1-1zM17.314 6.101c0.391 0.391 0.391 1.024 0 1.414l-7.487 7.485h17.173c0.552 0 1 0.448 1 1s-0.448 1-1 1h-17.171l7.485 7.485c0.391 0.391 0.391 1.024 0 1.414s-1.024 0.391-1.414 0l-9.192-9.192c-0.391-0.391-0.391-1.024 0-1.414l9.192-9.192c0.391-0.391 1.024-0.391 1.414 0z"></path>
</svg>
