<?xml version="1.0" encoding="UTF-8"?>
<svg viewBox="0 0 32 32" version="1.1" xmlns="http://www.w3.org/2000/svg" xmlns:xlink="http://www.w3.org/1999/xlink">
<title>whats-new</title>
<path d="M12 10.048v8h-4v-8h4zM14 9.756l10-4.754v18.092l-10-4.754v-8.585zM8 8.048c-1.105 0-2 0.895-2 2h-2c-1.105 0-2 0.895-2 2v4c0 1.105 0.895 2 2 2h2c0 0.74 0.402 1.387 1 1.732v5.268c0 1.657 1.343 3 3 3s3-1.343 3-3v-5l10.257 4.903c1.314 0.526 2.743-0.442 2.743-1.857v-5.046c2.209 0 4-1.791 4-4s-1.791-4-4-4v-5.046c0-1.415-1.429-2.382-2.743-1.857l-10.257 4.903h-5zM4 12.048h2v4h-2v-4zM9 25.048v-5h2v5c0 0.552-0.448 1-1 1s-1-0.448-1-1zM28 14.048c0 1.104-0.895 2-2 2v-4c1.105 0 2 0.895 2 2z"></path>
</svg>
