<?xml version="1.0" encoding="UTF-8"?>
<svg viewBox="0 0 32 32" version="1.1" xmlns="http://www.w3.org/2000/svg" xmlns:xlink="http://www.w3.org/1999/xlink">
<title>add-team</title>
<path d="M27 19c2.761 0 5 2.239 5 5s-2.239 5-5 5c-2.761 0-5-2.239-5-5s2.239-5 5-5zM8 19c0.9 0 1.769 0.13 2.582 0.373-1.613 1.812-2.582 4.086-2.582 6.627 0 0.638 0.149 1.241 0.415 1.776l0.121 0.225-6.536-0.001c-1.105 0-2-0.895-2-2 0-3.955 3.654-7 8-7zM21 17c1.216 0 2.392 0.161 3.495 0.461-2.629 1.008-4.495 3.556-4.495 6.539 0 1.487 0.464 2.866 1.255 4l-9.255-0c-1.105 0-2-0.895-2-2 0-5.096 5.019-9 11-9zM27 20c-0.473 0-0.87 0.329-0.974 0.771l-0.020 0.113-0.007 0.117v2h-2l-0.117 0.007c-0.497 0.058-0.883 0.48-0.883 0.993 0 0.473 0.329 0.87 0.771 0.974l0.113 0.020 0.117 0.007h1.999l0.001 2 0.007 0.117c0.058 0.497 0.48 0.883 0.993 0.883 0.473 0 0.87-0.329 0.974-0.771l0.020-0.113 0.007-0.117-0.001-2h2.001l0.117-0.007c0.497-0.058 0.883-0.48 0.883-0.993 0-0.473-0.329-0.87-0.771-0.974l-0.113-0.020-0.117-0.007h-2v-2l-0.007-0.117c-0.058-0.497-0.48-0.883-0.993-0.883zM8 7c2.761 0 5 2.239 5 5s-2.239 5-5 5c-2.761 0-5-2.239-5-5s2.239-5 5-5zM21 3c3.314 0 6 2.686 6 6s-2.686 6-6 6c-3.314 0-6-2.686-6-6s2.686-6 6-6z"></path>
</svg>
