<?xml version="1.0" encoding="UTF-8"?>
<svg viewBox="0 0 32 32" version="1.1" xmlns="http://www.w3.org/2000/svg" xmlns:xlink="http://www.w3.org/1999/xlink">
<title>airbrake</title>
<path d="M16.175 2.248l13.642 6.947v13.541l-13.607 7.017-0.035-0.001-0.072 0.001h-0.416l-13.503-7.017v-13.541l13.503-6.947h0.488zM17.354 9.358h-2.793l-4.303 10.767c-0.122 0.335-0.285 0.411-0.632 0.411v0h-0.326v2.071h1.611c1.020 0 1.366-0.243 1.692-1.083v0l0.897-2.314h4.894l0.897 2.314c0.326 0.84 0.693 1.083 1.713 1.083v0h1.59v-2.071h-0.326c-0.346 0-0.509-0.075-0.632-0.411v0l-4.282-10.767zM15.967 11.895c0 0 0.306 1.251 0.571 1.979v0l1.244 3.322h-3.67l1.244-3.322c0.265-0.727 0.571-1.979 0.571-1.979v0z"></path>
</svg>
