<?xml version="1.0" encoding="UTF-8"?>
<svg viewBox="0 0 32 32" version="1.1" xmlns="http://www.w3.org/2000/svg" xmlns:xlink="http://www.w3.org/1999/xlink">
<title>inbound-fax</title>
<path d="M23 4c0.552 0 1 0.448 1 1s-0.448 1-1 1h-2v13h-7c-1.054 0-1.918 0.816-1.995 1.851l-0.005 0.149v7h-7c-1.105 0-2-0.895-2-2v-20h-2c-0.552 0-1-0.448-1-1s0.448-1 1-1h22zM20.728 21l-0.025 0.058c-0.145 0.301-0.341 0.579-0.582 0.82l-5.536 5.536c-0.125 0.125-0.265 0.232-0.415 0.319l-0.17 0.086v-5.819c0-0.513 0.386-0.936 0.883-0.993l0.117-0.007h5.728zM28.379 10.707c0.39-0.39 1.023-0.39 1.414 0 0.36 0.36 0.388 0.928 0.083 1.32l-0.083 0.094-3.707 3.879 3.707 3.879c0.39 0.39 0.39 1.023 0 1.414-0.36 0.36-0.928 0.388-1.32 0.083l-0.094-0.083-4.586-4.586c-0.36-0.361-0.388-0.928-0.083-1.32l0.083-0.094 4.586-4.586zM15.167 14h-6.333c-0.46 0-0.833 0.448-0.833 1 0 0.513 0.322 0.935 0.736 0.993l0.097 0.007h6.333c0.46 0 0.833-0.448 0.833-1s-0.373-1-0.833-1zM15.167 9h-6.333c-0.46 0-0.833 0.448-0.833 1 0 0.513 0.322 0.935 0.736 0.993l0.097 0.007h6.333c0.46 0 0.833-0.448 0.833-1s-0.373-1-0.833-1z"></path>
</svg>
