<?xml version="1.0" encoding="UTF-8"?>
<svg viewBox="0 0 32 32" version="1.1" xmlns="http://www.w3.org/2000/svg" xmlns:xlink="http://www.w3.org/1999/xlink">
<title>marker_m</title>
<path fill="#fff" style="fill: var(--color2, #fff)" d="M15.76 28.205l0.662-0.632 0.675-0.651c5.969-5.818 8.982-10.512 8.982-14.218 0-5.776-4.617-10.464-10.32-10.464s-10.32 4.688-10.32 10.464c0 3.843 3.24 8.75 9.658 14.869l0.662 0.632zM7.36 12.704c0-4.722 3.764-8.544 8.4-8.544s8.4 3.822 8.4 8.544c0 2.982-2.679 7.203-8.091 12.538l-0.309 0.303c-5.619-5.478-8.4-9.802-8.4-12.841z"></path>
<path fill="#ffd800" style="fill: var(--color83, #ffd800)" d="M7.36 12.704c0-4.722 3.764-8.544 8.4-8.544s8.4 3.822 8.4 8.544c0 2.982-2.679 7.203-8.091 12.538l-0.309 0.303c-5.619-5.478-8.4-9.802-8.4-12.841z"></path>
</svg>
