<?xml version="1.0" encoding="UTF-8"?>
<svg viewBox="0 0 34 32" version="1.1" xmlns="http://www.w3.org/2000/svg" xmlns:xlink="http://www.w3.org/1999/xlink">
<title>ai-indicator</title>
<path d="M25.453 3.322c0.665 2.016 1.213 2.564 3.224 3.231 0.872 0.296 0.872 1.497 0 1.793-2.011 0.667-2.558 1.215-3.224 3.231-0.296 0.874-1.494 0.874-1.789 0-0.665-2.016-1.213-2.564-3.224-3.231-0.429-0.133-0.651-0.504-0.651-0.889s0.222-0.756 0.651-0.904c2.011-0.667 2.558-1.215 3.224-3.231 0.296-0.874 1.494-0.874 1.789 0zM21.963 14.704l2.972 0.86v-0.015c0.858 0.252 1.464 1.052 1.464 1.956s-0.606 1.704-1.479 1.956l-2.972 0.845c-2.248 0.652-3.978 2.371-4.614 4.624l-0.858 2.979c-0.251 0.845-1.020 1.423-1.952 1.423s-1.701-0.563-1.952-1.423l-0.858-2.979c-0.651-2.253-2.366-3.987-4.614-4.624l-2.972-0.86c-0.858-0.252-1.464-1.052-1.464-1.956s0.606-1.704 1.479-1.956l2.972-0.845c2.248-0.652 3.978-2.371 4.614-4.624l0.858-2.979c0.251-0.86 1.050-1.467 1.952-1.467s1.701 0.608 1.952 1.467l0.858 2.994c0.651 2.253 2.366 3.987 4.614 4.624z"></path>
</svg>
