<?xml version="1.0" encoding="UTF-8"?>
<svg viewBox="0 0 32 32" version="1.1" xmlns="http://www.w3.org/2000/svg" xmlns:xlink="http://www.w3.org/1999/xlink">
<title>rc-logo</title>
<path fill="#ff7a00" d="M21.732 0h-11.463c-3.027 0-4.482 0.281-5.993 1.089-1.37 0.733-2.454 1.816-3.187 3.186-0.808 1.511-1.089 2.966-1.089 5.993v11.463c0 3.027 0.281 4.482 1.089 5.993 0.733 1.37 1.816 2.454 3.187 3.186 1.511 0.808 2.966 1.089 5.993 1.089h11.463c3.027 0 4.482-0.281 5.993-1.089 1.37-0.733 2.454-1.816 3.186-3.186 0.808-1.511 1.089-2.966 1.089-5.993v-11.463c0-3.027-0.281-4.482-1.089-5.993-0.733-1.37-1.816-2.454-3.186-3.187-1.511-0.808-2.966-1.089-5.993-1.089zM10.226 2.75l12.816 0.024 0.102 0.005 0.1 0.005 0.066 0.003 0.097 0.006 0.064 0.004 0.063 0.004 0.062 0.004 0.061 0.004 0.060 0.005 0.060 0.005 0.059 0.005 0.058 0.005 0.057 0.005 0.084 0.008 0.055 0.006 0.055 0.006 0.054 0.006 0.053 0.006 0.052 0.006 0.052 0.007 0.051 0.007 0.050 0.007 0.049 0.007 0.049 0.007 0.048 0.007 0.047 0.008 0.047 0.008c0.008 0.001 0.015 0.003 0.023 0.004l0.046 0.008 0.045 0.008 0.045 0.008c0.007 0.001 0.015 0.003 0.022 0.004 0.598 0.116 1.028 0.274 1.549 0.552 0.891 0.476 1.582 1.167 2.058 2.058 0.278 0.521 0.437 0.95 0.552 1.549l0.008 0.044 0.008 0.045c0.001 0.008 0.003 0.015 0.004 0.023l0.008 0.046 0.008 0.046 0.008 0.047c0.001 0.008 0.003 0.016 0.004 0.024l0.007 0.048 0.007 0.049 0.007 0.049 0.007 0.050 0.007 0.051 0.007 0.052 0.006 0.052 0.006 0.053 0.006 0.054 0.006 0.054 0.006 0.055 0.006 0.056 0.008 0.085 0.005 0.058 0.005 0.059 0.005 0.060 0.005 0.060 0.004 0.061 0.004 0.062 0.004 0.063 0.004 0.064 0.004 0.065 0.004 0.065 0.003 0.066 0.003 0.067 0.005 0.102 0.003 0.069 0.003 0.070 0.002 0.071 0.003 0.109 0.003 0.111 0.003 0.113 0.002 0.115 0.001 0.078 0.002 0.119 0.001 0.080 0.001 0.123 0 0.083 0 0.126v11.548l-0 0.126-0.001 0.124-0.001 0.081-0.001 0.080-0.002 0.119-0.001 0.078-0.001 0.077-0.002 0.114-0.003 0.111-0.002 0.073-0.003 0.108-0.004 0.106-0.003 0.069-0.005 0.102-0.005 0.1-0.003 0.066-0.006 0.097-0.004 0.064-0.004 0.063-0.004 0.062-0.004 0.061-0.005 0.060-0.005 0.060-0.005 0.059-0.005 0.058-0.005 0.057-0.008 0.084-0.006 0.055-0.006 0.055-0.006 0.054-0.006 0.053-0.006 0.052-0.007 0.052-0.007 0.051-0.007 0.050-0.007 0.049-0.007 0.049-0.007 0.048-0.008 0.047-0.008 0.047c-0.001 0.008-0.003 0.015-0.004 0.023l-0.008 0.046-0.008 0.045-0.008 0.045c-0.001 0.007-0.003 0.015-0.004 0.022-0.116 0.598-0.274 1.028-0.552 1.549-0.476 0.891-1.167 1.582-2.058 2.058-0.521 0.278-0.95 0.437-1.549 0.552l-0.044 0.008-0.045 0.008c-0.008 0.001-0.015 0.003-0.023 0.004l-0.046 0.008-0.046 0.008-0.047 0.008c-0.008 0.001-0.016 0.003-0.024 0.004l-0.048 0.007-0.049 0.007-0.049 0.007-0.050 0.007-0.051 0.007-0.052 0.007-0.052 0.006-0.053 0.006-0.054 0.006-0.055 0.006-0.055 0.006-0.056 0.006-0.085 0.008-0.058 0.005-0.059 0.005-0.060 0.005-0.060 0.005-0.061 0.004-0.062 0.004-0.063 0.004-0.064 0.004-0.065 0.004-0.065 0.004-0.066 0.003-0.067 0.003-0.102 0.005-0.069 0.003-0.070 0.003-0.071 0.002-0.109 0.003-0.111 0.003-0.113 0.003-0.115 0.002-0.078 0.001-0.119 0.002-0.080 0.001-0.123 0.001-0.083 0-0.126 0-12.816-0.024-0.102-0.005-0.1-0.005-0.066-0.003-0.097-0.006-0.064-0.004-0.063-0.004-0.062-0.004-0.061-0.004-0.060-0.005-0.060-0.005-0.059-0.005-0.058-0.005-0.057-0.005-0.084-0.008-0.055-0.006-0.054-0.006-0.054-0.006-0.053-0.006-0.052-0.006-0.052-0.007-0.051-0.007-0.050-0.007-0.049-0.007-0.049-0.007-0.048-0.007-0.047-0.008-0.047-0.008c-0.008-0.001-0.015-0.003-0.023-0.004l-0.046-0.008-0.045-0.008-0.045-0.008c-0.007-0.001-0.015-0.003-0.022-0.004-0.598-0.116-1.028-0.274-1.549-0.552-0.891-0.476-1.582-1.167-2.058-2.058-0.278-0.521-0.437-0.95-0.552-1.549l-0.008-0.044-0.008-0.045c-0.001-0.008-0.003-0.015-0.004-0.023l-0.008-0.046-0.008-0.046-0.008-0.047c-0.001-0.008-0.002-0.016-0.004-0.024l-0.007-0.048-0.007-0.049-0.007-0.049-0.007-0.050-0.007-0.051-0.007-0.052-0.006-0.052-0.006-0.053-0.006-0.054-0.006-0.055-0.006-0.055-0.006-0.056-0.008-0.085-0.005-0.058-0.005-0.059-0.005-0.060-0.005-0.060-0.004-0.061-0.004-0.062-0.004-0.063-0.004-0.064-0.004-0.065-0.004-0.065-0.003-0.066-0.003-0.067-0.005-0.102-0.003-0.069-0.003-0.070-0.002-0.071-0.003-0.109-0.003-0.111-0.003-0.113-0.002-0.115-0.001-0.078-0.002-0.119-0.001-0.080-0.001-0.123-0-0.083-0-0.126v-11.548l0-0.126 0.001-0.124 0.001-0.081 0.001-0.080 0.002-0.119 0.001-0.078 0.001-0.077 0.002-0.114 0.003-0.111 0.002-0.073 0.003-0.108 0.004-0.106 0.003-0.069 0.005-0.102 0.005-0.1 0.003-0.066 0.006-0.097 0.004-0.064 0.004-0.063 0.004-0.062 0.004-0.061 0.005-0.060 0.005-0.060 0.005-0.059 0.005-0.058 0.005-0.057 0.008-0.084 0.006-0.055 0.006-0.054 0.006-0.054 0.006-0.053 0.006-0.052 0.007-0.052 0.007-0.051 0.007-0.050 0.007-0.049 0.007-0.049 0.007-0.048 0.008-0.047 0.008-0.047c0.001-0.008 0.003-0.015 0.004-0.023l0.008-0.046 0.008-0.045 0.008-0.045c0.001-0.007 0.003-0.015 0.004-0.022 0.116-0.598 0.274-1.028 0.552-1.549 0.476-0.891 1.167-1.582 2.058-2.058 0.521-0.278 0.95-0.437 1.549-0.552l0.044-0.008 0.045-0.008c0.008-0.001 0.015-0.003 0.023-0.004l0.046-0.008 0.046-0.008 0.047-0.008c0.008-0.001 0.016-0.002 0.024-0.004l0.048-0.007 0.049-0.007 0.049-0.007 0.050-0.007 0.051-0.007 0.052-0.007 0.052-0.006 0.053-0.006 0.054-0.006 0.054-0.006 0.055-0.006 0.056-0.006 0.085-0.008 0.058-0.005 0.059-0.005 0.060-0.005 0.060-0.005 0.061-0.004 0.062-0.004 0.063-0.004 0.064-0.004 0.065-0.004 0.065-0.004 0.066-0.003 0.067-0.003 0.102-0.005 0.069-0.003 0.070-0.003 0.071-0.002 0.109-0.003 0.111-0.003 0.113-0.003 0.115-0.002 0.078-0.001 0.119-0.002 0.080-0.001 0.123-0.001 0.083-0 0.126-0z"></path>
<path fill="#fff" d="M10.206 2.704l12.86 0.024 0.103 0.005 0.101 0.005 0.066 0.003 0.098 0.006 0.064 0.004 0.063 0.004 0.062 0.004 0.061 0.004 0.061 0.005 0.060 0.005 0.059 0.005 0.058 0.005 0.057 0.005 0.085 0.008 0.055 0.006 0.055 0.006 0.054 0.006 0.053 0.006 0.052 0.006 0.052 0.007 0.051 0.007 0.050 0.007 0.050 0.007 0.049 0.007 0.048 0.007 0.048 0.008 0.047 0.008c0.008 0.001 0.015 0.003 0.023 0.004l0.046 0.008 0.045 0.008 0.045 0.008c0.007 0.001 0.015 0.003 0.022 0.004 0.6 0.116 1.032 0.275 1.554 0.554 0.894 0.478 1.587 1.171 2.066 2.066 0.279 0.522 0.438 0.954 0.554 1.554l0.008 0.044 0.008 0.045c0.001 0.008 0.003 0.015 0.004 0.023l0.008 0.046 0.008 0.047 0.008 0.047c0.001 0.008 0.003 0.016 0.004 0.024l0.007 0.048 0.007 0.049 0.007 0.050 0.007 0.050 0.007 0.051 0.007 0.052 0.006 0.052 0.006 0.053 0.006 0.054 0.006 0.055 0.006 0.055 0.006 0.056 0.008 0.086 0.005 0.058 0.005 0.059 0.005 0.060 0.005 0.061 0.004 0.061 0.004 0.062 0.004 0.063 0.004 0.064 0.004 0.065 0.004 0.066 0.003 0.067 0.003 0.067 0.005 0.103 0.003 0.070 0.003 0.071 0.002 0.072 0.003 0.109 0.003 0.111 0.003 0.113 0.002 0.116 0.001 0.078 0.002 0.119 0.001 0.081 0.001 0.123 0 0.083 0 0.127v11.588l-0 0.127-0.001 0.125-0.001 0.082-0.001 0.081-0.002 0.119-0.001 0.078-0.001 0.077-0.002 0.114-0.003 0.112-0.002 0.073-0.003 0.108-0.004 0.106-0.003 0.070-0.005 0.103-0.005 0.101-0.003 0.066-0.006 0.098-0.004 0.064-0.004 0.063-0.004 0.062-0.004 0.061-0.005 0.061-0.005 0.060-0.005 0.059-0.005 0.058-0.005 0.057-0.008 0.085-0.006 0.055-0.006 0.055-0.006 0.054-0.006 0.053-0.006 0.052-0.007 0.052-0.007 0.051-0.007 0.050-0.007 0.050-0.007 0.049-0.007 0.048-0.008 0.048-0.008 0.047c-0.001 0.008-0.003 0.015-0.004 0.023l-0.008 0.046-0.008 0.045-0.008 0.045c-0.001 0.007-0.003 0.015-0.004 0.022-0.116 0.6-0.275 1.032-0.554 1.554-0.478 0.894-1.172 1.587-2.066 2.066-0.522 0.279-0.954 0.438-1.554 0.554l-0.044 0.008-0.045 0.008c-0.008 0.001-0.015 0.003-0.023 0.004l-0.046 0.008-0.047 0.008-0.047 0.008c-0.008 0.001-0.016 0.003-0.024 0.004l-0.048 0.007-0.049 0.007-0.050 0.007-0.050 0.007-0.051 0.007-0.052 0.007-0.052 0.006-0.053 0.006-0.054 0.006-0.055 0.006-0.055 0.006-0.056 0.006-0.086 0.008-0.058 0.005-0.059 0.005-0.060 0.005-0.061 0.005-0.061 0.004-0.062 0.004-0.063 0.004-0.064 0.004-0.065 0.004-0.066 0.004-0.067 0.003-0.067 0.003-0.103 0.005-0.070 0.003-0.071 0.003-0.072 0.002-0.109 0.003-0.111 0.003-0.113 0.003-0.116 0.002-0.078 0.001-0.119 0.002-0.081 0.001-0.206 0.001-0.127 0-12.86-0.024-0.103-0.005-0.101-0.005-0.066-0.003-0.098-0.006-0.064-0.004-0.063-0.004-0.062-0.004-0.061-0.004-0.061-0.005-0.060-0.005-0.059-0.005-0.058-0.005-0.057-0.005-0.085-0.008-0.055-0.006-0.055-0.006-0.054-0.006-0.053-0.006-0.052-0.006-0.052-0.007-0.051-0.007-0.050-0.007-0.050-0.007-0.049-0.007-0.048-0.007-0.048-0.008-0.047-0.008c-0.008-0.001-0.016-0.003-0.023-0.004l-0.046-0.008-0.045-0.008-0.045-0.008c-0.007-0.001-0.015-0.003-0.022-0.004-0.6-0.116-1.032-0.275-1.554-0.554-0.894-0.478-1.587-1.172-2.066-2.066-0.279-0.522-0.438-0.954-0.554-1.554l-0.008-0.044-0.008-0.045c-0.001-0.008-0.003-0.015-0.004-0.023l-0.008-0.046-0.008-0.047-0.008-0.047c-0.001-0.008-0.003-0.016-0.004-0.024l-0.007-0.048-0.007-0.049-0.007-0.050-0.007-0.050-0.007-0.051-0.007-0.052-0.006-0.052-0.006-0.053-0.006-0.054-0.006-0.055-0.006-0.055-0.006-0.056-0.008-0.086-0.005-0.058-0.005-0.059-0.005-0.060-0.005-0.061-0.004-0.061-0.004-0.062-0.004-0.063-0.004-0.064-0.004-0.065-0.004-0.066-0.003-0.067-0.003-0.067-0.005-0.103-0.003-0.070-0.003-0.071-0.002-0.072-0.003-0.109-0.003-0.111-0.003-0.113-0.002-0.116-0.001-0.078-0.002-0.119-0.001-0.081-0.001-0.123-0-0.083-0-0.127v-11.588l0-0.127 0.001-0.125 0.001-0.082 0.001-0.081 0.002-0.119 0.001-0.078 0.001-0.077 0.002-0.114 0.003-0.112 0.002-0.073 0.003-0.108 0.004-0.106 0.003-0.070 0.005-0.103 0.005-0.101 0.003-0.066 0.006-0.098 0.004-0.064 0.004-0.063 0.004-0.062 0.004-0.061 0.005-0.061 0.005-0.060 0.005-0.059 0.005-0.058 0.005-0.057 0.008-0.085 0.006-0.055 0.006-0.055 0.006-0.054 0.006-0.053 0.006-0.052 0.007-0.052 0.007-0.051 0.007-0.050 0.007-0.050 0.007-0.049 0.007-0.048 0.008-0.048 0.008-0.047c0.001-0.008 0.003-0.016 0.004-0.023l0.008-0.046 0.008-0.045 0.008-0.045c0.001-0.007 0.003-0.015 0.004-0.022 0.116-0.6 0.275-1.032 0.554-1.554 0.478-0.894 1.172-1.587 2.066-2.066 0.522-0.279 0.954-0.438 1.554-0.554l0.044-0.008 0.045-0.008c0.008-0.001 0.015-0.003 0.023-0.004l0.046-0.008 0.047-0.008 0.047-0.008c0.008-0.001 0.016-0.003 0.024-0.004l0.048-0.007 0.049-0.007 0.050-0.007 0.050-0.007 0.051-0.007 0.052-0.007 0.052-0.006 0.053-0.006 0.054-0.006 0.055-0.006 0.055-0.006 0.056-0.006 0.086-0.008 0.058-0.005 0.059-0.005 0.060-0.005 0.061-0.005 0.061-0.004 0.062-0.004 0.063-0.004 0.064-0.004 0.065-0.004 0.066-0.004 0.067-0.003 0.067-0.003 0.103-0.005 0.070-0.003 0.071-0.003 0.072-0.002 0.109-0.003 0.111-0.003 0.113-0.003 0.116-0.002 0.078-0.001 0.119-0.002 0.081-0.001 0.206-0.001 0.127-0z"></path>
<path fill="#0684bc" d="M10.772 25.236c0.063 0.003 0.126-0.008 0.185-0.030s0.113-0.057 0.158-0.101c0.044-0.045 0.079-0.099 0.102-0.158s0.034-0.122 0.031-0.185v-13.355c-0.008-0.057-0.003-0.116 0.015-0.171s0.049-0.105 0.090-0.146c0.041-0.041 0.091-0.072 0.145-0.090s0.113-0.024 0.17-0.016h8.659c0.057-0.006 0.114 0.001 0.167 0.020s0.102 0.050 0.141 0.091c0.040 0.041 0.069 0.090 0.087 0.144s0.023 0.111 0.015 0.168v4.169c0.008 0.056 0.003 0.114-0.014 0.168s-0.047 0.104-0.087 0.145-0.088 0.072-0.142 0.091c-0.054 0.019-0.111 0.026-0.168 0.019h-3.901c-0.058-0.009-0.117-0.005-0.173 0.013s-0.107 0.049-0.149 0.090c-0.042 0.041-0.073 0.092-0.092 0.147s-0.024 0.115-0.015 0.173v1.848c-0.008 0.421 0.032 0.841 0.119 1.252 0.090 0.372 0.247 0.726 0.462 1.043l2.691 4.223c0.093 0.151 0.226 0.272 0.385 0.352s0.336 0.113 0.512 0.098h3.511c0.177 0 0.291-0.047 0.345-0.146 0.024-0.058 0.032-0.122 0.023-0.185s-0.036-0.121-0.076-0.17l-2.669-4.311c-0.123-0.177-0.078-0.316 0.133-0.423l1.872-0.844c0.603-0.243 1.115-0.668 1.466-1.215 0.325-0.576 0.485-1.23 0.464-1.891v-6.124c0-1.039-0.268-1.826-0.805-2.363s-1.324-0.805-2.363-0.805h-12.141c-1.017 0-1.799 0.268-2.347 0.805s-0.821 1.324-0.821 2.363v14.834c-0.003 0.063 0.008 0.126 0.030 0.185s0.057 0.113 0.101 0.158c0.045 0.044 0.099 0.078 0.158 0.101s0.122 0.033 0.185 0.030h3.537z"></path>
</svg>
