<?xml version="1.0" encoding="UTF-8"?>
<svg viewBox="0 0 32 32" version="1.1" xmlns="http://www.w3.org/2000/svg" xmlns:xlink="http://www.w3.org/1999/xlink">
<title>thread-reply</title>
<path d="M16.099 6.667c0.872 0 1.586 0.67 1.649 1.521l0.005 0.122 0.001 4.249 0.826-0.001c5.939 0 10.753 4.782 10.753 10.681v2.465c0 0.979-1.415 1.137-1.634 0.182-0.662-2.897-3.226-5.017-6.235-5.108l-0.218-0.003h-3.492l-0.001 4.249c0 0.435-0.175 0.854-0.485 1.162-0.612 0.608-1.584 0.64-2.234 0.096l-0.001 0.002-0.105-0.096-8.414-8.358c-0.612-0.608-0.644-1.573-0.097-2.219l0.097-0.104 8.414-8.358c0.31-0.308 0.731-0.481 1.17-0.481zM12.428 6.854c0.29 0.311 0.294 0.792 0.011 1.108l-0.155 0.172-8.441 8.532 8.441 8.4 0.152 0.169c0.305 0.337 0.278 0.858-0.059 1.163-0.281 0.254-0.693 0.28-1 0.080l-0.11-0.086-8.588-8.546c-0.657-0.634-0.675-1.681-0.041-2.338l0.065-0.064 0.068-0.060 8.496-8.571c0.332-0.309 0.852-0.291 1.161 0.041zM15.934 8.542c-0.044 0-0.086 0.017-0.117 0.048l-8.014 7.961c-0.065 0.064-0.065 0.168 0 0.233l8.014 7.961c0.065 0.064 0.17 0.064 0.234 0 0.031-0.031 0.049-0.072 0.049-0.116l0.001-4.673c0-0.454 0.371-0.822 0.827-0.822l4.575 0.004c2.343 0.071 4.466 1.117 5.938 2.765l0.167 0.193-0.033-0.233c-0.628-4.071-3.99-7.248-8.166-7.622l0.001-0.037-2.482-0.001c-0.424 0-0.774-0.317-0.821-0.726l-0.006-0.096-0.001-4.674c0-0.090-0.074-0.164-0.165-0.164z"></path>
</svg>
