<?xml version="1.0" encoding="UTF-8"?>
<svg viewBox="0 0 32 32" version="1.1" xmlns="http://www.w3.org/2000/svg" xmlns:xlink="http://www.w3.org/1999/xlink">
<title>dock_border</title>
<path d="M8 10v2h-4v16h16v-4h2v4c0 1.105-0.895 2-2 2h-16c-1.105 0-2-0.895-2-2v-16c0-1.105 0.895-2 2-2h4zM28 2c1.105 0 2 0.895 2 2v16c0 1.105-0.895 2-2 2h-16c-1.105 0-2-0.895-2-2v-16c0-1.105 0.895-2 2-2h16zM28 4h-16v16h16v-16zM25.192 6.707c0.391 0.391 0.391 1.024 0 1.414l-6.498 6.499 2.356 2.309h-6l-0.050-5.929 2.266 2.221 6.513-6.514c0.391-0.391 1.024-0.391 1.414 0z"></path>
</svg>
