<?xml version="1.0" encoding="UTF-8"?>
<svg viewBox="0 0 32 32" version="1.1" xmlns="http://www.w3.org/2000/svg" xmlns:xlink="http://www.w3.org/1999/xlink">
<title>remove-member_border</title>
<path d="M13 17c0.96 0 1.895 0.101 2.789 0.291-0.4 0.575-0.742 1.193-1.016 1.846-0.572-0.090-1.166-0.137-1.774-0.137-4.709 0-8.573 2.812-8.967 6.395-0.050 0.451 0.335 0.605 0.519 0.605l9.905 0.001c0.221 0.703 0.518 1.373 0.88 2l-11.338-0.001c-1.105 0-2-0.895-2-2 0-5.096 5.019-9 11-9zM20.172 18.757l2.828 2.828 2.828-2.828c0.391-0.391 1.024-0.391 1.414 0s0.391 1.024 0 1.414l-2.828 2.828 2.828 2.828c0.391 0.391 0.391 1.024 0 1.414s-1.024 0.391-1.414 0l-2.829-2.829-2.828 2.829c-0.391 0.391-1.024 0.391-1.414 0s-0.391-1.024 0-1.414l2.828-2.829-2.828-2.828c-0.391-0.391-0.391-1.024 0-1.414s1.024-0.391 1.414 0zM13 3c3.314 0 6 2.686 6 6s-2.686 6-6 6-6-2.686-6-6 2.686-6 6-6zM13 5c-2.209 0-4 1.791-4 4s1.791 4 4 4 4-1.791 4-4-1.791-4-4-4z"></path>
</svg>
