<?xml version="1.0" encoding="UTF-8"?>
<svg viewBox="0 0 32 32" version="1.1" xmlns="http://www.w3.org/2000/svg" xmlns:xlink="http://www.w3.org/1999/xlink">
<title>jira</title>
<path d="M11.883 21.685c1.422 1.453 2.498 2.673 3.304 3.716-1.463 2.172-1.63 3.513-1.428 4.572v0h-4.543c0 0-0.002-0.041-0.004-0.12l-0.001-0.18c0.010-1.020 0.235-4.487 2.672-7.988zM5.576 9.015c-0.001-1.031 0.894-0.494 0.894-0.494 1.549 1.247 3.732 1.331 4.016 1.336l0.031 0c0.729 3.159 4.911 7.072 5.552 7.658 0.962-0.909 4.725-4.611 5.413-7.592 0 0 2.387-0.034 4.047-1.369 0 0 0.895-0.571 0.894 0.461v0l-0 0.109c-0.018 0.708-0.378 4.801-6.048 10.369-0.363 0.356-0.706 0.698-1.030 1.030 3.173 3.807 3.435 7.814 3.444 8.899l-0 0.122c-0.001 0.106-0.004 0.162-0.004 0.162v0h-4.543c0.342-1.722-0.369-4.213-6.616-10.346-5.67-5.568-6.030-9.553-6.048-10.241zM18.214 10.239c0 0 0.587-0.083 0.444 0.696-0.138 0.752-1.302 2.027-2.036 2.769l-0.216 0.215c-0.231 0.228-0.383 0.368-0.383 0.368s-0.082-0.076-0.218-0.21l-0.153-0.153c-0.564-0.572-1.632-1.73-2.197-2.837 0 0-0.319-0.848 0.256-0.848v0zM21.93 3.616c1.086 0 1.967 0.881 1.967 1.968s-0.881 1.967-1.967 1.967c-1.086 0-1.968-0.88-1.968-1.967s0.881-1.968 1.968-1.968zM10.344 3.616c1.086 0 1.967 0.881 1.967 1.968s-0.881 1.967-1.967 1.967c-1.087 0-1.967-0.88-1.967-1.967s0.881-1.968 1.967-1.968zM16.25 2.027c1.087 0 1.967 0.881 1.967 1.967s-0.881 1.968-1.967 1.968c-1.087 0-1.967-0.881-1.967-1.968s0.881-1.967 1.967-1.967z"></path>
</svg>
