<?xml version="1.0" encoding="UTF-8"?>
<svg viewBox="0 0 32 32" version="1.1" xmlns="http://www.w3.org/2000/svg" xmlns:xlink="http://www.w3.org/1999/xlink">
<title>report-an-issue</title>
<path d="M25.45 2c2.5 0 4.55 2.082 4.55 4.624v12.090c0 2.539-2.049 4.623-4.55 4.623h-8.051l-6.999 5.333c-1.1 0.839-2.8-0.024-2.8-1.423v-3.91h-1.050c-2.5 0-4.55-2.084-4.55-4.623v-12.090c0-2.542 2.049-4.624 4.55-4.624h18.9zM25.45 4.134h-18.9c-1.364 0-2.449 1.103-2.449 2.49v12.090c0 1.387 1.085 2.489 2.449 2.489h2.1c0.58 0 1.050 0.477 1.050 1.066v4.268l6.72-5.119c0.18-0.14 0.403-0.215 0.63-0.215h8.4c1.364 0 2.45-1.102 2.45-2.489v-12.090c0-1.387-1.085-2.49-2.45-2.49v0zM16 15.436c0.553 0 1.001 0.479 1.001 1.071 0 0.591-0.448 1.071-1.001 1.071-0.551 0-0.999-0.48-0.999-1.071 0-0.592 0.448-1.071 0.999-1.071zM16 6.154c0.521 0 0.947 0.424 0.995 0.968l0.006 0.105v5.711c0 0.591-0.448 1.069-1.001 1.069-0.522-0.006-0.954-0.426-0.995-0.966l-0.004-0.105v-5.711c0-0.592 0.448-1.071 0.999-1.071h0z"></path>
</svg>
