<?xml version="1.0" encoding="UTF-8"?>
<svg viewBox="0 0 32 32" version="1.1" xmlns="http://www.w3.org/2000/svg" xmlns:xlink="http://www.w3.org/1999/xlink">
<title>microsoft-teams-2019</title>
<path fill="#5059c9" d="M31 14.526v5.895c0 2.442-2.014 4.421-4.5 4.421s-4.5-1.979-4.5-4.421v-7.368h7.5c0.829 0 1.5 0.659 1.5 1.474zM26.5 10.105c1.657 0 3-1.32 3-2.947s-1.343-2.947-3-2.947c-1.657 0-3 1.32-3 2.947s1.343 2.947 3 2.947z"></path>
<path fill="#7b83eb" d="M24.25 14.526v8.105c0 4.232-3.631 7.631-8 7.352-3.986-0.253-7-3.681-7-7.605v-9.326h13.5c0.829 0 1.5 0.659 1.5 1.474zM16.75 10.842c2.486 0 4.5-1.979 4.5-4.421s-2.014-4.421-4.5-4.421c-2.486 0-4.5 1.979-4.5 4.421s2.014 4.421 4.5 4.421z"></path>
<path fill="#7b83eb" d="M21.25 6.421c0 2.442-2.015 4.421-4.5 4.421s-4.5-1.979-4.5-4.421c0-2.442 2.015-4.421 4.5-4.421s4.5 1.979 4.5 4.421z"></path>
<path fill="#000" opacity="0.05" d="M17.5 22.867v-9.814h-8.25v9.326c0 1.13 0.257 2.216 0.708 3.2h4.78c1.525 0 2.761-1.214 2.761-2.712z"></path>
<path fill="#000" opacity="0.07" d="M9.25 13.053v9.326c0 0.855 0.151 1.683 0.415 2.463h4.993c1.293 0 2.341-1.029 2.341-2.3v-9.49h-7.75z"></path>
<path fill="#000" opacity="0.09" d="M16.5 13.053h-7.25v9.326c0 0.591 0.076 1.167 0.206 1.726h5.124c1.060 0 1.92-0.844 1.92-1.886v-9.166h0.001z"></path>
<path fill="#5961c3" d="M14.5 23.369h-12c-0.829 0-1.5-0.659-1.5-1.474v-11.79c0-0.814 0.671-1.474 1.5-1.474h12c0.829 0 1.5 0.659 1.5 1.474v11.79c0 0.814-0.671 1.474-1.5 1.474z"></path>
<path fill="#fff" d="M11.551 12.315h-6.102v1.267h2.285v6.101h1.531v-6.101h2.285z"></path>
</svg>
