<?xml version="1.0" encoding="UTF-8"?>
<svg viewBox="0 0 32 32" version="1.1" xmlns="http://www.w3.org/2000/svg" xmlns:xlink="http://www.w3.org/1999/xlink">
<title>apps-developers</title>
<path d="M18.833 3.038c0.76 0.173 1.253 0.895 1.156 1.653l-0.025 0.142-5 23c-0.184 0.808-0.987 1.314-1.795 1.13-0.76-0.173-1.253-0.895-1.156-1.653l0.025-0.142 5-23c0.184-0.808 0.987-1.314 1.795-1.13zM24.447 8.336l0.114 0.103 6 6c0.549 0.549 0.584 1.418 0.103 2.007l-0.103 0.114-6 6c-0.586 0.586-1.536 0.586-2.121 0-0.549-0.549-0.584-1.418-0.103-2.007l0.103-0.114 4.94-4.939-4.94-4.939c-0.549-0.549-0.584-1.418-0.103-2.007l0.103-0.114c0.549-0.549 1.418-0.583 2.007-0.103zM7.553 8.336c0.589-0.481 1.458-0.446 2.007 0.103v0l0.103 0.114c0.481 0.589 0.446 1.458-0.103 2.007v0l-4.94 4.939 4.94 4.939 0.103 0.114c0.481 0.589 0.446 1.458-0.103 2.007-0.586 0.586-1.536 0.586-2.121 0v0l-6-6-0.103-0.114c-0.481-0.589-0.446-1.458 0.103-2.007v0l6-6z"></path>
</svg>
