<?xml version="1.0" encoding="UTF-8"?>
<svg viewBox="0 0 32 32" version="1.1" xmlns="http://www.w3.org/2000/svg" xmlns:xlink="http://www.w3.org/1999/xlink">
<title>rbn-off</title>
<path d="M28.728 3.272c0.781 0.781 0.781 2.047 0 2.828l-22.627 22.627c-0.781 0.781-2.047 0.781-2.828 0s-0.781-2.047 0-2.828l22.627-22.627c0.781-0.781 2.047-0.781 2.828 0zM28.318 9.34c1.090 2.013 1.682 4.29 1.682 6.66 0 3.771-1.501 7.31-4.12 9.919-0.783 0.78-2.049 0.777-2.828-0.006s-0.777-2.049 0.006-2.828c1.873-1.866 2.943-4.388 2.943-7.085 0-1.274-0.239-2.509-0.688-3.654l3.006-3.006zM8.919 6.107c0.782 0.78 0.783 2.047 0.003 2.828-1.86 1.864-2.922 4.377-2.922 7.064 0 1.274 0.239 2.509 0.688 3.655l-3.006 3.006c-1.090-2.013-1.683-4.291-1.683-6.661 0-3.757 1.489-7.283 4.091-9.89 0.78-0.782 2.047-0.783 2.828-0.003zM23.729 13.93c0.178 0.666 0.271 1.361 0.271 2.070 0 2.139-0.846 4.148-2.322 5.636-0.778 0.784-2.045 0.788-2.828 0.010-0.78-0.775-0.788-2.033-0.021-2.818l4.901-4.899zM13.083 10.389c0.751 0.728 0.809 1.903 0.159 2.699l-0.115 0.129-4.856 4.855c-0.178-0.667-0.271-1.362-0.271-2.072 0-2.105 0.819-4.086 2.255-5.567 0.769-0.793 2.035-0.813 2.828-0.044z"></path>
</svg>
