<?xml version="1.0" encoding="UTF-8"?>
<svg viewBox="0 0 32 32" version="1.1" xmlns="http://www.w3.org/2000/svg" xmlns:xlink="http://www.w3.org/1999/xlink">
<title>unpin-slash</title>
<path d="M3.565 2.979c0.391-0.391 1.024-0.391 1.414 0v0l24.042 24.042c0.391 0.391 0.391 1.024 0 1.414s-1.024 0.391-1.414 0v0l-5.984-5.983-0.078 0.359c-0.423 1.791-1.333 3.491-2.73 4.888-0.445 0.445-1.167 0.445-1.613 0l-5.644-5.644-7.256 7.256c-0.445 0.445-2.78 2.058-3.225 1.613s1.167-2.78 1.613-3.225l7.256-7.256-5.644-5.644c-0.445-0.445-0.445-1.167 0-1.613 1.49-1.49 3.324-2.426 5.246-2.808l-5.983-5.984c-0.391-0.391-0.391-1.024 0-1.414zM11.353 12.181c-1.692 0.041-3.338 0.599-4.716 1.623l-0.281 0.219 11.62 11.62 0.029-0.033c1.145-1.425 1.77-3.168 1.814-4.964l-8.466-8.465zM19.63 1.154c0.086 0.050 0.165 0.11 0.235 0.181l10.802 10.801c0.445 0.445 0.445 1.167 0 1.613-0.070 0.070-0.149 0.131-0.235 0.181l-7.394 4.28-1.464-1.463 6.887-3.988-9.219-9.219-3.987 6.888-1.463-1.464 4.28-7.394c0.316-0.545 1.013-0.731 1.558-0.415z"></path>
</svg>
