<?xml version="1.0" encoding="UTF-8"?>
<svg viewBox="0 0 32 32" version="1.1" xmlns="http://www.w3.org/2000/svg" xmlns:xlink="http://www.w3.org/1999/xlink">
<title>RC-logo-chatbot</title>
<path fill="#0684bc" d="M29.851 5.385c-0.312-1.539-1.2-2.593-2.728-3.062-0.663-0.186-1.351-0.271-2.040-0.253-6.008 0-12.017 0-18.024 0-0.469-0.008-0.938 0.020-1.403 0.083-1.574 0.24-2.741 1.032-3.321 2.567-0.287 0.758-0.331 1.56-0.331 2.355 0 3.559 0 7.118 0 10.679 0 3.819 0 7.638 0 11.457 0 0.628 0.22 0.846 0.847 0.846h5.099c0.637 0 0.852-0.223 0.852-0.872v-20.003c0-0.5 0.2-0.72 0.663-0.72h13.016c0.493 0 0.704 0.22 0.704 0.72v6.179c0 0.498-0.208 0.708-0.707 0.708h-5.848c-0.428 0-0.63 0.192-0.631 0.612 0 1.13-0.019 2.261 0.006 3.39 0.023 0.935 0.197 1.848 0.707 2.654 1.418 2.24 2.843 4.475 4.275 6.707 0.121 0.198 0.291 0.36 0.494 0.471s0.432 0.167 0.664 0.161c1.828 0.005 3.658 0.005 5.488 0 0.561 0 0.72-0.32 0.419-0.804-1.311-2.118-2.623-4.236-3.936-6.353-0.276-0.446-0.229-0.607 0.24-0.822 0.879-0.397 1.754-0.806 2.639-1.184 2.019-0.861 2.976-2.424 2.99-4.574 0.019-3.129 0.007-6.258-0.007-9.388 0.009-0.521-0.033-1.041-0.127-1.554v0z"></path>
</svg>
