<?xml version="1.0" encoding="UTF-8"?>
<svg viewBox="0 0 32 32" version="1.1" xmlns="http://www.w3.org/2000/svg" xmlns:xlink="http://www.w3.org/1999/xlink">
<title>ar</title>
<path d="M6.72 22c0.181 0 0.335-0.051 0.46-0.152s0.209-0.213 0.252-0.336v0l0.864-2.36h4.792l0.864 2.36c0.053 0.139 0.14 0.255 0.26 0.348s0.273 0.14 0.46 0.14v0h1.664l-4.544-11.568h-2.2l-4.544 11.568h1.672zM12.536 17.632h-3.688l1.408-3.832c0.069-0.176 0.14-0.381 0.212-0.616s0.145-0.488 0.22-0.76c0.075 0.272 0.151 0.524 0.228 0.756s0.148 0.433 0.212 0.604v0l1.408 3.848zM19.752 22v-4.52h0.92c0.213 0 0.375 0.029 0.484 0.088s0.209 0.157 0.3 0.296v0l2.432 3.704c0.091 0.139 0.201 0.245 0.332 0.32s0.289 0.112 0.476 0.112v0h1.936l-2.896-4.272c-0.197-0.288-0.432-0.509-0.704-0.664 0.405-0.128 0.767-0.299 1.084-0.512s0.584-0.461 0.8-0.744c0.216-0.283 0.381-0.597 0.496-0.944s0.172-0.715 0.172-1.104c0-0.491-0.084-0.94-0.252-1.348s-0.432-0.759-0.792-1.052c-0.36-0.293-0.821-0.521-1.384-0.684s-1.239-0.244-2.028-0.244v0h-3.528v11.568h2.152zM21.096 15.936h-1.344v-3.84h1.376c0.795 0 1.385 0.157 1.772 0.472s0.58 0.765 0.58 1.352c0 0.293-0.048 0.563-0.144 0.808s-0.241 0.457-0.436 0.636c-0.195 0.179-0.443 0.319-0.744 0.42s-0.655 0.152-1.060 0.152v0 0z"></path>
</svg>
