<?xml version="1.0" encoding="UTF-8"?>
<svg viewBox="0 0 32 32" version="1.1" xmlns="http://www.w3.org/2000/svg" xmlns:xlink="http://www.w3.org/1999/xlink">
<title>reminder</title>
<path d="M10.582 2.406c0.122 0.164 0.196 0.371 0.196 0.595 0 0.329-0.159 0.62-0.403 0.803l-0.003 0.002-6.778 5c-0.164 0.122-0.37 0.195-0.594 0.195-0.553 0-1-0.448-1-1 0-0.329 0.159-0.621 0.404-0.803l0.003-0.002 6.778-5c0.164-0.122 0.37-0.196 0.594-0.196 0.329 0 0.621 0.159 0.803 0.404l0.002 0.003zM21.417 2.406c0.184-0.247 0.476-0.406 0.804-0.406 0.224 0 0.431 0.074 0.597 0.198l-0.003-0.002 6.778 5c0.247 0.184 0.406 0.476 0.406 0.804 0 0.552-0.448 1-1 1-0.224 0-0.43-0.073-0.597-0.197l0.003 0.002-6.777-5c-0.248-0.184-0.407-0.476-0.407-0.805 0-0.223 0.073-0.43 0.197-0.596l-0.002 0.003zM28 18c0 6.627-5.373 12-12 12s-12-5.373-12-12 5.373-12 12-12 12 5.373 12 12zM17 11c0-0.552-0.448-1-1-1s-1 0.448-1 1v0 6c0 1.105 0.895 2 2 2v0h4.5c0.552 0 1-0.448 1-1s-0.448-1-1-1v0h-4.5v-6z"></path>
</svg>
