<?xml version="1.0" encoding="UTF-8"?>
<svg viewBox="0 0 32 32" version="1.1" xmlns="http://www.w3.org/2000/svg" xmlns:xlink="http://www.w3.org/1999/xlink">
<title>play_circle</title>
<path d="M16 2c7.732 0 14 6.268 14 14s-6.268 14-14 14c-7.732 0-14-6.268-14-14s6.268-14 14-14zM13.307 10.146c-0.662-0.351-1.198-0.049-1.292 0.706l-0.012 0.138-0.003 0.11 0.002 9.803 0.003 0.119c0.045 0.801 0.551 1.166 1.201 0.885l0.116-0.056 0.089-0.051 8.11-4.998c0.605-0.435 0.637-1.064 0.099-1.518l-0.108-0.083-0.093-0.061-8.112-4.993z"></path>
</svg>
