<?xml version="1.0" encoding="UTF-8"?>
<svg viewBox="0 0 32 32" version="1.1" xmlns="http://www.w3.org/2000/svg" xmlns:xlink="http://www.w3.org/1999/xlink">
<title>google-chrome-logo</title>
<path fill="#1e8e3e" d="M3.010 8.502l6.492 11.245c0.098 0.17 0.203 0.336 0.314 0.497 0.099 0.144 0.202 0.285 0.311 0.421l0.12 0.147 0.147 0.169c0.332 0.376 0.702 0.717 1.104 1.018l0.338 0.238 0.183 0.118 0.269 0.162 0.279 0.151c0.174 0.089 0.351 0.172 0.533 0.249l0.348 0.136 0.309 0.104 0.301 0.088 0.381 0.091 0.257 0.050 0.222 0.035 0.248 0.033 0.22 0.021 0.288 0.018 0.329 0.007c0.156 0 0.311-0.005 0.466-0.014l0.319-0.028 0.156-0.017 0.292-0.043 0.412-0.080 0.315-0.078 0.136-0.038 0.318-0.1 0.187-0.067 0.278-0.109 0.289-0.127 0.312-0.155 0.271-0.149 0.311-0.19 0.204-0.137 0.181-0.129 0.165-0.125 0.259-0.211 0.183-0.162 0.275-0.264 0.208-0.219 0.21-0.24 0.216-0.27 0.176-0.239 0.010-0.015c0.103-0.146 0.201-0.297 0.293-0.451l-6.441 11.157c-2.633 0.001-5.22-0.692-7.501-2.008s-4.175-3.209-5.491-5.49c-1.317-2.28-2.010-4.867-2.010-7.5 0-2.478 0.614-4.915 1.784-7.094l0.226-0.406z"></path>
<path fill="#fcc934" d="M28.988 8.5c1.317 2.28 2.011 4.866 2.012 7.499s-0.692 5.22-2.009 7.501c-1.316 2.28-3.21 4.174-5.49 5.49-2.146 1.239-4.564 1.926-7.036 2.002l-0.464 0.007 6.444-11.161c0.67-1.123 1.056-2.436 1.056-3.839 0-4.116-3.314-7.456-7.419-7.5l12.906 0.001z"></path>
<path fill="#d93025" d="M10.777 10.616l-0.187 0.188-0.127 0.136c-1.076 1.177-1.781 2.698-1.932 4.379l-0.025 0.386-0.006 0.294 0.009 0.378c0.057 1.158 0.378 2.248 0.903 3.21l0.090 0.16-6.492-11.245c1.243-2.154 3-3.963 5.113-5.267l0.376-0.225c2.28-1.317 4.867-2.010 7.5-2.010s5.22 0.693 7.5 2.010c2.154 1.243 3.962 3.001 5.266 5.114l0.225 0.377-12.989-0.002c-2.031 0-3.873 0.807-5.223 2.118z"></path>
<path fill="#1a73e8" d="M16.001 21.939c3.28 0 5.938-2.659 5.938-5.938s-2.659-5.938-5.938-5.938c-3.28 0-5.938 2.659-5.938 5.938s2.659 5.938 5.938 5.938z"></path>
</svg>
