<?xml version="1.0" encoding="UTF-8"?>
<svg viewBox="0 0 32 32" version="1.1" xmlns="http://www.w3.org/2000/svg" xmlns:xlink="http://www.w3.org/1999/xlink">
<title>ai-smart-notes_sp</title>
<path d="M23.703 14.002c0.872 0 1.653 0.405 2.178 1.047l0.569 0.697c0.421 0.513 0.674 1.177 0.674 1.902 0 0.899-0.391 1.705-1.010 2.249l-5.386 4.696c-0.431 0.374-0.936 0.603-1.476 0.679l-5.253 0.728 1.579-5.221 0.006-0.021c0.163-0.531 0.47-0.996 0.876-1.351l5.384-4.692c0.499-0.444 1.148-0.713 1.859-0.713zM23.695 16.107c-0.199 0-0.381 0.074-0.52 0.197l-5.389 4.695c-0.121 0.103-0.214 0.241-0.266 0.405l-0.628 2.078 2.092-0.291c0.16-0.022 0.302-0.089 0.415-0.188l5.389-4.697c0.185-0.155 0.302-0.391 0.302-0.656 0-0.208-0.073-0.398-0.193-0.544l-0.574-0.701c-0.135-0.165-0.331-0.276-0.552-0.294-0.025-0.002-0.051-0.004-0.077-0.004zM12 19.5v2.625h-6v-2.625h6zM15.585 15v2.625h-9.585v-2.625h9.585zM20 10.375v2.625h-14v-2.625h14zM23.16 3.146c0.043-0.195 0.366-0.195 0.431 0l0.366 1.254c0.345 1.167 1.228 2.054 2.371 2.378l1.25 0.367c0.108 0.022 0.172 0.108 0.172 0.216 0 0.171-0.215 0.232-0.391 0.281l-0.029 0.008-0.028 0.008-0.975 0.287c-1.164 0.346-2.047 1.232-2.371 2.378l-0.366 1.254c-0.022 0.108-0.108 0.173-0.216 0.173-0.17 0-0.23-0.214-0.279-0.39-0.006-0.020-0.011-0.039-0.016-0.057l-0.286-0.979c-0.345-1.167-1.228-2.054-2.371-2.378l-1.25-0.367c-0.108-0.022-0.172-0.108-0.172-0.216 0-0.171 0.215-0.231 0.39-0.281l0.057-0.016 0.976-0.287c1.164-0.346 2.047-1.232 2.371-2.378l0.366-1.254z"></path>
</svg>
