<?xml version="1.0" encoding="UTF-8"?>
<svg viewBox="0 0 32 32" version="1.1" xmlns="http://www.w3.org/2000/svg" xmlns:xlink="http://www.w3.org/1999/xlink">
<title>callrail_border</title>
<path d="M13.25 15.25c0.414 0 0.75 0.336 0.75 0.75v3.75c0 0.414-0.336 0.75-0.75 0.75s-0.75-0.336-0.75-0.75v-3.75c0-0.414 0.336-0.75 0.75-0.75zM11.5 13c0-0.414-0.336-0.75-0.75-0.75s-0.75 0.336-0.75 0.75v5c0 0.414 0.336 0.75 0.75 0.75s0.75-0.336 0.75-0.75v-5z"></path>
<path d="M28.804 18.651c-1.109 6.122-6.595 9.92-12.804 9.92-2.265 0-4.399-0.571-6.257-1.576-0.666 0.727-1.366 1.274-2.041 1.664l-0.001 0.001c-1.884 1.087-4.416-0.623-3.667-2.943 0.529-1.638 0.576-2.86-0.067-5.082-0.624-1.497-0.968-3.136-0.968-4.848 0-7.099 5.86-12.785 13-12.785 6.971 0 12.997 4.876 13 12.13 0 0.6-0.231 1.141-0.606 1.544 0.37 0.552 0.541 1.247 0.409 1.977h0zM9.291 24.333c0.522 0.395 1.081 0.744 1.672 1.043 1.509 0.764 3.222 1.195 5.038 1.195 5.058 0 9.321-2.849 10.605-7.293 0.093-0.32 0.169-0.648 0.23-0.983 0.078-0.431-0.258-0.829-0.706-0.829h-9.13v3.535c0 0.552-0.448 1-1 1s-1-0.448-1-1v-10c0-0.552 0.448-1 1-1s1 0.448 1 1v4.341l9.725 0.059c0.152 0.001 0.275-0.121 0.275-0.27-0.003-5.954-4.927-10.131-11-10.131s-11 4.828-11 10.785c0 1.481 0.304 2.892 0.855 4.177 0.569 1.929 0.713 3.332 0.477 4.78-0.015 0.090-0.031 0.18-0.048 0.271l-0.013 0.066c-0.051 0.255-0.114 0.512-0.189 0.775l-0 0.001c-0.044 0.157-0.092 0.315-0.144 0.476-0.146 0.451 0.349 0.835 0.764 0.596 0.119-0.069 0.242-0.146 0.366-0.231 0.26-0.178 0.53-0.393 0.801-0.647 0.055-0.052 0.11-0.105 0.165-0.16 0.046-0.046 0.093-0.094 0.14-0.143 0.022-0.023 0.044-0.046 0.066-0.070 0.344-0.371 0.685-0.81 1.006-1.325l0.013-0.021 0.008-0.013 0.002-0.001 0.002 0.001 0.021 0.016-0-0z"></path>
</svg>
