<?xml version="1.0" encoding="UTF-8"?>
<svg viewBox="0 0 32 32" version="1.1" xmlns="http://www.w3.org/2000/svg" xmlns:xlink="http://www.w3.org/1999/xlink">
<title>voicemail_border</title>
<path d="M7 24l0-0.016c-3.909-0.257-7-3.509-7-7.484 0-4.142 3.358-7.5 7.5-7.5s7.5 3.358 7.5 7.5c0 2.174-0.925 4.131-2.402 5.501h6.804c-1.477-1.37-2.402-3.327-2.402-5.501 0-4.142 3.358-7.5 7.5-7.5s7.5 3.358 7.5 7.5c0 3.974-3.091 7.226-6.999 7.484l-0.001 0.016h-18zM7.5 11c-3.038 0-5.5 2.462-5.5 5.5s2.462 5.5 5.5 5.5c3.038 0 5.5-2.462 5.5-5.5s-2.462-5.5-5.5-5.5zM24.5 11c-3.038 0-5.5 2.462-5.5 5.5s2.462 5.5 5.5 5.5c3.038 0 5.5-2.462 5.5-5.5s-2.462-5.5-5.5-5.5z"></path>
</svg>
