<?xml version="1.0" encoding="UTF-8"?>
<svg viewBox="0 0 32 32" version="1.1" xmlns="http://www.w3.org/2000/svg" xmlns:xlink="http://www.w3.org/1999/xlink">
<title>sort-message</title>
<path d="M4.914 21.5l2.879 2.879v-19.172c0-0.552 0.448-1 1-1s1 0.448 1 1v19.172l2.879-2.879c0.39-0.39 1.024-0.39 1.414 0s0.39 1.024 0 1.414l-4.586 4.586c-0.391 0.391-1.024 0.391-1.414 0l-4.586-4.586c-0.39-0.39-0.39-1.024 0-1.414s1.024-0.39 1.414 0zM18.914 10.5l2.879-2.879v19.172c0 0.552 0.448 1 1 1s1-0.448 1-1v-19.172l2.879 2.879c0.39 0.39 1.024 0.39 1.414 0s0.39-1.024 0-1.414l-4.586-4.586c-0.391-0.391-1.024-0.391-1.414 0l-4.586 4.586c-0.39 0.39-0.39 1.024 0 1.414s1.024 0.39 1.414 0z"></path>
</svg>
