<?xml version="1.0" encoding="UTF-8"?>
<svg viewBox="0 0 32 32" version="1.1" xmlns="http://www.w3.org/2000/svg" xmlns:xlink="http://www.w3.org/1999/xlink">
<title>7</title>
<path fill="#000" style="fill: var(--color17, #000)" d="M19 7v0.502c0 0.142-0.015 0.26-0.046 0.352s-0.063 0.17-0.095 0.232l-3.653 7.518c-0.053 0.109-0.127 0.202-0.222 0.279s-0.222 0.116-0.382 0.116h-0.782l3.708-7.424c0.053-0.105 0.108-0.201 0.163-0.289s0.118-0.172 0.188-0.251h-4.608c-0.070 0-0.132-0.028-0.188-0.085s-0.083-0.12-0.083-0.192v-0.76h6z"></path>
<path fill="#9e9e9e" style="fill: var(--color82, #9e9e9e)" d="M10.482 22.66v1.34h-0.482v-3.582h1.058c0.227 0 0.424 0.026 0.591 0.079s0.306 0.127 0.416 0.224c0.11 0.097 0.192 0.213 0.246 0.35s0.081 0.289 0.081 0.457c0 0.167-0.029 0.319-0.088 0.457s-0.144 0.258-0.256 0.358c-0.113 0.1-0.252 0.178-0.419 0.234s-0.357 0.084-0.572 0.084h-0.575zM10.482 22.275h0.575c0.138 0 0.26-0.018 0.366-0.055s0.195-0.088 0.266-0.154c0.072-0.066 0.126-0.145 0.162-0.236s0.055-0.192 0.055-0.302c0-0.228-0.070-0.407-0.211-0.535s-0.354-0.192-0.639-0.192h-0.575v1.475zM16.332 22.21c0 0.168-0.017 0.328-0.051 0.48s-0.084 0.293-0.149 0.424c-0.065 0.131-0.144 0.25-0.238 0.356s-0.198 0.199-0.315 0.277l0.92 0.992h-0.4c-0.060 0-0.113-0.008-0.16-0.025s-0.089-0.046-0.127-0.087l-0.63-0.685c-0.095 0.030-0.194 0.053-0.296 0.070s-0.21 0.025-0.321 0.025c-0.263 0-0.503-0.045-0.72-0.134s-0.402-0.215-0.557-0.376c-0.155-0.162-0.275-0.355-0.36-0.579s-0.127-0.47-0.127-0.739c0-0.268 0.043-0.515 0.127-0.739s0.205-0.418 0.36-0.58c0.155-0.163 0.341-0.289 0.557-0.379s0.457-0.135 0.72-0.135c0.263 0 0.504 0.045 0.721 0.135s0.404 0.216 0.559 0.379c0.155 0.163 0.275 0.356 0.36 0.58s0.128 0.47 0.128 0.739zM15.835 22.21c0-0.22-0.030-0.418-0.090-0.593s-0.145-0.323-0.255-0.444c-0.11-0.121-0.243-0.214-0.4-0.279s-0.332-0.098-0.525-0.098c-0.192 0-0.366 0.032-0.522 0.098s-0.29 0.158-0.401 0.279c-0.111 0.121-0.196 0.269-0.256 0.444s-0.090 0.372-0.090 0.593c0 0.22 0.030 0.417 0.090 0.591s0.145 0.322 0.256 0.442c0.111 0.121 0.245 0.213 0.401 0.277s0.331 0.096 0.523 0.096c0.193 0 0.368-0.032 0.525-0.096s0.29-0.157 0.4-0.277c0.11-0.121 0.195-0.268 0.255-0.442s0.090-0.371 0.090-0.591zM17.527 22.505v1.495h-0.483v-3.582h1.012c0.227 0 0.422 0.023 0.587 0.069s0.301 0.112 0.409 0.199c0.108 0.087 0.187 0.191 0.239 0.314s0.078 0.26 0.078 0.411c0 0.127-0.020 0.245-0.060 0.355s-0.098 0.209-0.174 0.296c-0.076 0.087-0.168 0.162-0.277 0.224s-0.233 0.108-0.371 0.14c0.060 0.035 0.113 0.086 0.16 0.152l1.045 1.422h-0.43c-0.088 0-0.153-0.034-0.195-0.102l-0.93-1.28c-0.028-0.040-0.059-0.069-0.093-0.086s-0.083-0.026-0.15-0.026h-0.367zM17.527 22.152h0.508c0.142 0 0.266-0.017 0.374-0.051s0.198-0.082 0.27-0.145c0.073-0.063 0.127-0.137 0.164-0.224s0.055-0.183 0.055-0.288c0-0.213-0.070-0.374-0.211-0.483s-0.35-0.163-0.629-0.163h-0.53v1.352zM22.050 20.977c-0.015 0.025-0.031 0.044-0.047 0.056s-0.038 0.019-0.065 0.019c-0.019 0-0.040-0.006-0.063-0.019l-0.036-0.024c-0.038-0.028-0.085-0.060-0.142-0.094s-0.127-0.065-0.207-0.094c-0.081-0.028-0.179-0.043-0.294-0.043-0.108 0-0.204 0.015-0.288 0.044s-0.153 0.069-0.209 0.119c-0.056 0.050-0.098 0.109-0.126 0.176s-0.043 0.14-0.043 0.219c0 0.1 0.025 0.183 0.074 0.249s0.114 0.122 0.195 0.169c0.081 0.047 0.172 0.087 0.275 0.121l0.315 0.106c0.108 0.037 0.212 0.078 0.315 0.124s0.194 0.104 0.275 0.174c0.081 0.070 0.146 0.156 0.195 0.258s0.074 0.227 0.074 0.375c0 0.157-0.027 0.304-0.080 0.441s-0.131 0.257-0.234 0.359c-0.102 0.102-0.228 0.182-0.378 0.24s-0.319 0.087-0.509 0.087c-0.232 0-0.443-0.042-0.634-0.126s-0.354-0.198-0.489-0.341l0.14-0.23c0.013-0.018 0.030-0.034 0.049-0.046s0.040-0.019 0.064-0.019c0.023 0 0.049 0.008 0.077 0.025l0.148 0.111c0.020 0.014 0.041 0.029 0.064 0.044 0.067 0.045 0.149 0.086 0.245 0.124s0.213 0.056 0.351 0.056c0.115 0 0.218-0.016 0.308-0.047s0.166-0.076 0.229-0.134c0.063-0.058 0.11-0.126 0.144-0.206s0.050-0.169 0.050-0.267c0-0.108-0.025-0.197-0.074-0.266s-0.114-0.127-0.194-0.174c-0.080-0.047-0.171-0.086-0.274-0.119l-0.315-0.1c-0.108-0.034-0.212-0.074-0.315-0.119s-0.194-0.103-0.274-0.175c-0.080-0.072-0.145-0.161-0.194-0.269s-0.074-0.24-0.074-0.399c0-0.127 0.025-0.249 0.074-0.367s0.12-0.223 0.214-0.315c0.093-0.092 0.209-0.165 0.346-0.22s0.295-0.082 0.474-0.082c0.2 0 0.383 0.032 0.547 0.095s0.309 0.155 0.433 0.275l-0.117 0.23z"></path>
</svg>
