<?xml version="1.0" encoding="UTF-8"?>
<svg viewBox="0 0 34 32" version="1.1" xmlns="http://www.w3.org/2000/svg" xmlns:xlink="http://www.w3.org/1999/xlink">
<title>ai-indicator</title>
<path d="M22.263 14.64c-2.36-0.669-4.161-2.49-4.845-4.855l-0.901-3.144c-0.264-0.903-1.102-1.541-2.050-1.541s-1.786 0.638-2.050 1.541l-0.901 3.128c-0.668 2.365-2.484 4.171-4.845 4.855l-3.121 0.887c-0.916 0.265-1.553 1.105-1.553 2.054s0.637 1.79 1.537 2.054l3.121 0.903c2.36 0.669 4.161 2.49 4.845 4.855l0.901 3.128c0.264 0.903 1.071 1.494 2.050 1.494s1.786-0.607 2.050-1.494l0.901-3.128c0.668-2.366 2.484-4.171 4.845-4.855l3.121-0.887c0.627-0.181 1.123-0.631 1.373-1.202 0.116-0.263 0.179-0.552 0.179-0.852 0-0.931-0.613-1.758-1.487-2.039-0.015-0.005-0.031-0.010-0.047-0.014l-0.004-0.001v0.016l-3.121-0.903zM23.806 17.585l-2.204-0.637c-3.171-0.901-5.581-3.354-6.489-6.497l-0.001-0.005-0.644-2.247-0.642 2.229c-0.898 3.172-3.343 5.591-6.484 6.502l-0.013 0.004-2.242 0.637 2.231 0.645c3.171 0.901 5.582 3.354 6.489 6.497l0.644 2.238 0.642-2.231c0.898-3.173 3.343-5.591 6.484-6.502l0.012-0.004 2.214-0.629zM21.583 5.741c-0.005 0.002-0.011 0.005-0.016 0.007-0.063 0.027-0.127 0.053-0.194 0.079-0.017 0.007-0.033 0.013-0.050 0.020-0.202 0.078-0.42 0.156-0.659 0.235-0.45 0.156-0.683 0.545-0.683 0.949s0.233 0.794 0.683 0.934c0.258 0.086 0.494 0.169 0.709 0.254 0.012 0.005 0.023 0.009 0.035 0.014 0.056 0.022 0.11 0.045 0.164 0.067 0.004 0.002 0.008 0.003 0.011 0.005 1.112 0.473 1.652 1.013 2.124 2.126 0.002 0.004 0.004 0.008 0.005 0.012 0.026 0.062 0.052 0.126 0.078 0.192 0.003 0.007 0.005 0.013 0.008 0.020 0.084 0.214 0.166 0.447 0.251 0.703 0.311 0.918 1.568 0.918 1.879 0 0.085-0.256 0.167-0.489 0.251-0.703 0.003-0.007 0.005-0.013 0.008-0.020 0.026-0.066 0.052-0.129 0.078-0.192 0.002-0.004 0.003-0.008 0.005-0.012 0.473-1.113 1.012-1.652 2.125-2.126l0.011-0.005c0.058-0.025 0.118-0.049 0.179-0.073 0.007-0.003 0.013-0.005 0.020-0.008 0.215-0.085 0.451-0.169 0.709-0.254 0.916-0.311 0.916-1.572 0-1.883-0.258-0.086-0.494-0.169-0.709-0.254-0.007-0.003-0.013-0.005-0.020-0.008-0.061-0.024-0.121-0.049-0.179-0.073l-0.011-0.005c-1.112-0.473-1.652-1.013-2.125-2.126-0.002-0.004-0.003-0.008-0.005-0.012-0.026-0.062-0.052-0.126-0.078-0.192-0.003-0.007-0.005-0.013-0.008-0.020-0.084-0.214-0.166-0.447-0.251-0.703-0.31-0.918-1.568-0.918-1.879 0-0.084 0.256-0.167 0.489-0.251 0.703-0.003 0.007-0.005 0.013-0.008 0.020-0.026 0.066-0.052 0.129-0.078 0.192-0.002 0.004-0.003 0.008-0.005 0.012-0.472 1.113-1.012 1.652-2.124 2.126zM24.988 6.158c-0.124 0.156-0.258 0.307-0.403 0.453-0.148 0.149-0.302 0.285-0.461 0.412 0.159 0.126 0.313 0.263 0.461 0.412 0.145 0.146 0.279 0.297 0.403 0.453 0.124-0.156 0.258-0.307 0.403-0.453 0.148-0.149 0.302-0.285 0.461-0.412-0.159-0.126-0.313-0.263-0.461-0.412-0.145-0.146-0.279-0.297-0.403-0.453z"></path>
</svg>
