<?xml version="1.0" encoding="UTF-8"?>
<svg viewBox="0 0 32 32" version="1.1" xmlns="http://www.w3.org/2000/svg" xmlns:xlink="http://www.w3.org/1999/xlink">
<title>task-new_border</title>
<path d="M16 2c7.732 0 14 6.268 14 14s-6.268 14-14 14c-7.732 0-14-6.268-14-14s6.268-14 14-14zM16 4c-6.627 0-12 5.373-12 12s5.373 12 12 12c6.627 0 12-5.373 12-12s-5.373-12-12-12zM22.376 11.741c0.391 0.391 0.391 1.024 0 1.414l-7.071 7.071c-0.15 0.15-0.336 0.243-0.531 0.277l-0.117 0.014h-0.118c-0.236-0.014-0.468-0.111-0.648-0.291l-4.243-4.243c-0.391-0.391-0.391-1.024 0-1.414s1.024-0.391 1.414 0l3.535 3.535 6.365-6.363c0.391-0.391 1.024-0.391 1.414 0z"></path>
</svg>
