<?xml version="1.0" encoding="UTF-8"?>
<svg viewBox="0 0 32 32" version="1.1" xmlns="http://www.w3.org/2000/svg" xmlns:xlink="http://www.w3.org/1999/xlink">
<title>park-call-text</title>
<path d="M16 3c1.944 0 3.762 0.304 5.454 0.912 1.711 0.627 3.199 1.48 4.463 2.559s2.256 2.353 2.975 3.824c0.739 1.471 1.108 3.059 1.108 4.765s-0.369 3.304-1.108 4.794c-0.739 1.49-1.74 2.794-3.004 3.912s-2.751 2-4.462 2.647c-1.692 0.627-3.5 0.941-5.425 0.941-0.369 0-0.739-0.010-1.108-0.029s-0.739-0.059-1.108-0.118v0l-0.467-0.088-0.058 0.059c-0.719 0.627-1.556 1.137-2.508 1.529s-2.012 0.608-3.179 0.647v0h-1.983c-0.35 0-0.617-0.162-0.802-0.485s-0.18-0.642 0.015-0.956v0l0.817-1.324c0.292-0.51 0.525-0.946 0.7-1.309s0.311-0.681 0.408-0.956v0l0.029-0.029-0.292-0.235c-0.681-0.569-1.293-1.186-1.837-1.853s-1.006-1.368-1.385-2.103c-0.379-0.735-0.676-1.505-0.89-2.309s-0.331-1.608-0.35-2.412v0-0.324c0-1.706 0.369-3.294 1.108-4.765 0.719-1.451 1.711-2.721 2.975-3.809s2.751-1.936 4.463-2.544c1.692-0.627 3.51-0.941 5.454-0.941zM16 4.882c-1.692 0-3.276 0.265-4.754 0.794s-2.761 1.25-3.85 2.162c-1.089 0.912-1.954 1.995-2.596 3.25-0.622 1.235-0.933 2.559-0.933 3.971 0 0.765 0.097 1.52 0.292 2.265 0.214 0.765 0.51 1.495 0.89 2.191s0.851 1.348 1.415 1.956c0.564 0.608 1.196 1.167 1.896 1.676 0.136 0.098 0.243 0.23 0.321 0.397s0.097 0.338 0.058 0.515c-0.058 0.373-0.185 0.789-0.379 1.25s-0.467 1.024-0.817 1.691v0l-0.263 0.471h0.292c0.953-0.039 1.818-0.226 2.596-0.559s1.458-0.765 2.042-1.294v0l0.175-0.176c0.117-0.098 0.248-0.172 0.394-0.221s0.287-0.054 0.423-0.015c0.506 0.098 0.987 0.167 1.444 0.206s0.909 0.059 1.356 0.059c1.672 0 3.247-0.274 4.725-0.824s2.766-1.294 3.865-2.235c1.099-0.941 1.959-2.049 2.581-3.324 0.642-1.255 0.962-2.598 0.962-4.029s-0.311-2.765-0.933-4c-0.622-1.235-1.483-2.309-2.581-3.221s-2.387-1.632-3.865-2.162c-1.478-0.529-3.063-0.794-4.754-0.794zM16.989 10.5c2.052 0 3.511 1.537 3.511 3.678 0 2.076-1.377 3.591-3.328 3.687l-0.197 0.005-3.303-0 0 2.493c0 0.57-0.332 1.007-0.84 1.113l-0.12 0.019-0.126 0.006c-0.602 0-1.027-0.418-1.081-1.009l-0.006-0.129v-8.723c0-0.614 0.385-1.073 0.96-1.132l0.126-0.006h4.402zM16.682 12.598l-3.009-0v3.173l3.009 0c1.062 0 1.612-0.547 1.612-1.593 0-0.982-0.486-1.518-1.439-1.575l-0.173-0.005z"></path>
</svg>
