<?xml version="1.0" encoding="UTF-8"?>
<svg viewBox="0 0 32 32" version="1.1" xmlns="http://www.w3.org/2000/svg" xmlns:xlink="http://www.w3.org/1999/xlink">
<title>no-connection</title>
<path fill="#000" style="fill: var(--color17, #000)" opacity="0.32" d="M27 4c1.105 0 2 0.895 2 2v20c0 1.105-0.895 2-2 2h-2c-1.105 0-2-0.895-2-2v-20c0-1.105 0.895-2 2-2h2zM17 14c1.105 0 2 0.895 2 2v10c0 1.105-0.895 2-2 2h-2c-1.105 0-2-0.895-2-2v-8.634l2.191 2.165c0.632 0.625 1.625 0.625 2.257-0l1.069-1.058 0.092-0.103 0.098-0.136c0.456-0.695 0.372-1.634-0.218-2.218l-2.039-2.017h0.551zM7 20c1.105 0 2 0.895 2 2v4c0 1.105-0.895 2-2 2h-2c-1.105 0-2-0.895-2-2v-4c0-1.105 0.895-2 2-2h2zM15.026 14l2.759 2.727c0.264 0.262 0.288 0.711 0.053 1.005l-0.025 0.031-1.068 1.058c-0.242 0.24-0.608 0.24-0.851 0l-2.893-2.86 0.005-0.109c0.073-0.983 0.856-1.769 1.838-1.845l0.183-0.006z"></path>
<path fill="#f54c3d" style="fill: var(--color16, #f54c3d)" d="M11 10.018l4.893-4.838c0.218-0.216 0.536-0.237 0.774-0.065l0.076 0.065 1.041 1.029c0.018 0.018 0.037 0.038 0.053 0.059 0.215 0.269 0.213 0.67 0.008 0.936l-0.061 0.069-4.781 4.727 4.781 4.728c0.264 0.262 0.288 0.711 0.053 1.005l-0.025 0.031-1.068 1.058c-0.242 0.24-0.608 0.24-0.851 0l-4.893-4.839-4.894 4.839c-0.218 0.216-0.536 0.237-0.774 0.065l-0.076-0.065-1.041-1.029c-0.018-0.018-0.037-0.038-0.053-0.059-0.215-0.27-0.213-0.669-0.008-0.936l0.061-0.069 4.78-4.728-4.78-4.727c-0.264-0.262-0.288-0.711-0.053-1.005l0.053-0.059 1.041-1.029c0.242-0.24 0.608-0.24 0.851 0l4.893 4.838z"></path>
</svg>
