<?xml version="1.0" encoding="UTF-8"?>
<svg viewBox="0 0 32 32" version="1.1" xmlns="http://www.w3.org/2000/svg" xmlns:xlink="http://www.w3.org/1999/xlink">
<title>smart-summary</title>
<path d="M20.602 6.1c0.029-0.133 0.251-0.133 0.296 0l0.251 0.86c0.236 0.801 0.842 1.408 1.626 1.631l0.857 0.252c0.074 0.015 0.118 0.074 0.118 0.148 0 0.117-0.147 0.159-0.268 0.193l-0.020 0.006-0.019 0.005-0.669 0.197c-0.798 0.237-1.404 0.845-1.626 1.631l-0.251 0.86c-0.015 0.074-0.074 0.119-0.148 0.119-0.117 0-0.158-0.147-0.192-0.267-0.004-0.014-0.008-0.027-0.011-0.039l-0.196-0.672c-0.236-0.8-0.842-1.408-1.626-1.631l-0.857-0.252c-0.074-0.015-0.118-0.074-0.118-0.148 0-0.117 0.147-0.159 0.268-0.192l0.039-0.011 0.669-0.197c0.798-0.237 1.404-0.845 1.626-1.631l0.251-0.86z"></path>
<path d="M4.25 14c0-0.552 0.448-1 1-1h10c0.552 0 1 0.448 1 1s-0.448 1-1 1h-10c-0.552 0-1-0.448-1-1z"></path>
<path d="M4.25 18c0-0.552 0.448-1 1-1h7.177c0.552 0 1 0.448 1 1s-0.448 1-1 1h-7.176c-0.552 0-1-0.448-1-1z"></path>
<path d="M4.25 22c0-0.552 0.448-1 1-1h5.059c0.552 0 1 0.448 1 1s-0.448 1-1 1h-5.059c-0.552 0-1-0.448-1-1z"></path>
<path d="M25.258 12.113l0.093 0.055 0.083 0.063 0.052 0.046 1.885 1.722c0.318 0.241 0.448 0.639 0.344 1.005l-0.034 0.099-0.044 0.091-0.074 0.129-9.63 9.763c-0.109 0.109-0.237 0.2-0.407 0.275l-0.135 0.053-0.124 0.034-2.468 0.552h-0.090l-0.104-0.003c-0.365-0.031-0.67-0.264-0.791-0.586l-0.028-0.090-0.021-0.12-0.012-0.141 0.438-2.428c0.028-0.151 0.085-0.296 0.185-0.45l0.083-0.118 0.082-0.092 9.612-9.747c0.315-0.256 0.754-0.295 1.106-0.112l0.003-0.001zM22.191 16.409l-6.467 6.559-0.238 1.321 1.36-0.303 6.417-6.504-1.072-1.074zM24.813 13.749l-1.45 1.47 1.074 1.074 1.5-1.52-1.123-1.024z"></path>
</svg>
