<?xml version="1.0" encoding="UTF-8"?>
<svg viewBox="0 0 32 32" version="1.1" xmlns="http://www.w3.org/2000/svg" xmlns:xlink="http://www.w3.org/1999/xlink">
<title>event-new_border</title>
<path d="M21 2c0.513 0 0.936 0.386 0.993 0.883l0.007 0.117v1h4c1.054 0 1.918 0.816 1.994 1.851l0.006 0.149v20c0 1.054-0.816 1.918-1.851 1.994l-0.149 0.006h-20c-1.054 0-1.918-0.816-1.995-1.851l-0.006-0.149v-20c0-1.054 0.816-1.918 1.851-1.995l0.149-0.006h4v-1c0-0.552 0.448-1 1-1 0.513 0 0.935 0.386 0.993 0.883l0.007 0.117v1h8v-1c0-0.552 0.448-1 1-1zM26 10h-20v15c0 0.513 0.386 0.936 0.883 0.993l0.117 0.007h18c0.513 0 0.936-0.386 0.993-0.883l0.007-0.117v-15zM13 13h6c0.724 0 1.196 0.739 0.923 1.385l-0.049 0.101-5 9c-0.268 0.483-0.877 0.657-1.36 0.389-0.448-0.249-0.63-0.792-0.439-1.255l0.051-0.105 4.175-7.514h-4.3c-0.552 0-1-0.448-1-1 0-0.513 0.386-0.935 0.883-0.993l0.117-0.007zM25 6h-18c-0.513 0-0.936 0.386-0.993 0.883l-0.007 0.117v1h20v-1c0-0.513-0.386-0.936-0.883-0.993l-0.117-0.007z"></path>
</svg>
