<?xml version="1.0" encoding="UTF-8"?>
<svg viewBox="0 0 32 32" version="1.1" xmlns="http://www.w3.org/2000/svg" xmlns:xlink="http://www.w3.org/1999/xlink">
<title>thread-reply-snackbar</title>
<path d="M16.407 4.089c1.027 0 1.869 0.801 1.943 1.818l0.006 0.146 0.001 5.080 0.973-0.001c6.998 0 12.67 5.717 12.67 12.77v2.947c0 1.17-1.667 1.359-1.925 0.218-0.78-3.463-3.801-5.998-7.346-6.107l-0.257-0.004h-4.114l-0.001 5.080c0 0.52-0.206 1.021-0.571 1.389-0.721 0.727-1.866 0.765-2.632 0.115l-0.001 0.002-0.124-0.115-9.914-9.992c-0.721-0.727-0.759-1.881-0.114-2.653l0.114-0.124 9.914-9.992c0.365-0.368 0.861-0.575 1.379-0.575l0.001-0.001zM12.082 4.313c0.342 0.372 0.346 0.947 0.013 1.325l-0.183 0.206-9.946 10.2 9.946 10.042 0.179 0.202c0.359 0.403 0.328 1.026-0.070 1.39-0.331 0.304-0.817 0.335-1.178 0.096l-0.13-0.103-10.119-10.217c-0.774-0.758-0.795-2.010-0.048-2.795l0.077-0.076 0.080-0.072 10.010-10.247c0.391-0.369 1.004-0.348 1.368 0.049v0zM16.213 6.331c-0.052 0-0.101 0.020-0.138 0.057l-9.443 9.518c-0.077 0.076-0.077 0.201 0 0.279l9.443 9.518c0.077 0.076 0.2 0.076 0.276 0 0.037-0.037 0.058-0.086 0.058-0.139l0.001-5.587c0-0.543 0.437-0.983 0.974-0.983l5.39 0.005c2.761 0.085 5.262 1.335 6.996 3.306l0.197 0.231-0.039-0.279c-0.74-4.867-4.701-8.665-9.622-9.112l0.001-0.044-2.924-0.001c-0.5 0-0.912-0.379-0.967-0.868l-0.007-0.115-0.001-5.588c0-0.108-0.087-0.196-0.194-0.196l-0.001-0.001z"></path>
</svg>
