<?xml version="1.0" encoding="UTF-8"?>
<svg viewBox="0 0 32 32" version="1.1" xmlns="http://www.w3.org/2000/svg" xmlns:xlink="http://www.w3.org/1999/xlink">
<title>features</title>
<path d="M18.197 2.6l-6.277 6.82-4.396 4.836-1.571 1.753-0.121 0.157-0.039 0.056-0.109 0.178c-0.020 0.035-0.041 0.073-0.061 0.112-0.122 0.233-0.215 0.475-0.263 0.743l-0.026 0.188c-0.109 1.176 0.793 2.039 2.12 2.039l7.468-0-2.468 8.765c-0.153 0.544 0.014 1.127 0.431 1.507 0.608 0.553 1.547 0.51 2.102-0.093l2.014-2.224 5.594-6.249 4.416-4.973 0.087-0.186 0.082-0.192c0.59-1.522-0.381-2.769-1.937-2.769l-7.396-0.001 2.847-8.984c0.174-0.551 0.015-1.153-0.409-1.545-0.599-0.554-1.528-0.521-2.088 0.062l0-0z"></path>
</svg>
