<?xml version="1.0" encoding="UTF-8"?>
<svg viewBox="0 0 27 32" version="1.1" xmlns="http://www.w3.org/2000/svg" xmlns:xlink="http://www.w3.org/1999/xlink">
<title>start</title>
<path d="M2.667 5.49h21.020c1.473 0 2.667 1.194 2.667 2.667v21.020c0 1.473-1.194 2.667-2.667 2.667h-21.020c-1.473 0-2.667-1.194-2.667-2.667v-21.020c0-1.473 1.194-2.667 2.667-2.667zM3.333 8.824v19.686h19.686v-19.686h-19.686z"></path>
<path d="M13.176 13.176c0.606 0 1.098 0.492 1.098 1.098l-0 3.294 3.294 0c0.606 0 1.098 0.492 1.098 1.098s-0.492 1.098-1.098 1.098l-3.294-0 0 3.294c0 0.606-0.492 1.098-1.098 1.098s-1.098-0.492-1.098-1.098l-0-3.294-3.294 0c-0.606 0-1.098-0.492-1.098-1.098s0.492-1.098 1.098-1.098l3.294-0 0-3.294c0-0.606 0.492-1.098 1.098-1.098z"></path>
<path d="M13.176 0c3.032 0 5.49 2.458 5.49 5.49h-3.294c0-1.213-0.983-2.196-2.196-2.196s-2.196 0.983-2.196 2.196h-3.294c0-3.032 2.458-5.49 5.49-5.49z"></path>
</svg>
