<?xml version="1.0" encoding="UTF-8"?>
<svg viewBox="0 0 32 32" version="1.1" xmlns="http://www.w3.org/2000/svg" xmlns:xlink="http://www.w3.org/1999/xlink">
<title>hybrid-contact</title>
<path d="M29 3c1.105 0 2 0.895 2 2v22c0 1.105-0.895 2-2 2h-26c-1.105 0-2-0.895-2-2v-22c0-1.105 0.895-2 2-2h26zM24.088 6.957c-0.48-0.019-1.531 0.204-1.919 0.432-0.436 0.242-0.667 0.732-0.568 1.256 0.252 1.087 0.403 2.221 0.529 3.352 0.052 0.505 0.437 0.879 0.946 0.932 0.299 0.031 0.578-0.028 0.84-0.076 0.201-0.052 0.384-0.066 0.581-0.058 0 0 0.091 0.009 0.171 0.107 0.19 0.205 0.64 0.825 0.666 2.78-0.007 2.088-0.548 2.664-0.714 2.799-0.064 0.052-0.129 0.076-0.129 0.076-0.195-0.005-0.387-0.042-0.579-0.078-0.281-0.047-0.551-0.105-0.853-0.077-0.502 0.052-0.911 0.459-0.942 0.926-0.12 1.138-0.313 2.284-0.501 3.366v0l-0.018 0.128c-0.041 0.472 0.176 0.913 0.584 1.11 0.371 0.218 1.422 0.436 1.936 0.432 0.45 0.016 0.892-0.179 1.305-0.513 1.583-1.282 2.519-4.347 2.509-8.171-0.026-5.567-1.992-8.632-3.842-8.723zM16.002 16.978l-10.16 0.006c-0.927 0.072-1.676 0.774-1.818 1.677l-0.019 0.161-0.005 0.149v5.029h14v-5.029l-0.005-0.149c-0.076-1.031-0.939-1.844-1.993-1.844zM11.012 7c-2.207 0-3.996 1.784-3.996 3.986s1.789 3.986 3.996 3.986c2.207 0 3.996-1.784 3.996-3.986s-1.789-3.986-3.996-3.986z"></path>
</svg>
