<?xml version="1.0" encoding="UTF-8"?>
<svg viewBox="0 0 32 32" version="1.1" xmlns="http://www.w3.org/2000/svg" xmlns:xlink="http://www.w3.org/1999/xlink">
<title>repeat</title>
<path d="M27 15c-0.552 0-1 0.448-1 1v6c0 0.552-0.448 1-1 1l-17.829 0.001 2.536-2.536c0.391-0.391 0.391-1.024 0-1.414s-1.024-0.391-1.414 0l-4.243 4.243c-0.391 0.391-0.391 1.024 0 1.414l4.243 4.243c0.391 0.391 1.024 0.391 1.414 0s0.391-1.024 0-1.414l-2.536-2.535 18.829-0.001c1.105 0 2-0.895 2-2v-7c0-0.552-0.448-1-1-1zM22.293 3.050c-0.391 0.391-0.391 1.024 0 1.414l2.536 2.535-18.829 0.001c-1.105 0-2 0.895-2 2v7c0 0.552 0.448 1 1 1s1-0.448 1-1v-6c0-0.552 0.448-1 1-1l17.829-0.001-2.536 2.536c-0.391 0.391-0.391 1.024 0 1.414s1.024 0.391 1.414 0l4.243-4.243c0.391-0.391 0.391-1.024 0-1.414l-4.243-4.243c-0.391-0.391-1.024-0.391-1.414 0z"></path>
</svg>
