<?xml version="1.0" encoding="UTF-8"?>
<svg viewBox="0 0 32 32" version="1.1" xmlns="http://www.w3.org/2000/svg" xmlns:xlink="http://www.w3.org/1999/xlink">
<title>conference</title>
<path d="M28.758 21.902c1.435 0.828 1.927 2.663 1.098 4.098s-2.663 1.927-4.098 1.098c-1.435-0.828-1.927-2.663-1.098-4.098s2.663-1.927 4.098-1.098zM7.34 23c0.828 1.435 0.337 3.27-1.098 4.098s-3.27 0.337-4.098-1.098c-0.828-1.435-0.337-3.27 1.098-4.098s3.27-0.337 4.098 1.098zM16 10c4.418 0 8 3.582 8 8s-3.582 8-8 8c-4.418 0-8-3.582-8-8s3.582-8 8-8zM16 2c1.657 0 3 1.343 3 3s-1.343 3-3 3c-1.657 0-3-1.343-3-3s1.343-3 3-3z"></path>
</svg>
