<?xml version="1.0" encoding="UTF-8"?>
<svg viewBox="0 0 32 32" version="1.1" xmlns="http://www.w3.org/2000/svg" xmlns:xlink="http://www.w3.org/1999/xlink">
<title>calendar-week</title>
<path d="M26 4c1.105 0 2 0.895 2 2v20c0 1.105-0.895 2-2 2h-20c-1.105 0-2-0.895-2-2v-20c0-1.105 0.895-2 2-2h20zM25 6h-18c-0.552 0-1 0.448-1 1v18c0 0.552 0.448 1 1 1h18c0.552 0 1-0.448 1-1v-18c0-0.552-0.448-1-1-1zM10 9c0.552 0 1 0.448 1 1v12c0 0.513-0.386 0.936-0.883 0.993l-0.117 0.007c-0.552 0-1-0.448-1-1v-12c0-0.513 0.386-0.935 0.883-0.993l0.117-0.007zM22 9c0.552 0 1 0.448 1 1v12c0 0.513-0.386 0.936-0.883 0.993l-0.117 0.007c-0.552 0-1-0.448-1-1v-12c0-0.513 0.386-0.935 0.883-0.993l0.117-0.007zM16 9c0.552 0 1 0.448 1 1v12c0 0.513-0.386 0.936-0.883 0.993l-0.117 0.007c-0.552 0-1-0.448-1-1v-12c0-0.513 0.386-0.935 0.883-0.993l0.117-0.007z"></path>
</svg>
