<?xml version="1.0" encoding="UTF-8"?>
<svg viewBox="0 0 32 32" version="1.1" xmlns="http://www.w3.org/2000/svg" xmlns:xlink="http://www.w3.org/1999/xlink">
<title>take_over</title>
<path d="M9.064 16.054c1.167 0.044 2.103 0.989 2.146 2.168 0.054 0.846 0.025 1.695 0.036 2.543l-0.018 1.279c3.111 0.906 6.414 0.901 9.523-0.014l-0.011-3.010c-0.044-0.535 0.032-1.074 0.223-1.575 0.312-0.8 1.068-1.333 1.919-1.353 1.621-0.040 3.244-0.038 4.868 0.009 1.147 0.040 2.081 0.946 2.167 2.102 0.022 0.275 0.039 0.613 0.052 0.984l0.020 0.775 0.010 0.804v1.137l-0.008 0.63c-0.032 0.772-0.313 2.513-0.8 3.109-0.029 0.048-0.056 0.098-0.080 0.149l-0.649 0.673-0.71 0.518c-0.119 0.085-0.239 0.169-0.362 0.249-1.254 0.764-2.6 1.359-4.005 1.772l-0.529 0.146c-2.453 0.707-5.002 1.020-7.552 0.927-3.121-0.131-6.154-0.682-9.021-1.992-1.053-0.449-2.023-1.076-2.869-1.852-0.858-0.747-1.362-3.825-1.389-4.969l-0.020-1.148c-0.009-0.574-0.009-1.147 0.031-1.717 0.109-1.461 0.956-2.316 2.407-2.368 1.538-0.049 3.087-0.034 4.621 0.025zM16 2c0.32 0 0.604 0.15 0.787 0.383 0.032 0.025 0.062 0.052 0.091 0.081l5.657 5.657c0.391 0.391 0.391 1.024 0 1.414s-1.024 0.391-1.414 0l-4.122-4.122 0 12.586c0 0.552-0.448 1-1 1s-1-0.448-1-1l-0-12.587-4.121 4.123c-0.391 0.391-1.024 0.391-1.414 0s-0.391-1.024 0-1.414l5.657-5.657 0.094-0.083c0.187-0.235 0.469-0.381 0.784-0.381z"></path>
</svg>
