<?xml version="1.0" encoding="UTF-8"?>
<svg viewBox="0 0 32 32" version="1.1" xmlns="http://www.w3.org/2000/svg" xmlns:xlink="http://www.w3.org/1999/xlink">
<title>txt_border</title>
<path d="M20.565 2.494c-0.355-0.315-0.842-0.494-1.317-0.494h-13.248c-1.080 0-2 0.907-2 2v11c0 0.546 0.466 0.99 1.006 0.99s0.994-0.444 0.994-0.99c0-0.364 0-3.698 0-10 0-0.546 0.46-1 1-1h11.872c0.238 0 0.481 0.090 0.659 0.248l6.128 5.362c0.211 0.187 0.383 0.514 0.383 0.799l-0.043 4.592c0 0.546 0.46 1 1 1s1-0.454 1-1v-5.042c0-0.57-0.259-1.18-0.683-1.557l-6.752-5.907zM29.821 19.166c0.482 0 0.872-0.412 0.872-0.919s-0.39-0.919-0.872-0.919h-6.838c-0.481 0-0.872 0.412-0.872 0.919s0.392 0.919 0.872 0.919h2.391v9.739c0 0.605 0.465 1.095 1.038 1.095s1.038-0.489 1.038-1.095v-9.739h2.371zM21.902 28.669c0.354 0.572-0.036 1.331-0.684 1.331h-0.559c-0.15 0-0.271-0.041-0.363-0.124-0.091-0.090-0.163-0.182-0.215-0.279l-3.635-4.81-3.724 4.81c-0.066 0.097-0.141 0.189-0.225 0.279-0.085 0.082-0.193 0.124-0.323 0.124h-0.428c-0.651 0-1.040-0.765-0.68-1.337l3.968-5-3.747-4.992c-0.365-0.572 0.024-1.342 0.677-1.342h0.532c0.15 0 0.261 0.024 0.334 0.073 0.072 0.048 0.133 0.12 0.186 0.215l3.556 4.951 3.547-4.909c0.058-0.111 0.124-0.193 0.196-0.249s0.163-0.082 0.274-0.082h0.437c0.658 0 1.046 0.776 0.673 1.348l-3.755 4.893 3.957 5.1zM9.404 19.166c0.481 0 0.872-0.412 0.872-0.919s-0.392-0.919-0.872-0.919h-6.838c-0.482 0-0.872 0.412-0.872 0.919s0.39 0.919 0.872 0.919h2.39v9.739c0 0.605 0.465 1.095 1.040 1.095 0.573 0 1.038-0.489 1.038-1.095v-9.739h2.371z"></path>
</svg>
