<?xml version="1.0" encoding="UTF-8"?>
<svg viewBox="0 0 32 32" version="1.1" xmlns="http://www.w3.org/2000/svg" xmlns:xlink="http://www.w3.org/1999/xlink">
<title>AISummaryMD</title>
<path d="M28.995 6.129l2.009 0.57c0.587 0.178 0.995 0.713 0.995 1.318s-0.409 1.158-0.995 1.318l-2.009 0.57c-1.511 0.428-2.684 1.604-3.111 3.118l-0.569 2.014c-0.16 0.57-0.693 0.962-1.316 0.962s-1.155-0.392-1.316-0.962l-0.569-2.014c-0.427-1.514-1.6-2.69-3.111-3.118l-2.009-0.57c-0.587-0.16-0.996-0.713-0.996-1.318s0.409-1.158 0.996-1.318l2.009-0.57c1.511-0.428 2.684-1.604 3.111-3.118l0.569-2.013c0.16-0.588 0.711-0.998 1.316-0.998s1.138 0.41 1.316 0.998l0.569 2.013c0.427 1.514 1.6 2.69 3.111 3.118zM24 11.247c0.679-1.412 1.817-2.551 3.23-3.229-1.413-0.678-2.551-1.817-3.23-3.229-0.679 1.412-1.817 2.551-3.23 3.229 1.413 0.678 2.551 1.817 3.23 3.229z"></path>
<path d="M0 11h14v2.4h-14v-2.4z"></path>
<path d="M0 19h18v2.4h-18v-2.4z"></path>
<path d="M22 27h-22v2.4h22v-2.4z"></path>
</svg>
