<?xml version="1.0" encoding="UTF-8"?>
<svg viewBox="0 0 32 32" version="1.1" xmlns="http://www.w3.org/2000/svg" xmlns:xlink="http://www.w3.org/1999/xlink">
<title>ical</title>
<path fill="#000" style="fill: var(--color4, #000)" d="M8.571 4h14.857c2.525 0 4.571 2.047 4.571 4.571v14.857c0 2.525-2.047 4.571-4.571 4.571h-14.857c-2.525 0-4.571-2.047-4.571-4.571v-14.857c0-2.525 2.047-4.571 4.571-4.571z"></path>
<path fill="#f8f8f8" style="fill: var(--color51, #f8f8f8)" d="M8.571 4h14.857c2.525 0 4.571 2.047 4.571 4.571v14.857c0 2.525-2.047 4.571-4.571 4.571h-14.857c-2.525 0-4.571-2.047-4.571-4.571v-14.857c0-2.525 2.047-4.571 4.571-4.571z"></path>
<path fill="#e23736" style="fill: var(--color52, #e23736)" d="M8.571 4h14.857c2.525 0 4.571 2.047 4.571 4.571v2.629h-24v-2.629c0-2.525 2.047-4.571 4.571-4.571z"></path>
<path fill="#f4f2f2" style="fill: var(--color53, #f4f2f2)" d="M12.395 9.22c0.256 0 0.459-0.039 0.61-0.118s0.266-0.176 0.346-0.293c0.080-0.117 0.131-0.242 0.154-0.377s0.034-0.258 0.034-0.37v-2.347h-0.754v2.314c0 0.061-0.002 0.124-0.007 0.19s-0.019 0.126-0.043 0.182c-0.024 0.056-0.063 0.102-0.118 0.137s-0.131 0.053-0.23 0.053c-0.090 0-0.162-0.014-0.218-0.043s-0.1-0.068-0.132-0.118c-0.032-0.050-0.054-0.11-0.067-0.18s-0.019-0.147-0.019-0.23v-0.154h-0.682v0.298c0 0.189 0.032 0.35 0.096 0.482s0.149 0.242 0.254 0.326c0.106 0.085 0.226 0.147 0.36 0.187s0.274 0.060 0.418 0.060zM15.885 9.22c0.458 0 0.816-0.113 1.075-0.338s0.389-0.57 0.389-1.034v-2.131h-0.754v2.131c0 0.256-0.051 0.444-0.154 0.564s-0.288 0.18-0.557 0.18c-0.154 0-0.276-0.022-0.367-0.065s-0.162-0.099-0.214-0.168c-0.051-0.069-0.085-0.148-0.101-0.238s-0.024-0.181-0.024-0.274v-2.131h-0.754v2.131c0 0.467 0.127 0.813 0.382 1.037s0.614 0.336 1.078 0.336zM20.661 9.143v-0.634h-1.67v-2.794h-0.754v3.427h2.424z"></path>
<path fill="#212121" style="fill: var(--color54, #212121)" d="M13.138 24.4v-10.146h-0.942l-2.735 1.877v0.977l2.721-1.828h0.028v9.12h0.928zM17.385 24.4l4.648-9.246v-0.9h-6.609v0.858h5.646v0.028l-4.704 9.26h1.020z"></path>
</svg>
