<?xml version="1.0" encoding="UTF-8"?>
<svg viewBox="0 0 32 32" version="1.1" xmlns="http://www.w3.org/2000/svg" xmlns:xlink="http://www.w3.org/1999/xlink">
<title>active-call</title>
<path d="M25.075 22.515c-1.339-1.139-2.75-2.35-4.061-3.626-0.515-0.541-1.445-0.635-2.13-0.2-0.41 0.266-0.69 0.605-0.995 0.941-0.205 0.235-0.41 0.47-0.65 0.67 0 0-0.106 0.035-0.24 0.035-0.346 0-1.614-0.17-3.75-2.72-1.96-2.419-2.026-3.626-1.995-4.066 0-0.2 0.106-0.301 0.106-0.301 0.24-0.205 0.485-0.37 0.79-0.506 0.379-0.2 0.79-0.405 1.134-0.739 0.586-0.57 0.69-1.41 0.24-2.080-0.995-1.51-1.96-3.050-2.75-4.63-0.41-0.739-1.2-1.11-1.995-0.974-0.72 0.106-2.27 0.875-2.854 1.374-2.235 1.946-1.586 7.65 4.054 14.494 3.885 4.694 8.186 7.52 11.485 7.52 0.859 0 1.614-0.2 2.165-0.666 0.65-0.506 1.75-1.814 1.995-2.45 0.341-0.706 0.101-1.541-0.55-2.080l0.002 0.002z"></path>
<path d="M21.285 17.026c0.586 0.17 1.186-0.226 1.254-0.83 0.155-1.294 0.11-3.421-1.421-4.866-1.445-1.365-3.365-1.47-4.574-1.365-0.614 0.050-1.035 0.65-0.87 1.245v0.005c0.13 0.461 0.565 0.765 1.035 0.725 0.84-0.075 2.155-0.019 3.050 0.83 0.915 0.866 0.925 2.294 0.814 3.19-0.050 0.475 0.245 0.93 0.71 1.066h0.002z"></path>
<path d="M24.72 7.595c-1.626-1.541-3.901-2.374-6.57-2.419-0.97-0.014-1.83 0.075-2.454 0.17-0.586 0.090-0.955 0.666-0.8 1.24 0.13 0.485 0.61 0.795 1.106 0.72 0.546-0.085 1.31-0.165 2.17-0.146 2.174 0.045 3.925 0.68 5.19 1.875 1.27 1.2 1.92 2.981 1.93 5.285 0.005 0.955-0.106 1.814-0.214 2.414-0.090 0.499 0.21 0.986 0.694 1.13 0.56 0.165 1.146-0.195 1.25-0.774 0.125-0.685 0.25-1.64 0.25-2.72 0-2.854-0.88-5.2-2.55-6.774v0z"></path>
</svg>
