<?xml version="1.0" encoding="UTF-8"?>
<svg viewBox="0 0 32 32" version="1.1" xmlns="http://www.w3.org/2000/svg" xmlns:xlink="http://www.w3.org/1999/xlink">
<title>call-more_sp</title>
<path d="M8.286 13.429c1.42 0 2.571 1.151 2.571 2.571s-1.151 2.571-2.571 2.571c-1.42 0-2.571-1.151-2.571-2.571s1.151-2.571 2.571-2.571zM16 13.429c1.42 0 2.571 1.151 2.571 2.571s-1.151 2.571-2.571 2.571c-1.42 0-2.571-1.151-2.571-2.571s1.151-2.571 2.571-2.571zM23.714 13.429c1.42 0 2.571 1.151 2.571 2.571s-1.151 2.571-2.571 2.571c-1.42 0-2.571-1.151-2.571-2.571s1.151-2.571 2.571-2.571z"></path>
</svg>
