<?xml version="1.0" encoding="UTF-8"?>
<svg viewBox="0 0 32 32" version="1.1" xmlns="http://www.w3.org/2000/svg" xmlns:xlink="http://www.w3.org/1999/xlink">
<title>quote</title>
<path d="M28 4c1.105 0 2 0.895 2 2v16c0 1.105-0.895 2-2 2h-7.586c-0.265 0-0.52 0.105-0.707 0.293l-3.141 3.141c-0.312 0.312-0.819 0.312-1.131 0l-3.141-3.141c-0.188-0.188-0.442-0.293-0.707-0.293h-7.586c-1.105 0-2-0.895-2-2v-16c0-1.105 0.895-2 2-2h24zM27 6h-22c-0.552 0-1 0.448-1 1v14c0 0.552 0.448 1 1 1h7c0.53 0 1.039 0.211 1.414 0.586l2.586 2.586 2.586-2.586c0.375-0.375 0.884-0.586 1.414-0.586h7c0.552 0 1-0.448 1-1v-14c0-0.552-0.448-1-1-1zM12 10c1.538 0 2.807 1.158 2.98 2.65l0.015 0.185 0.005 0.164-0.004 0.147c-0.002 0.051-0.005 0.102-0.010 0.152l0.001-0.031c-0.077 2.298-1.272 4.313-3.056 5.525-0.083 0.056-0.182 0.090-0.29 0.090-0.276 0-0.5-0.224-0.5-0.5 0-0.168 0.083-0.317 0.211-0.408 0.86-0.579 1.561-1.375 2.026-2.31-0.413 0.213-0.88 0.334-1.376 0.334-1.657 0-3-1.343-3-3s1.343-3 3-3zM20 10c1.538 0 2.807 1.158 2.98 2.65l0.015 0.185 0.005 0.164-0.004 0.147c-0.002 0.051-0.005 0.102-0.010 0.152l0-0.031c-0.077 2.298-1.272 4.313-3.056 5.525-0.083 0.056-0.182 0.090-0.29 0.090-0.276 0-0.5-0.224-0.5-0.5 0-0.168 0.083-0.317 0.211-0.408 0.86-0.579 1.561-1.375 2.026-2.31-0.413 0.213-0.881 0.334-1.376 0.334-1.657 0-3-1.343-3-3s1.343-3 3-3z"></path>
</svg>
