<?xml version="1.0" encoding="UTF-8"?>
<svg viewBox="0 0 32 32" version="1.1" xmlns="http://www.w3.org/2000/svg" xmlns:xlink="http://www.w3.org/1999/xlink">
<title>Logout</title>
<path d="M8 29h16c1.104-0.001 1.999-0.896 2-2v-2c0-0.552-0.448-1-1-1s-1 0.448-1 1v1c0 0.552-0.448 1-1 1h-14c-0.552 0-1-0.448-1-1v-20c0-0.552 0.448-1 1-1h14c0.552 0 1 0.448 1 1v1c0 0.552 0.448 1 1 1s1-0.448 1-1v-2c-0.001-1.104-0.896-1.999-2-2h-16c-1.104 0.001-1.999 0.896-2 2v22c0.001 1.104 0.896 1.999 2 2zM23.615 19.879l2.879-2.879h-13.172c-0.552 0-1-0.448-1-1s0.448-1 1-1h13.172l-2.879-2.879c-0.39-0.39-0.39-1.024 0-1.414s1.024-0.39 1.414 0l4.586 4.586c0.391 0.391 0.391 1.024 0 1.414l-4.586 4.586c-0.39 0.39-1.024 0.39-1.414 0s-0.39-1.024 0-1.414z"></path>
</svg>
