<?xml version="1.0" encoding="UTF-8"?>
<svg viewBox="0 0 32 32" version="1.1" xmlns="http://www.w3.org/2000/svg" xmlns:xlink="http://www.w3.org/1999/xlink">
<title>record_sp</title>
<path d="M16.001 6.857c4.95 0.008 8.979 3.944 9.137 8.858l0.005 0.285-0.004 0.285c-0.15 4.918-4.184 8.858-9.139 8.858-5.049 0-9.143-4.093-9.143-9.143 0-4.954 3.94-8.988 8.858-9.139l0.286-0.004zM16.001 9.143l-0.258 0.005c-3.668 0.135-6.6 3.151-6.6 6.852 0 3.787 3.070 6.857 6.857 6.857 3.621 0 6.599-2.812 6.841-6.353l0.013-0.254 0.004-0.246c-0.006-3.701-2.936-6.715-6.6-6.856l-0.257-0.005zM16 11.429c2.525 0 4.571 2.047 4.571 4.571 0 2.448-1.925 4.447-4.343 4.566l-0.228 0.006-0.228-0.006c-2.419-0.119-4.343-2.118-4.343-4.566 0-2.525 2.047-4.571 4.571-4.571z"></path>
</svg>
