<?xml version="1.0" encoding="UTF-8"?>
<svg viewBox="0 0 32 32" version="1.1" xmlns="http://www.w3.org/2000/svg" xmlns:xlink="http://www.w3.org/1999/xlink">
<title>engage-digital_border</title>
<path d="M8.7 11.7c-2.4 0-4.3 1.9-4.3 4.3s1.9 4.3 4.3 4.3 4.3-1.9 4.3-4.3-1.9-4.3-4.3-4.3zM8.7 18.3c-1.3 0-2.3-1-2.3-2.3s1-2.3 2.3-2.3 2.3 1 2.3 2.3c0 1.3-1 2.3-2.3 2.3zM26.7 12.3h-9.3c-0.6 0-1 0.4-1 1s0.4 1 1 1h9.3c0.6 0 1-0.4 1-1s-0.5-1-1-1zM13.3 9h13.3c0.6 0 1-0.4 1-1s-0.4-1-1-1h-13.3c-0.6 0-1 0.4-1 1s0.5 1 1 1zM26.7 23h-13.4c-0.6 0-1 0.4-1 1s0.4 1 1 1h13.3c0.6 0 1-0.4 1-1s-0.4-1-0.9-1zM26.7 17.7h-9.3c-0.6 0-1 0.4-1 1s0.4 1 1 1h9.3c0.6 0 1-0.4 1-1s-0.5-1-1-1zM6 22.3c-0.9 0-1.7 0.7-1.7 1.7s0.7 1.7 1.7 1.7 1.6-0.7 1.6-1.7-0.7-1.7-1.6-1.7zM6 9.6c0.9 0 1.6-0.7 1.6-1.6s-0.7-1.6-1.6-1.6c-0.9 0-1.6 0.7-1.6 1.6s0.7 1.6 1.6 1.6z"></path>
</svg>
