<?xml version="1.0" encoding="UTF-8"?>
<svg viewBox="0 0 32 32" version="1.1" xmlns="http://www.w3.org/2000/svg" xmlns:xlink="http://www.w3.org/1999/xlink">
<title>what-is-new</title>
<path d="M27 3c1.105 0 2 0.895 2 2v22c0 1.105-0.895 2-2 2h-22c-1.105 0-2-0.895-2-2v-22c0-1.105 0.895-2 2-2h22zM19 16h-10c-0.552 0-1 0.448-1 1 0 0.513 0.386 0.936 0.883 0.993l0.117 0.007h10c0.552 0 1-0.448 1-1 0-0.513-0.386-0.936-0.883-0.993l-0.117-0.007zM23 10h-14c-0.552 0-1 0.448-1 1 0 0.513 0.386 0.935 0.883 0.993l0.117 0.007h14c0.552 0 1-0.448 1-1 0-0.513-0.386-0.935-0.883-0.993l-0.117-0.007z"></path>
</svg>
