<?xml version="1.0" encoding="UTF-8"?>
<svg viewBox="0 0 32 32" version="1.1" xmlns="http://www.w3.org/2000/svg" xmlns:xlink="http://www.w3.org/1999/xlink">
<title>globe</title>
<path d="M16 3.629c-6.834 0-12.373 5.54-12.373 12.373s5.54 12.373 12.373 12.373c6.834 0 12.373-5.54 12.373-12.373s-5.54-12.373-12.373-12.373zM1.706 16.003c0-7.894 6.399-14.293 14.293-14.293s14.293 6.399 14.293 14.293c0 7.894-6.399 14.293-14.293 14.293s-14.293-6.399-14.293-14.293z"></path>
<path d="M1.706 16.001c0-0.53 0.43-0.96 0.96-0.96h26.667c0.53 0 0.96 0.43 0.96 0.96s-0.43 0.96-0.96 0.96h-26.667c-0.53 0-0.96-0.43-0.96-0.96z"></path>
<path d="M16 1.709c0.27 0 0.527 0.113 0.709 0.313 3.492 3.823 5.476 8.784 5.584 13.961 0 0.013 0 0.027 0 0.040-0.108 5.177-2.092 10.138-5.584 13.961-0.182 0.199-0.439 0.312-0.709 0.312s-0.527-0.113-0.709-0.312c-3.492-3.823-5.476-8.784-5.584-13.961-0-0.013-0-0.027 0-0.040 0.108-5.177 2.092-10.138 5.584-13.961 0.182-0.199 0.439-0.313 0.709-0.313zM11.626 16.003c0.095 4.342 1.64 8.516 4.373 11.865 2.733-3.349 4.278-7.523 4.373-11.865-0.095-4.342-1.64-8.516-4.373-11.865-2.733 3.349-4.278 7.523-4.373 11.865z"></path>
</svg>
