<?xml version="1.0" encoding="UTF-8"?>
<svg viewBox="0 0 32 32" version="1.1" xmlns="http://www.w3.org/2000/svg" xmlns:xlink="http://www.w3.org/1999/xlink">
<title>insert-video</title>
<path d="M28 4c1.105 0 2 0.895 2 2v20c0 1.105-0.895 2-2 2h-24c-1.105 0-2-0.895-2-2v-20c0-1.105 0.895-2 2-2h24zM27 6h-22c-0.552 0-1 0.448-1 1v18c0 0.552 0.448 1 1 1h22c0.552 0 1-0.448 1-1v-18c0-0.552-0.448-1-1-1zM14.663 12.241l0.109 0.074 3.737 2.73c0.606 0.455 0.661 1.38 0.11 1.891l-0.11 0.091-3.737 2.684c-0.791 0.562-1.7 0.291-1.768-0.681l-0.004-0.137v-5.748c-0.010-1.024 0.756-1.4 1.554-0.967l0.109 0.064z"></path>
</svg>
