<?xml version="1.0" encoding="UTF-8"?>
<svg viewBox="0 0 32 32" version="1.1" xmlns="http://www.w3.org/2000/svg" xmlns:xlink="http://www.w3.org/1999/xlink">
<title>Select-more</title>
<path d="M12.704 21.723c0.352 0.369 0.367 0.936 0.053 1.322l-0.085 0.092-4.944 4.724c-0.366 0.35-0.929 0.367-1.314 0.059l-0.092-0.084-2.505-2.569c-0.386-0.395-0.378-1.029 0.018-1.414 0.365-0.356 0.933-0.377 1.321-0.067l0.093 0.084 1.813 1.859 4.229-4.040c0.399-0.382 1.032-0.367 1.414 0.032zM28 24c0.552 0 1 0.448 1 1s-0.448 1-1 1h-12c-0.552 0-1-0.448-1-1s0.448-1 1-1zM12.704 12.723c0.352 0.369 0.367 0.936 0.053 1.322l-0.085 0.092-4.944 4.724c-0.366 0.35-0.929 0.367-1.314 0.059l-0.092-0.084-2.505-2.569c-0.386-0.395-0.378-1.029 0.018-1.414 0.365-0.356 0.933-0.377 1.321-0.067l0.093 0.084 1.813 1.859 4.229-4.040c0.399-0.382 1.032-0.367 1.414 0.032zM28 15c0.552 0 1 0.448 1 1s-0.448 1-1 1h-12c-0.552 0-1-0.448-1-1s0.448-1 1-1zM12.704 3.723c0.352 0.369 0.367 0.936 0.053 1.322l-0.085 0.092-4.944 4.724c-0.366 0.35-0.929 0.367-1.314 0.059l-0.092-0.084-2.505-2.569c-0.386-0.395-0.378-1.029 0.018-1.414 0.365-0.356 0.933-0.377 1.321-0.067l0.093 0.084 1.813 1.859 4.229-4.040c0.399-0.382 1.032-0.367 1.414 0.032zM28 6c0.552 0 1 0.448 1 1s-0.448 1-1 1h-12c-0.552 0-1-0.448-1-1s0.448-1 1-1z"></path>
</svg>
