<?xml version="1.0" encoding="UTF-8"?>
<svg viewBox="0 0 32 32" version="1.1" xmlns="http://www.w3.org/2000/svg" xmlns:xlink="http://www.w3.org/1999/xlink">
<title>dial</title>
<path d="M28 3c-0.552 0-1 0.448-1 1v12c0 0.552-0.448 1-1 1l-19.586 0.001 6.536-6.536c0.391-0.391 0.391-1.024 0-1.414s-1.024-0.391-1.414 0l-8.243 8.243c-0.391 0.391-0.391 1.024 0 1.414l8.243 8.243c0.391 0.391 1.024 0.391 1.414 0s0.391-1.024 0-1.414l-6.536-6.535 20.586-0.001c1.105 0 2-0.895 2-2v-13c0-0.552-0.448-1-1-1z"></path>
</svg>
