<?xml version="1.0" encoding="UTF-8"?>
<svg viewBox="0 0 32 32" version="1.1" xmlns="http://www.w3.org/2000/svg" xmlns:xlink="http://www.w3.org/1999/xlink">
<title>view_border</title>
<path d="M16 5c8.284 0 15 8 15 11s-6.716 11-15 11c-8.284 0-15-8-15-11s6.716-11 15-11zM16 7c-3.233 0-6.526 1.462-9.29 3.88-1.169 1.022-2.162 2.156-2.853 3.223-0.568 0.878-0.857 1.609-0.857 1.897s0.289 1.019 0.857 1.897c0.691 1.066 1.684 2.2 2.853 3.223 2.764 2.418 6.056 3.88 9.29 3.88s6.526-1.462 9.29-3.88c1.169-1.022 2.162-2.156 2.853-3.223 0.569-0.878 0.857-1.609 0.857-1.897s-0.289-1.019-0.857-1.897c-0.691-1.066-1.684-2.2-2.853-3.223-2.764-2.418-6.056-3.88-9.29-3.88zM16 10c3.314 0 6 2.686 6 6s-2.686 6-6 6c-3.314 0-6-2.686-6-6s2.686-6 6-6zM16 12c-2.209 0-4 1.791-4 4s1.791 4 4 4c2.209 0 4-1.791 4-4s-1.791-4-4-4z"></path>
</svg>
