<?xml version="1.0" encoding="UTF-8"?>
<svg viewBox="0 0 32 32" version="1.1" xmlns="http://www.w3.org/2000/svg" xmlns:xlink="http://www.w3.org/1999/xlink">
<title>pdf</title>
<path fill="#fff" style="fill: var(--color5, #fff)" opacity="0.991775" d="M3.556 0h24.889c1.964 0 3.556 1.592 3.556 3.556v24.889c0 1.964-1.592 3.556-3.556 3.556h-24.889c-1.964 0-3.556-1.592-3.556-3.556v-24.889c0-1.964 1.592-3.556 3.556-3.556z"></path>
<path fill="#e6413c" style="fill: var(--color66, #e6413c)" opacity="0.16" d="M3.556 0h24.889c1.964 0 3.556 1.592 3.556 3.556v24.889c0 1.964-1.592 3.556-3.556 3.556h-24.889c-1.964 0-3.556-1.592-3.556-3.556v-24.889c0-1.964 1.592-3.556 3.556-3.556z"></path>
<path fill="#e6413c" style="fill: var(--color66, #e6413c)" d="M11.919 8h4.752l5.551 4.785v9.059c0 0.605-0.207 1.116-0.62 1.532s-0.921 0.624-1.522 0.624h-8.161c-0.601 0-1.108-0.208-1.522-0.624s-0.62-0.927-0.62-1.532v-11.688c0-0.605 0.207-1.116 0.62-1.532s0.92-0.624 1.522-0.624zM16.158 11.029l-0.049-0.057c-0.234-0.251-0.572-0.335-0.9-0.225-0.311 0.104-0.569 0.365-0.719 0.825-0.264 0.808-0.106 2.047 0.432 3.062l0.076 0.137 0.080 0.134c-0.32 0.834-0.769 1.803-1.257 2.712-0.948 0.334-1.704 0.773-2.25 1.306-0.718 0.701-1.018 1.403-0.802 1.933 0.115 0.282 0.36 0.467 0.667 0.514l0.078 0.009 0.081 0.003 0.097-0.004c0.239-0.021 0.484-0.113 0.722-0.268 0.497-0.325 1.116-1.18 1.753-2.271l0.091-0.157 0.183-0.324c0.794-0.247 1.632-0.395 2.4-0.469 0.213-0.021 0.425-0.037 0.631-0.049 0.852 0.897 1.556 1.376 2.209 1.497 0.088 0.016 0.177 0.027 0.264 0.033l0.13 0.004 0.102-0.003c0.494-0.026 0.899-0.237 1.096-0.579 0.16-0.278 0.157-0.604-0.009-0.89-0.37-0.641-1.462-0.981-3.075-0.981l-0.169 0.001-0.17 0.004-0.26-0.297-0.236-0.281-0.267-0.328-0.959-1.201-0.041-0.050c0.237-0.679 0.373-1.234 0.403-1.654 0.070-0.97-0.018-1.633-0.28-2.020l-0.048-0.066zM13.052 18.938l-0.164 0.096-0.155 0.1c-0.201 0.135-0.38 0.279-0.536 0.43-0.421 0.411-0.605 0.761-0.604 0.91l0.001 0.009 0.044-0.004 0.050-0.011c0.069-0.019 0.151-0.057 0.233-0.111 0.235-0.154 0.614-0.622 1.048-1.291l0.082-0.128zM18.759 17.835l0.104 0.087 0.111 0.088c0.33 0.251 0.617 0.398 0.866 0.444l0.079 0.012 0.074 0.007 0.078 0.003 0.067-0.002c0.152-0.010 0.272-0.053 0.328-0.1l0.020-0.020-0.024-0.036-0.030-0.034c-0.192-0.193-0.724-0.372-1.534-0.438l-0.138-0.010zM15.71 15.738l-0.127 0.3c-0.175 0.404-0.37 0.823-0.577 1.239 0.595-0.137 1.181-0.227 1.719-0.279l-0.151-0.182-0.34-0.42-0.523-0.658zM15.473 11.611l-0.021 0.021-0.022 0.029c-0.030 0.044-0.061 0.109-0.088 0.19-0.147 0.451-0.098 1.159 0.136 1.825 0.062-0.246 0.1-0.457 0.112-0.626 0.058-0.796-0.002-1.231-0.1-1.41l-0.018-0.029z"></path>
</svg>
