<?xml version="1.0" encoding="UTF-8"?>
<svg viewBox="0 0 32 32" version="1.1" xmlns="http://www.w3.org/2000/svg" xmlns:xlink="http://www.w3.org/1999/xlink">
<title>today-calendar-ico</title>
<path d="M7.056 2c-2.778 0-5.056 2.277-5.056 5.056v17.889c0 2.778 2.277 5.056 5.056 5.056h17.889c2.778 0 5.056-2.277 5.056-5.056v-17.889c0-2.778-2.277-5.056-5.056-5.056h-17.889zM7.056 4.333h17.889c1.516 0 2.722 1.206 2.722 2.722v1.167h-23.333v-1.167c0-1.516 1.206-2.722 2.722-2.722zM4.333 10.556h23.333v14.389c0 1.516-1.206 2.722-2.722 2.722h-17.889c-1.516 0-2.722-1.206-2.722-2.722v-14.389zM21.865 13.654c-0.344-0.006-0.673 0.14-0.899 0.398l-6.18 6.863-3.018-3.018c-0.292-0.304-0.727-0.425-1.135-0.318-0.408 0.106-0.727 0.425-0.834 0.833s0.015 0.841 0.318 1.135l3.889 3.889c0.226 0.226 0.535 0.351 0.856 0.342 0.319-0.008 0.622-0.148 0.837-0.386l7-7.778c0.312-0.337 0.398-0.828 0.218-1.251-0.18-0.424-0.593-0.701-1.054-0.709h0.001z"></path>
</svg>
