<?xml version="1.0" encoding="UTF-8"?>
<svg viewBox="0 0 32 32" version="1.1" xmlns="http://www.w3.org/2000/svg" xmlns:xlink="http://www.w3.org/1999/xlink">
<title>take-over_sp</title>
<path d="M6.846 14.358l3.614 1.362c1.153 0.422 1.961 1.51 1.961 2.786l-0.003 0.155c0 0.551 0.344 1.021 0.828 1.208l0.144 0.046c0.653 0.169 1.635 0.376 2.617 0.406 0.981 0.005 1.959-0.097 2.918-0.303 0.385-0.088 0.68-0.397 0.746-0.783l0.013-0.133 0.009-0.275c0.040-1.237 0.828-2.28 1.924-2.696l0.218-0.072 3.949-1.152 0.243 0.943c1 1.851 1.157 3.671 0.451 5.269l-0.002 0c-0.263 0.583-0.619 1.121-1.054 1.591l-0.371 0.376c-0.535 0.495-1.137 0.93-1.789 1.286l-0.047 0.023c-1.906 1.038-4.321 1.598-6.848 1.598l-0.531-0.009c-4.646-0.139-8.706-2.146-10.107-4.994-0.618-1.257-1.014-3.29 0.606-5.831l0.512-0.8zM16 4.571l4.177 4.181-1.211 1.211-2.167-2.167v8.847h-1.714v-8.728l-2.050 2.048-1.211-1.211 4.177-4.181z"></path>
</svg>
