<?xml version="1.0" encoding="UTF-8"?>
<svg viewBox="0 0 32 32" version="1.1" xmlns="http://www.w3.org/2000/svg" xmlns:xlink="http://www.w3.org/1999/xlink">
<title>whiteboard</title>
<path d="M27.2 3c1.546 0 2.8 1.254 2.8 2.8v15.4c0 1.546-1.254 2.8-2.8 2.8h-4.724l1.396 5.209-2.028 0.543-1.541-5.752h-8.603l-1.541 5.752-2.028-0.543 1.396-5.209h-4.725c-1.546 0-2.8-1.254-2.8-2.8v-15.4c0-1.546 1.254-2.8 2.8-2.8h22.4zM16.562 7.268c-0.694-0.223-1.521 0.115-2.627 0.989l-0.38 0.312-0.396 0.347-0.231 0.209-0.402 0.379-0.296 0.287-0.355 0.354-0.568 0.581-0.67 0.705-0.969 1.051-0.626 0.692-1.169 1.31-0.321 0.364-0.487 0.544-0.296 0.321-0.079 0.081-0.013 0.008c-0.173 0.118-0.305 0.288-0.375 0.487l-0.035 0.123-0.063 0.293 0.051 0.044 0.002 0.013c0.021 0.145 0.073 0.284 0.155 0.408 0.117 0.179 0.288 0.312 0.483 0.381l0.12 0.034 0.124 0.023c0.056 0.009 0.098 0.011 0.157 0.009 0.203-0.007 0.365-0.079 0.561-0.241l0.139-0.125 0.188-0.189 0.275-0.295 0.557-0.624 0.715-0.806 1.166-1.292 0.568-0.618 0.633-0.678 0.504-0.529 0.305-0.316 0.729-0.734 0.442-0.429 0.435-0.404 0.361-0.321 0.406-0.338 0.258-0.195 0.119-0.082v0.014c-0.009 0.316-0.047 0.667-0.115 1.053l-0.075 0.388-0.127 0.553-0.095 0.366-0.226 0.789-0.133 0.437-0.271 0.93-0.108 0.405-0.081 0.362-0.047 0.266-0.004 0.032c-0.089 0.607-0.036 1.082 0.217 1.457l0.099 0.131c0.133 0.149 0.293 0.268 0.473 0.349l0.166 0.062c0.175 0.053 0.357 0.069 0.536 0.050l0.357-0.061 0.27-0.064 0.369-0.111 0.367-0.134 0.129-0.052 0.444-0.193 0.569-0.272 0.507-0.258 0.701-0.373 0.971-0.525 0.402-0.211 0.593-0.292 0.356-0.151 0.197-0.064 0.002 0.018c0.005 0.053 0.007 0.114 0.005 0.183-0.006 0.21-0.049 0.459-0.129 0.73l-0.081 0.245c-0.325 0.907-0.298 1.679 0.128 2.238l0.097 0.117 0.053 0.055c0.342 0.324 0.784 0.511 1.246 0.53l0.195-0.002c0.404-0.013 0.809-0.075 1.203-0.183l0.294-0.089 0.060-0.021c0.449-0.172 0.702-0.64 0.619-1.104l-0.034-0.135c-0.147-0.45-0.585-0.726-1.037-0.667l-0.113 0.022-0.708 0.18c-0.061 0.009-0.118 0.016-0.171 0.020l-0.108 0.005c0.010-0.052 0.024-0.107 0.043-0.168l0.040-0.121c0.442-1.249 0.441-2.389-0.062-3.112l-0.1-0.131c-0.192-0.218-0.424-0.382-0.682-0.486l-0.19-0.065c-0.241-0.065-0.492-0.079-0.738-0.040l-0.227 0.049-0.289 0.079-0.242 0.086-0.389 0.167-0.366 0.177-0.437 0.225-0.525 0.279-1.158 0.624-0.624 0.323-0.487 0.236-0.294 0.134-0.205 0.088-0.322 0.125 0.080-0.319 0.088-0.325 0.188-0.674 0.227-0.777 0.227-0.838 0.109-0.453 0.063-0.291 0.050-0.251c0.145-0.768 0.205-1.454 0.166-2.077l-0.026-0.287-0.001-0.033c-0.018-0.279-0.112-0.546-0.273-0.773-0.138-0.195-0.321-0.353-0.531-0.459l-0.164-0.071z"></path>
</svg>
