<?xml version="1.0" encoding="UTF-8"?>
<svg viewBox="0 0 32 32" version="1.1" xmlns="http://www.w3.org/2000/svg" xmlns:xlink="http://www.w3.org/1999/xlink">
<title>zapier</title>
<path d="M29.749 13.676h-8.139l5.756-5.756c-0.453-0.635-0.957-1.23-1.507-1.781v0c-0.55-0.55-1.146-1.053-1.781-1.505l-5.755 5.755v-8.138c-0.754-0.127-1.527-0.195-2.317-0.195h-0.015c-0.789 0-1.562 0.067-2.316 0.195v8.139l-5.755-5.755c-0.635 0.451-1.231 0.955-1.78 1.506l-0.003 0.002c-0.549 0.549-1.052 1.144-1.504 1.778l5.756 5.756h-8.139c0 0-0.194 1.528-0.194 2.319v0.010c0 0.791 0.067 1.565 0.194 2.319h8.139l-5.756 5.756c0.905 1.269 2.017 2.382 3.287 3.286l5.755-5.756v8.139c0.753 0.126 1.526 0.193 2.314 0.194h0.019c0.788-0.001 1.562-0.067 2.314-0.194v-8.139l5.755 5.756c0.636-0.452 1.231-0.956 1.781-1.506l0.001-0.001c0.549-0.551 1.053-1.146 1.506-1.78l-5.756-5.756h8.139c0.126-0.753 0.193-1.525 0.194-2.314v-0.019c-0.001-0.789-0.067-1.561-0.194-2.314l-0 0zM19.486 16.006c0 1.037-0.191 2.028-0.535 2.944-0.916 0.345-1.908 0.535-2.945 0.536h-0.012c-1.036-0.001-2.028-0.191-2.944-0.536-0.345-0.915-0.535-1.907-0.536-2.944v-0.012c0.001-1.036 0.19-2.029 0.535-2.944 0.916-0.345 1.909-0.535 2.945-0.536h0.012c1.037 0.001 2.029 0.191 2.945 0.536 0.344 0.915 0.535 1.908 0.535 2.944v0.012z"></path>
</svg>
