<?xml version="1.0" encoding="UTF-8"?>
<svg viewBox="0 0 32 32" version="1.1" xmlns="http://www.w3.org/2000/svg" xmlns:xlink="http://www.w3.org/1999/xlink">
<title>emoji</title>
<path d="M16 2c7.732 0 14 6.268 14 14s-6.268 14-14 14c-7.732 0-14-6.268-14-14s6.268-14 14-14zM16 4c-6.627 0-12 5.373-12 12s5.373 12 12 12c6.627 0 12-5.373 12-12s-5.373-12-12-12zM20.328 18.505c0.277-0.478 0.889-0.64 1.367-0.363s0.64 0.889 0.363 1.367c-1.244 2.143-3.534 3.491-6.058 3.491-2.505 0-4.781-1.328-6.031-3.445-0.281-0.476-0.123-1.089 0.353-1.37s1.089-0.123 1.37 0.353c0.894 1.514 2.519 2.462 4.309 2.462 1.804 0 3.439-0.962 4.328-2.495zM11 10c1.105 0 2 0.895 2 2s-0.895 2-2 2c-1.105 0-2-0.895-2-2s0.895-2 2-2zM21 10c1.105 0 2 0.895 2 2s-0.895 2-2 2c-1.105 0-2-0.895-2-2s0.895-2 2-2z"></path>
</svg>
