<?xml version="1.0" encoding="UTF-8"?>
<svg viewBox="0 0 32 32" version="1.1" xmlns="http://www.w3.org/2000/svg" xmlns:xlink="http://www.w3.org/1999/xlink">
<title>company-line_border</title>
<path d="M2 5v19.833h2.333v1.167c0 2.579 2.087 4.667 4.667 4.667s4.667-2.087 4.667-4.667v-1.167h16.333v-19.833h-18.667v21c0 1.39-0.943 2.333-2.333 2.333s-2.333-0.943-2.333-2.333v-1.167h2.333v-19.833h-7zM4.333 7.333h2.333v15.167h-2.333v-15.167zM13.667 7.333h14v15.167h-14v-15.167zM16 9.667v2.333h9.333v-2.333h-9.333zM16 14.333v2.333h2.333v-2.333h-2.333zM19.5 14.333v2.333h2.333v-2.333h-2.333zM23 14.333v2.333h2.333v-2.333h-2.333zM16 17.833v2.333h2.333v-2.333h-2.333zM19.5 17.833v2.333h2.333v-2.333h-2.333zM23 17.833v2.333h2.333v-2.333h-2.333z"></path>
</svg>
