<?xml version="1.0" encoding="UTF-8"?>
<svg viewBox="0 0 32 32" version="1.1" xmlns="http://www.w3.org/2000/svg" xmlns:xlink="http://www.w3.org/1999/xlink">
<title>reminder_border</title>
<path d="M10.371 3.805l-6.774 4.998c-0.167 0.124-0.373 0.197-0.597 0.197-0.553 0-1-0.448-1-1 0-0.329 0.159-0.621 0.406-0.805l6.775-4.998c0.166-0.124 0.373-0.197 0.596-0.197 0.552 0 1 0.448 1 1 0 0.329-0.159 0.621-0.407 0.805zM22.816 2.195l6.781 5.002c0.245 0.182 0.404 0.474 0.404 0.803 0 0.553-0.448 1-1 1-0.224 0-0.43-0.073-0.594-0.195l-6.78-5.002c-0.245-0.182-0.404-0.474-0.404-0.803 0-0.552 0.448-1 1-1 0.223 0 0.43 0.073 0.593 0.195zM17 11v6h4.5c0.552 0 1 0.448 1 1s-0.448 1-1 1h-4.5c-1.105 0-2-0.895-2-2v-6c0-0.552 0.448-1 1-1s1 0.448 1 1zM26 18c0-5.523-4.477-10-10-10s-10 4.477-10 10c0 5.523 4.477 10 10 10s10-4.477 10-10zM28 18c0 6.627-5.373 12-12 12s-12-5.373-12-12 5.373-12 12-12 12 5.373 12 12z"></path>
</svg>
