<?xml version="1.0" encoding="UTF-8"?>
<svg viewBox="0 0 32 32" version="1.1" xmlns="http://www.w3.org/2000/svg" xmlns:xlink="http://www.w3.org/1999/xlink">
<title>rc-directory</title>
<path d="M30 5c0-1.105-0.895-2-2-2h-20.014v26h20.014c1.105 0 2-0.895 2-2v-22zM5.971 29v-26h-1.971c-1.105 0-2 0.895-2 2v22c0 1.105 0.895 2 2 2h1.971zM14.637 23.969c-0.051 0.019-0.106 0.029-0.16 0.026l-0.003 0.001h-3.062c-0.055 0.003-0.109-0.006-0.16-0.026s-0.098-0.049-0.137-0.087c-0.038-0.039-0.068-0.086-0.087-0.137s-0.029-0.106-0.026-0.16v-12.843c0-0.899 0.236-1.581 0.711-2.046s1.151-0.697 2.032-0.697h10.511c0.9 0 1.581 0.232 2.046 0.697s0.697 1.146 0.697 2.046v5.302c0.018 0.572-0.12 1.139-0.402 1.637-0.304 0.474-0.747 0.841-1.269 1.052l-1.621 0.731c-0.183 0.093-0.222 0.213-0.115 0.366l2.311 3.732c0.035 0.042 0.058 0.093 0.066 0.147s0.001 0.11-0.020 0.16c-0.047 0.086-0.145 0.126-0.299 0.126h-3.040c-0.152 0.013-0.306-0.016-0.443-0.085s-0.253-0.174-0.333-0.305l-2.33-3.656c-0.186-0.274-0.322-0.581-0.4-0.903-0.075-0.356-0.11-0.72-0.103-1.084v-1.6c-0.008-0.050-0.003-0.102 0.013-0.15s0.043-0.092 0.080-0.127c0.036-0.035 0.081-0.062 0.129-0.078s0.1-0.019 0.15-0.011h3.377c0.049 0.006 0.099 0 0.145-0.017s0.088-0.043 0.123-0.079c0.035-0.036 0.061-0.079 0.075-0.126s0.019-0.097 0.012-0.145v-3.609c0.007-0.049 0.003-0.099-0.013-0.145s-0.041-0.089-0.075-0.125c-0.034-0.036-0.076-0.062-0.122-0.079s-0.095-0.023-0.145-0.017h-7.497c-0.049-0.007-0.1-0.002-0.147 0.014s-0.090 0.042-0.126 0.078c-0.035 0.036-0.062 0.079-0.078 0.126s-0.020 0.099-0.013 0.148v11.562c0.003 0.055-0.007 0.109-0.027 0.16s-0.050 0.098-0.088 0.137c-0.039 0.038-0.086 0.068-0.137 0.087z"></path>
</svg>
