<?xml version="1.0" encoding="UTF-8"?>
<svg viewBox="0 0 32 32" version="1.1" xmlns="http://www.w3.org/2000/svg" xmlns:xlink="http://www.w3.org/1999/xlink">
<title>9</title>
<path fill="#000" style="fill: var(--color17, #000)" d="M16.058 7c0.443 0 0.845 0.070 1.206 0.211s0.671 0.337 0.929 0.59c0.258 0.253 0.457 0.555 0.597 0.907s0.21 0.741 0.21 1.168c0 0.257-0.025 0.5-0.074 0.73s-0.122 0.454-0.216 0.674c-0.095 0.219-0.208 0.438-0.339 0.655s-0.281 0.442-0.448 0.674l-2.252 3.13c-0.056 0.079-0.135 0.142-0.239 0.189s-0.222 0.071-0.355 0.071h-1.058l2.813-3.547 0.265-0.342c0.082-0.108 0.159-0.215 0.232-0.323-0.237 0.182-0.503 0.321-0.8 0.416s-0.611 0.143-0.942 0.143c-0.348 0-0.678-0.056-0.99-0.168s-0.586-0.276-0.823-0.494c-0.237-0.217-0.425-0.484-0.565-0.801s-0.21-0.68-0.21-1.090c0-0.389 0.075-0.754 0.226-1.093s0.361-0.636 0.632-0.888c0.271-0.253 0.594-0.451 0.968-0.596s0.785-0.217 1.232-0.217zM16.045 7.925c-0.284 0-0.543 0.045-0.777 0.134s-0.434 0.212-0.6 0.37c-0.166 0.157-0.294 0.346-0.384 0.565s-0.135 0.46-0.135 0.72c0 0.282 0.042 0.533 0.126 0.755s0.204 0.409 0.361 0.562c0.157 0.153 0.348 0.269 0.574 0.348s0.479 0.118 0.758 0.118c0.31 0 0.584-0.049 0.823-0.146s0.44-0.227 0.603-0.388c0.163-0.162 0.288-0.348 0.374-0.559s0.129-0.431 0.129-0.658c0-0.277-0.046-0.529-0.139-0.755s-0.22-0.417-0.384-0.575c-0.163-0.157-0.358-0.278-0.584-0.363s-0.474-0.127-0.745-0.127z"></path>
<path fill="#9e9e9e" style="fill: var(--color83, #9e9e9e)" d="M8.8 20.418h0.402c0.043 0 0.079 0.011 0.107 0.032s0.047 0.049 0.057 0.082l0.74 2.49 0.019 0.070 0.048 0.238 0.054-0.239 0.864-2.558c0.010-0.028 0.030-0.055 0.059-0.079s0.065-0.036 0.106-0.036h0.14c0.043 0 0.079 0.011 0.106 0.032s0.047 0.049 0.059 0.082l0.838 2.49c0.030 0.087 0.057 0.186 0.080 0.297l0.042-0.23 0.761-2.558c0.008-0.030 0.027-0.057 0.056-0.080s0.065-0.035 0.106-0.035h0.377l-1.117 3.582h-0.435l-0.908-2.733c-0.018-0.052-0.035-0.112-0.050-0.18l-0.035 0.14-0.925 2.772h-0.435l-1.117-3.582zM15.127 22.16l-1.182-1.742h0.482c0.035 0 0.061 0.006 0.078 0.017s0.032 0.028 0.045 0.050l0.935 1.435c0.012-0.035 0.029-0.073 0.053-0.115l0.883-1.31c0.015-0.023 0.031-0.042 0.049-0.056s0.039-0.021 0.064-0.021h0.462l-1.188 1.72 1.227 1.863h-0.48c-0.037 0-0.065-0.010-0.086-0.029s-0.038-0.040-0.051-0.064l-0.96-1.503c-0.012 0.035-0.027 0.068-0.045 0.1l-0.935 1.402c-0.015 0.023-0.032 0.045-0.051 0.064s-0.046 0.029-0.081 0.029h-0.45l1.232-1.84zM18.89 22.575v1.425h-0.483v-1.425l-1.313-2.157h0.425c0.043 0 0.078 0.011 0.102 0.032s0.047 0.048 0.065 0.080l0.82 1.393c0.033 0.058 0.061 0.113 0.084 0.165l0.061 0.152 0.060-0.155c0.022-0.052 0.049-0.106 0.082-0.163l0.817-1.393c0.015-0.027 0.035-0.052 0.061-0.076s0.060-0.036 0.101-0.036h0.43l-1.315 2.157zM23.15 20.418v0.18c0 0.057-0.017 0.11-0.052 0.16l-2.027 2.848h2.045v0.395h-2.68v-0.19c0-0.050 0.016-0.098 0.047-0.142l2.030-2.855h-1.983v-0.395h2.62z"></path>
</svg>
