<?xml version="1.0" encoding="UTF-8"?>
<svg viewBox="0 0 32 32" version="1.1" xmlns="http://www.w3.org/2000/svg" xmlns:xlink="http://www.w3.org/1999/xlink">
<title>copy</title>
<path d="M27 28h-17c-0.552 0-1-0.448-1-1v-17c0-0.552 0.448-1 1-1h17c0.552 0 1 0.448 1 1v17c0 0.552-0.448 1-1 1zM28 7h-19c-1.105 0-2 0.895-2 2v19c0 1.105 0.895 2 2 2h19c1.105 0 2-0.895 2-2v-19c0-1.105-0.895-2-2-2zM3 18c-0.552 0-1-0.448-1-1v-13c0-1.105 0.895-2 2-2h13c0.552 0 1 0.448 1 1s-0.448 1-1 1h-12c-0.552 0-1 0.448-1 1v12c0 0.552-0.448 1-1 1z"></path>
</svg>
