<?xml version="1.0" encoding="UTF-8"?>
<svg viewBox="0 0 32 32" version="1.1" xmlns="http://www.w3.org/2000/svg" xmlns:xlink="http://www.w3.org/1999/xlink">
<title>mention_border</title>
<path d="M2 16c0 8.366 6.205 14 14 14 2.107 0 4.113-0.292 5.357-0.698 0.876-0.279 1.155-0.736 1.155-1.206s-0.368-0.825-0.838-0.825c-0.122 0-0.276 0.016-0.457 0.055l-0.14 0.034c-1.549 0.381-2.882 0.635-4.672 0.635-6.944 0-12.223-4.745-12.223-11.918 0-6.868 5.063-12.083 11.791-12.083 5.954 0 12.007 4.007 12.007 10.596 0 3.847-2.371 6.599-4.466 6.599-1.396 0-2.184-0.813-2.184-2.196v-8.607c0-0.686-0.381-1.104-1.028-1.104-0.635 0-1.028 0.419-1.028 1.104v1.447h-0.114c-0.647-1.562-2.234-2.552-4.126-2.552-3.288 0-5.599 2.806-5.599 6.83 0 4.063 2.298 6.894 5.649 6.894 1.968 0 3.491-1.066 4.228-2.869h0.114c0.241 1.79 1.752 2.882 3.758 2.882 3.542 0 6.814-3.641 6.814-8.516 0-7.376-6.497-12.5-14-12.5-7.884 0-14 5.824-14 14zM15.313 21.25c-2.272 0-3.72-1.892-3.72-4.9 0-2.958 1.46-4.85 3.732-4.85 2.336 0 3.809 1.854 3.809 4.799 0 3.009-1.511 4.951-3.821 4.951z"></path>
</svg>
