<?xml version="1.0" encoding="UTF-8"?>
<svg viewBox="0 0 32 32" version="1.1" xmlns="http://www.w3.org/2000/svg" xmlns:xlink="http://www.w3.org/1999/xlink">
<title>callrail</title>
<path d="M16 3c6.971 0 12.997 4.876 13 12.13-0.001 0.133-0.11 0.24-0.243 0.24l-11.757-0.028v-4.341l-0.007-0.117c-0.058-0.497-0.48-0.883-0.993-0.883-0.473 0-0.87 0.329-0.974 0.771l-0.020 0.113-0.007 0.117v10l0.007 0.117c0.058 0.497 0.48 0.883 0.993 0.883 0.473 0 0.87-0.329 0.974-0.771l0.020-0.113 0.007-0.117v-3.535l11.515 0.001c0.208 0 0.377 0.169 0.377 0.377 0 0.009-0 0.017-0.001 0.026v0 0c-0.005 0.064-0.010 0.127-0.015 0.187l-0.034 0.332c-0.012 0.1-0.025 0.189-0.038 0.262-1.109 6.122-6.595 9.92-12.804 9.92-2.265 0-4.399-0.571-6.257-1.576-0.666 0.727-1.366 1.274-2.041 1.664-1.885 1.088-4.418-0.622-3.668-2.942 0.529-1.638 0.576-2.86-0.067-5.082-0.624-1.497-0.968-3.136-0.968-4.848 0-7.099 5.86-12.785 13-12.785zM13.25 15.25c-0.38 0-0.694 0.282-0.743 0.648l-0.007 0.102v3.75c0 0.414 0.336 0.75 0.75 0.75 0.38 0 0.694-0.282 0.743-0.648l0.007-0.102v-3.75c0-0.414-0.336-0.75-0.75-0.75zM10.75 12.25c-0.414 0-0.75 0.336-0.75 0.75v5c0 0.414 0.336 0.75 0.75 0.75s0.75-0.336 0.75-0.75v-5c0-0.414-0.336-0.75-0.75-0.75z"></path>
</svg>
