<?xml version="1.0" encoding="UTF-8"?>
<svg viewBox="0 0 32 32" version="1.1" xmlns="http://www.w3.org/2000/svg" xmlns:xlink="http://www.w3.org/1999/xlink">
<title>keypad-off_sp</title>
<path d="M8.439 5.893l16.824 18.685c0.423 0.469 0.384 1.192-0.084 1.615s-1.192 0.384-1.615-0.084l-2.176-2.417-0.053-0.025c-0.205-0.107-0.404-0.249-0.595-0.427-0.223-0.223-0.389-0.468-0.5-0.739l-0.052-0.143-4.405-4.889c-0.093-0.027-0.183-0.059-0.269-0.099-0.261-0.119-0.512-0.289-0.751-0.512-0.223-0.223-0.393-0.468-0.512-0.739-0.073-0.165-0.124-0.34-0.152-0.523l-4.001-4.443c-0.217-0.023-0.42-0.073-0.609-0.153-0.261-0.111-0.512-0.277-0.751-0.5s-0.413-0.468-0.524-0.739c-0.111-0.269-0.167-0.564-0.167-0.881v-0.005l-1.309-1.453c-0.423-0.469-0.384-1.192 0.084-1.615s1.192-0.384 1.615 0.084l0.003 0.001zM10.383 19.31c0.333 0 0.631 0.056 0.893 0.167s0.512 0.277 0.751 0.5c0.223 0.223 0.389 0.468 0.5 0.739s0.167 0.564 0.167 0.881c0 0.333-0.060 0.631-0.179 0.893s-0.281 0.512-0.488 0.751c-0.223 0.239-0.468 0.409-0.739 0.512s-0.572 0.155-0.905 0.155c-0.317 0-0.607-0.056-0.869-0.167s-0.512-0.277-0.751-0.5c-0.239-0.223-0.409-0.468-0.512-0.739s-0.155-0.572-0.155-0.905c0-0.317 0.056-0.607 0.167-0.869s0.277-0.512 0.5-0.751 0.468-0.409 0.739-0.512c0.271-0.103 0.564-0.155 0.881-0.155zM16.383 19.31c0.317 0 0.607 0.056 0.869 0.167s0.512 0.277 0.751 0.5c0.239 0.223 0.413 0.468 0.524 0.739s0.167 0.564 0.167 0.881c0 0.333-0.060 0.631-0.179 0.893s-0.289 0.512-0.512 0.751c-0.223 0.239-0.468 0.409-0.739 0.512s-0.564 0.155-0.881 0.155c-0.317 0-0.607-0.056-0.869-0.167s-0.512-0.277-0.751-0.5c-0.223-0.223-0.393-0.468-0.512-0.739s-0.179-0.572-0.179-0.905c0-0.317 0.060-0.607 0.179-0.869s0.289-0.512 0.512-0.751c0.223-0.223 0.468-0.389 0.739-0.5s0.564-0.167 0.881-0.167zM22.383 19.31c0.317 0 0.607 0.056 0.869 0.167s0.512 0.277 0.751 0.5c0.239 0.223 0.409 0.468 0.512 0.739s0.155 0.564 0.155 0.881c0 0.225-0.025 0.436-0.076 0.629l-2.601-2.888c0.125-0.017 0.256-0.025 0.392-0.025l-0.001-0.003zM10.359 12.929c0.317 0 0.607 0.060 0.869 0.179s0.512 0.289 0.751 0.512c0.239 0.239 0.413 0.488 0.524 0.751s0.167 0.552 0.167 0.869c0 0.317-0.060 0.607-0.179 0.869s-0.289 0.512-0.512 0.751c-0.223 0.239-0.468 0.413-0.739 0.524s-0.564 0.167-0.881 0.167c-0.317 0-0.607-0.060-0.869-0.179s-0.512-0.289-0.751-0.512c-0.239-0.223-0.413-0.468-0.524-0.739s-0.167-0.564-0.167-0.881c0-0.317 0.060-0.607 0.179-0.869s0.289-0.512 0.512-0.751c0.207-0.223 0.448-0.393 0.727-0.512s0.576-0.179 0.893-0.179zM22.335 12.929c0.333 0 0.631 0.060 0.893 0.179s0.512 0.289 0.751 0.512c0.207 0.239 0.369 0.488 0.488 0.751s0.179 0.552 0.179 0.869c0 0.317-0.060 0.607-0.179 0.869s-0.281 0.512-0.488 0.751c-0.223 0.239-0.468 0.413-0.739 0.524s-0.572 0.167-0.905 0.167c-0.317 0-0.607-0.060-0.869-0.179s-0.512-0.289-0.751-0.512c-0.239-0.223-0.409-0.468-0.512-0.739s-0.155-0.564-0.155-0.881c0-0.317 0.056-0.607 0.167-0.869s0.277-0.512 0.5-0.751c0.223-0.223 0.468-0.393 0.739-0.512s0.564-0.179 0.881-0.179zM16.383 12.929c0.317 0 0.607 0.060 0.869 0.179s0.512 0.289 0.751 0.512c0.223 0.239 0.393 0.488 0.512 0.751s0.179 0.552 0.179 0.869c0 0.137-0.011 0.269-0.033 0.397l-2.432-2.701 0.156-0.005-0.001-0.001zM16.359 6.571c0.317 0 0.607 0.056 0.869 0.167s0.512 0.277 0.751 0.5c0.239 0.223 0.409 0.472 0.512 0.751s0.155 0.576 0.155 0.893-0.056 0.607-0.167 0.869c-0.111 0.263-0.277 0.512-0.5 0.751s-0.468 0.409-0.739 0.512c-0.271 0.103-0.564 0.155-0.881 0.155-0.333 0-0.631-0.056-0.893-0.167s-0.512-0.277-0.751-0.5c-0.223-0.223-0.389-0.468-0.5-0.739s-0.167-0.564-0.167-0.881c0-0.333 0.056-0.631 0.167-0.893s0.277-0.512 0.5-0.751c0.223-0.223 0.468-0.389 0.739-0.5s0.572-0.167 0.905-0.167zM22.335 6.571c0.333 0 0.631 0.056 0.893 0.167s0.512 0.277 0.751 0.5c0.239 0.223 0.409 0.472 0.512 0.751s0.155 0.576 0.155 0.893-0.060 0.607-0.179 0.869c-0.119 0.263-0.281 0.512-0.488 0.751-0.223 0.239-0.468 0.409-0.739 0.512s-0.572 0.155-0.905 0.155c-0.317 0-0.607-0.056-0.869-0.167s-0.512-0.277-0.751-0.5c-0.239-0.223-0.409-0.468-0.512-0.739s-0.155-0.564-0.155-0.881c0-0.333 0.056-0.631 0.167-0.893s0.277-0.512 0.5-0.751c0.223-0.239 0.468-0.409 0.739-0.512s0.564-0.155 0.881-0.155zM10.503 6.575c0.261 0.015 0.504 0.068 0.725 0.163 0.261 0.111 0.512 0.277 0.751 0.5s0.413 0.472 0.524 0.751c0.111 0.277 0.167 0.576 0.167 0.893 0 0.033 0 0.067-0.001 0.099l-2.165-2.405z"></path>
</svg>
