<?xml version="1.0" encoding="UTF-8"?>
<svg viewBox="0 0 32 32" version="1.1" xmlns="http://www.w3.org/2000/svg" xmlns:xlink="http://www.w3.org/1999/xlink">
<title>asana</title>
<path d="M30.027 24c1.106 0 1.973 0.878 1.973 2 0 1.103-0.885 2.001-1.973 2.001-1.070 0-1.973-0.916-1.973-2.001 0-1.103 0.886-2 1.973-2zM11.443 4c7.883 0 10.693 3.445 10.693 6.668v0 16.774h-2.178l-0.731-1.852c-1.959 1.279-5.873 2.411-8.529 2.411-7.098 0-10.698-2.278-10.698-6.771 0-4.281 3.612-6.581 11.367-7.239 4.935-0.425 7.652-1.615 7.652-3.351 0-2.107-2.99-3.469-7.617-3.469-6.303 0-7.569 2.141-7.97 3.743-0.113 0.385-0.197 0.859-0.197 0.859v0h-2.838c0 0 0.022-0.655 0.082-0.988 0.733-4.564 4.319-6.783 10.964-6.783zM19.14 15.503c-1.955 1.018-4.139 1.372-7.7 1.693-7.262 0.657-8.193 2.5-8.193 4.032 0 2.323 2.646 3.603 7.451 3.603 4.586 0 8.294-2.568 8.442-3.389v0zM30.027 16.001c1.106 0 1.973 0.878 1.973 2 0 1.103-0.885 2-1.973 2-1.070 0-1.973-0.915-1.973-2 0-1.103 0.886-2 1.973-2zM30.027 8c1.106 0 1.973 0.878 1.973 2 0 1.103-0.885 2.001-1.973 2.001-1.070 0-1.973-0.916-1.973-2.001 0-1.103 0.886-2 1.973-2z"></path>
</svg>
