<?xml version="1.0" encoding="UTF-8"?>
<svg viewBox="0 0 32 32" version="1.1" xmlns="http://www.w3.org/2000/svg" xmlns:xlink="http://www.w3.org/1999/xlink">
<title>Add-text-log</title>
<path d="M16.248 2c0.51 0 0.923 0.418 0.923 0.933 0 0.458-0.327 0.839-0.757 0.918l-0.166 0.015h-8.925c-0.753 0-1.374 0.57-1.465 1.306l-0.011 0.187v21.28c0 0.761 0.563 1.39 1.292 1.482l0.185 0.012h17.354c0.753 0 1.374-0.57 1.465-1.306l0.012-0.187v-10.317c0-0.515 0.413-0.933 0.923-0.933 0.453 0 0.83 0.33 0.908 0.766l0.015 0.168v10.317c0 1.763-1.343 3.209-3.051 3.349l-0.273 0.011h-17.354c-1.744 0-3.173-1.358-3.312-3.084l-0.011-0.276v-21.28c0-1.763 1.343-3.209 3.051-3.349l0.273-0.011h8.925zM22.071 19c0.513 0 0.929 0.448 0.929 1 0 0.491-0.328 0.899-0.762 0.984l-0.167 0.016h-11.143c-0.513 0-0.929-0.448-0.929-1 0-0.491 0.328-0.899 0.762-0.984l0.167-0.016h11.143zM18.1 13c0.497 0 0.9 0.448 0.9 1 0 0.491-0.318 0.899-0.738 0.984l-0.162 0.016h-7.2c-0.497 0-0.9-0.448-0.9-1 0-0.491 0.318-0.899 0.738-0.984l0.162-0.016h7.2zM23 2c0.491 0 0.899 0.303 0.984 0.703l0.016 0.154v4.143h4.143c0.473 0 0.857 0.448 0.857 1 0 0.491-0.303 0.899-0.703 0.984l-0.154 0.016h-4.143v4.143c0 0.473-0.448 0.857-1 0.857-0.491 0-0.899-0.303-0.984-0.703l-0.016-0.154v-4.143h-4.143c-0.473 0-0.857-0.448-0.857-1 0-0.491 0.303-0.899 0.703-0.984l0.154-0.016h4.143v-4.143c0-0.473 0.448-0.857 1-0.857z"></path>
</svg>
