<?xml version="1.0" encoding="UTF-8"?>
<svg viewBox="0 0 32 32" version="1.1" xmlns="http://www.w3.org/2000/svg" xmlns:xlink="http://www.w3.org/1999/xlink">
<title>add-task</title>
<path d="M16 2c7.732 0 14 6.268 14 14 0 0.968-0.098 1.914-0.285 2.827-0.538-0.492-1.153-0.899-1.824-1.204 0.072-0.531 0.109-1.072 0.109-1.623 0-6.627-5.373-12-12-12s-12 5.373-12 12c0 6.627 5.373 12 12 12 1.039 0 2.047-0.132 3.008-0.38 0.379 0.627 0.855 1.191 1.406 1.669-1.387 0.462-2.872 0.711-4.414 0.711-7.732 0-14-6.268-14-14s6.268-14 14-14zM25 19c0.552 0 1 0.448 1 1v3h3c0.552 0 1 0.448 1 1s-0.448 1-1 1h-3.001l0.001 3c0 0.552-0.448 1-1 1s-1-0.448-1-1l-0.001-3h-2.999c-0.552 0-1-0.448-1-1s0.448-1 1-1h3v-3c0-0.552 0.448-1 1-1zM22.376 11.741c0.391 0.391 0.391 1.024 0 1.414l-7.071 7.071c-0.15 0.15-0.336 0.243-0.531 0.277l-0.117 0.014h-0.118c-0.236-0.014-0.468-0.111-0.648-0.291l-4.243-4.243c-0.391-0.391-0.391-1.024 0-1.414s1.024-0.391 1.414 0l3.535 3.535 6.365-6.363c0.391-0.391 1.024-0.391 1.414 0z"></path>
</svg>
