<?xml version="1.0" encoding="UTF-8"?>
<svg viewBox="0 0 32 32" version="1.1" xmlns="http://www.w3.org/2000/svg" xmlns:xlink="http://www.w3.org/1999/xlink">
<title>google-business</title>
<path fill="#4989f5" d="M4.907 28.439c-0.828 0-1.5-0.672-1.5-1.5v-10.66c0-0.382 0.022-0.758 0.066-1.128 0.15-1.666 0.605-5.169 1.161-5.169v0l1.148-0.001c1.749-1.988 4.311-3.242 7.167-3.242 0.765 0 1.527 0.092 2.27 0.274l3.792 0.929c1.591 0.39 3.039 1.095 4.283 2.040l3.36 0.001c0.684 0.002 1.238 0.556 1.24 1.24v0l0.001 7.513c0.008 0.181 0.013 0.362 0.013 0.545 0 0.163-0.004 0.324-0.013 0.485l-0.001 7.434c-0.002 0.684-0.556 1.238-1.24 1.24v0h-21.746z"></path>
<path fill="#3c4ba6" d="M9.001 13.188h7v-9.187h-5.952z"></path>
<path fill="#7babf7" d="M23.001 13.188h-7v-9.187h5.952l1.048 9.187zM27.931 5.742l0.033 0.1c-0.008-0.035-0.024-0.068-0.033-0.1z"></path>
<path fill="#3f51b5" d="M27.915 5.773l-0.009-0.031c-0.222-1.016-1.121-1.741-2.162-1.742h-3.792l1.047 9.188h7l-2.085-7.415z"></path>
<path fill="#7babf7" d="M4.144 5.742l-0.033 0.1c0.008-0.035 0.024-0.068 0.033-0.1z"></path>
<path fill="#7babf7" d="M4.086 5.773l0.009-0.031c0.222-1.016 1.121-1.741 2.162-1.742h3.793l-1.049 9.188h-7l2.086-7.415z"></path>
<path fill="#709be0" d="M9.013 13.185c0 1.932-1.566 3.498-3.498 3.498s-3.498-1.566-3.498-3.498h6.996z"></path>
<path fill="#3c4ba6" d="M16.009 13.185c0 1.932-1.566 3.498-3.498 3.498s-3.498-1.566-3.498-3.498h6.996z"></path>
<path fill="#709be0" d="M23.005 13.185c0 1.932-1.566 3.498-3.498 3.498s-3.498-1.566-3.498-3.498h6.996z"></path>
<path fill="#3c4ba6" d="M30 13.185c0 1.932-1.566 3.498-3.498 3.498s-3.498-1.566-3.498-3.498h6.996z"></path>
<path fill="#fff" d="M26.502 22.662c-0.012-0.167-0.033-0.319-0.062-0.513h-3.816c0 0.534 0 1.116-0.002 1.65h2.211c-0.095 0.503-0.386 0.947-0.809 1.234 0 0 0-0.009-0.002-0.009-0.271 0.178-0.575 0.297-0.895 0.349-0.32 0.059-0.648 0.057-0.968-0.004-0.325-0.067-0.632-0.2-0.903-0.391-0.4-0.284-0.708-0.678-0.888-1.134-0.014-0.036-0.026-0.071-0.039-0.108v-0.004l0.003-0.003c-0.174-0.51-0.174-1.064-0.001-1.575 0.122-0.358 0.323-0.685 0.587-0.955 0.621-0.642 1.548-0.884 2.403-0.626 0.328 0.101 0.627 0.277 0.874 0.515l0.746-0.746c0.132-0.133 0.268-0.262 0.395-0.399-0.378-0.353-0.822-0.628-1.306-0.809-0.881-0.32-1.846-0.328-2.732-0.024-0.031 0.011-0.062 0.021-0.092 0.033-0.957 0.36-1.744 1.065-2.206 1.977-0.163 0.323-0.282 0.666-0.353 1.021-0.422 2.099 0.858 4.166 2.927 4.721 0.676 0.181 1.395 0.177 2.076 0.022 0.619-0.14 1.191-0.437 1.662-0.863 0.491-0.451 0.842-1.053 1.026-1.691 0.154-0.541 0.21-1.106 0.165-1.667v0z"></path>
</svg>
