<?xml version="1.0" encoding="UTF-8"?>
<svg viewBox="0 0 32 32" version="1.1" xmlns="http://www.w3.org/2000/svg" xmlns:xlink="http://www.w3.org/1999/xlink">
<title>pause</title>
<path d="M12 5c1.054 0 1.918 0.816 1.995 1.851l0.005 0.149v18c0 1.054-0.816 1.918-1.851 1.994l-0.149 0.006h-4c-1.054 0-1.918-0.816-1.995-1.851l-0.005-0.149v-18c0-1.054 0.816-1.918 1.851-1.995l0.149-0.005h4zM24 5c1.054 0 1.918 0.816 1.994 1.851l0.006 0.149v18c0 1.054-0.816 1.918-1.851 1.994l-0.149 0.006h-4c-1.054 0-1.918-0.816-1.994-1.851l-0.006-0.149v-18c0-1.054 0.816-1.918 1.851-1.995l0.149-0.005h4z"></path>
</svg>
