<?xml version="1.0" encoding="UTF-8"?>
<svg viewBox="0 0 32 32" version="1.1" xmlns="http://www.w3.org/2000/svg" xmlns:xlink="http://www.w3.org/1999/xlink">
<title>camera-outlined</title>
<path d="M20.2 3.6c1.105 0 2 0.895 2 2v7.202c-0.067-0.001-0.133-0.002-0.2-0.002-0.615 0-1.216 0.055-1.8 0.162v-6.362c0-0.552-0.448-1-1-1h-14.4c-0.552 0-1 0.448-1 1v12.4c0 0.552 0.448 1 1 1h7.597c-0.187 0.642-0.311 1.311-0.366 2h-8.232c-1.105 0-2-0.895-2-2v-14.4c0-1.105 0.895-2 2-2h16.4z"></path>
<path d="M30.2 17.075v-9.657l-0.007-0.117c-0.057-0.497-0.48-0.883-0.993-0.883v-0.002c-0.155 0-0.308 0.037-0.447 0.106l-5 2.5-0.108 0.063c-0.276 0.184-0.445 0.495-0.445 0.832v2.954c0.691 0.083 1.36 0.236 2 0.452v-2.787l3-1.5v5.917c0.765 0.605 1.44 1.32 2 2.121z"></path>
<path d="M22 26.8c2.209 0 4-1.791 4-4s-1.791-4-4-4c-2.209 0-4 1.791-4 4s1.791 4 4 4z"></path>
<path d="M22 30.8c4.418 0 8-3.582 8-8s-3.582-8-8-8c-4.418 0-8 3.582-8 8s3.582 8 8 8zM22 28.8c-3.314 0-6-2.686-6-6s2.686-6 6-6c3.314 0 6 2.686 6 6s-2.686 6-6 6z"></path>
</svg>
