<?xml version="1.0" encoding="UTF-8"?>
<svg viewBox="0 0 32 32" version="1.1" xmlns="http://www.w3.org/2000/svg" xmlns:xlink="http://www.w3.org/1999/xlink">
<title>deskphone</title>
<path d="M8 4c1.105 0 2 0.895 2 2v20c0 1.105-0.895 2-2 2h-4c-1.105 0-2-0.895-2-2v-20c0-1.105 0.895-2 2-2h4zM28 5c1.105 0 2 0.895 2 2v18c0 1.105-0.895 2-2 2h-14c-1.105 0-2-0.895-2-2v-18c0-1.105 0.895-2 2-2h14zM19 21h-2c-0.552 0-1 0.448-1 1 0 0.513 0.386 0.936 0.883 0.993l0.117 0.007h2c0.552 0 1-0.448 1-1s-0.448-1-1-1zM25 21h-2c-0.552 0-1 0.448-1 1 0 0.513 0.386 0.936 0.883 0.993l0.117 0.007h2c0.552 0 1-0.448 1-1s-0.448-1-1-1zM19 17h-2c-0.552 0-1 0.448-1 1 0 0.513 0.386 0.936 0.883 0.993l0.117 0.007h2c0.552 0 1-0.448 1-1s-0.448-1-1-1zM25 17h-2c-0.552 0-1 0.448-1 1 0 0.513 0.386 0.936 0.883 0.993l0.117 0.007h2c0.552 0 1-0.448 1-1s-0.448-1-1-1zM25 9h-8c-0.513 0-0.936 0.386-0.993 0.883l-0.007 0.117v2c0 0.513 0.386 0.935 0.883 0.993l0.117 0.007h8c0.513 0 0.936-0.386 0.993-0.883l0.007-0.117v-2c0-0.552-0.448-1-1-1z"></path>
</svg>
