<?xml version="1.0" encoding="UTF-8"?>
<svg viewBox="0 0 32 32" version="1.1" xmlns="http://www.w3.org/2000/svg" xmlns:xlink="http://www.w3.org/1999/xlink">
<title>sms-default</title>
<path d="M16 8c-4.649 0-8.4 3.159-8.4 7.225l0.003 0.191c0.060 1.969 1.043 3.862 2.669 5.204l0.176 0.141-0.008 0.024c-0.114 0.32-0.324 0.748-0.671 1.36l-0.486 0.795c-0.23 0.376 0.038 0.86 0.477 0.86h0.991l0.2-0.003c1.387-0.045 2.534-0.557 3.412-1.305l0.029-0.026 0.276 0.043c0.454 0.065 0.893 0.097 1.332 0.097 4.616 0 8.4-3.292 8.4-7.382 0-4.081-3.742-7.225-8.4-7.225v0h-0z"></path>
</svg>
