<?xml version="1.0" encoding="UTF-8"?>
<svg viewBox="0 0 32 32" version="1.1" xmlns="http://www.w3.org/2000/svg" xmlns:xlink="http://www.w3.org/1999/xlink">
<title>LargeViewMD</title>
<path d="M28.52 2.8h-25.019c-1.767 0-3.2 1.433-3.2 3.2v20c-0.002 1.768 1.432 3.2 3.2 3.2h25.019c1.767 0 3.2-1.433 3.2-3.2v-20c0-1.767-1.433-3.2-3.2-3.2zM2.701 26v-20c0-0.442 0.358-0.8 0.8-0.8h8.8v21.6h-8.8c-0.442 0-0.8-0.358-0.8-0.8zM29.32 26c0 0.442-0.358 0.8-0.8 0.8h-13.819v-21.6h13.819c0.442 0 0.8 0.358 0.8 0.8v20zM10 11c0 1.381-1.12 2.501-2.501 2.501s-2.501-1.12-2.501-2.501c0-1.381 1.12-2.501 2.501-2.501s2.501 1.12 2.501 2.501z"></path>
</svg>
