<?xml version="1.0" encoding="UTF-8"?>
<svg viewBox="0 0 32 32" version="1.1" xmlns="http://www.w3.org/2000/svg" xmlns:xlink="http://www.w3.org/1999/xlink">
<title>bundle</title>
<path d="M14.658 2.553c0.845-0.422 1.839-0.422 2.683 0l11.105 5.553c0.339 0.169 0.553 0.516 0.553 0.894s-0.214 0.725-0.553 0.894l-11.106 5.553c-0.845 0.422-1.839 0.422-2.683 0l-11.106-5.553c-0.339-0.169-0.553-0.516-0.553-0.894s0.214-0.725 0.553-0.894l11.106-5.553zM16.447 4.342c-0.282-0.141-0.613-0.141-0.894 0l-9.317 4.658 9.317 4.658c0.281 0.141 0.613 0.141 0.894 0l9.317-4.658-9.317-4.658z"></path>
<path d="M11.241 13.294l-5.206 2.937 9.473 5.344c0.305 0.172 0.678 0.172 0.983 0l9.473-5.344-5.206-2.937 0.983-1.742 6.75 3.808c0.314 0.177 0.509 0.51 0.509 0.871s-0.194 0.694-0.509 0.871l-11.017 6.215c-0.915 0.516-2.033 0.516-2.948 0l-11.017-6.215c-0.314-0.177-0.509-0.51-0.509-0.871s0.194-0.694 0.509-0.871l6.75-3.808 0.983 1.742z"></path>
<path d="M6.191 22.846l4.265-2.187-0.913-1.78-6 3.077c-0.334 0.171-0.544 0.515-0.544 0.89s0.21 0.719 0.544 0.89l11.087 5.686c0.859 0.441 1.878 0.441 2.738 0l11.087-5.686c0.334-0.171 0.544-0.515 0.544-0.89s-0.21-0.719-0.544-0.89l-6-3.077-0.913 1.78 4.265 2.187-9.352 4.796c-0.287 0.147-0.626 0.147-0.913 0l-9.352-4.796z"></path>
</svg>
