<?xml version="1.0" encoding="UTF-8"?>
<svg viewBox="0 0 32 32" version="1.1" xmlns="http://www.w3.org/2000/svg" xmlns:xlink="http://www.w3.org/1999/xlink">
<title>thumb-up_border_sp</title>
<path d="M16.297 3.368l-2.537-0.846-4.928 10.678h-3.232c-1.546 0-2.8 1.254-2.8 2.8v9.6c0 1.546 1.254 2.8 2.8 2.8h18.027c1.222 0 2.302-0.792 2.67-1.957l3.132-9.918c0.896-2.836-1.222-5.725-4.196-5.725h-4.834v-1.74c0-2.583-1.653-4.875-4.103-5.692zM10.4 15.53l4.639-10.052 0.499 0.166c1.47 0.49 2.462 1.866 2.462 3.415v4.14h7.234c1.352 0 2.314 1.313 1.907 2.602l-3.132 9.918c-0.053 0.167-0.207 0.28-0.381 0.28h-13.227v-10.47zM8 15.6v10.4h-2.4c-0.221 0-0.4-0.179-0.4-0.4v-9.6c0-0.221 0.179-0.4 0.4-0.4h2.4z"></path>
</svg>
