<?xml version="1.0" encoding="UTF-8"?>
<svg viewBox="0 0 32 32" version="1.1" xmlns="http://www.w3.org/2000/svg" xmlns:xlink="http://www.w3.org/1999/xlink">
<title>end--answer</title>
<path fill="#f54c3d" d="M8-0c4.371 0 7.923 3.497 7.999 7.838-3.851 1.266-6.894 4.309-8.161 8.159l0.162 0.002c-4.418 0-8-3.573-8-7.98v-0.040c0-4.333 3.461-7.859 7.776-7.977l0.224-0.003zM8 6.541c-1.621 0.015-2.615 0.344-3.437 1.021-0.383 0.315-0.53 0.678-0.53 1.156v0l0.003 0.070 0.010 0.060c0.037 0.181 0.138 0.368 0.272 0.478 0.192 0.158 0.419 0.227 0.751 0.18v0l1.121-0.188c0.382-0.072 0.399-0.404 0.391-0.697v0l-0.004-0.22 0.001-0.030c0.011-0.135 0.104-0.213 0.347-0.228 0.219-0.015 0.89-0.001 1.116 0 0.183 0.001 0.759-0.019 0.954 0 0.254 0.024 0.348 0.109 0.352 0.261v0l-0.003 0.218 0.002 0.048c0.024 0.286 0.158 0.618 0.555 0.673v0l1.123 0.188 0.061 0.006c0.246 0.017 0.492-0.066 0.67-0.213 0.14-0.115 0.24-0.267 0.276-0.443v0l0.018-0.113-0.002-0.077c-0.017-0.479-0.154-0.814-0.608-1.188-0.745-0.614-1.815-0.978-3.44-0.964z"></path>
<path fill="#299e0b" d="M20 8c6.627 0 12 5.373 12 12s-5.373 12-12 12c-6.627 0-12-5.373-12-12s5.373-12 12-12zM17.917 14.541c-0.271-0.127-0.559-0.169-0.853-0.123-0.22 0.034-0.486 0.13-0.807 0.286-0.315 0.153-0.558 0.3-0.731 0.444-0.373 0.314-0.6 0.737-0.681 1.26-0.085 0.494-0.046 1.052 0.112 1.669 0.156 0.607 0.425 1.256 0.807 1.948 0.38 0.696 0.869 1.402 1.466 2.116 0.453 0.532 0.912 1.007 1.379 1.426 0.459 0.425 0.923 0.789 1.39 1.087 0.47 0.301 0.932 0.533 1.386 0.695 0.465 0.166 0.913 0.25 1.342 0.25 0.265 0 0.509-0.035 0.731-0.105 0.228-0.072 0.431-0.182 0.606-0.327 0.168-0.126 0.365-0.325 0.582-0.588 0.221-0.267 0.37-0.493 0.447-0.685 0.114-0.229 0.138-0.497 0.064-0.775-0.073-0.274-0.229-0.51-0.463-0.703-0.418-0.345-0.756-0.63-1.014-0.856s-0.506-0.453-0.746-0.679c-0.193-0.206-0.465-0.333-0.786-0.362-0.311-0.027-0.605 0.038-0.868 0.193-0.102 0.069-0.178 0.128-0.247 0.191-0.063 0.058-0.14 0.134-0.23 0.229v0l-0.030 0.037c-0.004 0.005-0.005 0.007-0.004 0.006v0l-0.032 0.031c-0.036 0.039-0.064 0.070-0.087 0.096-0.034-0.015-0.076-0.037-0.125-0.064-0.126-0.070-0.269-0.176-0.427-0.317-0.163-0.145-0.34-0.331-0.531-0.557-0.176-0.211-0.322-0.407-0.436-0.586-0.111-0.175-0.191-0.329-0.241-0.462v0c-0.039-0.095-0.062-0.166-0.073-0.219 0.017-0.009 0.036-0.018 0.058-0.027 0.038-0.018 0.064-0.032 0.089-0.048v0l0.068-0.033c0.032-0.015 0.061-0.034 0.087-0.055 0.076-0.042 0.145-0.084 0.208-0.127 0.070-0.048 0.138-0.1 0.203-0.156 0.229-0.231 0.354-0.48 0.391-0.76 0.037-0.284-0.029-0.557-0.194-0.807-0.264-0.382-0.489-0.727-0.678-1.040s-0.356-0.615-0.503-0.906c-0.149-0.273-0.36-0.473-0.631-0.6z"></path>
</svg>
