<?xml version="1.0" encoding="UTF-8"?>
<svg viewBox="0 0 32 32" version="1.1" xmlns="http://www.w3.org/2000/svg" xmlns:xlink="http://www.w3.org/1999/xlink">
<title>askfirst_sp</title>
<path d="M6.846 14.358l3.614 1.362c1.153 0.422 1.961 1.51 1.961 2.786l-0.003 0.155c0 0.551 0.344 1.021 0.828 1.208l0.144 0.046c0.653 0.169 1.635 0.376 2.617 0.406 0.981 0.005 1.959-0.097 2.918-0.303 0.385-0.088 0.68-0.397 0.746-0.783l0.013-0.133 0.009-0.275c0.040-1.237 0.828-2.28 1.924-2.696l0.218-0.072 3.949-1.152 0.243 0.943c1 1.851 1.157 3.671 0.451 5.269l-0.002 0c-0.263 0.583-0.619 1.121-1.054 1.591l-0.371 0.376c-0.535 0.495-1.137 0.93-1.789 1.286l-0.047 0.023c-1.906 1.038-4.321 1.598-6.848 1.598l-0.531-0.009c-4.646-0.139-8.706-2.146-10.107-4.994-0.618-1.257-1.014-3.29 0.606-5.831l0.512-0.8zM16 14.71c0.712 0 1.289 0.577 1.289 1.289s-0.577 1.289-1.289 1.289v0l-0.14-0.008c-0.646-0.070-1.149-0.617-1.149-1.282 0-0.712 0.577-1.289 1.289-1.289zM17.794 5.557c0.533 0.282 0.962 0.672 1.278 1.159 0.323 0.502 0.489 1.080 0.489 1.718 0 0.385-0.071 0.751-0.213 1.088-0.165 0.372-0.387 0.689-0.659 0.956l-0 0c-0.304 0.296-0.635 0.566-0.989 0.806l-0.025 0.016c-0.24 0.159-0.449 0.328-0.642 0.512l0.002-0.002c-0.077 0.071-0.138 0.156-0.181 0.252l-0.002 0.005c-0.036 0.108-0.056 0.232-0.056 0.361l0 0.715h-1.714v-0.681c0-0.36 0.055-0.689 0.158-0.981 0.135-0.345 0.332-0.639 0.58-0.882l0-0c0.264-0.255 0.551-0.489 0.858-0.697l0.022-0.014c0.329-0.225 0.587-0.434 0.773-0.618 0.123-0.118 0.224-0.257 0.296-0.411 0.050-0.12 0.079-0.26 0.079-0.406l-0-0.019c0-0.012 0.001-0.026 0.001-0.041 0-0.221-0.051-0.43-0.142-0.616l-0.072-0.129c-0.16-0.243-0.375-0.438-0.628-0.568l-0.009-0.004c-0.278-0.138-0.605-0.218-0.951-0.218-0.29 0-0.568 0.057-0.821 0.16l-0.178 0.081-0.132 0.080c-0.483 0.318-0.774 0.864-0.761 1.451l0 0.001h-1.714l-0-0.047c0-1.284 0.712-2.401 1.763-2.979l0.018-0.009c1.062-0.589 2.505-0.599 3.575-0.038z"></path>
</svg>
