<?xml version="1.0" encoding="UTF-8"?>
<svg viewBox="0 0 32 32" version="1.1" xmlns="http://www.w3.org/2000/svg" xmlns:xlink="http://www.w3.org/1999/xlink">
<title>avatar-delegated-lines</title>
<path d="M23.002 7.498l0.366 0.072c1.199 0.247 2.128 1.198 2.347 2.402 0.175 0.963 0.27 2.212 0.286 3.747 0.017 1.635-0.076 3.002-0.276 4.1l-0.057 0.293c-0.246 1.174-1.168 2.088-2.343 2.325-1.668 0.336-3.776 0.522-6.322 0.557l-0.001 3.006h3.5c0.276 0 0.5 0.224 0.5 0.5s-0.224 0.5-0.5 0.5h-9c-0.276 0-0.5-0.224-0.5-0.5s0.224-0.5 0.5-0.5h3.5l-0.001-3.009c-2.228-0.036-4.122-0.184-5.683-0.445l-0.377-0.066c-1.234-0.229-2.195-1.201-2.409-2.437-0.227-1.309-0.356-2.866-0.388-4.671-0.021-1.175 0.017-2.171 0.114-2.989l0.039-0.299c0.181-1.261 1.139-2.269 2.388-2.516 1.841-0.364 4.255-0.553 7.24-0.567 2.858-0.014 5.217 0.152 7.079 0.498zM22 15.5h-8c-0.552 0-1 0.448-1 1s0.448 1 1 1h8c0.552 0 1-0.448 1-1s-0.448-1-1-1zM18 10.5h-8c-0.552 0-1 0.448-1 1s0.448 1 1 1h8c0.552 0 1-0.448 1-1s-0.448-1-1-1z"></path>
</svg>
