<?xml version="1.0" encoding="UTF-8"?>
<svg viewBox="0 0 32 32" version="1.1" xmlns="http://www.w3.org/2000/svg" xmlns:xlink="http://www.w3.org/1999/xlink">
<title>ai-writer-menu</title>
<path d="M21.265 1.132h2.24l1.61 4.185c0.248 0.644 0.305 0.767 0.372 0.862 0.078 0.109 0.173 0.205 0.283 0.283 0.094 0.067 0.218 0.124 0.862 0.372l4.185 1.61v2.24l-4.185 1.61c-0.644 0.248-0.767 0.305-0.862 0.372-0.109 0.078-0.205 0.173-0.283 0.283-0.067 0.095-0.124 0.218-0.372 0.862l-1.61 4.185h-2.24l-1.61-4.185c-0.248-0.644-0.305-0.767-0.372-0.862-0.078-0.109-0.173-0.205-0.283-0.283-0.095-0.067-0.218-0.124-0.862-0.372l-4.185-1.61v-2.24l4.185-1.61c0.644-0.248 0.767-0.305 0.862-0.372 0.109-0.078 0.205-0.173 0.283-0.283 0.067-0.095 0.124-0.218 0.372-0.862l1.61-4.185zM22.385 4.906l-0.49 1.273c-0.013 0.034-0.026 0.067-0.038 0.1-0.187 0.488-0.352 0.918-0.617 1.291-0.233 0.328-0.52 0.615-0.848 0.848-0.373 0.266-0.803 0.43-1.291 0.617-0.033 0.013-0.067 0.025-0.1 0.038l-1.273 0.49 1.273 0.49c0.034 0.013 0.067 0.026 0.1 0.038 0.488 0.187 0.918 0.352 1.291 0.617 0.328 0.233 0.615 0.52 0.848 0.848 0.266 0.373 0.43 0.803 0.617 1.291 0.013 0.033 0.025 0.066 0.038 0.1l0.49 1.273 0.49-1.273c0.013-0.034 0.026-0.067 0.038-0.1 0.187-0.488 0.352-0.918 0.617-1.291 0.233-0.328 0.52-0.615 0.848-0.848 0.373-0.266 0.803-0.43 1.291-0.617 0.033-0.013 0.066-0.025 0.1-0.038l1.273-0.49-1.273-0.49c-0.034-0.013-0.067-0.026-0.1-0.038-0.488-0.187-0.918-0.352-1.291-0.617-0.328-0.233-0.615-0.52-0.848-0.848-0.266-0.373-0.43-0.803-0.617-1.291-0.013-0.033-0.026-0.066-0.038-0.1l-0.49-1.273z"></path>
<path d="M4.739 15.754c0.347-0.406 0.852-0.656 1.415-0.656 0.452 0 0.864 0.16 1.186 0.429l8.935 7.846c0.259 0.22 0.458 0.517 0.565 0.857l1.171 3.758-3.9-0.525c-0.361-0.050-0.673-0.193-0.926-0.402l-8.952-7.858c-0.361-0.307-0.596-0.741-0.639-1.226l-0.001-0.012-0.001-0.017c-0.042-0.487 0.111-0.969 0.427-1.34l0.72-0.854zM8.545 14.132l0.361-0.425-0.004-0.004-0.119 0.137 0.117-0.139c-0.741-0.626-1.7-1.005-2.745-1.005-1.3 0-2.463 0.585-3.244 1.502l-0.721 0.854c-0.728 0.856-1.083 1.966-0.99 3.084l0.001 0.009 0.001 0.014c0.095 1.146 0.646 2.159 1.47 2.863l8.927 7.836 0.44-0.501-0.433 0.508 0.004 0.004c0.601 0.51 1.345 0.854 2.175 0.969l0.005 0.001 7.634 1.027-2.293-7.358c-0.241-0.765-0.691-1.445-1.293-1.96l-8.925-7.837-0.368 0.419z"></path>
</svg>
