<?xml version="1.0" encoding="UTF-8"?>
<svg viewBox="0 0 32 32" version="1.1" xmlns="http://www.w3.org/2000/svg" xmlns:xlink="http://www.w3.org/1999/xlink">
<title>audio-low_sp</title>
<path fill="#000" d="M18.286 26.946l-6.835-4.549c-1.834-0.046-3.249-0.56-4.206-1.534-1.434-1.457-1.401-3.514-1.39-4.393l0.002-0.745-0.002-0.198c-0.015-0.933-0.043-2.877 1.365-4.309 0.958-0.971 2.381-1.486 4.231-1.529l6.835-4.552v21.808z"></path>
<path fill="#000" opacity="0.32" d="M22.869 9.456l0.034 0.019c2.2 1.341 3.67 3.761 3.676 6.525v0 0l-0.007 0.306c-0.109 2.636-1.552 4.928-3.703 6.239v0l-0.88-1.471 0.026-0.015c1.704-1.041 2.843-2.917 2.849-5.059v0c-0.005-2.143-1.144-4.018-2.875-5.073v0l0.88-1.471zM21.086 12.751l0.017 0.009c1.092 0.666 1.822 1.867 1.827 3.24v0c-0.004 1.373-0.734 2.574-1.843 3.25v0l-0.88-1.472c0.631-0.378 1.007-1.042 1.007-1.778s-0.376-1.4-1.007-1.778v0l0.88-1.471z"></path>
</svg>
