<?xml version="1.0" encoding="UTF-8"?>
<svg viewBox="0 0 34 32" version="1.1" xmlns="http://www.w3.org/2000/svg" xmlns:xlink="http://www.w3.org/1999/xlink">
<title>Decline</title>
<path d="M5.486 4.686c-0.781 0.781-0.781 2.047 0 2.828l8.485 8.485-8.485 8.485c-0.781 0.781-0.781 2.047 0 2.828s2.047 0.781 2.828 0l8.485-8.485 8.485 8.485c0.781 0.781 2.047 0.781 2.828 0s0.781-2.047 0-2.828l-8.485-8.485 8.485-8.485c0.781-0.781 0.781-2.047 0-2.828s-2.047-0.781-2.828 0l-8.485 8.485-8.485-8.485c-0.781-0.781-2.047-0.781-2.828 0z"></path>
</svg>
