<?xml version="1.0" encoding="UTF-8"?>
<svg viewBox="0 0 32 32" version="1.1" xmlns="http://www.w3.org/2000/svg" xmlns:xlink="http://www.w3.org/1999/xlink">
<title>CompactView2</title>
<path d="M23.946 0.4c2.088 0 3.78 1.692 3.78 3.78v0 23.64l-0.020 0.384c-0.202 1.915-1.808 3.395-3.76 3.396h-15.366c-2.088 0-3.78-1.692-3.78-3.78v0-23.64c0-2.084 1.694-3.78 3.78-3.78h15.366zM7.2 22.8v5.020c0 0.76 0.616 1.38 1.38 1.38h15.366c0.762 0 1.38-0.618 1.38-1.38v0-5.020h-18.126zM8.58 2.8c-0.76 0-1.38 0.62-1.38 1.38v16.22h18.126v-16.22c0-0.762-0.618-1.38-1.38-1.38v0h-15.366z"></path>
</svg>
