<?xml version="1.0" encoding="UTF-8"?>
<svg viewBox="0 0 32 32" version="1.1" xmlns="http://www.w3.org/2000/svg" xmlns:xlink="http://www.w3.org/1999/xlink">
<title>whisper</title>
<path d="M8.832 6.356c0.365-1.305 2.042-2.795 3.836-2.234s4.948-0.047 4.983-0.047c0.040-0.001 0.079 0.013 0.11 0.040 0.033 0.028 0.053 0.069 0.056 0.112 0.012 0.454-0.157 0.894-0.47 1.218 2.67 1.811 2.004 5.368 1.696 6.89v0l0.027 0.037c0.642 0.862 0.69 2.075 0.458 2.907-0.142 0.523-0.407 1.462-1.007 2.062-0.24 0.846-0.978 1.633-1.505 2.331v0 0.922c0 0.029 0.019 0.054 0.047 0.062 2.281 0.538 7.938 2.252 7.938 6.536 0 0.462-0.453 0.803-0.908 0.808v0h-22.366c-0.454-0.010-0.729-0.352-0.726-0.813 0-4.289 5.718-6.058 8.004-6.593 0.028-0.007 0.047-0.033 0.047-0.062v0-0.907c-0.528-0.704-1.332-1.44-1.571-2.292-0.598-0.6-0.862-1.549-1.004-2.062-0.233-0.832-0.112-2.038 0.528-2.899v0l0.029-0.037c-0.044-0.249-0.427-0.498-0.447-0.747-0.289-1.953-0.071-3.408 0.664-4.322 0.391-0.5 0.959-0.826 1.582-0.909zM24.74 5.534l1.86 1.022c-1.586 1.283-2.6 3.245-2.6 5.444 0 2.336 1.144 4.404 2.902 5.676l-1.706 1.203c-1.955-1.651-3.196-4.12-3.196-6.879 0-2.538 1.050-4.83 2.74-6.466zM27.561 7.083l2.093 1.149c-1.547 0.553-2.654 2.031-2.654 3.768 0 1.726 1.093 3.196 2.624 3.757l-1.849 1.304c-1.669-1.066-2.775-2.934-2.775-5.061 0-2.034 1.012-3.832 2.561-4.917zM31 9v2c-0.552 0-1 0.448-1 1s0.448 1 1 1v1.787l-0.283 0.2c-1.524-0.143-2.717-1.425-2.717-2.987 0-1.657 1.343-3 3-3z"></path>
</svg>
