<?xml version="1.0" encoding="UTF-8"?>
<svg viewBox="0 0 32 32" version="1.1" xmlns="http://www.w3.org/2000/svg" xmlns:xlink="http://www.w3.org/1999/xlink">
<title>prisence-available</title>
<path d="M16 2c-7.732 0-14 6.268-14 14s6.268 14 14 14c7.732 0 14-6.268 14-14s-6.268-14-14-14zM23.544 11.084l-6.222 11.667c-0.262 0.526-0.748 0.904-1.322 1.027h-0.358c-0.442-0.009-0.866-0.174-1.198-0.467l-5.444-4.667c-0.729-0.634-0.882-1.708-0.358-2.52s1.564-1.117 2.443-0.715c0.127 0.077 0.242 0.171 0.342 0.28l3.609 3.111 5.087-9.536c0.456-0.97 1.611-1.387 2.582-0.933 0.469 0.216 0.831 0.611 1.006 1.096s0.149 1.021-0.073 1.486l-0.093 0.187v-0.016z"></path>
</svg>
