<?xml version="1.0" encoding="UTF-8"?>
<svg viewBox="0 0 32 32" version="1.1" xmlns="http://www.w3.org/2000/svg" xmlns:xlink="http://www.w3.org/1999/xlink">
<title>email</title>
<path d="M28 5c1.105 0 2 0.895 2 2v18c0 1.105-0.895 2-2 2h-24c-1.105 0-2-0.895-2-2v-18c0-1.105 0.895-2 2-2h24zM4 9.032v13.744l7.698-7.146 1.529 1.31-8.601 7.988c0.116 0.047 0.242 0.072 0.374 0.072h22c0.132 0 0.259-0.026 0.374-0.072l-8.602-7.988-0.82 0.704-0.149 0.12c-1.064 0.801-2.533 0.803-3.599 0.005l-0.157-0.126-10.048-8.612zM28 9.031l-7.699 6.599 7.699 7.149v1.221l-0.007 0.122c0.005-0.040 0.007-0.081 0.007-0.122v-14.969zM27 7h-22c-0.088 0-0.173 0.011-0.255 0.033l10.701 9.166c0.331 0.221 0.764 0.223 1.097 0.007l0.107-0.080 10.605-9.092c-0.082-0.022-0.167-0.033-0.256-0.033z"></path>
</svg>
