<?xml version="1.0" encoding="UTF-8"?>
<svg viewBox="0 0 32 32" version="1.1" xmlns="http://www.w3.org/2000/svg" xmlns:xlink="http://www.w3.org/1999/xlink">
<title>underline</title>
<path d="M24 26c0.552 0 1 0.448 1 1s-0.448 1-1 1h-16c-0.552 0-1-0.448-1-1s0.448-1 1-1h16zM24 4c0.552 0 1 0.448 1 1v10c0 4.971-4.029 9-9 9s-9-4.029-9-9v-10c0-0.552 0.448-1 1-1s1 0.448 1 1v10c0 3.785 3.005 6.869 6.759 6.996l0.241 0.004c3.785 0 6.869-3.005 6.996-6.759l0.004-0.241v-10c0-0.552 0.448-1 1-1z"></path>
</svg>
