<?xml version="1.0" encoding="UTF-8"?>
<svg viewBox="0 0 32 32" version="1.1" xmlns="http://www.w3.org/2000/svg" xmlns:xlink="http://www.w3.org/1999/xlink">
<title>conversion</title>
<path d="M10 18c3.314 0 6 2.686 6 6s-2.686 6-6 6c-3.314 0-6-2.686-6-6s2.686-6 6-6zM10 20c-2.209 0-4 1.791-4 4s1.791 4 4 4c2.209 0 4-1.791 4-4s-1.791-4-4-4zM20.974 6.076c4.145 1.89 7.026 6.071 7.026 10.924 0 3.585-1.572 6.803-4.064 9.001l5.064-0.001v2h-9v-9h2l0.001 6c2.428-1.824 3.999-4.729 3.999-8 0-4.056-2.414-7.547-5.884-9.116l0.858-1.807zM10 2c3.314 0 6 2.686 6 6s-2.686 6-6 6c-3.314 0-6-2.686-6-6s2.686-6 6-6zM10 4c-2.209 0-4 1.791-4 4s1.791 4 4 4c2.209 0 4-1.791 4-4s-1.791-4-4-4z"></path>
</svg>
