<?xml version="1.0" encoding="UTF-8"?>
<svg viewBox="0 0 32 32" version="1.1" xmlns="http://www.w3.org/2000/svg" xmlns:xlink="http://www.w3.org/1999/xlink">
<title>camera-outlined</title>
<path d="M23 2c3.866 0 7 3.134 7 7v14c0 3.866-3.134 7-7 7h-14c-3.866 0-7-3.134-7-7v-14c0-3.866 3.134-7 7-7h14zM23 4.1h-14c-2.606 0-4.737 2.034-4.891 4.601l-0.009 0.299v14c0 2.606 2.034 4.737 4.601 4.891l0.299 0.009h14c2.606 0 4.737-2.034 4.891-4.602l0.009-0.299v-14c0-2.606-2.034-4.737-4.602-4.891l-0.299-0.009zM16 10.4c3.093 0 5.6 2.507 5.6 5.6s-2.507 5.6-5.6 5.6c-3.093 0-5.6-2.507-5.6-5.6s2.507-5.6 5.6-5.6zM16 12.5c-1.933 0-3.5 1.567-3.5 3.5s1.567 3.5 3.5 3.5c1.933 0 3.5-1.567 3.5-3.5s-1.567-3.5-3.5-3.5zM23 7.25c0.966 0 1.75 0.784 1.75 1.75s-0.784 1.75-1.75 1.75c-0.966 0-1.75-0.784-1.75-1.75s0.784-1.75 1.75-1.75z"></path>
</svg>
