<?xml version="1.0" encoding="UTF-8"?>
<svg viewBox="0 0 32 32" version="1.1" xmlns="http://www.w3.org/2000/svg" xmlns:xlink="http://www.w3.org/1999/xlink">
<title>pop-in</title>
<path d="M14 5c0.552 0 1 0.448 1 1s-0.448 1-1 1h-8c-0.552 0-1 0.448-1 1v18c0 0.552 0.448 1 1 1h18c0.552 0 1-0.448 1-1v-8c0-0.552 0.448-1 1-1s1 0.448 1 1v9c0 1.105-0.895 2-2 2h-20c-1.105 0-2-0.895-2-2v-20c0-1.105 0.895-2 2-2h9zM26.885 3.705c0.389-0.389 1.021-0.389 1.41 0 0.359 0.359 0.387 0.925 0.083 1.316l-0.083 0.094-13.885 13.885h5.59c0.552 0 1 0.448 1 1 0 0.513-0.386 0.936-0.883 0.993l-0.117 0.007h-8c-0.513 0-0.935-0.386-0.993-0.883l-0.007-0.117v-8c0-0.552 0.448-1 1-1 0.513 0 0.935 0.386 0.993 0.883l0.007 0.117v5.59l13.885-13.885z"></path>
</svg>
