<?xml version="1.0" encoding="UTF-8"?>
<svg viewBox="0 0 32 32" version="1.1" xmlns="http://www.w3.org/2000/svg" xmlns:xlink="http://www.w3.org/1999/xlink">
<title>phone</title>
<path d="M13.228 14.296c0.124 0.331 0.324 0.717 0.602 1.154 0.285 0.448 0.649 0.938 1.090 1.465 0.477 0.564 0.921 1.028 1.328 1.391 0.395 0.352 0.753 0.616 1.068 0.791 0.121 0.067 0.226 0.121 0.312 0.159 0.058-0.064 0.129-0.141 0.218-0.239l0.080-0.078c-0.004 0.003 0.001-0.001 0.009-0.015l0.076-0.093c0.226-0.238 0.417-0.428 0.575-0.573 0.171-0.156 0.362-0.306 0.617-0.477 0.658-0.388 1.391-0.552 2.169-0.483 0.803 0.071 1.484 0.39 1.965 0.905 0.599 0.566 1.221 1.131 1.865 1.697s1.489 1.28 2.534 2.141c0.586 0.482 0.976 1.073 1.157 1.757 0.184 0.694 0.125 1.365-0.161 1.937-0.193 0.479-0.565 1.044-1.117 1.713-0.544 0.659-1.035 1.155-1.456 1.47-0.44 0.363-0.947 0.637-1.516 0.818-0.556 0.177-1.167 0.264-1.829 0.264-1.073 0-2.192-0.21-3.356-0.625-1.135-0.405-2.29-0.984-3.466-1.737-1.166-0.747-2.327-1.656-3.475-2.719-1.168-1.047-2.316-2.234-3.448-3.565-1.492-1.787-2.714-3.551-3.664-5.291-0.955-1.731-1.628-3.354-2.018-4.87-0.397-1.544-0.493-2.938-0.281-4.173 0.204-1.306 0.769-2.366 1.703-3.149 0.433-0.361 1.041-0.728 1.828-1.11 0.803-0.39 1.468-0.63 2.018-0.716 0.735-0.115 1.455-0.010 2.133 0.308s1.204 0.818 1.577 1.5c0.366 0.728 0.785 1.483 1.257 2.265 0.473 0.784 1.035 1.646 1.696 2.601 0.414 0.626 0.579 1.307 0.486 2.017-0.091 0.699-0.403 1.322-0.977 1.9-0.164 0.139-0.333 0.269-0.508 0.389-0.156 0.107-0.329 0.212-0.519 0.316-0.067 0.053-0.139 0.099-0.218 0.137l-0.171 0.083c-0.063 0.039-0.129 0.075-0.223 0.12-0.053 0.022-0.101 0.045-0.144 0.067 0.027 0.132 0.084 0.31 0.182 0.548h-0z"></path>
</svg>
