<?xml version="1.0" encoding="UTF-8"?>
<svg viewBox="0 0 32 32" version="1.1" xmlns="http://www.w3.org/2000/svg" xmlns:xlink="http://www.w3.org/1999/xlink">
<title>e2ee_sp</title>
<path d="M16 5.714l2.522 1.026 3.081 0.715 2.481 0.417-0 9.093c0.008 0.423-0.061 0.935-0.257 1.561-0.489 1.387-1.203 2.573-2.301 3.798-0.31 0.34-0.637 0.664-0.981 0.967-0.331 0.297-0.699 0.605-1.097 0.921-0.369 0.292-0.772 0.584-1.176 0.869l-1.034 0.723-1.234 0.825-0.88-0.54c-1.352-0.904-1.841-1.292-2.329-1.694l-0.729-0.605c-0.633-0.526-1.203-1.053-1.696-1.574-1.001-1.061-1.671-2.147-2.065-3.217-0.25-0.681-0.364-1.28-0.387-1.784l-0.004-9.372 1.061-0.145 0.845-0.121 0.588-0.089 3.48-0.885c0.225-0.082 0.43-0.169 0.642-0.257l0.912-0.367 0.559-0.265zM15.981 7.548l-0.518 0.205-0.54 0.224-0.364 0.144-0.334 0.122-0.378 0.134-0.411 0.14-0.339 0.111-0.28 0.085-0.255 0.069-0.128 0.032-0.285 0.059-0.321 0.060-0.265 0.047-0.349 0.058-0.693 0.109-0.463 0.070-0.485 0.069v7.764c0.002 0.328 0.073 0.73 0.221 1.181l0.068 0.196c0.329 0.892 0.896 1.784 1.714 2.651 0.367 0.388 0.789 0.787 1.261 1.193l0.94 0.785 0.549 0.445 0.321 0.25c0.051 0.039 0.102 0.077 0.152 0.114l0.294 0.212 0.315 0.216 0.159 0.107 0.406 0.264 0.322-0.22 1.055-0.738 0.353-0.252 0.453-0.334 0.263-0.203c0.381-0.303 0.722-0.59 1.031-0.866 0.296-0.261 0.581-0.542 0.845-0.832 0.852-0.951 1.448-1.878 1.798-2.756l0.103-0.276c0.147-0.428 0.221-0.794 0.234-1.026l0.002-0.080-0.004-0.11-0.001-7.695-0.642-0.107-0.476-0.083-0.959-0.172-0.346-0.065-0.316-0.061-0.383-0.081-0.223-0.052-0.19-0.051-0.36-0.109-0.428-0.145-0.476-0.173-1.066-0.393-0.311-0.123-0.268-0.114zM15.97 9.089l1.149 0.425 0.503 0.183 0.338 0.116 0.204 0.066 0.105 0.031 0.050 0.016 0.178 0.052 0.209 0.056 0.095 0.024 0.185 0.042 0.406 0.086 0.336 0.065 0.355 0.066 0.912 0.163 0.001 6.489 0.002 0.088-0.001 0.030c-0.005 0.068-0.023 0.175-0.059 0.314l-0.030 0.11-0.066 0.208-0.083 0.22c-0.285 0.71-0.79 1.494-1.532 2.323-0.222 0.243-0.47 0.488-0.727 0.715-0.221 0.198-0.456 0.399-0.712 0.607l-0.263 0.212-0.241 0.187-0.274 0.204-0.488 0.35-0.569 0.398-0.178-0.126-0.275-0.205-0.299-0.233-0.334-0.269-0.184-0.151-0.916-0.765c-0.436-0.375-0.824-0.741-1.157-1.093-0.626-0.663-1.066-1.325-1.336-1.97l-0.076-0.193-0.049-0.139c-0.090-0.271-0.137-0.501-0.149-0.673l-0.003-0.081v-6.521l0.436-0.069 0.359-0.060 0.467-0.083 0.156-0.030 0.31-0.064 0.12-0.028 0.13-0.033 0.289-0.080 0.252-0.077 0.192-0.062 0.374-0.125 0.419-0.146 0.557-0.202 0.401-0.159 0.508-0.212z"></path>
</svg>
