<?xml version="1.0" encoding="UTF-8"?>
<svg viewBox="0 0 32 32" version="1.1" xmlns="http://www.w3.org/2000/svg" xmlns:xlink="http://www.w3.org/1999/xlink">
<title>Call-queue</title>
<path fill="#066fac" d="M32 16c0 8.837-7.163 16-16 16s-16-7.163-16-16c0-8.837 7.163-16 16-16s16 7.163 16 16z"></path>
<path fill="#fff" d="M18.5 5c3.333 0 6.036 2.737 6.036 6.113v0l-0.934 0.001c0.003-0.075 0.005-0.151 0.005-0.227 0-2.751-2.287-4.981-5.107-4.981s-5.107 2.23-5.107 4.981c0 0.076 0.002 0.152 0.005 0.227l-0.934-0.001c0-3.376 2.702-6.113 6.036-6.113z"></path>
<path fill="#fff" d="M18.5 17c3.333 0 6.036-2.737 6.036-6.113h-0.934c0.003 0.075 0.005 0.151 0.005 0.226 0 2.751-2.287 4.981-5.107 4.981-0.337 0-0.505 0.145-0.505 0.436s0.168 0.447 0.505 0.469zM13.393 11.113c0-0.076 0.002-0.151 0.005-0.226h-0.934z"></path>
<path fill="#fff" d="M13.393 10.923c0 0.839 0.198 1.634 0.55 2.341l-1.496-0c-0.247 0-0.448-0.201-0.448-0.448v-3.632c0-0.247 0.201-0.448 0.448-0.448l1.423-0.002c-0.307 0.668-0.477 1.409-0.477 2.189zM24.552 8.736c0.247 0 0.448 0.201 0.448 0.448v3.632c0 0.247-0.201 0.448-0.448 0.448l-0.709 0c0.352-0.707 0.55-1.502 0.55-2.341 0-0.78-0.171-1.521-0.477-2.189l0.636 0.002z"></path>
<path fill="#fff" d="M22.505 10.929c0 2.155-1.791 3.901-4 3.901s-4-1.747-4-3.901c0-2.155 1.791-3.901 4-3.901s4 1.747 4 3.901z"></path>
<path fill="#066fac" d="M22 21.5c0 5.247-4.253 9.5-9.5 9.5s-9.5-4.253-9.5-9.5c0-5.247 4.253-9.5 9.5-9.5s9.5 4.253 9.5 9.5z"></path>
<path fill="#fff" d="M12.5 14c3.333 0 6.036 2.737 6.036 6.113v0l-0.934 0.001c0.003-0.075 0.005-0.151 0.005-0.227 0-2.751-2.287-4.981-5.107-4.981s-5.107 2.23-5.107 4.981c0 0.076 0.002 0.152 0.005 0.227l-0.934-0.001c0-3.376 2.702-6.113 6.036-6.113z"></path>
<path fill="#fff" d="M12.5 26c3.333 0 6.036-2.737 6.036-6.113h-0.934c0.003 0.075 0.005 0.151 0.005 0.226 0 2.751-2.287 4.981-5.107 4.981-0.337 0-0.505 0.145-0.505 0.436s0.168 0.447 0.505 0.469zM7.393 20.113c0-0.076 0.002-0.151 0.005-0.226h-0.934z"></path>
<path fill="#fff" d="M7.393 19.923c0 0.839 0.198 1.634 0.55 2.341l-1.496-0c-0.247 0-0.448-0.201-0.448-0.448v-3.632c0-0.247 0.201-0.448 0.448-0.448l1.423-0.002c-0.307 0.668-0.477 1.409-0.477 2.189zM18.552 17.736c0.247 0 0.448 0.201 0.448 0.448v3.632c0 0.247-0.201 0.448-0.448 0.448l-0.709 0c0.352-0.707 0.55-1.502 0.55-2.341 0-0.78-0.171-1.521-0.477-2.189l0.636 0.002z"></path>
<path fill="#fff" d="M16.505 19.929c0 2.155-1.791 3.901-4 3.901s-4-1.747-4-3.901c0-2.155 1.791-3.901 4-3.901s4 1.747 4 3.901z"></path>
</svg>
