<?xml version="1.0" encoding="UTF-8"?>
<svg viewBox="0 0 32 32" version="1.1" xmlns="http://www.w3.org/2000/svg" xmlns:xlink="http://www.w3.org/1999/xlink">
<title>list-ordered</title>
<path d="M5.172 21.127c1.285 0 2.215 0.561 2.215 1.531 0 0.715-0.429 1.155-1.075 1.322l-0.142 0.032v0.041c0.957 0.082 1.436 0.615 1.436 1.34 0 1.094-0.916 1.791-2.434 1.791-1.053 0-2.256-0.492-2.256-1.395 0-0.369 0.26-0.602 0.656-0.602 0.219 0 0.369 0.109 0.52 0.273 0.246 0.301 0.602 0.547 1.080 0.547 0.492 0 0.875-0.287 0.875-0.711 0-0.416-0.303-0.647-0.866-0.679l-0.146-0.004h-0.219c-0.342 0-0.561-0.205-0.561-0.52 0-0.32 0.177-0.507 0.462-0.541l0.099-0.006h0.205c0.574 0 0.93-0.232 0.93-0.629 0-0.438-0.328-0.67-0.793-0.67-0.328 0-0.581 0.097-0.834 0.368l-0.095 0.11c-0.178 0.219-0.301 0.314-0.574 0.314-0.355 0-0.602-0.232-0.602-0.574 0-0.848 1.094-1.34 2.119-1.34zM5.145 12.842c1.367 0 2.242 0.711 2.242 1.736 0 0.702-0.274 1.118-1.077 1.826l-0.18 0.156-1.176 0.998v0.041h2.064c0.328 0 0.561 0.219 0.561 0.588 0 0.295-0.199 0.513-0.468 0.554l-0.092 0.007h-3.418c-0.397 0-0.656-0.26-0.656-0.629 0-0.234 0.070-0.429 0.237-0.6l0.091-0.084 1.764-1.518c0.697-0.588 0.875-0.861 0.875-1.23 0-0.396-0.314-0.684-0.738-0.684-0.377 0-0.645 0.151-0.825 0.434l-0.063 0.112c-0.15 0.301-0.342 0.396-0.629 0.396-0.383 0-0.643-0.205-0.643-0.602 0-0.82 0.889-1.504 2.133-1.504zM27 24c0.552 0 1 0.448 1 1s-0.448 1-1 1h-16c-0.552 0-1-0.448-1-1s0.448-1 1-1h16zM27 15c0.552 0 1 0.448 1 1s-0.448 1-1 1h-16c-0.552 0-1-0.448-1-1s0.448-1 1-1h16zM5.596 4.543c0.48 0 0.819 0.28 0.869 0.731l0.006 0.116v4.43c0 0.533-0.314 0.793-0.779 0.793-0.442 0-0.732-0.221-0.774-0.675l-0.005-0.118v-3.746h-0.027l-0.684 0.492c-0.219 0.15-0.301 0.178-0.465 0.178-0.301 0-0.547-0.219-0.547-0.547 0-0.223 0.1-0.365 0.301-0.522l0.109-0.080 0.984-0.684c0.301-0.219 0.561-0.369 1.012-0.369zM27 6c0.552 0 1 0.448 1 1s-0.448 1-1 1h-16c-0.552 0-1-0.448-1-1s0.448-1 1-1h16z"></path>
</svg>
