<?xml version="1.0" encoding="UTF-8"?>
<svg viewBox="0 0 32 32" version="1.1" xmlns="http://www.w3.org/2000/svg" xmlns:xlink="http://www.w3.org/1999/xlink">
<title>rc-cc_border</title>
<path d="M6.7 21c-2.8 0-5 2.2-5 5s2.2 5 5 5 5-2.2 5-5-2.3-5-5-5zM6.7 29c-1.7 0-3-1.3-3-3s1.3-3 3-3 3 1.3 3 3-1.4 3-3 3zM25.3 21c-2.8 0-5 2.2-5 5s2.2 5 5 5 5-2.2 5-5-2.2-5-5-5zM25.3 29c-1.7 0-3-1.3-3-3s1.3-3 3-3 3 1.3 3 3-1.3 3-3 3zM24.3 17h-2.1l3.1 3.1 3.1-3.1h-2.1v-4.7h-9.3v-1.4c2.3-0.5 4-2.5 4-4.9 0-2.8-2.2-5-5-5s-5 2.2-5 5c0 2.4 1.7 4.4 4 4.9v1.4h-9.3v4.7h-2.1l3.1 3.1 3-3.1h-2v-2.7h16.6v2.7zM13 6c0-1.7 1.3-3 3-3s3 1.3 3 3-1.3 3-3 3-3-1.3-3-3z"></path>
</svg>
