<?xml version="1.0" encoding="UTF-8"?>
<svg viewBox="0 0 33 32" version="1.1" xmlns="http://www.w3.org/2000/svg" xmlns:xlink="http://www.w3.org/1999/xlink">
<title>schedule</title>
<path d="M23.793 30.946c4.657 0 8.433-3.776 8.433-8.433s-3.776-8.433-8.433-8.433c-4.657 0-8.433 3.776-8.433 8.433s3.776 8.433 8.433 8.433zM23.793 27.746c-2.89 0-5.233-2.343-5.233-5.233s2.343-5.233 5.233-5.233c2.89 0 5.233 2.343 5.233 5.233s-2.343 5.233-5.233 5.233z"></path>
<path d="M23.793 19.351c0.582 0 1.054 0.472 1.054 1.054l-0 1.054 1.054 0c0.582 0 1.054 0.472 1.054 1.054s-0.472 1.054-1.054 1.054l-1.054-0 0 1.054c0 0.582-0.472 1.054-1.054 1.054s-1.054-0.472-1.054-1.054l-0-1.054-1.054 0c-0.582 0-1.054-0.472-1.054-1.054s0.472-1.054 1.054-1.054l1.054-0 0-1.054c0-0.582 0.472-1.054 1.054-1.054z"></path>
<path d="M1.431 10.24h23.040v3.2h-23.040v-3.2z"></path>
<path d="M8 0c0.884 0 1.6 0.716 1.6 1.6v1.92c0 0.884-0.716 1.6-1.6 1.6s-1.6-0.716-1.6-1.6v-1.92c0-0.884 0.716-1.6 1.6-1.6z"></path>
<path d="M18.24 0c0.884 0 1.6 0.716 1.6 1.6v1.92c0 0.884-0.716 1.6-1.6 1.6s-1.6-0.716-1.6-1.6v-1.92c0-0.884 0.716-1.6 1.6-1.6z"></path>
<path d="M1.6 3.84c0.884 0 1.6 0.716 1.6 1.6v18.56c0 0.884-0.716 1.6-1.6 1.6s-1.6-0.716-1.6-1.6v-18.56c0-0.884 0.716-1.6 1.6-1.6z"></path>
<path d="M24.64 3.84c0.884 0 1.6 0.716 1.6 1.6v9.6c0 0.884-0.716 1.6-1.6 1.6s-1.6-0.716-1.6-1.6v-9.6c0-0.884 0.716-1.6 1.6-1.6z"></path>
<path d="M1.6 3.84h23.040c0.884 0 1.6 0.716 1.6 1.6s-0.716 1.6-1.6 1.6h-23.040c-0.884 0-1.6-0.716-1.6-1.6s0.716-1.6 1.6-1.6z"></path>
<path d="M1.6 22.4h14.72c0.884 0 1.6 0.716 1.6 1.6s-0.716 1.6-1.6 1.6h-14.72c-0.884 0-1.6-0.716-1.6-1.6s0.716-1.6 1.6-1.6z"></path>
</svg>
