<?xml version="1.0" encoding="UTF-8"?>
<svg viewBox="0 0 32 32" version="1.1" xmlns="http://www.w3.org/2000/svg" xmlns:xlink="http://www.w3.org/1999/xlink">
<title>customize</title>
<path d="M27.077 10c0.51 0 0.923 0.448 0.923 1 0 0.513-0.356 0.935-0.815 0.993l-0.108 0.007h-22.154c-0.51 0-0.923-0.448-0.923-1 0-0.513 0.356-0.935 0.815-0.993l0.108-0.007h22.154z"></path>
<path d="M27.077 20c0.51 0 0.923 0.448 0.923 1 0 0.513-0.356 0.936-0.815 0.993l-0.108 0.007h-22.154c-0.51 0-0.923-0.448-0.923-1 0-0.513 0.356-0.936 0.815-0.993l0.108-0.007h22.154z"></path>
</svg>
