<?xml version="1.0" encoding="UTF-8"?>
<svg viewBox="0 0 32 32" version="1.1" xmlns="http://www.w3.org/2000/svg" xmlns:xlink="http://www.w3.org/1999/xlink">
<title>location_border</title>
<path d="M16 2c6.627 0 12 5.373 12 12 0 4.418-4 10.418-12 18-8-7.582-12-13.582-12-18 0-6.627 5.373-12 12-12zM16 4c-5.523 0-10 4.477-10 10 0 3.433 3.233 8.527 9.801 15.024l0.199 0.196 0.199-0.196c6.442-6.372 9.675-11.395 9.797-14.824l0.004-0.2c0-5.523-4.477-10-10-10zM16 8c2.761 0 5 2.239 5 5s-2.239 5-5 5c-2.761 0-5-2.239-5-5s2.239-5 5-5zM16 10c-1.657 0-3 1.343-3 3s1.343 3 3 3c1.657 0 3-1.343 3-3s-1.343-3-3-3z"></path>
</svg>
