<?xml version="1.0" encoding="UTF-8"?>
<svg viewBox="0 0 32 32" version="1.1" xmlns="http://www.w3.org/2000/svg" xmlns:xlink="http://www.w3.org/1999/xlink">
<title>park-call_sp</title>
<path d="M7.429 12c0 5.554 4.217 10.117 9.488 10.281l0.289 0.005 5.895-0.001-1.598-1.596 1.215-1.214 3.665 3.667-3.666 3.665-1.213-1.213 1.597-1.597h-5.89c-6.105 0.002-11.155-5.008-11.48-11.351l-0.013-0.326-0.003-0.321h1.713zM17.429 5.143c3.935 0.004 7.139 3.124 7.281 7.024l0.005 0.262c-0.004 3.935-3.124 7.139-7.024 7.281l-0.262 0.005c-4.022-0.005-7.281-3.264-7.286-7.285 0.004-3.935 3.124-7.14 7.024-7.281l0.262-0.005zM18.286 8.571h-1.714v4.598l2.791 2.901 1.209-1.213-2.286-2.399v-3.887z"></path>
</svg>
