<?xml version="1.0" encoding="UTF-8"?>
<svg viewBox="0 0 32 32" version="1.1" xmlns="http://www.w3.org/2000/svg" xmlns:xlink="http://www.w3.org/1999/xlink">
<title>birthday</title>
<path d="M16.68 1.36c0.469 0.793 2 3.473 2 4.636 0 0.64-0.228 1.229-0.606 1.689 0.49 0.431 0.8 1.063 0.8 1.765l-0 7.527h2.139l0.001-2.814c0-0.702 0.31-1.334 0.801-1.766-0.379-0.459-0.607-1.048-0.607-1.688 0-1.164 1.531-3.843 2-4.636 0.283-0.479 1.076-0.479 1.359 0 0.469 0.793 2 3.473 2 4.636 0 0.62-0.213 1.191-0.571 1.645 0.58 0.432 0.979 1.083 0.979 1.809l-0 2.814 1.34 0c1.305 0 2.389 0.779 2.389 2.078l-1.511 6.665 1.021 0.001c0.28 0 0.539 0.148 0.68 0.389s0.144 0.538 0.007 0.781l-1.293 3.708c-0.139 0.248-0.402 0.401-0.688 0.401h-25.695c-0.285 0-0.548-0.153-0.688-0.401l-1.434-3.708c-0.137-0.243-0.134-0.541 0.007-0.781s0.4-0.389 0.68-0.389l0.978-0.001-1.468-6.665c0-1.299 1.038-2.078 2.343-2.078l1.378-0 0-2.814c0-0.727 0.402-1.379 0.984-1.811-0.356-0.453-0.569-1.024-0.569-1.643 0-1.164 1.531-3.843 2-4.636 0.283-0.479 1.076-0.479 1.359 0 0.469 0.793 2 3.473 2 4.636 0 0.64-0.228 1.229-0.606 1.689 0.49 0.431 0.8 1.063 0.8 1.765l-0 2.814h2.139l0.001-7.527c0-0.702 0.31-1.334 0.801-1.766-0.379-0.459-0.607-1.048-0.607-1.688 0-1.164 1.531-3.843 2-4.636 0.283-0.479 1.076-0.479 1.359 0zM29.298 27h-26.595l0.839 1.963h24.772l0.985-1.963zM23.674 22.428l-1.126 1.122c-0.72 0.716-1.891 0.716-2.611 0l-1.126-1.122c-0.105-0.104-0.276-0.104-0.381 0l-1.126 1.122c-0.348 0.347-0.812 0.538-1.305 0.538s-0.957-0.191-1.305-0.538l-1.126-1.122c-0.104-0.104-0.275-0.104-0.381 0l-1.126 1.122c-0.72 0.716-1.891 0.716-2.611 0l-1.126-1.122c-0.105-0.104-0.276-0.104-0.381 0l-1.126 1.122c-0.72 0.717-1.891 0.717-2.611 0l-0.249-0.249 0.428 1.68h23.048l0.428-1.503-0.071 0.072c-0.72 0.716-1.891 0.716-2.611 0l-1.126-1.122c-0.104-0.104-0.275-0.104-0.381 0zM28.29 19.055h-24.671c-0.435 0-0.743-0.433-0.743 0l0.589 2.312c0.198-0.228 0.454-0.328 0.733-0.050l1.126 1.121c0.105 0.104 0.276 0.104 0.38 0l1.126-1.122c0.72-0.717 1.891-0.718 2.611 0l1.126 1.122c0.105 0.104 0.276 0.105 0.381-0l1.125-1.121c0.72-0.717 1.891-0.717 2.611 0l1.126 1.122c0.137 0.136 0.243 0.136 0.38 0l1.126-1.122c0.72-0.717 1.891-0.718 2.611 0l1.126 1.122c0.105 0.104 0.276 0.105 0.381-0l1.125-1.121c0.72-0.717 1.891-0.717 2.611 0l1.126 1.122c0.105 0.104 0.275 0.105 0.381-0l1.126-1.121c0.207-0.206 0.45-0.165 0.681-0.014l0.641-2.248c0-0.433-0.399 0-0.834 0zM16.508 8.665h-1.015c-0.435 0-0.572 0.352-0.572 0.786l-0.023 7.527h2.204l0.023-7.527c0-0.433-0.183-0.786-0.617-0.786zM8.621 13.378h-1.015c-0.435 0-0.572 0.352-0.572 0.786l-0.023 2.814h1.965v-2.814c0-0.433 0.079-0.786-0.355-0.786zM24.394 13.378h-1.015c-0.435 0-0.377 0.352-0.377 0.786v2.814h1.987l0.023-2.814c0-0.433-0.183-0.786-0.617-0.786zM8.114 8.086c-0.605 1.144-1.102 2.26-1.102 2.623 0 0.605 0.494 1.098 1.102 1.098s1.102-0.492 1.102-1.098c0-0.362-0.497-1.479-1.102-2.623zM23.886 8.086c-0.605 1.144-1.102 2.26-1.102 2.623 0 0.605 0.494 1.098 1.102 1.098s1.102-0.492 1.102-1.098c0-0.362-0.497-1.479-1.102-2.623zM16 3.373c-0.605 1.144-1.102 2.26-1.102 2.623 0 0.605 0.494 1.098 1.102 1.098s1.102-0.492 1.102-1.098c0-0.362-0.497-1.479-1.102-2.623z"></path>
</svg>
