<?xml version="1.0" encoding="UTF-8"?>
<svg viewBox="0 0 32 32" version="1.1" xmlns="http://www.w3.org/2000/svg" xmlns:xlink="http://www.w3.org/1999/xlink">
<title>Description</title>
<path d="M19.25 24c0.414 0 0.75 0.448 0.75 1s-0.336 1-0.75 1h-16.5c-0.414 0-0.75-0.448-0.75-1s0.336-1 0.75-1h16.5zM28.833 15c0.644 0 1.167 0.448 1.167 1s-0.522 1-1.167 1h-25.667c-0.644 0-1.167-0.448-1.167-1s0.522-1 1.167-1h25.667zM28.833 6c0.644 0 1.167 0.448 1.167 1s-0.522 1-1.167 1h-25.667c-0.644 0-1.167-0.448-1.167-1s0.522-1 1.167-1h25.667z"></path>
</svg>
