<?xml version="1.0" encoding="UTF-8"?>
<svg viewBox="0 0 32 32" version="1.1" xmlns="http://www.w3.org/2000/svg" xmlns:xlink="http://www.w3.org/1999/xlink">
<title>avatar-delegated-lines</title>
<path d="M9.241 12.001c0.842-0.475 1.909-0.177 2.384 0.665l0.235 0.414 0.293 0.5 0.155 0.252 0.186 0.285c0.035 0.052 0.072 0.107 0.111 0.164l0.405 0.578c0.039 0.055 0.075 0.112 0.106 0.171 0.405 0.757 0.12 1.699-0.638 2.104l-0.41 0.22 0.046 0.12c0.095 0.217 0.268 0.491 0.524 0.813l0.135 0.165c0.401 0.478 0.767 0.81 1.087 1l0.104 0.058 0.298-0.357 0.108-0.11c0.628-0.576 1.604-0.534 2.18 0.094 0.175 0.19 0.334 0.359 0.479 0.506l0.269 0.264 0.119 0.11c0.033 0.030 0.068 0.061 0.106 0.093l0.258 0.215 0.318 0.252 0.398 0.305 0.148 0.129c0.644 0.628 0.71 1.655 0.129 2.362l-0.337 0.41c-0.941 1.145-2.509 1.559-3.892 1.026-1.654-0.637-3.269-1.909-4.856-3.801l-0.272-0.331c-1.238-1.538-2.019-2.974-2.335-4.32-0.359-1.53 0.274-3.121 1.586-3.987l0.467-0.308zM10.318 13.402c-0.068-0.12-0.22-0.163-0.341-0.095l-0.481 0.317c-0.787 0.519-1.167 1.474-0.951 2.392 0.278 1.183 1.039 2.531 2.296 4.029l0.269 0.314c1.345 1.536 2.673 2.549 3.977 3.051 0.78 0.3 1.664 0.067 2.194-0.578l0.337-0.41c0.088-0.107 0.072-0.264-0.035-0.352l-0.217-0.165-0.374-0.292-0.316-0.257-0.259-0.223c-0.135-0.121-0.283-0.263-0.444-0.427l-0.342-0.356-0.185-0.2c-0.016-0.017-0.043-0.019-0.061-0.003l-0.39 0.467c-0.341 0.41-0.905 0.557-1.403 0.369-0.654-0.248-1.301-0.774-1.967-1.568-0.644-0.767-1.012-1.434-1.084-2.049-0.059-0.51 0.199-1.005 0.652-1.247l0.579-0.31c0.027-0.014 0.037-0.047 0.022-0.074l-0.432-0.617-0.226-0.339-0.096-0.149-0.168-0.273-0.198-0.335zM20 7.25c2.28 0 4.185 1.607 4.645 3.75l0.355 0c0.552 0 1 0.448 1 1v1c0 0.552-0.448 1-1 1l-0.691 0.001c-0.755 1.624-2.401 2.749-4.309 2.749-0.414 0-0.75-0.336-0.75-0.75s0.336-0.75 0.75-0.75c1.795 0 3.25-1.455 3.25-3.25s-1.455-3.25-3.25-3.25c-1.733 0-3.149 1.356-3.245 3.066l-0.005 0.184v1.251c0 0.414-0.336 0.75-0.75 0.75l-0.015-0.001h-0.985c-0.552 0-1-0.448-1-1v-1c0-0.552 0.448-1 1-1l0.355-0c0.459-2.143 2.364-3.75 4.645-3.75zM20 9.5c1.381 0 2.5 1.119 2.5 2.5s-1.119 2.5-2.5 2.5-2.5-1.119-2.5-2.5 1.119-2.5 2.5-2.5z"></path>
</svg>
