<?xml version="1.0" encoding="UTF-8"?>
<svg viewBox="0 0 32 32" version="1.1" xmlns="http://www.w3.org/2000/svg" xmlns:xlink="http://www.w3.org/1999/xlink">
<title>time_border</title>
<path d="M16 2c7.732 0 14 6.268 14 14s-6.268 14-14 14c-7.732 0-14-6.268-14-14s6.268-14 14-14zM16 4c-6.627 0-12 5.373-12 12s5.373 12 12 12c6.627 0 12-5.373 12-12s-5.373-12-12-12zM9 17c-0.552 0-1-0.448-1-1s0.448-1 1-1h6v-8c0-0.552 0.448-1 1-1s1 0.448 1 1v9c0 0.513-0.386 0.936-0.883 0.993l-0.117 0.007h-7z"></path>
</svg>
