<?xml version="1.0" encoding="UTF-8"?>
<svg viewBox="0 0 32 32" version="1.1" xmlns="http://www.w3.org/2000/svg" xmlns:xlink="http://www.w3.org/1999/xlink">
<title>note_border</title>
<path d="M16 2c6.627 0 12 5.373 12 12v14c0 1.105-0.895 2-2 2h-20c-1.105 0-2-0.895-2-2v-24c0-1.105 0.895-2 2-2h10zM16 4h-9c-0.552 0-1 0.448-1 1v22c0 0.552 0.448 1 1 1h18c0.552 0 1-0.448 1-1v-13c0-5.523-4.477-10-10-10zM18 18c0.552 0 1 0.448 1 1s-0.448 1-1 1h-7c-0.552 0-1-0.448-1-1s0.448-1 1-1h7zM21 12c0.552 0 1 0.448 1 1s-0.448 1-1 1h-10c-0.552 0-1-0.448-1-1s0.448-1 1-1h10z"></path>
</svg>
