<?xml version="1.0" encoding="UTF-8"?>
<svg viewBox="0 0 32 32" version="1.1" xmlns="http://www.w3.org/2000/svg" xmlns:xlink="http://www.w3.org/1999/xlink">
<title>compose</title>
<path d="M14.67 5l1.394 0.003c-0.504 0.66-0.9 1.395-1.173 2.178l-2.015 0.008-1.015 0.017-0.472 0.014-0.666 0.029-0.416 0.026-0.395 0.031-0.374 0.038-0.354 0.045c-0.057 0.008-0.114 0.016-0.17 0.025l-0.325 0.056-0.306 0.064c-1.631 0.376-2.431 1.153-2.824 2.751l-0.067 0.3c-0.010 0.052-0.021 0.104-0.030 0.157l-0.055 0.328-0.047 0.348-0.040 0.368-0.034 0.388-0.028 0.409-0.022 0.431-0.018 0.454-0.023 0.977-0.011 1.073-0 2.956 0.015 1.318 0.018 0.72 0.017 0.452 0.022 0.43 0.027 0.408 0.033 0.387 0.039 0.367 0.046 0.347 0.053 0.327 0.061 0.309c0.022 0.1 0.045 0.197 0.070 0.29l0.079 0.273c0.446 1.409 1.303 2.088 2.949 2.415l0.318 0.057 0.337 0.050 0.357 0.042 0.377 0.036 0.397 0.030 0.419 0.024 0.44 0.019 0.703 0.021 1.018 0.016 2.326 0.007 1.707-0.007 1.016-0.016 0.702-0.021 0.651-0.031 0.407-0.027 0.387-0.033c0.063-0.006 0.125-0.012 0.186-0.019l0.356-0.042c0.058-0.008 0.115-0.016 0.171-0.024l0.327-0.053 0.309-0.061c0.1-0.022 0.197-0.045 0.29-0.069l0.273-0.078c0.044-0.014 0.087-0.028 0.13-0.043l0.247-0.093c1.117-0.458 1.704-1.255 2.012-2.643l0.062-0.306 0.054-0.325 0.046-0.344 0.040-0.364 0.048-0.584 0.035-0.631 0.018-0.448 0.023-0.964 0.011-1.058 0.003-1.462c0.67-0.224 1.306-0.538 1.889-0.935l0.289-0.205 0.005 1.069-0.010 1.59-0.017 0.884-0.027 0.833-0.039 0.783-0.033 0.496-0.040 0.475-0.047 0.454-0.054 0.434c-0.010 0.071-0.019 0.141-0.030 0.21l-0.065 0.405c-0.058 0.33-0.124 0.64-0.201 0.931l-0.096 0.341c-0.574 1.883-1.622 2.931-3.505 3.505l-0.341 0.096c-0.233 0.061-0.478 0.116-0.736 0.165l-0.396 0.069c-0.068 0.011-0.136 0.021-0.205 0.032l-0.424 0.058-0.444 0.050-0.464 0.043-0.485 0.037-0.506 0.030-0.528 0.025-0.833 0.027-0.884 0.017-1.59 0.010-1.297-0.006-0.612-0.009-0.874-0.021-0.554-0.020-0.532-0.025-0.51-0.031-0.488-0.037-0.467-0.044c-0.076-0.008-0.151-0.016-0.226-0.025l-0.437-0.055-0.417-0.063c-0.136-0.022-0.268-0.046-0.397-0.071l-0.378-0.080c-2.152-0.493-3.359-1.458-4.025-3.298l-0.109-0.324c-0.069-0.222-0.132-0.456-0.188-0.702l-0.080-0.378-0.071-0.397-0.063-0.417-0.055-0.437-0.048-0.457-0.041-0.478-0.034-0.499-0.028-0.521-0.032-0.823-0.021-0.874-0.013-1.249v-1.311l0.008-0.936 0.017-0.884 0.027-0.833 0.039-0.783 0.033-0.496 0.040-0.475 0.047-0.454 0.054-0.434c0.010-0.071 0.019-0.141 0.030-0.21l0.065-0.405c0.058-0.33 0.124-0.64 0.201-0.931l0.096-0.341c0.574-1.883 1.622-2.931 3.505-3.505l0.341-0.096c0.233-0.061 0.478-0.116 0.736-0.165l0.396-0.069c0.068-0.011 0.136-0.021 0.205-0.032l0.424-0.058 0.444-0.050 0.464-0.043 0.485-0.037 0.506-0.030 0.528-0.025 0.833-0.027 0.884-0.017 1.26-0.010zM26.357 3l0.204 0.010c0.749 0.059 1.445 0.383 1.963 0.907l0.137 0.148 0.618 0.713c1.049 1.217 0.937 3.014-0.223 4.098l-0.144 0.127-7.66 6.564c-0.406 0.334-0.874 0.554-1.374 0.655l-0.216 0.036-5.661 0.741 1.701-5.317c0.152-0.477 0.423-0.908 0.788-1.254l0.162-0.143 7.662-6.564c0.57-0.477 1.297-0.732 2.044-0.721v0zM26.384 5.145c-0.193-0.018-0.386 0.029-0.547 0.129l-0.093 0.067-7.662 6.564c-0.101 0.080-0.183 0.181-0.24 0.296l-0.048 0.118-0.676 2.116 2.253-0.296c0.123-0.016 0.242-0.057 0.347-0.121l0.101-0.071 7.662-6.566c0.183-0.144 0.3-0.355 0.322-0.585 0.018-0.192-0.028-0.383-0.132-0.544l-0.069-0.092-0.618-0.713c-0.152-0.176-0.364-0.283-0.599-0.301z"></path>
</svg>
