<?xml version="1.0" encoding="UTF-8"?>
<svg viewBox="0 0 32 32" version="1.1" xmlns="http://www.w3.org/2000/svg" xmlns:xlink="http://www.w3.org/1999/xlink">
<title>extention-line</title>
<path d="M16 4c-4.194 0-7.745 0.77-10.13 1.481-2.284 0.677-3.87 2.793-3.87 5.183v3.029c0 1.178 0.976 2.154 2.154 2.154h4.308c1.178 0 2.154-0.976 2.154-2.154v-2.827c0.202-0.093 0.244-0.13 0.841-0.303 0.98-0.286 2.478-0.572 4.543-0.572s3.563 0.286 4.543 0.572c0.597 0.172 0.639 0.21 0.841 0.303v2.827c0 1.178 0.976 2.154 2.154 2.154h4.308c1.178 0 2.154-0.976 2.154-2.154v-3.029c0-2.389-1.586-4.501-3.87-5.183-2.385-0.707-5.936-1.481-10.13-1.481zM16 6.154c3.929 0 7.29 0.715 9.524 1.38 1.392 0.412 2.322 1.687 2.322 3.13v3.029h-4.308v-4.173l-0.538-0.303c0 0-0.686-0.4-1.851-0.74s-2.877-0.639-5.149-0.639c-2.272 0-3.984 0.299-5.149 0.639s-1.851 0.74-1.851 0.74l-0.538 0.303v4.173h-4.308v-3.029c0-1.443 0.93-2.718 2.322-3.13 2.234-0.665 5.595-1.38 9.524-1.38zM9.538 18c-1.191 0-2.154 0.963-2.154 2.154s0.963 2.154 2.154 2.154c1.191 0 2.154-0.963 2.154-2.154s-0.963-2.154-2.154-2.154zM16 18c-1.191 0-2.154 0.963-2.154 2.154s0.963 2.154 2.154 2.154c1.191 0 2.154-0.963 2.154-2.154s-0.963-2.154-2.154-2.154zM22.462 18c-1.191 0-2.154 0.963-2.154 2.154s0.963 2.154 2.154 2.154c1.191 0 2.154-0.963 2.154-2.154s-0.963-2.154-2.154-2.154zM9.538 24.462c-1.191 0-2.154 0.963-2.154 2.154s0.963 2.154 2.154 2.154c1.191 0 2.154-0.963 2.154-2.154s-0.963-2.154-2.154-2.154zM16 24.462c-1.191 0-2.154 0.963-2.154 2.154s0.963 2.154 2.154 2.154c1.191 0 2.154-0.963 2.154-2.154s-0.963-2.154-2.154-2.154zM22.462 24.462c-1.191 0-2.154 0.963-2.154 2.154s0.963 2.154 2.154 2.154c1.191 0 2.154-0.963 2.154-2.154s-0.963-2.154-2.154-2.154z"></path>
</svg>
