<?xml version="1.0" encoding="UTF-8"?>
<svg viewBox="0 0 32 32" version="1.1" xmlns="http://www.w3.org/2000/svg" xmlns:xlink="http://www.w3.org/1999/xlink">
<title>hang-up_sp</title>
<path d="M15.653 7.245l0.525 0.010c5.934 0.179 11.101 2.67 12.856 6.238 0.948 1.933 0.908 4.197-0.584 6.699l-0.301 0.482-4.399-1.28c-1.217-0.433-2.031-1.556-2.078-2.837l-0.001-0.418c-0.044-1.143-0.835-2.135-1.96-2.422-1.232-0.32-2.513-0.538-3.711-0.575-1.305-0.039-2.726 0.13-4.132 0.427-0.39 0.087-0.745 0.273-1.024 0.534-0.388 0.388-0.611 0.825-0.672 1.314l-0.016 0.212-0.014 0.364c-0.032 1.295-0.86 2.428-2.080 2.863l-0.196 0.063-4.447 1.008-0.104-0.187c-1.271-2.281-1.498-4.518-0.642-6.456 0.265-0.583 0.607-1.127 1.017-1.618l0.254-0.288 0.283-0.296 0.157-0.152 0.363-0.322c0.6-0.509 1.251-0.953 1.941-1.322 2.484-1.349 5.649-2.066 8.965-2.042z"></path>
</svg>
