<?xml version="1.0" encoding="UTF-8"?>
<svg viewBox="0 0 32 32" version="1.1" xmlns="http://www.w3.org/2000/svg" xmlns:xlink="http://www.w3.org/1999/xlink">
<title>mark-as-read_border</title>
<path d="M20 8c0-1.657 1.343-3 3-3s3 1.343 3 3v0c0 1.657-1.343 3-3 3s-3-1.343-3-3v0zM23 3c-2.761 0-5 2.239-5 5s2.239 5 5 5v0c2.761 0 5-2.239 5-5s-2.239-5-5-5v0zM6 7c0-0.552 0.448-1 1-1v0h7c0.552 0 1-0.448 1-1s-0.448-1-1-1v0h-7c-1.657 0-3 1.343-3 3v0 13c0 1.657 1.343 3 3 3v0h2v5c0 0 0 0 0 0 0 0.552 0.448 1 1 1 0.249 0 0.476-0.091 0.651-0.241l6.719-5.759h6.63c1.657 0 3-1.343 3-3v0-3c0-0.552-0.448-1-1-1s-1 0.448-1 1v0 3c0 0.552-0.448 1-1 1v0h-7c-0 0-0 0-0 0-0.249 0-0.476 0.091-0.651 0.241l0.001-0.001-5.35 4.587v-3.827c0-0.552-0.448-1-1-1v0h-3c-0.552 0-1-0.448-1-1v0-13z"></path>
</svg>
