<?xml version="1.0" encoding="UTF-8"?>
<svg viewBox="0 0 32 32" version="1.1" xmlns="http://www.w3.org/2000/svg" xmlns:xlink="http://www.w3.org/1999/xlink">
<title>additional-numbers</title>
<path d="M13.077 2.003c0.551 0.042 0.963 0.523 0.92 1.074l-2 26c-0.042 0.551-0.523 0.963-1.074 0.92s-0.963-0.523-0.92-1.074l2-26c0.042-0.551 0.523-0.963 1.074-0.92z"></path>
<path d="M21.077 2.003c0.551 0.042 0.963 0.523 0.92 1.074l-2 26c-0.042 0.551-0.523 0.963-1.074 0.92s-0.963-0.523-0.92-1.074l2-26c0.042-0.551 0.523-0.963 1.074-0.92z"></path>
<path d="M2 20c0-0.552 0.448-1 1-1h24c0.552 0 1 0.448 1 1s-0.448 1-1 1h-24c-0.552 0-1-0.448-1-1z"></path>
<path d="M4 12c0-0.552 0.448-1 1-1h24c0.552 0 1 0.448 1 1s-0.448 1-1 1h-24c-0.552 0-1-0.448-1-1z"></path>
</svg>
