<?xml version="1.0" encoding="UTF-8"?>
<svg viewBox="0 0 32 32" version="1.1" xmlns="http://www.w3.org/2000/svg" xmlns:xlink="http://www.w3.org/1999/xlink">
<title>menu_WEM</title>
<path d="M17 4.042v3.514h-2v-3.514c-2.62 0.222-4.963 1.257-6.812 2.85l0.016-0.013 2.459 2.459-1.414 1.414-2.451-2.453c-1.543 1.828-2.55 4.152-2.757 6.703l-0.003 0.042h3.608v2h-3.6c0.228 2.581 1.246 4.89 2.806 6.721l-0.014-0.017 2.501-2.501 1.414 1.414-2.501 2.501c0.354 0.299 0.725 0.578 1.112 0.835 0.301 0.197 0.499 0.531 0.504 0.911v0.001c0 0.776-0.81 1.275-1.459 0.854-3.878-2.532-6.405-6.851-6.405-11.76 0-7.732 6.268-14 14-14 6.939 0 12.7 5.049 13.808 11.674l0.011 0.082c0.093 0.581-0.373 1.085-0.962 1.085-0.524-0.011-0.955-0.398-1.036-0.901l-0.001-0.006c-0.39-2.197-1.331-4.127-2.675-5.703l0.014 0.017-2.501 2.501-1.414-1.414 2.501-2.501c-1.826-1.556-4.151-2.576-6.705-2.792l-0.044-0.003z"></path>
<path d="M31.112 23.754l-1.261-7.176-7.176 1.261 0.346 1.971 3.813-0.672-3.907 5.576-5.096-3.571-6.186 8.824 1.637 1.149 5.040-7.187 5.094 3.571 5.056-7.213 0.67 3.813 1.968-0.346zM17.542 14.005c0.24-0.074 0.467-0.144 0.662-0.208l-3.142 3.142c-0.242-0.241-0.391-0.575-0.391-0.943s0.149-0.702 0.391-0.943l0-0c0.413-0.413 1.555-0.763 2.48-1.048z"></path>
<path d="M15.062 16.939c0.241 0.241 0.574 0.39 0.942 0.39s0.701-0.149 0.942-0.39v0c0.414-0.413 0.765-1.555 1.050-2.48 0.074-0.242 0.144-0.469 0.208-0.662l-3.142 3.142z"></path>
</svg>
