<?xml version="1.0" encoding="UTF-8"?>
<svg viewBox="0 0 32 32" version="1.1" xmlns="http://www.w3.org/2000/svg" xmlns:xlink="http://www.w3.org/1999/xlink">
<title>font-size</title>
<path d="M20.304 4.402l0.068 0.106 0.054 0.113 9 22c0.209 0.511-0.036 1.095-0.547 1.304-0.475 0.194-1.012-0.003-1.254-0.442l-0.050-0.105-2.746-6.713h-10.657l-2.745 6.713c-0.194 0.475-0.711 0.72-1.194 0.585l-0.111-0.038c-0.475-0.194-0.72-0.712-0.585-1.194l0.038-0.11 9-22c0.306-0.748 1.291-0.821 1.729-0.219zM9.81 12.411l0.067 0.109 0.053 0.115 2.089 5.318-1.106 2.654-1.914-4.872-2.266 5.766 3.808-0.001-0.833 2.001h-3.76l-1.518 3.866c-0.188 0.477-0.701 0.73-1.185 0.601l-0.111-0.036c-0.477-0.188-0.73-0.701-0.601-1.185l0.036-0.111 5.5-14c0.3-0.763 1.303-0.838 1.741-0.224zM19.5 7.64l-4.511 11.026h9.021l-4.51-11.026z"></path>
</svg>
