<?xml version="1.0" encoding="UTF-8"?>
<svg viewBox="0 0 32 32" version="1.1" xmlns="http://www.w3.org/2000/svg" xmlns:xlink="http://www.w3.org/1999/xlink">
<title>personal-meeting</title>
<path d="M21 6c1.105 0 2 0.895 2 2v16c0 1.105-0.895 2-2 2h-18c-1.105 0-2-0.895-2-2v-16c0-1.105 0.895-2 2-2h18zM20 8h-16c-0.552 0-1 0.448-1 1v14c0 0.552 0.448 1 1 1h16c0.552 0 1-0.448 1-1v-14c0-0.552-0.448-1-1-1zM30 9.618c0.513 0 0.936 0.386 0.993 0.883l0.007 0.117v10.764c0 0.155-0.036 0.308-0.106 0.447-0.229 0.459-0.764 0.664-1.234 0.493l-0.107-0.046-5-2.5c-0.301-0.151-0.504-0.441-0.545-0.77l-0.008-0.125v-5.764c0-0.337 0.169-0.648 0.445-0.832l0.108-0.063 5-2.5c0.139-0.069 0.292-0.106 0.447-0.106v0.002zM29 12.236l-3 1.5v4.528l3 1.5v-7.528z"></path>
<path d="M12.973 16.563c1.169-0.403 1.925-1.453 1.925-2.837 0-3.971-6.042-3.971-6.042 0 0 1.384 0.756 2.434 1.925 2.837-3.097 0.343-3.381 2.204-3.381 4.415h1.493c0-2.049 0-2.985 2.985-2.985s2.985 0.936 2.985 2.985h1.493c0-2.211-0.285-4.072-3.381-4.415zM10.349 13.726c0-1.131 0.823-1.533 1.528-1.533s1.528 0.402 1.528 1.533c0 0.958-0.571 1.531-1.528 1.531s-1.528-0.573-1.528-1.531z"></path>
</svg>
