<?xml version="1.0" encoding="UTF-8"?>
<svg viewBox="0 0 32 32" version="1.1" xmlns="http://www.w3.org/2000/svg" xmlns:xlink="http://www.w3.org/1999/xlink">
<title>avatar_rooms</title>
<path d="M16 0c8.837 0 16 7.163 16 16s-7.163 16-16 16c-8.837 0-16-7.163-16-16s7.163-16 16-16zM19.024 22.814h-6.047c-0.244 0-0.442 0.198-0.442 0.441v0.441c0 0.244 0.198 0.441 0.442 0.441h6.047c0.244 0 0.442-0.198 0.442-0.441v-0.441c0-0.244-0.198-0.441-0.442-0.441zM16 19.137c-0.774 0-1.401 0.625-1.401 1.397s0.627 1.397 1.401 1.397c0.774 0 1.401-0.625 1.401-1.397s-0.627-1.397-1.401-1.397zM22.858 10.167h-13.717c-0.814 0.002-1.473 0.659-1.475 1.471v7.353c0.002 0.811 0.661 1.468 1.475 1.471h0.434c0.167 0.001 0.305-0.128 0.316-0.294 0.195-3.222 2.872-5.735 6.109-5.735s5.914 2.513 6.109 5.735c0.011 0.166 0.149 0.295 0.316 0.294h0.434c0.814-0.002 1.473-0.659 1.475-1.471v-7.353c-0.002-0.811-0.661-1.468-1.475-1.471zM16 16.049c-2.313 0.001-4.248 1.749-4.476 4.044-0.008 0.095 0.024 0.189 0.089 0.259s0.156 0.11 0.252 0.109h0.8c0.173-0.001 0.319-0.131 0.338-0.303 0.189-1.507 1.474-2.638 2.997-2.638s2.808 1.131 2.997 2.638c0.020 0.172 0.165 0.302 0.338 0.303h0.8c0.095 0 0.187-0.039 0.251-0.109s0.097-0.164 0.089-0.259c-0.227-2.295-2.163-4.044-4.476-4.044z"></path>
</svg>
