<?xml version="1.0" encoding="UTF-8"?>
<svg viewBox="0 0 32 32" version="1.1" xmlns="http://www.w3.org/2000/svg" xmlns:xlink="http://www.w3.org/1999/xlink">
<title>glipwebhooks</title>
<path d="M15.001 6.548c1.214-0.466 2.639-0.090 3.455 0.944 0.667 0.846 0.879 1.797 0.528 2.84-0.098 0.291-0.224 0.573-0.361 0.917 0.293 0.518 0.588 1.039 0.883 1.561l1.774 3.136c4.471-1.388 7.843 1.095 9.053 3.751 1.461 3.209 0.462 7.011-2.407 8.991-2.945 2.032-6.669 1.685-9.279-0.925 0.665-0.559 1.334-1.119 2.048-1.718 2.577 1.674 4.831 1.594 6.505-0.387 1.426-1.69 1.396-4.211-0.073-5.866-1.695-1.91-3.965-1.968-6.708-0.134-1.139-2.024-2.297-4.033-3.399-6.072-0.372-0.687-0.782-1.086-1.62-1.231-1.399-0.243-2.302-1.448-2.356-2.797-0.053-1.335 0.731-2.54 1.957-3.010zM6.567 15.617c0.229 0.833 0.46 1.676 0.689 2.507-3.043 1.557-4.097 3.518-3.245 5.971 0.749 2.158 2.88 3.342 5.192 2.883 2.362-0.467 3.552-2.435 3.407-5.592 2.239 0 4.48-0.023 6.719 0.012 0.875 0.014 1.549-0.077 2.208-0.85 1.084-1.272 3.081-1.157 4.248 0.043 1.194 1.228 1.137 3.202-0.126 4.378-1.219 1.135-3.144 1.073-4.285-0.148-0.234-0.252-0.419-0.552-0.65-0.861v0h-5.383c-0.516 2.128-1.631 3.846-3.551 4.938-1.492 0.849-3.102 1.137-4.814 0.86-3.153-0.51-5.731-3.356-5.958-6.56-0.257-3.631 2.232-6.857 5.549-7.581zM10.974 4.096c2.421-2.392 6.116-2.78 8.967-0.943 2.739 1.763 3.993 5.199 2.924 8.14-0.806-0.219-1.618-0.44-2.51-0.683 0.336-1.635 0.087-3.104-1.013-4.361-0.726-0.831-1.659-1.266-2.719-1.426-2.126-0.322-4.213 1.047-4.832 3.139-0.703 2.374 0.361 4.312 3.268 5.774-1.248 2.103-2.444 4.14-3.664 6.161-0.314 0.52-0.469 0.942-0.218 1.602 0.692 1.823-0.284 3.596-2.117 4.077-1.729 0.454-3.413-0.685-3.756-2.54-0.304-1.643 0.967-3.253 2.773-3.509 0.152-0.021 0.306-0.024 0.56-0.043 0.885-1.487 1.792-3.012 2.748-4.618-1.728-1.722-2.757-3.736-2.529-6.231 0.161-1.763 0.853-3.288 2.117-4.537z"></path>
</svg>
