<?xml version="1.0" encoding="UTF-8"?>
<svg viewBox="0 0 32 32" version="1.1" xmlns="http://www.w3.org/2000/svg" xmlns:xlink="http://www.w3.org/1999/xlink">
<title>admin_settings_border</title>
<path d="M16 20c2.562 0 4.882 1.059 6.357 2.737 0.38 0.433 0.218 1.085-0.28 1.373-0.463 0.267-1.048 0.12-1.421-0.263-1.1-1.127-2.776-1.848-4.655-1.848s-3.557 0.721-4.657 1.849c-0.373 0.382-0.957 0.528-1.419 0.262-0.499-0.288-0.661-0.939-0.281-1.372 1.474-1.679 3.795-2.738 6.357-2.738z"></path>
<path d="M16 8c2.761 0 5 2.239 5 5s-2.239 5-5 5-5-2.239-5-5c0-2.761 2.239-5 5-5zM16 10c-1.657 0-3 1.343-3 3s1.343 3 3 3 3-1.343 3-3c-0-1.657-1.343-3-3-3z"></path>
<path d="M19.6 2.498c0.263-0.417 0.785-0.599 1.257-0.44 1.766 0.593 3.4 1.507 4.822 2.688 0.357 0.296 0.477 0.786 0.297 1.21-0.514 1.206-0.437 2.578 0.241 3.731 0.721 1.226 2 1.996 3.411 2.095 0.467 0.033 0.858 0.359 0.966 0.806 0.269 1.108 0.406 2.252 0.406 3.413s-0.137 2.304-0.405 3.414c-0.108 0.448-0.5 0.774-0.967 0.807-1.412 0.098-2.69 0.869-3.411 2.095-0.678 1.153-0.755 2.526-0.241 3.731 0.18 0.423 0.060 0.913-0.296 1.209-1.421 1.181-3.054 2.096-4.821 2.69-0.467 0.157-0.983-0.020-1.249-0.428-0.783-1.2-2.13-1.939-3.608-1.939s-2.825 0.739-3.61 1.939c-0.266 0.407-0.781 0.584-1.248 0.427-1.765-0.592-3.399-1.505-4.821-2.687-0.357-0.296-0.477-0.786-0.297-1.21 0.514-1.206 0.437-2.578-0.241-3.73-0.721-1.226-2-1.997-3.411-2.096-0.467-0.033-0.858-0.359-0.966-0.806-0.269-1.108-0.406-2.252-0.406-3.413s0.137-2.304 0.405-3.414c0.108-0.448 0.5-0.774 0.967-0.807 1.412-0.098 2.69-0.868 3.411-2.094 0.678-1.153 0.755-2.526 0.242-3.732-0.18-0.423-0.060-0.913 0.296-1.209 1.421-1.181 3.055-2.095 4.821-2.688 0.467-0.157 0.982 0.020 1.249 0.428 0.783 1.2 2.13 1.939 3.608 1.939 1.458 0 2.789-0.718 3.563-1.866l0.037-0.061zM11.163 4.177l-0.205 0.082c-0.945 0.39-1.841 0.889-2.667 1.487l-0.176 0.131 0.022 0.076c0.413 1.501 0.244 3.105-0.495 4.501l-0.136 0.244c-0.921 1.566-2.467 2.636-4.229 2.975l-0.063 0.011-0.037 0.199c-0.095 0.556-0.152 1.12-0.171 1.688l-0.007 0.427c0 0.714 0.060 1.421 0.179 2.115l0.037 0.198 0.063 0.012c1.678 0.324 3.16 1.31 4.093 2.756l0.136 0.22c0.853 1.451 1.068 3.157 0.63 4.746l-0.022 0.075 0.176 0.132c0.827 0.598 1.723 1.097 2.667 1.486l0.205 0.081 0.027-0.031c1.129-1.327 2.772-2.134 4.545-2.207l0.267-0.006c1.875 0 3.628 0.82 4.812 2.215l0.024 0.030 0.206-0.081c0.945-0.39 1.841-0.889 2.667-1.487l0.175-0.132-0.022-0.075c-0.413-1.501-0.244-3.105 0.495-4.501l0.136-0.244c0.921-1.566 2.467-2.636 4.228-2.975l0.063-0.011 0.038-0.199c0.095-0.556 0.152-1.12 0.171-1.688l0.007-0.427c0-0.714-0.060-1.421-0.179-2.115l-0.038-0.198-0.063-0.012c-1.678-0.324-3.16-1.31-4.093-2.756l-0.136-0.22c-0.853-1.451-1.068-3.156-0.63-4.746l0.022-0.076-0.175-0.131c-0.827-0.598-1.723-1.097-2.668-1.487l-0.203-0.079-0.087 0.104c-1.121 1.282-2.745 2.063-4.489 2.134l-0.262 0.005c-1.875-0-3.627-0.82-4.811-2.215l-0.026-0.032-0.002 0.002z"></path>
</svg>
