<?xml version="1.0" encoding="UTF-8"?>
<svg viewBox="0 0 32 32" version="1.1" xmlns="http://www.w3.org/2000/svg" xmlns:xlink="http://www.w3.org/1999/xlink">
<title>shield</title>
<path d="M16 2l0.507 0.223 0.622 0.263c0.18 0.075 0.378 0.15 0.58 0.224l0.608 0.22 1.12 0.414 0.343 0.12 0.393 0.132 0.148 0.044 0.139 0.044 0.373 0.102 0.233 0.053 0.503 0.106 0.414 0.080 0.471 0.088 1.327 0.238 0.66 0.115 2.556 0.426v12.466l0.003 0.050c0.008 0.514-0.086 1.197-0.344 2.022l-0.092 0.28-0.035 0.098c-0.544 1.525-1.525 3.15-3.029 4.829-0.426 0.467-0.876 0.912-1.35 1.33-0.459 0.412-0.969 0.839-1.521 1.277-0.512 0.405-1.072 0.811-1.631 1.205l-1.442 1.008-0.519 0.356-0.245 0.163-0.793 0.522-1.047-0.642-0.654-0.424-0.493-0.333c-0.731-0.499-1.411-1.038-2.088-1.595l-1.020-0.846c-0.876-0.727-1.664-1.456-2.346-2.177-1.368-1.45-2.286-2.933-2.824-4.394-0.337-0.917-0.491-1.723-0.522-2.388l-0.006-0.216v-12.625l1.21-0.166 1.186-0.17 0.839-0.127 0.748-0.119 0.474-0.079 0.602-0.107 0.318-0.063 0.214-0.045 0.198-0.050 0.353-0.101 0.201-0.062 0.444-0.145 0.549-0.188 0.802-0.287c0.422-0.154 0.797-0.317 1.197-0.483l0.955-0.381 0.712-0.287zM15.973 4.167l-0.725 0.287-0.756 0.314-0.51 0.202-0.468 0.171-0.53 0.188-0.575 0.197-0.475 0.155-0.393 0.119-0.357 0.096-0.179 0.044-0.399 0.083-0.449 0.083-0.371 0.066-0.488 0.081-0.97 0.152-0.648 0.098-0.679 0.097v10.87c0.003 0.459 0.102 1.022 0.309 1.653l0.096 0.274c0.46 1.249 1.255 2.497 2.4 3.711 0.514 0.544 1.105 1.102 1.766 1.67l1.316 1.099 0.768 0.623 0.449 0.349c0.072 0.055 0.143 0.108 0.212 0.16l0.412 0.297 0.441 0.302 0.223 0.149 0.568 0.37 0.451-0.307 1.477-1.034 0.494-0.353 0.634-0.468 0.368-0.285c0.533-0.424 1.011-0.825 1.443-1.212 0.414-0.365 0.813-0.759 1.184-1.165 1.192-1.331 2.027-2.629 2.518-3.858l0.144-0.386c0.206-0.6 0.309-1.112 0.327-1.436l0.003-0.112-0.005-0.154-0.001-10.772-0.899-0.149-0.667-0.116-1.343-0.241-0.484-0.090-0.443-0.086-0.536-0.113-0.313-0.073-0.267-0.072-0.504-0.152-0.599-0.203-0.666-0.242-1.492-0.55-0.436-0.172-0.375-0.159zM15.246 6.62l0.712-0.296 1.609 0.594 0.705 0.256 0.474 0.162 0.286 0.093 0.148 0.044 0.071 0.023 0.25 0.073 0.292 0.079 0.133 0.033 0.259 0.059 0.568 0.12 0.471 0.092 0.497 0.093 1.276 0.229 0.001 9.084 0.003 0.124-0.002 0.042c-0.007 0.095-0.032 0.245-0.082 0.44l-0.042 0.154-0.093 0.291-0.116 0.308c-0.399 0.994-1.105 2.091-2.145 3.252-0.311 0.341-0.658 0.683-1.017 1-0.309 0.277-0.639 0.558-0.997 0.85l-0.368 0.296-0.338 0.262-0.384 0.285-0.683 0.49-0.797 0.558-0.249-0.176-0.385-0.286-0.418-0.326-0.467-0.377-0.257-0.211-1.283-1.070c-0.611-0.525-1.153-1.038-1.619-1.53-0.876-0.928-1.492-1.854-1.87-2.757l-0.106-0.27-0.068-0.195c-0.126-0.38-0.191-0.701-0.209-0.942l-0.005-0.114v-9.13l0.611-0.097 0.503-0.084 0.654-0.116 0.218-0.042 0.434-0.090 0.167-0.039 0.182-0.046 0.404-0.112 0.353-0.108 0.269-0.087 0.524-0.175 0.587-0.204 0.78-0.283 0.562-0.222z"></path>
</svg>
