<?xml version="1.0" encoding="UTF-8"?>
<svg viewBox="0 0 32 32" version="1.1" xmlns="http://www.w3.org/2000/svg" xmlns:xlink="http://www.w3.org/1999/xlink">
<title>apps-product</title>
<path d="M28 10c1.105 0 2 0.895 2 2v0 15c0 1.105-0.895 2-2 2v0h-24c-1.105 0-2-0.895-2-2v0-15c0-1.105 0.895-2 2-2v0zM22.897 14.038c-0.449-0.696-1.378-0.896-2.074-0.447-1.268 0.818-2.738 1.26-4.278 1.26-1.538 0-3.009-0.442-4.279-1.26-0.696-0.449-1.625-0.248-2.073 0.448s-0.248 1.625 0.448 2.073c1.75 1.128 3.784 1.738 5.904 1.738 2.122 0 4.157-0.611 5.905-1.739 0.696-0.449 0.896-1.378 0.447-2.074z"></path>
<path d="M6.618 8c-0.155 0-0.308-0.036-0.447-0.106-0.494-0.247-0.694-0.848-0.447-1.342v0l1.829-3.658c0.247-0.494 0.848-0.694 1.342-0.447v0l8.282 4.141 3.216-3.858c0.315-0.378 0.851-0.466 1.267-0.227l0.101 0.067 4.84 3.63c0.252 0.189 0.4 0.485 0.4 0.8 0 0.552-0.448 1-1 1v0z"></path>
</svg>
