<?xml version="1.0" encoding="UTF-8"?>
<svg viewBox="0 0 32 32" version="1.1" xmlns="http://www.w3.org/2000/svg" xmlns:xlink="http://www.w3.org/1999/xlink">
<title>apps-categories</title>
<path d="M4 5h4c1.105 0 2 0.895 2 2v4c0 1.105-0.895 2-2 2h-4c-1.105 0-2-0.895-2-2v-4c0-1.105 0.895-2 2-2z"></path>
<path d="M4 19h4c1.105 0 2 0.895 2 2v4c0 1.105-0.895 2-2 2h-4c-1.105 0-2-0.895-2-2v-4c0-1.105 0.895-2 2-2z"></path>
<path d="M14 5h14c1.105 0 2 0.895 2 2v4c0 1.105-0.895 2-2 2h-14c-1.105 0-2-0.895-2-2v-4c0-1.105 0.895-2 2-2z"></path>
<path d="M14 19h14c1.105 0 2 0.895 2 2v4c0 1.105-0.895 2-2 2h-14c-1.105 0-2-0.895-2-2v-4c0-1.105 0.895-2 2-2z"></path>
</svg>
