<?xml version="1.0" encoding="UTF-8"?>
<svg viewBox="0 0 32 32" version="1.1" xmlns="http://www.w3.org/2000/svg" xmlns:xlink="http://www.w3.org/1999/xlink">
<title>recent</title>
<path d="M17 24c0.552 0 1 0.448 1 1s-0.448 1-1 1h-14c-0.552 0-1-0.448-1-1s0.448-1 1-1h14zM23 10.998l0.117 0.007c0.459 0.053 0.823 0.418 0.877 0.877l0.007 0.117v10.585l3.793-3.792 0.094-0.083c0.392-0.305 0.96-0.277 1.32 0.083s0.388 0.928 0.083 1.32l-0.083 0.094-5.5 5.5-0.085 0.076c-0.608 0.491-1.534 0.107-1.617-0.67l-0.006-0.114v-13l0.007-0.117c0.053-0.459 0.418-0.823 0.877-0.877l0.117-0.007zM17 15c0.552 0 1 0.448 1 1s-0.448 1-1 1h-14c-0.552 0-1-0.448-1-1s0.448-1 1-1h14zM29 6c0.552 0 1 0.448 1 1s-0.448 1-1 1h-26c-0.552 0-1-0.448-1-1s0.448-1 1-1h26z"></path>
</svg>
