<?xml version="1.0" encoding="UTF-8"?>
<svg viewBox="0 0 32 32" version="1.1" xmlns="http://www.w3.org/2000/svg" xmlns:xlink="http://www.w3.org/1999/xlink">
<title>smart-compose</title>
<path d="M25.806 8.448c0.121-0.291 0.183-0.604 0.183-0.919s-0.062-0.628-0.183-0.919c-0.121-0.291-0.298-0.556-0.521-0.779l-1.128-1.128c-0.223-0.223-0.488-0.4-0.779-0.521s-0.604-0.183-0.919-0.183-0.628 0.062-0.919 0.183c-0.291 0.121-0.556 0.298-0.779 0.521l-1.057 1.058c-0.028 0.021-0.054 0.045-0.080 0.070-0.008 0.008-0.015 0.015-0.022 0.023-0.017 0.018-0.033 0.037-0.047 0.056l-8.31 8.323c-0.035 0.025-0.068 0.053-0.1 0.085s-0.060 0.065-0.085 0.101l-0.483 0.484c-0.102 0.102-0.175 0.23-0.21 0.371l-1.136 4.528c-0.069 0.273 0.012 0.562 0.211 0.761s0.489 0.278 0.762 0.209l4.528-1.152c0.139-0.035 0.267-0.108 0.368-0.21l10.184-10.184c0.223-0.223 0.4-0.488 0.521-0.779zM22.154 5.661c0.097-0.040 0.201-0.061 0.306-0.061s0.209 0.021 0.306 0.061c0.097 0.040 0.186 0.1 0.26 0.174l1.128 1.128c0.074 0.074 0.133 0.163 0.174 0.26s0.061 0.201 0.061 0.306-0.021 0.209-0.061 0.306c-0.040 0.097-0.099 0.186-0.174 0.26l-0.563 0.563-2.263-2.258 0.566-0.567c0.074-0.074 0.163-0.133 0.259-0.174zM20.198 7.533l2.262 2.257-7.356 7.356-2.254-2.253 7.348-7.359zM11.807 16.112l2.074 2.074-2.771 0.705 0.697-2.779z"></path>
<path d="M6.069 23.666c0.3-0.3 0.707-0.469 1.131-0.469 0.442 0 0.8-0.358 0.8-0.8s-0.358-0.8-0.8-0.8c-0.849 0-1.663 0.337-2.263 0.937s-0.937 1.414-0.937 2.263c0 0.849 0.337 1.663 0.937 2.263s1.414 0.937 2.263 0.937h20c0.442 0 0.8-0.358 0.8-0.8s-0.358-0.8-0.8-0.8h-20c-0.424 0-0.831-0.169-1.131-0.469s-0.469-0.707-0.469-1.131c0-0.424 0.169-0.831 0.469-1.131z"></path>
</svg>
