<?xml version="1.0" encoding="UTF-8"?>
<svg viewBox="0 0 32 32" version="1.1" xmlns="http://www.w3.org/2000/svg" xmlns:xlink="http://www.w3.org/1999/xlink">
<title>group-default</title>
<path d="M13.389 8.019c2.102 0.183 3.381 1.188 3.975 2.056 1.005 1.279 1.142 2.833 1.005 3.564-0.119 0.87-0.135 2.048-0.137 2.527l-0 0.306 0.047 0.146c0.116 0.38 0.195 0.855-0.047 1.864-0.274 1.279-0.731 2.011-1.005 2.285 0 0.868-0.274 1.691-0.548 2.285-0.137 0.548-0.411 1.142-0.411 1.691l0.001 0.292c0.003 0.439 0.021 0.439 0.137 0.439 2.011 0.548 5.118 1.691 6.397 2.285 0.413 0.188 1.041 0.688 1.404 1.038-2.367 1.52-5.183 2.402-8.205 2.402-4.198 0-7.998-1.702-10.749-4.453l0.232-0.13 0.324-0.119c1.138-0.416 2.327-0.819 3.286-1.069l0.037-0.001c0.1-0.007 0.1-0.072 0.1-0.73 0-0.868-0.137-1.279-0.274-1.691l-0.037-0.144c-0.145-0.549-0.386-1.345-0.511-2.141l-0.040-0.042c-0.277-0.303-0.704-1.024-0.965-2.242-0.274-1.142-0.137-1.554 0-2.011v-0.137c0-0.274-0.137-1.554-0.274-2.696-0.137-0.731 0-2.285 1.005-3.564 0.548-0.868 1.828-1.828 3.975-2.011h1.279zM19.512 6.374c2.148 0.137 3.427 1.142 3.976 2.011 1.005 1.279 1.142 2.833 1.005 3.564-0.125 0.92-0.136 2.184-0.137 2.602l-0 0.231 0.047 0.146c0.116 0.38 0.195 0.855-0.047 1.864-0.274 1.279-0.731 2.011-1.005 2.285 0 0.868-0.274 1.691-0.548 2.285-0.137 0.548-0.411 1.142-0.411 1.691l0.001 0.292c0.003 0.439 0.021 0.439 0.136 0.439 1.418 0.387 3.633 1.303 5.184 1.905-0.845 1.021-1.821 1.929-2.902 2.699-0.335-0.326-0.91-0.747-1.094-0.857l-0.972-0.42c-1.576-0.675-3.957-1.66-5.653-2.139l-0.038-0.001c-0.129-0.006-0.265-0.070-0.099-0.776 0.046-0.32 0.183-0.548 0.32-0.868l0.054-0.149c0.222-0.598 0.494-1.247 0.494-2.091l0.044-0.046c0.317-0.341 0.745-1.067 1.007-2.376 0.32-1.188 0.137-1.645 0-2.102l0.002-0.563c0.006-0.607 0.032-1.66 0.135-2.453 0.137-0.777 0-2.422-1.051-3.793-0.503-0.731-1.554-1.645-3.107-2.056 0.685-0.64 1.828-1.188 3.381-1.325h1.279z"></path>
</svg>
