<?xml version="1.0" encoding="UTF-8"?>
<svg viewBox="0 0 32 32" version="1.1" xmlns="http://www.w3.org/2000/svg" xmlns:xlink="http://www.w3.org/1999/xlink">
<title>calls_border</title>
<path d="M16 2c7.732 0 14 6.268 14 14s-6.268 14-14 14c-7.732 0-14-6.268-14-14s6.268-14 14-14zM16 4c-6.627 0-12 5.373-12 12s5.373 12 12 12c6.627 0 12-5.373 12-12s-5.373-12-12-12zM16 6c0.513 0 0.936 0.386 0.993 0.883l0.007 0.117v8.585l3.707 3.708c0.36 0.36 0.388 0.928 0.083 1.32l-0.083 0.094c-0.36 0.36-0.928 0.388-1.32 0.083l-0.094-0.083-4-4c-0.156-0.156-0.255-0.359-0.284-0.576l-0.009-0.131v-9c0-0.552 0.448-1 1-1z"></path>
</svg>
