<?xml version="1.0" encoding="UTF-8"?>
<svg viewBox="0 0 32 32" version="1.1" xmlns="http://www.w3.org/2000/svg" xmlns:xlink="http://www.w3.org/1999/xlink">
<title>avatar-delegated-lines</title>
<path d="M21.436 9c0.892 0 1.215 0.093 1.541 0.267s0.582 0.43 0.756 0.756c0.174 0.326 0.267 0.649 0.267 1.541v4.872c0 0.892-0.093 1.215-0.267 1.541s-0.43 0.582-0.756 0.756-0.649 0.267-1.541 0.267h-4.436v2.5h3.25c0.414 0 0.75 0.336 0.75 0.75s-0.336 0.75-0.75 0.75h-8.5c-0.414 0-0.75-0.336-0.75-0.75s0.336-0.75 0.75-0.75h3.25v-2.5h-4.436c-0.892 0-1.215-0.093-1.541-0.267s-0.582-0.43-0.756-0.756c-0.174-0.326-0.267-0.649-0.267-1.541v-4.872c0-0.892 0.093-1.215 0.267-1.541s0.43-0.582 0.756-0.756c0.326-0.174 0.649-0.267 1.541-0.267zM20.25 15h-5.5c-0.414 0-0.75 0.336-0.75 0.75s0.336 0.75 0.75 0.75h5.5c0.414 0 0.75-0.336 0.75-0.75s-0.336-0.75-0.75-0.75zM17.25 11.5h-5.5c-0.414 0-0.75 0.336-0.75 0.75s0.336 0.75 0.75 0.75h5.5c0.414 0 0.75-0.336 0.75-0.75s-0.336-0.75-0.75-0.75z"></path>
</svg>
