<?xml version="1.0" encoding="UTF-8"?>
<svg viewBox="0 0 32 32" version="1.1" xmlns="http://www.w3.org/2000/svg" xmlns:xlink="http://www.w3.org/1999/xlink">
<title>transcipt_sp</title>
<path d="M19.049 13.523l1.751 0.071c-0.274 6.312-3.288 9.793-8.725 10.126v3.48h-1.751v-3.48c-5.436-0.334-8.45-3.814-8.725-10.126l1.751-0.071c0.244 5.645 2.884 8.507 7.849 8.507s7.605-2.863 7.849-8.507zM27.2 20.8v3.2h-4.8v-3.2h4.8zM11.2 4.8c3.855 0 4.901 2.289 5.167 5.090l0.042 0.548c0.006 0.092 0.011 0.185 0.015 0.278l0.019 0.562 0.008 0.567-0.003 0.832-0.013 0.551-0.025 0.544-0.040 0.535c-0.259 2.823-1.294 5.139-5.171 5.139-3.855 0-4.9-2.289-5.167-5.090l-0.042-0.548c-0.006-0.092-0.011-0.185-0.015-0.278l-0.019-0.562-0.008-0.567 0.003-0.832 0.013-0.551 0.025-0.544 0.040-0.535c0.259-2.823 1.294-5.139 5.171-5.139zM30.4 14.4v3.2h-8v-3.2h8zM30.4 8v3.2h-8v-3.2h8z"></path>
</svg>
