<?xml version="1.0" encoding="UTF-8"?>
<svg viewBox="0 0 32 32" version="1.1" xmlns="http://www.w3.org/2000/svg" xmlns:xlink="http://www.w3.org/1999/xlink">
<title>conference_border</title>
<path d="M28.758 21.902c1.435 0.828 1.927 2.663 1.098 4.098s-2.663 1.927-4.098 1.098c-1.435-0.828-1.927-2.663-1.098-4.098s2.663-1.927 4.098-1.098zM7.34 23c0.828 1.435 0.337 3.27-1.098 4.098s-3.27 0.337-4.098-1.098c-0.828-1.435-0.337-3.27 1.098-4.098s3.27-0.337 4.098 1.098zM16 10c4.418 0 8 3.582 8 8s-3.582 8-8 8c-4.418 0-8-3.582-8-8s3.582-8 8-8zM26.392 24c-0.276 0.478-0.112 1.090 0.366 1.366s1.090 0.112 1.366-0.366c0.276-0.478 0.112-1.090-0.366-1.366s-1.090-0.112-1.366 0.366zM4.242 23.634c-0.478 0.276-0.642 0.888-0.366 1.366s0.888 0.642 1.366 0.366c0.478-0.276 0.642-0.888 0.366-1.366s-0.888-0.642-1.366-0.366zM16 12c-3.314 0-6 2.686-6 6s2.686 6 6 6c3.314 0 6-2.686 6-6s-2.686-6-6-6zM16 2c1.657 0 3 1.343 3 3s-1.343 3-3 3c-1.657 0-3-1.343-3-3s1.343-3 3-3zM16 4c-0.552 0-1 0.448-1 1s0.448 1 1 1c0.552 0 1-0.448 1-1s-0.448-1-1-1z"></path>
</svg>
