<?xml version="1.0" encoding="UTF-8"?>
<svg viewBox="0 0 32 32" version="1.1" xmlns="http://www.w3.org/2000/svg" xmlns:xlink="http://www.w3.org/1999/xlink">
<title>leave</title>
<path d="M11.272 2.688c2.401-0.643 4.868 0.781 5.511 3.182 0.288 1.074 0.162 2.161-0.28 3.092 0.309 0.075 0.607 0.2 0.88 0.371l4.986-1.336c0.69-0.185 1.427 0.012 1.932 0.518l2.726 2.797c1.172 1.172 1.172 3.071 0 4.243s-3.071 1.172-4.243 0l-1.094-1.164-1.011 0.271 2.849 4.747 3.028-0.222 0.234-0.009c0.242-0.005 0.566-0.003 0.702 0.009 1.377 0.118 2.362 0.715 2.739 2.121 0.429 1.6-0.521 3.245-2.121 3.674l-6.258 0.784c-0.251 0.032-0.506-0.034-0.711-0.182l-3.374-2.443-1.227 0.731 0.963 3.591c0.429 1.6-0.521 3.245-2.121 3.674s-3.245-0.521-3.674-2.121l-1.778-6.161c-0.32-1.193 0.127-2.411 1.038-3.131 0.137-0.116 0.287-0.223 0.449-0.316l1.616-0.88-0.834-0.986-0.581 0.301c-0.928 0.473-1.652 0.799-2.172 0.979-0.936 0.323-2.188 0.514-3.099-0.059-0.291-0.142-0.564-0.334-0.806-0.576l-2.958-3.356c-1.172-1.172-1.172-3.071 0-4.243s3.071-1.172 4.243 0l1.867 1.689 2.037-1.078c-1.254-0.515-2.261-1.589-2.639-2.999-0.643-2.401 0.781-4.868 3.182-5.511zM3.996 12.002c-0.363 0.363-0.389 0.934-0.078 1.327l3.036 3.443c0.054 0.054 0.112 0.1 0.173 0.139l0.284 0.158c0.244 0.153 0.537 0.194 0.809 0.116l-0.299 0.111 0.525-0.207c0.793-0.31 1.999-0.904 3.62-1.781 0.444-0.257 1.003-0.134 1.302 0.267l0.064 0.099 1.825 2.704c0.256 0.444 0.133 1.003-0.269 1.302l-0.112 0.072-2.458 1.387c-0.055 0.032-0.107 0.068-0.208 0.153-0.28 0.221-0.421 0.575-0.37 0.927l0.024 0.117 1.778 6.161c0.143 0.533 0.691 0.85 1.225 0.707 0.495-0.133 0.804-0.615 0.731-1.11l-0.024-0.114-1.159-4.322c-0.118-0.442 0.078-0.907 0.477-1.131l2.565-1.338c0.34-0.178 0.752-0.145 1.060 0.085l3.151 2.35c0.213 0.159 0.48 0.226 0.743 0.188l5.182-0.762c0.533-0.143 0.85-0.691 0.707-1.225-0.133-0.495-0.605-0.776-1.111-0.731l-1.902 0.146c-0.559 0.041-1.236 0.091-2.031 0.149-0.472 0.061-0.92-0.082-1.14-0.49l-5.46-9.523c-0.256-0.444-0.802-0.617-1.262-0.418l-0.104 0.053-6.927 3.766-2.952-2.774c-0.391-0.391-1.024-0.391-1.414 0zM18.742 11.038l0.969 1.811 2.577-0.689 1.911 1.98c0.391 0.391 1.024 0.391 1.414 0 0.363-0.363 0.389-0.934 0.078-1.327l-0.078-0.087-2.726-2.797-4.145 1.109zM11.79 4.619c-1.334 0.357-2.125 1.728-1.768 3.062s1.728 2.125 3.062 1.768c1.334-0.357 2.125-1.728 1.768-3.062s-1.728-2.125-3.062-1.768z"></path>
</svg>
