<?xml version="1.0" encoding="UTF-8"?>
<svg viewBox="0 0 32 32" version="1.1" xmlns="http://www.w3.org/2000/svg" xmlns:xlink="http://www.w3.org/1999/xlink">
<title>trello</title>
<path d="M27.018 17.16c0 0.169-0.054 0.308-0.163 0.417s-0.247 0.163-0.417 0.163h-8.699c-0.17 0-0.308-0.054-0.417-0.163s-0.163-0.248-0.163-0.417v-11.598c0-0.17 0.054-0.308 0.163-0.417s0.248-0.163 0.417-0.163h8.699c0.17 0 0.308 0.054 0.417 0.163s0.163 0.247 0.163 0.417v11.598zM14.84 24.119c0 0.169-0.054 0.308-0.163 0.417s-0.248 0.163-0.417 0.163h-8.699c-0.169 0-0.308-0.054-0.417-0.163s-0.163-0.248-0.163-0.417v-18.557c0-0.17 0.054-0.308 0.163-0.417s0.248-0.163 0.417-0.163h8.699c0.169 0 0.308 0.054 0.417 0.163s0.163 0.247 0.163 0.417v18.557zM29.573 2.427c-0.229-0.23-0.501-0.344-0.816-0.344h-25.516c-0.314 0-0.586 0.114-0.815 0.344s-0.344 0.502-0.344 0.816v25.516c0 0.314 0.115 0.586 0.344 0.815s0.502 0.344 0.815 0.344h25.516c0.315 0 0.587-0.114 0.816-0.344s0.344-0.502 0.344-0.815v-25.516c0-0.315-0.116-0.586-0.344-0.816z"></path>
</svg>
