<?xml version="1.0" encoding="UTF-8"?>
<svg viewBox="0 0 32 32" version="1.1" xmlns="http://www.w3.org/2000/svg" xmlns:xlink="http://www.w3.org/1999/xlink">
<title>shared-directory</title>
<path d="M30 5v22c0 1.105-0.895 2-2 2h-20.014v-26h20.014c1.105 0 2 0.895 2 2zM5.971 29v-26h-1.971c-1.105 0-2 0.895-2 2v22c0 1.105 0.895 2 2 2h1.971zM17.107 17.355c-0.615-0.108-1.147-0.161-1.596-0.161s-0.981 0.054-1.596 0.161c-0.615 0.117-1.204 0.287-1.765 0.513s-1.038 0.503-1.428 0.835c-0.39 0.342-0.586 0.737-0.586 1.186v1.486h10.75v-1.486c0-0.449-0.196-0.844-0.586-1.186-0.39-0.332-0.866-0.611-1.428-0.835s-1.15-0.396-1.765-0.513zM24.734 18.025c-0.541-0.090-1.008-0.134-1.402-0.134s-0.862 0.044-1.401 0.134c-0.34 0.061-0.67 0.14-0.99 0.238 0.246 0.216 0.459 0.485 0.612 0.753 0.157 0.28 0.206 0.746 0.206 1.12v1.238h6.294v-1.238c0-0.374-0.171-0.703-0.514-0.988-0.343-0.277-0.761-0.509-1.254-0.696s-1.010-0.329-1.55-0.427zM24.999 13.069c-0.462-0.435-1.018-0.653-1.668-0.653s-1.206 0.217-1.668 0.653-0.692 0.962-0.692 1.581c0 0.619 0.231 1.147 0.692 1.587s1.018 0.659 1.668 0.659c0.65 0 1.206-0.22 1.668-0.659s0.692-0.968 0.692-1.587-0.231-1.145-0.692-1.581zM17.409 11.408c-0.526-0.523-1.158-0.784-1.898-0.784s-1.373 0.261-1.899 0.784-0.788 1.155-0.788 1.897c0 0.742 0.262 1.376 0.788 1.904s1.159 0.791 1.899 0.791c0.74 0 1.373-0.263 1.898-0.791s0.789-1.161 0.789-1.904c0-0.742-0.263-1.374-0.789-1.897z"></path>
</svg>
