<?xml version="1.0" encoding="UTF-8"?>
<svg viewBox="0 0 32 32" version="1.1" xmlns="http://www.w3.org/2000/svg" xmlns:xlink="http://www.w3.org/1999/xlink">
<title>switchboard_border</title>
<path d="M17.954 3.672l-0.057 0.003-0.862-0.003-0.262 0.003-0.454 0.016c-0.068 0.004-0.133 0.008-0.195 0.014l-0.876 0.097c-0.901 0.102-1.466 0.207-2.054 0.422-1.026 0.376-1.754 0.993-2.677 2.081l-0.693 0.827-0.221 0.251-0.103 0.112c-0.42 0.448-0.795 0.931-1.265 1.602l-0.729 1.053-0.361 0.5c-1.139 1.525-1.723 2.556-2.008 3.851-0.414 1.882 0.133 2.976 1.956 3.647 0.408 0.15 0.814 0.231 1.351 0.288l1.274 0.103 1.866 0.091 0.345 0.024-0.178 0.308c-0.109 0.182-0.226 0.369-0.354 0.564l-0.371 0.549-1.474 2.098-0.646 0.96-0.413 0.628-0.367 0.573-0.337 0.544c-0.055 0.090-0.109 0.179-0.162 0.269-0.567 0.949-0.239 2.419 0.807 2.819 0.879 0.336 1.371 0.455 1.999 0.322 1.55-0.327 2.592-0.62 3.6-1.068 1.469-0.652 2.955-1.437 4.672-2.444l0.872-0.523c1.095-0.674 1.939-1.27 2.716-1.94l0.667-0.581 0.585-0.524c1.187-1.084 1.875-1.856 2.548-2.892 0.5-0.769 0.773-1.37 0.878-2.098 0.162-1.122-0.409-2.183-1.457-2.603-0.47-0.189-0.972-0.31-1.46-0.346l-0.988-0.058-1.608-0.070-0.521-0.030-0.036 0.171c0.063-0.367 0.194-0.714 0.361-0.95l0.521-0.722 1.578-2.1 0.539-0.738 0.462-0.666c0.53-0.784 0.794-1.549 0.642-2.298-0.197-0.972-1.017-1.573-2.271-1.791l-0.358-0.061-0.642-0.101-0.559-0.075c-0.175-0.021-0.339-0.039-0.497-0.053l-0.454-0.033c-0.147-0.008-0.29-0.014-0.432-0.017l-1.837-0.006zM19.407 5.675l0.162 0.001c0.123 0.001 0.245 0.003 0.369 0.008l0.383 0.022 0.417 0.038c0.073 0.008 0.149 0.017 0.228 0.026l0.506 0.069 0.59 0.093 0.332 0.057c0.116 0.020 0.212 0.040 0.292 0.060l0.192 0.056 0.112 0.049c0.039 0.022 0.054 0.040 0.056 0.052 0.019 0.092-0.057 0.329-0.249 0.642l-0.306 0.455-0.597 0.832-1.813 2.418-0.338 0.468c-0.037 0.052-0.074 0.104-0.112 0.157-0.351 0.498-0.588 1.123-0.698 1.766-0.201 1.176 0.584 2.072 1.761 2.154l0.849 0.048 1.774 0.078 0.594 0.038c0.276 0.020 0.577 0.093 0.862 0.207 0.168 0.067 0.255 0.229 0.222 0.461-0.055 0.385-0.22 0.746-0.575 1.293-0.394 0.606-0.806 1.119-1.385 1.706l-0.412 0.405c-0.073 0.070-0.149 0.141-0.228 0.214l-0.505 0.459-0.579 0.51c-0.103 0.090-0.21 0.182-0.32 0.277-0.861 0.743-1.848 1.404-3.293 2.252-1.657 0.972-3.079 1.723-4.471 2.341-0.85 0.377-1.778 0.638-3.202 0.939l-0.047 0.004c-0.073 0-0.188-0.022-0.355-0.073l-0.274-0.091 0.314-0.514 0.337-0.534 0.582-0.89 0.649-0.965 1.536-2.189 0.090-0.132c0.383-0.564 0.697-1.073 0.967-1.581 0.65-1.223-0.039-2.55-1.429-2.681l-0.497-0.040-0.829-0.044-0.908-0.041-1.262-0.091c-0.519-0.045-0.843-0.1-1.112-0.199l-0.151-0.057-0.248-0.104c-0.392-0.184-0.451-0.357-0.359-0.866l0.064-0.313c0.208-0.943 0.677-1.771 1.667-3.097l0.382-0.529 0.737-1.065c0.348-0.496 0.629-0.867 0.912-1.189l0.415-0.457 0.428-0.503 0.415-0.497c0.713-0.84 1.212-1.263 1.835-1.491 0.249-0.091 0.514-0.157 0.862-0.215l0.461-0.066 1.105-0.125 0.321-0.017 0.517-0.008 0.785 0.003 0.712-0 0.664 0.007 0.097-0.007z"></path>
</svg>
