<?xml version="1.0" encoding="UTF-8"?>
<svg viewBox="0 0 32 32" version="1.1" xmlns="http://www.w3.org/2000/svg" xmlns:xlink="http://www.w3.org/1999/xlink">
<title>home_border</title>
<path d="M29.201 15.933l-0.001 0.050 0.001 0.050c0.002 0.087 0.003 0.201 0.003 0.328 0 2.401-0.588 4.659-1.626 6.642l-0.002-0.001c-1.078 1.923-2.613 3.459-4.456 4.502l-0.053 0.027-0.019 0.010c-1.919 1.041-4.221 1.661-6.683 1.661-0.114 0-0.223-0.001-0.327-0.003l-0.049-0.001-0.049 0.001c-0.081 0.002-0.186 0.003-0.302 0.003-2.41 0-4.675-0.596-6.662-1.647l0.001-0.002c-1.92-1.073-3.455-2.602-4.501-4.439l-0.025-0.048-0.008-0.016c-1.031-1.918-1.647-4.216-1.647-6.67 0-0.113 0.002-0.229 0.004-0.352l0.001-0.036-0.001-0.036c-0.001-0.066-0.002-0.137-0.002-0.206 0-2.47 0.637-4.785 1.754-6.796l0.002 0.001c1.041-1.904 2.539-3.429 4.342-4.47l0.043-0.023 0.013-0.007c1.919-1.042 4.221-1.663 6.681-1.663 0.116 0 0.226 0.001 0.332 0.003l0.033 0.001 0.033-0c2.446-0.026 4.858 0.579 7.006 1.755l0.001 0.001c1.91 1.044 3.437 2.545 4.477 4.352l0.022 0.041 0.006 0.012c1.039 1.899 1.66 4.179 1.66 6.616 0 0.118-0.002 0.238-0.004 0.36zM29.323 23.98l0.026-0.050c1.185-2.262 1.855-4.838 1.855-7.57 0-0.134-0.001-0.268-0.004-0.381 0.003-0.135 0.005-0.271 0.005-0.407 0-2.775-0.706-5.384-1.905-7.576l-0.035-0.065c-1.227-2.142-3.029-3.912-5.266-5.135-2.447-1.34-5.198-2.030-7.987-2-0.126-0.003-0.252-0.004-0.378-0.004-2.794 0-5.424 0.705-7.635 1.905l-0.065 0.034c-2.109 1.208-3.858 2.973-5.078 5.161l-0.014 0.025-0.044 0.079 0.042-0.080-0.044 0.079-0.008 0.015c-1.269 2.294-1.991 4.933-1.991 7.74 0 0.082 0.001 0.164 0.002 0.235-0.003 0.131-0.005 0.263-0.005 0.395 0 2.786 0.698 5.409 1.885 7.617l0.035 0.068c1.209 2.138 2.977 3.917 5.174 5.17l0.028 0.016c0.028 0.016 0.056 0.032 0.084 0.047l-0.086-0.043 0.085 0.046 0.040 0.021c2.267 1.199 4.852 1.879 7.597 1.879 0.125 0 0.249-0.001 0.355-0.004 0.124 0.003 0.248 0.004 0.373 0.004 2.795 0 5.425-0.704 7.636-1.903l0.068-0.035c2.144-1.204 3.927-2.972 5.185-5.167l0.019-0.033c0.016-0.028 0.032-0.057 0.048-0.085l-0.043 0.088 0.046-0.087zM14.679 23.040c0.168 0.576 0.68 0.954 1.302 0.96h0.038c0.622-0.006 1.134-0.384 1.302-0.96l0.578-2.010c0.439-1.52 1.595-2.69 3.11-3.12l2.004-0.58c0.578-0.17 0.987-0.71 0.987-1.32s-0.409-1.15-0.997-1.32l-2.004-0.57c-1.515-0.44-2.682-1.6-3.11-3.12l-0.578-2.010c-0.169-0.578-0.705-0.988-1.311-0.99-0.606 0.002-1.142 0.412-1.311 0.99l-0.578 2.010c-0.429 1.52-1.595 2.68-3.11 3.12l-2.004 0.57c-0.588 0.17-0.997 0.71-0.997 1.32s0.409 1.15 0.987 1.32l2.004 0.58c1.515 0.43 2.672 1.6 3.11 3.12l0.578 2.010zM16.005 20.382l-0.005-0.018-0.005 0.018c-0.636-2.090-2.243-3.729-4.354-4.366 2.088-0.635 3.722-2.244 4.36-4.351 0.638 2.107 2.271 3.716 4.36 4.351-2.111 0.637-3.718 2.276-4.355 4.366z"></path>
</svg>
