<?xml version="1.0" encoding="UTF-8"?>
<svg viewBox="0 0 32 32" version="1.1" xmlns="http://www.w3.org/2000/svg" xmlns:xlink="http://www.w3.org/1999/xlink">
<title>add-reactions</title>
<path d="M19.921 18.612c0.44 0.23 0.589 0.737 0.334 1.133-1.145 1.776-3.253 2.893-5.576 2.893-2.306 0-4.4-1.1-5.551-2.855-0.258-0.394-0.113-0.902 0.325-1.135s1.002-0.102 1.261 0.292c0.823 1.255 2.318 2.040 3.966 2.040 1.66 0 3.165-0.798 3.984-2.068 0.255-0.396 0.818-0.531 1.258-0.301v-0z"></path>
<path d="M13.867 3.049c7.152-0.626 13.458 4.665 14.084 11.818 0.012 0.142 0.022 0.283 0.030 0.424-0.647-0.167-1.325-0.248-2.021-0.233l-0.002-0.016c-0.529-6.052-5.865-10.529-11.917-9.999s-10.529 5.865-9.999 11.917c0.529 6.052 5.865 10.529 11.917 9.999 1.25-0.109 2.433-0.424 3.518-0.907 0.319 0.608 0.719 1.164 1.185 1.656-1.382 0.669-2.907 1.102-4.528 1.244-7.152 0.626-13.458-4.665-14.084-11.818s4.665-13.458 11.818-14.084z"></path>
<path d="M26.379 18.517c0.552 0 1 0.448 1 1l-0.001 2.62 2.621 0.001c0.552 0 1 0.448 1 1v0.069c0 0.552-0.448 1-1 1l-2.621-0.001 0.001 2.621c0 0.552-0.448 1-1 1h-0.069c-0.552 0-1-0.448-1-1l-0.001-2.621-2.62 0.001c-0.552 0-1-0.448-1-1v-0.069c0-0.552 0.448-1 1-1l2.62-0.001 0.001-2.62c0-0.552 0.448-1 1-1h0.069z"></path>
<path d="M12.5 12.25c0 0.966-0.784 1.75-1.75 1.75s-1.75-0.784-1.75-1.75c0-0.966 0.784-1.75 1.75-1.75s1.75 0.784 1.75 1.75z"></path>
<path d="M20.5 12.25c0 0.966-0.784 1.75-1.75 1.75s-1.75-0.784-1.75-1.75c0-0.966 0.784-1.75 1.75-1.75s1.75 0.784 1.75 1.75z"></path>
</svg>
