<?xml version="1.0" encoding="UTF-8"?>
<svg viewBox="0 0 32 32" version="1.1" xmlns="http://www.w3.org/2000/svg" xmlns:xlink="http://www.w3.org/1999/xlink">
<title>crashlytics</title>
<path d="M17.25 2.040l1.662 0.003c1.116 0.003 1.836 0.712 1.839 1.822 0.005 2.162 0.002 4.325 0 6.488 0 0.113-0.013 0.228-0.022 0.388-2.037-1.179-4.115-1.354-6.228-0.376-1.579 0.731-2.674 1.951-3.256 3.595-1.16 3.278 0.614 6.879 3.932 8.003 3.443 1.165 7.338-0.75 8.303-4.685 0.099 0.083 3.365 3.29 4.901 4.813 0.834 0.827 0.833 1.817 0.002 2.644-0.757 0.753-1.517 1.504-2.278 2.254-0.847 0.832-1.85 0.836-2.69 0.010-0.762-0.748-2.675-2.619-2.675-2.619v0l0 0.046c0 0.015 0 0.033 0 0.055l0.001 0.167c0.002 0.438 0.007 1.342 0.008 2.177l-0 1.059c-0 0.101-0.001 0.195-0.001 0.279-0.007 1.064-0.729 1.787-1.789 1.793-1.134 0.005-2.268 0.005-3.402 0-1.082-0.005-1.81-0.721-1.823-1.81-0.003-0.243-0.005-0.574-0.006-0.938l-0.001-0.374c-0-0.064-0-0.128-0-0.192l-0-0.386c0-0.064 0-0.128 0-0.191l0.001-0.548c0-0.058 0-0.114 0-0.169l0.001-0.31c0-0.048 0-0.094 0-0.137l0.001-0.233c0-0.034 0-0.065 0-0.092l0.001-0.175c0 0-1.845 1.852-2.598 2.591-0.846 0.829-1.845 0.829-2.689 0.001-0.753-0.739-1.504-1.48-2.252-2.223-0.872-0.865-0.869-1.832-0.014-2.7 0.832-0.843 2.555-2.609 2.555-2.609s-0.015 0-0.043 0l-0.707 0.001c-0.050 0-0.101 0-0.154 0l-2.199 0c-0.059-0-0.116-0-0.173-0l-0.321-0.001c-0.101-0-0.194-0.001-0.279-0.001-1.181-0.006-1.861-0.691-1.865-1.871-0.003-1.068-0.004-2.137 0-3.205 0.005-1.151 0.69-1.839 1.849-1.846 0.125-0.001 0.27-0.001 0.429-0.002l0.336-0.001c0.059-0 0.119-0 0.179-0l2.196 0c0.050 0 0.099 0 0.146 0l0.521 0.001c0.021 0 0.039 0 0.053 0l0.044 0-0.552-0.552c-0.254-0.254-0.57-0.569-0.888-0.888l-0.407-0.406c-0.044-0.044-0.088-0.088-0.132-0.131l-0.676-0.675c-0.796-0.793-0.803-1.797-0.014-2.585 0.792-0.792 1.588-1.581 2.391-2.364 0.756-0.736 1.8-0.743 2.544 0.005 0.864 0.867 2.713 2.605 2.713 2.605v0l0.001-1.427c0-0.060 0-0.121 0-0.182l0.001-0.56c0.001-0.562 0.003-1.111 0.005-1.476 0.008-1.139 0.726-1.857 1.854-1.86 1.107-0.004 2.215-0.004 3.323 0zM17.268 13.433c1.426 0.006 2.569 1.141 2.57 2.553 0.001 1.419-1.132 2.546-2.564 2.551-1.455 0.005-2.595-1.124-2.589-2.564 0.006-1.409 1.161-2.545 2.583-2.54z"></path>
</svg>
