<?xml version="1.0" encoding="UTF-8"?>
<svg viewBox="0 0 32 32" version="1.1" xmlns="http://www.w3.org/2000/svg" xmlns:xlink="http://www.w3.org/1999/xlink">
<title>pin-window</title>
<path d="M17 5c0.552 0 1 0.448 1 1s-0.448 1-1 1h-11c-0.552 0-1 0.448-1 1v18c0 0.552 0.448 1 1 1h18c0.552 0 1-0.448 1-1v-11c0-0.552 0.448-1 1-1s1 0.448 1 1v12c0 1.105-0.895 2-2 2h-20c-1.105 0-2-0.895-2-2v-20c0-1.105 0.895-2 2-2h12zM26.5 1c2.485 0 4.5 2.015 4.5 4.5s-2.015 4.5-4.5 4.5c-0.881 0-1.704-0.253-2.398-0.691l-5.987 5.986c-0.389 0.389-1.021 0.389-1.41 0-0.359-0.359-0.387-0.925-0.083-1.316l0.083-0.094 5.986-5.987c-0.438-0.694-0.691-1.516-0.691-2.398 0-2.485 2.015-4.5 4.5-4.5zM26.5 3c-1.381 0-2.5 1.119-2.5 2.5s1.119 2.5 2.5 2.5c1.381 0 2.5-1.119 2.5-2.5s-1.119-2.5-2.5-2.5z"></path>
</svg>
