<?xml version="1.0" encoding="UTF-8"?>
<svg viewBox="0 0 32 32" version="1.1" xmlns="http://www.w3.org/2000/svg" xmlns:xlink="http://www.w3.org/1999/xlink">
<title>translate</title>
<path d="M16.106 19.332c0.28 0.277 0.372 0.692 0.234 1.060l-0.099 0.267c-0.254 0.682-1.129 0.873-1.644 0.358l-2.454-2.454-5.007 5.007c-0.391 0.39-1.024 0.39-1.414 0l-0.204-0.204c-0.392-0.392-0.39-1.029 0.005-1.419l5.1-5.030c-1.070-1.19-1.98-2.476-2.719-3.829-0.348-0.636 0.133-1.382 0.857-1.382h0.131c0.375 0 0.717 0.211 0.899 0.539 0.647 1.163 1.431 2.269 2.352 3.29 1.646-1.829 2.857-3.92 3.623-6.114h-11.765c-0.552 0-1-0.448-1-1v-0.286c0-0.552 0.448-1 1-1h7v-1.286c0-0.552 0.448-1 1-1h0.286c0.552 0 1 0.448 1 1v1.286h7c0.552 0 1 0.448 1 1v0.286c0 0.552-0.448 1-1 1h-2.349c-0.834 2.697-2.251 5.246-4.24 7.463-0.019 0.019-0.019 0.050 0 0.068l2.408 2.38z"></path>
<path d="M27.559 27c0.698 0 1.181-0.697 0.937-1.35l-4.485-12c-0.146-0.391-0.52-0.65-0.937-0.65h-1.137c-0.417 0-0.79 0.259-0.936 0.649l-4.493 12c-0.245 0.654 0.238 1.351 0.936 1.351h0.492c0.209 0 0.384-0.061 0.525-0.184s0.236-0.258 0.286-0.407l0.995-2.856h5.519l0.995 2.856c0.068 0.168 0.169 0.31 0.304 0.426 0.135 0.11 0.31 0.165 0.525 0.165h0.475zM23.002 17.057l1.622 4.657h-4.238l1.612-4.638c0.080-0.213 0.163-0.462 0.249-0.745 0.086-0.291 0.169-0.6 0.249-0.93 0.086 0.329 0.172 0.636 0.258 0.92s0.169 0.529 0.249 0.736z"></path>
</svg>
