<?xml version="1.0" encoding="UTF-8"?>
<svg viewBox="0 0 32 32" version="1.1" xmlns="http://www.w3.org/2000/svg" xmlns:xlink="http://www.w3.org/1999/xlink">
<title>pdf_border</title>
<path d="M6.419 17.2c0.762 0 1.422 0.094 1.986 0.285 0.562 0.19 1.027 0.461 1.397 0.811 0.37 0.346 0.643 0.763 0.819 1.258 0.182 0.493 0.272 1.040 0.272 1.64s-0.096 1.152-0.288 1.658c-0.194 0.499-0.478 0.93-0.853 1.293-0.374 0.362-0.843 0.645-1.405 0.846-0.557 0.197-1.2 0.294-1.928 0.294h-1.835v3.766c0 0.523-0.395 0.949-0.882 0.949s-0.88-0.426-0.88-0.949v-11.242c0-0.336 0.253-0.61 0.565-0.61h3.032zM15.923 17.2c0.883 0 1.685 0.155 2.406 0.464 0.723 0.309 1.342 0.746 1.861 1.31 0.518 0.558 0.918 1.232 1.2 2.022 0.286 0.786 0.43 1.653 0.43 2.603 0 0.957-0.144 1.827-0.43 2.611-0.282 0.786-0.682 1.459-1.2 2.024-0.518 0.558-1.138 0.992-1.861 1.301-0.722 0.309-1.523 0.464-2.406 0.464h-3.776c-0.381 0-0.69-0.333-0.69-0.742v-11.315c0-0.41 0.309-0.742 0.69-0.742h3.776zM29.307 17.2c0.395 0 0.715 0.346 0.715 0.771s-0.32 0.771-0.715 0.771h-4.875v4.286h4.048c0.395 0 0.715 0.346 0.715 0.771s-0.32 0.771-0.715 0.771h-4.048v4.475c0 0.526-0.397 0.954-0.885 0.954-0.49 0-0.885-0.427-0.885-0.954v-11.469c0-0.208 0.157-0.378 0.35-0.378h6.294zM15.923 18.733h-2.696v9.734h2.696c0.624 0 1.186-0.11 1.688-0.33 0.507-0.221 0.938-0.538 1.29-0.954 0.358-0.422 0.634-0.934 0.827-1.534s0.29-1.283 0.29-2.050c0-0.76-0.096-1.442-0.29-2.042-0.194-0.606-0.469-1.117-0.827-1.533-0.352-0.422-0.782-0.742-1.29-0.963-0.502-0.219-1.064-0.33-1.688-0.33zM6.419 18.688h-1.835v5.099h1.835c0.446 0 0.838-0.062 1.174-0.187 0.342-0.125 0.626-0.301 0.853-0.526 0.23-0.232 0.405-0.504 0.52-0.819 0.117-0.322 0.174-0.675 0.174-1.061 0-0.779-0.227-1.39-0.678-1.837-0.446-0.445-1.128-0.669-2.043-0.669zM19.248 2c0.485 0 0.954 0.176 1.317 0.494l6.752 5.907c0.434 0.381 0.683 0.93 0.683 1.506v5.093c0 0.552-0.448 1-1 1s-1-0.448-1-1v-4.638c0-0.288-0.125-0.563-0.341-0.752l-6.128-5.362c-0.182-0.16-0.416-0.248-0.659-0.248h-11.872c-0.552 0-1 0.448-1 1v10c0 0.552-0.448 1-1 1s-1-0.448-1-1v-11c0-1.104 0.896-2 2-2h13.248z"></path>
</svg>
