<?xml version="1.0" encoding="UTF-8"?>
<svg viewBox="0 0 32 32" version="1.1" xmlns="http://www.w3.org/2000/svg" xmlns:xlink="http://www.w3.org/1999/xlink">
<title>audio-low</title>
<path fill="#000" d="M18.479 4.534c0.333 0.342 0.521 0.805 0.521 1.288v20.356c0 1.006-0.796 1.822-1.778 1.822-0.471 0-0.924-0.192-1.257-0.534l-6.854-6h-5.333c-0.982 0-1.778-0.816-1.778-1.822v-7.288c0-1.006 0.796-1.822 1.778-1.822h5.333l6.854-6c0.694-0.712 1.82-0.712 2.514 0l0 0z"></path>
<path fill="#000" opacity="0.32" d="M27.398 7.869c1.683 2.355 2.602 5.175 2.602 8.131s-0.919 5.776-2.602 8.131c-0.321 0.449-0.946 0.553-1.395 0.232s-0.553-0.946-0.232-1.395c1.442-2.018 2.229-4.433 2.229-6.968s-0.787-4.95-2.229-6.968c-0.321-0.449-0.217-1.074 0.232-1.395s1.074-0.217 1.395 0.232v0zM23.844 11.584c0.754 1.337 1.156 2.848 1.156 4.416 0 1.578-0.407 3.098-1.171 4.441-0.273 0.48-0.883 0.648-1.363 0.375s-0.648-0.883-0.375-1.363c0.593-1.044 0.909-2.224 0.909-3.453 0-1.221-0.312-2.394-0.898-3.433-0.271-0.481-0.101-1.091 0.38-1.362s1.091-0.101 1.362 0.38v0z"></path>
</svg>
