<?xml version="1.0" encoding="UTF-8"?>
<svg viewBox="0 0 32 32" version="1.1" xmlns="http://www.w3.org/2000/svg" xmlns:xlink="http://www.w3.org/1999/xlink">
<title>inbox</title>
<path d="M30 25c0 1.105-0.895 2-2 2h-24c-1.105 0-2-0.895-2-2v-10.667c0-0.865 0.281-1.708 0.8-2.4l4.6-6.133c0.378-0.504 0.971-0.8 1.6-0.8h14c0.63 0 1.222 0.296 1.6 0.8l4.6 6.133c0.519 0.692 0.8 1.535 0.8 2.4v10.667zM11.1 15h-7.1v9c0 0.552 0.448 1 1 1h22c0.552 0 1-0.448 1-1v-9h-7.1c-0.463 2.282-2.481 4-4.9 4-2.343 0-4.31-1.612-4.852-3.788l-0.048-0.212zM22.5 7h-13c-0.315 0-0.611 0.148-0.8 0.4l-3.96 5.28c-0.066 0.088-0.048 0.214 0.040 0.28 0.035 0.026 0.077 0.040 0.12 0.040h7.1c0.552 0 1 0.448 1 1 0 1.657 1.343 3 3 3 1.598 0 2.904-1.249 2.995-2.824l0.012-0.293c0.058-0.497 0.48-0.883 0.993-0.883h7.1c0.11 0 0.2-0.090 0.2-0.2 0-0.043-0.014-0.085-0.040-0.12l-3.96-5.28c-0.189-0.252-0.485-0.4-0.8-0.4z"></path>
</svg>
