<?xml version="1.0" encoding="UTF-8"?>
<svg viewBox="0 0 32 32" version="1.1" xmlns="http://www.w3.org/2000/svg" xmlns:xlink="http://www.w3.org/1999/xlink">
<title>purchase-cart</title>
<path d="M10 28c-0.552 0-1-0.448-1-1s0.448-1 1-1c0.552 0 1 0.448 1 1s-0.448 1-1 1zM10 30c1.657 0 3-1.343 3-3s-1.343-3-3-3c-1.657 0-3 1.343-3 3s1.343 3 3 3z"></path>
<path d="M29.217 7.024c0.539 0.12 0.879 0.654 0.759 1.193l-2 9c-0.12 0.539-0.654 0.879-1.193 0.759s-0.879-0.654-0.759-1.193l2-9c0.12-0.539 0.654-0.879 1.193-0.759z"></path>
<path d="M2 3c0-0.552 0.448-1 1-1h2c0.489 0 0.906 0.353 0.986 0.836l2.861 17.164h18.153c0.552 0 1 0.448 1 1s-0.448 1-1 1h-19c-0.489 0-0.906-0.353-0.986-0.836l-2.861-17.164h-1.153c-0.552 0-1-0.448-1-1z"></path>
<path d="M24 28c-0.552 0-1-0.448-1-1s0.448-1 1-1c0.552 0 1 0.448 1 1s-0.448 1-1 1zM24 30c1.657 0 3-1.343 3-3s-1.343-3-3-3c-1.657 0-3 1.343-3 3s1.343 3 3 3z"></path>
<path d="M5 8c0-0.552 0.448-1 1-1h23c0.552 0 1 0.448 1 1s-0.448 1-1 1h-23c-0.552 0-1-0.448-1-1z"></path>
<path d="M7 17c0-0.552 0.448-1 1-1h19c0.552 0 1 0.448 1 1s-0.448 1-1 1h-19c-0.552 0-1-0.448-1-1z"></path>
</svg>
