<?xml version="1.0" encoding="UTF-8"?>
<svg viewBox="0 0 32 32" version="1.1" xmlns="http://www.w3.org/2000/svg" xmlns:xlink="http://www.w3.org/1999/xlink">
<title>dropbox</title>
<path d="M10.519 22.653l-7.852-5.227 5.416-4.441 7.916 4.998-5.48 4.67zM15.999 17.982l7.918-4.997 5.416 4.44-7.837 5.228-5.497-4.671zM16.032 18.999l5.496 4.653 2.357-1.572v1.769l-7.853 4.801v0.016l-0.016-0.016-0.017 0.016v-0.016l-7.835-4.801v-1.769l2.356 1.572 5.48-4.653v-0.033l0.017 0.016 0.016-0.016v0.033h-0zM2.667 8.56l7.852-5.227 5.48 4.671-7.916 4.981-5.416-4.425zM21.496 3.333l7.837 5.227-5.416 4.425-7.918-4.981 5.497-4.671z"></path>
</svg>
