<?xml version="1.0" encoding="UTF-8"?>
<svg viewBox="0 0 32 32" version="1.1" xmlns="http://www.w3.org/2000/svg" xmlns:xlink="http://www.w3.org/1999/xlink">
<title>share</title>
<path d="M26 30h-20c-1.105 0-2-0.895-2-2v-16c0-1.105 0.895-2 2-2h3c0.552 0 1 0.448 1 1s-0.448 1-1 1h-2c-0.552 0-1 0.448-1 1v14c0 0.552 0.448 1 1 1h18c0.552 0 1-0.448 1-1v-14c0-0.552-0.448-1-1-1h-2c-0.552 0-1-0.448-1-1s0.448-1 1-1h3c1.105 0 2 0.895 2 2v16c0 1.105-0.895 2-2 2zM19.884 8.292l-2.884-2.876v11.17c0 0.552-0.448 1-1 1s-1-0.448-1-1v-11.17l-2.884 2.876c-0.39 0.389-1.021 0.389-1.411-0.001s-0.389-1.021 0-1.41l4.588-4.588c0.391-0.391 1.024-0.391 1.414 0l4.588 4.588c0.389 0.389 0.389 1.021 0 1.41s-1.021 0.39-1.411 0.001z"></path>
</svg>
