<?xml version="1.0" encoding="UTF-8"?>
<svg viewBox="0 0 32 32" version="1.1" xmlns="http://www.w3.org/2000/svg" xmlns:xlink="http://www.w3.org/1999/xlink">
<title>font-color</title>
<path fill="#000" style="fill: var(--color4, #000)" d="M16.873 3.511l0.054 0.113 7.5 18.5c0.207 0.512-0.039 1.095-0.551 1.302-0.475 0.193-1.012-0.006-1.252-0.445l-0.050-0.106-1.976-4.876h-9.195l-1.975 4.876c-0.193 0.475-0.709 0.722-1.192 0.589l-0.111-0.038c-0.475-0.193-0.722-0.709-0.589-1.192l0.038-0.111 7.5-18.5c0.304-0.751 1.294-0.824 1.732-0.22l0.068 0.107zM16 6.66l-3.787 9.34h7.573l-3.786-9.34z"></path>
<path fill="#212121" style="fill: var(--color54, #212121)" d="M27 25v3h-22v-3z"></path>
</svg>
