<?xml version="1.0" encoding="UTF-8"?>
<svg viewBox="0 0 32 32" version="1.1" xmlns="http://www.w3.org/2000/svg" xmlns:xlink="http://www.w3.org/1999/xlink">
<title>edit</title>
<path d="M28.010 4c1.562 1.562 1.562 4.095 0 5.657l-17.249 17.249c-0.279 0.279-0.635 0.47-1.022 0.547l-5.006 1.001c-0.542 0.108-1.068-0.243-1.177-0.784-0.026-0.129-0.026-0.263 0-0.392l1.001-5.006c0.077-0.387 0.268-0.743 0.547-1.022l17.249-17.249c1.562-1.562 4.095-1.562 5.657 0zM23.768 11.070l-2.828-2.828-14.342 14.342 2.828 2.828 14.342-14.342zM26.595 5.414c-0.781-0.781-2.047-0.781-2.828 0l-1.413 1.413 2.828 2.828 1.413-1.414c0.781-0.781 0.781-2.047 0-2.828z"></path>
</svg>
