<?xml version="1.0" encoding="UTF-8"?>
<svg viewBox="0 0 32 32" version="1.1" xmlns="http://www.w3.org/2000/svg" xmlns:xlink="http://www.w3.org/1999/xlink">
<title>AISingleStarOutlineMD</title>
<path d="M15.355 1.087c-0.656 0.189-1.326 0.73-1.618 1.306-0.078 0.154-0.43 1.28-0.782 2.503s-0.737 2.45-0.855 2.725c-0.91 2.136-2.615 3.785-4.734 4.601l-0.058 0.019c-0.25 0.095-1.367 0.431-2.481 0.746-1.115 0.315-2.177 0.643-2.36 0.729-0.648 0.304-1.192 0.96-1.38 1.664-0.299 1.124 0.296 2.435 1.333 2.938 0.15 0.073 1.233 0.41 2.407 0.75s2.349 0.703 2.613 0.807c2.244 0.883 4.057 2.79 4.845 5.097 0.073 0.213 0.388 1.276 0.699 2.361s0.638 2.12 0.725 2.3c0.289 0.599 0.98 1.141 1.651 1.296 1.153 0.265 2.4-0.288 2.913-1.291 0.072-0.14 0.419-1.256 0.772-2.48s0.738-2.45 0.855-2.726c0.437-1.042 1.048-1.93 1.805-2.669l0.002-0.002c0.786-0.799 1.732-1.438 2.786-1.867l0.055-0.020c0.27-0.106 1.464-0.472 2.652-0.811 1.354-0.388 2.275-0.68 2.468-0.782 0.37-0.197 0.877-0.721 1.050-1.086 0.607-1.281 0.128-2.797-1.078-3.414-0.139-0.071-1.195-0.403-2.346-0.737-2.461-0.714-2.635-0.771-3.275-1.076-1.915-0.909-3.49-2.648-4.238-4.678-0.088-0.237-0.423-1.357-0.746-2.487-0.322-1.131-0.655-2.201-0.741-2.377-0.265-0.548-0.831-1.049-1.432-1.267-0.376-0.136-1.154-0.173-1.507-0.072zM16.16 3.533c0.028 0.066 0.29 0.96 0.582 1.987 0.642 2.254 0.826 2.795 1.231 3.627 1.2 2.408 3.195 4.269 5.635 5.269l0.072 0.026c0.414 0.164 1.329 0.443 3.44 1.049 1.443 0.414 1.467 0.423 1.467 0.555 0 0.134 0.019 0.128-2.282 0.778-2.144 0.606-2.653 0.783-3.536 1.227-1.773 0.916-3.223 2.24-4.262 3.853l-0.026 0.043c-0.31 0.486-0.753 1.395-0.962 1.971-0.103 0.285-0.439 1.397-0.748 2.473-0.348 1.292-0.557 1.985-0.775 2.674l0.163-0.598c-0.027 0.071-0.095 0.12-0.174 0.12-0.003 0-0.006-0-0.008-0h0c-0.103 0-0.143-0.038-0.182-0.174-1.267-4.421-1.321-4.589-1.796-5.546-1.088-2.158-2.815-3.86-4.929-4.888l-0.064-0.028c-0.839-0.403-1.112-0.496-3.585-1.21-1.031-0.298-1.904-0.565-1.941-0.594-0.040-0.038-0.065-0.091-0.067-0.151v-0c0-0.111 0.096-0.144 1.574-0.555 2.57-0.714 3.256-0.942 4.16-1.388 2.103-1.062 3.774-2.72 4.822-4.751l0.029-0.061c0.408-0.812 0.584-1.325 1.232-3.579 0.309-1.075 0.587-2.021 0.619-2.102 0.070-0.18 0.24-0.194 0.311-0.027z"></path>
</svg>
