<?xml version="1.0" encoding="UTF-8"?>
<svg viewBox="0 0 32 32" version="1.1" xmlns="http://www.w3.org/2000/svg" xmlns:xlink="http://www.w3.org/1999/xlink">
<title>default-integration_border</title>
<path d="M14 1c2.761 0 5 2.239 5 5h5c1.105 0 2 0.895 2 2v5c2.761 0 5 2.239 5 5s-2.239 5-5 5v5c0 1.105-0.895 2-2 2h-7v-2c0-1.598-1.249-2.904-2.824-2.995l-0.176-0.005c-1.598 0-2.904 1.249-2.995 2.824l-0.005 0.176v2h-7c-1.105 0-2-0.895-2-2v-7h2c1.598 0 2.904-1.249 2.995-2.824l0.005-0.176c0-1.598-1.249-2.904-2.824-2.995l-0.176-0.005h-2v-7c0-1.105 0.895-2 2-2h5c0-2.761 2.239-5 5-5zM14 3c-1.598 0-2.904 1.249-2.995 2.824l-0.005 0.176v2h-7v5l0.058 0.001 0.234 0.008c2.564 0.149 4.593 2.219 4.702 4.825l0.005 0.225-0.008 0.234c-0.149 2.564-2.219 4.593-4.772 4.703l-0.22 0.005v5h5l0.001-0.058 0.008-0.234c0.149-2.564 2.219-4.593 4.825-4.703l0.225-0.005 0.234 0.008c2.564 0.149 4.593 2.219 4.703 4.772l0.005 0.22h5v-7h2c1.657 0 3-1.343 3-3 0-1.598-1.249-2.904-2.824-2.995l-0.176-0.005h-2v-7h-7v-2c0-1.657-1.343-3-3-3z"></path>
</svg>
