<?xml version="1.0" encoding="UTF-8"?>
<svg viewBox="0 0 32 32" version="1.1" xmlns="http://www.w3.org/2000/svg" xmlns:xlink="http://www.w3.org/1999/xlink">
<title>macos_option</title>
<path d="M11.448 6.363h-4.993c-0.666 0-1.205 0.51-1.205 1.163s0.539 1.149 1.205 1.149h4.44c0.354 0 0.595 0.156 0.751 0.482l6.722 15.061c0.44 0.98 1.12 1.419 2.17 1.419h5.006c0.667 0 1.206-0.525 1.206-1.163s-0.539-1.149-1.206-1.149h-4.41c-0.411 0-0.652-0.156-0.808-0.482l-6.694-15.047c-0.397-0.894-1.192-1.433-2.184-1.433zM25.544 6.363h-6.452c-0.681 0-1.192 0.497-1.192 1.149s0.51 1.149 1.192 1.149h6.453c0.68 0 1.205-0.497 1.205-1.149s-0.525-1.149-1.206-1.149z"></path>
</svg>
