<?xml version="1.0" encoding="UTF-8"?>
<svg viewBox="0 0 32 32" version="1.1" xmlns="http://www.w3.org/2000/svg" xmlns:xlink="http://www.w3.org/1999/xlink">
<title>rc_blog</title>
<path d="M27 1c2.209 0 4 1.791 4 4v22c0 2.209-1.791 4-4 4h-22c-2.209 0-4-1.791-4-4v-22c0-2.209 1.791-4 4-4h22zM19 23h-11c-0.552 0-1 0.448-1 1s0.448 1 1 1v0h11c0.552 0 1-0.448 1-1s-0.448-1-1-1v0zM24 17h-16c-0.552 0-1 0.448-1 1s0.448 1 1 1v0h16c0.552 0 1-0.448 1-1s-0.448-1-1-1v0zM23 7h-14c-1.105 0-2 0.895-2 2v0 2c0 1.105 0.895 2 2 2v0h14c1.105 0 2-0.895 2-2v0-2c0-1.105-0.895-2-2-2v0zM23 9v2h-14v-2h14z"></path>
</svg>
