<?xml version="1.0" encoding="UTF-8"?>
<svg viewBox="0 0 32 32" version="1.1" xmlns="http://www.w3.org/2000/svg" xmlns:xlink="http://www.w3.org/1999/xlink">
<title>report-an-issue</title>
<path d="M16.894 2.683c0.387 0.194 0.701 0.507 0.894 0.894l11.764 23.528c0.494 0.988 0.094 2.189-0.894 2.683-0.278 0.139-0.584 0.211-0.894 0.211h-23.528c-1.105 0-2-0.895-2-2 0-0.311 0.072-0.617 0.211-0.894l11.764-23.528c0.494-0.988 1.695-1.388 2.683-0.894zM16 4.472l-11.764 23.528h23.528l-11.764-23.528zM16 22c1.105 0 2 0.895 2 2s-0.895 2-2 2c-1.105 0-2-0.895-2-2s0.895-2 2-2zM16 11c0.552 0 1 0.448 1 1v7c0 0.552-0.448 1-1 1s-1-0.448-1-1v-7c0-0.552 0.448-1 1-1z"></path>
</svg>
