<?xml version="1.0" encoding="UTF-8"?>
<svg viewBox="0 0 32 32" version="1.1" xmlns="http://www.w3.org/2000/svg" xmlns:xlink="http://www.w3.org/1999/xlink">
<title>box_border</title>
<path fill="#0061d5" style="fill: var(--color53, #0061d5)" d="M1.279 7.364c-0.72 0-1.279 0.56-1.279 1.199v10.065c0.072 3.325 2.784 5.992 6.119 5.992 0.011 0 0.022-0 0.034-0h-0.002c2.366-0.003 4.425-1.311 5.497-3.244l0.016-0.032c1.039 1.917 3.116 3.276 5.432 3.276 3.436 0 6.232-2.716 6.232-6.151 0.080-3.276-2.716-5.993-6.151-5.993-2.317 0-4.393 1.279-5.432 3.196-1.040-1.917-3.117-3.196-5.513-3.196-1.439 0-2.717 0.48-3.756 1.199v-5.112c-0.015-0.655-0.542-1.183-1.196-1.199l-0.002-0zM23.469 12.347c-0.064-0.011-0.138-0.018-0.213-0.018-0.272 0-0.524 0.086-0.73 0.231l0.004-0.003c-0.48 0.4-0.639 1.199-0.24 1.757l3.196 4.155-3.195 4.153c-0.4 0.56-0.32 1.28 0.24 1.68 0.559 0.4 1.355 0.397 1.755-0.163l2.719-3.515 2.795 3.596c0.4 0.48 1.199 0.559 1.757 0.16 0.48-0.4 0.56-1.12 0.161-1.679l-3.117-4.153 3.117-4.076c0.4-0.559 0.397-1.357-0.161-1.757-0.64-0.4-1.359-0.32-1.757 0.24l-2.795 3.435-2.72-3.593c-0.199-0.24-0.497-0.4-0.816-0.451zM6.151 14.872c2.077 0 3.756 1.68 3.756 3.677 0 2.077-1.679 3.675-3.756 3.675s-3.755-1.597-3.755-3.675c0-1.997 1.677-3.677 3.755-3.677zM17.177 14.872c2.077 0 3.755 1.68 3.755 3.677-0.080 2.077-1.757 3.675-3.755 3.675-2.077 0-3.756-1.597-3.756-3.675 0-1.997 1.679-3.677 3.756-3.677z"></path>
</svg>
