<?xml version="1.0" encoding="UTF-8"?>
<svg viewBox="0 0 32 32" version="1.1" xmlns="http://www.w3.org/2000/svg" xmlns:xlink="http://www.w3.org/1999/xlink">
<title>strike</title>
<path d="M24.21 18c0.824 0.974 1.212 2.165 1.212 3.633 0 4.412-3.691 7.383-9.369 7.383-4.781 0-8.402-2.18-9.281-5.66-0.070-0.299-0.105-0.58-0.105-0.844 0-0.721 0.422-1.16 1.143-1.16 0.615 0 0.879 0.299 1.125 0.967 0.791 2.777 3.568 4.553 7.137 4.553 4.061 0 6.855-2.092 6.855-4.975 0-1.815-0.992-3.004-3.256-3.896l4.54-0zM29 16c0.552 0 1 0.448 1 1s-0.448 1-1 1h-26c-0.552 0-1-0.448-1-1s0.448-1 1-1h26zM16 3c4.518 0 7.928 2.215 8.701 5.396 0.070 0.264 0.105 0.58 0.105 0.791 0 0.686-0.439 1.090-1.125 1.090-0.563 0-0.879-0.264-1.072-0.809-0.721-2.689-3.199-4.324-6.609-4.324-3.604 0-6.328 1.969-6.328 4.764 0 1.997 1.371 3.193 4.449 4.092l-5.378 0c-1.062-1.035-1.567-2.329-1.567-3.934 0-4.131 3.797-7.066 8.824-7.066z"></path>
</svg>
