<?xml version="1.0" encoding="UTF-8"?>
<svg viewBox="0 0 32 32" version="1.1" xmlns="http://www.w3.org/2000/svg" xmlns:xlink="http://www.w3.org/1999/xlink">
<title>team_border</title>
<path d="M8 19c-4.346 0-8 3.045-8 7 0 1.105 0.895 2 2 2l6.536 0.001c-0.298-0.515-0.485-1.103-0.527-1.73l-0.009-0.271c-3.576 0.011-5.455 0.011-5.637 0-0.272-0.017-0.363-0.289-0.324-0.574 0.342-2.491 2.88-4.426 5.961-4.426 0.452 0 0.892 0.042 1.315 0.12 0.358-0.62 0.784-1.204 1.267-1.747-0.813-0.243-1.683-0.373-2.582-0.373zM21 17c-5.981 0-11 3.904-11 9 0 1.105 0.895 2 2 2h18c1.105 0 2-0.895 2-2 0-5.096-5.019-9-11-9zM21 19c4.707 0 8.571 2.811 8.967 6.393 0.053 0.479-0.253 0.607-0.448 0.607-3.846 0-9.593 0-17.239 0-0.177 0-0.279-0.209-0.264-0.416 0.277-3.672 4.193-6.584 8.984-6.584zM8 7c-2.761 0-5 2.239-5 5s2.239 5 5 5c2.761 0 5-2.239 5-5s-2.239-5-5-5zM21 3c-3.314 0-6 2.686-6 6s2.686 6 6 6c3.314 0 6-2.686 6-6s-2.686-6-6-6zM8 9c1.657 0 3 1.343 3 3s-1.343 3-3 3c-1.657 0-3-1.343-3-3s1.343-3 3-3zM21 5c2.209 0 4 1.791 4 4s-1.791 4-4 4c-2.209 0-4-1.791-4-4s1.791-4 4-4z"></path>
</svg>
