<?xml version="1.0" encoding="UTF-8"?>
<svg viewBox="0 0 32 32" version="1.1" xmlns="http://www.w3.org/2000/svg" xmlns:xlink="http://www.w3.org/1999/xlink">
<title>speaker-up</title>
<path d="M19.414 3.414c0.375 0.375 0.586 0.884 0.586 1.414v22.343c0 1.105-0.895 2-2 2-0.53 0-1.039-0.211-1.414-0.586l-6.586-6.586h-6c-1.105 0-2-0.895-2-2v-8c0-1.105 0.895-2 2-2h6l6.586-6.586c0.781-0.781 2.047-0.781 2.828 0zM18 4.828l-6.586 6.586c-0.375 0.375-0.884 0.586-1.414 0.586h-5c-0.552 0-1 0.448-1 1v6c0 0.552 0.448 1 1 1h5c0.53 0 1.039 0.211 1.414 0.586l6.586 6.586v-22.343zM26.003 7.637c0.449-0.321 1.074-0.217 1.395 0.232 1.683 2.355 2.602 5.175 2.602 8.131s-0.919 5.776-2.602 8.131c-0.321 0.449-0.946 0.553-1.395 0.232s-0.553-0.946-0.232-1.395c1.442-2.018 2.229-4.433 2.229-6.968s-0.787-4.95-2.229-6.968c-0.321-0.449-0.217-1.074 0.232-1.395zM22.482 11.205c0.481-0.271 1.091-0.101 1.362 0.38 0.754 1.337 1.156 2.848 1.156 4.416 0 1.578-0.407 3.098-1.171 4.441-0.273 0.48-0.883 0.648-1.363 0.375s-0.648-0.883-0.375-1.363c0.593-1.044 0.909-2.224 0.909-3.453 0-1.221-0.312-2.394-0.898-3.433-0.271-0.481-0.101-1.091 0.38-1.362z"></path>
</svg>
