<?xml version="1.0" encoding="UTF-8"?>
<svg viewBox="0 0 32 32" version="1.1" xmlns="http://www.w3.org/2000/svg" xmlns:xlink="http://www.w3.org/1999/xlink">
<title>cc_sp</title>
<path d="M15.283 6.859l1.775 0.002 0.988 0.015 0.618 0.017 0.869 0.038 0.541 0.034 0.512 0.043 0.484 0.052 0.456 0.061c2.875 0.431 4.044 1.52 4.495 4.155l0.064 0.418 0.053 0.443 0.044 0.469 0.035 0.495 0.027 0.522 0.019 0.55 0.017 0.88 0.005 0.947-0.009 1.232-0.020 0.848-0.022 0.531-0.029 0.504-0.037 0.478-0.046 0.452-0.056 0.427-0.066 0.403c-0.407 2.216-1.357 3.301-3.49 3.819l-0.389 0.086-0.414 0.075-0.44 0.064-0.467 0.055-0.244 0.024-0.509 0.041-0.538 0.033-0.567 0.026-0.598 0.019-0.956 0.018-1.388 0.008-1.388-0.008-0.956-0.018-0.598-0.019-0.567-0.026-0.538-0.033-0.509-0.041-0.481-0.050-0.454-0.059c-0.073-0.011-0.146-0.022-0.217-0.033l-0.414-0.075-0.389-0.086c-2.133-0.518-3.083-1.602-3.49-3.819l-0.066-0.403-0.056-0.427-0.046-0.452-0.037-0.478-0.029-0.504-0.022-0.531-0.020-0.848-0.008-0.913 0.002-0.954 0.013-0.902 0.016-0.565 0.023-0.537 0.031-0.509 0.039-0.482 0.023-0.231 0.053-0.443c0.341-2.51 1.218-3.739 3.348-4.326l0.377-0.095c0.13-0.030 0.264-0.057 0.403-0.083l0.429-0.072 0.224-0.032 0.47-0.056 0.498-0.047 0.527-0.038 0.556-0.031 0.587-0.023 0.618-0.017 1.333-0.017zM14.063 9.146l-1.121 0.015-0.743 0.024-0.451 0.024-0.418 0.032-0.385 0.040-0.354 0.050c-1.582 0.26-2.192 0.877-2.431 2.343l-0.046 0.327-0.036 0.354-0.037 0.585-0.016 0.427-0.017 0.947-0.008 1.976 0.008 1.842 0.016 0.676 0.018 0.413 0.026 0.384 0.034 0.356 0.044 0.329c0.254 1.631 0.951 2.227 2.853 2.444l0.383 0.038 0.415 0.029 0.447 0.022 0.481 0.016 0.788 0.014 1.5 0.007 2.9-0.002 1.105-0.013 0.735-0.021 0.447-0.022 0.415-0.029 0.384-0.038c1.902-0.218 2.599-0.814 2.853-2.444l0.044-0.329 0.034-0.356 0.026-0.384 0.018-0.413 0.016-0.676 0.008-1.286-0.002-2.242-0.012-0.981-0.022-0.653-0.023-0.398-0.031-0.369-0.040-0.341-0.051-0.315c-0.253-1.359-0.859-1.945-2.311-2.2l-0.337-0.051-0.366-0.042-0.396-0.033-0.427-0.025-0.46-0.019-0.494-0.013-1.391-0.016-3.575-0.001zM12.885 12.858l0.223 0.004c1.546 0.050 2.199 0.507 2.305 1.662l0.011 0.17 0.004 0.193-0.057 0.28-1.658-0.057 0.054-0.363-0.393-0.032-0.402-0.014-0.175-0.002-0.886-0.001-0.104 0.007c-0.213 0.025-0.321 0.116-0.359 0.313l-0.012 0.091-0.007 0.177 0 1.51 0.005 0.112c0.020 0.232 0.096 0.341 0.277 0.378l0.084 0.011 0.079 0.004 0.911-0.001 0.321-0.005 0.341-0.015 0.269 0.021 0.056-0.485 1.657 0.057-0.002 0.409c-0.049 1.283-0.641 1.775-2.235 1.849l-0.224 0.008-0.375 0.003-0.419-0.007c-1.865-0.065-2.388-0.621-2.451-2.676l-0.007-0.463 0.006-0.459c0.056-1.906 0.517-2.521 2.072-2.652l0.192-0.013 0.395-0.014 0.505-0.001zM19.626 12.857l0.223 0.002 0.419 0.013 0.208 0.013c1.366 0.103 1.884 0.523 1.969 1.643l0.010 0.173 0.003 0.185-0.057 0.281-1.658-0.057 0.053-0.362-0.303-0.030-0.346-0.015-1.1-0.012-0.152 0.004-0.109 0.015c-0.158 0.032-0.253 0.108-0.298 0.239l-0.021 0.086-0.012 0.136 0.004 0.654-0.001 0.745-0.004 0.257 0.007 0.112c0.025 0.223 0.124 0.329 0.348 0.36l0.104 0.009 0.181 0.001 1.047-0.011 0.342-0.014 0.262 0.027 0.056-0.492 1.657 0.057-0.002 0.412c-0.042 1.254-0.541 1.718-1.99 1.828l-0.203 0.013-0.42 0.013-0.436-0c-1.902-0.030-2.509-0.494-2.635-2.267l-0.021-0.416-0.007-0.462 0.006-0.461c0.059-1.971 0.544-2.56 2.257-2.662l0.195-0.009 0.424-0.008z"></path>
</svg>
