<?xml version="1.0" encoding="UTF-8"?>
<svg viewBox="0 0 32 32" version="1.1" xmlns="http://www.w3.org/2000/svg" xmlns:xlink="http://www.w3.org/1999/xlink">
<title>play_circle_border</title>
<path d="M16 2c7.732 0 14 6.268 14 14s-6.268 14-14 14c-7.732 0-14-6.268-14-14s6.268-14 14-14zM16 4c-6.627 0-12 5.373-12 12s5.373 12 12 12c6.627 0 12-5.373 12-12s-5.373-12-12-12zM12.568 9.17l0.116 0.065 9.73 5.832c0.776 0.533 0.782 1.328 0.010 1.867l-0.128 0.083-9.711 5.808c-0.845 0.442-1.523 0.022-1.58-0.967l-0.004-0.138-0.002-11.437 0.003-0.128c0.052-0.997 0.724-1.418 1.565-0.984zM12.999 11.754l0.002 8.494 7.093-4.245-7.095-4.249z"></path>
</svg>
