<?xml version="1.0" encoding="UTF-8"?>
<svg viewBox="0 0 32 32" version="1.1" xmlns="http://www.w3.org/2000/svg" xmlns:xlink="http://www.w3.org/1999/xlink">
<title>workflow-outlined</title>
<path d="M16 8.533c1.767 0 3.2-1.433 3.2-3.2s-1.433-3.2-3.2-3.2v0c-1.767 0-3.2 1.433-3.2 3.2s1.433 3.2 3.2 3.2v0zM21.333 5.333c0 0 0 0.001 0 0.001 0 2.568-1.815 4.712-4.232 5.219l-0.035 0.006v4.373h5.333c2.946 0 5.333 2.388 5.333 5.333v0 1.173c2.452 0.514 4.267 2.658 4.267 5.226 0 2.946-2.388 5.333-5.333 5.333s-5.333-2.388-5.333-5.333c0-2.568 1.815-4.712 4.232-5.219l0.035-0.006v-1.173c0-1.767-1.433-3.2-3.2-3.2v0h-12.8c-1.767 0-3.2 1.433-3.2 3.2v0 1.173c2.452 0.514 4.267 2.658 4.267 5.226 0 2.946-2.388 5.333-5.333 5.333s-5.333-2.388-5.333-5.333c0-2.568 1.815-4.712 4.232-5.219l0.035-0.006v-1.173c0-2.946 2.388-5.333 5.333-5.333v0h5.333v-4.373c-2.452-0.514-4.267-2.658-4.267-5.226 0-2.946 2.388-5.333 5.333-5.333s5.333 2.387 5.333 5.332v0zM5.333 29.867c1.767 0 3.2-1.433 3.2-3.2s-1.433-3.2-3.2-3.2v0c-1.767 0-3.2 1.433-3.2 3.2s1.433 3.2 3.2 3.2v0zM23.467 26.667c0 1.767 1.433 3.2 3.2 3.2s3.2-1.433 3.2-3.2v0c0-1.767-1.433-3.2-3.2-3.2s-3.2 1.433-3.2 3.2v0z"></path>
</svg>
