<?xml version="1.0" encoding="UTF-8"?>
<svg viewBox="0 0 32 32" version="1.1" xmlns="http://www.w3.org/2000/svg" xmlns:xlink="http://www.w3.org/1999/xlink">
<title>park-location-full</title>
<path d="M22 2c4.418 0 8 3.582 8 8v12c0 4.418-3.582 8-8 8h-12c-4.418 0-8-3.582-8-8v-12c0-4.418 3.582-8 8-8h12zM17.361 9.226h-3.262l-0.153 0.007-0.154 0.021c-0.861 0.152-1.499 0.899-1.499 1.787v0 10.459l0.007 0.116 0.022 0.122c0.113 0.475 0.529 0.812 1.017 0.812 0.578 0 1.046-0.47 1.046-1.050v0l-0.001-3.527 2.959 0.001 0.221-0.005 0.219-0.014c2.312-0.2 3.912-1.95 3.912-4.328 0-2.582-1.785-4.399-4.333-4.399v0zM16.944 11.148l0.201 0.004c1.58 0.066 2.411 0.921 2.411 2.475s-0.933 2.424-2.612 2.424v0h-2.561v-4.903l2.561 0z"></path>
</svg>
