<?xml version="1.0" encoding="UTF-8"?>
<svg viewBox="0 0 32 32" version="1.1" xmlns="http://www.w3.org/2000/svg" xmlns:xlink="http://www.w3.org/1999/xlink">
<title>gdrive-logo</title>
<path fill="#0066da" style="fill: var(--color12, #0066da)" d="M4.117 24.441l1.235 2.133c0.257 0.449 0.625 0.802 1.058 1.058l4.41-7.633h-8.82c0 0.497 0.128 0.994 0.385 1.443l1.732 2.999z"></path>
<path fill="#00ac47" style="fill: var(--color13, #00ac47)" d="M16 11.018l-4.41-7.633c-0.433 0.257-0.802 0.609-1.058 1.058l-8.147 14.112c-0.252 0.439-0.385 0.937-0.385 1.443h8.82l5.18-8.981z"></path>
<path fill="#ea4335" style="fill: var(--color10, #ea4335)" d="M25.59 27.632c0.433-0.257 0.802-0.609 1.058-1.058l0.513-0.882 2.454-4.25c0.257-0.449 0.385-0.946 0.385-1.443h-8.821l1.877 3.688 2.534 3.945z"></path>
<path fill="#00832d" style="fill: var(--color14, #00832d)" d="M16 11.018l4.41-7.633c-0.433-0.257-0.93-0.385-1.443-0.385h-5.934c-0.513 0-1.010 0.144-1.443 0.385l4.41 7.633z"></path>
<path fill="#2684fc" style="fill: var(--color15, #2684fc)" d="M21.18 19.999h-10.36l-4.41 7.633c0.433 0.257 0.93 0.385 1.443 0.385h16.293c0.513 0 1.010-0.144 1.443-0.385l-4.41-7.633z"></path>
<path fill="#ffba00" style="fill: var(--color16, #ffba00)" d="M25.542 11.499l-4.073-7.056c-0.257-0.449-0.625-0.802-1.058-1.058l-4.41 7.633 5.18 8.981h8.804c0-0.497-0.128-0.994-0.385-1.443l-4.057-7.056z"></path>
</svg>
