<?xml version="1.0" encoding="UTF-8"?>
<svg viewBox="0 0 32 32" version="1.1" xmlns="http://www.w3.org/2000/svg" xmlns:xlink="http://www.w3.org/1999/xlink">
<title>ai-smart-notes</title>
<path d="M25.072 14.308c0.997 0 1.889 0.463 2.49 1.196l0.65 0.797c0.481 0.587 0.771 1.345 0.771 2.174 0 1.028-0.446 1.948-1.155 2.57l-6.155 5.366c-0.493 0.427-1.070 0.69-1.687 0.776l-6.003 0.832 1.805-5.966 0.006-0.024c0.187-0.607 0.537-1.139 1.002-1.544l6.153-5.363c0.57-0.508 1.312-0.814 2.124-0.814zM25.062 16.713c-0.227 0-0.435 0.085-0.594 0.225l-6.158 5.366c-0.139 0.118-0.245 0.275-0.304 0.463l-0.718 2.374 2.391-0.333c0.183-0.025 0.345-0.102 0.474-0.214l6.159-5.368c0.211-0.177 0.346-0.447 0.346-0.749 0-0.238-0.083-0.455-0.22-0.622l-0.655-0.801c-0.154-0.189-0.378-0.315-0.631-0.336-0.029-0.003-0.059-0.004-0.089-0.004zM11 22v3h-8v-3h8zM15 16v3h-12v-3h12zM20 10v3h-17v-3h17zM23.754 2.167c0.049-0.222 0.419-0.222 0.493 0l0.419 1.433c0.394 1.334 1.404 2.347 2.709 2.718l1.428 0.42c0.123 0.025 0.197 0.124 0.197 0.247 0 0.195-0.246 0.265-0.446 0.321l-0.033 0.009-0.032 0.009-1.115 0.328c-1.33 0.395-2.34 1.408-2.709 2.718l-0.419 1.433c-0.025 0.124-0.123 0.198-0.246 0.198-0.195 0-0.263-0.245-0.319-0.446-0.006-0.023-0.012-0.045-0.019-0.066l-0.327-1.119c-0.394-1.334-1.404-2.347-2.709-2.718l-1.429-0.42c-0.123-0.025-0.197-0.124-0.197-0.247 0-0.195 0.245-0.264 0.446-0.321l0.065-0.018 1.115-0.328c1.33-0.395 2.34-1.408 2.709-2.718z"></path>
</svg>
