<?xml version="1.0" encoding="UTF-8"?>
<svg viewBox="0 0 32 32" version="1.1" xmlns="http://www.w3.org/2000/svg" xmlns:xlink="http://www.w3.org/1999/xlink">
<title>code_snippets</title>
<path d="M28 4c1.105 0 2 0.895 2 2v20c0 1.105-0.895 2-2 2h-24c-1.105 0-2-0.895-2-2v-20c0-1.105 0.895-2 2-2h24zM28 11h-24v14c0 0.552 0.448 1 1 1h22c0.552 0 1-0.448 1-1v-14zM9.707 13.293l4.243 4.243c0.391 0.39 0.391 1.024 0 1.414l-4.243 4.243c-0.391 0.39-1.024 0.39-1.414 0s-0.391-1.024 0-1.414l3.536-3.536-3.536-3.536c-0.391-0.391-0.391-1.024 0-1.414s1.024-0.391 1.414 0v0zM23 21c0.552 0 1 0.448 1 1s-0.448 1-1 1h-6c-0.552 0-1-0.448-1-1s0.448-1 1-1h6zM27 6h-22c-0.552 0-1 0.448-1 1v2h24v-2c0-0.552-0.448-1-1-1z"></path>
</svg>
