<?xml version="1.0" encoding="UTF-8"?>
<svg viewBox="0 0 32 32" version="1.1" xmlns="http://www.w3.org/2000/svg" xmlns:xlink="http://www.w3.org/1999/xlink">
<title>recording-insights</title>
<path d="M25.581 1.167c-0.074-0.222-0.444-0.222-0.493 0l-0.419 1.433c-0.369 1.31-1.379 2.323-2.709 2.718l-1.181 0.346c-0.201 0.057-0.445 0.126-0.445 0.321 0 0.123 0.074 0.222 0.197 0.247l1.429 0.42c1.305 0.371 2.315 1.384 2.709 2.718l0.327 1.119c0.007 0.021 0.013 0.043 0.019 0.066 0.056 0.201 0.124 0.446 0.319 0.446 0.123 0 0.221-0.074 0.246-0.198l0.419-1.433c0.369-1.31 1.379-2.323 2.709-2.718l1.18-0.346c0.2-0.056 0.446-0.126 0.446-0.321 0-0.123-0.074-0.222-0.197-0.247l-1.428-0.42c-1.305-0.371-2.315-1.384-2.709-2.718l-0.419-1.433z"></path>
<path d="M16 5c-6.075 0-11 4.925-11 11s4.925 11 11 11c6.075 0 11-4.925 11-11 0-0.577-0.044-1.142-0.129-1.694-0.084-0.546 0.29-1.057 0.836-1.141s1.057 0.29 1.141 0.836c0.101 0.652 0.153 1.32 0.153 1.999 0 7.18-5.82 13-13 13s-13-5.82-13-13c0-7.18 5.82-13 13-13 0.679 0 1.347 0.052 1.999 0.153 0.546 0.084 0.92 0.595 0.836 1.141s-0.595 0.92-1.141 0.836c-0.552-0.085-1.117-0.129-1.694-0.129z"></path>
<path d="M21 16c0 2.761-2.239 5-5 5s-5-2.239-5-5c0-2.761 2.239-5 5-5s5 2.239 5 5z"></path>
</svg>
