<?xml version="1.0" encoding="UTF-8"?>
<svg viewBox="0 0 32 32" version="1.1" xmlns="http://www.w3.org/2000/svg" xmlns:xlink="http://www.w3.org/1999/xlink">
<title>customize</title>
<path d="M28.727 20.727c0.703 0 1.273 0.57 1.273 1.273 0 0.633-0.462 1.157-1.066 1.256l-0.206 0.017h-25.455c-0.703 0-1.273-0.57-1.273-1.273 0-0.633 0.462-1.157 1.066-1.256l0.206-0.017h25.455zM28.727 8c0.703 0 1.273 0.57 1.273 1.273 0 0.633-0.462 1.157-1.066 1.256l-0.206 0.017h-25.455c-0.703 0-1.273-0.57-1.273-1.273 0-0.633 0.462-1.157 1.066-1.256l0.206-0.017h25.455z"></path>
</svg>
