<?xml version="1.0" encoding="UTF-8"?>
<svg viewBox="0 0 32 32" version="1.1" xmlns="http://www.w3.org/2000/svg" xmlns:xlink="http://www.w3.org/1999/xlink">
<title>reply</title>
<path d="M12.714 27.702l-0.128-0.117-10.171-10.171c-0.362-0.362-0.586-0.862-0.586-1.414 0-0.491 0.177-0.941 0.471-1.29l-0.002 0.003 0.117-0.128 10.171-10.17c0.362-0.362 0.862-0.585 1.414-0.585 1.052 0 1.914 0.811 1.994 1.842l0 0.007 0.006 0.15v5.171h1c7.179 0 12.999 5.819 13 12.998v3c0 1.192-1.712 1.384-1.974 0.222-0.819-3.504-3.86-6.094-7.526-6.217l-0.013-0-0.262-0.005h-4.222v5.171c0 0 0 0.001 0 0.001 0 1.105-0.895 2-2 2-0.492 0-0.943-0.178-1.291-0.472l0.003 0.002v0.002zM15.002 13c-0.001 0-0.001 0-0.002 0-0.511 0-0.932-0.384-0.991-0.878l-0-0.005-0.006-0.117-0.002-5.69c0-0.11-0.090-0.2-0.2-0.2v0c-0 0-0 0-0 0-0.055 0-0.105 0.023-0.141 0.059l-9.691 9.69c-0.036 0.036-0.059 0.086-0.059 0.142s0.022 0.105 0.059 0.142v0l9.69 9.688c0.036 0.037 0.087 0.060 0.142 0.060 0.11 0 0.2-0.090 0.2-0.2 0-0 0-0 0-0v0-5.688c0-0.552 0.448-1 1-1l5.531 0.005c2.832 0.086 5.398 1.36 7.179 3.366l0.202 0.234-0.040-0.283c-0.542-3.416-2.59-6.264-5.429-7.885l-0.054-0.028c-2.774-1.562-4.667-1.41-7.389-1.41z"></path>
</svg>
