<?xml version="1.0" encoding="UTF-8"?>
<svg viewBox="0 0 32 32" version="1.1" xmlns="http://www.w3.org/2000/svg" xmlns:xlink="http://www.w3.org/1999/xlink">
<title>signal-0</title>
<path d="M6 12c2.209 0 4 1.791 4 4s-1.791 4-4 4c-2.209 0-4-1.791-4-4s1.791-4 4-4zM16 12c2.209 0 4 1.791 4 4s-1.791 4-4 4c-2.209 0-4-1.791-4-4s1.791-4 4-4zM26 12c2.209 0 4 1.791 4 4s-1.791 4-4 4c-2.209 0-4-1.791-4-4s1.791-4 4-4zM6 14c-1.105 0-2 0.895-2 2s0.895 2 2 2c1.105 0 2-0.895 2-2s-0.895-2-2-2zM16 14c-1.105 0-2 0.895-2 2s0.895 2 2 2c1.105 0 2-0.895 2-2s-0.895-2-2-2zM26 14c-1.105 0-2 0.895-2 2s0.895 2 2 2c1.105 0 2-0.895 2-2s-0.895-2-2-2z"></path>
</svg>
