<?xml version="1.0" encoding="UTF-8"?>
<svg viewBox="0 0 32 32" version="1.1" xmlns="http://www.w3.org/2000/svg" xmlns:xlink="http://www.w3.org/1999/xlink">
<title>notes</title>
<path d="M9.406 2.001c0.328 0 0.593 0.266 0.593 0.593l-0.001 0.829h3.915l0.001-0.83c0-0.328 0.266-0.593 0.593-0.593h0.83c0.328 0 0.593 0.266 0.593 0.593l-0.001 0.83h3.915l0.001-0.83c0-0.328 0.266-0.593 0.593-0.593h0.83c0.328 0 0.593 0.266 0.593 0.593l-0.001 0.83h0.599c2.334 0 4.247 1.813 4.368 4.087l0.006 0.229v6.27c0 0.695-0.569 1.258-1.272 1.258-0.698 0.003-1.267-0.56-1.271-1.258v-6.27c0-0.993-0.821-1.802-1.832-1.802h-0.598l0.001 0.69c0 0.328-0.266 0.593-0.593 0.593h-0.83c-0.328 0-0.593-0.266-0.593-0.593l-0.001-0.69h-3.915l0.001 0.69c0 0.328-0.266 0.593-0.593 0.593h-0.83c-0.328 0-0.593-0.266-0.593-0.593l-0.001-0.69h-3.915l0.001 0.69c0 0.328-0.266 0.593-0.593 0.593h-0.83c-0.328 0-0.593-0.266-0.593-0.593l-0.001-0.69h-0.607c-0.954 0-1.739 0.723-1.823 1.638l-0.008 0.164v17.944c0 0.993 0.821 1.802 1.832 1.802h5.831c0.702 0 1.272 0.562 1.272 1.258 0 0.694-0.569 1.256-1.272 1.256h-5.832c-2.412 0-4.374-1.935-4.374-4.316v-17.944c0-2.38 1.962-4.315 4.374-4.315l0.607-0.001 0.001-0.83c0-0.328 0.266-0.593 0.593-0.593h0.83v0.001zM24.044 18.423c1.219-1.192 3.167-1.192 4.386 0 0.58 0.57 0.907 1.349 0.907 2.163s-0.327 1.593-0.907 2.163l-5.666 5.576c-0.127 0.124-0.283 0.214-0.454 0.261l-4.174 1.139c-0.363 0.099-0.751-0.004-1.017-0.27-0.263-0.264-0.359-0.652-0.249-1.008l1.236-4.012c0.050-0.161 0.139-0.308 0.26-0.426l5.678-5.584zM23.843 21.502l-3.832 3.769-0.615 1.993 2.1-0.572 3.808-3.749-1.462-1.441zM15.694 20.865c0.328 0 0.593 0.266 0.593 0.593v1.186c0 0.328-0.266 0.593-0.593 0.593h-7.118c-0.328 0-0.593-0.266-0.593-0.593v-1.186c0-0.328 0.266-0.593 0.593-0.593h7.118zM21.033 15.526c0.328 0 0.593 0.266 0.593 0.593v1.186c0 0.328-0.266 0.593-0.593 0.593h-12.457c-0.328 0-0.593-0.266-0.593-0.593v-1.186c0-0.328 0.266-0.593 0.593-0.593h12.457zM21.033 10.187c0.328 0 0.593 0.266 0.593 0.593v1.186c0 0.328-0.266 0.593-0.593 0.593h-12.457c-0.328 0-0.593-0.266-0.593-0.593v-1.186c0-0.328 0.266-0.593 0.593-0.593h12.457z"></path>
</svg>
