<?xml version="1.0" encoding="UTF-8"?>
<svg viewBox="0 0 32 32" version="1.1" xmlns="http://www.w3.org/2000/svg" xmlns:xlink="http://www.w3.org/1999/xlink">
<title>regenerate</title>
<path d="M28.915 17.441c-0.297 2.68-1.421 5.2-3.215 7.213s-4.17 3.417-6.798 4.018c-2.628 0.601-5.378 0.37-7.869-0.661s-4.599-2.813-6.032-5.096v3.752c0 0.265-0.105 0.52-0.293 0.707s-0.442 0.293-0.707 0.293c-0.265 0-0.52-0.105-0.707-0.293s-0.293-0.442-0.293-0.707v-6.667c0-0.265 0.105-0.52 0.293-0.707s0.442-0.293 0.707-0.293h6.667c0.265 0 0.52 0.105 0.707 0.293s0.293 0.442 0.293 0.707c0 0.265-0.105 0.52-0.293 0.707s-0.442 0.293-0.707 0.293h-4.44c1.070 2.11 2.793 3.817 4.913 4.868s4.521 1.39 6.848 0.966c2.327-0.424 4.455-1.589 6.067-3.32s2.622-3.937 2.879-6.288c0.012-0.132 0.050-0.261 0.113-0.378s0.147-0.221 0.25-0.305c0.103-0.084 0.221-0.147 0.349-0.185s0.261-0.050 0.393-0.036c0.132 0.014 0.26 0.055 0.376 0.119s0.218 0.151 0.301 0.255c0.082 0.104 0.143 0.224 0.179 0.352s0.045 0.262 0.029 0.393h-0.007zM28 4.333c-0.265 0-0.52 0.105-0.707 0.293s-0.293 0.442-0.293 0.707v3.752c-1.433-2.284-3.541-4.065-6.032-5.096s-5.241-1.263-7.869-0.661-5.004 2.006-6.798 4.018c-1.794 2.012-2.918 4.533-3.215 7.213-0.014 0.131-0.003 0.263 0.034 0.389s0.098 0.244 0.181 0.346c0.082 0.102 0.184 0.188 0.299 0.251s0.242 0.103 0.373 0.117h0.109c0.246-0.001 0.483-0.092 0.666-0.256s0.299-0.391 0.326-0.636c0.26-2.349 1.271-4.551 2.883-6.28s3.738-2.891 6.063-3.314c2.325-0.423 4.725-0.085 6.842 0.964s3.84 2.754 4.912 4.86h-4.44c-0.265 0-0.52 0.105-0.707 0.293s-0.293 0.442-0.293 0.707c0 0.265 0.105 0.52 0.293 0.707s0.442 0.293 0.707 0.293h6.667c0.265 0 0.52-0.105 0.707-0.293s0.293-0.442 0.293-0.707v-6.667c0-0.265-0.105-0.52-0.293-0.707s-0.442-0.293-0.707-0.293z"></path>
</svg>
