<?xml version="1.0" encoding="UTF-8"?>
<svg viewBox="0 0 32 32" version="1.1" xmlns="http://www.w3.org/2000/svg" xmlns:xlink="http://www.w3.org/1999/xlink">
<title>calls</title>
<path d="M16 2c7.732 0 14 6.268 14 14s-6.268 14-14 14c-7.732 0-14-6.268-14-14s6.268-14 14-14zM16 6c-0.513 0-0.935 0.386-0.993 0.883l-0.007 0.117v9l0.009 0.131c0.023 0.173 0.091 0.338 0.197 0.477l0.087 0.099 4 4 0.094 0.083c0.36 0.28 0.866 0.28 1.226 0l0.094-0.083 0.083-0.094c0.28-0.36 0.28-0.866 0-1.226l-0.083-0.094-3.707-3.708v-8.585l-0.007-0.117c-0.058-0.497-0.48-0.883-0.993-0.883z"></path>
</svg>
