<?xml version="1.0" encoding="UTF-8"?>
<svg viewBox="0 0 32 32" version="1.1" xmlns="http://www.w3.org/2000/svg" xmlns:xlink="http://www.w3.org/1999/xlink">
<title>avatar-delegated-lines</title>
<path d="M20.5 9c3.59 0 6.5 2.91 6.5 6.5v1c0 3.59-2.91 6.5-6.5 6.5-1.017 0-1.979-0.233-2.835-0.649 0.392-0.412 0.743-0.864 1.047-1.349l0.289-0.001c1.657 0 3-1.343 3-3v-1c0-1.347-0.888-2.487-2.11-2.866-0.278-1.724-1.075-3.275-2.226-4.487 0.857-0.414 1.819-0.648 2.836-0.648zM11.5 9c3.075 0 5.652 2.136 6.327 5.005-1.577 0.090-2.827 1.396-2.827 2.995v1c0 0.351 0.060 0.688 0.171 1.001l-2.171-0.001c0-0.828-0.672-1.5-1.5-1.5s-1.5 0.672-1.5 1.5 0.672 1.5 1.5 1.5c0.049 0 0.097-0.002 0.148-0.007l0.102 0.007 4.585-0.004c0.063 0.042 0.128 0.082 0.195 0.12-1.191 1.455-3.002 2.384-5.030 2.384-3.59 0-6.5-2.91-6.5-6.5v-1c0-3.59 2.91-6.5 6.5-6.5zM7.75 13c-0.414 0-0.75 0.336-0.75 0.75s0.336 0.75 0.75 0.75 0.75-0.336 0.75-0.75-0.336-0.75-0.75-0.75zM11.75 13c-0.414 0-0.75 0.336-0.75 0.75s0.336 0.75 0.75 0.75 0.75-0.336 0.75-0.75-0.336-0.75-0.75-0.75z"></path>
</svg>
