<?xml version="1.0" encoding="UTF-8"?>
<svg viewBox="0 0 32 32" version="1.1" xmlns="http://www.w3.org/2000/svg" xmlns:xlink="http://www.w3.org/1999/xlink">
<title>google-logo</title>
<path fill="#ffc107" d="M27.767 13.65h-0.967v-0.050h-10.8v4.8h6.782c-0.989 2.794-3.648 4.8-6.782 4.8-3.976 0-7.2-3.224-7.2-7.2s3.224-7.2 7.2-7.2c1.835 0 3.505 0.692 4.777 1.823l3.394-3.394c-2.143-1.997-5.010-3.229-8.171-3.229-6.627 0-12 5.373-12 12s5.373 12 12 12c6.627 0 12-5.373 12-12 0-0.805-0.083-1.59-0.233-2.35l0-0z"></path>
<path fill="#ff3d00" d="M5.384 10.415l3.943 2.891c1.067-2.641 3.65-4.506 6.674-4.506 1.835 0 3.505 0.692 4.777 1.823l3.394-3.394c-2.143-1.997-5.010-3.229-8.171-3.229-4.609 0-8.606 2.602-10.616 6.415v-0z"></path>
<path fill="#4caf50" d="M16 28c3.1 0 5.916-1.186 8.045-3.115l-3.714-3.143c-1.205 0.913-2.702 1.458-4.331 1.458-3.121 0-5.771-1.99-6.77-4.768l-3.913 3.015c1.986 3.886 6.019 6.553 10.683 6.553v0z"></path>
<path fill="#1976d2" d="M27.767 13.65h-0.967v-0.050h-10.8v4.8h6.782c-0.475 1.342-1.339 2.5-2.452 3.343 0.001-0.001 0.001-0.001 0.002-0.001l3.714 3.143c-0.263 0.239 3.955-2.884 3.955-8.884 0-0.805-0.083-1.59-0.233-2.35z"></path>
</svg>
