<?xml version="1.0" encoding="UTF-8"?>
<svg viewBox="0 0 32 32" version="1.1" xmlns="http://www.w3.org/2000/svg" xmlns:xlink="http://www.w3.org/1999/xlink">
<title>connect</title>
<path d="M23.344 16.945c-0.392-0.305-0.96-0.277-1.32 0.083v0l-0.083 0.094c-0.305 0.392-0.277 0.96 0.083 1.32v0l2.562 2.563-11.633-0.005c-0.497 0.058-0.883 0.48-0.883 0.993 0 0.552 0.448 1 1 1v0l11.518 0.012-2.564 2.565-0.083 0.094c-0.305 0.392-0.277 0.96 0.083 1.32 0.391 0.391 1.024 0.391 1.414 0v0l4.271-4.271 0.083-0.094c0.305-0.392 0.277-0.96-0.083-1.32v0l-4.271-4.271zM8.654 4.962l-0.094 0.083-4.271 4.271c-0.36 0.36-0.388 0.928-0.083 1.32l0.083 0.094 4.271 4.271c0.391 0.391 1.024 0.391 1.414 0 0.36-0.36 0.388-0.928 0.083-1.32l-0.083-0.094-2.564-2.565 12.586-0.012c0.552 0 1-0.448 1-1 0-0.513-0.386-0.935-0.883-0.993l-0.117-0.007-12.584 0.012 2.562-2.563c0.36-0.36 0.388-0.928 0.083-1.32l-0.083-0.094c-0.36-0.36-0.928-0.388-1.32-0.083z"></path>
</svg>
