<?xml version="1.0" encoding="UTF-8"?>
<svg viewBox="0 0 32 32" version="1.1" xmlns="http://www.w3.org/2000/svg" xmlns:xlink="http://www.w3.org/1999/xlink">
<title>transfer-call</title>
<path d="M15.998 19.956c-0.011 0.453 0.060 0.432-0.433 0.556-0.803 0.208-1.633 0.268-2.456 0.314-1.313 0.075-2.63 0.133-3.946 0.156-2.256 0.038-4.513 0.035-6.758-0.236-0.376-0.046-0.746-0.141-1.114-0.239-0.108-0.029-0.194-0.144-0.291-0.222v-0.706c0.011-0.046 0.023-0.095 0.031-0.141 0.046-0.242 0.071-0.487 0.137-0.721 0.222-0.784 0.729-1.349 1.407-1.776 0.644-0.407 1.359-0.666 2.048-0.977 0.618-0.277 1.222-0.588 1.835-0.882 0.103-0.049 0.131-0.118 0.128-0.231-0.009-0.285-0.006-0.568 0-0.853 0-0.101-0.029-0.167-0.111-0.234-0.422-0.332-0.758-0.738-1.009-1.211-0.544-1.027-0.652-2.114-0.425-3.241 0.199-0.972 0.627-1.822 1.373-2.491 1.274-1.139 3.143-1.087 4.336 0.13 0.883 0.9 1.282 2.013 1.313 3.258 0.037 1.445-0.444 2.67-1.593 3.596-0.040 0.032-0.066 0.11-0.066 0.164-0.009 0.297 0 0.597-0.006 0.897-0.003 0.101 0.028 0.164 0.12 0.208 0.561 0.265 1.117 0.542 1.681 0.799 0.672 0.306 1.362 0.574 2.023 0.9 0.65 0.32 1.177 0.796 1.479 1.476 0.242 0.545 0.311 1.122 0.293 1.71zM30.702 24.247c0.242 0.545 0.311 1.122 0.296 1.707-0.011 0.45 0.060 0.432-0.436 0.559-0.803 0.208-1.632 0.268-2.456 0.314-1.313 0.075-2.629 0.133-3.945 0.156-2.256 0.038-4.512 0.035-6.757-0.236-0.376-0.046-0.746-0.141-1.114-0.239-0.108-0.029-0.194-0.144-0.291-0.222v-0.706c0.011-0.046 0.023-0.095 0.031-0.141 0.046-0.242 0.071-0.487 0.137-0.721 0.222-0.784 0.729-1.349 1.407-1.776 0.644-0.407 1.359-0.666 2.048-0.977 0.618-0.277 1.222-0.588 1.835-0.882 0.103-0.049 0.131-0.118 0.128-0.231-0.006-0.285-0.006-0.568 0-0.853 0-0.101-0.029-0.167-0.111-0.234-0.422-0.332-0.758-0.738-1.008-1.211-0.544-1.026-0.652-2.114-0.424-3.241 0.199-0.972 0.627-1.822 1.373-2.491 1.273-1.139 3.142-1.087 4.336 0.13 0.883 0.9 1.282 2.013 1.313 3.258 0.037 1.445-0.444 2.67-1.592 3.596-0.040 0.032-0.066 0.11-0.066 0.164-0.009 0.3 0 0.597-0.006 0.897-0.003 0.101 0.029 0.164 0.12 0.208 0.561 0.265 1.117 0.542 1.681 0.799 0.672 0.306 1.362 0.574 2.023 0.9 0.649 0.32 1.176 0.796 1.478 1.476l0 0zM13.996 6.080c-0.377 0.119-0.776-0.076-0.933-0.448-0.18-0.439 0.042-0.937 0.481-1.079 1.296-0.419 3.451-0.733 5.761 0.358 0.407 0.192 0.77 0.445 1.099 0.739l2.597-1.65-0.242 6.546c-0.056 0.39-0.486 0.582-0.798 0.361l-5.061-3.026 2.012-1.28c-0.132-0.084-0.264-0.16-0.402-0.227-1.838-0.873-3.434-0.64-4.513-0.294l-0-0z"></path>
</svg>
