<?xml version="1.0" encoding="UTF-8"?>
<svg viewBox="0 0 32 32" version="1.1" xmlns="http://www.w3.org/2000/svg" xmlns:xlink="http://www.w3.org/1999/xlink">
<title>screenshare_border</title>
<path d="M27 5c1.054 0 1.918 0.816 1.994 1.851l0.006 0.149v18h2c0.552 0 1 0.448 1 1 0 0.513-0.386 0.936-0.883 0.993l-0.117 0.007h-30c-0.552 0-1-0.448-1-1 0-0.513 0.386-0.936 0.883-0.993l0.117-0.007h2v-18c0-1.054 0.816-1.918 1.851-1.995l0.149-0.005h22zM27 7h-22v18h22v-18zM16.613 10.21l0.094 0.083 4.657 4.657c0.39 0.391 0.39 1.024 0 1.414-0.36 0.36-0.928 0.388-1.32 0.083l-0.094-0.083-2.951-2.95 0.001 7.586c0 0.552-0.448 1-1 1s-1-0.448-1-1l-0.001-7.586-2.949 2.95c-0.391 0.39-1.024 0.39-1.414 0-0.361-0.36-0.388-0.928-0.083-1.32l0.083-0.094 4.657-4.657c0.361-0.361 0.928-0.388 1.32-0.083z"></path>
</svg>
