<?xml version="1.0" encoding="UTF-8"?>
<svg viewBox="0 0 32 32" version="1.1" xmlns="http://www.w3.org/2000/svg" xmlns:xlink="http://www.w3.org/1999/xlink">
<title>rec-transcipt_sp</title>
<path d="M12.571 8c4.418 0 8 3.582 8 8s-3.582 8-8 8c-4.418 0-8-3.582-8-8s3.582-8 8-8zM25.143 19.429v2.286h-3.429v-2.286h3.429zM12.571 10.286c-3.156 0-5.714 2.558-5.714 5.714s2.558 5.714 5.714 5.714c3.156 0 5.714-2.558 5.714-5.714s-2.558-5.714-5.714-5.714zM12.571 12c2.209 0 4 1.791 4 4s-1.791 4-4 4c-2.209 0-4-1.791-4-4s1.791-4 4-4zM27.429 14.857v2.286h-5.714v-2.286h5.714zM27.429 10.286v2.286h-5.714v-2.286h5.714z"></path>
</svg>
