<?xml version="1.0" encoding="UTF-8"?>
<svg viewBox="0 0 32 32" version="1.1" xmlns="http://www.w3.org/2000/svg" xmlns:xlink="http://www.w3.org/1999/xlink">
<title>stripe</title>
<path d="M2 2v28h28v-28h-28zM19.932 22.643c-0.968 0.775-2.402 1.182-4.126 1.182-2.169 0-4.261-0.659-5.384-1.298l0.581-3.622c1.317 0.775 3.331 1.375 4.552 1.375 0.988 0 1.53-0.368 1.53-1.007 0-0.659-0.562-1.085-2.247-1.685-2.615-0.949-4.222-2.072-4.222-4.707 0-1.453 0.523-2.653 1.53-3.486 0.968-0.794 2.324-1.22 3.951-1.22 2.305 0 3.971 0.639 4.784 1.027l-0.581 3.583c-1.027-0.504-2.518-1.065-3.971-1.065-0.794 0-1.24 0.31-1.24 0.852 0 0.639 0.775 1.046 2.189 1.569 2.653 0.949 4.3 2.072 4.3 4.765 0 1.627-0.562 2.886-1.646 3.738v-0z"></path>
</svg>
