<?xml version="1.0" encoding="UTF-8"?>
<svg viewBox="0 0 32 32" version="1.1" xmlns="http://www.w3.org/2000/svg" xmlns:xlink="http://www.w3.org/1999/xlink">
<title>us-flag-tcr</title>
<path fill="#f0f0f0" d="M16 32c8.837 0 16-7.163 16-16s-7.163-16-16-16c-8.837 0-16 7.163-16 16s7.163 16 16 16z"></path>
<path fill="#d80027" d="M15.304 16h16.696c0-1.444-0.193-2.843-0.551-4.174h-16.144v4.174z"></path>
<path fill="#d80027" d="M15.304 7.651h14.347c-0.979-1.598-2.232-3.011-3.692-4.174h-10.655v4.174z"></path>
<path fill="#d80027" d="M16 32c3.766 0 7.227-1.302 9.96-3.478h-19.919c2.733 2.177 6.194 3.478 9.96 3.478z"></path>
<path fill="#d80027" d="M2.348 24.346h27.303c0.786-1.283 1.396-2.686 1.797-4.174h-30.898c0.401 1.488 1.011 2.891 1.797 4.174z"></path>
<path fill="#0052b4" d="M7.412 2.499h1.458l-1.356 0.985 0.518 1.594-1.356-0.985-1.356 0.985 0.447-1.377c-1.194 0.995-2.241 2.16-3.103 3.459h0.467l-0.863 0.627c-0.135 0.224-0.264 0.452-0.387 0.684l0.412 1.269-0.769-0.559c-0.191 0.405-0.366 0.819-0.523 1.242l0.454 1.398h1.676l-1.356 0.985 0.518 1.594-1.356-0.985-0.812 0.59c-0.081 0.654-0.124 1.319-0.124 1.995h16c0-8.836 0-9.878 0-16-3.161 0-6.107 0.917-8.588 2.499zM8.031 14.4l-1.356-0.985-1.356 0.985 0.518-1.594-1.356-0.985h1.676l0.518-1.594 0.518 1.594h1.676l-1.356 0.985 0.518 1.594zM7.513 8.145l0.518 1.594-1.356-0.985-1.356 0.985 0.518-1.594-1.356-0.985h1.676l0.518-1.594 0.518 1.594h1.676l-1.356 0.985zM13.771 14.4l-1.356-0.985-1.356 0.985 0.518-1.594-1.356-0.985h1.676l0.518-1.594 0.518 1.594h1.676l-1.356 0.985 0.518 1.594zM13.252 8.145l0.518 1.594-1.356-0.985-1.356 0.985 0.518-1.594-1.356-0.985h1.676l0.518-1.594 0.518 1.594h1.676l-1.356 0.985zM13.252 3.484l0.518 1.594-1.356-0.985-1.356 0.985 0.518-1.594-1.356-0.985h1.676l0.518-1.594 0.518 1.594h1.676l-1.356 0.985z"></path>
</svg>
