<?xml version="1.0" encoding="UTF-8"?>
<svg viewBox="0 0 32 32" version="1.1" xmlns="http://www.w3.org/2000/svg" xmlns:xlink="http://www.w3.org/1999/xlink">
<title>HourglassMD</title>
<path d="M27.2 4h-2.4v2.224c-0 2.715-1.241 5.139-3.186 6.738l-0.015 0.012-3.77 3.080 3.59 2.978c1.931 1.611 3.15 4.018 3.15 6.71 0 0 0 0.001 0 0.001v-0 2.258h2.63v2.4h-22.4v-2.4h2.4v-2.224c0-2.715 1.241-5.139 3.186-6.738l0.015-0.012 3.653-2.986-3.704-3.072c-1.931-1.611-3.15-4.018-3.15-6.71 0-0.001 0-0.002 0-0.003v0-2.256h-2.4v-2.4h22.4zM11.92 20.885c-1.42 1.167-2.319 2.924-2.32 4.891v2.224h12.57v-2.256c0-0 0-0.001 0-0.001 0-1.951-0.884-3.695-2.273-4.855l-0.010-0.008-3.95-3.28zM9.6 6.256c0 0 0 0.001 0 0.001 0 1.951 0.884 3.695 2.273 4.855l0.010 0.008 4.064 3.371 4.133-3.376c1.421-1.168 2.32-2.925 2.32-4.893 0-0 0-0.001 0-0.001v0-2.221h-12.8z"></path>
</svg>
