<?xml version="1.0" encoding="UTF-8"?>
<svg viewBox="0 0 32 32" version="1.1" xmlns="http://www.w3.org/2000/svg" xmlns:xlink="http://www.w3.org/1999/xlink">
<title>open-folder</title>
<path d="M29.004 19.489c0.489 0 0.896 0.352 0.98 0.817l0.016 0.179v5.976c0 0.55-0.446 0.996-0.996 0.996-0.489 0-0.896-0.352-0.98-0.817l-0.016-0.179-0.002-3.239-5.381 5.382c-0.389 0.389-1.020 0.389-1.409 0-0.346-0.346-0.384-0.882-0.115-1.271l0.115-0.138 5.715-5.717-3.904 0.002c-0.489 0-0.896-0.352-0.98-0.817l-0.016-0.179c0-0.489 0.352-0.896 0.817-0.98l0.179-0.016h5.976zM11.783 2.999c0.551 0 1.077 0.228 1.453 0.63l1.915 2.044c0.161 0.172 0.378 0.28 0.61 0.308l0.117 0.007h12.019c1.1 0 1.992 0.892 1.992 1.992l0.001 9.671c-0.57-0.646-1.242-1.198-1.992-1.632l-0.001-3.059h-23.905v10.957c0 0.55 0.446 0.996 0.996 0.996l11.208 0c0.182 0.707 0.459 1.376 0.816 1.993l-13.019-0.001c-1.1 0-1.992-0.892-1.992-1.992v-19.921c0-1.1 0.892-1.992 1.992-1.992h7.79zM10.919 4.991l-5.931-0c-0.55 0-0.996 0.446-0.996 0.996v4.98h23.905v-1.992c0-0.55-0.446-0.996-0.996-0.996l-11.374-0.021c-0.698-0.083-1.347-0.409-1.829-0.924l-1.325-1.414c-0.377-0.402-0.903-0.63-1.453-0.63z"></path>
</svg>
