<?xml version="1.0" encoding="UTF-8"?>
<svg viewBox="0 0 32 32" version="1.1" xmlns="http://www.w3.org/2000/svg" xmlns:xlink="http://www.w3.org/1999/xlink">
<title>pin-window</title>
<path d="M28.59 1.52c-0.906-0.903-2.156-1.462-3.536-1.462s-2.63 0.558-3.536 1.462l0-0c-0.898 0.904-1.452 2.149-1.452 3.524 0 0.955 0.268 1.848 0.732 2.607l-0.012-0.022-6.579 6.578 1.696 1.698 6.579-6.579c0.733 0.453 1.621 0.723 2.571 0.728h0.001c0.004 0 0.008 0 0.013 0 2.754 0 4.987-2.233 4.987-4.987 0-0.004 0-0.008 0-0.012v0.001c0-0.004 0-0.009 0-0.014 0-1.376-0.56-2.621-1.464-3.52l-0-0zM26.894 6.894c-0.471 0.472-1.122 0.763-1.842 0.763-1.437 0-2.603-1.165-2.603-2.603 0-0.718 0.291-1.368 0.761-1.839v0c0.471-0.472 1.123-0.764 1.842-0.764 1.438 0 2.603 1.166 2.603 2.603 0 0.718-0.291 1.368-0.761 1.839l-0.002-0zM27.138 13.486c0.040 1.022 0.061 2.194 0.061 3.514 0 11.061-1.232 12.2-13.198 12.2s-13.2-1.141-13.2-12.2c0-11.059 1.234-12.2 13.2-12.2h0.8v2.4h-0.8c-10.598 0-10.8 0.182-10.8 9.8s0.2 9.8 10.8 9.8c10.6 0 10.8-0.182 10.8-9.8 0-1.283-0.019-2.422-0.059-3.416l2.397-0.098z"></path>
</svg>
