<?xml version="1.0" encoding="UTF-8"?>
<svg viewBox="0 0 32 32" version="1.1" xmlns="http://www.w3.org/2000/svg" xmlns:xlink="http://www.w3.org/1999/xlink">
<title>unfold_less</title>
<path d="M11.050 27.621l4.95-4.95 4.95 4.95c0.391 0.391 1.024 0.391 1.414 0s0.391-1.024 0-1.414l-5.657-5.657c-0.391-0.391-1.024-0.391-1.414 0l-5.657 5.657c-0.391 0.391-0.391 1.024 0 1.414s1.024 0.391 1.414 0zM9.636 5.707l5.657 5.657c0.36 0.36 0.928 0.388 1.32 0.083l0.094-0.083 5.657-5.657c0.391-0.391 0.391-1.024 0-1.414-0.36-0.36-0.928-0.388-1.32-0.083l-0.094 0.083-4.95 4.95-4.95-4.95c-0.391-0.391-1.024-0.391-1.414 0-0.36 0.36-0.388 0.928-0.083 1.32l0.083 0.094z"></path>
</svg>
