<?xml version="1.0" encoding="UTF-8"?>
<svg viewBox="0 0 32 32" version="1.1" xmlns="http://www.w3.org/2000/svg" xmlns:xlink="http://www.w3.org/1999/xlink">
<title>Company-setup</title>
<path d="M18.999 2.012c1.054 0 1.918 0.816 1.994 1.851l0.006 0.149-0 23.988h0.997l0-18.988h6.007c1.054 0 1.918 0.816 1.994 1.851l0.006 0.149-0.001 16.988 0.114 0.007c0.497 0.058 0.883 0.48 0.883 0.993 0 0.551-0.446 0.998-0.997 1l0.001 0.012h-8.007l-0-0.012h-0.997l0 0.012-18.999-0.012c-0.552 0-1-0.448-1-1s0.448-1 1-1l0.006-0 0.001-23.988c0-1.054 0.816-1.918 1.851-1.994l0.149-0.006h14.993zM27.002 21.001h-2.005l-0.116 0.007c-0.496 0.058-0.881 0.48-0.881 0.993s0.385 0.936 0.881 0.993l0.116 0.007h2.005l0.116-0.007c0.496-0.058 0.881-0.48 0.881-0.993 0-0.552-0.447-1-0.998-1zM14.985 21l-7.089 0.007c-0.497 0.058-0.883 0.48-0.883 0.993s0.386 0.936 0.883 0.993l0.117 0.007 7.089-0.007c0.497-0.058 0.883-0.48 0.883-0.993 0-0.552-0.448-1-1-1zM27.002 15.001h-2.005l-0.116 0.007c-0.496 0.058-0.881 0.48-0.881 0.993s0.385 0.936 0.881 0.993l0.116 0.007h2.005l0.116-0.007c0.496-0.058 0.881-0.48 0.881-0.993 0-0.552-0.447-1-0.998-1zM14.985 15l-7.089 0.007c-0.497 0.058-0.883 0.48-0.883 0.993s0.386 0.936 0.883 0.993l0.117 0.007 7.089-0.007c0.497-0.058 0.883-0.48 0.883-0.993 0-0.552-0.448-1-1-1zM14.985 9.012l-7.089 0.007c-0.497 0.058-0.883 0.48-0.883 0.993s0.386 0.935 0.883 0.993l0.117 0.007 7.089-0.007c0.497-0.058 0.883-0.48 0.883-0.993 0-0.552-0.448-1-1-1z"></path>
</svg>
