<?xml version="1.0" encoding="UTF-8"?>
<svg viewBox="0 0 32 32" version="1.1" xmlns="http://www.w3.org/2000/svg" xmlns:xlink="http://www.w3.org/1999/xlink">
<title>bold</title>
<path d="M16.776 28c1.386 0 2.618-0.177 3.696-0.531s1.985-0.844 2.723-1.469c0.737-0.625 1.298-1.369 1.683-2.232s0.578-1.804 0.578-2.822c0-2.822-1.639-4.603-4.917-5.344 0.737-0.255 1.372-0.564 1.906-0.929s0.974-0.772 1.32-1.22c0.346-0.448 0.602-0.929 0.767-1.444s0.247-1.054 0.247-1.618c0-0.985-0.165-1.87-0.495-2.656s-0.85-1.455-1.559-2.008c-0.709-0.553-1.617-0.979-2.723-1.278s-2.439-0.448-4.001-0.448h-6.233c-1.105 0-2 0.901-2 2.012v19.976c0 1.111 0.895 2.012 2 2.012h7.009zM12.205 14.39v-6.938h3.795c1.496 0 2.596 0.266 3.3 0.797s1.056 1.422 1.056 2.672c0 1.206-0.39 2.086-1.172 2.639s-1.925 0.83-3.432 0.83h-3.547zM12.205 24.515v-7.037h4.488c0.781 0 1.447 0.077 1.997 0.232s1.001 0.379 1.353 0.672c0.352 0.293 0.611 0.647 0.776 1.062s0.247 0.882 0.247 1.402c0 0.498-0.074 0.968-0.223 1.411s-0.39 0.83-0.726 1.162c-0.335 0.332-0.781 0.598-1.337 0.797s-1.246 0.299-2.071 0.299h-4.505z"></path>
</svg>
