<?xml version="1.0" encoding="UTF-8"?>
<svg viewBox="0 0 32 32" version="1.1" xmlns="http://www.w3.org/2000/svg" xmlns:xlink="http://www.w3.org/1999/xlink">
<title>leave-meeting</title>
<path d="M30.825 21.116c-0.709 0.584-1.693 0.918-2.674 0.85l-0.245-0.026-5.332-0.752c-1.588-0.217-2.603-1.034-2.697-2.177l-0.007-0.193 0.012-0.872c-0.012-0.608-0.388-0.945-1.403-1.042-0.781-0.075-1.771-0.122-2.5-0.125-0.902-0.004-2.056 0.041-2.932 0.102-0.971 0.063-1.344 0.371-1.386 0.911l-0.004 0.119 0.014 0.879c0.032 1.172-0.88 2.012-2.406 2.298l-0.26 0.042-4.872 0.709c-1.326 0.187-2.23-0.088-2.998-0.72-0.534-0.44-0.936-1.186-1.084-1.909l-0.040-0.24-0.011-0.279c-0.003-1.909 0.587-3.357 2.115-4.616 3.28-2.703 7.246-4.015 13.718-4.074 6.49-0.058 10.759 1.396 13.733 3.847 1.814 1.495 2.359 2.83 2.428 4.743l0.007 0.307-0.073 0.451c-0.146 0.7-0.543 1.306-1.102 1.767z"></path>
</svg>
