<?xml version="1.0" encoding="UTF-8"?>
<svg viewBox="0 0 32 32" version="1.1" xmlns="http://www.w3.org/2000/svg" xmlns:xlink="http://www.w3.org/1999/xlink">
<title>highlight</title>
<path d="M20.701 10.969l8.394 1.186c0.578 0.084 0.982 0.604 0.893 1.167-0.033 0.225-0.142 0.431-0.307 0.588l-6.073 5.757 1.435 8.13c0.099 0.559-0.288 1.090-0.863 1.186-0.228 0.038-0.466 0.003-0.671-0.103l-7.508-3.838-7.508 3.838c-0.175 0.090-0.371 0.13-0.568 0.116s-0.386-0.081-0.546-0.194c-0.16-0.113-0.284-0.267-0.358-0.445s-0.096-0.372-0.062-0.561l1.435-8.13-6.073-5.757c-0.201-0.191-0.316-0.451-0.32-0.724s0.104-0.536 0.3-0.732c0.162-0.161 0.374-0.267 0.605-0.299l8.394-1.186 3.752-7.397c0.261-0.508 0.896-0.717 1.418-0.466 0.208 0.1 0.377 0.264 0.479 0.466l3.752 7.397z"></path>
</svg>
