<?xml version="1.0" encoding="UTF-8"?>
<svg viewBox="0 0 32 32" version="1.1" xmlns="http://www.w3.org/2000/svg" xmlns:xlink="http://www.w3.org/1999/xlink">
<title>admin_settings</title>
<path d="M19.6 2.498c0.263-0.417 0.785-0.599 1.257-0.44 1.766 0.593 3.4 1.507 4.822 2.688 0.357 0.296 0.477 0.786 0.297 1.21-0.514 1.206-0.437 2.578 0.241 3.731 0.721 1.226 2 1.996 3.411 2.095 0.467 0.033 0.858 0.359 0.966 0.806 0.269 1.108 0.406 2.252 0.406 3.413s-0.137 2.304-0.405 3.414c-0.108 0.448-0.5 0.774-0.967 0.807-1.412 0.098-2.69 0.869-3.411 2.095-0.678 1.153-0.755 2.526-0.241 3.731 0.18 0.423 0.060 0.913-0.296 1.209-1.421 1.181-3.054 2.096-4.821 2.69-0.467 0.157-0.983-0.020-1.249-0.428-0.783-1.2-2.13-1.939-3.608-1.939s-2.825 0.739-3.61 1.939c-0.266 0.407-0.781 0.584-1.248 0.427-1.765-0.592-3.399-1.505-4.821-2.687-0.357-0.296-0.477-0.786-0.297-1.21 0.514-1.206 0.437-2.578-0.241-3.73-0.721-1.226-2-1.997-3.411-2.096-0.467-0.033-0.858-0.359-0.966-0.806-0.269-1.108-0.406-2.252-0.406-3.413s0.137-2.304 0.405-3.414c0.108-0.448 0.5-0.774 0.967-0.807 1.412-0.098 2.69-0.868 3.411-2.094 0.678-1.153 0.755-2.526 0.242-3.732-0.18-0.423-0.060-0.913 0.296-1.209 1.421-1.181 3.055-2.095 4.821-2.688 0.467-0.157 0.982 0.020 1.249 0.428 0.783 1.2 2.13 1.939 3.608 1.939 1.458 0 2.789-0.718 3.563-1.866l0.037-0.061zM22.356 22.737c-1.474-1.679-3.795-2.737-6.357-2.737s-4.883 1.059-6.357 2.738c-0.38 0.433-0.218 1.084 0.281 1.372 0.462 0.267 1.046 0.12 1.419-0.262 1.1-1.128 2.777-1.849 4.657-1.849s3.556 0.721 4.655 1.848c0.373 0.382 0.958 0.53 1.421 0.263 0.499-0.288 0.66-0.94 0.28-1.373zM21 13c-0-2.761-2.239-5-5-5s-5 2.239-5 5c0 2.761 2.239 5 5 5s5-2.239 5-5z"></path>
</svg>
