<?xml version="1.0" encoding="UTF-8"?>
<svg viewBox="0 0 32 32" version="1.1" xmlns="http://www.w3.org/2000/svg" xmlns:xlink="http://www.w3.org/1999/xlink">
<title>onedrive</title>
<path d="M27.933 18.397v0c1.492 0.535 2.193 1.659 2.065 3.311-0.083 1.081-0.586 1.944-1.386 2.372l-0.375 0.201-8.349 0.016c-6.415 0.013-8.454-0.010-8.806-0.098-1.695-0.424-2.64-1.774-2.643-3.777-0.001-0.64 0.045-0.947 0.205-1.359 0.391-1.009 1.427-1.771 2.789-2.051 0.678-0.14 0.887-0.289 0.887-0.636 0-0.109 0.081-0.433 0.179-0.72 0.448-1.304 1.278-2.392 2.164-2.837 0.928-0.465 1.396-0.57 2.519-0.565 1.594 0.008 2.389 0.355 3.501 1.525l0.611 0.644 0.548-0.19c2.652-0.92 5.296 0.645 5.509 3.261l0.058 0.715 0.522 0.188zM7.729 22.665c0.099 0.194 0.154 0.379 0.123 0.411-0.081 0.081-2.67 0.053-3.028-0.032-0.99-0.236-2.038-1.111-2.53-2.113-0.279-0.568-0.294-0.651-0.294-1.656 0-0.956 0.024-1.11 0.246-1.584 0.468-1 1.365-1.723 2.491-2.007 0.237-0.060 0.46-0.156 0.496-0.213s0.074-0.367 0.087-0.689c0.079-2.001 1.39-3.765 3.22-4.332 0.989-0.305 2.232-0.23 3.307 0.2 0.341 0.137 0.303 0.167 1.024-0.781 0.427-0.56 1.289-1.258 1.995-1.613 0.761-0.383 1.553-0.559 2.5-0.557 2.648 0.007 4.929 1.665 5.772 4.197 0.27 0.808 0.256 1.035-0.062 1.042-0.139 0.003-0.536 0.080-0.883 0.17l-0.631 0.165-0.576-0.577c-1.624-1.626-4.274-1.978-6.527-0.866-0.9 0.444-1.623 1.083-2.169 1.914-0.39 0.592-0.886 1.699-0.886 1.973 0 0.194-0.157 0.292-0.83 0.513-2.082 0.683-3.297 2.262-3.296 4.283 0 0.736 0.19 1.636 0.452 2.151z"></path>
</svg>
