<?xml version="1.0" encoding="UTF-8"?>
<svg viewBox="0 0 32 32" version="1.1" xmlns="http://www.w3.org/2000/svg" xmlns:xlink="http://www.w3.org/1999/xlink">
<title>partner_cloud_contact</title>
<path d="M28 3c1.105 0 2 0.895 2 2v22c0 1.105-0.895 2-2 2h-20.014v-26h20.014zM5.971 3v26h-1.971c-1.105 0-2-0.895-2-2v-22c0-1.105 0.895-2 2-2h1.971zM23.995 17.014h-10.013c-1.105 0-2 0.895-2 2v0 5.047h14.013v-5.047c0-1.105-0.895-2-2-2v0zM19 7c-2.209 0-4 1.791-4 4s1.791 4 4 4c2.209 0 4-1.791 4-4s-1.791-4-4-4z"></path>
</svg>
