<?xml version="1.0" encoding="UTF-8"?>
<svg viewBox="0 0 32 32" version="1.1" xmlns="http://www.w3.org/2000/svg" xmlns:xlink="http://www.w3.org/1999/xlink">
<title>mark-reply-as-unread</title>
<path d="M14.368 6.667c0.455 0 0.842 0.158 1.161 0.474 0.292 0.29 0.466 0.634 0.521 1.033l0.012 0.11v4.249c0 0.224 0.168 0.409 0.383 0.433l0.047 0.003h0.445c1.53 0 2.96 0.297 4.289 0.892 1.348 0.595 2.522 1.408 3.524 2.44s1.794 2.235 2.377 3.611c0.55 1.317 0.841 2.708 0.872 4.174l0.003 0.259v2.649c0 0.52-0.25 0.809-0.751 0.864s-0.815-0.177-0.942-0.697c-0.164-0.762-0.446-1.469-0.847-2.119-0.401-0.669-0.883-1.241-1.448-1.715s-1.202-0.86-1.912-1.157c-0.629-0.253-1.296-0.399-2-0.438l-0.212-0.008h-3.395c-0.221 0-0.404 0.17-0.427 0.388l-0.003 0.047v4.082c0 0.242-0.041 0.469-0.123 0.683s-0.205 0.404-0.369 0.572c-0.286 0.292-0.63 0.457-1.032 0.495l-0.102 0.007-0.11 0.002c-0.327-0.005-0.621-0.093-0.882-0.265l-0.086-0.060-0.083-0.067-8.769-9.035c-0.328-0.316-0.496-0.702-0.505-1.157-0.008-0.418 0.102-0.792 0.331-1.124l0.065-0.089 8.769-9.007c0.164-0.167 0.351-0.297 0.56-0.39s0.423-0.139 0.642-0.139zM14.061 9.143l-7.973 8.189 7.973 8.216 0.003-3.494 0.011-0.154c0.124-1.16 1.054-2.069 2.21-2.167l0.206-0.009 3.473 0.002 0.243 0.010c0.921 0.050 1.804 0.243 2.664 0.59 0.894 0.374 1.705 0.865 2.426 1.47 0.105 0.088 0.208 0.179 0.309 0.273l0.163 0.158-0.069-0.296c-0.073-0.282-0.159-0.559-0.258-0.832l-0.159-0.406c-0.487-1.15-1.142-2.146-1.97-2.998-0.821-0.846-1.783-1.512-2.906-2.008-0.936-0.419-1.934-0.654-3.007-0.707l-0.465-0.011-0.554-0.003-0.156-0.012c-1.165-0.128-2.060-1.067-2.156-2.216l-0.008-0.205-0-3.391zM24.667 2.667c2.577 0 4.667 2.089 4.667 4.667s-2.089 4.667-4.667 4.667c-2.577 0-4.667-2.089-4.667-4.667s2.089-4.667 4.667-4.667zM24.667 4.533c-1.546 0-2.8 1.254-2.8 2.8s1.254 2.8 2.8 2.8c1.546 0 2.8-1.254 2.8-2.8s-1.254-2.8-2.8-2.8z"></path>
</svg>
