<?xml version="1.0" encoding="UTF-8"?>
<svg viewBox="0 0 32 32" version="1.1" xmlns="http://www.w3.org/2000/svg" xmlns:xlink="http://www.w3.org/1999/xlink">
<title>apps-installed</title>
<path d="M14.172 2c2.057 0 3.724 1.667 3.724 3.724v0.931h5.586c1.028 0 1.862 0.834 1.862 1.862v5.586h0.931c2.057 0 3.724 1.667 3.724 3.724s-1.667 3.724-3.724 3.724h-0.931v5.586c0 1.028-0.834 1.862-1.862 1.862h-5.586v-0.931c0-1.994-1.568-3.623-3.538-3.72l-0.186-0.005c-1.994 0-3.623 1.568-3.72 3.538l-0.005 0.186v0.931h-5.586c-1.028 0-1.862-0.834-1.862-1.862v-5.586h0.931c1.994 0 3.623-1.568 3.72-3.538l0.005-0.186c0-1.994-1.568-3.623-3.538-3.72l-0.186-0.005h-0.931v-5.586c0-1.028 0.834-1.862 1.862-1.862h5.586v-0.931c0-2.057 1.667-3.724 3.724-3.724z"></path>
</svg>
