<?xml version="1.0" encoding="UTF-8"?>
<svg viewBox="0 0 32 32" version="1.1" xmlns="http://www.w3.org/2000/svg" xmlns:xlink="http://www.w3.org/1999/xlink">
<title>Disposition</title>
<path d="M6.858 5.1l10.929 0.005c2.794 0.070 3.803 0.829 4.069 3.278l0.036 0.401c0.005 0.069 0.010 0.14 0.014 0.211l0.019 0.445c0.002 0.077 0.004 0.154 0.006 0.234l0.005 0.49c0 0.497-0.403 0.9-0.9 0.9s-0.9-0.403-0.9-0.9l-0.005-0.797-0.008-0.344-0.014-0.311-0.022-0.279-0.031-0.249c-0.137-0.899-0.503-1.17-1.474-1.251l-0.267-0.017-0.296-0.010-0.686-0.006h-10.473c-0.49 0-0.896 0.375-0.951 0.861l-0.006 0.114v16.773c0 0.503 0.372 0.915 0.846 0.971l0.111 0.007h9.918c0.497 0 0.9 0.403 0.9 0.9 0 0.459-0.343 0.837-0.787 0.893l-0.113 0.007h-9.918c-1.469 0-2.666-1.155-2.753-2.609l-0.005-0.169v-16.773c0-1.475 1.143-2.683 2.589-2.77l0.168-0.005z"></path>
<path d="M16.776 10.649c0.497 0 0.9 0.403 0.9 0.9 0 0.459-0.343 0.837-0.787 0.893l-0.113 0.007h-8.32c-0.497 0-0.9-0.403-0.9-0.9 0-0.459 0.343-0.837 0.787-0.893l0.113-0.007h8.32zM13.347 13.693c0.497 0 0.9 0.403 0.9 0.9 0 0.459-0.343 0.837-0.787 0.893l-0.113 0.007h-4.891c-0.497 0-0.9-0.403-0.9-0.9 0-0.459 0.343-0.837 0.787-0.893l0.113-0.007h4.891zM28.513 12.449l-3.421-3.274-9.026 9.154-0.604 4.309 4.299-0.888 8.753-9.301zM25.092 11.223l1.405 1.322-7.509 7.795-2.083 0.789 0.492-1.915 7.694-7.99z"></path>
<path d="M22.601 12.071c0.322-0.322 0.828-0.349 1.181-0.080l1.737 1.688c0.176 0.176 0.189 0.361 0.189 0.592s-0.063 0.461-0.239 0.636c-0.322 0.322-0.853 0.349-1.205 0.080l-1.663-1.644c-0.351-0.352-0.351-0.921 0-1.273z"></path>
</svg>
