<?xml version="1.0" encoding="UTF-8"?>
<svg viewBox="0 0 32 32" version="1.1" xmlns="http://www.w3.org/2000/svg" xmlns:xlink="http://www.w3.org/1999/xlink">
<title>statistics_border</title>
<path d="M28.552 1.014c1.376 0.14 2.448 1.301 2.448 2.714v24.545l-0.014 0.279c-0.13 1.284-1.151 2.304-2.435 2.435l-0.279 0.014-24.824-0.014c-1.284-0.13-2.304-1.151-2.435-2.435l-0.014-0.279v-24.545c0-1.413 1.073-2.574 2.448-2.714l0.279-0.014 24.824 0.014zM3.728 3c-0.402 0-0.728 0.325-0.728 0.728v18.099l6.852-6.852 0.076-0.068c0.392-0.32 0.971-0.298 1.337 0.067l4.159 4.143 8.158-8.128h-3.805c-0.552-0-1-0.448-1-1s0.448-1 1-1l6.324 0.005c0.504 0.051 0.898 0.477 0.898 0.995v6.223c-0 0.552-0.448 1-1 1s-1-0.448-1-1v-3.813l-8.869 8.84c-0.39 0.389-1.022 0.389-1.412 0l-4.158-4.144-7.561 7.56v3.618c0 0.402 0.325 0.728 0.728 0.728h24.545c0.402 0 0.728-0.325 0.728-0.728v-24.545c0-0.402-0.325-0.728-0.728-0.728h-24.545z"></path>
</svg>
