<?xml version="1.0" encoding="UTF-8"?>
<svg viewBox="0 0 32 32" version="1.1" xmlns="http://www.w3.org/2000/svg" xmlns:xlink="http://www.w3.org/1999/xlink">
<title>ai-sparkles</title>
<path d="M27.943 5.806c-0.849-0.241-1.505-0.899-1.761-1.767l-0.272-0.931c-0.048-0.144-0.288-0.144-0.32 0l-0.272 0.931c-0.24 0.851-0.897 1.51-1.761 1.767l-0.725 0.213c-0.013 0.004-0.028 0.008-0.042 0.012-0.13 0.037-0.29 0.082-0.29 0.208 0 0.080 0.048 0.145 0.128 0.161l0.929 0.273c0.849 0.241 1.505 0.899 1.761 1.767l0.213 0.727c0.004 0.014 0.008 0.028 0.012 0.043 0.036 0.13 0.081 0.29 0.207 0.29 0.080 0 0.144-0.048 0.16-0.129l0.272-0.931c0.24-0.851 0.897-1.51 1.761-1.767l0.724-0.213c0.013-0.004 0.027-0.008 0.042-0.012h0c0.131-0.037 0.29-0.082 0.29-0.209 0-0.080-0.048-0.144-0.128-0.161l-0.928-0.273zM3.356 13.738l2.618 0.739c2.389 0.688 4.245 2.524 4.931 4.945l0.737 2.625c0.051 0.204 0.254 0.357 0.457 0.357s0.407-0.153 0.458-0.357l0.737-2.625c0.686-2.396 2.542-4.257 4.931-4.945l2.618-0.739c0.203-0.051 0.356-0.255 0.356-0.459s-0.152-0.408-0.356-0.459l-2.618-0.739c-2.389-0.688-4.245-2.524-4.931-4.945l-0.737-2.626c-0.127-0.408-0.813-0.408-0.915 0l-0.737 2.626c-0.686 2.396-2.542 4.257-4.931 4.945l-2.618 0.739c-0.203 0.051-0.356 0.255-0.356 0.459s0.153 0.408 0.356 0.459zM25.875 23.864l-1.396-0.401c-1.282-0.373-2.266-1.358-2.639-2.642l-0.403-1.403c-0.060-0.224-0.432-0.224-0.492 0l-0.402 1.403c-0.373 1.284-1.357 2.284-2.639 2.642l-1.401 0.403c-0.104 0.030-0.179 0.134-0.179 0.254s0.075 0.209 0.179 0.254l1.401 0.403c1.282 0.373 2.266 1.358 2.639 2.642l0.402 1.403c0.030 0.105 0.134 0.179 0.253 0.179s0.209-0.075 0.253-0.179l0.403-1.403c0.373-1.284 1.357-2.269 2.639-2.642l1.401-0.403c0.104-0.030 0.179-0.134 0.179-0.254 0-0.116-0.071-0.204-0.171-0.25-0.005-0.002-0.011-0.004-0.017-0.004-0.004 0-0.008-0.001-0.012-0.002z"></path>
</svg>
