<?xml version="1.0" encoding="UTF-8"?>
<svg viewBox="0 0 32 32" version="1.1" xmlns="http://www.w3.org/2000/svg" xmlns:xlink="http://www.w3.org/1999/xlink">
<title>cloud_contact</title>
<path d="M16 2c7.732 0 14 6.268 14 14s-6.268 14-14 14c-7.732 0-14-6.268-14-14s6.268-14 14-14zM23 9h-14c-0.552 0-1 0.448-1 1v0 9c0 0.552 0.448 1 1 1v0h2.793c0.133 0 0.26 0.053 0.354 0.146v0l3.571 5.571c0.156 0.156 0.41 0.156 0.566 0v0l3.571-5.571c0.094-0.094 0.221-0.146 0.354-0.146v0h2.793c0.552 0 1-0.448 1-1v0-9c0-0.552-0.448-1-1-1v0z"></path>
</svg>
