<?xml version="1.0" encoding="UTF-8"?>
<svg viewBox="0 0 32 32" version="1.1" xmlns="http://www.w3.org/2000/svg" xmlns:xlink="http://www.w3.org/1999/xlink">
<title>change-length</title>
<path d="M12.523 23.373c0.391-0.391 0.391-1.024 0-1.415s-1.023-0.391-1.412 0l-1.627 1.627v-15.172l1.627 1.627c0.195 0.196 0.451 0.293 0.707 0.293s0.512-0.099 0.707-0.293c0.391-0.391 0.391-1.024 0-1.415l-3.333-3.333c-0.092-0.092-0.203-0.165-0.325-0.216-0.244-0.101-0.52-0.101-0.764 0-0.123 0.051-0.234 0.124-0.326 0.216l-3.333 3.333c-0.391 0.391-0.391 1.024 0 1.415s1.024 0.391 1.415 0l1.627-1.627v15.172l-1.627-1.627c-0.391-0.391-1.024-0.391-1.415 0s-0.391 1.024 0 1.415l3.333 3.333c0.092 0.092 0.201 0.166 0.324 0.216s0.252 0.077 0.383 0.077 0.261-0.026 0.383-0.077c0.121-0.051 0.232-0.124 0.324-0.216l3.333-3.333z"></path>
<path d="M18.821 18c-0.552 0-1 0.448-1 1s0.448 1 1 1h8c0.552 0 1-0.448 1-1s-0.448-1-1-1h-8z"></path>
<path d="M15.821 25.060c0-0.552 0.448-1 1-1h10c0.552 0 1 0.448 1 1s-0.448 1-1 1h-10c-0.552 0-1-0.448-1-1z"></path>
<path d="M16.821 12c-0.552 0-1 0.448-1 1s0.448 1 1 1h10c0.552 0 1-0.448 1-1s-0.448-1-1-1h-10z"></path>
</svg>
