<?xml version="1.0" encoding="UTF-8"?>
<svg viewBox="0 0 32 32" version="1.1" xmlns="http://www.w3.org/2000/svg" xmlns:xlink="http://www.w3.org/1999/xlink">
<title>add-team_border</title>
<path d="M27 19c0.552 0 1 0.448 1 1v3h3c0.552 0 1 0.448 1 1s-0.448 1-1 1h-3.001l0.001 3c0 0.552-0.448 1-1 1s-1-0.448-1-1l-0.001-3h-2.999c-0.552 0-1-0.448-1-1s0.448-1 1-1h3v-3c0-0.552 0.448-1 1-1zM8 19c0.9 0 1.769 0.13 2.582 0.373-0.483 0.543-0.909 1.127-1.267 1.747-0.423-0.079-0.863-0.12-1.315-0.12-3.081 0-5.619 1.935-5.961 4.426-0.039 0.285 0.052 0.557 0.324 0.574l0.1 0.003c0.444 0.008 2.176 0.007 5.195-0.002l0.341-0.001 0.009 0.271c0.036 0.538 0.178 1.046 0.406 1.505l0.121 0.225-6.536-0.001c-1.105 0-2-0.895-2-2 0-3.955 3.654-7 8-7zM21 17c1.216 0 2.392 0.161 3.495 0.461-0.925 0.355-1.755 0.9-2.443 1.587-0.345-0.032-0.696-0.048-1.052-0.048-4.791 0-8.708 2.912-8.984 6.584-0.014 0.182 0.063 0.364 0.201 0.407l0.063 0.009 8.010 0c0.215 0.723 0.544 1.396 0.965 2l-9.255-0c-1.105 0-2-0.895-2-2 0-5.096 5.019-9 11-9zM8 7c2.761 0 5 2.239 5 5s-2.239 5-5 5c-2.761 0-5-2.239-5-5s2.239-5 5-5zM21 3c3.314 0 6 2.686 6 6s-2.686 6-6 6c-3.314 0-6-2.686-6-6s2.686-6 6-6zM8 9c-1.657 0-3 1.343-3 3s1.343 3 3 3c1.657 0 3-1.343 3-3s-1.343-3-3-3zM21 5c-2.209 0-4 1.791-4 4s1.791 4 4 4c2.209 0 4-1.791 4-4s-1.791-4-4-4z"></path>
</svg>
