<?xml version="1.0" encoding="UTF-8"?>
<svg viewBox="0 0 32 32" version="1.1" xmlns="http://www.w3.org/2000/svg" xmlns:xlink="http://www.w3.org/1999/xlink">
<title>statistics</title>
<path d="M28.272 1c1.507 0 2.728 1.221 2.728 2.728v24.545c0 1.507-1.221 2.728-2.728 2.728h-24.545c-1.507 0-2.728-1.221-2.728-2.728v-1.619l9.56-9.56 4.158 4.144c0.39 0.389 1.022 0.389 1.412 0l8.87-8.841v3.814c0 0.552 0.448 1 1 1s1-0.448 1-1v-6.223c0-0.518-0.394-0.944-0.898-0.995l-0.102-0.005h-6.223c-0.552 0-1 0.448-1 1s0.448 1 1 1h3.805l-8.159 8.128-4.158-4.143c-0.366-0.365-0.946-0.388-1.338-0.067l-0.075 0.068-8.852 8.852v-20.099c0-1.507 1.221-2.728 2.728-2.728h24.545z"></path>
</svg>
