<?xml version="1.0" encoding="UTF-8"?>
<svg viewBox="0 0 32 32" version="1.1" xmlns="http://www.w3.org/2000/svg" xmlns:xlink="http://www.w3.org/1999/xlink">
<title>ai-writer-menu</title>
<path d="M19.541 6h1.507l1.083 2.815c0.167 0.433 0.205 0.516 0.25 0.58 0.052 0.074 0.116 0.138 0.19 0.19 0.064 0.045 0.147 0.083 0.58 0.25l2.815 1.083v1.507l-2.815 1.083c-0.433 0.167-0.516 0.205-0.58 0.25-0.074 0.052-0.138 0.117-0.19 0.19-0.045 0.064-0.084 0.147-0.25 0.58l-1.083 2.815h-1.507l-1.083-2.815c-0.167-0.433-0.205-0.516-0.25-0.58-0.052-0.074-0.117-0.138-0.19-0.19-0.064-0.045-0.147-0.083-0.58-0.25l-2.815-1.083v-1.507l2.815-1.083c0.433-0.167 0.516-0.205 0.58-0.25 0.074-0.052 0.138-0.117 0.19-0.19 0.045-0.064 0.084-0.147 0.25-0.58l1.083-2.815zM20.294 8.538l-0.329 0.856c-0.009 0.023-0.017 0.045-0.026 0.067-0.126 0.328-0.237 0.617-0.415 0.868-0.157 0.221-0.35 0.413-0.57 0.57-0.251 0.179-0.54 0.29-0.868 0.415-0.022 0.009-0.045 0.017-0.067 0.026l-0.856 0.329 0.856 0.329c0.023 0.009 0.045 0.017 0.067 0.026 0.328 0.126 0.617 0.237 0.868 0.415 0.221 0.157 0.413 0.35 0.57 0.57 0.179 0.251 0.29 0.54 0.415 0.868 0.008 0.022 0.017 0.045 0.026 0.067l0.329 0.856 0.329-0.856c0.009-0.023 0.017-0.045 0.026-0.067 0.126-0.328 0.237-0.617 0.415-0.868 0.157-0.221 0.35-0.413 0.57-0.57 0.251-0.179 0.54-0.29 0.868-0.415 0.022-0.009 0.045-0.017 0.067-0.026l0.856-0.329-0.856-0.329c-0.023-0.009-0.045-0.017-0.067-0.026-0.328-0.126-0.617-0.237-0.868-0.415-0.221-0.157-0.413-0.35-0.57-0.57-0.179-0.251-0.289-0.54-0.415-0.868-0.009-0.022-0.017-0.045-0.026-0.067l-0.329-0.856z"></path>
<path d="M8.426 15.835c0.233-0.273 0.573-0.442 0.952-0.442 0.304 0 0.581 0.108 0.798 0.289l6.010 5.277c0.174 0.148 0.308 0.348 0.38 0.576l0.788 2.528-2.623-0.353c-0.243-0.034-0.452-0.13-0.623-0.27l-6.021-5.285c-0.243-0.207-0.401-0.498-0.43-0.825l-0-0.008-0.001-0.011c-0.029-0.328 0.075-0.652 0.287-0.901l0.485-0.574zM10.986 14.744l0.243-0.286-0.003-0.003-0.001-0.001c-0.498-0.421-1.144-0.676-1.847-0.676-0.875 0-1.657 0.393-2.182 1.011l-0.485 0.574c-0.49 0.576-0.728 1.322-0.666 2.074l0 0.006 0.001 0.009c0.064 0.771 0.435 1.452 0.989 1.925l6.005 5.271 0.296-0.337-0.291 0.342 0.003 0.003c0.404 0.343 0.904 0.574 1.463 0.652l0.003 0 5.135 0.691-1.542-4.949c-0.162-0.514-0.465-0.972-0.87-1.318l-6.003-5.271-0.248 0.282z"></path>
</svg>
