<?xml version="1.0" encoding="UTF-8"?>
<svg viewBox="0 0 32 32" version="1.1" xmlns="http://www.w3.org/2000/svg" xmlns:xlink="http://www.w3.org/1999/xlink">
<title>mic-off_sp</title>
<path d="M23.686 13.822l1.714 0.071c-0.269 6.28-3.219 9.743-8.543 10.074v3.462h-1.714v-3.462c-1.819-0.114-3.361-0.593-4.614-1.425l1.504-1.129c1.088 0.581 2.411 0.873 3.967 0.873 4.862 0 7.447-2.848 7.686-8.464zM25.242 8.057l0.943 1.301-19.427 14.585-0.944-1.299 19.429-14.586zM14.489 19.568l6.572-4.934-0.047 0.437c-0.326 2.592-1.43 4.643-5.013 4.643-0.563 0-1.064-0.051-1.511-0.146zM8.314 13.822c0.081 1.895 0.428 3.475 1.040 4.736l-1.41 1.058c-0.794-1.524-1.247-3.437-1.345-5.723l1.714-0.071zM16 5.143c3.59 0 4.692 2.060 5.015 4.659l-9.573 7.188c-0.439-1.125-0.556-2.495-0.58-3.91l-0.004-0.876 0.010-0.673 0.026-0.665c0.004-0.073 0.008-0.146 0.013-0.219l0.034-0.433c0.013-0.143 0.029-0.285 0.046-0.425l0.060-0.415c0.393-2.393 1.564-4.229 4.953-4.229z"></path>
</svg>
