<?xml version="1.0" encoding="UTF-8"?>
<svg viewBox="0 0 32 32" version="1.1" xmlns="http://www.w3.org/2000/svg" xmlns:xlink="http://www.w3.org/1999/xlink">
<title>switchboard</title>
<path d="M17.954 3.672l-0.057 0.003-0.862-0.003-0.262 0.003-0.454 0.016c-0.068 0.004-0.133 0.008-0.195 0.014l-0.876 0.097c-0.901 0.102-1.466 0.207-2.054 0.422-1.026 0.376-1.754 0.993-2.677 2.081l-0.693 0.827-0.221 0.251-0.103 0.112c-0.42 0.448-0.795 0.931-1.265 1.602l-0.729 1.053-0.361 0.5c-1.139 1.525-1.723 2.556-2.008 3.851-0.414 1.882 0.133 2.976 1.956 3.647 0.408 0.15 0.814 0.231 1.351 0.288l1.274 0.103 1.866 0.091 0.345 0.024-0.178 0.308c-0.109 0.182-0.226 0.369-0.354 0.564l-0.371 0.549-1.474 2.098-0.646 0.96-0.413 0.628-0.367 0.573-0.337 0.544c-0.055 0.090-0.109 0.179-0.162 0.269-0.567 0.949-0.239 2.419 0.807 2.819 0.879 0.336 1.371 0.455 1.999 0.322 1.55-0.327 2.592-0.62 3.6-1.068 1.469-0.652 2.955-1.437 4.672-2.444l0.872-0.523c1.095-0.674 1.939-1.27 2.716-1.94l0.667-0.581 0.585-0.524c1.187-1.084 1.875-1.856 2.548-2.892 0.5-0.769 0.773-1.37 0.878-2.098 0.162-1.122-0.409-2.183-1.457-2.603-0.47-0.189-0.972-0.31-1.46-0.346l-0.988-0.058-1.608-0.070-0.521-0.030-0.036 0.171c0.063-0.367 0.194-0.714 0.361-0.95l0.521-0.722 1.578-2.1 0.539-0.738 0.462-0.666c0.53-0.784 0.794-1.549 0.642-2.298-0.197-0.972-1.017-1.573-2.271-1.791l-0.358-0.061-0.642-0.101-0.559-0.075c-0.175-0.021-0.339-0.039-0.497-0.053l-0.454-0.033c-0.147-0.008-0.29-0.014-0.432-0.017l-1.837-0.006z"></path>
</svg>
