<?xml version="1.0" encoding="UTF-8"?>
<svg viewBox="0 0 32 32" version="1.1" xmlns="http://www.w3.org/2000/svg" xmlns:xlink="http://www.w3.org/1999/xlink">
<title>phone-inbox</title>
<path d="M10 7c0.552 0 1 0.448 1 1 0 0.513-0.386 0.935-0.883 0.993l-0.117 0.007h-2.3l-3.273 9 4.745 0c0.729 0 1.431 0.266 1.977 0.743l0.145 0.136 1.828 1.828c0.156 0.156 0.359 0.256 0.576 0.284l0.131 0.009h4.343c0.221 0 0.434-0.073 0.608-0.206l0.099-0.087 1.828-1.828c0.516-0.516 1.2-0.824 1.923-0.872l0.198-0.006 4.744-0-3.272-9h-2.3c-0.552 0-1-0.448-1-1 0-0.513 0.386-0.936 0.883-0.993l0.117-0.007h2.3c0.788 0 1.498 0.462 1.82 1.171l0.059 0.145 3.761 10.342c0.027 0.073 0.044 0.149 0.053 0.226l0.007 0.116v7c0 1.054-0.816 1.918-1.851 1.994l-0.149 0.006h-24c-1.054 0-1.918-0.816-1.994-1.851l-0.006-0.149v-7c0-0.078 0.009-0.155 0.027-0.23l0.033-0.111 3.761-10.342c0.269-0.741 0.947-1.25 1.723-1.31l0.157-0.006h2.3zM16 2c0.552 0 1 0.448 1 1v10.999l1.95-1.949c0.391-0.391 1.024-0.391 1.414 0s0.391 1.024 0 1.414l-3.657 3.657c-0.391 0.391-1.024 0.391-1.414 0l-3.657-3.657c-0.391-0.391-0.391-1.024 0-1.414s1.024-0.391 1.414 0l1.95 1.951v-11.001c0-0.552 0.448-1 1-1z"></path>
</svg>
