<?xml version="1.0" encoding="UTF-8"?>
<svg viewBox="0 0 32 32" version="1.1" xmlns="http://www.w3.org/2000/svg" xmlns:xlink="http://www.w3.org/1999/xlink">
<title>call-list</title>
<path d="M6.185 11.773l1.148 3.329c0.13 0.367 0.050 0.712-0.326 0.928l-1.005 0.58c-0.961 0.555-1.055 1.421-0.724 2.377 0.228 0.657 0.717 1.604 1.27 2.563l0.278 0.473c0.464 0.775 0.928 1.472 1.312 1.917 0.657 0.755 1.454 1.107 2.415 0.552l1.005-0.58c0.376-0.217 0.715-0.114 0.967 0.182l2.224 2.561c0.733 0.806 0.399 1.477-0.606 2.057-0.909 0.525-1.846 0.576-2.845 0.317-2.547-0.679-5.070-3.234-6.828-6.279s-2.709-6.508-2.024-9.053c0.276-0.995 0.789-1.781 1.697-2.305 0.948-0.547 1.69-0.557 2.043 0.382zM29 24c0.552 0 1 0.448 1 1s-0.448 1-1 1h-10c-0.552 0-1-0.448-1-1s0.448-1 1-1h10zM29 15c0.552 0 1 0.448 1 1s-0.448 1-1 1h-16c-0.552 0-1-0.448-1-1s0.448-1 1-1h16zM29 6c0.552 0 1 0.448 1 1s-0.448 1-1 1h-26c-0.552 0-1-0.448-1-1s0.448-1 1-1h26z"></path>
</svg>
