<?xml version="1.0" encoding="UTF-8"?>
<svg viewBox="0 0 32 32" version="1.1" xmlns="http://www.w3.org/2000/svg" xmlns:xlink="http://www.w3.org/1999/xlink">
<title>whisper_sp</title>
<path d="M16.811 25.606l-0.22 0.001-0.26-0.007-0.367-0.024-0.099-0.011-0.239 1.697-0.039-0.004c0.015 0.002 0.021 0.002 0.019-0.001l-0.061-0.024-0.564-0.165-4.162-1.125c0.599-0.477 1.114-0.981 1.557-1.497l0.257-0.311 0.233-0.303 0.197-0.274 0.21-0.313-0.049 0.076c0.147-0.223 0.282-0.446 0.407-0.668l0.174-0.321 0.141-0.28 0.080-0.167c0.095-0.202 0.181-0.402 0.261-0.6 0.076-0.187 0.145-0.371 0.208-0.552l0.085-0.252c0.111-0.339 0.203-0.666 0.281-0.977l0.1-0.425 0.111-0.544 0.059-0.326 0.164-0.982c0.026-0.152 0.307-0.37 0.743-0.37 0.401 0 0.683 0.191 0.741 0.348l0.011 0.057 0.002 4.775 0.75 0.095c0.402 0.050 1.632 0.343 1.993 1.014 0.183 0.342 0.127 0.815-0.165 1.405-0.033 0.068-0.072 0.132-0.115 0.191l-0.103 0.125-0.040 0.041-0.123 0.11-0.097 0.073-0.137 0.087-0.207 0.105-0.169 0.069-0.166 0.056-0.212 0.058-0.318 0.064-0.205 0.030-0.162 0.018-0.137 0.012-0.37 0.017zM16 5.143c5.681 0 10.286 4.605 10.286 10.286 0 3.749-2.006 7.029-5.003 8.827 0.164-0.777 0.022-1.38-0.179-1.806l-0.062-0.122c-0.532-0.982-1.595-1.467-2.376-1.699l-0.163-0.046v-3.32c0-1.169-1.105-2.119-2.464-2.119-1.157 0-2.135 0.669-2.393 1.613l-0.038 0.169-0.202 1.2-0.081 0.417-0.099 0.443c-0.365 1.518-1.093 3.416-2.835 5.063-2.817-1.834-4.677-5.010-4.677-8.621 0-5.681 4.605-10.286 10.286-10.286zM20.286 11.893c-0.691 0-1.251 0.56-1.251 1.251 0 0.599 0.421 1.099 0.983 1.222l0.132 0.021 0.136 0.007 0.136-0.007c0.627-0.068 1.115-0.599 1.115-1.244 0-0.691-0.56-1.251-1.251-1.251zM11.714 11.891c-0.691 0-1.251 0.56-1.251 1.251s0.56 1.251 1.251 1.251c0.691 0 1.251-0.56 1.251-1.251 0-0.599-0.421-1.099-0.982-1.222l-0.132-0.021-0.136-0.007z"></path>
</svg>
