<?xml version="1.0" encoding="UTF-8"?>
<svg viewBox="0 0 32 32" version="1.1" xmlns="http://www.w3.org/2000/svg" xmlns:xlink="http://www.w3.org/1999/xlink">
<title>scan</title>
<path d="M13.38 28v2h-2v-2h2zM17 28v2h-2v-2h2zM20.66 28v2h-2v-2h2zM7 25.765v1.235c0 0.513 0.386 0.936 0.883 0.993l0.117 0.007h1.356v2h-1.356c-1.598 0-2.904-1.249-2.995-2.824l-0.005-0.176v-1.235h2zM27 25.779v1.221c0 1.598-1.249 2.904-2.824 2.995l-0.176 0.005h-1.286v-2h1.286c0.513 0 0.936-0.386 0.993-0.883l0.007-0.117v-1.221h2zM7 22.3v2h-2v-2h2zM27 22.3v2h-2v-2h2zM29 17c0.513 0 0.936 0.386 0.993 0.883l0.007 0.117v4c0 0.552-0.448 1-1 1-0.513 0-0.936-0.386-0.993-0.883l-0.007-0.117v-1h-24v1c0 0.552-0.448 1-1 1-0.513 0-0.936-0.386-0.993-0.883l-0.007-0.117v-4c0-0.552 0.448-1 1-1 0.513 0 0.936 0.386 0.993 0.883l0.007 0.117v1h24v-1c0-0.552 0.448-1 1-1zM19.425 2l7.575 7.625v7.973h-2v-5.973l-6.575 0c-0.513 0-0.936-0.386-0.993-0.883l-0.007-0.117-0.001-6.625h-9.424c-0.513 0-0.936 0.386-0.993 0.883l-0.007 0.117v12.598h-2v-12.598c0-1.598 1.249-2.904 2.824-2.995l0.176-0.005h11.425zM19.424 4.837l0 4.788 4.756 0-4.756-4.788z"></path>
</svg>
