<?xml version="1.0" encoding="UTF-8"?>
<svg viewBox="0 0 32 32" version="1.1" xmlns="http://www.w3.org/2000/svg" xmlns:xlink="http://www.w3.org/1999/xlink">
<title>monitor_call</title>
<path d="M17 24c1.657 0 3 1.343 3 3s-1.343 3-3 3h-2c-1.657 0-3-1.343-3-3s1.343-3 3-3h2zM18 2c4.418 0 8 3.582 8 8v1h1c1.598 0 2.904 1.249 2.995 2.824l0.005 0.176v4c0 1.657-1.343 3-3 3v0h-1v3c0 2.209-1.791 4-4 4h-2v-2.001l2 0.001c1.054 0 1.918-0.816 1.994-1.851l0.006-0.149v-14c0-3.238-2.566-5.878-5.775-5.996l-0.225-0.004h-4c-3.238 0-5.878 2.566-5.996 5.775l-0.004 0.225v11h-3c-1.657 0-3-1.343-3-3v-4c0-1.657 1.343-3 3-3h1v-1c0-4.418 3.582-8 8-8h4zM17 26h-2c-0.552 0-1 0.448-1 1 0 0.513 0.386 0.936 0.883 0.993l0.117 0.007h2c0.552 0 1-0.448 1-1 0-0.513-0.386-0.936-0.883-0.993l-0.117-0.007zM6 13h-1c-0.513 0-0.936 0.386-0.993 0.883l-0.007 0.117v4c0 0.513 0.386 0.936 0.883 0.993l0.117 0.007h1v-6zM27 13h-1v6h1l0.117-0.007c0.497-0.058 0.883-0.48 0.883-0.993v0-4l-0.007-0.117c-0.058-0.497-0.48-0.883-0.993-0.883v0z"></path>
</svg>
