<?xml version="1.0" encoding="UTF-8"?>
<svg viewBox="0 0 32 32" version="1.1" xmlns="http://www.w3.org/2000/svg" xmlns:xlink="http://www.w3.org/1999/xlink">
<title>forwarding_border</title>
<path d="M19.287 27.703l0.127-0.117 10.172-10.172c0.74-0.74 0.779-1.915 0.117-2.701l-0.117-0.127-10.172-10.172c-0.375-0.375-0.884-0.586-1.414-0.586-1.054 0-1.918 0.816-1.994 1.851l-0.006 0.149-0.001 5.172-0.999-0.001c-7.18 0-13 5.82-13 13v3c0 1.192 1.711 1.384 1.975 0.221 0.8-3.526 3.9-6.106 7.538-6.217l0.263-0.004 4.222-0 0.001 5.171c0 0.53 0.211 1.039 0.586 1.414 0.74 0.74 1.915 0.779 2.701 0.117v-0zM14 13l2.999 0c0.513 0 0.936-0.386 0.993-0.883l0.007-0.117 0.001-5.689c0-0.11 0.090-0.2 0.2-0.2 0.053 0 0.104 0.021 0.141 0.059l9.689 9.689c0.078 0.078 0.078 0.205 0 0.283l-9.689 9.689c-0.078 0.078-0.205 0.078-0.283 0-0.038-0.038-0.059-0.088-0.059-0.141l-0.001-5.688c-0-0.552-0.448-1-1-1l-5.531 0.005c-2.833 0.086-5.399 1.359-7.179 3.365l-0.202 0.235 0.040-0.284c0.759-4.955 4.824-8.822 9.873-9.277l-0.001-0.045 0 0z"></path>
</svg>
