<?xml version="1.0" encoding="UTF-8"?>
<svg viewBox="0 0 32 32" version="1.1" xmlns="http://www.w3.org/2000/svg" xmlns:xlink="http://www.w3.org/1999/xlink">
<title>Message</title>
<path fill="#066fac" d="M32 16c0 8.837-7.163 16-16 16s-16-7.163-16-16c0-8.837 7.163-16 16-16s16 7.163 16 16z"></path>
<path fill="#fff" d="M21.5 11c0.69 0 1.25 0.56 1.25 1.25v7.5c0 0.69-0.56 1.25-1.25 1.25h-2.866c-0.166 0-0.325 0.066-0.442 0.183l-1.963 1.963c-0.195 0.195-0.512 0.195-0.707 0l-1.963-1.963c-0.117-0.117-0.276-0.183-0.442-0.183h-2.866c-0.69 0-1.25-0.56-1.25-1.25v-7.5c0-0.69 0.56-1.25 1.25-1.25h11.25z"></path>
</svg>
