<?xml version="1.0" encoding="UTF-8"?>
<svg viewBox="0 0 32 32" version="1.1" xmlns="http://www.w3.org/2000/svg" xmlns:xlink="http://www.w3.org/1999/xlink">
<title>Country</title>
<path d="M16 29.333c-1.844 0-3.578-0.35-5.2-1.050s-3.033-1.65-4.233-2.85c-1.2-1.2-2.15-2.611-2.85-4.233s-1.050-3.356-1.050-5.2c0-1.844 0.35-3.578 1.050-5.2s1.65-3.033 2.85-4.233c1.2-1.2 2.611-2.15 4.233-2.85s3.356-1.050 5.2-1.050c1.844 0 3.578 0.35 5.2 1.050s3.033 1.65 4.233 2.85c1.2 1.2 2.15 2.611 2.85 4.233s1.050 3.356 1.050 5.2c0 1.844-0.35 3.578-1.050 5.2s-1.65 3.033-2.85 4.233c-1.2 1.2-2.611 2.15-4.233 2.85s-3.356 1.050-5.2 1.050zM14.567 27.3v-2.733c-0.778 0-1.433-0.289-1.967-0.867s-0.8-1.256-0.8-2.033v-1.467l-6.833-6.833c-0.111 0.444-0.189 0.883-0.233 1.317s-0.067 0.872-0.067 1.317c0 2.889 0.939 5.411 2.817 7.567s4.239 3.4 7.083 3.733zM24.367 23.7c0.489-0.533 0.917-1.1 1.283-1.7s0.678-1.228 0.933-1.883c0.256-0.656 0.444-1.328 0.567-2.017s0.183-1.389 0.183-2.1c0-2.356-0.644-4.494-1.933-6.417s-3.011-3.328-5.167-4.217v0.6c0 0.778-0.267 1.456-0.8 2.033s-1.189 0.867-1.967 0.867h-2.9v2.9c0 0.378-0.15 0.689-0.45 0.933s-0.639 0.367-1.017 0.367h-2.767v2.933h8.6c0.378 0 0.689 0.144 0.933 0.433s0.367 0.622 0.367 1v4.233h1.433c0.644 0 1.211 0.189 1.7 0.567s0.822 0.867 1 1.467z"></path>
</svg>
