<?xml version="1.0" encoding="UTF-8"?>
<svg viewBox="0 0 32 32" version="1.1" xmlns="http://www.w3.org/2000/svg" xmlns:xlink="http://www.w3.org/1999/xlink">
<title>attachment</title>
<path d="M15.828 24.056c-1.562 1.562-4.095 1.562-5.657 0s-1.562-4.095 0-5.657l8.485-8.485c0.391-0.391 1.024-0.391 1.414 0s0.391 1.024 0 1.414l-8.485 8.485c-0.781 0.781-0.781 2.047 0 2.828s2.047 0.781 2.828 0l10.96-10.96c1.757-1.757 1.757-4.607 0-6.364s-4.607-1.757-6.364 0l-10.96 10.96c-2.734 2.734-2.734 7.166 0 9.899s7.166 2.734 9.899 0l8.485-8.485c0.391-0.391 1.024-0.391 1.414 0s0.391 1.024 0 1.414l-8.485 8.485c-3.515 3.515-9.213 3.515-12.728 0s-3.515-9.213 0-12.728l10.96-10.96c2.538-2.538 6.654-2.538 9.192 0s2.538 6.654 0 9.192l-10.96 10.96z"></path>
</svg>
