<?xml version="1.0" encoding="UTF-8"?>
<svg viewBox="0 0 32 32" version="1.1" xmlns="http://www.w3.org/2000/svg" xmlns:xlink="http://www.w3.org/1999/xlink">
<title>ringsense</title>
<path d="M15.89 24.459c-2.338 0-4.53-0.913-6.174-2.557l1.443-1.441c1.261 1.259 2.941 1.953 4.731 1.953 3.691 0 6.686-2.994 6.686-6.683 0-3.688-2.995-6.682-6.686-6.682-2.757 0-5.187 1.643-6.21 4.199l-1.9-0.767c1.312-3.328 4.532-5.509 8.11-5.497 4.823 0 8.732 3.908 8.732 8.728s-3.91 8.728-8.732 8.728v0.018zM8.273 25.116c-2.676-2.269-4.22-5.601-4.22-9.111-0.018-6.591 5.353-11.96 11.947-11.96v-2.045c-7.727 0-14.011 6.281-14.011 14.005 0.003 4.11 1.805 8.013 4.933 10.682l1.333-1.571h0.018zM11.67 26.286c-0.949 0-1.734 0.767-1.734 1.733 0 0.968 0.767 1.735 1.734 1.735 0.969 0 1.736-0.767 1.736-1.735 0-0.967-0.767-1.733-1.736-1.733zM26.814 24.77c2.374-2.885 3.471-6.537 3.105-10.261-0.398-4.093-2.583-7.802-5.972-10.133l-1.171 1.679c2.887 2.009 4.75 5.149 5.097 8.655 0.31 3.177-0.621 6.281-2.649 8.764-2.011 2.455-4.916 4.011-8.074 4.328l0.2 2.045c3.727-0.366 7.088-2.173 9.463-5.058v-0.018zM20.238 5.287c0.949-0.090 1.644-0.933 1.553-1.881-0.090-0.949-0.934-1.643-1.882-1.553-0.949 0.090-1.644 0.933-1.553 1.881 0.090 0.949 0.934 1.643 1.882 1.553zM18.777 19.803h-1.808l-0.11-0.182c-0.128-0.22-0.274-0.73-0.53-1.863-0.2-0.949-0.511-1.132-1.132-1.151h-0.512v3.196h-1.68v-7.942l0.292-0.056c0.493-0.090 1.205-0.164 1.9-0.164 1.113 0 1.844 0.22 2.374 0.694 0.438 0.384 0.695 1.004 0.695 1.681 0 0.821-0.384 1.515-1.023 1.935 0.328 0.31 0.565 0.767 0.711 1.387 0.166 0.748 0.384 1.662 0.53 1.937l0.292 0.529zM14.667 15.147h0.603c0.804 0 1.297-0.401 1.297-1.041 0-0.256 0-1.004-1.333-1.023-0.238 0-0.438 0-0.566 0.036v2.027z"></path>
</svg>
