<?xml version="1.0" encoding="UTF-8"?>
<svg viewBox="0 0 32 32" version="1.1" xmlns="http://www.w3.org/2000/svg" xmlns:xlink="http://www.w3.org/1999/xlink">
<title>google-slide</title>
<path fill="#fff" opacity="0.991775" d="M3.556 0h24.889c1.964 0 3.556 1.592 3.556 3.556v24.889c0 1.964-1.592 3.556-3.556 3.556h-24.889c-1.964 0-3.556-1.592-3.556-3.556v-24.889c0-1.964 1.592-3.556 3.556-3.556z"></path>
<path fill="#f6ad16" opacity="0.16" d="M3.556 0h24.889c1.964 0 3.556 1.592 3.556 3.556v24.889c0 1.964-1.592 3.556-3.556 3.556h-24.889c-1.964 0-3.556-1.592-3.556-3.556v-24.889c0-1.964 1.592-3.556 3.556-3.556z"></path>
<path fill="#f6ad16" d="M16.756 8l5.466 4.962-0.024 8.878c0 0.607-0.204 1.118-0.612 1.535s-0.909 0.625-1.503 0.625h-8.154c-0.594 0-1.095-0.209-1.503-0.625s-0.612-0.929-0.612-1.535l-0.035-11.661c0-0.607 0.204-1.118 0.612-1.535s0.909-0.625 1.503-0.625l4.862-0.018zM18.667 15.111h-5.333c-0.491 0-0.889 0.398-0.889 0.889v0 4.444c0 0.491 0.398 0.889 0.889 0.889v0h5.333c0.491 0 0.889-0.398 0.889-0.889v0-4.444c0-0.491-0.398-0.889-0.889-0.889v0z"></path>
</svg>
