<?xml version="1.0" encoding="UTF-8"?>
<svg viewBox="0 0 32 32" version="1.1" xmlns="http://www.w3.org/2000/svg" xmlns:xlink="http://www.w3.org/1999/xlink">
<title>billing</title>
<path d="M11.511 21.198l-0.087 0.081-2.17 2.316-0.67-0.715-0.091-0.087c-0.377-0.316-0.893-0.277-1.228 0.080-0.325 0.347-0.357 0.92-0.072 1.313l0.078 0.094 1.192 1.272 0.056 0.082 0.065 0.077c0.325 0.347 0.856 0.387 1.217 0.090l0.087-0.081 2.849-3.040 0.080-0.098c0.268-0.378 0.243-0.939-0.089-1.293-0.298-0.318-0.769-0.378-1.124-0.158l-0.094 0.067zM25.005 23h-8.009c-0.566 0-0.995 0.448-0.995 1 0 0.498 0.384 0.933 0.879 0.993l0.116 0.007h8.009c0.566 0 0.995-0.448 0.995-1 0-0.536-0.446-1-0.995-1zM11.511 15.198l-0.087 0.081-2.17 2.316-0.67-0.715-0.091-0.087c-0.377-0.316-0.893-0.277-1.228 0.080-0.325 0.347-0.357 0.92-0.072 1.313l0.078 0.094 1.192 1.272 0.056 0.082 0.065 0.077c0.325 0.347 0.856 0.387 1.217 0.090l0.087-0.081 2.849-3.040 0.080-0.098c0.268-0.378 0.243-0.939-0.089-1.293-0.325-0.347-0.856-0.387-1.217-0.091zM25.005 17h-8.009c-0.566 0-0.995 0.448-0.995 1 0 0.498 0.384 0.933 0.879 0.993l0.116 0.007h8.009c0.566 0 0.995-0.448 0.995-1 0-0.536-0.446-1-0.995-1zM6 11v2h20v-5h2l0.136 0.005c0.99 0.072 1.781 0.851 1.858 1.83l0.006 0.156v18.016c0 1.050-0.82 1.91-1.863 1.987l-0.151 0.005h-23.972c-1.061 0-1.932-0.811-2.008-1.843l-0.006-0.149v-18.016c0-1.1 0.9-1.992 2.014-1.992h1.986v3h2v-3c0-1.056 0.825-1.918 1.847-1.995l0.147-0.005h1.106c0.464-2.282 2.482-4 4.9-4 2.342 0 4.309 1.612 4.852 3.788l0.048 0.212h1.106c1.052 0 1.912 0.807 1.989 1.848l0.005 0.15v3.002h-18zM16 4c-1.104 0-2 0.896-2 2s0.896 2 2 2c1.104 0 2-0.896 2-2s-0.896-2-2-2z"></path>
</svg>
