<?xml version="1.0" encoding="UTF-8"?>
<svg viewBox="0 0 32 32" version="1.1" xmlns="http://www.w3.org/2000/svg" xmlns:xlink="http://www.w3.org/1999/xlink">
<title>mailchimp</title>
<path d="M29.425 20.54c-0.044-0.134-0.088-0.267-0.133-0.4-0.023-0.011-0.045-0.022-0.067-0.034-0.011-0.044-0.023-0.089-0.034-0.134-0.067-0.055-0.134-0.11-0.201-0.166-0.033-0.044-0.067-0.089-0.1-0.133-0.045-0.011-0.089-0.022-0.133-0.034-0.011-0.022-0.022-0.045-0.034-0.066h-0.067v-0.034h-0.066v-0.034h-0.101c-0.011-0.021-0.022-0.044-0.034-0.066-0.033 0.011-0.066 0.022-0.099 0.034-0.011-0.034-0.023-0.067-0.034-0.1-0.023-0.011-0.045-0.022-0.067-0.034-0.011-0.1-0.023-0.2-0.034-0.3h-0.033v-0.066h-0.034v-0.1h-0.034v-0.1h-0.034v-0.1h-0.033v-0.066h-0.034v-0.067h-0.033v-0.066h-0.034v-0.1h-0.034c0.021-0.074 0.028-0.084 0.068-0.134h0.033c0.011-0.033 0.022-0.066 0.034-0.1 0.022-0.010 0.044-0.021 0.067-0.033v-0.067c0.022-0.010 0.045-0.021 0.068-0.033v-0.066c0.023-0.011 0.044-0.022 0.067-0.034v-0.1h0.033v-0.066c0.023-0.011 0.045-0.022 0.068-0.034v-0.166h0.034c0.043-0.146-0.004-0.438-0.034-0.533v-0.133h-0.034v-0.067h-0.034v-0.1h-0.033c-0.011-0.044-0.023-0.089-0.034-0.133-0.022-0.011-0.044-0.022-0.067-0.034v-0.066c-0.034-0.022-0.068-0.045-0.1-0.067v-0.066h-0.034c-0.033-0.044-0.067-0.089-0.1-0.134h-0.067c-0.033-0.044-0.067-0.089-0.1-0.133-0.045-0.011-0.089-0.022-0.133-0.034v-0.033h-0.068v-0.034c-0.067-0.022-0.133-0.045-0.201-0.066v-0.034c-0.067-0.011-0.133-0.022-0.201-0.034-0.078-0.089-0.156-0.178-0.235-0.266h-0.066c-0.045-0.055-0.090-0.111-0.135-0.166-0.044-0.011-0.088-0.022-0.133-0.034-0.022-0.034-0.045-0.066-0.067-0.1h-0.067c-0.011-0.022-0.023-0.044-0.034-0.066-0.073-0.049-0.142-0.081-0.235-0.1v-0.066c-0.148-0.021-0.146-0.085-0.3-0.1 0 0-0.006-0.13-0.034-0.067v0.034h-0.034v-0.066c-0.056-0.011-0.112-0.022-0.167-0.034-0.038-0.098 0.006-0.037-0.1-0.034v-0.066c-0.055-0.011-0.112-0.022-0.168-0.034 0-0.001 0.009-0.119-0.033-0.066-0.024 0.007 0.009 0.056-0.034 0.034-0.022-0.012-0.017-0.079-0.067-0.067v0.034h-0.034v-0.066c-0.118-0.013-0.162-0.048-0.267-0.067v-0.066h-0.1c-0.007-0.126-0.043-0.211-0.068-0.3-0.020-0.077 0.041-0.092 0.034-0.133h-0.034v-0.167h-0.033c-0.031-0.107 0.044-0.212 0.033-0.266h-0.033v-0.133h-0.033v-0.367h-0.034v-0.4h-0.034v-0.166h-0.034c-0.021-0.075 0.038-0.149 0.034-0.166h-0.034v-0.1h-0.033v-0.266h-0.034v-0.234h-0.033c-0.023-0.122-0.045-0.244-0.068-0.366h-0.034v-0.134h-0.033v-0.1h-0.034c-0.010-0.044-0.022-0.089-0.033-0.133h-0.034c-0.034-0.1-0.068-0.2-0.1-0.3-0.023-0.011-0.044-0.022-0.067-0.034l-0.068-0.2h-0.034c-0.058-0.074-0.111-0.12-0.133-0.233-0.107-0.029-0.118-0.086-0.201-0.134v-0.066c-0.045-0.011-0.089-0.022-0.133-0.034-0.022-0.066-0.045-0.134-0.068-0.2h-0.034v-0.066c-0.022-0.011-0.044-0.022-0.066-0.034-0.023-0.066-0.045-0.133-0.068-0.2-0.023-0.011-0.045-0.021-0.068-0.033v-0.067c-0.022-0.011-0.044-0.021-0.066-0.033v-0.067c-0.023-0.011-0.045-0.022-0.067-0.033v-0.067h-0.034c-0.060-0.073-0.11-0.12-0.133-0.233-0.094-0.023-0.128-0.061-0.167-0.134-0.037-0.037-0.015 0.001-0.034-0.066 0.062-0.050 0.16-0.194 0.201-0.266v-0.067c0.023-0.011 0.045-0.021 0.067-0.033 0.011-0.045 0.023-0.089 0.033-0.134 0.022-0.011 0.045-0.022 0.068-0.034 0.011-0.033 0.022-0.066 0.034-0.1h0.034v-0.066l0.066-0.066v-0.066h0.034v-0.067h0.034v-0.066h0.034v-0.066h0.034v-0.067h0.033v-0.066h0.033v-0.066h0.034v-0.067h0.034v-0.066h0.034v-0.1c0.022-0.011 0.044-0.022 0.067-0.034v-0.1h0.033v-0.066h0.034v-0.1h0.034c0.011-0.044 0.023-0.089 0.034-0.133h0.033c0.011-0.067 0.023-0.134 0.034-0.2h0.033v-0.1h0.034v-0.1h0.034v-0.067h0.034v-0.133h0.033c0.011-0.089 0.022-0.178 0.033-0.266l0.068-0.034c0.023-0.211 0.045-0.422 0.068-0.633h0.033v-0.133h0.033v-0.8h-0.033c-0.003-0.045 0.055-0.054 0.033-0.133h-0.033v-0.134h-0.033v-0.2h-0.034c-0.011-0.078-0.023-0.155-0.034-0.234h-0.034c-0.011-0.055-0.023-0.11-0.034-0.166h-0.033v-0.066h-0.033v-0.1h-0.034v-0.066l-0.068-0.034c-0.011-0.045-0.023-0.089-0.033-0.134-0.023-0.011-0.045-0.022-0.067-0.033-0.011-0.034-0.022-0.067-0.034-0.1h-0.034c-0.011-0.034-0.023-0.067-0.034-0.1h-0.067c-0.026-0.107-0.092-0.176-0.2-0.2v-0.067c-0.225-0.061-0.311-0.275-0.569-0.299v-0.067c-0.014 0.016-0.113 0.028-0.167 0-0.011-0.022-0.023-0.044-0.034-0.066h-0.134v-0.034h-0.133c-0.011-0.022-0.023-0.044-0.034-0.066-0.039 0.007-0.062 0.060-0.133 0.034v-0.034h-0.068v-0.034h-0.334v-0.033c-0.163-0.049-0.653 0-0.769 0.033-0.123-0.011-0.246-0.022-0.368-0.033v0.066c-0.068 0.011-0.134 0.022-0.201 0.034-0.004-0.001-0.013-0.049-0.068-0.034v0.034h-0.067v0.033c-0.072 0.023-0.099-0.044-0.134-0.033-0.011 0.022-0.023 0.044-0.034 0.066h-0.2v0.034h-0.067v0.033c-0.023-0.011-0.045-0.022-0.067-0.033-0.028 0.013 0.003 0.044-0.099 0.066-0.038-0.037 0-0.014-0.068-0.034v0.067c-0.089 0.010-0.178 0.022-0.268 0.033-0.010 0.022-0.022 0.045-0.033 0.067-0.033-0.011-0.067-0.022-0.1-0.034-0.011 0.022-0.023 0.044-0.034 0.066-0.111 0.022-0.223 0.045-0.334 0.066v0.067c-0.034-0.011-0.067-0.022-0.1-0.034v0.066c-0.1 0.022-0.201 0.045-0.301 0.067-0.011 0.022-0.023 0.044-0.034 0.066h-0.067v0.034c-0.055 0.011-0.112 0.022-0.167 0.033-0.011 0.022-0.023 0.045-0.034 0.067-0.022-0.011-0.044-0.022-0.067-0.034v0.066c-0.129 0.016-0.139 0.055-0.268 0.067v0.066c-0.077 0.022-0.156 0.044-0.234 0.066-0.011 0.022-0.022 0.045-0.033 0.067-0.045 0.010-0.090 0.022-0.135 0.033v0.034c-0.044 0.011-0.088 0.022-0.133 0.034-0.011 0.022-0.022 0.044-0.034 0.066-0.034 0.022-0.275 0.12-0.334 0.1v-0.034c-0.034-0.011-0.068-0.022-0.1-0.033v-0.034h-0.033v-0.066c-0.038-0.043-0.082-0.002-0.135-0.034-0.010-0.022-0.022-0.045-0.033-0.066-0.074-0.068-0.157-0.137-0.267-0.167v-0.066c-0.144-0.1-0.29-0.2-0.435-0.3v-0.066c-0.137-0.019-0.143-0.074-0.267-0.1 0 0-0.005-0.13-0.033-0.066-0.047 0.007 0.013 0.031-0.034 0.033v-0.066c-0.049-0.008-0.224-0.045-0.268-0.066-0.011-0.022-0.022-0.045-0.033-0.067-0.034 0.011-0.067 0.022-0.1 0.034-0.011-0.022-0.022-0.045-0.034-0.066h-0.033v0.033c-0.051-0.014-0.054-0.028-0.134-0.033v-0.067c-0.114 0.021-0.175 0.046-0.301 0v-0.033c-0.065-0.023-0.116-0.013-0.167-0.034v0.066c-0.134-0.011-0.268-0.022-0.401-0.033-0.079 0.022-0.147 0.061-0.268 0.066-0.038-0.098 0.006-0.037-0.1-0.034v0.067c-0.082 0.006-0.098 0.031-0.134 0.033-0.018-0.012-0.026-0.061-0.1-0.033-0.011 0.022-0.022 0.044-0.033 0.066-0.045-0.011-0.089-0.022-0.134-0.034v0.067c-0.134 0.022-0.268 0.044-0.402 0.066-0.011 0.022-0.022 0.044-0.033 0.066h-0.1v0.034c-0.067 0.011-0.134 0.022-0.201 0.033-0.011 0.022-0.023 0.045-0.033 0.067h-0.1v0.033c-0.083 0.040-0.164 0.059-0.268 0.067 0 0-0.005 0.129-0.033 0.066-0.046-0.008 0.014-0.032-0.033-0.034v0.067c-0.129 0.015-0.138 0.054-0.268 0.066v0.066c-0.045 0.011-0.089 0.022-0.134 0.034-0.011 0.022-0.023 0.045-0.033 0.066-0.045 0.011-0.090 0.022-0.134 0.034v0.034c-0.022-0.011-0.045-0.022-0.067-0.034v0.066h-0.067v0.034c-0.045 0.022-0.089 0.044-0.134 0.066v-0.033h-0.033v0.066c-0.151 0.042-0.152 0.146-0.334 0.166v0.066c-0.091 0.020-0.163 0.052-0.234 0.1-0.022 0.034-0.045 0.067-0.067 0.1-0.051 0.031-0.103-0.013-0.134 0.034v0.066c-0.274 0.073-0.401 0.376-0.669 0.433v0.066c-0.114 0.031-0.086 0.071-0.2 0.1v0.066c-0.103 0.030-0.125 0.080-0.201 0.134v0.034h-0.1c-0.049 0.179-0.217 0.196-0.301 0.333h-0.067c-0.038 0.137-0.101 0.128-0.201 0.2-0.122 0.134-0.245 0.266-0.368 0.4h-0.067c-0.089 0.1-0.178 0.2-0.267 0.3-0.056 0.044-0.112 0.089-0.167 0.134v0.066c-0.045 0.034-0.089 0.066-0.134 0.1-0.133 0.134-0.341 0.338-0.435 0.5h-0.067c-0.044 0.159-0.198 0.291-0.301 0.4-0.022 0.010-0.044 0.021-0.067 0.033v0.066c-0.078 0.067-0.156 0.134-0.234 0.2v0.067h-0.033c-0.048 0.058-0.078 0.080-0.1 0.166h-0.067c-0.022 0.086-0.082 0.177-0.134 0.234-0.022 0.010-0.045 0.021-0.067 0.033v0.067c-0.022 0.010-0.045 0.021-0.067 0.033v0.034c-0.034 0.022-0.067 0.044-0.1 0.066v0.066c-0.045 0.034-0.089 0.067-0.134 0.1v0.067c-0.022 0.011-0.044 0.021-0.067 0.033v0.067c-0.033 0.021-0.067 0.044-0.1 0.066v0.066c-0.033 0.022-0.067 0.045-0.1 0.067v0.066c-0.045 0.034-0.089 0.066-0.134 0.1v0.066c-0.022 0.011-0.045 0.022-0.067 0.034-0.011 0.034-0.022 0.066-0.033 0.1h-0.033v0.066c-0.022 0.011-0.045 0.022-0.067 0.034v0.066c-0.033 0.022-0.067 0.045-0.1 0.066v0.067c-0.023 0.011-0.045 0.021-0.067 0.033v0.067c-0.022 0.011-0.045 0.021-0.067 0.033v0.067h-0.034c-0.011 0.033-0.022 0.066-0.033 0.1-0.022 0.010-0.045 0.022-0.067 0.033v0.067c-0.034 0.021-0.067 0.044-0.1 0.066-0.011 0.044-0.023 0.089-0.034 0.133-0.022 0.011-0.045 0.022-0.067 0.034v0.066c-0.023 0.011-0.045 0.022-0.067 0.034v0.066c-0.022 0.011-0.045 0.022-0.067 0.034v0.066c-0.022 0.011-0.045 0.022-0.067 0.034-0.022 0.066-0.044 0.134-0.067 0.2h-0.033c-0.011 0.034-0.022 0.066-0.033 0.1-0.022 0.011-0.045 0.022-0.067 0.034v0.066c-0.022 0.011-0.045 0.022-0.067 0.034v0.066l-0.067 0.066v0.066h-0.034v0.067c-0.022 0.011-0.045 0.022-0.067 0.033v0.067l-0.067 0.066v0.066h-0.033v0.067c-0.022 0.011-0.045 0.021-0.067 0.033-0.011 0.045-0.022 0.089-0.033 0.134l-0.067 0.066v0.067h-0.033v0.066h-0.033v0.066h-0.034v0.066h-0.033v0.067h-0.033v0.066h-0.034v0.066h-0.033v0.067l-0.067 0.066v0.066c-0.022 0.011-0.045 0.022-0.067 0.034-0.011 0.066-0.023 0.134-0.033 0.2h-0.034c-0.022 0.066-0.045 0.134-0.067 0.2h-0.034v0.066h-0.033c-0.011 0.056-0.022 0.111-0.033 0.166h-0.034v0.067h-0.033c-0.022 0.1-0.044 0.2-0.067 0.3h-0.033c-0.011 0.044-0.022 0.089-0.033 0.133h-0.033c-0.011 0.078-0.023 0.156-0.034 0.234h-0.033v0.1h-0.033v0.066h-0.034c-0.011 0.078-0.022 0.156-0.033 0.234h-0.033v0.133c-0.023 0.011-0.045 0.022-0.067 0.034v0.166h-0.033v0.167h-0.033v0.199h-0.034v0.2h-0.033v0.1h-0.033v0.334c-0.030 0.096-0.076 0.693-0.034 0.832h0.034v0.266h0.033v0.1h0.033c-0.011 0.034-0.022 0.067-0.033 0.1 0.022 0.011 0.045 0.022 0.067 0.034 0.011 0.078 0.022 0.155 0.033 0.234h0.033c0.023 0.066 0.045 0.133 0.067 0.2h0.033v0.066h0.033c0.011 0.044 0.023 0.089 0.034 0.133 0.022 0.011 0.045 0.022 0.067 0.034v0.066c0.022 0.011 0.045 0.022 0.067 0.034v0.066h0.033c0.011 0.034 0.023 0.067 0.033 0.1 0.121 0.033 0.14 0.112 0.235 0.167v0.066c0.092 0.023 0.122 0.064 0.201 0.1v0.066c0.121 0.012 0.142 0.026 0.167 0.134 0.101 0.014 0.108 0.021 0.167 0.066v0.034h0.067c0.011 0.022 0.022 0.044 0.034 0.066h0.067c0.034 0.045 0.067 0.089 0.1 0.134h0.067c0.022 0.033 0.045 0.066 0.067 0.1h0.067c0.011 0.021 0.022 0.044 0.033 0.066 0.067 0.045 0.134 0.089 0.201 0.134-0.012 0.13-0.065 0.258-0.1 0.366v0.133h-0.033v0.067h-0.033v0.033h0.033v0.034h-0.033v0.2h-0.034v0.533c-0.011 0.145-0.022 0.289-0.033 0.433 0.022 0.011 0.045 0.022 0.067 0.034v0.266h0.033c0.022 0.122 0.045 0.244 0.067 0.366h0.034v0.134h0.033v0.066h0.033v0.1h0.034c0.011 0.066 0.022 0.134 0.033 0.2h0.033v0.066c0.022 0.011 0.045 0.022 0.067 0.034v0.1h0.033v0.066h0.034v0.066c0.022 0.011 0.045 0.022 0.067 0.034 0.022 0.066 0.045 0.134 0.067 0.2 0.022 0.011 0.045 0.022 0.067 0.034v0.066h0.034c0.049 0.062 0.081 0.107 0.1 0.2h0.067c0.045 0.178 0.214 0.291 0.334 0.4 0.011 0.021 0.022 0.044 0.034 0.066h0.067v0.066h0.034v0.034h0.067c0.034 0.045 0.067 0.089 0.1 0.134h0.067v0.066c0.101 0.015 0.107 0.021 0.167 0.066v0.034c0.044 0.011 0.090 0.022 0.134 0.034 0.022 0.033 0.045 0.066 0.067 0.1h0.067c0.011 0.021 0.022 0.044 0.033 0.066 0.023-0.011 0.045-0.022 0.067-0.034v0.066c0.104 0.022 0.149 0.058 0.267 0.067 0.038 0.098-0.005 0.036 0.1 0.033v0.067c0.078 0.011 0.156 0.021 0.234 0.033 0.011 0.022 0.023 0.045 0.034 0.067 0.033-0.011 0.067-0.022 0.1-0.034l0.033 0.066c0.033-0.011 0.067-0.021 0.1-0.033v0.033h0.067v0.034h0.234c0.223 0.066 0.513 0.056 0.735 0.034 0.021 0.074 0.028 0.082 0.067 0.133h0.033c0.011 0.045 0.023 0.089 0.034 0.134 0.022 0.011 0.045 0.022 0.067 0.034v0.066c0.022 0.011 0.045 0.022 0.067 0.034 0.011 0.044 0.022 0.089 0.033 0.133 0.033 0.022 0.067 0.045 0.1 0.066 0.011 0.034 0.023 0.067 0.033 0.1h0.034v0.067h0.033c0.049 0.061 0.081 0.107 0.1 0.2h0.067c0.023 0.091 0.077 0.171 0.134 0.233 0.022 0.011 0.045 0.022 0.067 0.034 0.011 0.034 0.023 0.066 0.034 0.1 0.033 0.022 0.067 0.044 0.1 0.066v0.066c0.045 0.034 0.089 0.067 0.134 0.1v0.067c0.045 0.033 0.089 0.066 0.134 0.1v0.066h0.067v0.066h0.033c0.056 0.067 0.112 0.134 0.167 0.2 0.022 0.011 0.045 0.022 0.067 0.034 0.046 0.062-0.015 0.049 0.067 0.1v0.066c0.139 0.038 0.18 0.146 0.267 0.234 0.1 0.089 0.201 0.178 0.301 0.266 0.033 0.045 0.067 0.089 0.1 0.134h0.067v0.033c0.085 0.071 0.147 0.168 0.267 0.2v0.067c0.033 0.010 0.067 0.021 0.1 0.033 0.033 0.045 0.067 0.089 0.1 0.134h0.067c0.033 0.044 0.067 0.089 0.1 0.133h0.067c0.023 0.034 0.045 0.067 0.067 0.1 0.033 0.011 0.067 0.022 0.1 0.034 0.011 0.022 0.022 0.045 0.033 0.066 0.061 0.056 0.142 0.112 0.234 0.134v0.066c0.045 0.011 0.089 0.022 0.134 0.034v0.066c0.156 0.022 0.155 0.102 0.301 0.134v0.066c0.229 0.033 0.306 0.22 0.535 0.266v0.067c0.075 0.010 0.088 0.002 0.134 0.033v0.034h0.067c0.011 0.022 0.022 0.045 0.033 0.066 0.1 0.034 0.201 0.067 0.301 0.1 0.011 0.022 0.023 0.045 0.033 0.067 0.1 0.033 0.201 0.066 0.301 0.1l0.033 0.066h0.067v0.034c0.056 0.010 0.112 0.021 0.167 0.033v0.066c0.1 0.022 0.2 0.045 0.301 0.067v0.066c0.145 0.034 0.29 0.066 0.435 0.1v0.066c0.034-0.011 0.067-0.021 0.1-0.033 0.011 0.021 0.022 0.044 0.034 0.066h0.1l0.033 0.034v0.033c0.033-0.011 0.067-0.021 0.1-0.033v0.066c0.033-0.011 0.067-0.022 0.1-0.034 0.011 0.022 0.022 0.045 0.033 0.067 0.134 0.021 0.268 0.044 0.401 0.066 0.011 0.022 0.023 0.044 0.034 0.066 0.034-0.011 0.068-0.022 0.1-0.033v0.033h0.067v0.034h0.134v0.034h0.201c0.010 0.021 0.021 0.044 0.033 0.066 0.036 0.011 0.060-0.058 0.134-0.034v0.034h0.067v0.034c0.055 0.017 0.062-0.033 0.067-0.034h0.034v0.034h0.099c0.011 0.021 0.023 0.044 0.034 0.066 0.068-0.011 0.133-0.022 0.201-0.034 0.011 0.022 0.023 0.045 0.034 0.067 0.034 0.010 0.067 0.021 0.099 0.033v-0.066c0.134 0.013 0.204 0.057 0.302 0.1v-0.066c0.099 0.010 0.201 0.021 0.3 0.033v0.066h0.134v-0.033c0.401 0.011 0.802 0.022 1.204 0.033 0.355 0 0.614-0.029 0.937 0v-0.066c0.119-0.001 0.181-0.018 0.267-0.033v0.066h0.034c-0.005-0.065 0.113-0.048 0.167-0.066v-0.034c0.138-0.044 0.363-0.007 0.468 0v-0.066c0.080-0.007 0.102-0.033 0.134-0.034 0.020 0.012 0.004 0.052 0.067 0.034v-0.034h0.067v-0.034c0.077-0.024 0.090 0.030 0.134 0.034 0.011-0.022 0.023-0.045 0.033-0.066h0.168v-0.034h0.167c0.011-0.022 0.022-0.045 0.034-0.066 0.067-0.011 0.134-0.022 0.201-0.034l0.033 0.034c0.011-0.022 0.023-0.045 0.034-0.067 0.133-0.021 0.268-0.044 0.401-0.066v-0.066c0.078-0.011 0.156-0.022 0.235-0.034 0.011-0.022 0.023-0.045 0.033-0.066h0.067v-0.034c0.034 0.011 0.068 0.022 0.101 0.034v-0.067c0.099-0.021 0.201-0.044 0.3-0.066 0.037-0.098-0.006-0.037 0.101-0.034v-0.066c0.227-0.053 0.337-0.224 0.601-0.233v-0.067c0.162-0.038 0.193-0.147 0.369-0.166v-0.066h0.133v-0.067c0.153-0.042 0.195-0.163 0.368-0.2v-0.066c0.141-0.025 0.151-0.094 0.235-0.166 0.023 0.011 0.045 0.022 0.067 0.033v-0.066h0.033c0.011-0.022 0.022-0.044 0.034-0.066h0.068v-0.034c0.090-0.055 0.064 0.030 0.099-0.1 0.114-0.031 0.086-0.071 0.201-0.1v-0.066c0.116-0.031 0.191-0.128 0.268-0.2 0.011-0.022 0.023-0.045 0.034-0.066h0.066c0.011-0.022 0.023-0.045 0.034-0.067h0.068c0.034-0.055 0.067-0.11 0.099-0.166h0.068c0.011-0.022 0.023-0.044 0.034-0.066 0.034-0.022 0.067-0.045 0.099-0.066v-0.067c0.022-0.011 0.045-0.022 0.067-0.033v-0.067c0.045-0.033 0.089-0.066 0.133-0.1 0.13-0.13 0.289-0.292 0.368-0.466h0.068c0.024-0.112 0.073-0.161 0.133-0.233h0.034c0.011-0.034 0.023-0.067 0.034-0.1 0.034-0.022 0.067-0.045 0.1-0.067v-0.066c0.022-0.011 0.044-0.022 0.067-0.034 0.011-0.033 0.022-0.066 0.034-0.1h0.034v-0.066c0.023-0.011 0.044-0.022 0.067-0.034v-0.066c0.033-0.022 0.067-0.044 0.1-0.066v-0.067c0.023-0.010 0.045-0.021 0.067-0.033 0.011-0.045 0.023-0.089 0.034-0.134 0.022-0.011 0.044-0.022 0.067-0.033 0.011-0.034 0.023-0.067 0.034-0.1h0.034c0.011-0.045 0.022-0.089 0.033-0.134 0.033-0.022 0.067-0.045 0.1-0.066v-0.1c0.023-0.011 0.045-0.022 0.068-0.034 0.010-0.045 0.022-0.089 0.033-0.134 0.022-0.010 0.044-0.021 0.067-0.033v-0.067l0.068-0.066v-0.066h0.033v-0.066c0.022-0.011 0.045-0.022 0.067-0.034 0.011-0.056 0.022-0.111 0.034-0.166 0.022-0.011 0.045-0.022 0.068-0.034v-0.066h0.033v-0.067h0.034v-0.1h0.033v-0.066c0.023-0.011 0.045-0.022 0.068-0.034v-0.1h0.034v-0.066h0.033c0.023-0.066 0.044-0.133 0.067-0.2h0.034v-0.1h0.034v-0.066h0.034v-0.1h0.033c0.011-0.045 0.023-0.089 0.033-0.134h0.034v-0.1h0.034c0.011-0.066 0.023-0.133 0.034-0.2 0.023-0.010 0.044-0.021 0.067-0.033v-0.134h0.033c0.011-0.066 0.023-0.133 0.034-0.2h0.034v-0.066h0.034v-0.134h0.033v-0.1h0.034v-0.066h0.033v-0.066c0.023-0.011 0.045-0.022 0.068-0.034v-0.066h0.034v-0.1h0.033v-0.066h0.034c0.010-0.045 0.022-0.090 0.033-0.134h0.034v-0.1h0.034v-0.134c0.023-0.011 0.045-0.021 0.067-0.033l-0.033-0.034c-0.007-0.182 0.143-0.392 0.066-0.633l0 0zM9.527 22.671h-0.067v0.034h-0.067v0.034h-0.1v0.033c-0.045 0.011-0.089 0.022-0.134 0.034v0.034h-0.1c-0.286 0.114-0.804 0.245-1.204 0.133-0.122-0.011-0.245-0.021-0.368-0.033-0.424-0.149-0.772-0.329-1.104-0.566-0.067-0.079-0.134-0.156-0.2-0.234-0.056-0.045-0.112-0.089-0.167-0.134v-0.066c-0.033-0.022-0.067-0.044-0.1-0.066v-0.067c-0.033-0.021-0.067-0.044-0.1-0.066-0.011-0.044-0.022-0.089-0.033-0.133-0.023-0.011-0.045-0.022-0.067-0.034-0.011-0.045-0.022-0.089-0.033-0.134h-0.033c-0.011-0.044-0.022-0.089-0.034-0.133h-0.033v-0.1h-0.033c-0.011-0.045-0.022-0.089-0.034-0.134h-0.033c-0.011-0.089-0.022-0.178-0.033-0.266-0.139-0.411-0.18-0.991-0.033-1.432v-0.134h0.033v-0.134h0.033v-0.1h0.033v-0.1h0.034v-0.066h0.033v-0.1h0.033c0.011-0.044 0.022-0.089 0.034-0.133h0.033v-0.067c0.022-0.011 0.045-0.021 0.067-0.033 0.022-0.067 0.045-0.134 0.067-0.2 0.034-0.022 0.067-0.045 0.1-0.067v-0.066c0.033-0.022 0.067-0.044 0.1-0.066v-0.067c0.045-0.033 0.089-0.066 0.134-0.099 0.078-0.090 0.156-0.178 0.234-0.267h0.067c0.023-0.033 0.045-0.066 0.067-0.1h0.067c0.011-0.021 0.022-0.044 0.034-0.066h0.067c0.011-0.022 0.022-0.045 0.034-0.066h0.067c0.011-0.022 0.023-0.045 0.034-0.067 0.045-0.010 0.089-0.021 0.134-0.033v-0.034c0.045-0.011 0.089-0.022 0.134-0.034v-0.033h0.1v-0.034h0.1v-0.034h0.1v-0.033h0.1v-0.034h0.167c0.451-0.136 1.040-0.044 1.405 0.1 0.1 0.034 0.201 0.066 0.301 0.1 0.023 0.034 0.045 0.066 0.067 0.1 0.067 0.055 0.134 0.111 0.201 0.166v0.067c0.022 0.011 0.045 0.021 0.067 0.033 0.011 0.045 0.023 0.089 0.033 0.134h0.034c0.022 0.066 0.045 0.134 0.067 0.2h0.034v0.1c0.093 0.23 0.202 0.512 0.2 0.832h0.067c0.067-0.222 0.134-0.444 0.201-0.666h0.033c0.090 0.218 0.128 0.491 0.201 0.732 0.041 0.136-0.009 0.376 0.067 0.467v0.599h0.033c0.089-0.155 0.178-0.31 0.268-0.466 0.020-0.066-0.005-0.028 0.033-0.066 0.27 1.485-0.614 2.614-1.438 3.131l0-0zM11.633 9.715v0.066c-0.067 0.056-0.134 0.111-0.201 0.166v0.067c-0.056 0.044-0.112 0.089-0.167 0.133v0.067c-0.067 0.055-0.134 0.111-0.201 0.166v0.066c-0.067 0.056-0.134 0.111-0.201 0.167v0.066c-0.033 0.022-0.067 0.044-0.1 0.066v0.034c-0.023 0.011-0.045 0.022-0.067 0.033v0.067c-0.067 0.055-0.134 0.111-0.2 0.166v0.066c-0.056 0.045-0.112 0.089-0.167 0.134v0.066c-0.056 0.045-0.112 0.089-0.168 0.134v0.066c-0.067 0.056-0.134 0.111-0.2 0.166v0.067c-0.056 0.044-0.112 0.089-0.167 0.133v0.067c-0.056 0.044-0.112 0.089-0.167 0.133v0.067c-0.023 0.011-0.045 0.021-0.067 0.033-0.049 0.052-0.079 0.121-0.134 0.167v0.033h-0.034c0.026-0.116 0.086-0.181 0.134-0.266v-0.066c0.022-0.011 0.045-0.022 0.067-0.034 0.023-0.066 0.045-0.134 0.067-0.2 0.022-0.011 0.045-0.022 0.067-0.034v-0.066l0.067-0.066v-0.067c0.022-0.010 0.044-0.021 0.067-0.033 0.011-0.045 0.022-0.089 0.033-0.134 0.023-0.011 0.045-0.022 0.067-0.033v-0.067c0.022-0.011 0.045-0.022 0.067-0.033v-0.067c0.023-0.011 0.044-0.021 0.067-0.033v-0.067c0.022-0.011 0.045-0.021 0.067-0.033v-0.067c0.023-0.010 0.045-0.021 0.067-0.033v-0.067h0.033c0.011-0.033 0.023-0.066 0.034-0.1 0.022-0.010 0.044-0.022 0.067-0.033v-0.067c0.034-0.021 0.067-0.044 0.1-0.066v-0.066c0.023-0.011 0.045-0.022 0.067-0.034v-0.066c0.045-0.034 0.089-0.066 0.134-0.1v-0.066c0.033-0.022 0.067-0.045 0.1-0.067v-0.066c0.033-0.022 0.067-0.044 0.1-0.066v-0.067c0.033-0.022 0.067-0.044 0.1-0.066v-0.066c0.045-0.034 0.089-0.067 0.134-0.1v-0.066c0.045-0.034 0.089-0.067 0.134-0.1 0.011-0.034 0.023-0.067 0.034-0.1 0.022-0.011 0.045-0.022 0.067-0.034v-0.066c0.023-0.011 0.045-0.022 0.067-0.034v-0.034c0.022-0.011 0.045-0.021 0.067-0.033v-0.067c0.045-0.033 0.090-0.066 0.134-0.1v-0.066c0.056-0.044 0.111-0.089 0.167-0.134v-0.066c0.056-0.044 0.112-0.089 0.167-0.133v-0.067c0.067-0.055 0.134-0.111 0.201-0.166v-0.066c0.078-0.067 0.156-0.134 0.234-0.2v-0.067c0.1-0.089 0.201-0.178 0.301-0.266v-0.066c0.2-0.189 0.401-0.377 0.602-0.566v-0.067c0.089-0.078 0.179-0.155 0.268-0.233 0.033-0.045 0.067-0.089 0.1-0.134h0.067c0.011-0.022 0.023-0.044 0.034-0.066 0.111-0.1 0.223-0.2 0.334-0.3v-0.066c-0.094 0.021-0.138 0.050-0.201 0.1v0.033h-0.067c-0.011 0.022-0.022 0.045-0.033 0.067h-0.067c-0.011 0.021-0.022 0.044-0.033 0.066h-0.067c-0.022 0.034-0.045 0.066-0.067 0.1h-0.067c-0.011 0.022-0.023 0.044-0.033 0.066h-0.067c-0.033 0.045-0.067 0.089-0.1 0.134h-0.067c-0.011 0.022-0.023 0.044-0.034 0.066h-0.067c-0.023 0.034-0.045 0.066-0.067 0.1h-0.067c-0.033 0.045-0.067 0.089-0.1 0.134-0.033 0.011-0.067 0.022-0.1 0.033-0.011 0.022-0.022 0.045-0.033 0.067h-0.067c-0.056 0.066-0.112 0.133-0.167 0.2h-0.067c-0.033 0.044-0.067 0.089-0.1 0.133h-0.034c-0.011 0.022-0.022 0.045-0.033 0.067h-0.067c-0.1 0.11-0.201 0.221-0.301 0.333h-0.067c-0.134 0.145-0.268 0.289-0.401 0.433-0.326 0.325-0.661 0.62-0.936 0.999-0.090 0.078-0.179 0.156-0.268 0.234v0.066c-0.067 0.056-0.134 0.111-0.201 0.166v0.067c-0.056 0.044-0.111 0.089-0.167 0.133v0.067c-0.045 0.033-0.090 0.066-0.134 0.1v0.066c-0.045 0.034-0.089 0.066-0.134 0.1v0.066c-0.045 0.034-0.089 0.066-0.134 0.1v0.066c-0.033 0.022-0.067 0.045-0.1 0.067-0.011 0.033-0.022 0.066-0.033 0.1-0.023 0.011-0.045 0.022-0.067 0.033v0.067c-0.033 0.022-0.067 0.044-0.1 0.066-0.011 0.034-0.022 0.066-0.033 0.1-0.023 0.011-0.045 0.022-0.067 0.034v0.066c-0.033 0.022-0.067 0.044-0.1 0.066v0.067c-0.022 0.010-0.045 0.021-0.067 0.033-0.011 0.034-0.023 0.066-0.034 0.1h-0.033v0.066c-0.033 0.022-0.067 0.045-0.1 0.067v0.066c-0.022 0.011-0.045 0.022-0.067 0.034-0.011 0.033-0.022 0.066-0.033 0.1h-0.033v0.066c-0.023 0.011-0.045 0.022-0.067 0.034-0.011 0.033-0.022 0.066-0.033 0.1h-0.033v0.066c-0.023 0.011-0.045 0.022-0.067 0.034-0.011 0.044-0.023 0.089-0.033 0.133-0.034 0.022-0.067 0.045-0.1 0.067v0.066h-0.033v0.066c-0.023 0.011-0.045 0.022-0.067 0.034-0.011 0.044-0.023 0.089-0.033 0.133-0.022 0.011-0.045 0.022-0.067 0.034-0.011 0.045-0.023 0.089-0.033 0.134-0.022 0.011-0.045 0.021-0.067 0.033-0.011 0.045-0.023 0.089-0.033 0.134-0.022 0.011-0.045 0.022-0.067 0.034-0.022 0.066-0.045 0.133-0.067 0.2-0.022 0.010-0.045 0.021-0.067 0.033v0.067l-0.067 0.066v0.066h-0.033v0.066h-0.033v0.067c-0.022 0.011-0.045 0.022-0.067 0.033v0.067l-0.067 0.066v0.066h-0.033v0.067h-0.033v0.066h-0.034v0.066h-0.033v0.067h-0.033v0.066h-0.033v0.066h-0.034v0.067h-0.033v0.066h-0.033v0.1h-0.034v0.066h-0.033v0.066h-0.033c-0.011 0.045-0.023 0.089-0.034 0.134h-0.033v0.1h-0.033c-0.011 0.045-0.022 0.089-0.034 0.134h-0.033v0.1h-0.033v0.066h-0.033c-0.011 0.055-0.023 0.111-0.034 0.166h-0.033v0.1h-0.033v0.066h-0.034c-0.022 0.1-0.045 0.2-0.067 0.3h-0.034v0.067h-0.033v0.133c-0.058 0.158-0.163 0.321-0.167 0.534-0.033 0.011-0.067 0.021-0.1 0.033v0.034h-0.067v0.034h-0.067c-0.022 0.033-0.045 0.066-0.067 0.1h-0.067c-0.022 0.033-0.045 0.066-0.067 0.1h-0.067c-0.056 0.066-0.112 0.133-0.167 0.2h-0.067c-0.034 0.044-0.067 0.089-0.1 0.133-0.022 0.011-0.045 0.022-0.067 0.034-0.011 0.033-0.022 0.066-0.033 0.1-0.067 0.055-0.134 0.111-0.201 0.166-0.063 0.088-0.077 0.174-0.168 0.233v0.033c-0.033-0.011-0.067-0.021-0.1-0.033v-0.034c-0.034-0.011-0.067-0.022-0.1-0.034-0.011-0.021-0.023-0.044-0.034-0.066h-0.067c-0.023-0.034-0.045-0.066-0.067-0.1h-0.067c-0.033-0.045-0.067-0.089-0.1-0.134h-0.067c-0.033-0.044-0.067-0.089-0.1-0.133h-0.067c-0.045-0.056-0.089-0.111-0.134-0.166h-0.067c-0.022-0.034-0.045-0.067-0.067-0.1-0.056-0.045-0.112-0.090-0.167-0.134v-0.066c-0.022-0.011-0.045-0.022-0.067-0.034-0.022-0.066-0.044-0.134-0.067-0.2h-0.033v-0.1h-0.034v-0.1h-0.033c-0.046-0.131-0.122-0.873-0.067-1.066h0.033v-0.3h0.033v-0.2c0.050-0.165 0.113-0.373 0.167-0.533v-0.134h0.033v-0.1h0.033v-0.1h0.034v-0.1h0.033c0.011-0.066 0.022-0.133 0.033-0.2h0.034v-0.066h0.033c0.022-0.1 0.045-0.2 0.067-0.3h0.033c0.011-0.044 0.022-0.089 0.033-0.133h0.033v-0.1h0.034v-0.067h0.033v-0.1h0.033c0.022-0.066 0.045-0.133 0.067-0.2h0.033v-0.066h0.034v-0.1c0.022-0.011 0.045-0.022 0.067-0.033 0.033-0.1 0.067-0.2 0.1-0.3h0.033v-0.067h0.034v-0.066l0.067-0.066v-0.067c0.022-0.010 0.045-0.021 0.067-0.033v-0.067l0.067-0.066v-0.066h0.033v-0.067h0.033v-0.066l0.067-0.066v-0.066c0.022-0.011 0.045-0.022 0.067-0.034v-0.066l0.067-0.067v-0.066h0.033v-0.066c0.023-0.011 0.045-0.022 0.067-0.034v-0.066h0.033v-0.067c0.022-0.010 0.045-0.022 0.067-0.033 0.011-0.045 0.022-0.089 0.033-0.134 0.023-0.011 0.045-0.022 0.067-0.034v-0.066h0.033v-0.066c0.023-0.011 0.045-0.022 0.067-0.034 0.011-0.033 0.022-0.066 0.033-0.1h0.033c0.011-0.044 0.022-0.089 0.034-0.133 0.022-0.011 0.045-0.022 0.067-0.034v-0.066c0.023-0.011 0.045-0.022 0.067-0.034v-0.066c0.022-0.011 0.045-0.022 0.067-0.034v-0.066c0.022-0.011 0.045-0.022 0.067-0.034v-0.066c0.022-0.011 0.045-0.022 0.067-0.034v-0.066h0.033c0.011-0.034 0.022-0.066 0.033-0.1 0.023-0.011 0.045-0.022 0.067-0.034v-0.066c0.033-0.022 0.067-0.045 0.1-0.066v-0.067c0.023-0.011 0.045-0.021 0.067-0.033v-0.067c0.033-0.021 0.067-0.044 0.1-0.066 0.011-0.034 0.023-0.066 0.034-0.1 0.022-0.011 0.045-0.022 0.067-0.034v-0.066c0.022-0.011 0.044-0.022 0.067-0.034v-0.066c0.045-0.034 0.089-0.066 0.134-0.1v-0.066c0.034-0.022 0.067-0.045 0.1-0.066v-0.067c0.045-0.033 0.089-0.066 0.134-0.1v-0.066c0.045-0.034 0.090-0.066 0.134-0.1v-0.066c0.045-0.034 0.089-0.067 0.134-0.1v-0.067c0.056-0.044 0.112-0.089 0.167-0.133v-0.067c0.078-0.066 0.156-0.133 0.234-0.199v-0.067c0.078-0.066 0.156-0.133 0.234-0.2v-0.066h0.033c0.022-0.034 0.045-0.066 0.067-0.1 0.1-0.089 0.201-0.178 0.301-0.266v-0.066c0.122-0.111 0.245-0.222 0.368-0.334 0.281-0.28 0.543-0.563 0.87-0.8 0.078-0.089 0.156-0.177 0.234-0.266h0.067v-0.034c0.033-0.021 0.067-0.044 0.1-0.066 0.022-0.034 0.045-0.066 0.067-0.1h0.067c0.045-0.055 0.089-0.111 0.134-0.166h0.067c0.011-0.022 0.022-0.045 0.033-0.067 0.033-0.010 0.067-0.022 0.1-0.033 0.033-0.045 0.067-0.089 0.1-0.134h0.067c0.033-0.044 0.067-0.089 0.1-0.133h0.067c0.011-0.022 0.023-0.045 0.033-0.067h0.067c0.023-0.033 0.045-0.066 0.067-0.1h0.067c0.022-0.033 0.045-0.066 0.067-0.1h0.067c0.011-0.021 0.023-0.044 0.034-0.066h0.067c0.023-0.034 0.045-0.066 0.067-0.1h0.067c0.011-0.022 0.022-0.044 0.033-0.066h0.067c0.011-0.022 0.022-0.045 0.033-0.067 0.045-0.010 0.089-0.022 0.134-0.033 0.011-0.022 0.023-0.045 0.033-0.066h0.067c0.011-0.022 0.023-0.045 0.033-0.067h0.067c0.011-0.022 0.022-0.044 0.033-0.066h0.067v-0.034h0.067c0.011-0.022 0.023-0.044 0.034-0.066h0.067l0.067-0.066h0.067v-0.034h0.067c0.011-0.022 0.023-0.045 0.034-0.066h0.067l0.067-0.067h0.067v-0.033h0.067v-0.034h0.067v-0.034h0.067v-0.033c0.067-0.022 0.134-0.045 0.201-0.067v-0.033h0.1v-0.033h0.067v-0.034h0.1v-0.033h0.067v-0.034c0.067-0.011 0.134-0.022 0.201-0.033v-0.034h0.1v-0.034h0.1v-0.033h0.1v-0.034h0.134v-0.034h0.201c0.131-0.039 0.502-0.122 0.702-0.066 0.045 0.012 0.206 0.067 0.301 0.034v-0.034c0.045-0.011 0.089-0.022 0.134-0.034v-0.033h0.1v-0.034c0.067-0.011 0.134-0.022 0.201-0.034v-0.033c0.145 0.040 0.114 0.105 0.201 0.166h0.067v0.034c0.034 0.022 0.068 0.044 0.101 0.066 0.010 0.022 0.022 0.044 0.033 0.066h0.067c0.056 0.067 0.112 0.134 0.167 0.2h0.068c0.045 0.056 0.089 0.111 0.133 0.166h0.068c0.045 0.056 0.089 0.111 0.133 0.167h0.067c0.023 0.033 0.045 0.066 0.067 0.1 0.033 0.022 0.067 0.044 0.1 0.066v0.034h0.068v0.033c0.075 0.064 0.124 0.138 0.234 0.167v0.033c0.033-0.011 0.067-0.022 0.1-0.033v-0.034h0.067c0.011-0.022 0.022-0.045 0.034-0.066 0.067-0.022 0.134-0.045 0.2-0.067 0.011-0.022 0.023-0.044 0.034-0.066h0.068l0.067-0.066h0.067v-0.034h0.068c0.011-0.022 0.023-0.045 0.034-0.066h0.066v-0.034c0.056-0.011 0.113-0.022 0.168-0.034 0.011-0.022 0.021-0.044 0.033-0.066h0.068v-0.034c0.1-0.033 0.201-0.066 0.3-0.1v-0.033c0.045-0.011 0.090-0.022 0.135-0.034v-0.034h0.099v-0.033c0.045-0.011 0.090-0.022 0.134-0.034v-0.033h0.1v-0.034h0.067v-0.034h0.1v-0.033h0.068v-0.034c0.067-0.011 0.133-0.022 0.201-0.034v-0.033h0.099v-0.034h0.101v-0.034h0.099v-0.033h0.134c0.202-0.072 0.473-0.169 0.736-0.167v0.034c-0.068 0.011-0.135 0.022-0.201 0.034v0.033h-0.101v0.034h-0.099v0.034h-0.101v0.033h-0.099v0.034h-0.067v0.034h-0.099v0.033h-0.068v0.034h-0.1v0.034c-0.044 0.010-0.089 0.022-0.134 0.033v0.034h-0.099v0.034c-0.068 0.022-0.134 0.044-0.201 0.066v0.033h-0.068v0.034h-0.067v0.034h-0.067v0.033h-0.068v0.034h-0.067v0.034h-0.067l-0.068 0.066h-0.067c-0.011 0.022-0.023 0.045-0.033 0.066-0.068 0.022-0.135 0.045-0.201 0.067-0.011 0.022-0.023 0.044-0.034 0.066-0.068 0.022-0.134 0.045-0.201 0.066v0.034c-0.034 0.011-0.068 0.022-0.1 0.034-0.011 0.021-0.023 0.044-0.034 0.066-0.044 0.011-0.089 0.022-0.134 0.034-0.011 0.021-0.022 0.044-0.033 0.066h-0.067c-0.011 0.022-0.023 0.044-0.034 0.066h-0.068c-0.022 0.034-0.044 0.066-0.066 0.1h-0.068c-0.011 0.022-0.023 0.045-0.034 0.066h-0.067c-0.022 0.034-0.044 0.067-0.067 0.1h-0.068c-0.011 0.022-0.023 0.045-0.033 0.067h-0.067c-0.023 0.033-0.045 0.066-0.068 0.1h-0.067c-0.011 0.021-0.023 0.044-0.033 0.066h-0.068c-0.023 0.034-0.045 0.066-0.068 0.1h-0.066c-0.011 0.022-0.023 0.044-0.034 0.066h-0.068c-0.011 0.022-0.023 0.045-0.034 0.067-0.033 0.010-0.066 0.021-0.099 0.033-0.022 0.034-0.045 0.067-0.067 0.1h-0.067c-0.022 0.034-0.044 0.066-0.067 0.1h-0.068c-0.022 0.034-0.044 0.066-0.067 0.1h-0.067c-0.023 0.034-0.045 0.066-0.068 0.1h-0.066c-0.034 0.045-0.067 0.089-0.101 0.134-0.034 0.011-0.067 0.021-0.099 0.033-0.011 0.022-0.022 0.045-0.034 0.067h-0.068c-0.034 0.044-0.067 0.089-0.099 0.133h-0.068c-0.033 0.045-0.067 0.089-0.1 0.134h-0.067c-0.034 0.044-0.067 0.089-0.1 0.134h-0.067c-0.033 0.044-0.067 0.089-0.1 0.133h-0.067c-0.045 0.056-0.090 0.111-0.134 0.166h-0.067c-0.045 0.056-0.089 0.111-0.134 0.167h-0.067c-0.033 0.044-0.067 0.089-0.1 0.133h-0.033c-0.011 0.022-0.023 0.045-0.034 0.067h-0.067c-0.089 0.1-0.179 0.2-0.268 0.3h-0.067c-0.078 0.089-0.156 0.178-0.234 0.266-0.19 0.178-0.379 0.355-0.569 0.532v0.067c-0.1 0.089-0.201 0.178-0.301 0.266v0.066c-0.089 0.078-0.178 0.155-0.267 0.233v0.066c-0.067 0.055-0.134 0.111-0.201 0.166v0.067c-0.078 0.066-0.156 0.133-0.234 0.199v0.067h-0.033c-0.023 0.033-0.045 0.066-0.067 0.1-0.033 0.022-0.067 0.044-0.1 0.066v0.066c-0.067 0.056-0.134 0.111-0.201 0.167v0.066c-0.078 0.066-0.156 0.133-0.234 0.2l-0-0zM14.342 9.915c-0.011 0.022-0.023 0.044-0.033 0.066h-0.067c-0.022 0.034-0.045 0.066-0.067 0.1h-0.067c-0.023 0.034-0.045 0.066-0.067 0.1h-0.067c-0.023 0.034-0.045 0.066-0.067 0.1h-0.067c-0.033 0.045-0.067 0.089-0.1 0.134h-0.067c-0.045 0.055-0.089 0.11-0.134 0.166h-0.067c-0.056 0.066-0.112 0.133-0.167 0.2h-0.067c-0.112 0.121-0.223 0.244-0.334 0.366h-0.067c-0.078 0.089-0.156 0.178-0.234 0.266-0.033 0.022-0.067 0.045-0.1 0.067v0.066c-0.112 0.1-0.223 0.2-0.334 0.3v0.066c-0.023 0.011-0.045 0.022-0.067 0.034-0.033 0.044-0.067 0.089-0.1 0.133h-0.033v0.067h-0.033c-0.048 0.058-0.076 0.080-0.1 0.166h-0.067c0.056-0.1 0.112-0.2 0.167-0.3h0.033c0.011-0.034 0.023-0.066 0.033-0.1 0.023-0.011 0.045-0.022 0.067-0.034v-0.066c0.022-0.011 0.044-0.022 0.067-0.034v-0.066c0.033-0.022 0.067-0.044 0.1-0.066v-0.067c0.033-0.021 0.067-0.044 0.1-0.066v-0.066c0.045-0.034 0.089-0.066 0.134-0.1v-0.066c0.045-0.034 0.089-0.067 0.134-0.1v-0.067c0.056-0.044 0.112-0.089 0.167-0.133v-0.067c0.1-0.089 0.201-0.178 0.301-0.266v-0.066c0.067-0.056 0.134-0.111 0.201-0.166 0.089-0.1 0.179-0.2 0.268-0.3h0.067v-0.034c0.034-0.022 0.067-0.044 0.1-0.066 0.056-0.067 0.112-0.134 0.167-0.2h0.067c0.045-0.056 0.090-0.111 0.134-0.166h0.067c0.034-0.045 0.067-0.090 0.1-0.134h0.067c0.033-0.045 0.067-0.089 0.1-0.134h0.067c0.023-0.033 0.045-0.066 0.067-0.1h0.067c0.011-0.022 0.022-0.044 0.033-0.066h0.067c0.023-0.034 0.045-0.066 0.067-0.1h0.067c0.011-0.022 0.022-0.044 0.033-0.066 0.033-0.011 0.067-0.022 0.1-0.034v-0.034h0.067c0.011-0.021 0.022-0.044 0.033-0.066 0.033-0.011 0.067-0.022 0.1-0.033v-0.034h0.067v-0.034h0.067c0.011-0.022 0.023-0.044 0.033-0.066 0.061-0.039 0.075-0.001 0.134-0.066 0.038-0.029 0.005 0.004 0.033-0.034h-0.033c-0.055-0.041-0.505 0.026-0.636 0.034v-0.067c0.075-0.021 0.083-0.027 0.134-0.066v-0.034h0.067v-0.033h0.067c0.011-0.022 0.023-0.045 0.033-0.067h0.067v-0.033c0.268-0.111 0.535-0.222 0.803-0.334h0.133v-0.034h0.067v-0.033h0.134c0.118-0.041 0.24-0.096 0.402-0.1v-0.066c-0.257-0.051-0.503-0.106-0.837-0.1v-0.067c0.268-0.089 0.536-0.178 0.803-0.266 0.133-0.011 0.268-0.022 0.401-0.034 0.403-0.115 0.921-0.043 1.338 0v-0.066c-0.033-0.062-0.48-0.259-0.602-0.266v-0.034c0.465-0.084 0.927-0.063 1.338 0.067h0.167v0.033c0.118 0.043 0.191 0.015 0.268 0.1h0.1c-0.068-0.148-0.196-0.32-0.335-0.4v-0.033c0.189 0.044 0.379 0.089 0.568 0.133v0.034h0.068v0.034h0.099v0.033c0.045 0.011 0.090 0.022 0.135 0.034v0.034c0.044 0.010 0.088 0.021 0.133 0.033v0.034c0.045 0.011 0.089 0.022 0.133 0.033 0.096 0.051 0.127 0.119 0.268 0.134-0.022-0.084-0.103-0.193-0.167-0.233v-0.034c0.221 0.022 0.385 0.137 0.535 0.233h0.068c0.010 0.022 0.022 0.045 0.033 0.067 0.044 0.011 0.089 0.022 0.134 0.033 0.034 0.045 0.067 0.089 0.099 0.134h0.068c0.056 0.066 0.112 0.134 0.167 0.2 0.022 0.011 0.045 0.022 0.068 0.034v0.066c0.033 0.022 0.067 0.044 0.099 0.066 0.056 0.080 0.063 0.172 0.134 0.234v0.066c-0.112-0.066-0.222-0.134-0.335-0.2h-0.099v-0.033h-0.101v-0.034h-0.099v-0.034h-0.101v-0.033h-0.167v-0.034c-0.256-0.011-0.512-0.022-0.769-0.034-0.649 0-1.217 0.041-1.705 0.2-0.212 0.045-0.424 0.089-0.636 0.134v0.033c-0.201 0.056-0.401 0.111-0.602 0.167v0.033h-0.066v0.034h-0.101v0.034c-0.067 0.011-0.133 0.021-0.201 0.033v0.034c-0.044 0.011-0.088 0.022-0.133 0.034v0.033h-0.1v0.034c-0.044 0.011-0.089 0.022-0.134 0.034v0.033c-0.055 0.011-0.111 0.022-0.167 0.034v0.034c-0.067 0.021-0.133 0.044-0.201 0.066v0.034h-0.067v0.033h-0.067v0.034h-0.068v0.034h-0.067v0.033h-0.067v0.034h-0.068v0.033h-0.067l-0.067 0.067h-0.068c-0.011 0.022-0.022 0.044-0.034 0.066-0.066 0.022-0.133 0.045-0.2 0.066-0.011 0.022-0.023 0.045-0.034 0.067-0.067 0.021-0.134 0.044-0.201 0.066v0.034c-0.033 0.011-0.067 0.021-0.1 0.033-0.011 0.022-0.022 0.045-0.033 0.067-0.045 0.011-0.089 0.022-0.134 0.033-0.011 0.022-0.022 0.045-0.033 0.067h-0.067c-0.011 0.022-0.023 0.044-0.033 0.066h-0.067c-0.011 0.022-0.022 0.044-0.033 0.066h-0.067v0.034c-0.033 0.011-0.067 0.022-0.1 0.034-0.011 0.021-0.022 0.044-0.033 0.066h-0.067c-0.022 0.033-0.045 0.066-0.067 0.1h-0.067l0 0zM28.489 21.107h-0.034v0.066h-0.033c-0.011 0.055-0.022 0.111-0.033 0.166h-0.034v0.067c-0.023 0.010-0.045 0.021-0.068 0.033v0.067c-0.033 0.021-0.067 0.044-0.099 0.066v0.066h-0.034c-0.023 0.122-0.045 0.245-0.068 0.366h-0.033v0.1h-0.034v0.067h-0.033c-0.011 0.066-0.023 0.133-0.034 0.2h-0.034v0.066h-0.034v0.1h-0.033c-0.011 0.044-0.023 0.089-0.033 0.133h-0.034v0.067h-0.034v0.1c-0.023 0.011-0.045 0.021-0.068 0.033v0.067l-0.066 0.066v0.066h-0.034v0.067h-0.034v0.066l-0.067 0.066v0.067h-0.034c-0.011 0.033-0.022 0.066-0.033 0.1-0.022 0.010-0.045 0.021-0.068 0.033-0.011 0.045-0.023 0.089-0.034 0.134-0.022 0.011-0.044 0.022-0.067 0.033v0.067c-0.022 0.011-0.044 0.021-0.067 0.033v0.067c-0.034 0.021-0.068 0.044-0.1 0.066v0.066c-0.023 0.011-0.044 0.022-0.067 0.034v0.066c-0.022 0.011-0.045 0.022-0.068 0.034v0.034c-0.023 0.010-0.044 0.021-0.067 0.033v0.067c-0.044 0.033-0.089 0.066-0.134 0.1v0.066c-0.078 0.066-0.156 0.133-0.234 0.2v0.066c-0.055 0.045-0.112 0.089-0.168 0.134-0.099 0.11-0.201 0.221-0.3 0.333h-0.068c-0.067 0.078-0.133 0.156-0.201 0.234h-0.067c-0.033 0.044-0.067 0.089-0.1 0.133h-0.067c-0.011 0.022-0.023 0.045-0.034 0.067h-0.033c-0.011 0.022-0.022 0.044-0.034 0.066h-0.068c-0.011 0.022-0.022 0.045-0.033 0.066h-0.067c-0.023 0.034-0.045 0.067-0.068 0.1h-0.067c-0.011 0.022-0.023 0.045-0.033 0.067-0.034 0.011-0.068 0.021-0.101 0.033v0.034c-0.044 0.011-0.088 0.022-0.133 0.034-0.011 0.021-0.023 0.044-0.034 0.066-0.034 0.011-0.068 0.022-0.1 0.034v0.033c-0.044 0.011-0.089 0.022-0.134 0.034-0.011 0.022-0.023 0.044-0.033 0.066h-0.067l-0.068 0.067h-0.067v0.033h-0.067v0.034h-0.068v0.033h-0.067v0.034h-0.067v0.034c-0.068 0.021-0.134 0.044-0.201 0.066v0.034c-0.068 0.011-0.134 0.022-0.201 0.033v0.034c-0.045 0.011-0.089 0.022-0.134 0.034v0.033c-0.1 0.022-0.2 0.045-0.301 0.067v0.033h-0.067v0.034h-0.1v0.034c-0.089 0.011-0.178 0.021-0.267 0.033v0.034h-0.1v0.034h-0.134v0.033h-0.134v0.034h-0.167v0.034h-0.167v0.033c-0.133 0.011-0.267 0.022-0.401 0.034-0.291 0.084-0.699 0.066-1.070 0.066h-0.434v-0.033h-0.335v-0.034h-0.2v-0.034h-0.168v-0.033h-0.168v-0.034h-0.133v-0.034h-0.133v-0.033h-0.101v-0.034h-0.099v-0.034h-0.101v-0.033c-0.066-0.011-0.133-0.022-0.201-0.034v-0.034c-0.066-0.021-0.133-0.044-0.201-0.066v-0.034h-0.066v-0.033h-0.068v-0.034c-0.045-0.011-0.089-0.022-0.133-0.034-0.011-0.021-0.023-0.044-0.034-0.066h-0.068c-0.011-0.022-0.022-0.045-0.033-0.066h-0.067c-0.023-0.034-0.045-0.067-0.068-0.1h-0.067c-0.022-0.034-0.044-0.066-0.067-0.1-0.079-0.066-0.157-0.134-0.235-0.2v-0.066c-0.045-0.034-0.089-0.067-0.133-0.1v-0.067c-0.034-0.021-0.068-0.044-0.101-0.066v-0.066c-0.023-0.011-0.044-0.022-0.067-0.034v-0.066c-0.022-0.011-0.044-0.022-0.067-0.034-0.011-0.044-0.022-0.089-0.034-0.134-0.023-0.010-0.045-0.021-0.067-0.033-0.011-0.045-0.023-0.089-0.033-0.134-0.079-0.143-0.197-0.286-0.234-0.466h-0.101c-0.022 0.178-0.044 0.355-0.066 0.534h-0.067c-0.045-0.122-0.089-0.245-0.133-0.367h-0.034c-0.011-0.066-0.022-0.133-0.034-0.2-0.148-0.373-0.246-0.832-0.235-1.365-0.033 0.010-0.066 0.021-0.099 0.033-0.023 0.067-0.045 0.134-0.068 0.2-0.076 0.14-0.22 0.306-0.235 0.5h-0.066c-0.056-0.189-0.112-0.377-0.168-0.566-0.022-0.211-0.045-0.422-0.067-0.633-0.006-0.135-0.035-0.425 0.033-0.499v-0.3h-0.033c-0.078 0.121-0.156 0.244-0.235 0.366h-0.033c0.001-0.287-0.078-0.626 0-0.9v-0.366h0.033v-0.234h0.034v-0.133h0.033v-0.134h0.033v-0.133h0.034c0.022-0.1 0.044-0.2 0.067-0.3h0.034v-0.067h0.033v-0.1h0.033c0.023-0.066 0.045-0.133 0.067-0.2h0.033c0.011-0.044 0.023-0.089 0.034-0.133 0.023-0.011 0.045-0.022 0.067-0.034 0.023-0.066 0.044-0.133 0.067-0.2h0.034c0.011-0.033 0.023-0.066 0.034-0.1 0.023-0.011 0.044-0.021 0.067-0.033v-0.067c0.023-0.011 0.044-0.021 0.067-0.033v-0.067c0.034-0.021 0.068-0.044 0.101-0.066v-0.066c0.044-0.034 0.088-0.067 0.133-0.1v-0.067c0.056-0.044 0.111-0.089 0.167-0.133v-0.066c0.023-0.011 0.045-0.022 0.068-0.034 0.055-0.066 0.111-0.134 0.167-0.2h0.067v-0.066c-0.112-0.045-0.222-0.089-0.335-0.134v-0.034h-0.067v-0.033h-0.067l-0.068-0.067h-0.066l-0.034-0.066h-0.068l-0.034-0.066c-0.044-0.011-0.088-0.022-0.133-0.034-0.023-0.033-0.045-0.066-0.068-0.1h-0.066c-0.011-0.022-0.023-0.044-0.034-0.066h-0.067c-0.022-0.014-0.023-0.045-0.067-0.066 0.032-0.030 0.307-0.064 0.369-0.067-0.095-0.158-0.276-0.239-0.402-0.366-0.023-0.034-0.045-0.066-0.067-0.1h-0.033v-0.066c-0.067-0.056-0.134-0.111-0.201-0.166v-0.067c-0.033-0.022-0.067-0.044-0.1-0.066v-0.066c-0.022-0.011-0.045-0.022-0.067-0.034v-0.066c-0.023-0.011-0.045-0.022-0.067-0.034-0.011-0.034-0.023-0.066-0.033-0.1h-0.034c-0.011-0.045-0.022-0.089-0.033-0.134h-0.033c-0.023-0.066-0.045-0.133-0.067-0.2h-0.033v-0.099h-0.033v-0.067h-0.034v-0.1h-0.033c-0.011-0.078-0.023-0.155-0.033-0.233h-0.034v-0.134c0.167 0.098 0.295 0.317 0.502 0.366-0.026-0.138-0.063-0.335-0.1-0.466v-0.433h-0.033c-0.029-0.101 0.019-0.25 0.033-0.3v-0.434h0.033v-0.233h0.034v-0.167h0.033v-0.133h0.033c0.011-0.067 0.023-0.134 0.034-0.2h0.033v-0.067h0.033v-0.099h0.033v-0.067h0.034c0.022-0.066 0.045-0.133 0.067-0.2 0.022-0.011 0.045-0.021 0.067-0.033v-0.067c0.023-0.011 0.045-0.021 0.067-0.033v-0.067c0.033-0.021 0.067-0.044 0.1-0.066v-0.066c0.1-0.089 0.2-0.178 0.301-0.266 0.044-0.056 0.089-0.111 0.133-0.167h0.068c0.011-0.022 0.022-0.044 0.034-0.066 0.033-0.011 0.066-0.022 0.099-0.034v-0.033h0.068c0.011-0.022 0.022-0.045 0.033-0.067h0.067l0.068-0.066h0.067v-0.034h0.067v-0.033h0.067v-0.034c0.201-0.055 0.402-0.111 0.602-0.166h0.3v-0.034h0.469v0.034h0.769v0.033h0.602v-0.033h0.334v-0.034c0.1-0.011 0.201-0.022 0.301-0.034v-0.033h0.134v-0.034h0.099v-0.034c0.045-0.010 0.090-0.022 0.134-0.033v-0.034h0.1v-0.034h0.068v-0.033h0.066c0.011-0.022 0.023-0.045 0.034-0.066 0.045-0.011 0.090-0.022 0.134-0.034 0.011-0.022 0.022-0.045 0.033-0.066h0.068c0.023-0.034 0.045-0.067 0.067-0.1h0.067c0.034-0.045 0.068-0.089 0.101-0.134h0.067c0.089-0.1 0.178-0.2 0.267-0.3h0.068c0.033-0.044 0.066-0.089 0.099-0.134 0.045-0.010 0.090-0.021 0.134-0.033v-0.034c0.067-0.022 0.134-0.044 0.201-0.066v-0.034h0.134v-0.033h0.201v-0.034c0.087-0.025 0.439 0.042 0.501 0.066v0.034h0.1c0.011 0.022 0.023 0.044 0.034 0.066h0.067c0.011 0.022 0.023 0.045 0.034 0.066h0.067c0.033 0.045 0.067 0.090 0.1 0.134 0.022 0.011 0.045 0.022 0.067 0.034v0.066c0.022 0.011 0.044 0.022 0.066 0.034 0.011 0.033 0.023 0.066 0.034 0.1h0.034c0.078 0.2 0.156 0.4 0.234 0.599v0.134h0.033v0.1h0.034v0.2h0.033v0.234h0.034v0.299h0.034v0.334h0.034v0.3h0.033v0.366h0.034v0.366h0.033v0.3h0.034v0.2h0.034v0.134h0.034v0.133h0.033v0.1h0.033c0.011 0.045 0.023 0.089 0.034 0.134 0.023 0.011 0.045 0.022 0.068 0.034 0.034 0.044 0.067 0.089 0.099 0.133h0.068l0.067 0.067h0.067v0.033h0.068v0.034h0.067v0.033h0.067v0.034h0.101v0.034c0.066 0.022 0.133 0.044 0.201 0.066v0.034h0.066v0.033h0.068v0.034h0.068v0.034h0.066v0.033h0.068v0.034h0.067v0.034h0.067v0.033c0.045 0.011 0.090 0.022 0.134 0.034 0.011 0.022 0.023 0.045 0.034 0.066 0.067 0.022 0.134 0.045 0.2 0.067v0.033c0.034 0.011 0.068 0.022 0.101 0.034 0.011 0.022 0.022 0.044 0.034 0.066h0.066c0.011 0.022 0.023 0.045 0.034 0.067h0.068c0.011 0.021 0.023 0.044 0.034 0.066 0.033 0.011 0.066 0.022 0.099 0.033 0.034 0.045 0.067 0.090 0.1 0.134h0.067c0.123 0.134 0.246 0.266 0.368 0.4 0.135 0.022 0.268 0.045 0.401 0.066 0.011 0.022 0.023 0.045 0.034 0.067h0.067c0.056 0.039 0.085 0.121 0.167 0.166 0.011 0.055 0.023 0.111 0.034 0.166h0.033c-0.007 0.161-0.054 0.276-0.134 0.366-0.033 0.022-0.067 0.045-0.099 0.067v0.066c-0.201 0.189-0.401 0.377-0.602 0.566-0.090 0.1-0.178 0.2-0.268 0.3h-0.067c-0.055 0.066-0.112 0.134-0.167 0.2h-0.067c-0.034 0.044-0.068 0.089-0.101 0.133h-0.066c-0.023 0.034-0.045 0.067-0.068 0.1h-0.068c-0.022 0.034-0.044 0.067-0.066 0.1h-0.067c-0.011 0.022-0.023 0.045-0.034 0.067h-0.067v0.033c-0.033 0.011-0.067 0.022-0.1 0.034-0.022 0.034-0.045 0.066-0.067 0.1-0.044 0.011-0.089 0.022-0.134 0.034-0.011 0.021-0.022 0.044-0.034 0.066-0.033 0.011-0.066 0.022-0.099 0.034v0.033h-0.068v0.034h-0.067c-0.011 0.022-0.022 0.045-0.033 0.066h-0.067l-0.068 0.067h-0.066v0.033h-0.068c-0.011 0.022-0.022 0.045-0.034 0.067-0.067 0.021-0.133 0.044-0.201 0.066v0.033h-0.067v0.034c-0.067 0.022-0.134 0.045-0.2 0.066v0.034h-0.101v0.034c-0.044 0.011-0.088 0.022-0.133 0.033v0.034h-0.068v0.034h-0.099v0.033c-0.045 0.011-0.090 0.022-0.134 0.034v0.034c-0.1 0.021-0.201 0.044-0.301 0.066v0.034h-0.068v0.033c-0.111 0.022-0.222 0.045-0.334 0.067v0.033h-0.1v0.034h-0.1v0.034h-0.133v0.033c-0.090 0.011-0.178 0.022-0.268 0.034v0.034h-0.099v0.033h-0.168c-0.205 0.064-0.494 0.106-0.703 0.166-0.747 0.056-1.493 0.111-2.24 0.167v0.033h-0.068v0.034h-0.1c-0.010 0.022-0.022 0.045-0.033 0.066h-0.068c-0.011 0.022-0.023 0.045-0.034 0.067h-0.066c-0.034 0.044-0.068 0.089-0.101 0.133-0.023 0.011-0.045 0.022-0.067 0.034v0.066c-0.033 0.022-0.067 0.045-0.1 0.067-0.023 0.066-0.045 0.133-0.068 0.199h-0.033v0.067h-0.033v0.133h-0.034v0.134h-0.034v0.666c0.207 0.695 0.574 1.062 1.204 1.332h0.099v0.034h0.101v0.034h0.133v0.033h0.167v0.034h0.167c0.257 0.077 0.849 0.114 1.138 0.034 0.222-0.011 0.446-0.022 0.669-0.034v-0.034h0.201v-0.033h0.201v-0.034h0.167c0.39-0.111 0.78-0.222 1.171-0.334v-0.033h0.068v-0.034c0.099-0.022 0.201-0.044 0.3-0.066v-0.034h0.068v-0.034c0.055-0.010 0.111-0.021 0.167-0.033v-0.034c0.067-0.022 0.133-0.044 0.201-0.066v-0.034h0.067v-0.033h0.1v-0.034c0.068-0.022 0.133-0.045 0.201-0.066v-0.034h0.067v-0.034c0.044-0.011 0.088-0.021 0.133-0.033 0.011-0.022 0.022-0.045 0.034-0.067h0.067l0.067-0.066h0.068v-0.034h0.067c0.011-0.021 0.022-0.044 0.033-0.066 0.068-0.022 0.134-0.045 0.201-0.066v-0.034c0.034-0.011 0.068-0.022 0.101-0.034 0.011-0.021 0.022-0.044 0.033-0.066 0.044-0.011 0.089-0.022 0.134-0.034v-0.033c0.034-0.011 0.067-0.022 0.099-0.034 0.011-0.022 0.023-0.044 0.034-0.066h0.068c0.023-0.034 0.044-0.066 0.067-0.1h0.067c0.011-0.022 0.022-0.045 0.034-0.066h0.067c0.011-0.022 0.022-0.045 0.034-0.067 0.033-0.011 0.067-0.021 0.1-0.033 0.022-0.034 0.045-0.067 0.067-0.1h0.067c0.045-0.056 0.090-0.111 0.134-0.167h0.067c0.068-0.078 0.134-0.155 0.201-0.233h0.068c0.067-0.078 0.133-0.156 0.201-0.233 0.023-0.011 0.044-0.022 0.067-0.033v-0.067c0.067-0.055 0.134-0.111 0.201-0.166v-0.066c0.033-0.022 0.067-0.045 0.1-0.067 0.053-0.077 0.111-0.199 0.133-0.3-0.126 0.035-0.217 0.121-0.3 0.2-0.011 0.022-0.022 0.045-0.034 0.067h-0.068c-0.033 0.044-0.067 0.089-0.099 0.133h-0.067c-0.023 0.034-0.045 0.067-0.067 0.1h-0.067c-0.034 0.045-0.068 0.089-0.101 0.134h-0.066c-0.022 0.034-0.045 0.066-0.068 0.1h-0.068c-0.010 0.022-0.022 0.044-0.033 0.066h-0.067c-0.023 0.034-0.045 0.066-0.068 0.1h-0.067c-0.011 0.022-0.022 0.045-0.033 0.066-0.034 0.011-0.068 0.022-0.101 0.034v0.034h-0.067c-0.010 0.022-0.022 0.044-0.033 0.066-0.045 0.011-0.090 0.022-0.134 0.034-0.011 0.021-0.022 0.044-0.033 0.066-0.034 0.011-0.068 0.022-0.101 0.034v0.033c-0.045 0.011-0.088 0.022-0.133 0.034-0.011 0.022-0.023 0.045-0.034 0.066-0.045 0.011-0.089 0.022-0.133 0.034-0.011 0.022-0.023 0.045-0.034 0.066h-0.068v0.034h-0.067c-0.011 0.022-0.022 0.044-0.033 0.066h-0.068l-0.067 0.067h-0.067v0.033h-0.068v0.034h-0.067v0.033h-0.067v0.034h-0.068v0.034h-0.067v0.033h-0.067v0.034h-0.068v0.034h-0.067v0.033c-0.044 0.011-0.089 0.022-0.134 0.034v0.034h-0.067v0.033h-0.1v0.034c-0.045 0.011-0.089 0.022-0.133 0.034v0.033h-0.101v0.034h-0.066v0.034h-0.101v0.033h-0.067v0.034c-0.067 0.011-0.134 0.022-0.201 0.034v0.033c-0.067 0.011-0.134 0.022-0.201 0.034v0.034h-0.067v0.033h-0.1v0.034c-0.123 0.022-0.245 0.044-0.369 0.066v0.034c-0.401 0.078-0.802 0.155-1.203 0.233-0.312 0.011-0.624 0.022-0.936 0.034-0.84 0-1.98-0.212-2.006-0.966 1.261 0.226 2.822 0.058 3.812-0.3h0.134v-0.033h0.1v-0.034h0.099v-0.034h0.101v-0.033c0.067-0.011 0.133-0.022 0.201-0.034v-0.034h0.067v-0.033h0.1v-0.034h0.067v-0.034h0.1v-0.033c0.068-0.022 0.134-0.045 0.201-0.067v-0.033h0.068v-0.034c0.055-0.011 0.111-0.022 0.167-0.034 0.011-0.021 0.022-0.044 0.034-0.066 0.066-0.022 0.133-0.044 0.2-0.066 0.011-0.022 0.022-0.045 0.034-0.067h0.067v-0.033c0.034-0.011 0.068-0.022 0.1-0.034v-0.066c-0.13 0.014-0.207 0.066-0.301 0.1-0.078 0.011-0.156 0.022-0.235 0.033v0.034h-0.066v0.034h-0.134v0.033h-0.1v0.034c-0.112 0.022-0.223 0.045-0.334 0.066v0.034c-0.469 0.111-0.937 0.222-1.405 0.334h-0.201c-0.193 0.056-0.469 0.076-0.669 0.133h-0.401c-0.118 0.034-0.774 0.078-0.937 0.034v-0.034c-0.178-0.011-0.357-0.022-0.535-0.033-0.122-0.037-0.238-0.091-0.401-0.1 0.005-0.331 0.196-0.643 0.435-0.733h0.201v-0.033h0.869v-0.034h0.435v-0.034h0.268v-0.033h0.234v-0.034h0.201v-0.034h0.234v-0.033h0.168v-0.034h0.134v-0.034c0.099-0.011 0.201-0.021 0.3-0.033v-0.034c0.101-0.011 0.201-0.022 0.301-0.034v-0.033h0.1v-0.034h0.1v-0.034c0.089-0.011 0.179-0.021 0.267-0.033v-0.034h0.068v-0.034h0.099v-0.033c0.079-0.011 0.157-0.022 0.235-0.034v-0.034h0.068v-0.033h0.099v-0.034h0.068v-0.033h0.1v-0.034h0.1v-0.034c0.045-0.011 0.089-0.022 0.133-0.033v-0.034h0.101v-0.034h0.066v-0.033h0.101v-0.034c0.067-0.022 0.133-0.045 0.201-0.066v-0.034h0.067v-0.034h0.067v-0.033h0.068v-0.034h0.066v-0.034h0.068l0.067-0.066h0.066c0.011-0.022 0.022-0.045 0.034-0.066h0.068l0.067-0.067h0.067v-0.033h0.068c0.011-0.022 0.023-0.045 0.033-0.067h0.067v-0.033h0.068c0.011-0.022 0.023-0.045 0.034-0.067 0.044-0.010 0.088-0.021 0.133-0.033 0.011-0.022 0.022-0.045 0.034-0.066h0.067c0.011-0.022 0.022-0.045 0.033-0.067h0.068c0.011-0.022 0.023-0.044 0.034-0.066h0.067v-0.034c0.033-0.011 0.067-0.021 0.1-0.033 0.011-0.022 0.023-0.045 0.034-0.067h0.067c0.011-0.021 0.022-0.044 0.033-0.066 0.034-0.011 0.067-0.022 0.101-0.034 0.023-0.033 0.044-0.066 0.067-0.1h0.067c0.034-0.044 0.068-0.089 0.1-0.133h0.067c0.056-0.067 0.113-0.134 0.167-0.2h0.068c0.068-0.078 0.133-0.156 0.201-0.233h0.067c0.011 0.045 0.023 0.089 0.034 0.134 0.022 0.011 0.044 0.022 0.067 0.033 0.011 0.056 0.022 0.111 0.034 0.167h0.034c0.011 0.066 0.023 0.133 0.033 0.2 0.119 0.3 0.21 0.672 0.201 1.099 0.249-0.010 0.653-0.107 0.803 0.067 0.121 0.029 0.177 0.107 0.2 0.233 0.054 0.061 0.073 0.327 0.034 0.434l0 0zM14.844 4.185c0.114 0.048 0.212 0.096 0.368 0.1-0.089-0.333-0.178-0.666-0.267-0.999h-0.067c-0.039 0.176-0.229 0.536-0.067 0.699 0.002 0.095 0.012 0.143 0.034 0.2l0 0zM14.242 5.884c0.067 0.078 0.134 0.155 0.201 0.233h0.1c0.023-0.033 0.045-0.066 0.067-0.1 0.088-0.083 0.205-0.122 0.267-0.233 0.013-0.021 0.052-0.004 0.033-0.067-0.145-0.111-0.29-0.221-0.435-0.333-0.011-0.022-0.022-0.045-0.033-0.067h-0.067c-0.011-0.021-0.022-0.044-0.033-0.066h-0.033c-0.011-0.022-0.023-0.044-0.034-0.066h-0.067c-0.045-0.056-0.089-0.111-0.134-0.166h-0.067c-0.045-0.056-0.089-0.111-0.134-0.167h-0.067c-0.044-0.055-0.089-0.111-0.134-0.166h-0.067c-0.011-0.022-0.022-0.044-0.033-0.066h-0.033c-0.011-0.022-0.023-0.045-0.034-0.067h-0.067c-0.023-0.033-0.045-0.066-0.067-0.1h-0.033c-0.011-0.021-0.023-0.044-0.034-0.066h-0.067c-0.011-0.022-0.022-0.044-0.033-0.066-0.034-0.022-0.067-0.045-0.1-0.066v-0.034h-0.067v-0.034c-0.049-0.038-0.059-0.048-0.134-0.066 0.033 0.244 0.067 0.489 0.1 0.732 0.121 0.057 0.209 0.147 0.301 0.234 0.011 0.022 0.022 0.044 0.034 0.066h0.067c0.067 0.078 0.134 0.156 0.201 0.234h0.067c0.011 0.022 0.022 0.044 0.033 0.066h0.034c0.055 0.066 0.111 0.134 0.167 0.2h0.067c0.067 0.078 0.134 0.155 0.201 0.234l0.067 0zM16.148 4.851h0.034c0.011-0.021 0.022-0.044 0.033-0.066 0.123-0.064 0.265-0.082 0.301-0.234-0.131-0.036-0.12-0.093-0.201-0.166-0.034-0.011-0.067-0.022-0.1-0.034-0.010-0.022-0.022-0.044-0.033-0.066-0.068-0.063-0.126-0.109-0.234-0.133 0.015 0.149 0.127 0.59 0.201 0.666v0.033l-0 0zM14.844 4.885h0.067c0.034 0.044 0.067 0.089 0.1 0.134 0.034 0.010 0.067 0.021 0.1 0.033 0.011 0.022 0.023 0.045 0.033 0.067 0.079 0.073 0.22 0.205 0.335 0.233 0.1-0.122 0.284-0.163 0.368-0.3h0.033v-0.033c-0.412-0.122-0.825-0.245-1.237-0.367v0.067c0.033 0.011 0.067 0.021 0.1 0.033 0.033 0.045 0.067 0.089 0.1 0.134zM22.135 14.211c0.036 0.122-0.008 0.256 0.068 0.334v0.066c0.064 0.099 0.372-0.006 0.501 0.034 0.136 0.041 0.269 0.122 0.435 0.133-0.015-0.265-0.087-0.533-0.167-0.732v-0.1h-0.034v-0.066h-0.034c-0.011-0.056-0.022-0.111-0.034-0.167-0.023-0.010-0.044-0.021-0.067-0.033-0.011-0.045-0.022-0.089-0.033-0.134-0.023-0.011-0.045-0.022-0.068-0.034-0.011-0.033-0.022-0.066-0.034-0.099-0.033-0.011-0.067-0.022-0.099-0.034-0.023-0.034-0.045-0.066-0.068-0.1h-0.201v0.034c-0.034 0.010-0.067 0.021-0.099 0.033-0.070 0.086-0.16 0.656-0.101 0.866h0.034l-0 0zM19.024 15.71c0.068 0.011 0.134 0.021 0.201 0.033v0.034c0.045 0.011 0.089 0.022 0.133 0.034v0.033h0.135v0.034c0.087-0.004 0.113-0.013 0.167-0.034-0.011-0.12-0.043-0.163-0.101-0.233h-0.033v-0.067l-0.067-0.066h-0.068c-0.034-0.044-0.067-0.089-0.099-0.134h-0.068c-0.011-0.021-0.023-0.044-0.034-0.066-0.33-0.209-0.748-0.246-1.304-0.233-0.074 0.065-0.197 0.028-0.301 0.066v0.034h-0.1c-0.236 0.119-0.706 0.394-0.769 0.666h-0.034c0.011 0.033 0.023 0.066 0.034 0.1 0.238-0.008 0.373-0.097 0.535-0.167h0.101v-0.033h0.099v-0.034c0.079-0.011 0.157-0.022 0.235-0.034v-0.033h0.133c0.416-0.133 0.867-0.026 1.204 0.1h-0zM23.037 15.477h-0.066c-0.022 0.034-0.045 0.066-0.068 0.1h-0.034v0.066h-0.033c-0.053 0.1-0.077 0.291-0.034 0.4h0.034c0.034 0.079-0.034 0.036 0.033 0.1 0.039 0.064 0.090 0.079 0.134 0.134 0.16-0.013 0.301-0.093 0.335-0.234h0.034v-0.133h0.033c0.033-0.102-0.027-0.264-0.067-0.3-0.025-0.094-0.060-0.096-0.101-0.167h-0.201v0.034zM22.034 16.677v-0.034c0.044-0.011 0.089-0.022 0.134-0.034 0.015-0.072 0.021-0.094 0.067-0.133-0.007-0.268-0.107-0.275-0.201-0.433-0.151-0.036-0.414-0.195-0.568-0.033-0.048 0.029-0.076 0.046-0.1 0.1v0.066h-0.034c0.024 0.236 0.144 0.281 0.235 0.433 0.114 0.024 0.293 0.127 0.468 0.067h-0zM18.523 16.543h0.099v-0.034c0.219-0.069 0.758 0.091 0.903-0.033h0.033c-0.072-0.276-0.619-0.403-0.97-0.3-0.088 0.011-0.178 0.022-0.266 0.033-0.011 0.022-0.023 0.045-0.034 0.067-0.056 0.011-0.112 0.022-0.167 0.033-0.023 0.034-0.045 0.067-0.068 0.1h-0.067v0.034c-0.044 0.034-0.089 0.066-0.134 0.1-0.015 0.082-0.032 0.122-0.034 0.234 0.135-0.015 0.229-0.049 0.335-0.1v-0.034c0.123-0.022 0.245-0.045 0.369-0.066v-0.034z"></path>
</svg>
