<?xml version="1.0" encoding="UTF-8"?>
<svg viewBox="0 0 32 32" version="1.1" xmlns="http://www.w3.org/2000/svg" xmlns:xlink="http://www.w3.org/1999/xlink">
<title>user-default</title>
<path d="M16.8 5.66c1.633 0.002 3.173 0.78 4.168 2.106 0.826 1.073 1.206 2.436 1.056 3.794-0.098 0.964-0.143 1.932-0.136 2.901v0.139c0.219 0.684 0.219 1.422 0 2.106-0.183 0.902-0.576 1.745-1.144 2.459-0.012 0.856-0.217 1.698-0.6 2.459-0.216 0.59-0.369 1.203-0.456 1.828l0 0.155c0.001 0.59 0.010 0.59 0.136 0.59 2.188 0.662 4.644 1.774 6.763 2.708-2.737 2.657-6.471 4.294-10.587 4.294-4.185 0-7.975-1.691-10.724-4.428 0.021-0.011 0.041-0.021 0.059-0.021 2.13-0.971 4.722-1.952 6.96-2.618l0.019-0c0.117-0.002 0.117-0.037 0.117-0.746 0.010-0.62-0.082-1.238-0.272-1.828-0.136-0.615-0.456-1.5-0.6-2.459-0.538-0.721-0.897-1.564-1.048-2.459-0.23-0.682-0.23-1.424 0-2.106v-0.074c0-0.279-0.144-1.688-0.28-2.901-0.15-1.358 0.23-2.721 1.056-3.794 1.001-1.324 2.542-2.101 4.176-2.106h1.336z"></path>
</svg>
