<?xml version="1.0" encoding="UTF-8"?>
<svg viewBox="0 0 32 32" version="1.1" xmlns="http://www.w3.org/2000/svg" xmlns:xlink="http://www.w3.org/1999/xlink">
<title>ai-sparkle</title>
<path d="M14.88 2.236h2.24l2.683 6.975c0.398 1.035 0.53 1.354 0.714 1.613 0.181 0.255 0.404 0.478 0.659 0.659 0.259 0.184 0.578 0.316 1.613 0.714l6.975 2.683v2.24l-6.975 2.683c-1.035 0.398-1.354 0.53-1.613 0.714-0.255 0.181-0.478 0.404-0.659 0.659-0.184 0.259-0.316 0.578-0.714 1.613l-2.683 6.975h-2.24l-2.683-6.975c-0.398-1.035-0.53-1.354-0.714-1.613-0.181-0.255-0.404-0.478-0.659-0.659-0.259-0.184-0.578-0.316-1.613-0.714l-6.975-2.683v-2.24l6.975-2.683c1.035-0.398 1.354-0.53 1.613-0.714 0.255-0.181 0.478-0.404 0.659-0.659 0.184-0.259 0.316-0.578 0.714-1.613l2.683-6.975zM16 6.009l-1.563 4.063c-0.017 0.043-0.033 0.086-0.049 0.128-0.328 0.854-0.568 1.477-0.949 2.014-0.337 0.474-0.751 0.888-1.225 1.224-0.537 0.382-1.16 0.621-2.014 0.949-0.042 0.016-0.085 0.033-0.128 0.049l-4.063 1.563 4.063 1.563c0.043 0.017 0.086 0.033 0.128 0.049 0.854 0.328 1.477 0.567 2.014 0.949 0.474 0.337 0.888 0.751 1.224 1.224 0.382 0.537 0.621 1.16 0.949 2.014 0.016 0.042 0.033 0.085 0.049 0.128l1.563 4.063 1.563-4.063c0.017-0.043 0.033-0.086 0.049-0.128 0.328-0.854 0.567-1.477 0.949-2.014 0.337-0.474 0.751-0.888 1.224-1.224 0.537-0.382 1.16-0.621 2.014-0.949 0.042-0.016 0.085-0.032 0.128-0.049l4.063-1.563-4.063-1.563c-0.043-0.017-0.086-0.033-0.128-0.049-0.854-0.328-1.477-0.568-2.014-0.949-0.474-0.337-0.888-0.751-1.224-1.225-0.382-0.537-0.621-1.16-0.949-2.014-0.016-0.042-0.032-0.085-0.049-0.128l-1.563-4.063z"></path>
</svg>
