<?xml version="1.0" encoding="UTF-8"?>
<svg viewBox="0 0 32 32" version="1.1" xmlns="http://www.w3.org/2000/svg" xmlns:xlink="http://www.w3.org/1999/xlink">
<title>voicemail</title>
<path d="M8 23c-3.866 0-7-3.134-7-7s3.134-7 7-7c3.866 0 7 3.134 7 7 0 1.074-0.242 2.091-0.674 3.001h3.348c-0.432-0.909-0.674-1.927-0.674-3.001 0-3.866 3.134-7 7-7s7 3.134 7 7c0 3.866-3.134 7-7 7h-16zM8 13c-1.657 0-3 1.343-3 3s1.343 3 3 3c1.657 0 3-1.343 3-3s-1.343-3-3-3zM24 13c-1.657 0-3 1.343-3 3s1.343 3 3 3c1.657 0 3-1.343 3-3s-1.343-3-3-3z"></path>
</svg>
