<?xml version="1.0" encoding="UTF-8"?>
<svg viewBox="0 0 32 32" version="1.1" xmlns="http://www.w3.org/2000/svg" xmlns:xlink="http://www.w3.org/1999/xlink">
<title>3</title>
<path fill="#000" style="fill: var(--color17, #000)" d="M16.193 7c0.378 0 0.728 0.053 1.048 0.16s0.596 0.258 0.826 0.455c0.231 0.197 0.411 0.434 0.54 0.713s0.193 0.588 0.193 0.928c0 0.278-0.036 0.527-0.109 0.746s-0.177 0.412-0.312 0.577c-0.135 0.166-0.298 0.306-0.49 0.421s-0.405 0.207-0.642 0.276c0.582 0.152 1.020 0.405 1.313 0.762s0.44 0.803 0.44 1.339c0 0.405-0.078 0.77-0.234 1.094s-0.369 0.599-0.639 0.826c-0.27 0.227-0.585 0.401-0.945 0.522s-0.745 0.181-1.157 0.181c-0.474 0-0.879-0.058-1.216-0.175s-0.622-0.277-0.854-0.482c-0.233-0.205-0.424-0.447-0.574-0.728s-0.277-0.585-0.38-0.912l0.474-0.197c0.087-0.037 0.175-0.055 0.262-0.055 0.083 0 0.157 0.017 0.221 0.052 0.043 0.023 0.079 0.055 0.108 0.096l0.051 0.093 0.037 0.085c0.058 0.119 0.129 0.253 0.212 0.402s0.195 0.29 0.337 0.421c0.141 0.131 0.317 0.242 0.527 0.332s0.471 0.135 0.783 0.135c0.312 0 0.585-0.050 0.82-0.15s0.43-0.23 0.586-0.39c0.156-0.16 0.273-0.338 0.352-0.534s0.119-0.391 0.119-0.584c0-0.238-0.032-0.455-0.097-0.651s-0.181-0.367-0.349-0.51c-0.168-0.143-0.401-0.256-0.699-0.338s-0.679-0.123-1.145-0.123v-0.793c0.378-0.004 0.702-0.045 0.97-0.123s0.488-0.184 0.658-0.319c0.17-0.135 0.294-0.297 0.371-0.485s0.115-0.397 0.115-0.627c0-0.254-0.041-0.475-0.122-0.663s-0.192-0.344-0.334-0.467c-0.141-0.123-0.309-0.215-0.502-0.276s-0.402-0.092-0.627-0.092c-0.225 0-0.432 0.033-0.624 0.098s-0.361 0.157-0.508 0.273c-0.148 0.117-0.271 0.256-0.371 0.418s-0.175 0.337-0.225 0.525c-0.033 0.119-0.083 0.205-0.15 0.258s-0.152 0.080-0.256 0.080l-0.066-0.003c-0.023-0.002-0.049-0.005-0.078-0.009l-0.58-0.098c0.058-0.401 0.17-0.757 0.337-1.066s0.377-0.568 0.633-0.777c0.256-0.209 0.549-0.368 0.879-0.476s0.687-0.163 1.070-0.163z"></path>
<path fill="#9e9e9e" style="fill: var(--color82, #9e9e9e)" d="M14.54 22.21c0 0.268-0.043 0.512-0.127 0.733s-0.205 0.408-0.36 0.565c-0.155 0.157-0.341 0.278-0.557 0.364s-0.457 0.129-0.72 0.129h-1.34v-3.582h1.34c0.263 0 0.503 0.043 0.72 0.129s0.402 0.207 0.557 0.365c0.155 0.157 0.275 0.346 0.36 0.566s0.127 0.464 0.127 0.733zM14.043 22.21c0-0.22-0.030-0.417-0.090-0.59s-0.145-0.32-0.255-0.44c-0.11-0.12-0.243-0.212-0.4-0.275s-0.331-0.095-0.523-0.095h-0.852v2.797h0.852c0.192 0 0.366-0.032 0.523-0.095s0.29-0.155 0.4-0.274c0.11-0.119 0.195-0.265 0.255-0.439s0.090-0.37 0.090-0.59zM17.407 20.418v0.395h-1.72v1.19h1.393v0.38h-1.393v1.223h1.72v0.395h-2.207v-3.582h2.207zM20.313 20.418v0.395h-1.72v1.253h1.47v0.395h-1.47v1.54h-0.488v-3.582h2.207z"></path>
</svg>
