<?xml version="1.0" encoding="UTF-8"?>
<svg viewBox="0 0 32 32" version="1.1" xmlns="http://www.w3.org/2000/svg" xmlns:xlink="http://www.w3.org/1999/xlink">
<title>yelp</title>
<path fill="#dd2c00" d="M7.117 22.105c-0.334 0-0.601-0.209-0.801-0.557-0.133-0.279-0.2-0.697-0.267-1.184-0.133-1.533 0-3.832 0.467-4.529 0.2-0.348 0.534-0.488 0.801-0.488 0.2 0 0.4 0.070 4.738 1.951 0 0 1.268 0.557 1.268 0.557 0.467 0.209 0.734 0.697 0.734 1.254s-0.334 0.975-0.801 1.115c0 0-1.802 0.627-1.802 0.627-4.004 1.254-4.137 1.254-4.337 1.254zM15.991 24.613c0 4.389 0 4.529-0.067 4.738-0.133 0.348-0.4 0.557-0.734 0.627-1.068 0.209-4.404-1.115-5.138-1.951-0.133-0.209-0.2-0.348-0.267-0.557 0-0.139 0-0.279 0.067-0.418 0.067-0.209 0.2-0.418 3.203-4.111 0 0 0.867-1.115 0.867-1.115 0.267-0.418 0.867-0.488 1.335-0.348 0.467 0.209 0.801 0.627 0.734 1.115 0 0.070 0 2.020 0 2.020zM15.19 15.277c-0.2 0.070-0.867 0.279-1.668-1.115 0 0-5.405-8.988-5.538-9.266-0.067-0.279 0-0.697 0.267-0.975 0.801-0.906 5.138-2.16 6.272-1.881 0.4 0.070 0.601 0.348 0.734 0.697 0.067 0.418 0.601 8.709 0.667 10.59 0.133 1.672-0.534 1.881-0.734 1.951zM18.126 17.367c-0.267-0.418-0.267-0.975 0-1.324 0 0 1.134-1.602 1.134-1.602 2.402-3.484 2.536-3.693 2.736-3.762 0.267-0.209 0.601-0.209 0.934-0.070 0.934 0.488 2.936 3.553 3.069 4.668 0 0 0 0 0 0.070 0 0.418-0.133 0.697-0.4 0.906-0.2 0.139-0.334 0.209-4.938 1.324-0.734 0.209-1.134 0.279-1.334 0.348 0 0 0-0.070 0-0.070-0.4 0.209-0.934-0.070-1.201-0.488zM25.933 23.289c-0.133 1.115-2.335 4.041-3.403 4.459-0.334 0.139-0.667 0.139-0.934-0.139-0.2-0.139-0.334-0.418-2.736-4.459l-0.734-1.184c-0.267-0.418-0.2-0.975 0.133-1.463 0.334-0.418 0.801-0.557 1.268-0.418 0 0 1.802 0.627 1.802 0.627 4.004 1.393 4.137 1.393 4.27 1.533 0.267 0.348 0.4 0.697 0.334 1.045z"></path>
</svg>
