<?xml version="1.0" encoding="UTF-8"?>
<svg viewBox="0 0 32 32" version="1.1" xmlns="http://www.w3.org/2000/svg" xmlns:xlink="http://www.w3.org/1999/xlink">
<title>pin</title>
<path d="M4.302 14.798c-0.445-0.445-0.445-1.167 0-1.613 2.378-2.378 5.633-3.345 8.724-2.901l5.045-8.715c0.316-0.545 1.013-0.731 1.558-0.415 0.086 0.050 0.165 0.11 0.235 0.181l10.802 10.801c0.445 0.445 0.445 1.167 0 1.613-0.070 0.070-0.149 0.131-0.235 0.181l-8.715 5.046c0.444 3.091-0.523 6.345-2.901 8.723-0.445 0.445-1.167 0.445-1.613 0l-5.644-5.644-7.256 7.256c-0.445 0.445-2.78 2.058-3.225 1.613s1.167-2.78 1.613-3.225l7.256-7.256-5.644-5.644z"></path>
</svg>
