<?xml version="1.0" encoding="UTF-8"?>
<svg viewBox="0 0 32 32" version="1.1" xmlns="http://www.w3.org/2000/svg" xmlns:xlink="http://www.w3.org/1999/xlink">
<title>pagerduty</title>
<path d="M26.010 2.214c2.085 0 3.776 1.694 3.776 3.776v0 20.020c0 2.085-1.694 3.776-3.776 3.776v0h-20.020c-2.085 0-3.776-1.694-3.776-3.776v0-20.020c0-2.085 1.693-3.776 3.776-3.776v0zM12.032 10.524h-4.529c-1.673 0-3.023 1.353-3.023 3.022v0 4.909c0 0.128 0.008 0.254 0.023 0.378v0h-0.023v6.798h2.644v-4.178c0.124 0.015 0.251 0.024 0.38 0.024v0h4.529c1.673 0 3.023-1.353 3.023-3.022v0-4.909c0-1.668-1.354-3.022-3.023-3.022v0zM27.519 6.369h-2.644v4.178c-0.124-0.015-0.251-0.024-0.38-0.024v0h-4.529c-1.673 0-3.023 1.353-3.023 3.022v0 4.909c0 1.668 1.354 3.022 3.023 3.022v0h4.529c1.673 0 3.023-1.353 3.023-3.022v0-4.909c0-0.128-0.008-0.254-0.024-0.378v0h0.024v-6.798zM12.037 12.79c0.415 0 0.752 0.336 0.752 0.755v0 4.91c0 0.417-0.338 0.755-0.752 0.755v0h-4.161c-0.416 0-0.752-0.336-0.752-0.755v0-4.91c0-0.417 0.337-0.755 0.752-0.755v0zM24.123 12.79c0.416 0 0.752 0.336 0.752 0.755v0 4.91c0 0.417-0.337 0.755-0.752 0.755v0h-4.16c-0.416 0-0.752-0.336-0.752-0.755v0-4.91c0-0.417 0.337-0.755 0.752-0.755v0z"></path>
</svg>
