<?xml version="1.0" encoding="UTF-8"?>
<svg viewBox="0 0 32 32" version="1.1" xmlns="http://www.w3.org/2000/svg" xmlns:xlink="http://www.w3.org/1999/xlink">
<title>add-park-location</title>
<path d="M27 2c1.598 0 2.904 1.249 2.995 2.824l0.005 0.176v11h-2v-11c0-0.513-0.386-0.936-0.883-0.993l-0.117-0.007h-22c-0.513 0-0.936 0.386-0.993 0.883l-0.007 0.117v22c0 0.513 0.386 0.936 0.883 0.993l0.117 0.007h12v2h-12c-1.598 0-2.904-1.249-2.995-2.824l-0.005-0.176v-22c0-1.598 1.249-2.904 2.824-2.995l0.176-0.005h22zM24 17c0.552 0 1 0.448 1 1v4h4c0.552 0 1 0.448 1 1s-0.448 1-1 1h-4.001l0.001 4c0 0.552-0.448 1-1 1s-1-0.448-1-1l-0.001-4h-3.999c-0.552 0-1-0.448-1-1s0.448-1 1-1h4v-4c0-0.552 0.448-1 1-1zM17.577 8.6c2.782 0 4.743 2.008 4.743 4.894 0 2.818-1.876 4.805-4.54 4.91l-0.224 0.004h-5.988v4.608c0 0.602-0.359 0.983-0.924 0.983-0.524 0-0.872-0.328-0.919-0.857l-0.005-0.126v-13.434c0-0.559 0.31-0.928 0.806-0.977l0.118-0.006h6.933zM17.094 10.291h-5.527v6.426h5.527c2.115 0 3.326-1.194 3.326-3.224 0-2.019-1.201-3.203-3.326-3.203z"></path>
</svg>
