<?xml version="1.0" encoding="UTF-8"?>
<svg viewBox="0 0 32 32" version="1.1" xmlns="http://www.w3.org/2000/svg" xmlns:xlink="http://www.w3.org/1999/xlink">
<title>control-room</title>
<path d="M25.669 8.368c0.012 0.15-0.038 0.298-0.139 0.408s-0.243 0.173-0.392 0.172h-1.248c-0.27-0.002-0.498-0.206-0.527-0.477-1.363-3.471-5.863-4.154-7.36-4.154s-6.003 0.683-7.335 4.154c-0.031 0.271-0.257 0.476-0.527 0.477h-1.248c-0.148 0-0.292-0.061-0.393-0.172s-0.151-0.258-0.139-0.408c0.354-3.614 4.964-6.369 9.64-6.369s9.312 2.754 9.667 6.369zM18.187 14.063c0-1.216-0.978-2.2-2.185-2.2s-2.185 0.984-2.185 2.2c0 1.216 0.978 2.2 2.185 2.2s2.185-0.984 2.185-2.2zM22.984 13.368c-0.356-3.614-3.374-6.367-6.982-6.369-3.608 0-6.626 2.754-6.98 6.369-0.012 0.15 0.037 0.298 0.139 0.408s0.245 0.172 0.393 0.172h1.248c0.27-0.002 0.496-0.206 0.527-0.477 0.295-2.373 2.299-4.154 4.675-4.154s4.38 1.781 4.675 4.154c0.030 0.271 0.257 0.476 0.527 0.477h1.248c0.148 0.002 0.29-0.061 0.392-0.172s0.151-0.258 0.139-0.408zM16 21c1.577 0 2.918-0.465 4-1.096v4.096c0 2.209-1.791 4-4 4s-4-1.791-4-4v-4.096c1.082 0.632 2.423 1.096 4 1.096zM10 19.236c0-1.055 1.949-1.716 2.845-1.158 0.858 0.534 1.909 0.922 3.155 0.922s2.297-0.388 3.155-0.922c0.896-0.558 2.845 0.103 2.845 1.158v4.764c0 3.314-2.686 6-6 6s-6-2.686-6-6v-4.764z"></path>
</svg>
