<?xml version="1.0" encoding="UTF-8"?>
<svg viewBox="0 0 32 32" version="1.1" xmlns="http://www.w3.org/2000/svg" xmlns:xlink="http://www.w3.org/1999/xlink">
<title>ai-writer-menu</title>
<path d="M0.031 16.809c0.071-0.317 0.101-0.628 0.19-0.927 0.435-1.464 1.241-2.68 2.381-3.671 0.722-0.627 1.533-1.091 2.461-1.326 1.26-0.318 2.399-0.032 3.45 0.706 0.627 0.441 1.188 0.963 1.761 1.47 2.069 1.832 4.136 3.665 6.202 5.499 0.749 0.665 1.494 1.334 2.241 2.001 1.028 0.918 1.675 2.073 2.075 3.39 0.406 1.338 0.784 2.684 1.177 4.025 0.375 1.281 0.741 2.564 1.111 3.847 0.017 0.061 0.032 0.122 0.046 0.196-0.815 0.012-0.288-0.014-1.127-0.019-0.664-0.094-2.642-0.156-3.28-0.244-0.736-0.101-1.472-0.202-2.209-0.303-0.726-0.1-1.452-0.199-2.177-0.299-0.753-0.104-1.458-0.332-2.080-0.796-0.505-0.377-0.966-0.805-1.437-1.221-2.396-2.118-4.791-4.238-7.184-6.359-0.683-0.605-1.383-1.191-2.006-1.862-0.492-0.529-0.925-1.102-1.229-1.767-0.19-0.417-0.288-0.858-0.365-1.306 0-0.339 0-0.679 0-1.033zM11.361 17.999c-1.126-0.998-2.251-1.998-3.378-2.995-0.404-0.357-0.797-0.73-1.283-0.979-0.604-0.309-1.184-0.271-1.742 0.114-0.366 0.252-0.661 0.581-0.943 0.921-0.356 0.429-0.705 0.864-0.93 1.384-0.156 0.362-0.22 0.737-0.144 1.129 0.102 0.523 0.409 0.923 0.78 1.272 1.254 1.179 2.565 2.292 3.848 3.437 1.424 1.271 2.855 2.534 4.285 3.797 0.57 0.503 1.125 1.024 1.718 1.499 0.309 0.248 0.643 0.463 1.038 0.527 0.564 0.092 1.133 0.157 1.699 0.232 0.68 0.090 1.36 0.182 2.041 0.269 0.251 0.032 0.499 0.088 0.755 0.086 0.017-0.096-0.018-0.169-0.039-0.244-0.32-1.143-0.649-2.284-0.959-3.43-0.238-0.882-0.669-1.63-1.353-2.234-1.796-1.586-3.585-3.181-5.393-4.787z"></path>
<path d="M32.031 8.588c-0.24 0.743-0.797 1.101-1.48 1.29-0.416 0.115-0.847 0.172-1.262 0.29-1.986 0.564-3.186 1.885-3.622 3.928-0.090 0.423-0.151 0.853-0.308 1.258-0.119 0.31-0.289 0.584-0.529 0.814-0.45 0.43-1.040 0.496-1.562 0.16-0.528-0.34-0.809-0.856-0.963-1.451-0.111-0.428-0.182-0.868-0.299-1.295-0.495-1.8-1.64-2.936-3.418-3.41-0.457-0.122-0.929-0.181-1.381-0.327-0.472-0.153-0.883-0.4-1.181-0.814-0.413-0.574-0.339-1.275 0.177-1.758 0.395-0.369 0.878-0.536 1.386-0.648 0.584-0.129 1.18-0.218 1.723-0.491 1.633-0.82 2.631-2.127 2.931-3.966 0.051-0.312 0.109-0.623 0.209-0.925 0.181-0.545 0.478-0.984 1.039-1.204 0.196-0.008 0.384-0.008 0.596-0.001 0.757 0.259 1.169 0.808 1.402 1.532 0.146 0.453 0.219 0.923 0.331 1.384 0.423 1.728 1.47 2.856 3.153 3.358 0.408 0.122 0.832 0.184 1.246 0.284 0.828 0.201 1.523 0.576 1.811 1.467 0 0.17 0 0.34 0 0.525zM23.194 10.359c0.276 0.336 0.501 0.709 0.757 1.099 0.7-1.396 1.724-2.43 3.065-3.14-0.070-0.11-0.162-0.142-0.241-0.19-0.677-0.415-1.291-0.907-1.82-1.507-0.321-0.364-0.59-0.764-0.818-1.194-0.1-0.189-0.254-0.207-0.405-0.055-0.040 0.040-0.077 0.087-0.105 0.137-0.623 1.125-1.491 1.998-2.6 2.627-0.181 0.103-0.18 0.137-0.003 0.251 0.824 0.532 1.546 1.18 2.171 1.972z"></path>
</svg>
