<?xml version="1.0" encoding="UTF-8"?>
<svg viewBox="0 0 32 32" version="1.1" xmlns="http://www.w3.org/2000/svg" xmlns:xlink="http://www.w3.org/1999/xlink">
<title>rbn-on</title>
<path d="M8.919 6.107c0.782 0.78 0.783 2.047 0.003 2.828-1.86 1.864-2.922 4.378-2.922 7.064 0 2.706 1.077 5.237 2.962 7.104 0.785 0.777 0.79 2.044 0.013 2.828s-2.044 0.791-2.828 0.013c-2.635-2.611-4.147-6.161-4.147-9.945 0-3.757 1.489-7.283 4.091-9.89 0.78-0.782 2.047-0.783 2.828-0.003zM25.92 6.121c2.595 2.606 4.080 6.127 4.080 9.879 0 3.771-1.501 7.31-4.12 9.919-0.783 0.78-2.049 0.777-2.828-0.006s-0.777-2.049 0.006-2.828c1.873-1.866 2.943-4.388 2.943-7.085 0-2.683-1.059-5.193-2.915-7.057-0.779-0.783-0.777-2.049 0.006-2.828s2.049-0.777 2.828 0.006zM13.083 10.389c0.751 0.728 0.809 1.903 0.159 2.699l-0.115 0.129c-0.72 0.742-1.127 1.728-1.127 2.783 0 1.028 0.388 1.99 1.071 2.724l0.163 0.165c0.798 0.764 0.825 2.030 0.061 2.828s-2.030 0.825-2.828 0.061c-1.564-1.498-2.467-3.568-2.467-5.778 0-2.105 0.819-4.086 2.255-5.567 0.769-0.793 2.035-0.813 2.828-0.044zM21.611 10.297c1.517 1.493 2.389 3.531 2.389 5.703 0 2.139-0.846 4.149-2.322 5.636-0.778 0.784-2.045 0.788-2.828 0.010s-0.788-2.045-0.010-2.828c0.74-0.746 1.161-1.746 1.161-2.818 0-1.011-0.374-1.958-1.037-2.687l-0.158-0.164c-0.787-0.775-0.798-2.041-0.023-2.828s2.041-0.798 2.828-0.023z"></path>
</svg>
