<?xml version="1.0" encoding="UTF-8"?>
<svg viewBox="0 0 32 32" version="1.1" xmlns="http://www.w3.org/2000/svg" xmlns:xlink="http://www.w3.org/1999/xlink">
<title>new-note</title>
<path d="M15.999 2c6.525 0 11.834 5.209 11.996 11.695l0.004 0.305v3c0 0.552-0.448 1-1 1-0.513 0-0.936-0.386-0.993-0.883l-0.007-0.117v-3c0-5.429-4.327-9.848-9.72-9.996l-0.28-0.004h-8.999c-0.552 0-1 0.448-1 1v22c0 0.552 0.448 1 1 1h8.999c0.552 0 1 0.448 1 1 0 0.513-0.386 0.936-0.883 0.993l-0.117 0.007h-9.999c-1.105 0-2-0.895-2-2v-24c0-1.105 0.895-2 2-2h9.999zM22.999 18c0.552 0 1 0.448 1 1v4h4c0.552 0 1 0.448 1 1s-0.448 1-1 1h-4.001l0.001 4c0 0.552-0.448 1-1 1s-1-0.448-1-1l-0.001-4h-3.999c-0.552 0-1-0.448-1-1s0.448-1 1-1h4v-4c0-0.552 0.448-1 1-1zM15.999 17l0.117 0.007c0.497 0.058 0.883 0.48 0.883 0.993s-0.386 0.936-0.883 0.993l-0.117 0.007h-4.997l-0.117-0.007c-0.497-0.058-0.883-0.48-0.883-0.993s0.386-0.936 0.883-0.993l0.117-0.007h4.997zM20.999 11l0.117 0.007c0.497 0.058 0.883 0.48 0.883 0.993s-0.386 0.935-0.883 0.993l-0.117 0.007-10.113-0.007c-0.497-0.058-0.883-0.48-0.883-0.993s0.386-0.935 0.883-0.993l0.117-0.007h9.997z"></path>
</svg>
