<?xml version="1.0" encoding="UTF-8"?>
<svg viewBox="0 0 32 32" version="1.1" xmlns="http://www.w3.org/2000/svg" xmlns:xlink="http://www.w3.org/1999/xlink">
<title>marker_s</title>
<path fill="#fff" style="fill: var(--color2, #fff)" d="M14.671 28.015l1.079 1.032 0.69-0.658c6.685-6.374 10.060-11.485 10.060-15.489 0-6.016-4.809-10.9-10.75-10.9s-10.75 4.883-10.75 10.9c0 3.925 3.244 8.914 9.671 15.115zM7 12.9c0-4.919 3.921-8.9 8.75-8.9s8.75 3.981 8.75 8.9c0 3.098-2.775 7.479-8.38 13.013l-0.37 0.363c-5.853-5.706-8.75-10.211-8.75-13.376z"></path>
<path fill="#4475fd" style="fill: var(--color58, #4475fd)" d="M7 12.9c0-4.919 3.921-8.9 8.75-8.9s8.75 3.981 8.75 8.9c0 3.098-2.775 7.479-8.38 13.013l-0.37 0.363c-5.853-5.706-8.75-10.211-8.75-13.376z"></path>
</svg>
