<?xml version="1.0" encoding="UTF-8"?>
<svg viewBox="0 0 32 32" version="1.1" xmlns="http://www.w3.org/2000/svg" xmlns:xlink="http://www.w3.org/1999/xlink">
<title>welcome</title>
<path d="M20.892 2c-0.433-0.002-0.816 0.281-0.94 0.696s0.039 0.862 0.401 1.099c1.732 1.164 2.99 2.992 2.99 2.992 0.195 0.289 0.53 0.452 0.878 0.428s0.657-0.233 0.809-0.547c0.153-0.314 0.127-0.685-0.069-0.974 0 0-1.377-2.078-3.519-3.518-0.162-0.112-0.354-0.173-0.551-0.174v0zM16.308 3.303c-0.451 0.009-0.838 0.326-0.935 0.767s0.121 0.891 0.528 1.088c2.181 1.097 4.142 4.187 4.142 4.187 0.179 0.299 0.505 0.48 0.854 0.475s0.668-0.197 0.838-0.502c0.17-0.305 0.163-0.678-0.016-0.977 0 0-1.945-3.42-4.941-4.927-0.145-0.076-0.307-0.114-0.47-0.111v0zM10.843 4.631c-0.366 0.028-0.722 0.209-0.964 0.544-0.379 0.526-0.267 1.266 0.192 1.724l5.657 5.657c0.255 0.255 0.255 0.667 0 0.921s-0.667 0.255-0.921 0l-6.905-6.904c-0.559-0.559-1.5-0.504-1.983 0.167-0.379 0.526-0.267 1.264 0.192 1.723l6.856 6.856c0.255 0.255 0.255 0.667 0 0.921s-0.667 0.255-0.921 0l-6.019-6.018c-0.559-0.559-1.5-0.504-1.983 0.167-0.379 0.526-0.267 1.266 0.192 1.724l6.43 6.43c0.255 0.255 0.255 0.667 0 0.921s-0.667 0.255-0.921 0l-4.472-4.478c-0.458-0.459-1.197-0.571-1.724-0.192-0.671 0.483-0.727 1.424-0.168 1.983l10.229 10.234c2.187 2.187 5.732 2.189 7.919 0.001l5.151-5.151c0.62-0.62 1.132-1.85 1.13-2.727-0.010-3.823 0.657-5.585 1.092-7.629 0.324-1.522-1.075-2.949-2.559-2.023-2.518 1.57-1.543 5.053-3.249 6.759l-11.231-11.231c-0.28-0.28-0.654-0.406-1.020-0.378zM4.637 22.175c-0.345-0.008-0.668 0.167-0.85 0.46s-0.197 0.66-0.039 0.966c2.128 4.255 6.296 6.296 6.296 6.296 0.482 0.241 1.069 0.046 1.31-0.437s0.046-1.069-0.437-1.31c0 0-3.644-1.865-5.423-5.421-0.159-0.331-0.491-0.545-0.858-0.553z"></path>
</svg>
