<?xml version="1.0" encoding="UTF-8"?>
<svg viewBox="0 0 32 32" version="1.1" xmlns="http://www.w3.org/2000/svg" xmlns:xlink="http://www.w3.org/1999/xlink">
<title>change-tone</title>
<path d="M16 6.5c0.552 0 1 0.448 1 1v17c0 0.552-0.448 1-1 1v0c-0.552 0-1-0.448-1-1v-17c0-0.552 0.448-1 1-1v0z"></path>
<path d="M10 11c0.552 0 1 0.448 1 1v8c0 0.552-0.448 1-1 1v0c-0.552 0-1-0.448-1-1v-8c0-0.552 0.448-1 1-1v0 0z"></path>
<path d="M4 13.677c0.552 0 1 0.448 1 1v2.823c0 0.552-0.448 1-1 1v0 0c-0.552 0-1-0.448-1-1v-2.823c0-0.552 0.448-1 1-1v0z"></path>
<path d="M22 11c0.552 0 1 0.448 1 1v8c0 0.552-0.448 1-1 1v0c-0.552 0-1-0.448-1-1v-8c0-0.552 0.448-1 1-1v0 0z"></path>
<path d="M28 13.677c0.552 0 1 0.448 1 1v2.823c0 0.552-0.448 1-1 1v0 0c-0.552 0-1-0.448-1-1v-2.823c0-0.552 0.448-1 1-1v0z"></path>
</svg>
