<?xml version="1.0" encoding="UTF-8"?>
<svg viewBox="0 0 32 32" version="1.1" xmlns="http://www.w3.org/2000/svg" xmlns:xlink="http://www.w3.org/1999/xlink">
<title>Jump-to</title>
<path d="M23.879 9.464l5.657 5.657 0.083 0.094c0.235 0.187 0.381 0.469 0.381 0.784 0 0.288-0.122 0.547-0.316 0.73l-0.096 0.082-5.666 5.666c-0.391 0.391-1.024 0.391-1.414 0s-0.391-1.024 0-1.414l4.063-4.064-23.57 0c-0.552 0-1-0.448-1-1s0.448-1 1-1l23.586-0-4.122-4.121c-0.391-0.391-0.391-1.024 0-1.414s1.024-0.391 1.414 0z"></path>
</svg>
