<?xml version="1.0" encoding="UTF-8"?>
<svg viewBox="0 0 32 32" version="1.1" xmlns="http://www.w3.org/2000/svg" xmlns:xlink="http://www.w3.org/1999/xlink">
<title>camera-filled</title>
<path d="M22.2 5.6c0-1.105-0.895-2-2-2h-16.4c-1.105 0-2 0.895-2 2v14.4c0 1.105 0.895 2 2 2h8.232c0.408-5.149 4.715-9.2 9.968-9.2 0.067 0 0.133 0.001 0.2 0.002v-7.202z"></path>
<path d="M30.2 17.075c-1.592-2.275-4.106-3.857-7-4.204v-2.954c0-0.337 0.169-0.648 0.445-0.832l0.108-0.063 5-2.5c0.139-0.069 0.292-0.106 0.447-0.106v0.002c0.513 0 0.936 0.386 0.993 0.883l0.007 0.117v9.657z"></path>
<path d="M22 26.8c2.209 0 4-1.791 4-4s-1.791-4-4-4c-2.209 0-4 1.791-4 4s1.791 4 4 4z"></path>
<path d="M22 30.8c4.418 0 8-3.582 8-8s-3.582-8-8-8c-4.418 0-8 3.582-8 8s3.582 8 8 8zM22 28.8c-3.314 0-6-2.686-6-6s2.686-6 6-6c3.314 0 6 2.686 6 6s-2.686 6-6 6z"></path>
</svg>
