<?xml version="1.0" encoding="UTF-8"?>
<svg viewBox="0 0 32 32" version="1.1" xmlns="http://www.w3.org/2000/svg" xmlns:xlink="http://www.w3.org/1999/xlink">
<title>Delegated-lines</title>
<path d="M15.987 2c2.877 0.031 5.63 0.17 8.258 0.416l0.98 0.097c2.294 0.241 4.126 2.021 4.432 4.308 0.281 2.096 0.428 4.172 0.439 6.23 0.010 1.75-0.088 3.504-0.294 5.262l-0.112 0.879c-0.313 2.277-2.139 4.048-4.425 4.291-2.65 0.282-5.405 0.449-8.265 0.502l-0.001 3.014h4c0.552 0 1 0.448 1 1s-0.448 1-1 1h-10c-0.552 0-1-0.448-1-1s0.448-1 1-1h4l-0.001-2.998 1.012-0.003c-2.823 0.026-5.549-0.090-8.176-0.347l-0.981-0.103c-2.322-0.261-4.154-2.096-4.411-4.418-0.226-2.039-0.341-4.058-0.347-6.057-0.004-1.743 0.080-3.516 0.253-5.319l0.094-0.904c0.259-2.318 2.087-4.149 4.405-4.412 2.888-0.328 5.934-0.474 9.138-0.439zM23.5 15h-10c-0.828 0-1.5 0.672-1.5 1.5s0.672 1.5 1.5 1.5h10c0.828 0 1.5-0.672 1.5-1.5s-0.672-1.5-1.5-1.5zM18.5 8h-10c-0.828 0-1.5 0.672-1.5 1.5s0.672 1.5 1.5 1.5h10c0.828 0 1.5-0.672 1.5-1.5s-0.672-1.5-1.5-1.5z"></path>
</svg>
