<?xml version="1.0" encoding="UTF-8"?>
<svg viewBox="0 0 32 32" version="1.1" xmlns="http://www.w3.org/2000/svg" xmlns:xlink="http://www.w3.org/1999/xlink">
<title>engage_border</title>
<path d="M30.3 19c0-1.5-0.5-3.2-2.7-4.3v-0.1c0-6.1-4.1-12.3-12-12.3-8.3 0-11.3 6.7-11.3 12.3v0.1c-2.1 1.1-2.7 2.9-2.7 4.3 0 2 1 4.6 6 5.3h1.6c0.6 0 1-0.4 1-1v-8.7c0-0.6-0.4-1-1-1h-1.4c-0.5 0.1-0.9 0.2-1.4 0.3 0.2-4.8 2.7-9.6 9.3-9.6s9.7 4.9 10 9.6c-0.4-0.1-0.9-0.2-1.4-0.3h-1.6c-0.6 0-1 0.4-1 1v8.7c0 0.6 0.4 1 1 1h1.6c-0.3 1.1-1.2 2.5-4.6 3.1 0.1-0.2 0.1-0.5 0.1-0.8 0-2-1.6-3.7-3.7-3.7-2 0-3.7 1.6-3.7 3.7 0 2 1.6 3.7 3.7 3.7 0.8 0 1.5-0.3 2.1-0.7 6.3-0.6 8-3.4 8.2-5.8 3.2-1 3.9-3.1 3.9-4.8zM7.9 15.7h0.4v6.7h-0.4c-3.8-0.5-4.3-2.2-4.3-3.3 0-0.9 0.2-2 1.9-2.7 0.1 0 0.2-0.1 0.2-0.1 0.7-0.3 1.4-0.5 2.2-0.6zM16 28.3c-0.9 0-1.7-0.7-1.7-1.7s0.8-1.6 1.7-1.6 1.7 0.7 1.7 1.7-0.8 1.6-1.7 1.6zM24.1 22.3h-0.4v-6.7h0.4c0.9 0.1 1.6 0.3 2.1 0.5 0.1 0 0.1 0.1 0.2 0.1 1.7 0.7 1.9 1.9 1.9 2.7 0 1.3-0.4 2.9-4.2 3.4z"></path>
</svg>
