<?xml version="1.0" encoding="UTF-8"?>
<svg viewBox="0 0 32 32" version="1.1" xmlns="http://www.w3.org/2000/svg" xmlns:xlink="http://www.w3.org/1999/xlink">
<title>mac-keynote</title>
<path fill="#fff" style="fill: var(--color5, #fff)" opacity="0.991775" d="M3.556 0h24.889c1.964 0 3.556 1.592 3.556 3.556v24.889c0 1.964-1.592 3.556-3.556 3.556h-24.889c-1.964 0-3.556-1.592-3.556-3.556v-24.889c0-1.964 1.592-3.556 3.556-3.556z"></path>
<path fill="#039dfa" style="fill: var(--color32, #039dfa)" opacity="0.16" d="M3.556 0h24.889c1.964 0 3.556 1.592 3.556 3.556v24.889c0 1.964-1.592 3.556-3.556 3.556h-24.889c-1.964 0-3.556-1.592-3.556-3.556v-24.889c0-1.964 1.592-3.556 3.556-3.556z"></path>
<path fill="#039dfa" style="fill: var(--color32, #039dfa)" d="M24.889 16c0 3.818-2.408 7.074-5.787 8.333-0.966 0.36-2.011 0.556-3.102 0.556-1.114 0-2.18-0.205-3.163-0.579-3.348-1.275-5.726-4.514-5.726-8.31 0-4.909 3.98-8.889 8.889-8.889s8.889 3.98 8.889 8.889z"></path>
<path fill="#f2f2f2" style="fill: var(--color62, #f2f2f2)" d="M9.114 17.12c0 0.377 0.301 0.683 0.673 0.683h12.675c0.372 0 0.673-0.306 0.673-0.683h-14.021z"></path>
<path fill="#f2f2f2" style="fill: var(--color62, #f2f2f2)" d="M19.195 24.33c-0.956 0.361-1.99 0.558-3.070 0.558-1.102 0-2.158-0.206-3.13-0.581 0.036-0.012 0.074-0.019 0.113-0.019h1.911c0.394 0 0.714-0.324 0.714-0.724v-5.307h0.673v5.307c0 0.4 0.319 0.724 0.713 0.724h1.911c0.059 0 0.116 0.015 0.165 0.041l0 0z"></path>
<path fill="#f2f2f2" style="fill: var(--color62, #f2f2f2)" d="M22.314 11.334c-0.021-0.372-0.324-0.663-0.691-0.663h-10.283v-0.788c0-0.308 0.247-0.559 0.551-0.559h1.735c0.074 0.261 0.31 0.452 0.591 0.452h1.387c0.34 0 0.615-0.279 0.615-0.624v-0.133c0-0.345-0.275-0.624-0.615-0.624h-1.387c-0.302 0-0.553 0.221-0.605 0.512h-1.722c-0.531 0-0.962 0.438-0.962 0.976v0.788h-0.412c-0.367 0-0.671 0.291-0.691 0.663l-0.298 5.33h13.086l-0.298-5.33-0-0z"></path>
</svg>
