<?xml version="1.0" encoding="UTF-8"?>
<svg viewBox="0 0 32 32" version="1.1" xmlns="http://www.w3.org/2000/svg" xmlns:xlink="http://www.w3.org/1999/xlink">
<title>pause_circle</title>
<path d="M16 2c7.732 0 14 6.268 14 14s-6.268 14-14 14c-7.732 0-14-6.268-14-14s6.268-14 14-14zM13 10c-0.513 0-0.935 0.386-0.993 0.883l-0.007 0.117v10c0 0.552 0.448 1 1 1 0.513 0 0.935-0.386 0.993-0.883l0.007-0.117v-10c0-0.552-0.448-1-1-1zM19 10c-0.513 0-0.936 0.386-0.993 0.883l-0.007 0.117v10c0 0.552 0.448 1 1 1 0.513 0 0.936-0.386 0.993-0.883l0.007-0.117v-10c0-0.552-0.448-1-1-1z"></path>
</svg>
