<?xml version="1.0" encoding="UTF-8"?>
<svg viewBox="0 0 32 32" version="1.1" xmlns="http://www.w3.org/2000/svg" xmlns:xlink="http://www.w3.org/1999/xlink">
<title>mute-notification</title>
<path d="M25 13v3.264c0 1.34 0.449 2.642 1.275 3.698l2.195 2.805c0.681 0.87 0.527 2.127-0.342 2.808-0.352 0.275-0.786 0.425-1.233 0.425l-5.995 0.001c-0.464 2.282-2.481 3.999-4.9 3.999s-4.436-1.717-4.9-3.999l-2.273-0 15.746-15.746c0.277 0.865 0.426 1.787 0.426 2.745zM29.435 3.979c0.391 0.391 0.391 1.024 0 1.414l-24.042 24.042c-0.391 0.391-1.024 0.391-1.414 0s-0.391-1.024 0-1.414l24.042-24.042c0.391-0.391 1.024-0.391 1.414 0zM18.829 26.001h-5.658c0.412 1.165 1.523 1.999 2.829 1.999s2.417-0.834 2.829-1.999zM16 2c0.552 0 1 0.448 1 1l0.001 1.055c2.128 0.235 4.032 1.213 5.449 2.668l-18.725 18.725c-0.382-0.364-0.62-0.878-0.62-1.448 0-0.447 0.15-0.881 0.425-1.233l2.195-2.805c0.826-1.056 1.275-2.357 1.275-3.698v-3.264c0-4.633 3.5-8.448 8-8.945l-0-1.055c0-0.552 0.448-1 1-1z"></path>
</svg>
