<?xml version="1.0" encoding="UTF-8"?>
<svg viewBox="0 0 32 32" version="1.1" xmlns="http://www.w3.org/2000/svg" xmlns:xlink="http://www.w3.org/1999/xlink">
<title>insert-code</title>
<path d="M18.722 4.025c0.5 0.114 0.827 0.584 0.773 1.082l-0.019 0.115-5 22c-0.122 0.539-0.658 0.876-1.197 0.753-0.5-0.114-0.827-0.584-0.773-1.082l0.019-0.115 5-22c0.122-0.539 0.658-0.876 1.197-0.753zM24.705 9.705l4.881 4.881c0.781 0.781 0.781 2.047 0 2.828l-4.881 4.881c-0.389 0.389-1.021 0.389-1.41 0s-0.39-1.021-0.001-1.411l4.17-4.178c0.39-0.39 0.39-1.023 0-1.413l-4.17-4.178c-0.389-0.39-0.389-1.021 0.001-1.411s1.021-0.389 1.41 0zM8.705 9.705c0.389 0.389 0.39 1.021 0.001 1.411l-4.17 4.178c-0.39 0.39-0.39 1.023 0 1.413l4.17 4.178c0.389 0.39 0.389 1.021-0.001 1.411s-1.021 0.389-1.41 0l-4.881-4.881c-0.781-0.781-0.781-2.047 0-2.828l4.881-4.881c0.389-0.389 1.021-0.389 1.41 0z"></path>
</svg>
