<?xml version="1.0" encoding="UTF-8"?>
<svg viewBox="0 0 32 32" version="1.1" xmlns="http://www.w3.org/2000/svg" xmlns:xlink="http://www.w3.org/1999/xlink">
<title>fax_border</title>
<path d="M29 3c0.552 0 1 0.448 1 1s-0.448 1-1 1h-2v15.757c0 0.796-0.316 1.559-0.879 2.121l-5.536 5.536c-0.333 0.333-0.772 0.537-1.238 0.578l-0.176 0.008h-12.172c-1.105 0-2-0.895-2-2v-22h-2c-0.552 0-1-0.448-1-1s0.448-1 1-1h26zM25 5h-18v21c0 0.552 0.448 1 1 1h10v-5c0-1.105 0.895-2 2-2h5v-15zM24.17 22h-3.17c-0.552 0-1 0.448-1 1v3.17l4.17-4.17zM21 14c0.552 0 1 0.448 1 1s-0.448 1-1 1h-10c-0.552 0-1-0.448-1-1s0.448-1 1-1h10zM21 8c0.552 0 1 0.448 1 1s-0.448 1-1 1h-10c-0.552 0-1-0.448-1-1s0.448-1 1-1h10z"></path>
</svg>
