<?xml version="1.0" encoding="UTF-8"?>
<svg viewBox="0 0 32 32" version="1.1" xmlns="http://www.w3.org/2000/svg" xmlns:xlink="http://www.w3.org/1999/xlink">
<title>external_link</title>
<path d="M25 29h-20c-1.105 0-2-0.895-2-2v-20c0-1.105 0.895-2 2-2h8c0.552 0 1 0.448 1 1s-0.448 1-1 1h-7c-0.552 0-1 0.448-1 1v18c0 0.552 0.448 1 1 1h18c0.552 0 1-0.448 1-1v-7c0-0.552 0.448-1 1-1s1 0.448 1 1v8c0 1.105-0.895 2-2 2zM20 4c0 0.552 0.448 1 1 1h4.59l-7.885 7.885c-0.389 0.389-0.389 1.021 0 1.41s1.021 0.389 1.41 0l7.885-7.885v4.59c0 0.552 0.448 1 1 1s1-0.448 1-1v-7c0-0.552-0.448-1-1-1h-7c-0.552 0-1 0.448-1 1z"></path>
</svg>
