<?xml version="1.0" encoding="UTF-8"?>
<svg viewBox="0 0 32 32" version="1.1" xmlns="http://www.w3.org/2000/svg" xmlns:xlink="http://www.w3.org/1999/xlink">
<title>delete_circle</title>
<path d="M16 2c7.732 0 14 6.268 14 14s-6.268 14-14 14c-7.732 0-14-6.268-14-14s6.268-14 14-14zM11.757 10.343c-0.391-0.391-1.024-0.391-1.414 0-0.36 0.36-0.388 0.928-0.083 1.32l0.083 0.094 4.243 4.241-4.243 4.244c-0.391 0.391-0.391 1.024 0 1.414 0.36 0.36 0.928 0.388 1.32 0.083l0.094-0.083 4.243-4.244 4.243 4.244c0.391 0.391 1.024 0.391 1.414 0 0.36-0.36 0.388-0.928 0.083-1.32l-0.083-0.094-4.243-4.244 4.243-4.241c0.391-0.391 0.391-1.024 0-1.414-0.36-0.36-0.928-0.388-1.32-0.083l-0.094 0.083-4.243 4.241-4.243-4.241z"></path>
</svg>
