<?xml version="1.0" encoding="UTF-8"?>
<svg viewBox="0 0 32 32" version="1.1" xmlns="http://www.w3.org/2000/svg" xmlns:xlink="http://www.w3.org/1999/xlink">
<title>ai-writing-options</title>
<path d="M8.522 25.987c-0.522-0.148-0.926-0.553-1.084-1.087l-0.167-0.573c-0.030-0.089-0.177-0.089-0.197 0l-0.167 0.573c-0.148 0.524-0.552 0.929-1.084 1.087l-0.446 0.131c-0.083 0.024-0.204 0.049-0.204 0.136 0 0.049 0.030 0.089 0.079 0.099l0.571 0.168c0.522 0.148 0.926 0.553 1.084 1.087l0.131 0.448c0.024 0.083 0.048 0.204 0.135 0.204 0.049 0 0.089-0.030 0.099-0.079l0.167-0.573c0.148-0.524 0.552-0.929 1.084-1.087l0.446-0.131c0.083-0.024 0.204-0.049 0.204-0.136 0-0.049-0.030-0.089-0.079-0.099l-0.571-0.168z"></path>
<path d="M22.288 6.943l0.863 0.244c0.788 0.227 1.399 0.832 1.626 1.63l0.243 0.866c0.017 0.067 0.084 0.118 0.151 0.118s0.134-0.050 0.151-0.118l0.243-0.866c0.226-0.79 0.838-1.403 1.626-1.63l0.863-0.244c0.067-0.017 0.117-0.084 0.117-0.151s-0.050-0.134-0.117-0.151l-0.863-0.244c-0.788-0.227-1.399-0.832-1.626-1.63l-0.243-0.866c-0.042-0.134-0.268-0.134-0.302 0l-0.243 0.866c-0.226 0.79-0.838 1.403-1.626 1.63l-0.863 0.244c-0.067 0.017-0.117 0.084-0.117 0.151s0.050 0.134 0.117 0.151z"></path>
<path d="M26.008 14.387l0.093 0.055 0.083 0.063 0.052 0.046 1.884 1.722c0.318 0.241 0.448 0.639 0.344 1.005l-0.034 0.099-0.044 0.091-0.074 0.129-9.63 9.762c-0.109 0.109-0.237 0.2-0.407 0.275l-0.135 0.053-0.124 0.034-2.468 0.552h-0.090l-0.104-0.003c-0.365-0.031-0.671-0.264-0.792-0.586l-0.028-0.090-0.021-0.12-0.012-0.141 0.438-2.428c0.028-0.151 0.085-0.296 0.184-0.45l0.083-0.118 0.082-0.092 9.612-9.747c0.315-0.256 0.754-0.295 1.106-0.112l0.003-0.001zM22.941 18.683l-6.467 6.559-0.238 1.321 1.36-0.303 6.417-6.504-1.072-1.074zM25.563 16.024l-1.45 1.47 1.074 1.074 1.5-1.52-1.123-1.024z"></path>
<path d="M13.009 15.163l-0.92-2.954h-0.065l-0.918 2.954h1.902z"></path>
<path d="M13.699 24.273c-0.066 0.001-0.132 0.002-0.199 0.002-5.523 0-10-4.477-10-10s4.477-10 10-10c5.523 0 10 4.477 10 10 0 0.066-0.001 0.133-0.002 0.199l-9.799 9.799zM7.941 18.443h2.147l0.544-1.75h2.854l0.545 1.75h2.147l-2.789-8.333h-2.659l-2.789 8.333zM17.092 12.017l-0.013 6.426h1.973v-8.333h-1.96v1.907z"></path>
</svg>
