<?xml version="1.0" encoding="UTF-8"?>
<svg viewBox="0 0 32 32" version="1.1" xmlns="http://www.w3.org/2000/svg" xmlns:xlink="http://www.w3.org/1999/xlink">
<title>bitbucket</title>
<path d="M17.924 15.51c-0.004 1.058-0.873 1.922-1.933 1.916-1.060-0.003-1.916-0.869-1.911-1.932 0.004-1.066 0.862-1.919 1.928-1.914 1.064 0.006 1.917 0.865 1.915 1.93l-0-0zM25.101 22.088c0.008 0.077-0.004 0.161-0.019 0.238-0.268 1.412-0.54 2.82-0.802 4.232-0.089 0.475-0.303 0.872-0.637 1.212-0.371 0.38-0.807 0.661-1.274 0.899-0.862 0.438-1.776 0.714-2.713 0.907-1.212 0.252-2.438 0.364-3.135 0.358-2.12-0.005-3.681-0.174-5.205-0.614-0.706-0.202-1.387-0.466-2.023-0.838-0.333-0.195-0.644-0.421-0.916-0.695-0.342-0.344-0.563-0.744-0.652-1.228-0.261-1.411-0.536-2.821-0.805-4.231-0.014-0.071-0.018-0.143-0.017-0.215 0.017-0.346 0.326-0.525 0.637-0.372 0.032 0.019 0.063 0.036 0.092 0.055 1.033 0.75 2.185 1.251 3.394 1.633 1.11 0.352 2.248 0.564 3.407 0.667 1.337 0.121 2.667 0.091 3.993-0.097 1.76-0.247 3.441-0.749 5.003-1.608 0.311-0.171 0.603-0.378 0.901-0.568 0.049-0.032 0.096-0.067 0.148-0.092 0.298-0.133 0.592 0.034 0.622 0.355l0 0zM23.636 5.93c-0.108 0.122-0.241 0.231-0.383 0.314-0.396 0.236-0.837 0.36-1.279 0.477-0.837 0.213-1.692 0.337-2.547 0.426-1.126 0.119-2.256 0.161-3.335 0.165-1.311-0.007-2.564-0.059-3.811-0.209-0.936-0.114-1.868-0.256-2.768-0.557-0.266-0.092-0.526-0.207-0.777-0.335-0.128-0.064-0.242-0.163-0.339-0.267-0.173-0.19-0.173-0.397 0.004-0.583 0.103-0.111 0.228-0.204 0.358-0.278 0.373-0.216 0.783-0.343 1.196-0.45 0.865-0.225 1.746-0.354 2.634-0.448 1.453-0.149 2.91-0.194 4.369-0.151 1.34 0.040 2.679 0.139 4.003 0.379 0.62 0.112 1.238 0.241 1.825 0.48 0.207 0.084 0.408 0.191 0.601 0.304 0.095 0.056 0.183 0.144 0.253 0.234 0.124 0.16 0.13 0.349-0.004 0.5h-0zM15.982 19.342c-2.111-0.007-3.819-1.733-3.812-3.855 0.005-2.12 1.722-3.824 3.843-3.816 2.133 0.007 3.835 1.724 3.827 3.859-0.010 2.109-1.741 3.819-3.858 3.812h-0zM27.759 5.16c-0.179-0.251-0.397-0.462-0.641-0.648-0.537-0.419-1.141-0.717-1.769-0.97-1.334-0.537-2.724-0.854-4.136-1.081-1.722-0.275-3.459-0.385-5.284-0.396-1.631 0.014-3.34 0.118-5.036 0.382-1.204 0.189-2.393 0.445-3.549 0.836-0.764 0.262-1.504 0.571-2.179 1.025-0.321 0.214-0.617 0.458-0.859 0.764-0.303 0.386-0.432 0.815-0.354 1.301 0.152 0.961 0.293 1.923 0.452 2.879 0.232 1.417 0.472 2.834 0.713 4.247 0.269 1.571 0.546 3.143 0.808 4.715 0.062 0.366 0.216 0.676 0.462 0.941 0.157 0.171 0.326 0.332 0.505 0.478 0.642 0.519 1.374 0.889 2.139 1.191 1.831 0.73 3.746 1.060 5.705 1.169 1.422 0.079 2.842 0.029 4.256-0.165 1.204-0.163 2.384-0.421 3.529-0.834 0.849-0.307 1.662-0.682 2.397-1.215 0.312-0.229 0.601-0.482 0.831-0.794 0.16-0.209 0.268-0.443 0.312-0.708 0.349-2.059 0.712-4.116 1.052-6.177 0.318-1.91 0.616-3.823 0.93-5.734 0.075-0.441-0.027-0.84-0.285-1.206h0z"></path>
</svg>
