<?xml version="1.0" encoding="UTF-8"?>
<svg viewBox="0 0 32 32" version="1.1" xmlns="http://www.w3.org/2000/svg" xmlns:xlink="http://www.w3.org/1999/xlink">
<title>add-emoji-more</title>
<path d="M13.786 4c6.509 0 11.786 5.366 11.786 11.986 0 0.776-0.072 1.534-0.211 2.269-0.174-0.015-0.349-0.022-0.526-0.022-0.416 0-0.822 0.039-1.217 0.113 0.177-0.758 0.27-1.548 0.27-2.361 0-5.674-4.523-10.273-10.102-10.273s-10.102 4.6-10.102 10.273c0 5.674 4.523 10.273 10.102 10.273 1.587 0 3.089-0.372 4.425-1.035 0.021 0.607 0.121 1.193 0.29 1.749-1.444 0.643-3.039 0.999-4.715 0.999-6.509 0-11.786-5.366-11.786-11.986s5.277-11.986 11.786-11.986zM20.56 21.471c0.745 0 1.349 0.614 1.349 1.371s-0.604 1.371-1.349 1.371c-0.745 0-1.349-0.614-1.349-1.371s0.604-1.371 1.349-1.371zM24.606 21.471c0.745 0 1.349 0.614 1.349 1.371s-0.604 1.371-1.349 1.371c-0.745 0-1.349-0.614-1.349-1.371s0.604-1.371 1.349-1.371zM28.651 21.471c0.745 0 1.349 0.614 1.349 1.371s-0.604 1.371-1.349 1.371c-0.745 0-1.349-0.614-1.349-1.371s0.604-1.371 1.349-1.371zM18.58 17.82c0.402 0.237 0.539 0.761 0.306 1.17-1.047 1.835-2.975 2.989-5.1 2.989-2.109 0-4.025-1.137-5.077-2.949-0.236-0.407-0.104-0.932 0.297-1.172s0.916-0.105 1.153 0.302c0.753 1.296 2.12 2.108 3.628 2.108 1.519 0 2.895-0.824 3.644-2.136 0.233-0.409 0.749-0.548 1.151-0.311zM9.577 10.849c0.93 0 1.684 0.767 1.684 1.712s-0.754 1.712-1.684 1.712c-0.93 0-1.684-0.767-1.684-1.712s0.754-1.712 1.684-1.712zM17.995 10.849c0.93 0 1.684 0.767 1.684 1.712s-0.754 1.712-1.684 1.712c-0.93 0-1.684-0.767-1.684-1.712s0.754-1.712 1.684-1.712z"></path>
</svg>
