<?xml version="1.0" encoding="UTF-8"?>
<svg viewBox="0 0 32 32" version="1.1" xmlns="http://www.w3.org/2000/svg" xmlns:xlink="http://www.w3.org/1999/xlink">
<title>speaker-mute</title>
<path d="M19.414 3.414c0.375 0.375 0.586 0.884 0.586 1.414v22.343c0 1.105-0.895 2-2 2-0.53 0-1.039-0.211-1.414-0.586l-6.586-6.586h-6c-1.105 0-2-0.895-2-2v-8c0-1.105 0.895-2 2-2h6l6.586-6.586c0.781-0.781 2.047-0.781 2.828 0zM18 4.828l-6.586 6.586c-0.375 0.375-0.884 0.586-1.414 0.586h-5c-0.552 0-1 0.448-1 1v6c0 0.552 0.448 1 1 1h5c0.53 0 1.039 0.211 1.414 0.586l6.586 6.586v-22.343zM23.172 11.757l2.83 2.828 2.827-2.828c0.391-0.391 1.024-0.391 1.414 0s0.391 1.024 0 1.414l-2.827 2.828 2.827 2.828c0.391 0.391 0.391 1.024 0 1.414s-1.024 0.391-1.414 0l-2.827-2.828-2.83 2.828c-0.391 0.391-1.024 0.391-1.414 0s-0.391-1.024 0-1.414l2.83-2.828-2.83-2.828c-0.391-0.391-0.391-1.024 0-1.414s1.024-0.391 1.414 0z"></path>
</svg>
