<?xml version="1.0" encoding="UTF-8"?>
<svg viewBox="0 0 32 32" version="1.1" xmlns="http://www.w3.org/2000/svg" xmlns:xlink="http://www.w3.org/1999/xlink">
<title>advanced-setting</title>
<path d="M10.612 2c-3.732 0-6.944 2.211-8.403 5.393h6.788c1.152 0 2.083 0.931 2.083 2.081v3.031c0 1.151-0.931 2.081-2.083 2.081h-6.997c1.345 3.441 4.694 5.88 8.612 5.88 1.3 0 2.535-0.27 3.656-0.752l9.372 9.366c0.612 0.611 1.418 0.919 2.22 0.919s1.608-0.308 2.22-0.919c1.228-1.227 1.228-3.213 0-4.44l-9.228-9.226c0.639-1.257 1-2.678 1-4.186 0-5.097-4.135-9.23-9.239-9.23v0z"></path>
</svg>
