<?xml version="1.0" encoding="UTF-8"?>
<svg viewBox="0 0 32 32" version="1.1" xmlns="http://www.w3.org/2000/svg" xmlns:xlink="http://www.w3.org/1999/xlink">
<title>audio_sp</title>
<path d="M18.286 26.946l-6.835-4.549c-1.834-0.046-3.249-0.56-4.206-1.534-1.434-1.457-1.401-3.514-1.39-4.393l0.002-0.745-0.002-0.198c-0.015-0.933-0.043-2.877 1.365-4.309 0.958-0.971 2.381-1.486 4.231-1.529l6.835-4.552v21.808zM26.578 16c-0.006-2.764-1.477-5.184-3.676-6.525l-0.034-0.019-0.88 1.471c1.731 1.055 2.871 2.93 2.875 5.072v0.001c-0.006 2.143-1.145 4.018-2.849 5.059l-0.026 0.015 0.88 1.471c2.234-1.361 3.704-3.781 3.71-6.544v-0.001zM22.929 16c-0.004-1.373-0.735-2.573-1.827-3.24l-0.017-0.009-0.88 1.471c0.631 0.378 1.007 1.042 1.007 1.778s-0.376 1.4-1.007 1.778l0.88 1.472c1.109-0.676 1.84-1.877 1.843-3.25v-0.001z"></path>
</svg>
