<?xml version="1.0" encoding="UTF-8"?>
<svg viewBox="0 0 32 32" version="1.1" xmlns="http://www.w3.org/2000/svg" xmlns:xlink="http://www.w3.org/1999/xlink">
<title>add-member</title>
<path d="M23 16c3.866 0 7 3.134 7 7s-3.134 7-7 7c-3.866 0-7-3.134-7-7s3.134-7 7-7zM13 17c1.037 0 2.046 0.117 3.004 0.338-1.253 1.547-2.004 3.517-2.004 5.662 0 1.851 0.559 3.571 1.516 5.001l-11.516-0.001c-1.105 0-2-0.895-2-2 0-5.096 5.019-9 11-9zM23 18c-0.513 0-0.936 0.386-0.993 0.883l-0.007 0.117v3h-3c-0.552 0-1 0.448-1 1 0 0.513 0.386 0.936 0.883 0.993l0.117 0.007h2.999l0.001 3c0 0.552 0.448 1 1 1 0.513 0 0.936-0.386 0.993-0.883l0.007-0.117-0.001-3h3.001c0.552 0 1-0.448 1-1 0-0.513-0.386-0.936-0.883-0.993l-0.117-0.007h-3v-3c0-0.552-0.448-1-1-1zM13 3c3.314 0 6 2.686 6 6s-2.686 6-6 6c-3.314 0-6-2.686-6-6s2.686-6 6-6z"></path>
</svg>
