<?xml version="1.0" encoding="UTF-8"?>
<svg viewBox="0 0 32 32" version="1.1" xmlns="http://www.w3.org/2000/svg" xmlns:xlink="http://www.w3.org/1999/xlink">
<title>macos_command</title>
<path d="M11.823 13.752v4.496h-1.913c-2.142 0-3.886 1.673-3.886 3.829s1.744 3.9 3.886 3.9c2.147-0.005 3.886-1.747 3.886-3.895 0-0.002 0-0.004 0-0.005v0-1.9h4.41v1.9c0 2.156 1.745 3.9 3.886 3.9 2.147-0.005 3.886-1.747 3.886-3.895 0-0.002 0-0.004 0-0.005v0c0-2.156-1.744-3.83-3.886-3.83h-1.929v-4.495h1.93c2.14 0 3.885-1.673 3.885-3.829s-1.744-3.9-3.886-3.9c-2.147 0.005-3.886 1.747-3.886 3.895 0 0.002 0 0.004 0 0.005v-0 1.915h-4.41v-1.915c0-2.156-1.745-3.9-3.886-3.9-2.147 0.005-3.886 1.747-3.886 3.895 0 0.002 0 0.004 0 0.005v-0c0 2.156 1.744 3.83 3.886 3.83h1.914zM9.923 11.852c-0.002 0-0.005 0-0.007 0-1.065 0-1.929-0.864-1.929-1.929 0-1.063 0.86-1.925 1.922-1.929h0c1.050 0 1.914 0.865 1.914 1.943v1.915h-1.9zM22.077 11.852h-1.915v-1.915c0-1.078 0.88-1.943 1.93-1.943 1.062 0.004 1.921 0.866 1.921 1.929 0 1.065-0.864 1.929-1.929 1.929-0.003 0-0.005 0-0.008-0h0zM13.795 18.262v-4.524h4.41v4.524h-4.41zM9.923 20.134h1.9v1.929c0 0 0 0.001 0 0.001 0 1.060-0.855 1.92-1.913 1.928h-0.001c-1.062-0.004-1.922-0.866-1.922-1.929 0-1.065 0.864-1.929 1.929-1.929 0.002 0 0.005 0 0.007 0h-0zM22.077 20.134c0.002 0 0.005 0 0.007 0 1.065 0 1.928 0.863 1.928 1.928 0 1.063-0.859 1.925-1.921 1.928h-0c-1.063-0.006-1.922-0.866-1.929-1.927v-1.93h1.915z"></path>
</svg>
