<?xml version="1.0" encoding="UTF-8"?>
<svg viewBox="0 0 32 32" version="1.1" xmlns="http://www.w3.org/2000/svg" xmlns:xlink="http://www.w3.org/1999/xlink">
<title>take-notes</title>
<path d="M27.573 5.6c0.997 0 1.889 0.463 2.49 1.196l0.65 0.797c0.481 0.587 0.771 1.345 0.771 2.174 0 1.028-0.446 1.948-1.155 2.57l-13.639 12.85c-0.493 0.427-1.070 0.69-1.687 0.776l-6.003 0.832 1.805-5.966 0.006-0.024c0.187-0.607 0.537-1.139 1.002-1.544l13.637-12.847c0.57-0.508 1.311-0.814 2.123-0.814zM27.563 8.005c-0.227 0-0.435 0.085-0.594 0.225l-13.642 12.85c-0.139 0.118-0.245 0.275-0.304 0.463l-0.718 2.374 2.391-0.333c0.183-0.025 0.345-0.102 0.474-0.214l13.643-12.852c0.211-0.177 0.346-0.447 0.346-0.749 0-0.238-0.083-0.455-0.22-0.622l-0.655-0.801c-0.154-0.189-0.378-0.315-0.631-0.336-0.029-0.003-0.060-0.005-0.090-0.005z"></path>
</svg>
