<?xml version="1.0" encoding="UTF-8"?>
<svg viewBox="0 0 32 32" version="1.1" xmlns="http://www.w3.org/2000/svg" xmlns:xlink="http://www.w3.org/1999/xlink">
<title>team-default</title>
<path d="M23.6 12.7c0 0.596-0.218 1.112-0.653 1.547s-0.951 0.653-1.547 0.653c-0.596 0-1.111-0.218-1.547-0.653s-0.653-0.951-0.653-1.547c0-0.596 0.218-1.112 0.653-1.547s0.951-0.653 1.547-0.653c0.596 0 1.111 0.218 1.547 0.653s0.653 0.951 0.653 1.547zM12.601 12.7c0 0.596-0.218 1.112-0.653 1.547s-0.951 0.653-1.547 0.653c-0.596 0-1.111-0.218-1.547-0.653s-0.653-0.951-0.653-1.547c0-0.596 0.218-1.112 0.653-1.547s0.951-0.653 1.547-0.653c0.596 0 1.111 0.218 1.547 0.653s0.653 0.951 0.653 1.547zM18.1 22.599c0 0.596-0.218 1.112-0.653 1.547s-0.951 0.653-1.547 0.653c-0.596 0-1.111-0.218-1.547-0.653s-0.653-0.951-0.653-1.547c0-0.596 0.218-1.112 0.653-1.547s0.951-0.653 1.547-0.653c0.596 0 1.111 0.218 1.547 0.653s0.653 0.951 0.653 1.547zM23.6 19.3c0 0.596-0.218 1.112-0.653 1.547s-0.951 0.653-1.547 0.653c-0.596 0-1.111-0.218-1.547-0.653s-0.653-0.951-0.653-1.547c0-0.596 0.218-1.112 0.653-1.547s0.951-0.653 1.547-0.653c0.596 0 1.111 0.218 1.547 0.653s0.653 0.951 0.653 1.547zM12.601 19.3c0 0.596-0.218 1.112-0.653 1.547s-0.951 0.653-1.547 0.653c-0.596 0-1.111-0.218-1.547-0.653s-0.653-0.951-0.653-1.547c0-0.596 0.218-1.112 0.653-1.547s0.951-0.653 1.547-0.653c0.596 0 1.111 0.218 1.547 0.653s0.653 0.951 0.653 1.547zM18.1 9.401c0 0.596-0.218 1.112-0.653 1.547s-0.951 0.653-1.547 0.653c-0.596 0-1.111-0.218-1.547-0.653s-0.653-0.951-0.653-1.547c0-0.596 0.218-1.112 0.653-1.547s0.951-0.653 1.547-0.653c0.596 0 1.111 0.218 1.547 0.653s0.653 0.951 0.653 1.547v0z"></path>
</svg>
