<?xml version="1.0" encoding="UTF-8"?>
<svg viewBox="0 0 32 32" version="1.1" xmlns="http://www.w3.org/2000/svg" xmlns:xlink="http://www.w3.org/1999/xlink">
<title>merge</title>
<path d="M23.221 12.175c0.312 0.457 0.108 0.828-0.439 0.828h-5.074l0.002 0.813c0.008 0.593 0.036-0.467-0.015 0.708-0.059 1.373 0.436 2.492 1.285 3.516 0.701 0.846 1.523 1.523 2.451 2.104 0.874 0.548 1.748 1.121 2.522 1.799 1.454 1.272 2.151 2.994 2.553 4.846 0.416 1.919 0.461 3.954 0.461 3.954 0.011 0.279-0.206 0.505-0.489 0.505h-2.432c-0.25 0-0.463-0.178-0.514-0.406l-0.011-0.087c0 0-0.030-1.060-0.081-1.829-0.097-1.479-0.27-1.465-0.818-2.86-0.373-0.949-0.99-1.679-1.857-2.207-0.736-0.449-1.474-0.896-2.19-1.378-1.032-0.696-1.871-1.595-2.576-2.659l-0.092 0.094c-0.013 0.014-0.024 0.027-0.033 0.042-0.848 1.289-1.978 2.272-3.285 3.062l-0.824 0.505-0.417 0.243c-1.212 0.676-1.901 1.739-2.264 3.051l-0.238 0.867c-0.268 1.005-0.352 1.512-0.38 2.753l-0.006 0.326c-0 0.262-0.227 0.474-0.496 0.474h-2.469c-0.243 0-0.44-0.173-0.471-0.403l-0.004-0.089c0 0 0.065-3.058 0.867-5.46 0.64-1.919 1.848-3.386 3.534-4.467 0.436-0.279 0.873-0.557 1.323-0.813 1.104-0.63 1.956-1.527 2.687-2.55 0.53-0.741 0.807-1.564 0.793-2.495l-0.002-1.933h-4.436c-0.354 0-0.463-0.32-0.357-0.586l0.022-0.050 6.041-10.536c0.254-0.443 0.659-0.472 0.938-0.091l0.738 1.209c2.41 3.898 6.051 9.198 6.051 9.198z"></path>
</svg>
