<?xml version="1.0" encoding="UTF-8"?>
<svg viewBox="0 0 32 32" version="1.1" xmlns="http://www.w3.org/2000/svg" xmlns:xlink="http://www.w3.org/1999/xlink">
<title>asterisk</title>
<path d="M16.583 20v-2.463c0-0.323-0.071-0.622-0.212-0.896 0.097 0.133 0.207 0.245 0.331 0.336s0.265 0.182 0.424 0.274l2.291 1.244 0.583-0.933-2.291-1.257c-0.15-0.091-0.298-0.16-0.444-0.205s-0.298-0.077-0.457-0.093c0.159-0.017 0.311-0.050 0.457-0.1s0.294-0.12 0.444-0.211l2.278-1.244-0.583-0.933-2.278 1.232c-0.15 0.091-0.285 0.182-0.404 0.274s-0.227 0.199-0.325 0.323c0.124-0.257 0.185-0.556 0.185-0.896v-2.451h-1.166v2.463c0 0.166 0.015 0.326 0.046 0.479s0.086 0.305 0.166 0.454c-0.194-0.265-0.446-0.481-0.755-0.647l-2.291-1.244-0.583 0.933 2.291 1.257c0.159 0.1 0.316 0.172 0.47 0.218s0.32 0.077 0.497 0.093c-0.327 0.025-0.649 0.124-0.967 0.299l-2.278 1.244 0.583 0.933 2.278-1.232c0.291-0.166 0.525-0.352 0.702-0.56-0.062 0.133-0.104 0.27-0.126 0.411s-0.033 0.29-0.033 0.448v2.451h1.166z"></path>
</svg>
