<?xml version="1.0" encoding="UTF-8"?>
<svg viewBox="0 0 32 32" version="1.1" xmlns="http://www.w3.org/2000/svg" xmlns:xlink="http://www.w3.org/1999/xlink">
<title>mic-off</title>
<path d="M24 12c0.552 0 1 0.448 1 1v3c0 4.632-3.5 8.447-7.999 8.945l-0.001 4.055c0 0.552-0.448 1-1 1s-1-0.448-1-1l0-4.055c-1.382-0.153-2.67-0.619-3.791-1.325l1.461-1.461c0.99 0.536 2.124 0.841 3.33 0.841 3.866 0 7-3.134 7-7v-3c0-0.552 0.448-1 1-1zM29.435 3.979c0.391 0.391 0.391 1.024 0 1.414l-24.042 24.042c-0.391 0.391-1.024 0.391-1.414 0s-0.391-1.024 0-1.414l24.042-24.042c0.391-0.391 1.024-0.391 1.414 0zM21 13.828v2.172c0 2.761-2.239 5-5 5-0.645 0-1.261-0.122-1.827-0.344l6.827-6.828zM8 12c0.552 0 1 0.448 1 1v3c0 1.206 0.305 2.341 0.842 3.332l-1.462 1.46c-0.874-1.387-1.38-3.031-1.38-4.792v-3c0-0.552 0.448-1 1-1zM16 2c2.761 0 5 2.239 5 5v1.172l-9.655 9.656c-0.223-0.566-0.345-1.183-0.345-1.829v-9c0-2.761 2.239-5 5-5z"></path>
</svg>
