<?xml version="1.0" encoding="UTF-8"?>
<svg viewBox="0 0 32 32" version="1.1" xmlns="http://www.w3.org/2000/svg" xmlns:xlink="http://www.w3.org/1999/xlink">
<title>add-integration</title>
<path d="M13.241 0c3.047 0 5.517 2.47 5.517 5.517h5.517c1.219 0 2.207 0.988 2.207 2.207v5.517c3.047 0 5.517 2.47 5.517 5.517s-2.47 5.517-5.517 5.517v5.517c0 1.219-0.988 2.207-2.207 2.207h-7.724v-2.207c0-1.763-1.378-3.204-3.116-3.305l-0.194-0.006c-1.763 0-3.204 1.378-3.305 3.116l-0.006 0.195v2.207h-7.724c-1.219 0-2.207-0.988-2.207-2.207v-7.724h2.207c1.763 0 3.204-1.378 3.305-3.116l0.006-0.195c0-1.763-1.378-3.204-3.116-3.305l-0.195-0.006h-2.207v-7.724c0-1.219 0.988-2.207 2.207-2.207h5.517c0-3.047 2.47-5.517 5.517-5.517zM13.241 2.207c-1.763 0-3.204 1.378-3.305 3.116l-0.006 0.194v2.207h-7.724v5.517l0.064 0.001 0.258 0.008c2.83 0.164 5.068 2.449 5.189 5.324l0.005 0.248-0.008 0.258c-0.164 2.83-2.449 5.068-5.265 5.19l-0.243 0.005v5.517h5.517l0.001-0.064 0.008-0.258c0.164-2.83 2.449-5.068 5.324-5.189l0.248-0.005 0.258 0.008c2.83 0.164 5.068 2.449 5.19 5.265l0.005 0.243h5.517v-7.724h2.207c1.828 0 3.31-1.482 3.31-3.31 0-1.763-1.378-3.204-3.116-3.305l-0.195-0.006h-2.207v-7.724h-7.724v-2.207c0-1.828-1.482-3.31-3.31-3.31z"></path>
<path d="M15.448 11.034c0.609 0 1.103 0.494 1.103 1.103v3.31h3.31c0.609 0 1.103 0.494 1.103 1.103s-0.494 1.103-1.103 1.103h-3.311l0.001 3.31c0 0.609-0.494 1.103-1.103 1.103s-1.103-0.494-1.103-1.103l-0.001-3.31h-3.309c-0.609 0-1.103-0.494-1.103-1.103s0.494-1.103 1.103-1.103h3.31v-3.31c0-0.609 0.494-1.103 1.103-1.103z"></path>
</svg>
