<?xml version="1.0" encoding="UTF-8"?>
<svg viewBox="0 0 32 32" version="1.1" xmlns="http://www.w3.org/2000/svg" xmlns:xlink="http://www.w3.org/1999/xlink">
<title>Limited</title>
<path fill="#066fac" style="fill: var(--color1, #066fac)" d="M32 16c0 8.837-7.163 16-16 16s-16-7.163-16-16c0-8.837 7.163-16 16-16s16 7.163 16 16z"></path>
<path fill="#fff" style="fill: var(--color2, #fff)" d="M10.671 11.107c0.32 0.15 0.567 0.385 0.743 0.707 0.172 0.343 0.37 0.699 0.592 1.067s0.488 0.776 0.799 1.225c0.195 0.295 0.273 0.616 0.229 0.95-0.043 0.329-0.19 0.623-0.46 0.895-0.077 0.066-0.157 0.127-0.239 0.183-0.074 0.050-0.155 0.1-0.245 0.149-0.031 0.025-0.066 0.047-0.103 0.065l-0.080 0.039-0.084 0.046-0.021 0.010c-0.025 0.010-0.048 0.021-0.068 0.032 0.008 0.037 0.020 0.082 0.039 0.137l0.046 0.122c0.058 0.156 0.153 0.338 0.284 0.544 0.134 0.211 0.306 0.442 0.513 0.69 0.225 0.266 0.434 0.484 0.626 0.656 0.186 0.166 0.355 0.29 0.503 0.373 0.057 0.032 0.107 0.057 0.147 0.075l0.103-0.113 0.038-0.037 0.040-0.050 0.12-0.124 0.105-0.103c0.016-0.015 0.032-0.030 0.047-0.043 0.081-0.074 0.171-0.144 0.291-0.225 0.31-0.183 0.656-0.26 1.022-0.228 0.378 0.033 0.699 0.184 0.926 0.426 0.282 0.266 0.575 0.533 0.879 0.8l0.216 0.188 0.446 0.379c0.163 0.137 0.34 0.284 0.532 0.442 0.276 0.227 0.46 0.505 0.545 0.828 0.077 0.291 0.064 0.573-0.035 0.821l-0.041 0.091c-0.091 0.226-0.266 0.492-0.526 0.807-0.224 0.272-0.429 0.485-0.61 0.633l-0.076 0.060c-0.207 0.171-0.446 0.3-0.714 0.385-0.262 0.083-0.55 0.124-0.861 0.124-0.506 0-1.033-0.099-1.581-0.294-0.535-0.191-1.079-0.464-1.633-0.818-0.481-0.308-0.96-0.674-1.434-1.096l-0.203-0.184c-0.55-0.493-1.091-1.052-1.624-1.68-0.703-0.842-1.279-1.673-1.726-2.493-0.45-0.816-0.767-1.58-0.951-2.295-0.187-0.727-0.232-1.384-0.132-1.966 0.096-0.616 0.362-1.115 0.802-1.484 0.204-0.17 0.49-0.343 0.861-0.523 0.379-0.184 0.692-0.297 0.951-0.337 0.346-0.054 0.686-0.005 1.005 0.145l-0 0z"></path>
<path fill="#fff" style="fill: var(--color2, #fff)" d="M20.486 8.126c0.163 0.091 0.298 0.225 0.389 0.389l3.3 5.941c0.268 0.483 0.094 1.092-0.389 1.36-0.149 0.083-0.316 0.126-0.486 0.126h-6.601c-0.552 0-1-0.448-1-1 0-0.17 0.043-0.337 0.126-0.486l3.301-5.941c0.268-0.483 0.877-0.657 1.36-0.389zM20.042 13.378c-0.552 0-1 0.448-1 1s0.448 1 1 1c0.552 0 1-0.448 1-1s-0.448-1-1-1zM20.050 8.941c-0.345 0-0.625 0.093-0.625 0.208v0 3.333c0 0.115 0.28 0.208 0.625 0.208s0.625-0.093 0.625-0.208v0-3.333c0-0.115-0.28-0.208-0.625-0.208z"></path>
</svg>
