<?xml version="1.0" encoding="UTF-8"?>
<svg viewBox="0 0 32 32" version="1.1" xmlns="http://www.w3.org/2000/svg" xmlns:xlink="http://www.w3.org/1999/xlink">
<title>poll</title>
<path d="M25 5c1.105 0 2 0.895 2 2v18c0 1.105-0.895 2-2 2h-18c-1.105 0-2-0.895-2-2v-18c0-1.105 0.895-2 2-2h18zM11 13c-0.552 0-1 0.448-1 1v0 7c0 0.552 0.448 1 1 1s1-0.448 1-1v0-7c0-0.552-0.448-1-1-1zM16 10c-0.552 0-1 0.448-1 1v0 10c0 0.552 0.448 1 1 1s1-0.448 1-1v0-10c0-0.552-0.448-1-1-1zM21 15c-0.552 0-1 0.448-1 1v0 5c0 0.552 0.448 1 1 1s1-0.448 1-1v0-5c0-0.552-0.448-1-1-1z"></path>
</svg>
