<?xml version="1.0" encoding="UTF-8"?>
<svg viewBox="0 0 32 32" version="1.1" xmlns="http://www.w3.org/2000/svg" xmlns:xlink="http://www.w3.org/1999/xlink">
<title>sms_invite_border</title>
<path d="M16 3c7.763 0 14 5.174 14 11.889 0 0.858-0.102 1.694-0.297 2.501-0.525-0.533-1.123-0.993-1.779-1.363 0.050-0.374 0.076-0.754 0.076-1.138 0-5.485-5.223-9.889-12-9.889-6.649 0-11.833 4.285-11.996 9.6l-0.004 0.258 0.004 0.284c0.078 2.528 1.326 5.014 3.433 6.84l0.257 0.216 1.4 1.105-0.478 1.417c-0.202 0.557-0.515 1.21-0.993 2.069l-0.116 0.206 0.014 0.001c1.623-0.052 3.050-0.576 4.203-1.467l0.227-0.183 0.75-0.659 1.357 0.211c0.672 0.094 1.311 0.141 1.942 0.141l0.261-0.002c0.183 0.698 0.458 1.358 0.811 1.968-0.354 0.022-0.711 0.034-1.072 0.034-0.586 0-1.172-0.035-1.77-0.103l-0.451-0.057-0.461-0.072-0.048 0.042c-1.386 1.166-3.175 1.983-5.325 2.129l-0.362 0.018-0.333 0.005h-1.652c-0.692 0-1.13-0.715-0.848-1.317l0.054-0.099 0.811-1.308 0.271-0.479 0.122-0.221 0.217-0.41 0.184-0.368c0.112-0.232 0.202-0.439 0.275-0.624l0.051-0.135 0.013-0.040-0.294-0.232c-2.617-2.133-4.235-5.11-4.433-8.229l-0.016-0.335-0.005-0.314c0-6.69 6.252-11.889 14-11.889zM24 17c0.552 0 1 0.448 1 1v4h4c0.552 0 1 0.448 1 1s-0.448 1-1 1h-4.001l0.001 4c0 0.552-0.448 1-1 1s-1-0.448-1-1l-0.001-4h-3.999c-0.552 0-1-0.448-1-1s0.448-1 1-1h4v-4c0-0.552 0.448-1 1-1z"></path>
</svg>
