<?xml version="1.0" encoding="UTF-8"?>
<svg viewBox="0 0 32 32" version="1.1" xmlns="http://www.w3.org/2000/svg" xmlns:xlink="http://www.w3.org/1999/xlink">
<title>zip-D</title>
<path fill="#222b42" style="fill: var(--color20, #222b42)" d="M3.556 0h24.889c1.964 0 3.556 1.592 3.556 3.556v24.889c0 1.964-1.592 3.556-3.556 3.556h-24.889c-1.964 0-3.556-1.592-3.556-3.556v-24.889c0-1.964 1.592-3.556 3.556-3.556z"></path>
<path fill="#356afd" style="fill: var(--color36, #356afd)" d="M16.756 8l5.466 4.962-0.024 8.878c0 0.607-0.204 1.118-0.612 1.535s-0.909 0.625-1.503 0.625h-8.154c-0.594 0-1.095-0.209-1.503-0.625s-0.612-0.929-0.612-1.535l-0.035-11.661c0-0.607 0.204-1.118 0.612-1.535s0.909-0.625 1.503-0.625l1.44-0.005v1.765h-1.778v0.889h1.778v1.778h-1.778v0.889h1.778v1.778h-1.778v0.889h1.778v1.778h-1.778v0.889h4.444v-0.889h-1.778v-1.778h1.778v-0.889h-1.778v-1.778h1.778v-0.889h-1.778v-1.778h1.778v-0.889h-1.778v-1.769l2.534-0.009z"></path>
<path fill="#f1f1f1" style="fill: var(--color26, #f1f1f1)" d="M13.333 8.012v1.766h-1.777v0.889h1.777v1.777h-1.777v0.889h1.777v1.778h-1.777v0.889h1.777v1.778h-1.777v0.889h4.444v-0.889h-1.778v-1.778h1.778v-0.889h-1.778v-1.778h1.778v-0.889h-1.778v-1.778h1.778v-0.888h-1.778v-1.769z"></path>
</svg>
