<?xml version="1.0" encoding="UTF-8"?>
<svg viewBox="0 0 32 32" version="1.1" xmlns="http://www.w3.org/2000/svg" xmlns:xlink="http://www.w3.org/1999/xlink">
<title>improve-with-ai</title>
<path d="M15.636 13.944l13.113 13.113c0.467 0.467 0.467 1.235 0 1.703s-1.235 0.467-1.703 0l-13.113-13.113c-0.467-0.467-0.467-1.235 0-1.703s1.235-0.467 1.703 0zM11.483 21.503c0.153-0.558 0.715-0.877 1.263-0.736 0.558 0.155 0.875 0.717 0.733 1.265l-1.010 3.775c-0.157 0.574-0.713 0.887-1.258 0.738-0.56-0.153-0.88-0.717-0.738-1.266l1.010-3.775zM3.636 16.145l3.783-1.012c0.534-0.148 1.102 0.171 1.257 0.728 0.148 0.533-0.17 1.1-0.725 1.256l-3.783 1.012c-0.534 0.148-1.102-0.171-1.257-0.728-0.148-0.533 0.17-1.1 0.725-1.256zM9.6 9.813c-0.405 0.405-1.049 0.405-1.454 0l-2.769-2.769c-0.405-0.405-0.405-1.049 0-1.454s1.049-0.405 1.454 0l2.769 2.769c0.405 0.405 0.405 1.049 0 1.454zM16.903 7.948c-0.153 0.558-0.715 0.877-1.263 0.736-0.558-0.155-0.875-0.717-0.733-1.265l1.010-3.775c0.153-0.559 0.715-0.877 1.263-0.736 0.558 0.155 0.875 0.717 0.733 1.265l-1.010 3.775zM25.373 12.668l-3.783 1.012c-0.534 0.148-1.102-0.171-1.257-0.728-0.148-0.533 0.17-1.1 0.725-1.256l3.783-1.012c0.534-0.148 1.102 0.171 1.256 0.728 0.148 0.533-0.17 1.1-0.725 1.256z"></path>
</svg>
