<?xml version="1.0" encoding="UTF-8"?>
<svg viewBox="0 0 32 32" version="1.1" xmlns="http://www.w3.org/2000/svg" xmlns:xlink="http://www.w3.org/1999/xlink">
<title>apps-installed</title>
<path d="M14.931 4c1.828 0 3.31 1.482 3.31 3.31v0.828h4.966c0.914 0 1.655 0.741 1.655 1.655v4.966h0.828c1.828 0 3.31 1.482 3.31 3.31s-1.482 3.31-3.31 3.31h-0.828v4.966c0 0.914-0.741 1.655-1.655 1.655h-4.966v-0.828c0-1.773-1.394-3.22-3.145-3.306l-0.165-0.004c-1.773 0-3.22 1.394-3.306 3.145l-0.004 0.165v0.828h-4.966c-0.914 0-1.655-0.741-1.655-1.655v-4.966h0.828c1.773 0 3.22-1.394 3.306-3.145l0.004-0.165c0-1.773-1.394-3.22-3.145-3.306l-0.165-0.004h-0.828v-4.966c0-0.914 0.741-1.655 1.655-1.655h4.966v-0.828c0-1.828 1.482-3.31 3.31-3.31z"></path>
</svg>
