<?xml version="1.0" encoding="UTF-8"?>
<svg viewBox="0 0 32 32" version="1.1" xmlns="http://www.w3.org/2000/svg" xmlns:xlink="http://www.w3.org/1999/xlink">
<title>workflow-filled</title>
<path d="M21 6c0 0 0 0.001 0 0.001 0 2.407-1.701 4.418-3.967 4.893l-0.033 0.006v4.1h5c2.761 0 5 2.239 5 5v0 1.1c2.299 0.482 4 2.492 4 4.899 0 2.761-2.239 5-5 5s-5-2.239-5-5c0-2.407 1.701-4.418 3.967-4.893l0.033-0.006v-1.1c0-1.657-1.343-3-3-3v0h-12c-1.657 0-3 1.343-3 3v0 1.1c2.299 0.482 4 2.492 4 4.899 0 2.761-2.239 5-5 5s-5-2.239-5-5c0-2.407 1.701-4.418 3.967-4.893l0.033-0.006v-1.1c0-2.761 2.239-5 5-5v0h5v-4.1c-2.299-0.482-4-2.492-4-4.899 0-2.761 2.239-5 5-5s4.999 2.238 5 4.999v0z"></path>
</svg>
