<?xml version="1.0" encoding="UTF-8"?>
<svg viewBox="0 0 32 32" version="1.1" xmlns="http://www.w3.org/2000/svg" xmlns:xlink="http://www.w3.org/1999/xlink">
<title>personal-meeting</title>
<path d="M22.222 6.222c1.473 0 2.667 1.194 2.667 2.667v2.153l3.17-1.672c0.959-0.213 1.908 0.391 2.121 1.35 0.028 0.127 0.042 0.256 0.042 0.386v9.79c0 0.982-0.796 1.778-1.778 1.778-0.13 0-0.259-0.014-0.386-0.042l-3.17-1.673v2.154c0 1.473-1.194 2.667-2.667 2.667h-17.778c-1.473 0-2.667-1.194-2.667-2.667v-14.222c0-1.473 1.194-2.667 2.667-2.667l17.778-0zM22.222 8h-17.778c-0.456 0-0.832 0.343-0.883 0.785l-0.006 0.104v14.222c0 0.456 0.343 0.832 0.785 0.883l0.104 0.006h17.778c0.456 0 0.832-0.343 0.883-0.785l0.006-0.104v-14.222c0-0.456-0.343-0.832-0.785-0.883l-0.104-0.006zM28.444 11.105l-3.556 1.877v6.037l3.556 1.876v-9.79z"></path>
<path d="M14.373 16.369c1.169-0.403 1.925-1.453 1.925-2.837 0-3.971-6.042-3.971-6.042 0 0 1.384 0.756 2.434 1.925 2.837-3.097 0.343-3.381 2.204-3.381 4.415h1.493c0-2.049 0-2.985 2.985-2.985s2.984 0.936 2.984 2.985h1.493c0-2.211-0.284-4.072-3.381-4.415zM11.749 13.533c0-1.131 0.823-1.533 1.528-1.533s1.528 0.402 1.528 1.533c0 0.958-0.571 1.531-1.528 1.531s-1.528-0.573-1.528-1.531z"></path>
</svg>
