<?xml version="1.0" encoding="UTF-8"?>
<svg viewBox="0 0 32 32" version="1.1" xmlns="http://www.w3.org/2000/svg" xmlns:xlink="http://www.w3.org/1999/xlink">
<title>update</title>
<path d="M25.813 6.324l-1.964-4.598c-0.162-0.379-0.687-0.41-0.893-0.054l-0.965 1.671c-1.816-0.861-3.848-1.343-5.991-1.343-7.732 0-14 6.268-14 14s6.268 14 14 14c7.732 0 14-6.268 14-14 0-0.757-0.060-1.499-0.176-2.224-0.073-0.456-0.475-0.776-0.937-0.776-0.641 0-1.109 0.606-1.016 1.24 0.084 0.574 0.128 1.162 0.128 1.76 0 6.627-5.373 12-12 12s-12-5.373-12-12c0-6.627 5.373-12 12-12 1.779 0 3.468 0.387 4.987 1.082l-1.031 1.786c-0.206 0.357 0.084 0.796 0.493 0.746l4.964-0.598c0.331-0.040 0.531-0.386 0.4-0.693zM21.707 12.293c0.39 0.39 0.39 1.024 0 1.414l-7.707 7.707-3.707-3.707c-0.391-0.39-0.391-1.024 0-1.414s1.024-0.39 1.414 0l2.293 2.293 6.293-6.293c0.39-0.39 1.024-0.39 1.414 0z"></path>
</svg>
