<?xml version="1.0" encoding="UTF-8"?>
<svg viewBox="0 0 32 32" version="1.1" xmlns="http://www.w3.org/2000/svg" xmlns:xlink="http://www.w3.org/1999/xlink">
<title>admin_border</title>
<path d="M24.653 16.592c0.367-0.508 1.026-0.726 1.629-0.509 0.826 0.297 1.59 0.754 2.255 1.346 0.459 0.409 0.61 1.066 0.383 1.635-0.097 0.245-0.081 0.521 0.044 0.749s0.334 0.364 0.563 0.382c0.632 0.047 1.148 0.509 1.287 1.122 0.124 0.549 0.187 1.113 0.187 1.684s-0.063 1.133-0.186 1.683c-0.138 0.614-0.655 1.076-1.288 1.123-0.228 0.017-0.437 0.154-0.562 0.381s-0.141 0.504-0.044 0.749c0.226 0.569 0.076 1.225-0.383 1.634-0.665 0.592-1.429 1.049-2.255 1.346-0.639 0.23-1.341-0.028-1.692-0.604-0.137-0.224-0.356-0.351-0.589-0.351s-0.453 0.127-0.59 0.352c-0.351 0.575-1.052 0.833-1.691 0.603-0.825-0.296-1.59-0.753-2.256-1.346-0.459-0.409-0.61-1.066-0.383-1.635 0.097-0.245 0.081-0.521-0.044-0.749s-0.334-0.364-0.563-0.382c-0.632-0.047-1.148-0.509-1.287-1.122-0.124-0.549-0.187-1.113-0.187-1.684s0.063-1.133 0.186-1.683c0.138-0.614 0.655-1.076 1.288-1.123 0.228-0.017 0.437-0.154 0.562-0.381s0.141-0.504 0.044-0.749c-0.226-0.569-0.076-1.225 0.383-1.634 0.665-0.592 1.429-1.049 2.255-1.346 0.639-0.23 1.341 0.028 1.692 0.604 0.137 0.224 0.356 0.351 0.589 0.351 0.197 0 0.384-0.090 0.508-0.233l0.056-0.075 0.089-0.139zM13 17c1.439 0 2.821 0.226 4.092 0.64-0.068 0.253-0.106 0.513-0.114 0.775l-0.001 0.175-0.105 0.058c-0.338 0.195-0.64 0.447-0.893 0.744-0.931-0.253-1.934-0.392-2.979-0.392-4.878 0-8.85 3.019-8.996 6.786l-0.004 0.214 11.564 0.001c0.304 0.565 0.758 1.032 1.308 1.35l0.106 0.058 0.001 0.175c0.004 0.14 0.017 0.278 0.038 0.416l-13.016-0c-1.105 0-2-0.895-2-2 0-5.096 5.019-9 11-9zM22.001 18.129l-0.095 0.044c-0.16 0.078-0.315 0.166-0.466 0.262l-0.223 0.15-0.158 0.119 0.008 0.027c0.129 0.549 0.095 1.126-0.1 1.656l-0.081 0.196-0.096 0.191c-0.326 0.594-0.843 1.036-1.45 1.259l-0.185 0.060-0.084 0.020-0.035 0.258-0.015 0.156-0.011 0.157-0.009 0.315c0 0.141 0.005 0.281 0.015 0.42l0.019 0.208 0.035 0.256 0.085 0.022c0.567 0.162 1.067 0.51 1.426 0.994l0.114 0.166 0.094 0.159c0.31 0.565 0.417 1.212 0.317 1.837l-0.041 0.207-0.007 0.026 0.158 0.12c0.146 0.104 0.298 0.2 0.453 0.288l0.236 0.124 0.094 0.043 0.041-0.047c0.416-0.448 0.967-0.744 1.569-0.833l0.203-0.022 0.187-0.007c0.684 0 1.327 0.264 1.817 0.72l0.142 0.143 0.039 0.046 0.096-0.043c0.16-0.078 0.315-0.166 0.466-0.262l0.223-0.15 0.157-0.12-0.007-0.026c-0.129-0.549-0.095-1.126 0.1-1.656l0.081-0.196 0.096-0.191c0.326-0.594 0.843-1.036 1.45-1.259l0.185-0.060 0.084-0.021 0.037-0.257 0.015-0.156 0.011-0.157 0.009-0.315c0-0.141-0.005-0.281-0.015-0.42l-0.019-0.208-0.036-0.257-0.084-0.021c-0.567-0.162-1.067-0.51-1.426-0.994l-0.114-0.166-0.094-0.159c-0.31-0.565-0.417-1.212-0.317-1.837l0.047-0.234-0.157-0.119c-0.146-0.104-0.298-0.201-0.453-0.288l-0.236-0.124-0.094-0.043-0.065 0.074c-0.413 0.434-0.958 0.72-1.551 0.807l-0.2 0.022-0.184 0.006c-0.684 0-1.327-0.264-1.817-0.72l-0.142-0.143-0.040-0.047zM24 21c1.105 0 2 0.895 2 2s-0.895 2-2 2c-1.105 0-2-0.895-2-2s0.895-2 2-2zM13 3c3.314 0 6 2.686 6 6s-2.686 6-6 6c-3.314 0-6-2.686-6-6s2.686-6 6-6zM13 5c-2.209 0-4 1.791-4 4s1.791 4 4 4c2.209 0 4-1.791 4-4s-1.791-4-4-4z"></path>
</svg>
