<?xml version="1.0" encoding="UTF-8"?>
<svg viewBox="0 0 32 32" version="1.1" xmlns="http://www.w3.org/2000/svg" xmlns:xlink="http://www.w3.org/1999/xlink">
<title>default-group-avatar</title>
<path d="M5.483 27.417c1.234-0.457 2.559-0.914 3.61-1.188 0.137 0 0.137 0 0.137-0.731 0-0.868-0.137-1.279-0.274-1.691-0.137-0.548-0.411-1.416-0.548-2.285-0.274-0.274-0.731-1.005-1.005-2.285-0.274-1.142-0.137-1.554 0-2.011v-0.137c0-0.274-0.137-1.554-0.274-2.696-0.137-0.731 0-2.285 1.005-3.564 0.548-0.868 1.828-1.828 3.975-2.011h1.279c2.102 0.183 3.381 1.188 3.975 2.056 1.005 1.279 1.142 2.833 1.005 3.564-0.137 1.005-0.137 2.422-0.137 2.696v0.137c0.137 0.411 0.274 0.868 0 2.011-0.274 1.279-0.731 2.011-1.005 2.285 0 0.868-0.274 1.691-0.548 2.285-0.137 0.548-0.411 1.142-0.411 1.691 0 0.731 0 0.731 0.137 0.731 2.011 0.548 5.118 1.691 6.397 2.285 0.503 0.228 0.868 0.503 1.142 0.823-2.33 1.371-5.026 2.148-7.905 2.148-4.113-0.046-7.768-1.599-10.556-4.113v0zM24.401 29.016c-0.228-0.32-0.457-0.548-0.685-0.685-1.371-0.594-4.524-1.965-6.626-2.559-0.137 0-0.32 0-0.137-0.777 0.046-0.32 0.183-0.548 0.32-0.868 0.228-0.64 0.548-1.325 0.548-2.239 0.32-0.32 0.777-1.051 1.051-2.422 0.32-1.188 0.137-1.645 0-2.102v-0.137c0-0.32 0-1.828 0.137-2.879 0.137-0.777 0-2.422-1.051-3.793-0.503-0.731-1.554-1.645-3.107-2.056 0.685-0.64 1.828-1.188 3.381-1.325h1.279c2.148 0.137 3.427 1.142 3.975 2.011 1.005 1.279 1.142 2.833 1.005 3.564-0.137 1.005-0.137 2.422-0.137 2.696v0.137c0.137 0.411 0.274 0.868 0 2.011-0.274 1.279-0.731 2.011-1.005 2.285 0 0.868-0.274 1.691-0.548 2.285-0.137 0.548-0.411 1.142-0.411 1.691 0 0.731 0 0.731 0.137 0.731 1.508 0.411 3.61 1.188 5.164 1.782-1.051 1.005-2.102 1.873-3.29 2.65v0z"></path>
</svg>
