<?xml version="1.0" encoding="UTF-8"?>
<svg viewBox="0 0 32 32" version="1.1" xmlns="http://www.w3.org/2000/svg" xmlns:xlink="http://www.w3.org/1999/xlink">
<title>sms-template</title>
<path d="M22.129 16.509c0.383-0.679 1.36-0.679 1.742 0l1.996 3.542 3.988 0.806c0.723 0.146 1.033 0.988 0.615 1.564l-0.076 0.093-2.754 2.993 0.468 4.041c0.085 0.735-0.624 1.29-1.303 1.066l-0.107-0.042-3.698-1.692-3.698 1.692c-0.673 0.308-1.42-0.195-1.416-0.91l0.007-0.114 0.467-4.041-2.753-2.993c-0.499-0.543-0.255-1.406 0.422-1.626l0.117-0.031 3.987-0.806zM16 2c6.627 0 12 5.373 12 12v1h-2v-1c0-5.523-4.477-10-10-10h-9c-0.552 0-1 0.448-1 1v22c0 0.552 0.448 1 1 1h8v2h-9c-1.105 0-2-0.895-2-2v-24c0-1.105 0.895-2 2-2zM23 19.037l-1.351 2.396c-0.143 0.253-0.388 0.432-0.673 0.489l-2.697 0.544 1.862 2.025c0.169 0.183 0.262 0.422 0.264 0.668l-0.007 0.124-0.316 2.732 2.502-1.144c0.227-0.104 0.482-0.118 0.717-0.044l0.115 0.044 2.501 1.144-0.315-2.732c-0.029-0.247 0.036-0.495 0.179-0.696l0.078-0.096 1.861-2.025-2.696-0.544c-0.244-0.049-0.46-0.188-0.606-0.385l-0.067-0.104zM18 14c0.552 0 1 0.448 1 1s-0.448 1-1 1h-7c-0.552 0-1-0.448-1-1s0.448-1 1-1zM20 9c0.552 0 1 0.448 1 1s-0.448 1-1 1h-9c-0.552 0-1-0.448-1-1s0.448-1 1-1z"></path>
</svg>
