<?xml version="1.0" encoding="UTF-8"?>
<svg viewBox="0 0 32 32" version="1.1" xmlns="http://www.w3.org/2000/svg" xmlns:xlink="http://www.w3.org/1999/xlink">
<title>default-box</title>
<path fill="#fff" style="fill: var(--color5, #fff)" opacity="0.992" d="M3.556 0h24.889c1.964 0 3.556 1.592 3.556 3.556v24.889c0 1.964-1.592 3.556-3.556 3.556h-24.889c-1.964 0-3.556-1.592-3.556-3.556v-24.889c0-1.964 1.592-3.556 3.556-3.556z"></path>
<path fill="#a7aaae" style="fill: var(--color63, #a7aaae)" opacity="0.16" d="M3.556 0h24.889c1.964 0 3.556 1.592 3.556 3.556v24.889c0 1.964-1.592 3.556-3.556 3.556h-24.889c-1.964 0-3.556-1.592-3.556-3.556v-24.889c0-1.964 1.592-3.556 3.556-3.556z"></path>
<path fill="#0061d5" style="fill: var(--color24, #0061d5)" d="M4.959 9c-0.54 0-0.959 0.419-0.959 0.897v7.531c0.054 2.487 2.088 4.483 4.589 4.483 0.008 0 0.017 0 0.025 0h-0.001c1.774-0.002 3.319-0.981 4.123-2.427l0.012-0.024c0.779 1.434 2.337 2.451 4.074 2.451 2.577 0 4.674-2.032 4.674-4.602 0.060-2.451-2.037-4.484-4.613-4.484-1.738 0-3.295 0.957-4.074 2.391-0.78-1.434-2.338-2.391-4.135-2.391-1.079 0-2.038 0.359-2.817 0.897v-3.825c-0.011-0.49-0.407-0.885-0.897-0.897h-0.001zM21.602 12.728c-0.048-0.009-0.103-0.013-0.16-0.013-0.204 0-0.393 0.064-0.547 0.173l0.003-0.002c-0.36 0.299-0.479 0.897-0.18 1.315l2.397 3.108-2.396 3.107c-0.3 0.419-0.24 0.958 0.18 1.257 0.419 0.299 1.016 0.297 1.316-0.122l2.039-2.63 2.096 2.69c0.3 0.359 0.899 0.418 1.318 0.12 0.36-0.299 0.42-0.838 0.121-1.256l-2.338-3.107 2.338-3.050c0.3-0.418 0.298-1.016-0.121-1.315-0.48-0.299-1.019-0.239-1.318 0.18l-2.096 2.57-2.040-2.688c-0.149-0.18-0.373-0.299-0.612-0.337l0-0zM8.613 14.617c1.558 0 2.817 1.257 2.817 2.751 0 1.554-1.259 2.749-2.817 2.749s-2.816-1.195-2.816-2.749c0-1.494 1.258-2.751 2.816-2.751v0zM16.883 14.617c1.558 0 2.816 1.257 2.816 2.751-0.060 1.554-1.318 2.749-2.816 2.749-1.558 0-2.817-1.195-2.817-2.749 0-1.494 1.259-2.751 2.817-2.751v0z"></path>
</svg>
