<?xml version="1.0" encoding="UTF-8"?>
<svg viewBox="0 0 32 32" version="1.1" xmlns="http://www.w3.org/2000/svg" xmlns:xlink="http://www.w3.org/1999/xlink">
<title>past-time</title>
<path d="M16 3.11c7.118 0 12.888 5.77 12.888 12.888 0 0.001 0 0.001 0 0.002v-0c0 0.001 0 0.002 0 0.003 0 7.118-5.77 12.888-12.888 12.888-3.581 0-6.822-1.461-9.157-3.819l-0.001-0.001c-0.135-0.155-0.218-0.36-0.218-0.584 0-0.492 0.399-0.891 0.891-0.891 0.227 0 0.434 0.085 0.592 0.225l-0.001-0.001c2.014 2.033 4.807 3.293 7.894 3.293 6.136 0 11.11-4.974 11.11-11.11 0-0 0-0.001 0-0.001v0c0-0.008 0-0.017 0-0.027 0-6.136-4.974-11.11-11.11-11.11-5.585 0-10.208 4.121-10.993 9.488l-0.007 0.060 2.192-1.429c0.128-0.076 0.283-0.121 0.448-0.121 0.491 0 0.89 0.398 0.89 0.89 0 0.295-0.143 0.556-0.364 0.718l-0.002 0.002-3.947 2.576c-0.137 0.091-0.305 0.145-0.486 0.145-0.31 0-0.583-0.159-0.742-0.399l-0.002-0.003-2.574-3.949c-0.076-0.128-0.121-0.283-0.121-0.448 0-0.491 0.398-0.89 0.89-0.89 0.295 0 0.556 0.143 0.718 0.364l0.002 0.002 1.371 2.101c1.018-6.191 6.328-10.857 12.729-10.859h0z"></path>
<path d="M16 7.11c0.491 0 0.888 0.4 0.888 0.89v7.36l3.998 1.331c0.337 0.132 0.571 0.454 0.571 0.831 0 0.491-0.398 0.89-0.89 0.89-0.087 0-0.17-0.012-0.25-0.036l0.006 0.002-4.606-1.536c-0.354-0.123-0.605-0.453-0.608-0.841v-8c0-0.491 0.398-0.888 0.89-0.89z"></path>
</svg>
