<?xml version="1.0" encoding="UTF-8"?>
<svg viewBox="0 0 32 32" version="1.1" xmlns="http://www.w3.org/2000/svg" xmlns:xlink="http://www.w3.org/1999/xlink">
<title>leave_sp</title>
<path d="M19.886 3.657c1.515 0 2.743 1.228 2.743 2.743v6.171h-2.057v-6.171c0-0.337-0.243-0.617-0.562-0.675l-0.123-0.011h-7.883l4.453 1.573c0.822 0.29 1.372 1.068 1.372 1.94v14.316h2.057c0.337 0 0.617-0.243 0.675-0.562l0.011-0.123v-4.114h2.057v4.114c0 1.515-1.228 2.743-2.743 2.743h-2.057v1.207c0 1.136-0.921 2.057-2.057 2.057-0.233 0-0.465-0.040-0.685-0.117l-7.085-2.501c-1.097-0.387-1.83-1.424-1.83-2.587v-17.259c0-1.515 1.228-2.743 2.743-2.743h10.971zM25.068 10.688l5.017 5.013-5.017 5.013-1.454-1.454 2.6-2.6-7.014 0.027v-2.057l6.872-0.027-2.458-2.46 1.454-1.454z"></path>
</svg>
