<?xml version="1.0" encoding="UTF-8"?>
<svg viewBox="0 0 32 32" version="1.1" xmlns="http://www.w3.org/2000/svg" xmlns:xlink="http://www.w3.org/1999/xlink">
<title>apple-logo</title>
<path d="M16.73 8.462c1.264 0 2.848-0.854 3.791-1.994 0.854-1.032 1.477-2.474 1.477-3.916 0-0.196-0.018-0.392-0.053-0.552-1.406 0.053-3.097 0.943-4.112 2.136-0.801 0.908-1.531 2.332-1.531 3.791 0 0.214 0.036 0.427 0.053 0.498 0.089 0.018 0.231 0.036 0.374 0.036zM12.28 30c1.727 0 2.492-1.157 4.646-1.157 2.189 0 2.67 1.121 4.593 1.121 1.887 0 3.151-1.744 4.343-3.453 1.335-1.958 1.887-3.88 1.922-3.97-0.125-0.036-3.738-1.513-3.738-5.661 0-3.596 2.848-5.215 3.008-5.34-1.887-2.706-4.753-2.777-5.536-2.777-2.118 0-3.845 1.282-4.931 1.282-1.175 0-2.723-1.21-4.557-1.21-3.489 0-7.031 2.884-7.031 8.331 0 3.382 1.317 6.96 2.937 9.274 1.388 1.958 2.599 3.56 4.343 3.56z"></path>
</svg>
