<?xml version="1.0" encoding="UTF-8"?>
<svg viewBox="0 0 32 32" version="1.1" xmlns="http://www.w3.org/2000/svg" xmlns:xlink="http://www.w3.org/1999/xlink">
<title>donedone</title>
<path d="M16.040 2c-7.71 0-13.96 6.251-13.96 13.962s6.25 13.962 13.96 13.962c7.71 0 13.96-6.251 13.96-13.962s-6.25-13.962-13.96-13.962h-0zM10.259 18.048l-3.684-3.628c-0.204-0.201-0.204-0.511-0.011-0.705l1.741-1.74c0.189-0.19 0.508-0.197 0.704-0.007l1.679 1.623 6.348-6.285c0.208-0.206 0.521-0.201 0.72-0.008l1.789 1.741c0.195 0.189 0.201 0.502 0.006 0.691l-8.579 8.33c-0.191 0.186-0.514 0.183-0.713-0.013l-0 0zM25.582 16.441l-8.579 8.329c-0.191 0.186-0.514 0.184-0.713-0.013l-3.684-3.627c-0.204-0.201-0.204-0.512-0.011-0.705l1.74-1.74c0.19-0.19 0.508-0.197 0.704-0.008l1.679 1.624 6.348-6.285c0.208-0.206 0.521-0.201 0.72-0.008l1.789 1.74c0.195 0.19 0.202 0.504 0.007 0.692h-0z"></path>
</svg>
