<?xml version="1.0" encoding="UTF-8"?>
<svg viewBox="0 0 32 32" version="1.1" xmlns="http://www.w3.org/2000/svg" xmlns:xlink="http://www.w3.org/1999/xlink">
<title>read</title>
<path d="M25.615 2c1.105 0 2 0.895 2 2 0 0.337-0.085 0.669-0.248 0.965l-3.367 6.115 3.331 5.943c0.54 0.964 0.197 2.182-0.767 2.723-0.299 0.167-0.635 0.255-0.978 0.255h-19.586v9c0 0.552-0.448 1-1 1s-1-0.448-1-1v-26c0-0.552 0.448-1 1-1h20.615zM25.614 4h-19.614v14h19.586l-3.331-5.943c-0.31-0.553-0.338-1.216-0.084-1.789l0.076-0.154 3.366-6.115z"></path>
</svg>
