<?xml version="1.0" encoding="UTF-8"?>
<svg viewBox="0 0 32 32" version="1.1" xmlns="http://www.w3.org/2000/svg" xmlns:xlink="http://www.w3.org/1999/xlink">
<title>delete</title>
<path d="M20 2c1.105 0 2 0.895 2 2v2h6c0.552 0 1 0.448 1 1s-0.448 1-1 1h-1.083l-0.837 20.083c-0.045 1.071-0.926 1.917-1.998 1.917h-16.163c-1.072 0-1.954-0.846-1.998-1.917l-0.837-20.083h-1.083c-0.552 0-1-0.448-1-1s0.448-1 1-1h6v-2c0-1.105 0.895-2 2-2h8zM24.914 8h-17.829l0.793 19.042c0.022 0.536 0.463 0.958 0.999 0.958h14.245c0.536 0 0.977-0.423 0.999-0.958l0.792-19.042zM13 12c0.552 0 1 0.448 1 1v10c0 0.552-0.448 1-1 1s-1-0.448-1-1v-10c0-0.552 0.448-1 1-1zM19 12c0.552 0 1 0.448 1 1v10c0 0.552-0.448 1-1 1s-1-0.448-1-1v-10c0-0.552 0.448-1 1-1zM19 4h-6c-0.552 0-1 0.448-1 1v1h8v-1c0-0.552-0.448-1-1-1z"></path>
</svg>
