<?xml version="1.0" encoding="UTF-8"?>
<svg viewBox="0 0 32 32" version="1.1" xmlns="http://www.w3.org/2000/svg" xmlns:xlink="http://www.w3.org/1999/xlink">
<title>LargeView2</title>
<path d="M7.596 8.5c1.382 0 2.502 1.12 2.502 2.502s-1.12 2.502-2.502 2.502v0c-1.382 0-2.503-1.121-2.503-2.503s1.121-2.503 2.503-2.503v0z"></path>
<path d="M27.82 1.82c2.086 0 3.78 1.692 3.78 3.78v20.8c-0.001 2.088-1.693 3.78-3.78 3.782l-24.024-0.020c-1.915-0.203-3.395-1.81-3.396-3.762v-20.8c0-2.088 1.692-3.78 3.78-3.78v0h23.64zM4.18 4.22c-0.762 0-1.38 0.618-1.38 1.38v0 20.8c0 0.762 0.62 1.382 1.38 1.382h8.22v-23.562h-8.22zM14.8 27.78h13.020c0.76 0 1.38-0.62 1.38-1.382v-20.798c0-0.762-0.62-1.38-1.38-1.38h-13.020v23.56z"></path>
</svg>
