<?xml version="1.0" encoding="UTF-8"?>
<svg viewBox="0 0 32 32" version="1.1" xmlns="http://www.w3.org/2000/svg" xmlns:xlink="http://www.w3.org/1999/xlink">
<title>CompactViewMD</title>
<path d="M22.501 2.8h-13c-1.767 0-3.2 1.433-3.2 3.2v20c-0.002 1.768 1.432 3.2 3.2 3.2h13c1.767 0 3.2-1.433 3.2-3.2v-20c0-1.767-1.433-3.2-3.2-3.2zM9.501 5.2h13c0.442 0 0.8 0.358 0.8 0.8v13.8h-14.6v-13.8c0-0.442 0.358-0.8 0.8-0.8zM22.501 26.8h-13c0 0-0.001 0-0.002 0-0.442 0-0.8-0.358-0.8-0.8v-3.8h14.6v3.8c0 0.441-0.357 0.799-0.798 0.8z"></path>
</svg>
