<?xml version="1.0" encoding="UTF-8"?>
<svg viewBox="0 0 32 32" version="1.1" xmlns="http://www.w3.org/2000/svg" xmlns:xlink="http://www.w3.org/1999/xlink">
<title>mic</title>
<path d="M24 12c0.552 0 1 0.448 1 1v3c0 4.632-3.5 8.447-7.999 8.945l-0.001 4.055c0 0.552-0.448 1-1 1s-1-0.448-1-1l0-4.055c-4.5-0.497-8-4.312-8-8.945v-3c0-0.552 0.448-1 1-1s1 0.448 1 1v3c0 3.866 3.134 7 7 7s7-3.134 7-7v-3c0-0.552 0.448-1 1-1zM16 2c2.761 0 5 2.239 5 5v9c0 2.761-2.239 5-5 5s-5-2.239-5-5v-9c0-2.761 2.239-5 5-5z"></path>
</svg>
