<?xml version="1.0" encoding="UTF-8"?>
<svg viewBox="0 0 32 32" version="1.1" xmlns="http://www.w3.org/2000/svg" xmlns:xlink="http://www.w3.org/1999/xlink">
<title>park-location</title>
<path d="M22 2c4.418 0 8 3.582 8 8v12c0 4.418-3.582 8-8 8h-12c-4.418 0-8-3.582-8-8v-12c0-4.418 3.582-8 8-8h12zM22 4h-12c-3.238 0-5.878 2.566-5.996 5.775l-0.004 0.225v12c0 3.238 2.566 5.878 5.775 5.996l0.225 0.004h12c3.238 0 5.878-2.566 5.996-5.775l0.004-0.225v-12c0-3.238-2.566-5.878-5.775-5.996l-0.225-0.004zM17.361 9.226c2.548 0 4.333 1.816 4.333 4.399 0 2.379-1.6 4.129-3.912 4.328l-0.219 0.014-0.221 0.005-2.959-0.001 0.001 3.527c0 0.58-0.467 1.050-1.046 1.050-0.488 0-0.904-0.337-1.017-0.812l-0.022-0.122-0.007-0.116v-10.459c0-0.888 0.638-1.635 1.499-1.787l0.154-0.021 0.153-0.007h3.262zM16.944 11.148l-2.561-0v4.903h2.561c1.679 0 2.612-0.871 2.612-2.424s-0.831-2.409-2.411-2.475l-0.201-0.004z"></path>
</svg>
