<?xml version="1.0" encoding="UTF-8"?>
<svg viewBox="0 0 32 32" version="1.1" xmlns="http://www.w3.org/2000/svg" xmlns:xlink="http://www.w3.org/1999/xlink">
<title>rc-app</title>
<path d="M21.015 2h-10.030c-2.649 0-3.921 0.246-5.244 0.953-1.199 0.641-2.147 1.589-2.788 2.788-0.707 1.322-0.953 2.595-0.953 5.244v10.030c0 2.649 0.246 3.921 0.953 5.244 0.641 1.199 1.589 2.147 2.788 2.788 1.322 0.707 2.595 0.953 5.244 0.953h10.030c2.649 0 3.921-0.246 5.244-0.953 1.199-0.641 2.147-1.589 2.788-2.788 0.707-1.322 0.953-2.595 0.953-5.244v-10.030c0-2.649-0.246-3.921-0.953-5.244-0.641-1.199-1.589-2.147-2.788-2.788-1.322-0.707-2.595-0.953-5.244-0.953v0zM10.948 4.406l11.645 0.044 0.054 0.004 0.054 0.004 0.053 0.004 0.052 0.004 0.051 0.004 0.051 0.004 0.050 0.005 0.074 0.007 0.048 0.005 0.048 0.005 0.047 0.005 0.046 0.005 0.046 0.006 0.045 0.006 0.045 0.006 0.044 0.006 0.043 0.006 0.043 0.006 0.042 0.006 0.041 0.007 0.041 0.007c0.007 0.001 0.014 0.002 0.020 0.003l0.040 0.007 0.040 0.007 0.039 0.007c0.006 0.001 0.013 0.002 0.019 0.004 0.524 0.101 0.9 0.24 1.355 0.483 0.78 0.417 1.384 1.022 1.801 1.801 0.244 0.456 0.382 0.832 0.483 1.355l0.007 0.039 0.007 0.039c0.001 0.007 0.002 0.013 0.004 0.020l0.007 0.040 0.007 0.041 0.007 0.041c0.001 0.007 0.002 0.014 0.003 0.021l0.006 0.042 0.006 0.043 0.006 0.043 0.006 0.044 0.006 0.044 0.006 0.045 0.006 0.046 0.005 0.046 0.005 0.047 0.005 0.048 0.005 0.048 0.005 0.049 0.007 0.075 0.004 0.051 0.004 0.051 0.004 0.052 0.004 0.053 0.004 0.054 0.004 0.054 0.004 0.055 0.003 0.056 0.003 0.056 0.003 0.057 0.003 0.058 0.003 0.059 0.004 0.090 0.002 0.061 0.002 0.062 0.002 0.062 0.003 0.095 0.003 0.097 0.002 0.099 0.002 0.101 0.001 0.068 0.001 0.104 0.001 0.070 0.001 0.107 0 0.073 0 0.111v10.105l-0 0.111-0.001 0.109-0.001 0.071-0.001 0.070-0.001 0.104-0.001 0.068-0.001 0.067-0.002 0.099-0.003 0.098-0.002 0.064-0.003 0.094-0.003 0.093-0.002 0.061-0.004 0.090-0.004 0.088-0.003 0.058-0.005 0.085-0.003 0.056-0.004 0.055-0.004 0.054-0.004 0.054-0.004 0.053-0.004 0.052-0.004 0.051-0.004 0.051-0.005 0.050-0.007 0.074-0.005 0.048-0.005 0.048-0.005 0.047-0.005 0.046-0.006 0.046-0.006 0.045-0.006 0.044-0.006 0.044-0.006 0.043-0.006 0.043-0.006 0.042-0.007 0.041-0.007 0.041c-0.001 0.007-0.002 0.014-0.003 0.020l-0.007 0.040-0.007 0.040-0.007 0.039c-0.001 0.006-0.002 0.013-0.004 0.019-0.101 0.524-0.24 0.9-0.483 1.355-0.417 0.78-1.022 1.384-1.801 1.801-0.456 0.244-0.832 0.382-1.355 0.483l-0.039 0.007-0.039 0.007c-0.007 0.001-0.013 0.002-0.020 0.004l-0.040 0.007-0.041 0.007-0.041 0.007c-0.007 0.001-0.014 0.002-0.021 0.003l-0.042 0.006-0.043 0.006-0.043 0.006-0.044 0.006-0.045 0.006-0.045 0.006-0.046 0.006-0.046 0.005-0.047 0.005-0.048 0.005-0.048 0.005-0.049 0.005-0.075 0.007-0.051 0.004-0.051 0.004-0.052 0.004-0.053 0.004-0.054 0.004-0.054 0.004-0.055 0.004-0.056 0.003-0.056 0.003-0.057 0.003-0.058 0.003-0.059 0.003-0.090 0.004-0.061 0.002-0.062 0.002-0.062 0.002-0.095 0.003-0.097 0.003-0.099 0.002-0.101 0.002-0.068 0.001-0.174 0.002-0.18 0.001-0.111 0-11.645-0.044-0.054-0.004-0.054-0.004-0.053-0.004-0.052-0.004-0.051-0.004-0.051-0.004-0.050-0.005-0.074-0.007-0.048-0.005-0.048-0.005-0.047-0.005-0.046-0.005-0.046-0.006-0.045-0.006-0.045-0.006-0.044-0.006-0.043-0.006-0.043-0.006-0.042-0.006-0.041-0.007-0.041-0.007c-0.007-0.001-0.014-0.002-0.020-0.003l-0.040-0.007-0.040-0.007-0.039-0.007c-0.006-0.001-0.013-0.002-0.019-0.004-0.524-0.101-0.9-0.24-1.355-0.483-0.78-0.417-1.384-1.022-1.801-1.801-0.244-0.456-0.382-0.832-0.483-1.355l-0.007-0.039-0.007-0.039c-0.001-0.007-0.002-0.013-0.004-0.020l-0.007-0.040-0.007-0.041-0.007-0.041c-0.001-0.007-0.002-0.014-0.003-0.021l-0.006-0.042-0.006-0.043-0.006-0.043-0.006-0.044-0.006-0.045-0.006-0.045-0.006-0.046-0.005-0.046-0.005-0.047-0.005-0.048-0.005-0.048-0.005-0.049-0.007-0.075-0.004-0.051-0.004-0.051-0.004-0.052-0.004-0.053-0.004-0.054-0.004-0.054-0.004-0.055-0.003-0.056-0.003-0.056-0.003-0.057-0.003-0.058-0.003-0.059-0.004-0.090-0.002-0.061-0.002-0.062-0.002-0.062-0.003-0.095-0.003-0.097-0.002-0.099-0.002-0.101-0.001-0.068-0.001-0.104-0.001-0.070-0.001-0.107-0-0.073-0-0.111v-10.105l0-0.111 0.001-0.109 0.001-0.071 0.001-0.070 0.001-0.104 0.001-0.068 0.001-0.067 0.002-0.099 0.002-0.098 0.002-0.064 0.003-0.094 0.003-0.093 0.002-0.061 0.004-0.090 0.004-0.088 0.003-0.058 0.005-0.085 0.003-0.056 0.004-0.055 0.004-0.054 0.004-0.054 0.004-0.053 0.004-0.052 0.004-0.051 0.004-0.051 0.005-0.050 0.007-0.074 0.005-0.048 0.005-0.048 0.005-0.047 0.005-0.046 0.006-0.046 0.006-0.045 0.006-0.044 0.006-0.044 0.006-0.043 0.006-0.043 0.006-0.042 0.007-0.041 0.007-0.041c0.001-0.007 0.002-0.014 0.003-0.020l0.007-0.040 0.007-0.040 0.007-0.039c0.001-0.006 0.002-0.013 0.004-0.019 0.101-0.524 0.24-0.9 0.483-1.355 0.417-0.78 1.022-1.384 1.801-1.801 0.456-0.244 0.832-0.382 1.355-0.483l0.039-0.007 0.039-0.007c0.007-0.001 0.013-0.002 0.020-0.004l0.040-0.007 0.041-0.007 0.041-0.007c0.007-0.001 0.014-0.002 0.021-0.003l0.042-0.006 0.043-0.006 0.043-0.006 0.044-0.006 0.045-0.006 0.045-0.006 0.046-0.006 0.046-0.005 0.047-0.005 0.048-0.005 0.048-0.005 0.049-0.005 0.075-0.007 0.051-0.004 0.051-0.004 0.052-0.004 0.053-0.004 0.054-0.004 0.054-0.004 0.055-0.004 0.056-0.003 0.056-0.003 0.057-0.003 0.058-0.003 0.059-0.003 0.090-0.004 0.061-0.002 0.062-0.002 0.062-0.002 0.095-0.003 0.097-0.003 0.099-0.002 0.101-0.002 0.068-0.001 0.174-0.002 0.18-0.001 0.111-0z"></path>
<path d="M11.426 24.081c0.055 0.002 0.11-0.007 0.162-0.026s0.099-0.050 0.138-0.089c0.039-0.039 0.069-0.086 0.089-0.138s0.029-0.107 0.027-0.162v-11.686c-0.007-0.050-0.003-0.101 0.013-0.149s0.043-0.092 0.079-0.128c0.036-0.036 0.079-0.063 0.127-0.079s0.099-0.021 0.149-0.014h7.577c0.049-0.005 0.099 0.001 0.146 0.017s0.089 0.044 0.124 0.080c0.035 0.036 0.061 0.079 0.076 0.126s0.020 0.097 0.013 0.147v3.648c0.007 0.049 0.003 0.1-0.012 0.147s-0.041 0.091-0.076 0.127c-0.035 0.036-0.077 0.063-0.124 0.080s-0.097 0.022-0.147 0.017h-3.413c-0.051-0.008-0.103-0.004-0.151 0.011s-0.093 0.043-0.13 0.079c-0.037 0.036-0.064 0.080-0.080 0.129s-0.021 0.1-0.014 0.151v1.617c-0.007 0.368 0.028 0.736 0.104 1.096 0.079 0.326 0.216 0.635 0.404 0.912l2.355 3.695c0.082 0.132 0.198 0.238 0.337 0.308s0.294 0.099 0.448 0.085h3.072c0.154 0 0.255-0.041 0.302-0.128 0.021-0.051 0.028-0.107 0.020-0.162s-0.031-0.106-0.067-0.149l-2.335-3.772c-0.108-0.154-0.068-0.277 0.117-0.37l1.638-0.738c0.527-0.213 0.976-0.585 1.283-1.063 0.284-0.504 0.424-1.076 0.406-1.654v-5.358c0-0.909-0.235-1.598-0.704-2.067s-1.159-0.704-2.068-0.704h-10.624c-0.89 0-1.574 0.235-2.053 0.704s-0.719 1.159-0.719 2.067v12.979c-0.002 0.055 0.007 0.11 0.027 0.162s0.050 0.099 0.088 0.138c0.040 0.039 0.087 0.069 0.138 0.088s0.107 0.029 0.162 0.027h3.095z"></path>
</svg>
