<?xml version="1.0" encoding="UTF-8"?>
<svg viewBox="0 0 32 32" version="1.1" xmlns="http://www.w3.org/2000/svg" xmlns:xlink="http://www.w3.org/1999/xlink">
<title>shortcut</title>
<path d="M22 24c1.105 0 2 0.895 2 2v2c0 1.105-0.895 2-2 2h-12c-1.105 0-2-0.895-2-2v-2c0-1.105 0.895-2 2-2h12zM17.2 2.9l12.4 9.3c0.442 0.331 0.531 0.958 0.2 1.4-0.189 0.252-0.485 0.4-0.8 0.4h-5v7c0 1.105-0.895 2-2 2h-12c-1.105 0-2-0.895-2-2v-7h-5c-0.552 0-1-0.448-1-1 0-0.315 0.148-0.611 0.4-0.8l12.4-9.3c0.711-0.533 1.689-0.533 2.4 0z"></path>
</svg>
