<?xml version="1.0" encoding="UTF-8"?>
<svg viewBox="0 0 32 32" version="1.1" xmlns="http://www.w3.org/2000/svg" xmlns:xlink="http://www.w3.org/1999/xlink">
<title>file_border</title>
<path d="M30 26c0 1.105-0.895 2-2 2h-24c-1.105 0-2-0.895-2-2v-20c0-1.105 0.895-2 2-2h7.821c0.553 0 1.081 0.229 1.459 0.632l1.923 2.052c0.162 0.173 0.379 0.282 0.612 0.309l0.118 0.007h12.067c1.105 0 2 0.895 2 2v17zM28 14h-24v11c0 0.552 0.448 1 1 1h22c0.552 0 1-0.448 1-1v-11zM10.955 6h-5.955c-0.552 0-1 0.448-1 1v5h24v-2c0-0.552-0.448-1-1-1l-11.419-0.021c-0.701-0.083-1.352-0.411-1.836-0.928l-1.33-1.419c-0.378-0.403-0.906-0.632-1.459-0.632z"></path>
</svg>
