<?xml version="1.0" encoding="UTF-8"?>
<svg viewBox="0 0 32 32" version="1.1" xmlns="http://www.w3.org/2000/svg" xmlns:xlink="http://www.w3.org/1999/xlink">
<title>default-team-avatar</title>
<path d="M30.002 10c0 1.083-0.396 2.021-1.188 2.813s-1.73 1.188-2.813 1.188c-1.083 0-2.021-0.396-2.813-1.188s-1.188-1.73-1.188-2.813c0-1.083 0.396-2.021 1.188-2.813s1.73-1.188 2.813-1.188c1.083 0 2.021 0.396 2.813 1.188s1.188 1.73 1.188 2.813zM10.002 10c0 1.083-0.396 2.021-1.188 2.813s-1.73 1.188-2.813 1.188c-1.083 0-2.021-0.396-2.813-1.188s-1.188-1.73-1.188-2.813c0-1.083 0.396-2.021 1.188-2.813s1.73-1.188 2.813-1.188c1.083 0 2.021 0.396 2.813 1.188s1.188 1.73 1.188 2.813zM20.002 27.999c0 1.083-0.396 2.021-1.188 2.813s-1.73 1.188-2.813 1.188c-1.083 0-2.021-0.396-2.813-1.188s-1.188-1.73-1.188-2.813c0-1.083 0.396-2.021 1.188-2.813s1.73-1.188 2.813-1.188c1.083 0 2.021 0.396 2.813 1.188s1.188 1.73 1.188 2.813zM30.002 22c0 1.083-0.396 2.021-1.188 2.813s-1.73 1.188-2.813 1.188c-1.083 0-2.021-0.396-2.813-1.188s-1.188-1.73-1.188-2.813c0-1.083 0.396-2.021 1.188-2.813s1.73-1.188 2.813-1.188c1.083 0 2.021 0.396 2.813 1.188s1.188 1.73 1.188 2.813zM10.002 22c0 1.083-0.396 2.021-1.188 2.813s-1.73 1.188-2.813 1.188c-1.083 0-2.021-0.396-2.813-1.188s-1.188-1.73-1.188-2.813c0-1.083 0.396-2.021 1.188-2.813s1.73-1.188 2.813-1.188c1.083 0 2.021 0.396 2.813 1.188s1.188 1.73 1.188 2.813zM20.002 4.001c0 1.083-0.396 2.021-1.188 2.813s-1.73 1.188-2.813 1.188c-1.083 0-2.021-0.396-2.813-1.188s-1.188-1.73-1.188-2.813c0-1.083 0.396-2.021 1.188-2.813s1.73-1.188 2.813-1.188c1.083 0 2.021 0.396 2.813 1.188s1.188 1.73 1.188 2.813v0z"></path>
</svg>
