<?xml version="1.0" encoding="UTF-8"?>
<svg viewBox="0 0 32 32" version="1.1" xmlns="http://www.w3.org/2000/svg" xmlns:xlink="http://www.w3.org/1999/xlink">
<title>flip_sp</title>
<path d="M8.571 14.881v1.119c0 2.445 1.819 4.443 4.090 4.565l0.221 0.006 6.073-0.001-2.537-2.536 1.615-1.615 5.297 5.295-5.297 5.295-1.615-1.615 2.538-2.538-6.074 0.001c-3.473 0-6.323-2.802-6.578-6.34l-0.014-0.26-0.005-0.257v-1.119h2.286zM13.966 4.99l1.615 1.615-2.539 2.537h6.074c3.474 0 6.324 2.802 6.579 6.34l0.014 0.26 0.005 0.257v1.119h-2.286v-1.119c0-2.445-1.819-4.443-4.091-4.565l-0.221-0.006h-6.073l2.538 2.537-1.615 1.615-5.297-5.295 5.297-5.295z"></path>
</svg>
