<?xml version="1.0" encoding="UTF-8"?>
<svg viewBox="0 0 32 32" version="1.1" xmlns="http://www.w3.org/2000/svg" xmlns:xlink="http://www.w3.org/1999/xlink">
<title>zendesk</title>
<path d="M12.178 19.074c1.487 1.368 3.12 2.282 3.752 2.607 0.739 1.774 2.2 3.313 4.179 4.134-0.814 1.844-2.279 3.22-4.014 3.97-1.722-0.726-3.252-2.115-4.104-4.025-0.465-1.022-0.674-2.091-0.674-3.142 0-1.237 0.299-2.453 0.861-3.545zM9.517 14.976c0.314 1.295 1.074 2.441 1.971 3.407-0.93 1.316-1.455 2.903-1.455 4.556 0 0.695 0.094 1.397 0.289 2.098-0.635 0.155-1.264 0.231-1.886 0.231-1.316 0-2.587-0.333-3.712-0.95-0.16-0.641-0.262-1.365-0.262-2.095 0-1.22 0.292-2.455 0.907-3.611 0.926-1.748 2.426-2.997 4.149-3.636zM26.754 18.593c0.612 1.152 0.905 2.397 0.905 3.626 0 0.67-0.084 1.333-0.249 1.977-1.129 0.609-2.455 0.985-3.834 0.985-0.616 0-1.241-0.072-1.864-0.229-2.017-0.502-3.649-1.754-4.675-3.381 0.709-0.384 2.115-1.209 3.424-2.39 0.715 0.286 1.562 0.428 2.419 0.428 1.313 0 2.647-0.329 3.874-1.017zM25.161 8.821c0.096 0.016 0.181 0.054 0.274 0.074 1.808 0.454 3.431 1.496 4.535 2.949-0.284 1.85-1.272 3.665-2.912 4.951-1.418 1.106-3.096 1.64-4.761 1.64-0.334 0-0.671-0.023-1.006-0.064 1.168-1.268 2.103-2.845 2.105-4.655 0-0.312-0.034-0.609-0.083-0.883 0.94-1.024 1.61-2.402 1.842-3.95v0zM8.278 8.859c1.398 0 2.731 0.38 3.892 1.057-1.499 0.384-2.809 1.69-2.806 3.797 0 0.083 0.004 0.171 0.004 0.25-1.68 0.324-3.305 1.329-4.464 2.883-1.587-1.237-2.57-2.989-2.874-4.85 1.117-1.503 2.836-2.646 4.89-3.015 0.453-0.082 0.909-0.121 1.358-0.121zM9.738 2.329c0.041 0.024 0.151 0.024 0.267 0.024 1.824 0 3.657 0.634 5.133 1.942 1.717 1.519 2.6 3.647 2.6 5.779 0 0.090-0.004 0.18-0.004 0.267-0.526 0.245-1.021 0.722-1.354 1.377-0.623-1.217-1.806-1.83-2.962-1.911-1.377-1.362-3.319-2.207-5.442-2.207-0.091 0-0.178 0.004-0.265 0.004 0.010-0.016 0.010-0.040 0.010-0.069 0-1.991 0.757-3.821 2.016-5.205zM21.819 2.214c1.284 1.368 2.106 3.26 2.106 5.345 0 1.458-0.407 2.818-1.104 3.984-0.696-1.128-1.911-1.726-3.116-1.75v0h-0.084c-0.313 0-0.632 0.037-0.947 0.118 0.004-0.148 0.009-0.298 0.009-0.45 0-1.888-0.505-3.776-1.904-5.265 1.466-1.325 3.081-1.981 4.927-1.981v0z"></path>
</svg>
