<?xml version="1.0" encoding="UTF-8"?>
<svg viewBox="0 0 32 32" version="1.1" xmlns="http://www.w3.org/2000/svg" xmlns:xlink="http://www.w3.org/1999/xlink">
<title>push-to-talk</title>
<path d="M11 1c0.552 0 1 0.448 1 1l-0.001 3.008 11.997 0.001c1.588 0 2.887 1.234 2.993 2.795l0.007 0.205v12.387c0 0.591-0.175 1.169-0.502 1.662l-1.543 2.317-0.686 4.119c-0.231 1.386-1.39 2.418-2.777 2.501l-0.182 0.006h-10.611c-1.467 0-2.718-1.060-2.959-2.507l-0.687-4.119-1.536-2.32c-0.285-0.43-0.453-0.924-0.491-1.436l-0.008-0.22v-12.389c0-1.657 1.343-3 3-3l1.986-0v-3.008c0-0.552 0.448-1 1-1zM23.996 7.009h-15.982c-0.552 0-1 0.448-1 1v12.389c0 0.196 0.058 0.388 0.166 0.552l1.772 2.676 0.756 4.539c0.080 0.482 0.498 0.836 0.986 0.836h10.611c0.489 0 0.906-0.354 0.986-0.836l0.757-4.54 1.78-2.675c0.109-0.164 0.167-0.357 0.167-0.554v-12.387c0-0.552-0.448-1-1-1l-0-0zM18 24c0.552 0 1 0.448 1 1s-0.448 1-1 1h-4c-0.552 0-1-0.448-1-1s0.448-1 1-1h4zM20 20c0.552 0 1 0.448 1 1s-0.448 1-1 1h-8c-0.552 0-1-0.448-1-1s0.448-1 1-1h8zM20.667 10.333c0.552 0 1 0.448 1 1v4.333c0 0.552-0.448 1-1 1h-9.333c-0.552 0-1-0.448-1-1v-4.333c0-0.552 0.448-1 1-1h9.333zM19.667 12.333h-7.333v2.333h7.333v-2.333z"></path>
</svg>
