<?xml version="1.0" encoding="UTF-8"?>
<svg viewBox="0 0 32 32" version="1.1" xmlns="http://www.w3.org/2000/svg" xmlns:xlink="http://www.w3.org/1999/xlink">
<title>team</title>
<path d="M8 19c-4.346 0-8 3.045-8 7 0 1.105 0.895 2 2 2l6.536 0.001c-0.341-0.589-0.536-1.272-0.536-2.001 0-2.541 0.969-4.815 2.582-6.627-0.813-0.243-1.683-0.373-2.582-0.373zM21 17c-5.981 0-11 3.904-11 9 0 1.105 0.895 2 2 2h18c1.105 0 2-0.895 2-2 0-5.096-5.019-9-11-9zM8 7c-2.761 0-5 2.239-5 5s2.239 5 5 5c2.761 0 5-2.239 5-5s-2.239-5-5-5zM21 3c-3.314 0-6 2.686-6 6s2.686 6 6 6c3.314 0 6-2.686 6-6s-2.686-6-6-6z"></path>
</svg>
