<?xml version="1.0" encoding="UTF-8"?>
<svg viewBox="0 0 33 32" version="1.1" xmlns="http://www.w3.org/2000/svg" xmlns:xlink="http://www.w3.org/1999/xlink">
<title>macos_control</title>
<path d="M7.643 16.297c-0.227 0.227-0.355 0.51-0.355 0.837 0 0.68 0.525 1.191 1.192 1.191 0.34 0 0.624-0.127 0.85-0.34l7.375-7.417 7.36 7.417c0.228 0.213 0.526 0.34 0.852 0.34 0.68 0 1.191-0.51 1.191-1.191 0-0.326-0.128-0.61-0.34-0.837l-8.198-8.24c-0.21-0.235-0.514-0.382-0.852-0.382-0.004 0-0.009 0-0.013 0h0.001c-0.34 0-0.624 0.127-0.879 0.382l-8.183 8.24z"></path>
</svg>
