<?xml version="1.0" encoding="UTF-8"?>
<svg viewBox="0 0 32 32" version="1.1" xmlns="http://www.w3.org/2000/svg" xmlns:xlink="http://www.w3.org/1999/xlink">
<title>export</title>
<path d="M15.121 2.001c6.584 0 11.922 5.418 11.922 12.101l0.001 2.229c-0.612-0.383-1.279-0.685-1.987-0.892l-0.001-1.337c0-5.569-4.448-10.084-9.935-10.084h-8.941c-0.549 0-0.993 0.451-0.993 1.008v22.185c0 0.557 0.445 1.008 0.993 1.008l10.465 0.001c0.688 0.83 1.541 1.519 2.508 2.017l-13.966-0.001c-1.097 0-1.987-0.903-1.987-2.017v-24.202c0-1.114 0.89-2.017 1.987-2.017l9.934 0.001zM16.549 18.135c-0.484 0.607-0.881 1.285-1.174 2.017h-5.222c-0.549 0-0.993-0.451-0.993-1.008s0.445-1.008 0.993-1.008l6.396-0.001zM23.914 17.826l4.586 4.586c0.391 0.391 0.391 1.024 0 1.414l-4.586 4.586c-0.39 0.39-1.024 0.39-1.414 0s-0.39-1.024 0-1.414l2.879-2.879h-7.559c-0.552 0-1-0.448-1-1s0.448-1 1-1h7.559l-2.879-2.879c-0.39-0.39-0.39-1.024 0-1.414s1.024-0.39 1.414 0zM20.088 12.085c0.549 0 0.993 0.451 0.993 1.008s-0.445 1.008-0.993 1.008h-9.935c-0.549 0-0.993-0.451-0.993-1.008s0.445-1.008 0.993-1.008h9.935z"></path>
</svg>
