<?xml version="1.0" encoding="UTF-8"?>
<svg viewBox="0 0 32 32" version="1.1" xmlns="http://www.w3.org/2000/svg" xmlns:xlink="http://www.w3.org/1999/xlink">
<title>rc_help</title>
<path d="M16 0c8.837 0 16 7.163 16 16s-7.163 16-16 16c-8.837 0-16-7.163-16-16s7.163-16 16-16zM17.205 20.001h-2.204v1.999h2.204v-1.999zM15.913 9c-0.893 0-1.645 0.198-2.258 0.595-0.97 0.621-1.593 1.933-1.655 3.42h2.25c0-0.433 0.232-1.109 0.484-1.511s0.679-0.602 1.281-0.602c0.612 0 1.034 0.163 1.265 0.489s0.346 0.687 0.346 1.084c0 0.344-0.104 0.66-0.311 0.947-0.114 0.167-0.265 0.321-0.451 0.462l-0.568 0.446c-0.56 0.438-0.908 0.825-1.043 1.162s-0.117 1.657-0.148 2.539h2.102c0.005-0.417-0.062-0.437 0-0.635 0.099-0.313 0.298-1.587 0.599-1.822l0.553-0.43c0.561-0.438 0.939-0.798 1.137-1.080 0.337-0.464 0.506-1.035 0.506-1.714 0-1.106-0.388-1.94-1.164-2.504s-1.75-0.845-2.923-0.845z"></path>
</svg>
