<?xml version="1.0" encoding="UTF-8"?>
<svg viewBox="0 0 32 32" version="1.1" xmlns="http://www.w3.org/2000/svg" xmlns:xlink="http://www.w3.org/1999/xlink">
<title>image-preview-D</title>
<path fill="#30323a" style="fill: var(--color13, #30323a)" d="M3.556 0h24.889c1.964 0 3.556 1.592 3.556 3.556v24.889c0 1.964-1.592 3.556-3.556 3.556h-24.889c-1.964 0-3.556-1.592-3.556-3.556v-24.889c0-1.964 1.592-3.556 3.556-3.556z"></path>
<path fill="#8f9199" style="fill: var(--color14, #8f9199)" d="M16.756 8l5.466 4.962-0.024 8.878c0 0.607-0.204 1.118-0.612 1.535s-0.909 0.625-1.503 0.625h-8.154c-0.594 0-1.095-0.209-1.503-0.625s-0.612-0.929-0.612-1.535l-0.035-11.661c0-0.607 0.204-1.118 0.612-1.535s0.909-0.625 1.503-0.625l4.862-0.018z"></path>
<path fill="#f1f1f1" style="fill: var(--color26, #f1f1f1)" d="M17.393 14.633l2.987 5.82-3.789-0.001 0.012 0.015h-5.134l2.209-3.896 1.562 2.081 2.153-4.020zM13.778 12.444c0.736 0 1.333 0.597 1.333 1.333s-0.597 1.333-1.333 1.333c-0.736 0-1.333-0.597-1.333-1.333s0.597-1.333 1.333-1.333z"></path>
</svg>
