<?xml version="1.0" encoding="UTF-8"?>
<svg viewBox="0 0 32 32" version="1.1" xmlns="http://www.w3.org/2000/svg" xmlns:xlink="http://www.w3.org/1999/xlink">
<title>workspace_border</title>
<path d="M23.558 4c0.861 0 1.625 0.551 1.897 1.368l4.236 12.709c0.204 0.612 0.308 1.252 0.308 1.897v6.026c0 1.105-0.895 2-2 2h-24c-1.105 0-2-0.895-2-2v-6.026c0-0.645 0.104-1.286 0.308-1.897l4.236-12.709c0.272-0.817 1.037-1.368 1.897-1.368h15.117zM9.172 20h-5.172v5c0 0.552 0.448 1 1 1h22c0.552 0 1-0.448 1-1v-5h-5.172c-0.221 0-0.434 0.073-0.608 0.206l-0.099 0.087-1.828 1.828c-0.516 0.516-1.2 0.824-1.923 0.872l-0.198 0.007h-4.343c-0.729 0-1.431-0.266-1.977-0.743l-0.145-0.135-1.828-1.828c-0.156-0.156-0.359-0.256-0.576-0.284l-0.131-0.009zM22.838 6h-13.675c-0.43 0-0.813 0.275-0.949 0.684l-3.773 11.316h4.731c0.729 0 1.431 0.266 1.977 0.743l0.145 0.135 1.828 1.828c0.156 0.156 0.359 0.256 0.576 0.284l0.131 0.009h4.343c0.221 0 0.434-0.073 0.608-0.206l0.099-0.087 1.828-1.828c0.516-0.516 1.2-0.824 1.923-0.872l0.198-0.007h4.73l-3.772-11.316c-0.136-0.408-0.518-0.684-0.949-0.684zM23 13c0.552 0 1 0.448 1 1s-0.448 1-1 1h-14c-0.552 0-1-0.448-1-1s0.448-1 1-1h14zM21 8c0.552 0 1 0.448 1 1s-0.448 1-1 1h-10c-0.552 0-1-0.448-1-1s0.448-1 1-1h10z"></path>
</svg>
