<?xml version="1.0" encoding="UTF-8"?>
<svg viewBox="0 0 32 32" version="1.1" xmlns="http://www.w3.org/2000/svg" xmlns:xlink="http://www.w3.org/1999/xlink">
<title>join_meeting</title>
<path d="M27.556 5.333c1.473 0 2.667 1.194 2.667 2.667v16c0 1.473-1.194 2.667-2.667 2.667h-19.556c-1.473 0-2.667-1.194-2.667-2.667v-4.444h1.778v4.444c0 0.456 0.343 0.832 0.785 0.883l0.104 0.006h19.556c0.456 0 0.832-0.343 0.883-0.785l0.006-0.104v-16c0-0.456-0.343-0.832-0.785-0.883l-0.104-0.006h-19.556c-0.456 0-0.832 0.343-0.883 0.785l-0.006 0.104v4.444h-1.778v-4.444c0-1.473 1.194-2.667 2.667-2.667h19.556zM12.597 11.34l3.619 3.619c0.072 0.072 0.129 0.154 0.172 0.241 0.297 0.144 0.502 0.448 0.502 0.801s-0.205 0.657-0.502 0.801c-0.041 0.087-0.099 0.169-0.171 0.241l-3.619 3.619c-0.347 0.347-0.91 0.347-1.257 0s-0.347-0.91 0-1.257l2.513-2.515-11.187 0c-0.491 0-0.889-0.398-0.889-0.889s0.398-0.889 0.889-0.889l11.187-0-2.513-2.514c-0.347-0.347-0.347-0.91 0-1.257s0.91-0.347 1.257 0z"></path>
</svg>
