<?xml version="1.0" encoding="UTF-8"?>
<svg viewBox="0 0 32 32" version="1.1" xmlns="http://www.w3.org/2000/svg" xmlns:xlink="http://www.w3.org/1999/xlink">
<title>salesforce</title>
<path d="M13.484 8.29c0.967-1.008 2.315-1.634 3.804-1.634 1.98 0 3.708 1.104 4.628 2.744 0.8-0.358 1.685-0.557 2.616-0.557 3.572 0 6.467 2.922 6.467 6.525s-2.895 6.525-6.467 6.525c-0.436 0-0.862-0.044-1.274-0.127-0.81 1.445-2.354 2.422-4.126 2.422-0.742 0-1.444-0.171-2.068-0.476-0.822 1.933-2.735 3.287-4.966 3.287-2.323 0-4.302-1.469-5.062-3.531-0.332 0.070-0.676 0.107-1.029 0.107-2.766 0-5.008-2.265-5.008-5.059 0-1.873 1.008-3.509 2.504-4.384-0.308-0.709-0.48-1.491-0.48-2.314 0-3.214 2.609-5.819 5.827-5.819 1.889 0 3.568 0.899 4.633 2.29z"></path>
</svg>
