<?xml version="1.0" encoding="UTF-8"?>
<svg viewBox="0 0 32 32" version="1.1" xmlns="http://www.w3.org/2000/svg" xmlns:xlink="http://www.w3.org/1999/xlink">
<title>add-event</title>
<path d="M23 17c0.552 0 1 0.448 1 1v4h4c0.552 0 1 0.448 1 1s-0.448 1-1 1h-4.001l0.001 4c0 0.552-0.448 1-1 1s-1-0.448-1-1l-0.001-4h-3.999c-0.552 0-1-0.448-1-1s0.448-1 1-1h4v-4c0-0.552 0.448-1 1-1zM21 2c0.513 0 0.936 0.386 0.993 0.883l0.007 0.117v1h4c1.054 0 1.918 0.816 1.994 1.851l0.006 0.149 0.001 10.755c-0.601-0.482-1.274-0.879-2-1.173l-0.001-5.582h-20v15c0 0.513 0.386 0.936 0.883 0.993l0.117 0.007 8.582 0.001c0.294 0.726 0.691 1.398 1.173 2l-10.755-0.001c-1.054 0-1.918-0.816-1.995-1.851l-0.006-0.149v-20c0-1.054 0.816-1.918 1.851-1.995l0.149-0.005h4v-1c0-0.552 0.448-1 1-1 0.513 0 0.935 0.386 0.993 0.883l0.007 0.117v1h8v-1c0-0.552 0.448-1 1-1zM25 6h-18c-0.513 0-0.936 0.386-0.993 0.883l-0.007 0.117v1h20v-1c0-0.513-0.386-0.936-0.883-0.993l-0.117-0.007z"></path>
</svg>
