<?xml version="1.0" encoding="UTF-8"?>
<svg viewBox="0 0 32 32" version="1.1" xmlns="http://www.w3.org/2000/svg" xmlns:xlink="http://www.w3.org/1999/xlink">
<title>Microsoft_Exchange_Server_Logo_wine</title>
<path fill="#28a8ea" style="fill: var(--color1, #28a8ea)" d="M29.068 3h-6.652c-0.504 0-0.988 0.199-1.344 0.554l-15.701 15.599c-0.356 0.354-0.557 0.834-0.557 1.336v6.608c0 0.502 0.201 0.982 0.557 1.337 0.357 0.354 0.841 0.553 1.345 0.553h6.652c0.504 0 0.988-0.199 1.345-0.554l15.7-15.599c0.357-0.354 0.557-0.834 0.557-1.336v-6.608c0-0.501-0.2-0.982-0.557-1.337s-0.84-0.553-1.345-0.553z"></path>
<path fill="#0078d4" style="fill: var(--color2, #0078d4)" d="M29.068 28.987h-6.652c-0.504 0-0.988-0.199-1.344-0.553l-3.18-3.159v-5.903c0-1.866 1.522-3.378 3.4-3.378h5.942l3.179 3.159c0.357 0.354 0.557 0.835 0.557 1.336v6.609c0 1.043-0.851 1.889-1.902 1.889z"></path>
<path fill="#50d9ff" style="fill: var(--color3, #50d9ff)" d="M6.716 3h6.652c0.504 0 0.988 0.199 1.345 0.553l3.179 3.159v5.903c0 1.866-1.522 3.379-3.4 3.379h-5.941l-3.18-3.16c-0.356-0.354-0.557-0.834-0.557-1.336v-6.609c0-1.043 0.852-1.889 1.902-1.889z"></path>
<path fill="#000" style="fill: var(--color4, #000)" opacity="0.2" d="M16.802 9.675v14.261c0.002 0.073-0.006 0.145-0.021 0.216-0.103 0.605-0.631 1.047-1.248 1.045h-10.719v-16.783h10.719c0.337-0.001 0.66 0.132 0.898 0.369s0.372 0.558 0.371 0.892z"></path>
<path fill="#000" style="fill: var(--color4, #000)" opacity="0.1" d="M17.347 9.675v13.178c-0.009 0.992-0.816 1.794-1.814 1.803h-10.719v-16.783h10.719c1 0.003 1.811 0.808 1.814 1.802z"></path>
<path fill="#000" style="fill: var(--color4, #000)" opacity="0.2" d="M16.802 9.675v13.178c0.001 0.335-0.133 0.656-0.371 0.893-0.238 0.236-0.561 0.369-0.898 0.368h-10.719v-15.7h10.719c0.337-0.001 0.66 0.132 0.898 0.369s0.372 0.558 0.371 0.892z"></path>
<path fill="#000" style="fill: var(--color4, #000)" opacity="0.1" d="M16.257 9.675v13.178c0.001 0.335-0.133 0.656-0.371 0.893-0.238 0.236-0.561 0.369-0.898 0.368h-10.174v-15.7h10.174c0.337-0.001 0.66 0.132 0.898 0.369s0.372 0.558 0.371 0.892z"></path>
<path fill="#0078d4" style="fill: var(--color2, #0078d4)" d="M2.271 23.573c-0.702 0-1.271 0-1.271 0v-15.159c0 0 0.569 0 1.271 0h12.715c0.702 0 1.272 0 1.272 0v15.159c0 0-0.57 0-1.272 0h-12.715z"></path>
<path fill="#fff" style="fill: var(--color5, #fff)" d="M11.127 13.222h-3.567v2.073h3.348v1.328h-3.348v2.153h3.757v1.323h-5.377v-8.211h5.187z"></path>
</svg>
