<?xml version="1.0" encoding="UTF-8"?>
<svg viewBox="0 0 32 32" version="1.1" xmlns="http://www.w3.org/2000/svg" xmlns:xlink="http://www.w3.org/1999/xlink">
<title>Shared-line</title>
<path fill="#066fac" style="fill: var(--color1, #066fac)" d="M32 16c0 8.837-7.163 16-16 16s-16-7.163-16-16c0-8.837 7.163-16 16-16s16 7.163 16 16z"></path>
<path fill="#fff" style="fill: var(--color2, #fff)" d="M20.567 9.992c0.039 0.107 0.101 0.233 0.188 0.375 0.089 0.145 0.202 0.305 0.339 0.476 0.149 0.183 0.287 0.334 0.414 0.452 0.123 0.114 0.235 0.2 0.333 0.257 0.038 0.022 0.070 0.039 0.097 0.052 0.018-0.021 0.040-0.046 0.068-0.078l0.025-0.025c-0.001 0.001 0-0.001 0.003-0.005l0.024-0.030c0.070-0.077 0.13-0.139 0.179-0.186 0.053-0.051 0.113-0.099 0.192-0.155 0.205-0.126 0.433-0.179 0.676-0.157 0.25 0.023 0.462 0.126 0.612 0.294 0.187 0.184 0.38 0.367 0.581 0.551s0.464 0.415 0.789 0.695c0.183 0.156 0.304 0.348 0.361 0.57 0.057 0.225 0.039 0.443-0.050 0.629-0.060 0.156-0.176 0.339-0.348 0.556-0.169 0.214-0.322 0.375-0.454 0.477-0.137 0.118-0.295 0.207-0.472 0.265-0.173 0.057-0.363 0.086-0.57 0.086-0.334 0-0.683-0.068-1.045-0.203-0.354-0.131-0.713-0.32-1.080-0.564-0.363-0.242-0.725-0.538-1.082-0.883-0.364-0.34-0.722-0.725-1.074-1.157-0.465-0.58-0.846-1.153-1.141-1.718-0.297-0.562-0.507-1.089-0.629-1.581-0.124-0.501-0.153-0.954-0.087-1.355 0.063-0.424 0.24-0.768 0.531-1.023 0.135-0.117 0.324-0.236 0.57-0.361 0.25-0.127 0.457-0.205 0.629-0.232 0.229-0.037 0.453-0.003 0.664 0.1s0.375 0.265 0.491 0.487c0.114 0.236 0.244 0.482 0.392 0.735s0.323 0.534 0.528 0.844c0.129 0.203 0.18 0.424 0.151 0.655-0.028 0.227-0.126 0.429-0.304 0.617-0.051 0.045-0.104 0.087-0.158 0.126-0.049 0.035-0.103 0.069-0.162 0.103-0.021 0.017-0.043 0.032-0.068 0.045l-0.053 0.027c-0.020 0.013-0.040 0.024-0.069 0.039-0.017 0.007-0.032 0.014-0.045 0.022 0.008 0.043 0.026 0.101 0.057 0.178h-0z"></path>
<path fill="#fff" style="fill: var(--color2, #fff)" d="M10.383 18.747c0.053 0.142 0.139 0.307 0.258 0.495 0.122 0.192 0.278 0.402 0.467 0.628 0.205 0.242 0.395 0.44 0.569 0.596 0.169 0.151 0.323 0.264 0.458 0.339 0.052 0.029 0.097 0.052 0.134 0.068 0.025-0.027 0.055-0.061 0.093-0.102l0.034-0.033c-0.002 0.001 0-0.001 0.004-0.006l0.032-0.040c0.097-0.102 0.179-0.183 0.247-0.245 0.073-0.067 0.155-0.131 0.264-0.204 0.282-0.166 0.596-0.237 0.93-0.207 0.344 0.030 0.636 0.167 0.842 0.388 0.257 0.242 0.523 0.485 0.799 0.727s0.638 0.548 1.086 0.918c0.251 0.206 0.418 0.46 0.496 0.753 0.079 0.298 0.053 0.585-0.069 0.83-0.083 0.205-0.242 0.447-0.479 0.734-0.233 0.282-0.444 0.495-0.624 0.63-0.188 0.156-0.406 0.273-0.65 0.35-0.238 0.076-0.5 0.113-0.784 0.113-0.46 0-0.94-0.090-1.438-0.268-0.487-0.173-0.981-0.422-1.485-0.744-0.5-0.32-0.997-0.71-1.489-1.165-0.501-0.449-0.993-0.957-1.478-1.528-0.64-0.766-1.163-1.522-1.57-2.268-0.409-0.742-0.698-1.437-0.865-2.087-0.17-0.662-0.211-1.259-0.12-1.788 0.087-0.56 0.33-1.014 0.73-1.35 0.186-0.155 0.446-0.312 0.784-0.476 0.344-0.167 0.629-0.27 0.865-0.307 0.315-0.049 0.624-0.004 0.914 0.132s0.516 0.35 0.676 0.643c0.157 0.312 0.336 0.636 0.539 0.971s0.444 0.706 0.727 1.115c0.177 0.268 0.248 0.56 0.208 0.865-0.039 0.299-0.173 0.567-0.419 0.814-0.070 0.060-0.143 0.115-0.218 0.167-0.067 0.046-0.141 0.091-0.223 0.136-0.029 0.023-0.060 0.042-0.094 0.059l-0.073 0.036c-0.027 0.017-0.055 0.032-0.095 0.051-0.023 0.009-0.043 0.019-0.062 0.029 0.011 0.057 0.036 0.133 0.078 0.235h-0z"></path>
<path fill="#fff" style="fill: var(--color2, #fff)" d="M14.202 17.788c0.011 0.247-0.171 0.456-0.421 0.491-0.294 0.038-0.559-0.177-0.574-0.465-0.043-0.85 0.116-2.202 1.148-3.42 0.182-0.215 0.393-0.393 0.624-0.544l-0.576-1.835 3.913 1.205c0.226 0.097 0.273 0.388 0.089 0.54l-2.645 2.566-0.447-1.422c-0.072 0.066-0.139 0.134-0.202 0.206-0.824 0.968-0.942 1.97-0.907 2.677l-0 0z"></path>
</svg>
