<?xml version="1.0" encoding="UTF-8"?>
<svg viewBox="0 0 32 32" version="1.1" xmlns="http://www.w3.org/2000/svg" xmlns:xlink="http://www.w3.org/1999/xlink">
<title>member_border</title>
<path d="M16 18c7.067 0 13 4.315 13 10 0 1.105-0.895 2-2 2h-22c-1.105 0-2-0.895-2-2 0-5.685 5.933-10 13-10zM16 20c-5.736 0-10.447 3.193-10.955 7.269-0.063 0.503 0.17 0.731 0.567 0.731 4.674 0 11.647 0 20.918 0 0.239 0 0.48-0.158 0.444-0.551-0.389-4.161-5.154-7.449-10.974-7.449zM16 2c3.866 0 7 3.134 7 7s-3.134 7-7 7c-3.866 0-7-3.134-7-7s3.134-7 7-7zM16 4c-2.761 0-5 2.239-5 5s2.239 5 5 5c2.761 0 5-2.239 5-5s-2.239-5-5-5z"></path>
</svg>
