<?xml version="1.0" encoding="UTF-8"?>
<svg viewBox="0 0 32 32" version="1.1" xmlns="http://www.w3.org/2000/svg" xmlns:xlink="http://www.w3.org/1999/xlink">
<title>ContactCenter</title>
<path d="M6.559 18.72c2.651 0 4.8 2.149 4.8 4.8-0 0.868-0.234 1.68-0.637 2.383 1.56 0.876 3.361 1.376 5.278 1.376 1.16 0 2.276-0.185 3.323-0.523l0.684 1.88c-1.261 0.416-2.608 0.644-4.008 0.644-2.435 0-4.711-0.68-6.648-1.861-0.787 0.565-1.75 0.902-2.792 0.902-2.651-0-4.8-2.149-4.8-4.8s2.149-4.8 4.8-4.8z"></path>
<path d="M23.789 6.284c4.116 3.128 5.831 8.308 4.719 13.091 2.038 1.556 2.5 4.457 1.012 6.573-1.525 2.168-4.521 2.691-6.689 1.166s-2.689-4.519-1.164-6.688c1.152-1.637 3.141-2.336 4.98-1.923 0.744-3.893-0.697-8.031-4.008-10.583l1.15-1.636z"></path>
<path d="M16 0c2.651 0 4.8 2.149 4.8 4.8s-2.149 4.8-4.8 4.8c-2.002 0-3.717-1.226-4.438-2.967-3.613 1.631-6.167 5.191-6.35 9.367h-2c0.191-5.166 3.441-9.549 7.992-11.391 0.1-2.563 2.208-4.609 4.795-4.609z"></path>
</svg>
