<?xml version="1.0" encoding="UTF-8"?>
<svg viewBox="0 0 32 32" version="1.1" xmlns="http://www.w3.org/2000/svg" xmlns:xlink="http://www.w3.org/1999/xlink">
<title>refresh</title>
<path d="M27 3c0.552 0 1 0.448 1 1v6c0 0.513-0.386 0.935-0.883 0.993l-0.117 0.007h-6c-0.552 0-1-0.448-1-1s0.448-1 1-1l3.486-0.001c-2.060-2.497-5.143-3.999-8.486-3.999-6.075 0-11 4.925-11 11s4.925 11 11 11c6.075 0 11-4.925 11-11 0-0.552 0.448-1 1-1s1 0.448 1 1c0 7.18-5.82 13-13 13s-13-5.82-13-13c0-7.18 5.82-13 13-13 3.935 0 7.568 1.763 10.001 4.693l-0.001-3.693c0-0.552 0.448-1 1-1z"></path>
</svg>
