<?xml version="1.0" encoding="UTF-8"?>
<svg viewBox="0 0 32 32" version="1.1" xmlns="http://www.w3.org/2000/svg" xmlns:xlink="http://www.w3.org/1999/xlink">
<title>excel</title>
<path fill="#fff" opacity="0.991775" d="M3.556 0h24.889c1.964 0 3.556 1.592 3.556 3.556v24.889c0 1.964-1.592 3.556-3.556 3.556h-24.889c-1.964 0-3.556-1.592-3.556-3.556v-24.889c0-1.964 1.592-3.556 3.556-3.556z"></path>
<path fill="#007640" opacity="0.16" d="M3.556 0h24.889c1.964 0 3.556 1.592 3.556 3.556v24.889c0 1.964-1.592 3.556-3.556 3.556h-24.889c-1.964 0-3.556-1.592-3.556-3.556v-24.889c0-1.964 1.592-3.556 3.556-3.556z"></path>
<path fill="#007640" d="M11.915 8l4.844 0.023 5.463 5.114v8.889c0 0.605-0.215 0.933-0.627 1.349s-0.918 0.624-1.518 0.624h-8.171c-0.6 0-1.106-0.208-1.518-0.624s-0.61-0.743-0.61-1.349v-11.87c0-0.606 0.206-1.116 0.619-1.533s0.918-0.624 1.518-0.624h-0zM14.258 14.051h-1.387l2.287 3.141-2.474 3.52h1.312l1.837-2.763 1.837 2.763h1.425l-2.587-3.595 2.287-3.066h-1.312l-1.649 2.346-1.575-2.346z"></path>
</svg>
