<?xml version="1.0" encoding="UTF-8"?>
<svg viewBox="0 0 32 32" version="1.1" xmlns="http://www.w3.org/2000/svg" xmlns:xlink="http://www.w3.org/1999/xlink">
<title>hash</title>
<path d="M16.523 11l-0.559 2.65h1.645l0.559-2.65h0.526c0.111 0 0.203 0.031 0.276 0.094s0.11 0.144 0.11 0.245c0 0.034-0.002 0.061-0.007 0.082l-0.486 2.23h1.412l-0.087 0.471c-0.022 0.121-0.074 0.21-0.157 0.267s-0.208 0.085-0.376 0.085h-0.919l-0.433 2.047h1.192c0.107 0 0.189 0.024 0.246 0.072s0.087 0.133 0.087 0.254l-0.008 0.101-0.066 0.395h-1.578l-0.559 2.657h-0.54c-0.102 0-0.189-0.036-0.26-0.107s-0.107-0.163-0.107-0.276l0.001-0.024 0.007-0.047 0.479-2.202h-1.645l-0.473 2.23c-0.036 0.155-0.103 0.265-0.203 0.33s-0.214 0.097-0.343 0.097h-0.526l0.566-2.657h-0.972c-0.102 0-0.182-0.024-0.24-0.072s-0.087-0.131-0.087-0.248l0.001-0.033 0.007-0.074 0.059-0.396h1.359l0.433-2.047h-1.545l0.087-0.465c0.022-0.121 0.073-0.211 0.153-0.27s0.206-0.088 0.38-0.088h1.052l0.48-2.248c0.027-0.126 0.088-0.224 0.183-0.295s0.21-0.107 0.343-0.107h0.533zM17.482 14.473h-1.645l-0.433 2.047h1.645l0.433-2.047z"></path>
</svg>
