<?xml version="1.0" encoding="UTF-8"?>
<svg viewBox="0 0 32 32" version="1.1" xmlns="http://www.w3.org/2000/svg" xmlns:xlink="http://www.w3.org/1999/xlink">
<title>calendar-day</title>
<path d="M26 4c1.105 0 2 0.895 2 2v20c0 1.105-0.895 2-2 2h-20c-1.105 0-2-0.895-2-2v-20c0-1.105 0.895-2 2-2h20zM25 6h-18c-0.552 0-1 0.448-1 1v18c0 0.552 0.448 1 1 1h18c0.552 0 1-0.448 1-1v-18c0-0.552-0.448-1-1-1zM22 15c0.552 0 1 0.448 1 1v6c0 0.552-0.448 1-1 1h-12c-0.552 0-1-0.448-1-1v-6c0-0.552 0.448-1 1-1h12zM21 17h-10v4h10v-4zM22 9c0.552 0 1 0.448 1 1s-0.448 1-1 1h-12c-0.552 0-1-0.448-1-1s0.448-1 1-1h12z"></path>
</svg>
