<?xml version="1.0" encoding="UTF-8"?>
<svg viewBox="0 0 32 32" version="1.1" xmlns="http://www.w3.org/2000/svg" xmlns:xlink="http://www.w3.org/1999/xlink">
<title>apps-discovery</title>
<path d="M15.919 16.75c0.179-0.638 0.841-1.011 1.479-0.832v0l11.593 3.246c0.398 0.112 0.711 0.421 0.828 0.818 0.187 0.636-0.178 1.303-0.814 1.489v0l-5.824 1.709-1.71 5.825c-0.117 0.397-0.429 0.706-0.828 0.818-0.638 0.179-1.3-0.194-1.479-0.832v0l-3.246-11.594c-0.059-0.212-0.059-0.435 0-0.647zM10 16c1.105 0 2 0.895 2 2v6c0 1.105-0.895 2-2 2h-6c-1.105 0-2-0.895-2-2v-6c0-1.105 0.895-2 2-2h6zM10 2c1.105 0 2 0.895 2 2v6c0 1.105-0.895 2-2 2h-6c-1.105 0-2-0.895-2-2v-6c0-1.105 0.895-2 2-2h6zM24 2c1.105 0 2 0.895 2 2v6c0 1.105-0.895 2-2 2h-6c-1.105 0-2-0.895-2-2v-6c0-1.105 0.895-2 2-2h6z"></path>
</svg>
