<?xml version="1.0" encoding="UTF-8"?>
<svg viewBox="0 0 32 32" version="1.1" xmlns="http://www.w3.org/2000/svg" xmlns:xlink="http://www.w3.org/1999/xlink">
<title>camera-filled</title>
<path d="M23 2c3.866 0 7 3.134 7 7v14c0 3.866-3.134 7-7 7h-14c-3.866 0-7-3.134-7-7v-14c0-3.866 3.134-7 7-7h14zM16 10.75c-2.899 0-5.25 2.351-5.25 5.25s2.351 5.25 5.25 5.25c2.899 0 5.25-2.351 5.25-5.25s-2.351-5.25-5.25-5.25zM23 7.25c-0.966 0-1.75 0.784-1.75 1.75s0.784 1.75 1.75 1.75c0.966 0 1.75-0.784 1.75-1.75s-0.784-1.75-1.75-1.75z"></path>
</svg>
