<?xml version="1.0" encoding="UTF-8"?>
<svg viewBox="0 0 32 32" version="1.1" xmlns="http://www.w3.org/2000/svg" xmlns:xlink="http://www.w3.org/1999/xlink">
<title>add-folder_border</title>
<path d="M24 17c0.552 0 1 0.448 1 1v4h4c0.552 0 1 0.448 1 1s-0.448 1-1 1h-4.001l0.001 4c0 0.552-0.448 1-1 1s-1-0.448-1-1l-0.001-4h-3.999c-0.552 0-1-0.448-1-1s0.448-1 1-1h4v-4c0-0.552 0.448-1 1-1zM11.821 4c0.553 0 1.081 0.229 1.459 0.632l1.923 2.052c0.162 0.173 0.379 0.282 0.612 0.309l0.118 0.007h12.067c1.105 0 2 0.895 2 2l0.001 8.71c-0.572-0.648-1.247-1.203-2-1.639l-0.001-6.071c0-0.552-0.448-1-1-1l-11.419-0.021c-0.701-0.083-1.352-0.411-1.836-0.928l-1.33-1.419c-0.378-0.403-0.906-0.632-1.459-0.632h-5.955c-0.552 0-1 0.448-1 1v18c0 0.552 0.448 1 1 1l11.582 0.001c0.294 0.726 0.691 1.398 1.173 2l-13.755-0.001c-1.105 0-2-0.895-2-2v-20c0-1.105 0.895-2 2-2h7.821z"></path>
</svg>
