<?xml version="1.0" encoding="UTF-8"?>
<svg viewBox="0 0 32 32" version="1.1" xmlns="http://www.w3.org/2000/svg" xmlns:xlink="http://www.w3.org/1999/xlink">
<title>unpin</title>
<path d="M9.946 20.442l1.613 1.613-7.256 7.256c-0.445 0.445-2.78 2.058-3.225 1.613s1.167-2.78 1.613-3.225l7.256-7.256zM19.63 1.154c0.086 0.050 0.165 0.11 0.235 0.181l10.802 10.801c0.445 0.445 0.445 1.167 0 1.613-0.070 0.070-0.149 0.131-0.235 0.181l-8.715 5.046c0.444 3.091-0.523 6.345-2.901 8.723-0.445 0.445-1.167 0.445-1.613 0l-12.9-12.9c-0.445-0.445-0.445-1.167 0-1.613 2.378-2.378 5.633-3.345 8.724-2.901l5.045-8.715c0.316-0.545 1.013-0.731 1.558-0.415zM19.241 3.539l-5.161 8.917-1.338-0.192c-2.165-0.311-4.353 0.238-6.105 1.54l-0.281 0.219 11.62 11.62 0.029-0.033c1.376-1.712 2.001-3.884 1.768-6.055l-0.037-0.296-0.192-1.338 8.916-5.163-9.219-9.219z"></path>
</svg>
