<?xml version="1.0" encoding="UTF-8"?>
<svg viewBox="0 0 32 32" version="1.1" xmlns="http://www.w3.org/2000/svg" xmlns:xlink="http://www.w3.org/1999/xlink">
<title>phone_s</title>
<path d="M16.917 19.961c-0.771-0.449-1.676-1.258-2.708-2.509-0.955-1.192-1.557-2.191-1.871-3.004-0.209-0.54-0.264-0.915-0.242-1.206 0.208-0.178 0.41-0.307 0.647-0.412 0.087-0.044 0.17-0.088 0.26-0.137s0.16-0.087 0.23-0.126c0.399-0.225 0.7-0.435 0.974-0.706 0.866-0.857 1.015-2.138 0.352-3.146-1.329-2.041-2.285-3.65-3.067-5.232-0.597-1.085-1.739-1.642-2.899-1.443-0.893 0.126-2.747 1.043-3.516 1.715-3.168 2.796-1.505 10.028 4.506 17.424 4.493 5.506 9.488 8.822 13.431 8.822 1.152 0 2.125-0.294 2.843-0.916 0.831-0.648 2.118-2.233 2.422-3.049 0.488-1.008 0.151-2.266-0.802-3.060-2.144-1.849-3.311-2.895-4.54-4.11-0.779-0.822-2.152-0.96-3.163-0.31-0.377 0.248-0.632 0.492-1.043 0.95-0.103 0.115-0.153 0.171-0.203 0.227-0.267 0.308-0.415 0.471-0.562 0.607-0.227-0.001-0.566-0.096-1.049-0.377v-0.001z"></path>
</svg>
