<?xml version="1.0" encoding="UTF-8"?>
<svg viewBox="0 0 32 32" version="1.1" xmlns="http://www.w3.org/2000/svg" xmlns:xlink="http://www.w3.org/1999/xlink">
<title>missed-call-dnd</title>
<path d="M8.791 3.353c-0.678-0.318-1.398-0.423-2.133-0.308-0.55 0.086-1.215 0.325-2.018 0.716-0.788 0.383-1.395 0.75-1.828 1.11-0.934 0.784-1.499 1.843-1.703 3.149-0.212 1.235-0.116 2.629 0.281 4.173 0.39 1.516 1.063 3.139 2.018 4.87 0.95 1.74 2.172 3.504 3.664 5.291 1.132 1.331 2.28 2.518 3.448 3.565l0.431 0.391c1.007 0.896 2.023 1.674 3.044 2.327 1.176 0.753 2.331 1.332 3.466 1.737 1.163 0.415 2.283 0.625 3.356 0.625 0.662 0 1.272-0.087 1.829-0.264 0.569-0.181 1.077-0.454 1.516-0.818l0.161-0.127c0.383-0.315 0.819-0.767 1.295-1.343 0.552-0.669 0.924-1.233 1.117-1.713l0.087-0.194c0.209-0.527 0.238-1.126 0.074-1.743-0.182-0.684-0.571-1.275-1.157-1.757l-1.129-0.938-0.947-0.804-0.459-0.399c-0.644-0.566-1.265-1.132-1.865-1.697-0.482-0.515-1.162-0.834-1.965-0.905-0.778-0.069-1.512 0.095-2.169 0.483-0.255 0.171-0.446 0.321-0.617 0.477l-0.049 0.045-0.272 0.265-0.254 0.263-0.085 0.107-0.080 0.079-0.218 0.239c-0.085-0.039-0.19-0.092-0.312-0.159-0.315-0.175-0.673-0.439-1.068-0.791-0.408-0.364-0.851-0.828-1.328-1.391-0.441-0.527-0.805-1.017-1.090-1.465-0.278-0.437-0.478-0.823-0.602-1.154l-0.098-0.258c-0.040-0.115-0.067-0.211-0.083-0.29 0.043-0.023 0.091-0.045 0.144-0.067l0.045-0.022 0.178-0.098 0.171-0.083c0.079-0.038 0.152-0.085 0.218-0.137 0.19-0.104 0.363-0.209 0.519-0.316 0.175-0.12 0.344-0.25 0.508-0.389 0.574-0.578 0.886-1.201 0.977-1.9 0.093-0.711-0.072-1.392-0.486-2.017-0.66-0.954-1.222-1.817-1.696-2.601-0.472-0.782-0.891-1.537-1.257-2.265-0.374-0.682-0.899-1.181-1.577-1.5zM6.966 5.022c0.34-0.053 0.657-0.008 0.976 0.142v0l0.12 0.063c0.23 0.133 0.406 0.319 0.553 0.588 0.357 0.713 0.801 1.514 1.299 2.338 0.497 0.822 1.081 1.72 1.763 2.705 0.129 0.196 0.177 0.395 0.147 0.621v0l-0.020 0.109c-0.042 0.179-0.129 0.345-0.289 0.528v0l-0.049 0.052-0.102 0.083-0.175 0.127c-0.097 0.067-0.213 0.137-0.346 0.21v0l-0.143 0.086-0.050 0.036-0.111 0.054-0.178 0.098-0.25 0.12c-0.782 0.414-1.199 1.294-1.025 2.162 0.056 0.281 0.153 0.573 0.292 0.913v0l0.073 0.183c0.172 0.406 0.404 0.833 0.691 1.286 0.335 0.527 0.75 1.085 1.243 1.674 0.541 0.639 1.048 1.169 1.531 1.601 0.494 0.441 0.968 0.792 1.428 1.047 0.164 0.091 0.317 0.169 0.459 0.233 0.788 0.357 1.717 0.166 2.3-0.472v0l0.157-0.172 0.159-0.162 0.090-0.104 0.036-0.047 0.227-0.231 0.16-0.152 0.079-0.069c0.055-0.046 0.117-0.094 0.189-0.145v0l0.049-0.035 0.119-0.063c0.253-0.117 0.523-0.161 0.827-0.134 0.321 0.028 0.543 0.131 0.681 0.279v0l0.088 0.088 0.624 0.582c0.421 0.388 0.852 0.775 1.293 1.163v0l0.471 0.41 0.817 0.695 1.295 1.078c0.27 0.222 0.424 0.456 0.496 0.726 0.061 0.231 0.047 0.403-0.017 0.53v0l-0.106 0.236c-0.122 0.252-0.374 0.623-0.765 1.097-0.452 0.547-0.838 0.937-1.112 1.142v0l-0.155 0.12c-0.255 0.186-0.495 0.306-0.768 0.392-0.351 0.111-0.757 0.17-1.223 0.17-0.831 0-1.725-0.167-2.684-0.509-0.984-0.351-2.004-0.862-3.059-1.538-1.061-0.679-2.129-1.515-3.194-2.502-1.123-1.007-2.208-2.129-3.283-3.393-1.401-1.677-2.548-3.335-3.432-4.954-0.883-1.601-1.492-3.070-1.836-4.41-0.332-1.289-0.407-2.403-0.247-3.337 0.137-0.878 0.47-1.496 1.018-1.956 0.282-0.235 0.755-0.522 1.416-0.843 0.651-0.317 1.137-0.49 1.451-0.538zM24 3l-0.225 0.004c-3.209 0.118-5.775 2.757-5.775 5.996 0 3.314 2.686 6 6 6l0.225-0.004c3.209-0.118 5.775-2.757 5.775-5.996l-0.004-0.225c-0.118-3.21-2.757-5.775-5.996-5.775zM26.637 9.694h-5.275c-0.184 0-0.36-0.073-0.491-0.203s-0.203-0.307-0.203-0.491c0-0.184 0.073-0.36 0.203-0.491s0.307-0.203 0.491-0.203h5.275c0.184 0 0.36 0.073 0.491 0.203s0.203 0.307 0.203 0.491c0 0.184-0.073 0.36-0.203 0.491s-0.307 0.203-0.491 0.203z"></path>
</svg>
