<?xml version="1.0" encoding="UTF-8"?>
<svg viewBox="0 0 32 32" version="1.1" xmlns="http://www.w3.org/2000/svg" xmlns:xlink="http://www.w3.org/1999/xlink">
<title>payment-method</title>
<path d="M2 9c0-1.657 1.343-3 3-3h22c1.657 0 3 1.343 3 3v14c0 1.657-1.343 3-3 3h-22c-1.657 0-3-1.343-3-3v-14zM5 8c-0.552 0-1 0.448-1 1v14c0 0.552 0.448 1 1 1h22c0.552 0 1-0.448 1-1v-14c0-0.552-0.448-1-1-1h-22z"></path>
<path d="M3 12h26v4h-26v-4z"></path>
<path d="M6 21c0-0.552 0.448-1 1-1h6c0.552 0 1 0.448 1 1s-0.448 1-1 1h-6c-0.552 0-1-0.448-1-1z"></path>
</svg>
