<?xml version="1.0" encoding="UTF-8"?>
<svg viewBox="0 0 32 32" version="1.1" xmlns="http://www.w3.org/2000/svg" xmlns:xlink="http://www.w3.org/1999/xlink">
<title>direct-line</title>
<path d="M8 2v25.76c0 0.586 0.206 1.186 0.63 1.61s1.024 0.63 1.61 0.63h11.2c0.586 0 1.186-0.206 1.61-0.63s0.63-1.024 0.63-1.61v-20.16c0-0.586-0.206-1.186-0.63-1.61s-1.024-0.63-1.61-0.63h-11.2v-3.36h-2.24zM10.24 7.6h11.2v4.48h-11.2v-4.48zM10.24 14.32h11.2v13.44h-11.2v-13.44zM11.36 16.56v2.24h2.24v-2.24h-2.24zM14.72 16.56v2.24h2.24v-2.24h-2.24zM18.080 16.56v2.24h2.24v-2.24h-2.24zM11.36 19.92v2.24h2.24v-2.24h-2.24zM14.72 19.92v2.24h2.24v-2.24h-2.24zM18.080 19.92v2.24h2.24v-2.24h-2.24zM11.36 23.28v2.24h2.24v-2.24h-2.24zM14.72 23.28v2.24h2.24v-2.24h-2.24zM18.080 23.28v2.24h2.24v-2.24h-2.24z"></path>
</svg>
