<?xml version="1.0" encoding="UTF-8"?>
<svg viewBox="0 0 32 32" version="1.1" xmlns="http://www.w3.org/2000/svg" xmlns:xlink="http://www.w3.org/1999/xlink">
<title>pick_up_call</title>
<path d="M8.064 16.054c1.167 0.044 2.103 0.989 2.146 2.168 0.054 0.846 0.025 1.695 0.036 2.543l-0.018 0.279c3.111 0.906 8.414 0.901 11.523-0.014l-0.011-2.010c-0.044-0.535 0.032-1.074 0.223-1.575 0.312-0.8 1.068-1.333 1.919-1.353 1.621-0.040 3.244-0.038 4.868 0.009 1.147 0.040 2.081 0.946 2.167 2.102 0.022 0.275 0.039 0.613 0.052 0.984l0.020 0.775 0.010 0.804v1.137l-0.008 0.63c-0.032 0.772-0.313 2.513-0.8 3.109-0.029 0.048-0.056 0.098-0.080 0.149l-0.649 0.673-0.71 0.518c-0.119 0.085-0.239 0.169-0.362 0.249-1.254 0.764-2.6 1.359-4.005 1.772l-0.529 0.146c-2.453 0.707-6.002 1.020-8.552 0.927-3.121-0.131-7.154-0.682-10.021-1.992-1.053-0.449-2.023-1.076-2.869-1.852-0.858-0.747-1.362-3.825-1.389-4.969l-0.020-1.148c-0.009-0.574-0.009-1.147 0.031-1.717 0.109-1.461 0.956-2.316 2.407-2.368 1.538-0.049 3.087-0.034 4.621 0.025zM3.515 18.028l-0.165 0.010c-0.211 0.022-0.271 0.084-0.302 0.317l-0.017 0.182-0.021 0.393-0.009 0.427 0.004 0.73 0.020 1.128c0.020 0.888 0.461 3.296 0.742 3.541 0.594 0.545 1.264 0.998 2.018 1.358l0.329 0.148c2.432 1.111 6.133 1.681 9.263 1.812 2.158 0.079 5.316-0.16 7.447-0.719l0.532-0.146c1.405-0.363 2.751-0.932 3.938-1.654l0.221-0.15 0.629-0.459 0.346-0.359 0.068-0.109 0.085-0.104c0.213-0.261 0.337-1.587 0.35-1.879l0.007-0.581 0.002-0.92-0.010-0.916-0.013-0.574-0.018-0.52-0.023-0.445c-0.004-0.067-0.009-0.13-0.014-0.188-0.011-0.142-0.118-0.247-0.229-0.25-1.587-0.045-3.174-0.048-4.764-0.009-0.042 0.001-0.084 0.030-0.097 0.064-0.068 0.178-0.103 0.367-0.104 0.558l0.012 0.296 0.020 3.515-1.444 0.425c-3.324 0.978-8.847 1.025-12.191 0.142l-0.455-0.126-1.517-0.442 0.093-1.834-0.002-1.41-0.005-0.36-0.010-0.314-0.016-0.309c-0.004-0.113-0.075-0.203-0.167-0.233l-0.057-0.010c-1.575-0.060-3.062-0.070-4.473-0.025zM16 2c0.32 0 0.604 0.15 0.787 0.383 0.032 0.025 0.062 0.052 0.091 0.081l5.657 5.657c0.391 0.391 0.391 1.024 0 1.414s-1.024 0.391-1.414 0l-4.122-4.122 0 12.586c0 0.552-0.448 1-1 1s-1-0.448-1-1l-0-12.587-4.121 4.123c-0.391 0.391-1.024 0.391-1.414 0s-0.391-1.024 0-1.414l5.657-5.657 0.094-0.083c0.187-0.235 0.469-0.381 0.784-0.381z"></path>
</svg>
