<?xml version="1.0" encoding="UTF-8"?>
<svg viewBox="0 0 32 32" version="1.1" xmlns="http://www.w3.org/2000/svg" xmlns:xlink="http://www.w3.org/1999/xlink">
<title>no-audio_sp</title>
<path d="M18.286 5.138v21.808l-6.835-4.549c-1.834-0.046-3.249-0.56-4.206-1.534-1.060-1.077-1.319-2.482-1.377-3.496l-0.013-0.341-0.001-0.435c0-0.043 0.001-0.083 0.002-0.121l0.002-0.745-0.005-0.632 0.008-0.341c0.042-1.015 0.272-2.427 1.36-3.534 0.958-0.971 2.381-1.486 4.231-1.529l6.835-4.552zM26.791 11.429l1.7 1.7-2.791 2.871 2.871 2.791-1.7 1.7-2.871-2.791-2.791 2.871-1.78-1.78 2.871-2.791-2.871-2.791 1.78-1.78 2.791 2.871 2.791-2.871z"></path>
</svg>
