<?xml version="1.0" encoding="UTF-8"?>
<svg viewBox="0 0 32 32" version="1.1" xmlns="http://www.w3.org/2000/svg" xmlns:xlink="http://www.w3.org/1999/xlink">
<title>sms</title>
<path d="M16 3c-7.748 0-14 5.199-14 11.889l0.005 0.314c0.1 3.24 1.738 6.355 4.449 8.564l0.294 0.232-0.013 0.040c-0.191 0.526-0.539 1.231-1.119 2.237l-0.811 1.308c-0.383 0.619 0.064 1.416 0.795 1.416h1.652l0.333-0.005c2.311-0.074 4.224-0.916 5.687-2.147l0.048-0.042 0.461 0.072c0.756 0.106 1.488 0.16 2.221 0.16 7.694 0 14-5.417 14-12.148 0-6.715-6.237-11.889-14-11.889z"></path>
</svg>
