<?xml version="1.0" encoding="UTF-8"?>
<svg viewBox="0 0 32 32" version="1.1" xmlns="http://www.w3.org/2000/svg" xmlns:xlink="http://www.w3.org/1999/xlink">
<title>reset</title>
<path d="M5 3c-0.552 0-1 0.448-1 1v0 6c0 0.511 0.383 0.932 0.878 0.993l0.005 0 0.117 0.007h6c0.552 0 1-0.448 1-1s-0.448-1-1-1v0l-3.486-0.001c2.029-2.45 5.071-3.999 8.476-3.999 0.004 0 0.007 0 0.011 0h-0.001c6.075 0 11 4.925 11 11s-4.925 11-11 11-11-4.925-11-11c0-0.552-0.448-1-1-1s-1 0.448-1 1v0c0 7.18 5.82 13 13 13s13-5.82 13-13-5.82-13-13-13c-0.003 0-0.007 0-0.011 0-4.008 0-7.592 1.817-9.973 4.672l-0.017 0.021 0.001-3.693c0-0.552-0.448-1-1-1v0z"></path>
</svg>
