<?xml version="1.0" encoding="UTF-8"?>
<svg viewBox="0 0 32 32" version="1.1" xmlns="http://www.w3.org/2000/svg" xmlns:xlink="http://www.w3.org/1999/xlink">
<title>list-bullet_l</title>
<path d="M4.333 22.667c1.234 0 2.246 0.96 2.328 2.174l0.005 0.16c0 1.234-0.96 2.246-2.174 2.328l-0.16 0.005c-1.288 0-2.333-1.045-2.333-2.333 0-1.234 0.96-2.246 2.174-2.328l0.16-0.005zM25.333 22.667c1.234 0 2.246 0.96 2.328 2.174l0.005 0.16c0 1.288-1.045 2.333-2.333 2.333h-14c-1.288 0-2.333-1.045-2.333-2.333s1.045-2.333 2.333-2.333h14zM4.333 13.333c1.234 0 2.246 0.96 2.328 2.174l0.005 0.16c0 1.234-0.96 2.246-2.174 2.328l-0.16 0.005c-1.288 0-2.333-1.045-2.333-2.333 0-1.234 0.96-2.246 2.174-2.328l0.16-0.005zM23 13.333c1.234 0 2.246 0.96 2.328 2.174l0.005 0.16c0 1.288-1.045 2.333-2.333 2.333h-11.667c-1.288 0-2.333-1.045-2.333-2.333s1.045-2.333 2.333-2.333h11.667zM4.333 4c1.234 0 2.246 0.96 2.328 2.174l0.005 0.16c0 1.234-0.96 2.246-2.174 2.328l-0.16 0.005c-1.288 0-2.333-1.045-2.333-2.333 0-1.234 0.96-2.246 2.174-2.328l0.16-0.005zM27.667 4c1.234 0 2.246 0.96 2.328 2.174l0.005 0.16c0 1.288-1.045 2.333-2.333 2.333h-16.333c-1.288 0-2.333-1.045-2.333-2.333s1.045-2.333 2.333-2.333h16.333z"></path>
</svg>
