<?xml version="1.0" encoding="UTF-8"?>
<svg viewBox="0 0 32 32" version="1.1" xmlns="http://www.w3.org/2000/svg" xmlns:xlink="http://www.w3.org/1999/xlink">
<title>github</title>
<path d="M26.901 13.759c0.102-0.652 0.167-1.367 0.183-2.169-0.006-3.439-1.649-4.656-1.965-5.226 0.465-2.606-0.078-3.791-0.33-4.197-0.931-0.332-3.238 0.854-4.499 1.688-2.057-0.602-6.4-0.544-8.029 0.156-3.006-2.157-4.596-1.828-4.596-1.828s-1.028 1.847-0.272 4.549c-0.989 1.263-1.726 2.156-1.726 4.524 0 0.568 0.035 1.103 0.095 1.619 0.852 4.488 4.4 6.424 7.886 6.758-0.525 0.399-1.154 1.155-1.241 2.031-0.659 0.427-1.985 0.568-3.016 0.243-1.445-0.457-1.997-3.324-4.161-2.915-0.468 0.088-0.375 0.398 0.030 0.661 0.659 0.428 1.28 0.96 1.758 2.1 0.367 0.875 1.14 2.436 3.584 2.436 0.97 0 1.65-0.114 1.65-0.114s0.018 2.229 0.018 3.098c0 1-1.347 1.281-1.347 1.761 0 0.191 0.446 0.209 0.804 0.209 0.708 0 2.182-0.591 2.182-1.631 0-0.826 0.013-3.602 0.013-4.089 0-1.063 0.568-1.4 0.568-1.4s0.069 5.672-0.137 6.432c-0.242 0.894-0.68 0.768-0.68 1.165 0 0.594 1.772 0.146 2.36-1.154 0.455-1.015 0.251-6.578 0.251-6.578l0.473-0.011c0 0 0.006 2.548-0.010 3.712-0.018 1.205-0.142 2.73 0.573 3.449 0.469 0.472 1.906 1.303 1.906 0.544 0-0.44-1.007-0.803-1.007-1.994v-5.487c0.612 0 0.738 1.804 0.738 1.804l0.22 3.35c0 0-0.147 1.222 1.319 1.733 0.517 0.181 1.622 0.23 1.675-0.074 0.051-0.305-1.332-0.757-1.346-1.703-0.006-0.577 0.027-0.913 0.027-3.42 0-2.505-0.336-3.432-1.506-4.171 3.395-0.349 6.919-1.869 7.555-5.863h0z"></path>
</svg>
