<?xml version="1.0" encoding="UTF-8"?>
<svg viewBox="0 0 32 32" version="1.1" xmlns="http://www.w3.org/2000/svg" xmlns:xlink="http://www.w3.org/1999/xlink">
<title>thumb-down_sp</title>
<path d="M16.139 27.554l2.537 0.846 4.928-10.678h3.232c1.546 0 2.8-1.254 2.8-2.8v-9.6c0-1.546-1.254-2.8-2.8-2.8h-18.027c-1.222 0-2.302 0.792-2.67 1.957l-3.132 9.918c-0.896 2.836 1.222 5.725 4.196 5.725h4.834v1.74c0 2.583 1.653 4.875 4.103 5.692zM23.632 15.322v-10.4h3.205c0.221 0 0.4 0.179 0.4 0.4v9.6c0 0.221-0.179 0.4-0.4 0.4h-3.205z"></path>
</svg>
