<?xml version="1.0" encoding="UTF-8"?>
<svg viewBox="0 0 32 32" version="1.1" xmlns="http://www.w3.org/2000/svg" xmlns:xlink="http://www.w3.org/1999/xlink">
<title>barge_sp</title>
<path d="M14.57 22.093l0.301 0.148 0.197 0.087c0.91 0.379 1.513 1.020 1.929 1.925 0.301 0.702 0.492 1.406 0.616 2.194l0.057 0.402 0.058 0.608-0.578 0.003-6.030-0.003-2.913-0.014-1.388-0.014h-2.246c-0.025-2.306 0.247-3.547 1.142-4.296 0.628-0.526 1.587-0.806 3.041-1.005l0.608-0.076c0.106-0.012 0.214-0.024 0.325-0.035l1.059-0.099c1.701-0.147 2.918-0.091 3.821 0.175zM21.251 21.917l0.721 0.065 0.663 0.069c1.801 0.204 2.938 0.485 3.651 1.080 0.896 0.749 1.168 1.99 1.143 4.296l-4.86 0.007-3.115 0.013-0.045-0.494c-0.234-2.152-0.818-3.796-1.831-4.931 0.972-0.209 2.121-0.239 3.673-0.105zM20.518 13.618c0.768-0.499 1.728-0.651 2.706-0.423 2.057 0.481 3.149 2.301 2.654 4.423-0.406 1.739-1.757 2.826-3.368 2.826-0.281 0-0.57-0.033-0.863-0.102-0.903-0.21-1.674-0.719-2.174-1.429-0.408-0.582-0.824-1.571-0.49-2.997 0.23-0.989 0.776-1.806 1.535-2.299zM8.776 13.195c0.977-0.226 1.936-0.077 2.707 0.423 0.758 0.494 1.304 1.311 1.534 2.299 0.333 1.425-0.082 2.415-0.49 2.997v0l-0.007 0.011c-0.511 0.702-1.267 1.216-2.166 1.419-0.293 0.067-0.582 0.101-0.864 0.101-1.609 0-2.96-1.087-3.366-2.824-0.496-2.125 0.595-3.943 2.653-4.425zM16.799 4.571v6.561l2.167-2.167 1.211 1.211-4.177 4.178-4.177-4.178 1.211-1.211 2.050 2.048v-6.442h1.714z"></path>
</svg>
